M48
; DRILL file {KiCad 7.0.2} date Mon May 22 10:17:23 2023
; FORMAT={-:-/ absolute / inch / decimal}
; #@! TF.CreationDate,2023-05-22T10:17:23+09:00
; #@! TF.GenerationSoftware,Kicad,Pcbnew,7.0.2
; #@! TF.FileFunction,Plated,1,2,PTH
FMAT,2
INCH
; #@! TA.AperFunction,Plated,PTH,ViaDrill
T1C0.0157
; #@! TA.AperFunction,Plated,PTH,ComponentDrill
T2C0.0197
; #@! TA.AperFunction,Plated,PTH,ComponentDrill
T3C0.0315
; #@! TA.AperFunction,Plated,PTH,ComponentDrill
T4C0.0354
%
G90
G05
T1
X4.0256Y-4.1732
X4.0354Y-4.9213
X4.0354Y-5.1181
X4.0354Y-5.315
X4.1339Y-4.0453
X4.1339Y-5.0197
X4.1339Y-5.2165
X4.1339Y-5.4134
X4.1732Y-4.2126
X4.2903Y-5.2248
X4.2903Y-5.276
X4.311Y-4.1339
X4.311Y-4.4882
X4.3307Y-4.0354
X4.3307Y-4.2618
X4.3307Y-4.5669
X4.3307Y-5.4134
X4.3799Y-4.7047
X4.3799Y-4.9409
X4.3898Y-4.4587
X4.3957Y-5.1004
X4.4307Y-5.3327
X4.4488Y-4.4587
X4.4685Y-4.5709
X4.5079Y-4.4587
X4.5276Y-5.4134
X4.5669Y-4.9213
X4.626Y-4.5276
X4.6283Y-5.1012
X4.6642Y-4.9594
X4.6654Y-4.8524
X4.689Y-4.4567
X4.7244Y-5.4134
X4.7343Y-4.2126
X4.7945Y-5.3319
X4.8154Y-4.8807
X4.8228Y-4.3307
X4.8744Y-5.1579
X4.8764Y-5.0209
X4.8819Y-4.7244
X4.9213Y-4.2323
X4.9213Y-5.4134
X4.9311Y-4.3307
X4.9508Y-4.1339
X4.9705Y-4.5374
X4.9705Y-4.7441
X4.9705Y-4.9016
X4.9803Y-4.9803
X5.0197Y-4.2323
X5.1181Y-5.2165
X5.1181Y-5.4134
X5.1476Y-4.8819
X5.1476Y-4.9409
X5.1476Y-5.0
X5.2165Y-4.5276
X5.2165Y-4.626
X5.2165Y-5.1181
X5.2165Y-5.315
X5.2264Y-4.2717
X5.2264Y-4.3307
X5.2362Y-4.7835
X5.2559Y-4.1732
T2
X4.1634Y-4.7244
X4.2126Y-4.6244
X4.2126Y-4.8244
X4.2618Y-4.7244
X4.3126Y-4.7244
T3
X4.3799Y-4.1181
X4.4783Y-4.1181
X4.5768Y-4.1181
X4.6752Y-4.1181
X4.7736Y-4.1181
X4.872Y-4.1181
T4
X4.0157Y-4.626
X4.0157Y-4.8228
T0
M30
