*
*
G04 PADS 9.5 Build Number: 522968 generated Gerber (RS-274-X) file*
G04 PC Version=2.1*
*
%IN "Total_Board_ATIK_V1.0.p"*%
*
%MOIN*%
*
%FSLAX35Y35*%
*
*
*
*
G04 PC Standard Apertures*
*
*
G04 Thermal Relief Aperture macro.*
%AMTER*
1,1,$1,0,0*
1,0,$1-$2,0,0*
21,0,$3,$4,0,0,45*
21,0,$3,$4,0,0,135*
%
*
*
G04 Annular Aperture macro.*
%AMANN*
1,1,$1,0,0*
1,0,$2,0,0*
%
*
*
G04 Odd Aperture macro.*
%AMODD*
1,1,$1,0,0*
1,0,$1-0.005,0,0*
%
*
*
G04 PC Custom Aperture Macros*
*
*
*
*
*
*
G04 PC Aperture Table*
*
%ADD011C,0.00591*%
%ADD014C,0.07087*%
%ADD016R,0.05906X0.05906*%
%ADD017C,0.05906*%
%ADD022C,0.03937*%
%ADD023C,0.02362*%
%ADD024C,0.01181*%
%ADD026C,0.01969*%
%ADD027C,0.001*%
%ADD030R,0.03543X0.03543*%
%ADD039C,0.01575*%
%ADD040C,0.00394*%
%ADD042C,0.07874*%
%ADD070R,0.04724X0.04724*%
%ADD102C,0.11811*%
%ADD108C,0.006*%
%ADD128C,0.06*%
%ADD129C,0.04724*%
%ADD136C,0.03543*%
%ADD153C,0.23622*%
%ADD214C,0.00906*%
%ADD216R,0.06X0.06*%
%ADD224R,0.1X0.1*%
%ADD225C,0.1*%
%ADD233R,0.15X0.15*%
%ADD234C,0.15*%
%ADD243C,0.11024*%
*
*
*
*
G04 PC Circuitry*
G04 Layer Name Total_Board_ATIK_V1.0.p - circuitry*
%LPD*%
*
*
G04 PC Custom Flashes*
G04 Layer Name Total_Board_ATIK_V1.0.p - flashes*
%LPD*%
*
*
G04 PC Circuitry*
G04 Layer Name Total_Board_ATIK_V1.0.p - circuitry*
%LPD*%
*
G54D11*
G01X488957Y779925D02*
G75*
G03X488957I-10138J0D01*
G01X477075Y1106484D02*
G03X477075I-4036J0D01*
G01Y1173098D02*
G03X477075I-4036J0D01*
G01X488957Y1250984D02*
G03X488957I-10138J0D01*
G01X432947Y899380D02*
G03X432947I-5217J0D01*
G01X433419Y961373D02*
G03X433419I-5217J0D01*
G01X422047Y816050D02*
G03X422047I-4035J0D01*
G01X412205D02*
G03X412205I-4036J0D01*
G01X388049Y936876D02*
G03X388049I-5264J0D01*
G01X358566Y868836D02*
G03X358566I-5217J0D01*
G01Y922980D02*
G03X358566I-5217J0D01*
G01X398327Y1075079D02*
G03X398327I-5217J0D01*
G01X294264Y815621D02*
G03X294264I-5264J0D01*
G01X373602Y1177717D02*
G03X373602I-5216J0D01*
G01X285303Y1207283D02*
G03X285303I-5264J0D01*
G01X191126Y815755D02*
G03X191126I-4626J0D01*
G01X181126D02*
G03X181126I-4626J0D01*
G01X125886Y779925D02*
G03X125886I-10138J0D01*
G01X140146Y1157232D02*
G03X140146I-4036J0D01*
G01Y1167075D02*
G03X140146I-4036J0D01*
G01X125886Y1250984D02*
G03X125886I-10138J0D01*
G01X492303Y765236D02*
Y1264173D01*
G03X492008Y1264468I-295J0*
G01X102559*
G03X102264Y1264173I0J-295*
G01Y1093425*
G03X102559Y1093130I295J0*
G01X245039*
X245335Y1092835D02*
G03X245039Y1093130I-296J-0D01*
G01X245335Y1092835D02*
Y1006605D01*
G03X245608Y1006310I295J-0*
G01Y997805D02*
G03Y1006310I-311J4253D01*
G01Y997805D02*
G03X245335Y997511I22J-294D01*
G01Y876605*
G03X245608Y876310I295J-0*
G01Y867805D02*
G03Y876310I-311J4253D01*
G01Y867805D02*
G03X245335Y867511I22J-294D01*
G01Y839606*
X245039Y839311D02*
G03X245335Y839606I0J295D01*
G01X245039Y839311D02*
X102559D01*
G03X102264Y839016I0J-295*
G01Y765236*
G03X102559Y764941I295J0*
G01X492008*
G03X492303Y765236I-0J295*
G01X488957Y779925D02*
G03X488957I-10138J0D01*
G01X477075Y1106484D02*
G03X477075I-4036J0D01*
G01Y1118098D02*
Y1114555D01*
X474811Y1112291D02*
G03X477075Y1114555I0J2264D01*
G01X474811Y1112291D02*
X471268D01*
X469004Y1114555D02*
G03X471268Y1112291I2264J0D01*
G01X469004Y1114555D02*
Y1118098D01*
X471268Y1120362D02*
G03X469004Y1118098I-0J-2264D01*
G01X471268Y1120362D02*
X474811D01*
X477075Y1118098D02*
G03X474811Y1120362I-2264J0D01*
G01X477075Y1173098D02*
G03X477075I-4036J0D01*
G01Y1184713D02*
Y1181169D01*
X474811Y1178905D02*
G03X477075Y1181169I0J2264D01*
G01X474811Y1178905D02*
X471268D01*
X469004Y1181169D02*
G03X471268Y1178905I2264J0D01*
G01X469004Y1181169D02*
Y1184713D01*
X471268Y1186976D02*
G03X469004Y1184713I-0J-2263D01*
G01X471268Y1186976D02*
X474811D01*
X477075Y1184713D02*
G03X474811Y1186976I-2264J-0D01*
G01X488957Y1250984D02*
G03X488957I-10138J0D01*
G01X457823Y901849D02*
G03X449948Y908374I-3141J4224D01*
G01X457823Y901849D02*
G03X457963Y901319I177J-237D01*
G01X459946Y899073D02*
G03X457963Y901319I-2264J-0D01*
G01X459946Y899073D02*
Y893073D01*
X457682Y890809D02*
G03X459946Y893073I0J2264D01*
G01X457682Y890809D02*
X451682D01*
X449436Y892792D02*
G03X451682Y890809I2246J281D01*
G01X449436Y892792D02*
G03X448906Y892932I-293J-37D01*
G01X442382Y900807D02*
G03X448906Y892932I2300J-4734D01*
G01X442382Y900807D02*
G03Y901338I-129J266D01*
G01X449417Y908374D02*
G03X442382Y901339I-4735J-2301D01*
G01X449417Y908374D02*
G03X449948I265J129D01*
G01X432947Y899380D02*
G03X432947I-5217J0D01*
G01X433419Y961373D02*
G03X433419I-5217J0D01*
G01X422047Y816050D02*
G03X422047I-4035J0D01*
G01X412205D02*
G03X412205I-4036J0D01*
G01X402362Y817822D02*
Y814279D01*
X400098Y812015D02*
G03X402362Y814279I0J2264D01*
G01X400098Y812015D02*
X396555D01*
X394291Y814279D02*
G03X396555Y812015I2264J-0D01*
G01X394291Y814279D02*
Y817822D01*
X396555Y820086D02*
G03X394291Y817822I-0J-2264D01*
G01X396555Y820086D02*
X400098D01*
X402362Y817822D02*
G03X400098Y820086I-2264J-0D01*
G01X388049Y936876D02*
G03X388049I-5264J0D01*
G01X358566Y868836D02*
G03X358566I-5217J0D01*
G01Y922980D02*
G03X358566I-5217J0D01*
G01X419131Y1025513D02*
G03X426509Y1032891I3689J3689D01*
G01X419131Y1025513D02*
X412644Y1032000D01*
G03X412436Y1032087I-208J-209*
G01X348708*
G03X348499Y1032000I0J-296*
G01X322057Y1005558*
G03X321971Y1005349I209J-209*
G01X321958Y870237*
X321958*
G03X321961Y870199I295J0*
G01X311522Y870200D02*
G03X321961Y870199I5219J-686D01*
G01X311522Y870200D02*
G03X311525Y870238I-292J38D01*
G01X311538Y1006681*
X311538*
G03X311534Y1006728I-295J0*
G01X312995Y1011250D02*
G03X311534Y1006728I3689J-3688D01*
G01X312995Y1011250D02*
X342737Y1040992D01*
X346425Y1042520D02*
G03X342737Y1040992I0J-5217D01*
G01X346425Y1042520D02*
X414719D01*
X418407Y1040992D02*
G03X414719Y1042520I-3688J-3689D01*
G01X418407Y1040992D02*
X426509Y1032891D01*
X398327Y1075079D02*
G03X398327I-5217J0D01*
G01X294264Y815621D02*
G03X294264I-5264J0D01*
G01X278147Y920677D02*
G03Y925278I4735J2301D01*
G01Y920677D02*
G03X277616I-265J-129D01*
G01Y925278D02*
G03Y920677I-4734J-2300D01*
G01Y925278D02*
G03X278147I266J129D01*
G01X356097Y1145596D02*
G03X351226Y1150467I-2436J2435D01*
G01X356097Y1145596D02*
X331885Y1121383D01*
X329449Y1120374D02*
G03X331885Y1121383I-0J3445D01*
G01X329449Y1120374D02*
X268404D01*
G03X268186Y1120277I0J-295*
G01Y1127360D02*
G03Y1120277I-3895J-3541D01*
G01Y1127360D02*
G03X268404Y1127264I218J199D01*
G01X327900*
G03X328108Y1127350I-0J295*
G01X351226Y1150467*
X361386Y1164436D02*
G03Y1170210I1488J2887D01*
G01Y1164436D02*
G03X361251Y1164468I-135J-263D01*
G01X341265*
G03X341056Y1164382I0J-295*
G01X334662Y1157988*
G03X334590Y1157869I209J-209*
G01X330507Y1161952D02*
G03X334590Y1157869I989J-3094D01*
G01X330507Y1161952D02*
G03X330626Y1162024I-90J281D01*
G01X337942Y1169341*
X339961Y1170177D02*
G03X337942Y1169341I-0J-2854D01*
G01X339961Y1170177D02*
X361251D01*
G03X361386Y1170210I-0J295*
G01X373602Y1177717D02*
G03X373602I-5216J0D01*
G01X285303Y1207283D02*
G03X285303I-5264J0D01*
G01X191126Y815755D02*
G03X191126I-4626J0D01*
G01X181126D02*
G03X181126I-4626J0D01*
G01X171126Y818117D02*
Y813392D01*
X168862Y811129D02*
G03X171126Y813392I0J2263D01*
G01X168862Y811129D02*
X164138D01*
X161874Y813392D02*
G03X164138Y811129I2264J0D01*
G01X161874Y813392D02*
Y818117D01*
X164138Y820381D02*
G03X161874Y818117I-0J-2264D01*
G01X164138Y820381D02*
X168862D01*
X171126Y818117D02*
G03X168862Y820381I-2264J-0D01*
G01X125886Y779925D02*
G03X125886I-10138J0D01*
G01X255335Y1197323D02*
Y1108071D01*
X244902D02*
G03X255335I5216J-0D01*
G01X244902D02*
Y1195040D01*
G03X244815Y1195249I-296J-0*
G01X236311Y1203752*
X243689Y1211130D02*
G03X236311Y1203752I-3689J-3689D01*
G01X243689Y1211130D02*
X253807Y1201011D01*
X255335Y1197323D02*
G03X253807Y1201011I-5217J-0D01*
G01X140146Y1157232D02*
G03X140146I-4036J0D01*
G01Y1167075D02*
G03X140146I-4036J0D01*
G01Y1178689D02*
Y1175146D01*
X137882Y1172882D02*
G03X140146Y1175146I-0J2264D01*
G01X137882Y1172882D02*
X134339D01*
X132075Y1175146D02*
G03X134339Y1172882I2264J-0D01*
G01X132075Y1175146D02*
Y1178689D01*
X134339Y1180953D02*
G03X132075Y1178689I-0J-2264D01*
G01X134339Y1180953D02*
X137882D01*
X140146Y1178689D02*
G03X137882Y1180953I-2264J-0D01*
G01X125886Y1250984D02*
G03X125886I-10138J0D01*
G01X238285Y1147352D02*
G03X231250Y1154387I-2301J4735D01*
G01X238285Y1147352D02*
G03Y1146821I129J-265D01*
G01X231760Y1138945D02*
G03X238285Y1146821I4224J3142D01*
G01X231760Y1138945D02*
G03X231231Y1138806I-236J-176D01*
G01X228984Y1136823D02*
G03X231231Y1138806I0J2264D01*
G01X228984Y1136823D02*
X222984D01*
X220720Y1139087D02*
G03X222984Y1136823I2264J-0D01*
G01X220720Y1139087D02*
Y1145087D01*
X222703Y1147333D02*
G03X220720Y1145087I281J-2246D01*
G01X222703Y1147333D02*
G03X222843Y1147863I-36J293D01*
G01X230719Y1154387D02*
G03X222843Y1147863I-4735J-2300D01*
G01X230719Y1154387D02*
G03X231250I265J129D01*
G01X102264Y1264014D02*
X492303D01*
X102264Y1263483D02*
X492303D01*
X102264Y1262951D02*
X492303D01*
X102264Y1262420D02*
X492303D01*
X102264Y1261888D02*
X492303D01*
X102264Y1261357D02*
X492303D01*
X481253Y1260825D02*
X492303D01*
X482832Y1260294D02*
X492303D01*
X483890Y1259762D02*
X492303D01*
X484715Y1259231D02*
X492303D01*
X485395Y1258699D02*
X492303D01*
X485972Y1258168D02*
X492303D01*
X486469Y1257636D02*
X492303D01*
X486900Y1257105D02*
X492303D01*
X487277Y1256573D02*
X492303D01*
X487605Y1256042D02*
X492303D01*
X487890Y1255510D02*
X492303D01*
X488136Y1254979D02*
X492303D01*
X488347Y1254448D02*
X492303D01*
X488524Y1253916D02*
X492303D01*
X488668Y1253385D02*
X492303D01*
X488783Y1252853D02*
X492303D01*
X488868Y1252322D02*
X492303D01*
X488925Y1251790D02*
X492303D01*
X488953Y1251259D02*
X492303D01*
X488953Y1250727D02*
X492303D01*
X488926Y1250196D02*
X492303D01*
X488870Y1249664D02*
X492303D01*
X488786Y1249133D02*
X492303D01*
X488673Y1248601D02*
X492303D01*
X488529Y1248070D02*
X492303D01*
X488353Y1247538D02*
X492303D01*
X488144Y1247007D02*
X492303D01*
X487899Y1246475D02*
X492303D01*
X487615Y1245944D02*
X492303D01*
X487288Y1245412D02*
X492303D01*
X486913Y1244881D02*
X492303D01*
X486484Y1244349D02*
X492303D01*
X485989Y1243818D02*
X492303D01*
X485415Y1243286D02*
X492303D01*
X484739Y1242755D02*
X492303D01*
X483920Y1242223D02*
X492303D01*
X482871Y1241692D02*
X492303D01*
X481321Y1241160D02*
X492303D01*
X102264Y1240629D02*
X492303D01*
X102264Y1240097D02*
X492303D01*
X102264Y1239566D02*
X492303D01*
X102264Y1239034D02*
X492303D01*
X102264Y1238503D02*
X492303D01*
X102264Y1237971D02*
X492303D01*
X102264Y1237440D02*
X492303D01*
X102264Y1236908D02*
X492303D01*
X102264Y1236377D02*
X492303D01*
X102264Y1235845D02*
X492303D01*
X102264Y1235314D02*
X492303D01*
X102264Y1234782D02*
X492303D01*
X102264Y1234251D02*
X492303D01*
X102264Y1233719D02*
X492303D01*
X102264Y1233188D02*
X492303D01*
X102264Y1232656D02*
X492303D01*
X102264Y1232125D02*
X492303D01*
X102264Y1231593D02*
X492303D01*
X102264Y1231062D02*
X492303D01*
X102264Y1230530D02*
X492303D01*
X102264Y1229999D02*
X492303D01*
X102264Y1229467D02*
X492303D01*
X102264Y1228936D02*
X492303D01*
X102264Y1228404D02*
X492303D01*
X102264Y1227873D02*
X492303D01*
X102264Y1227341D02*
X492303D01*
X102264Y1226810D02*
X492303D01*
X102264Y1226278D02*
X492303D01*
X102264Y1225747D02*
X492303D01*
X102264Y1225215D02*
X492303D01*
X102264Y1224684D02*
X492303D01*
X102264Y1224152D02*
X492303D01*
X102264Y1223621D02*
X492303D01*
X102264Y1223089D02*
X492303D01*
X102264Y1222558D02*
X492303D01*
X102264Y1222026D02*
X492303D01*
X102264Y1221495D02*
X492303D01*
X102264Y1220963D02*
X492303D01*
X102264Y1220432D02*
X492303D01*
X102264Y1219900D02*
X492303D01*
X102264Y1219369D02*
X492303D01*
X102264Y1218837D02*
X492303D01*
X102264Y1218306D02*
X492303D01*
X102264Y1217774D02*
X492303D01*
X102264Y1217243D02*
X492303D01*
X102264Y1216711D02*
X492303D01*
X102264Y1216180D02*
X492303D01*
X102264Y1215648D02*
X492303D01*
X102264Y1215117D02*
X492303D01*
X102264Y1214585D02*
X492303D01*
X102264Y1214054D02*
X492303D01*
X102264Y1213522D02*
X492303D01*
X102264Y1212991D02*
X492303D01*
X280998Y1212459D02*
X492303D01*
X282517Y1211928D02*
X492303D01*
X283324Y1211396D02*
X492303D01*
X283897Y1210865D02*
X492303D01*
X284330Y1210333D02*
X492303D01*
X284662Y1209802D02*
X492303D01*
X284914Y1209270D02*
X492303D01*
X285098Y1208739D02*
X492303D01*
X285221Y1208207D02*
X492303D01*
X285289Y1207676D02*
X492303D01*
X285301Y1207144D02*
X492303D01*
X285260Y1206613D02*
X492303D01*
X285164Y1206081D02*
X492303D01*
X285010Y1205550D02*
X492303D01*
X284791Y1205018D02*
X492303D01*
X284499Y1204487D02*
X492303D01*
X284118Y1203955D02*
X492303D01*
X283619Y1203424D02*
X492303D01*
X282942Y1202892D02*
X492303D01*
X281904Y1202361D02*
X492303D01*
X252989Y1201829D02*
X492303D01*
X253520Y1201298D02*
X492303D01*
X254037Y1200766D02*
X492303D01*
X254446Y1200235D02*
X492303D01*
X254760Y1199703D02*
X492303D01*
X254996Y1199172D02*
X492303D01*
X255166Y1198640D02*
X492303D01*
X255275Y1198109D02*
X492303D01*
X255328Y1197577D02*
X492303D01*
X255335Y1197046D02*
X492303D01*
X255335Y1196514D02*
X492303D01*
X255335Y1195983D02*
X492303D01*
X255335Y1195451D02*
X492303D01*
X255335Y1194920D02*
X492303D01*
X255335Y1194388D02*
X492303D01*
X255335Y1193857D02*
X492303D01*
X255335Y1193325D02*
X492303D01*
X255335Y1192794D02*
X492303D01*
X255335Y1192262D02*
X492303D01*
X255335Y1191731D02*
X492303D01*
X255335Y1191199D02*
X492303D01*
X255335Y1190668D02*
X492303D01*
X255335Y1190136D02*
X492303D01*
X255335Y1189605D02*
X492303D01*
X255335Y1189073D02*
X492303D01*
X255335Y1188542D02*
X492303D01*
X255335Y1188010D02*
X492303D01*
X255335Y1187479D02*
X492303D01*
X475172Y1186948D02*
X492303D01*
X476302Y1186416D02*
X492303D01*
X476748Y1185885D02*
X492303D01*
X476982Y1185353D02*
X492303D01*
X477072Y1184822D02*
X492303D01*
X477075Y1184290D02*
X492303D01*
X477075Y1183759D02*
X492303D01*
X477075Y1183227D02*
X492303D01*
X477075Y1182696D02*
X492303D01*
X477075Y1182164D02*
X492303D01*
X477075Y1181633D02*
X492303D01*
X477074Y1181101D02*
X492303D01*
X476994Y1180570D02*
X492303D01*
X476772Y1180038D02*
X492303D01*
X476347Y1179507D02*
X492303D01*
X475368Y1178975D02*
X492303D01*
X373551Y1178444D02*
X492303D01*
X373599Y1177912D02*
X492303D01*
X373592Y1177381D02*
X492303D01*
X474528Y1176849D02*
X492303D01*
X475473Y1176318D02*
X492303D01*
X476050Y1175786D02*
X492303D01*
X476451Y1175255D02*
X492303D01*
X476733Y1174723D02*
X492303D01*
X476924Y1174192D02*
X492303D01*
X477036Y1173660D02*
X492303D01*
X477075Y1173129D02*
X492303D01*
X477044Y1172597D02*
X492303D01*
X476940Y1172066D02*
X492303D01*
X476759Y1171534D02*
X492303D01*
X476488Y1171003D02*
X492303D01*
X476102Y1170471D02*
X492303D01*
X475551Y1169940D02*
X492303D01*
X474672Y1169408D02*
X492303D01*
X365726Y1168877D02*
X492303D01*
X365957Y1168345D02*
X492303D01*
X366085Y1167814D02*
X492303D01*
X366122Y1167282D02*
X492303D01*
X366071Y1166751D02*
X492303D01*
X365929Y1166219D02*
X492303D01*
X365680Y1165688D02*
X492303D01*
X365294Y1165156D02*
X492303D01*
X364682Y1164625D02*
X492303D01*
X363219Y1164093D02*
X492303D01*
X340236Y1163562D02*
X492303D01*
X339705Y1163030D02*
X492303D01*
X339173Y1162499D02*
X492303D01*
X338642Y1161967D02*
X492303D01*
X338110Y1161436D02*
X492303D01*
X337579Y1160904D02*
X492303D01*
X337047Y1160373D02*
X492303D01*
X336516Y1159841D02*
X492303D01*
X335984Y1159310D02*
X492303D01*
X335453Y1158778D02*
X492303D01*
X334921Y1158247D02*
X492303D01*
X334536Y1157715D02*
X492303D01*
X334279Y1157184D02*
X492303D01*
X333880Y1156652D02*
X492303D01*
X333244Y1156121D02*
X492303D01*
X255335Y1155589D02*
X492303D01*
X255335Y1155058D02*
X492303D01*
X255335Y1154526D02*
X492303D01*
X255335Y1153995D02*
X492303D01*
X255335Y1153463D02*
X492303D01*
X255335Y1152932D02*
X492303D01*
X255335Y1152400D02*
X492303D01*
X255335Y1151869D02*
X492303D01*
X354631Y1151337D02*
X492303D01*
X355704Y1150806D02*
X492303D01*
X356276Y1150274D02*
X492303D01*
X356651Y1149743D02*
X492303D01*
X356898Y1149211D02*
X492303D01*
X357045Y1148680D02*
X492303D01*
X357104Y1148148D02*
X492303D01*
X357081Y1147617D02*
X492303D01*
X356974Y1147085D02*
X492303D01*
X356773Y1146554D02*
X492303D01*
X356460Y1146022D02*
X492303D01*
X355993Y1145491D02*
X492303D01*
X355461Y1144959D02*
X492303D01*
X354930Y1144428D02*
X492303D01*
X354398Y1143896D02*
X492303D01*
X353867Y1143365D02*
X492303D01*
X353335Y1142833D02*
X492303D01*
X352804Y1142302D02*
X492303D01*
X352272Y1141770D02*
X492303D01*
X351741Y1141239D02*
X492303D01*
X351209Y1140707D02*
X492303D01*
X350678Y1140176D02*
X492303D01*
X350146Y1139644D02*
X492303D01*
X349615Y1139113D02*
X492303D01*
X349083Y1138581D02*
X492303D01*
X348552Y1138050D02*
X492303D01*
X348020Y1137518D02*
X492303D01*
X347489Y1136987D02*
X492303D01*
X346957Y1136455D02*
X492303D01*
X346426Y1135924D02*
X492303D01*
X345894Y1135392D02*
X492303D01*
X345363Y1134861D02*
X492303D01*
X344831Y1134329D02*
X492303D01*
X344300Y1133798D02*
X492303D01*
X343768Y1133266D02*
X492303D01*
X343237Y1132735D02*
X492303D01*
X342705Y1132203D02*
X492303D01*
X342174Y1131672D02*
X492303D01*
X341642Y1131140D02*
X492303D01*
X341111Y1130609D02*
X492303D01*
X340579Y1130077D02*
X492303D01*
X340048Y1129546D02*
X492303D01*
X339516Y1129014D02*
X492303D01*
X338985Y1128483D02*
X492303D01*
X338453Y1127951D02*
X492303D01*
X337922Y1127420D02*
X492303D01*
X337390Y1126888D02*
X492303D01*
X336859Y1126357D02*
X492303D01*
X336327Y1125825D02*
X492303D01*
X335796Y1125294D02*
X492303D01*
X335264Y1124762D02*
X492303D01*
X334733Y1124231D02*
X492303D01*
X334201Y1123699D02*
X492303D01*
X333670Y1123168D02*
X492303D01*
X333138Y1122636D02*
X492303D01*
X332607Y1122105D02*
X492303D01*
X332075Y1121573D02*
X492303D01*
X331487Y1121042D02*
X492303D01*
X330409Y1120510D02*
X492303D01*
X476071Y1119979D02*
X492303D01*
X476629Y1119448D02*
X492303D01*
X476922Y1118916D02*
X492303D01*
X477057Y1118385D02*
X492303D01*
X477075Y1117853D02*
X492303D01*
X477075Y1117322D02*
X492303D01*
X477075Y1116790D02*
X492303D01*
X477075Y1116259D02*
X492303D01*
X477075Y1115727D02*
X492303D01*
X477075Y1115196D02*
X492303D01*
X477075Y1114664D02*
X492303D01*
X477035Y1114133D02*
X492303D01*
X476864Y1113601D02*
X492303D01*
X476519Y1113070D02*
X492303D01*
X475839Y1112538D02*
X492303D01*
X255335Y1112007D02*
X492303D01*
X255335Y1111475D02*
X492303D01*
X255335Y1110944D02*
X492303D01*
X473965Y1110412D02*
X492303D01*
X475219Y1109881D02*
X492303D01*
X475881Y1109349D02*
X492303D01*
X476332Y1108818D02*
X492303D01*
X476650Y1108286D02*
X492303D01*
X476870Y1107755D02*
X492303D01*
X477007Y1107223D02*
X492303D01*
X477069Y1106692D02*
X492303D01*
X477062Y1106160D02*
X492303D01*
X476983Y1105629D02*
X492303D01*
X476829Y1105097D02*
X492303D01*
X476590Y1104566D02*
X492303D01*
X476246Y1104034D02*
X492303D01*
X475759Y1103503D02*
X492303D01*
X475025Y1102971D02*
X492303D01*
X102264Y1102440D02*
X492303D01*
X102264Y1101908D02*
X492303D01*
X102264Y1101377D02*
X492303D01*
X102264Y1100845D02*
X492303D01*
X102264Y1100314D02*
X492303D01*
X102264Y1099782D02*
X492303D01*
X102264Y1099251D02*
X492303D01*
X102264Y1098719D02*
X492303D01*
X102264Y1098188D02*
X492303D01*
X102264Y1097656D02*
X492303D01*
X102264Y1097125D02*
X492303D01*
X102264Y1096593D02*
X492303D01*
X102264Y1096062D02*
X492303D01*
X102264Y1095530D02*
X492303D01*
X102264Y1094999D02*
X492303D01*
X102264Y1094467D02*
X492303D01*
X102264Y1093936D02*
X492303D01*
X102265Y1093404D02*
X492303D01*
X245332Y1092873D02*
X492303D01*
X245335Y1092341D02*
X492303D01*
X245335Y1091810D02*
X492303D01*
X245335Y1091278D02*
X492303D01*
X245335Y1090747D02*
X492303D01*
X245335Y1090215D02*
X492303D01*
X245335Y1089684D02*
X492303D01*
X245335Y1089152D02*
X492303D01*
X245335Y1088621D02*
X492303D01*
X245335Y1088089D02*
X492303D01*
X245335Y1087558D02*
X492303D01*
X245335Y1087026D02*
X492303D01*
X245335Y1086495D02*
X492303D01*
X245335Y1085963D02*
X492303D01*
X245335Y1085432D02*
X492303D01*
X245335Y1084900D02*
X492303D01*
X245335Y1084369D02*
X492303D01*
X245335Y1083837D02*
X492303D01*
X245335Y1083306D02*
X492303D01*
X245335Y1082774D02*
X492303D01*
X245335Y1082243D02*
X492303D01*
X245335Y1081711D02*
X492303D01*
X245335Y1081180D02*
X492303D01*
X245335Y1080648D02*
X492303D01*
X394463Y1080117D02*
X492303D01*
X395738Y1079585D02*
X492303D01*
X396488Y1079054D02*
X492303D01*
X397029Y1078522D02*
X492303D01*
X397438Y1077991D02*
X492303D01*
X397752Y1077459D02*
X492303D01*
X397988Y1076928D02*
X492303D01*
X398158Y1076396D02*
X492303D01*
X398267Y1075865D02*
X492303D01*
X398321Y1075333D02*
X492303D01*
X398319Y1074802D02*
X492303D01*
X398264Y1074270D02*
X492303D01*
X398152Y1073739D02*
X492303D01*
X397980Y1073207D02*
X492303D01*
X397740Y1072676D02*
X492303D01*
X397423Y1072144D02*
X492303D01*
X397009Y1071613D02*
X492303D01*
X396462Y1071081D02*
X492303D01*
X395699Y1070550D02*
X492303D01*
X394377Y1070018D02*
X492303D01*
X245335Y1069487D02*
X492303D01*
X245335Y1068955D02*
X492303D01*
X245335Y1068424D02*
X492303D01*
X245335Y1067892D02*
X492303D01*
X245335Y1067361D02*
X492303D01*
X245335Y1066829D02*
X492303D01*
X245335Y1066298D02*
X492303D01*
X245335Y1065766D02*
X492303D01*
X245335Y1065235D02*
X492303D01*
X245335Y1064703D02*
X492303D01*
X245335Y1064172D02*
X492303D01*
X245335Y1063640D02*
X492303D01*
X245335Y1063109D02*
X492303D01*
X245335Y1062577D02*
X492303D01*
X245335Y1062046D02*
X492303D01*
X245335Y1061514D02*
X492303D01*
X245335Y1060983D02*
X492303D01*
X245335Y1060451D02*
X492303D01*
X245335Y1059920D02*
X492303D01*
X245335Y1059388D02*
X492303D01*
X245335Y1058857D02*
X492303D01*
X245335Y1058325D02*
X492303D01*
X245335Y1057794D02*
X492303D01*
X245335Y1057262D02*
X492303D01*
X245335Y1056731D02*
X492303D01*
X245335Y1056199D02*
X492303D01*
X245335Y1055668D02*
X492303D01*
X245335Y1055136D02*
X492303D01*
X245335Y1054605D02*
X492303D01*
X245335Y1054073D02*
X492303D01*
X245335Y1053542D02*
X492303D01*
X245335Y1053010D02*
X492303D01*
X245335Y1052479D02*
X492303D01*
X245335Y1051948D02*
X492303D01*
X245335Y1051416D02*
X492303D01*
X245335Y1050885D02*
X492303D01*
X245335Y1050353D02*
X492303D01*
X245335Y1049822D02*
X492303D01*
X245335Y1049290D02*
X492303D01*
X245335Y1048759D02*
X492303D01*
X245335Y1048227D02*
X492303D01*
X245335Y1047696D02*
X492303D01*
X245335Y1047164D02*
X492303D01*
X245335Y1046633D02*
X492303D01*
X245335Y1046101D02*
X492303D01*
X245335Y1045570D02*
X492303D01*
X245335Y1045038D02*
X492303D01*
X245335Y1044507D02*
X492303D01*
X245335Y1043975D02*
X492303D01*
X245335Y1043444D02*
X492303D01*
X245335Y1042912D02*
X492303D01*
X415916Y1042381D02*
X492303D01*
X417277Y1041849D02*
X492303D01*
X418050Y1041318D02*
X492303D01*
X418613Y1040786D02*
X492303D01*
X419145Y1040255D02*
X492303D01*
X419676Y1039723D02*
X492303D01*
X420208Y1039192D02*
X492303D01*
X420739Y1038660D02*
X492303D01*
X421271Y1038129D02*
X492303D01*
X421802Y1037597D02*
X492303D01*
X422334Y1037066D02*
X492303D01*
X422865Y1036534D02*
X492303D01*
X423397Y1036003D02*
X492303D01*
X423928Y1035471D02*
X492303D01*
X424460Y1034940D02*
X492303D01*
X424991Y1034408D02*
X492303D01*
X425523Y1033877D02*
X492303D01*
X426054Y1033345D02*
X492303D01*
X426584Y1032814D02*
X492303D01*
X427030Y1032282D02*
X492303D01*
X427372Y1031751D02*
X492303D01*
X427631Y1031219D02*
X492303D01*
X427821Y1030688D02*
X492303D01*
X427949Y1030156D02*
X492303D01*
X428019Y1029625D02*
X492303D01*
X428035Y1029093D02*
X492303D01*
X427997Y1028562D02*
X492303D01*
X427903Y1028030D02*
X492303D01*
X427751Y1027499D02*
X492303D01*
X427534Y1026967D02*
X492303D01*
X427243Y1026436D02*
X492303D01*
X426862Y1025904D02*
X492303D01*
X426363Y1025373D02*
X492303D01*
X425683Y1024841D02*
X492303D01*
X424631Y1024310D02*
X492303D01*
X340278Y1023778D02*
X492303D01*
X339746Y1023247D02*
X492303D01*
X339215Y1022715D02*
X492303D01*
X338683Y1022184D02*
X492303D01*
X338152Y1021652D02*
X492303D01*
X337620Y1021121D02*
X492303D01*
X337089Y1020589D02*
X492303D01*
X336557Y1020058D02*
X492303D01*
X336026Y1019526D02*
X492303D01*
X335494Y1018995D02*
X492303D01*
X334963Y1018463D02*
X492303D01*
X334431Y1017932D02*
X492303D01*
X333900Y1017400D02*
X492303D01*
X333368Y1016869D02*
X492303D01*
X332837Y1016337D02*
X492303D01*
X332305Y1015806D02*
X492303D01*
X331774Y1015274D02*
X492303D01*
X331242Y1014743D02*
X492303D01*
X330711Y1014211D02*
X492303D01*
X330179Y1013680D02*
X492303D01*
X329648Y1013148D02*
X492303D01*
X329116Y1012617D02*
X492303D01*
X328585Y1012085D02*
X492303D01*
X328053Y1011554D02*
X492303D01*
X327522Y1011022D02*
X492303D01*
X326990Y1010491D02*
X492303D01*
X326459Y1009959D02*
X492303D01*
X325927Y1009428D02*
X492303D01*
X325396Y1008896D02*
X492303D01*
X324864Y1008365D02*
X492303D01*
X324333Y1007833D02*
X492303D01*
X323801Y1007302D02*
X492303D01*
X323270Y1006770D02*
X492303D01*
X322738Y1006239D02*
X492303D01*
X322207Y1005707D02*
X492303D01*
X321971Y1005176D02*
X492303D01*
X321971Y1004644D02*
X492303D01*
X321971Y1004113D02*
X492303D01*
X321971Y1003581D02*
X492303D01*
X321971Y1003050D02*
X492303D01*
X321971Y1002518D02*
X492303D01*
X321971Y1001987D02*
X492303D01*
X321971Y1001455D02*
X492303D01*
X321971Y1000924D02*
X492303D01*
X321970Y1000392D02*
X492303D01*
X321970Y999861D02*
X492303D01*
X321970Y999329D02*
X492303D01*
X321970Y998798D02*
X492303D01*
X321970Y998266D02*
X492303D01*
X321970Y997735D02*
X492303D01*
X321970Y997203D02*
X492303D01*
X321970Y996672D02*
X492303D01*
X321970Y996140D02*
X492303D01*
X321970Y995609D02*
X492303D01*
X321970Y995077D02*
X492303D01*
X321970Y994546D02*
X492303D01*
X321970Y994014D02*
X492303D01*
X321970Y993483D02*
X492303D01*
X321970Y992951D02*
X492303D01*
X321970Y992420D02*
X492303D01*
X321970Y991888D02*
X492303D01*
X321970Y991357D02*
X492303D01*
X321970Y990825D02*
X492303D01*
X321970Y990294D02*
X492303D01*
X321969Y989762D02*
X492303D01*
X321969Y989231D02*
X492303D01*
X321969Y988699D02*
X492303D01*
X321969Y988168D02*
X492303D01*
X321969Y987636D02*
X492303D01*
X321969Y987105D02*
X492303D01*
X321969Y986573D02*
X492303D01*
X321969Y986042D02*
X492303D01*
X321969Y985510D02*
X492303D01*
X321969Y984979D02*
X492303D01*
X321969Y984448D02*
X492303D01*
X321969Y983916D02*
X492303D01*
X321969Y983385D02*
X492303D01*
X321969Y982853D02*
X492303D01*
X321969Y982322D02*
X492303D01*
X321969Y981790D02*
X492303D01*
X321969Y981259D02*
X492303D01*
X321969Y980727D02*
X492303D01*
X321969Y980196D02*
X492303D01*
X321969Y979664D02*
X492303D01*
X321968Y979133D02*
X492303D01*
X321968Y978601D02*
X492303D01*
X321968Y978070D02*
X492303D01*
X321968Y977538D02*
X492303D01*
X321968Y977007D02*
X492303D01*
X321968Y976475D02*
X492303D01*
X321968Y975944D02*
X492303D01*
X321968Y975412D02*
X492303D01*
X321968Y974881D02*
X492303D01*
X321968Y974349D02*
X492303D01*
X321968Y973818D02*
X492303D01*
X321968Y973286D02*
X492303D01*
X321968Y972755D02*
X492303D01*
X321968Y972223D02*
X492303D01*
X321968Y971692D02*
X492303D01*
X321968Y971160D02*
X492303D01*
X321968Y970629D02*
X492303D01*
X321968Y970097D02*
X492303D01*
X321968Y969566D02*
X492303D01*
X321967Y969034D02*
X492303D01*
X321967Y968503D02*
X492303D01*
X321967Y967971D02*
X492303D01*
X321967Y967440D02*
X492303D01*
X321967Y966908D02*
X492303D01*
X429677Y966377D02*
X492303D01*
X430887Y965845D02*
X492303D01*
X431620Y965314D02*
X492303D01*
X432150Y964782D02*
X492303D01*
X432553Y964251D02*
X492303D01*
X432861Y963719D02*
X492303D01*
X433093Y963188D02*
X492303D01*
X433258Y962656D02*
X492303D01*
X433364Y962125D02*
X492303D01*
X433414Y961593D02*
X492303D01*
X433409Y961062D02*
X492303D01*
X433350Y960530D02*
X492303D01*
X433234Y959999D02*
X492303D01*
X433058Y959467D02*
X492303D01*
X432814Y958936D02*
X492303D01*
X432491Y958404D02*
X492303D01*
X432070Y957873D02*
X492303D01*
X431512Y957341D02*
X492303D01*
X430730Y956810D02*
X492303D01*
X429323Y956278D02*
X492303D01*
X321966Y955747D02*
X492303D01*
X321966Y955215D02*
X492303D01*
X321966Y954684D02*
X492303D01*
X321966Y954152D02*
X492303D01*
X321966Y953621D02*
X492303D01*
X321966Y953089D02*
X492303D01*
X321966Y952558D02*
X492303D01*
X321966Y952026D02*
X492303D01*
X321966Y951495D02*
X492303D01*
X321966Y950963D02*
X492303D01*
X321966Y950432D02*
X492303D01*
X321966Y949900D02*
X492303D01*
X321966Y949369D02*
X492303D01*
X321966Y948837D02*
X492303D01*
X321966Y948306D02*
X492303D01*
X321965Y947774D02*
X492303D01*
X321965Y947243D02*
X492303D01*
X321965Y946711D02*
X492303D01*
X321965Y946180D02*
X492303D01*
X321965Y945648D02*
X492303D01*
X321965Y945117D02*
X492303D01*
X321965Y944585D02*
X492303D01*
X321965Y944054D02*
X492303D01*
X321965Y943522D02*
X492303D01*
X321965Y942991D02*
X492303D01*
X321965Y942459D02*
X492303D01*
X384265Y941928D02*
X492303D01*
X385482Y941396D02*
X492303D01*
X386220Y940865D02*
X492303D01*
X386754Y940333D02*
X492303D01*
X387161Y939802D02*
X492303D01*
X387473Y939270D02*
X492303D01*
X387708Y938739D02*
X492303D01*
X387878Y938207D02*
X492303D01*
X387988Y937676D02*
X492303D01*
X388042Y937144D02*
X492303D01*
X388042Y936613D02*
X492303D01*
X387988Y936081D02*
X492303D01*
X387879Y935550D02*
X492303D01*
X387710Y935018D02*
X492303D01*
X387475Y934487D02*
X492303D01*
X387164Y933955D02*
X492303D01*
X386758Y933424D02*
X492303D01*
X386225Y932892D02*
X492303D01*
X385490Y932361D02*
X492303D01*
X384280Y931829D02*
X492303D01*
X321964Y931298D02*
X492303D01*
X321964Y930766D02*
X492303D01*
X321964Y930235D02*
X492303D01*
X321964Y929703D02*
X492303D01*
X321964Y929172D02*
X492303D01*
X321964Y928640D02*
X492303D01*
X354301Y928109D02*
X492303D01*
X355814Y927577D02*
X492303D01*
X356617Y927046D02*
X492303D01*
X357186Y926514D02*
X492303D01*
X357614Y925983D02*
X492303D01*
X357943Y925451D02*
X492303D01*
X358191Y924920D02*
X492303D01*
X358372Y924388D02*
X492303D01*
X358491Y923857D02*
X492303D01*
X358554Y923325D02*
X492303D01*
X358562Y922794D02*
X492303D01*
X358516Y922262D02*
X492303D01*
X358414Y921731D02*
X492303D01*
X358252Y921199D02*
X492303D01*
X358025Y920668D02*
X492303D01*
X357722Y920136D02*
X492303D01*
X357327Y919605D02*
X492303D01*
X356806Y919073D02*
X492303D01*
X356091Y918542D02*
X492303D01*
X354936Y918010D02*
X492303D01*
X321963Y917479D02*
X492303D01*
X321963Y916948D02*
X492303D01*
X321962Y916416D02*
X492303D01*
X321962Y915885D02*
X492303D01*
X321962Y915353D02*
X492303D01*
X321962Y914822D02*
X492303D01*
X321962Y914290D02*
X492303D01*
X321962Y913759D02*
X492303D01*
X321962Y913227D02*
X492303D01*
X321962Y912696D02*
X492303D01*
X321962Y912164D02*
X492303D01*
X321962Y911633D02*
X492303D01*
X456240Y911101D02*
X492303D01*
X457419Y910570D02*
X492303D01*
X458144Y910038D02*
X492303D01*
X458672Y909507D02*
X492303D01*
X459074Y908975D02*
X492303D01*
X459382Y908444D02*
X492303D01*
X459614Y907912D02*
X492303D01*
X459781Y907381D02*
X492303D01*
X459888Y906849D02*
X492303D01*
X459940Y906318D02*
X492303D01*
X459938Y905786D02*
X492303D01*
X459882Y905255D02*
X492303D01*
X459770Y904723D02*
X492303D01*
X459598Y904192D02*
X492303D01*
X459360Y903660D02*
X492303D01*
X459046Y903129D02*
X492303D01*
X458635Y902597D02*
X492303D01*
X458095Y902066D02*
X492303D01*
X457715Y901534D02*
X492303D01*
X458866Y901003D02*
X492303D01*
X459463Y900471D02*
X492303D01*
X459773Y899940D02*
X492303D01*
X459921Y899408D02*
X492303D01*
X459946Y898877D02*
X492303D01*
X459946Y898345D02*
X492303D01*
X459946Y897814D02*
X492303D01*
X459946Y897282D02*
X492303D01*
X459946Y896751D02*
X492303D01*
X459946Y896219D02*
X492303D01*
X459946Y895688D02*
X492303D01*
X459946Y895156D02*
X492303D01*
X459946Y894625D02*
X492303D01*
X459946Y894093D02*
X492303D01*
X459946Y893562D02*
X492303D01*
X459946Y893030D02*
X492303D01*
X459872Y892499D02*
X492303D01*
X459658Y891967D02*
X492303D01*
X459246Y891436D02*
X492303D01*
X458331Y890904D02*
X492303D01*
X321960Y890373D02*
X492303D01*
X321960Y889841D02*
X492303D01*
X321960Y889310D02*
X492303D01*
X321960Y888778D02*
X492303D01*
X321960Y888247D02*
X492303D01*
X321960Y887715D02*
X492303D01*
X321960Y887184D02*
X492303D01*
X321960Y886652D02*
X492303D01*
X321960Y886121D02*
X492303D01*
X321960Y885589D02*
X492303D01*
X321960Y885058D02*
X492303D01*
X321959Y884526D02*
X492303D01*
X321959Y883995D02*
X492303D01*
X321959Y883463D02*
X492303D01*
X321959Y882932D02*
X492303D01*
X321959Y882400D02*
X492303D01*
X321959Y881869D02*
X492303D01*
X321959Y881337D02*
X492303D01*
X321959Y880806D02*
X492303D01*
X321959Y880274D02*
X492303D01*
X321959Y879743D02*
X492303D01*
X321959Y879211D02*
X492303D01*
X321959Y878680D02*
X492303D01*
X321959Y878148D02*
X492303D01*
X321959Y877617D02*
X492303D01*
X321959Y877085D02*
X492303D01*
X321959Y876554D02*
X492303D01*
X321959Y876022D02*
X492303D01*
X321959Y875491D02*
X492303D01*
X321959Y874959D02*
X492303D01*
X321958Y874428D02*
X492303D01*
X354616Y873896D02*
X492303D01*
X355938Y873365D02*
X492303D01*
X356701Y872833D02*
X492303D01*
X357248Y872302D02*
X492303D01*
X357662Y871770D02*
X492303D01*
X357979Y871239D02*
X492303D01*
X358218Y870707D02*
X492303D01*
X358391Y870176D02*
X492303D01*
X358503Y869644D02*
X492303D01*
X358558Y869113D02*
X492303D01*
X358559Y868581D02*
X492303D01*
X358506Y868050D02*
X492303D01*
X358396Y867518D02*
X492303D01*
X358227Y866987D02*
X492303D01*
X357991Y866455D02*
X492303D01*
X357677Y865924D02*
X492303D01*
X357267Y865392D02*
X492303D01*
X356727Y864861D02*
X492303D01*
X355977Y864329D02*
X492303D01*
X354702Y863798D02*
X492303D01*
X245335Y863266D02*
X492303D01*
X245335Y862735D02*
X492303D01*
X245335Y862203D02*
X492303D01*
X245335Y861672D02*
X492303D01*
X245335Y861140D02*
X492303D01*
X245335Y860609D02*
X492303D01*
X245335Y860077D02*
X492303D01*
X245335Y859546D02*
X492303D01*
X245335Y859014D02*
X492303D01*
X245335Y858483D02*
X492303D01*
X245335Y857951D02*
X492303D01*
X245335Y857420D02*
X492303D01*
X245335Y856888D02*
X492303D01*
X245335Y856357D02*
X492303D01*
X245335Y855825D02*
X492303D01*
X245335Y855294D02*
X492303D01*
X245335Y854762D02*
X492303D01*
X245335Y854231D02*
X492303D01*
X245335Y853699D02*
X492303D01*
X245335Y853168D02*
X492303D01*
X245335Y852636D02*
X492303D01*
X245335Y852105D02*
X492303D01*
X245335Y851573D02*
X492303D01*
X245335Y851042D02*
X492303D01*
X245335Y850510D02*
X492303D01*
X245335Y849979D02*
X492303D01*
X245335Y849448D02*
X492303D01*
X245335Y848916D02*
X492303D01*
X245335Y848385D02*
X492303D01*
X245335Y847853D02*
X492303D01*
X245335Y847322D02*
X492303D01*
X245335Y846790D02*
X492303D01*
X245335Y846259D02*
X492303D01*
X245335Y845727D02*
X492303D01*
X245335Y845196D02*
X492303D01*
X245335Y844664D02*
X492303D01*
X245335Y844133D02*
X492303D01*
X245335Y843601D02*
X492303D01*
X245335Y843070D02*
X492303D01*
X245335Y842538D02*
X492303D01*
X245335Y842007D02*
X492303D01*
X245335Y841475D02*
X492303D01*
X245335Y840944D02*
X492303D01*
X245335Y840412D02*
X492303D01*
X245335Y839881D02*
X492303D01*
X245184Y839349D02*
X492303D01*
X102264Y838818D02*
X492303D01*
X102264Y838286D02*
X492303D01*
X102264Y837755D02*
X492303D01*
X102264Y837223D02*
X492303D01*
X102264Y836692D02*
X492303D01*
X102264Y836160D02*
X492303D01*
X102264Y835629D02*
X492303D01*
X102264Y835097D02*
X492303D01*
X102264Y834566D02*
X492303D01*
X102264Y834034D02*
X492303D01*
X102264Y833503D02*
X492303D01*
X102264Y832971D02*
X492303D01*
X102264Y832440D02*
X492303D01*
X102264Y831908D02*
X492303D01*
X102264Y831377D02*
X492303D01*
X102264Y830845D02*
X492303D01*
X102264Y830314D02*
X492303D01*
X102264Y829782D02*
X492303D01*
X102264Y829251D02*
X492303D01*
X102264Y828719D02*
X492303D01*
X102264Y828188D02*
X492303D01*
X102264Y827656D02*
X492303D01*
X102264Y827125D02*
X492303D01*
X102264Y826593D02*
X492303D01*
X102264Y826062D02*
X492303D01*
X102264Y825530D02*
X492303D01*
X102264Y824999D02*
X492303D01*
X102264Y824467D02*
X492303D01*
X102264Y823936D02*
X492303D01*
X102264Y823404D02*
X492303D01*
X102264Y822873D02*
X492303D01*
X102264Y822341D02*
X492303D01*
X102264Y821810D02*
X492303D01*
X102264Y821278D02*
X492303D01*
X290197Y820747D02*
X492303D01*
X291569Y820215D02*
X492303D01*
X419767Y819684D02*
X492303D01*
X420593Y819152D02*
X492303D01*
X421122Y818621D02*
X492303D01*
X421494Y818089D02*
X492303D01*
X421755Y817558D02*
X492303D01*
X421927Y817026D02*
X492303D01*
X422023Y816495D02*
X492303D01*
X422046Y815963D02*
X492303D01*
X421999Y815432D02*
X492303D01*
X421880Y814900D02*
X492303D01*
X421680Y814369D02*
X492303D01*
X421386Y813837D02*
X492303D01*
X420970Y813306D02*
X492303D01*
X420368Y812774D02*
X492303D01*
X419349Y812243D02*
X492303D01*
X292525Y811711D02*
X492303D01*
X291826Y811180D02*
X492303D01*
X290727Y810648D02*
X492303D01*
X102264Y810117D02*
X492303D01*
X102264Y809585D02*
X492303D01*
X102264Y809054D02*
X492303D01*
X102264Y808522D02*
X492303D01*
X102264Y807991D02*
X492303D01*
X102264Y807459D02*
X492303D01*
X102264Y806928D02*
X492303D01*
X102264Y806396D02*
X492303D01*
X102264Y805865D02*
X492303D01*
X102264Y805333D02*
X492303D01*
X102264Y804802D02*
X492303D01*
X102264Y804270D02*
X492303D01*
X102264Y803739D02*
X492303D01*
X102264Y803207D02*
X492303D01*
X102264Y802676D02*
X492303D01*
X102264Y802144D02*
X492303D01*
X102264Y801613D02*
X492303D01*
X102264Y801081D02*
X492303D01*
X102264Y800550D02*
X492303D01*
X102264Y800018D02*
X492303D01*
X102264Y799487D02*
X492303D01*
X102264Y798955D02*
X492303D01*
X102264Y798424D02*
X492303D01*
X102264Y797892D02*
X492303D01*
X102264Y797361D02*
X492303D01*
X102264Y796829D02*
X492303D01*
X102264Y796298D02*
X492303D01*
X102264Y795766D02*
X492303D01*
X102264Y795235D02*
X492303D01*
X102264Y794703D02*
X492303D01*
X102264Y794172D02*
X492303D01*
X102264Y793640D02*
X492303D01*
X102264Y793109D02*
X492303D01*
X102264Y792577D02*
X492303D01*
X102264Y792046D02*
X492303D01*
X102264Y791514D02*
X492303D01*
X102264Y790983D02*
X492303D01*
X102264Y790451D02*
X492303D01*
X480516Y789920D02*
X492303D01*
X482455Y789388D02*
X492303D01*
X483615Y788857D02*
X492303D01*
X484494Y788325D02*
X492303D01*
X485211Y787794D02*
X492303D01*
X485815Y787262D02*
X492303D01*
X486333Y786731D02*
X492303D01*
X486782Y786199D02*
X492303D01*
X487173Y785668D02*
X492303D01*
X487515Y785136D02*
X492303D01*
X487812Y784605D02*
X492303D01*
X488069Y784073D02*
X492303D01*
X488290Y783542D02*
X492303D01*
X488476Y783010D02*
X492303D01*
X488630Y782479D02*
X492303D01*
X488753Y781948D02*
X492303D01*
X488846Y781416D02*
X492303D01*
X488911Y780885D02*
X492303D01*
X488948Y780353D02*
X492303D01*
X488956Y779822D02*
X492303D01*
X488937Y779290D02*
X492303D01*
X488889Y778759D02*
X492303D01*
X488813Y778227D02*
X492303D01*
X488708Y777696D02*
X492303D01*
X488573Y777164D02*
X492303D01*
X488407Y776633D02*
X492303D01*
X488208Y776101D02*
X492303D01*
X487973Y775570D02*
X492303D01*
X487701Y775038D02*
X492303D01*
X487387Y774507D02*
X492303D01*
X487027Y773975D02*
X492303D01*
X486614Y773444D02*
X492303D01*
X486140Y772912D02*
X492303D01*
X485590Y772381D02*
X492303D01*
X484947Y771849D02*
X492303D01*
X484175Y771318D02*
X492303D01*
X483207Y770786D02*
X492303D01*
X481861Y770255D02*
X492303D01*
X102264Y769723D02*
X492303D01*
X102264Y769192D02*
X492303D01*
X102264Y768660D02*
X492303D01*
X102264Y768129D02*
X492303D01*
X102264Y767597D02*
X492303D01*
X102264Y767066D02*
X492303D01*
X102264Y766534D02*
X492303D01*
X102264Y766003D02*
X492303D01*
X102264Y765471D02*
X492303D01*
X117445Y789920D02*
X477122D01*
X118182Y1260825D02*
X476385D01*
X118250Y1241160D02*
X476317D01*
X118790Y770255D02*
X475777D01*
X119384Y789388D02*
X475183D01*
X119761Y1260294D02*
X474806D01*
X119800Y1241692D02*
X474766D01*
X120136Y770786D02*
X474431D01*
X120544Y788857D02*
X474023D01*
X120819Y1259762D02*
X473748D01*
X120849Y1242223D02*
X473718D01*
X121104Y771318D02*
X473463D01*
X121423Y788325D02*
X473143D01*
X121644Y1259231D02*
X472923D01*
X121668Y1242755D02*
X472899D01*
X121876Y771849D02*
X472691D01*
X122140Y787794D02*
X472427D01*
X122325Y1258699D02*
X472242D01*
X122345Y1243286D02*
X472222D01*
X255335Y1110412D02*
X472114D01*
X122520Y772381D02*
X472047D01*
X122744Y787262D02*
X471823D01*
X122901Y1258168D02*
X471666D01*
X122918Y1243818D02*
X471649D01*
X373530Y1176849D02*
X471550D01*
X123069Y772912D02*
X471498D01*
X365364Y1169408D02*
X471406D01*
X123262Y786731D02*
X471305D01*
X123398Y1257636D02*
X471169D01*
X123413Y1244349D02*
X471154D01*
X251216Y1102971D02*
X471054D01*
X123543Y773444D02*
X471024D01*
X255335Y1186948D02*
X470907D01*
X255335Y1109881D02*
X470860D01*
X123711Y786199D02*
X470856D01*
X123830Y1257105D02*
X470737D01*
X123843Y1244881D02*
X470724D01*
X373448Y1178975D02*
X470711D01*
X123956Y773975D02*
X470611D01*
X373411Y1176318D02*
X470606D01*
X364798Y1169940D02*
X470528D01*
X124102Y785668D02*
X470465D01*
X124206Y1256573D02*
X470361D01*
X124217Y1245412D02*
X470350D01*
X252637Y1103503D02*
X470320D01*
X124316Y774507D02*
X470251D01*
X255335Y1112538D02*
X470240D01*
X255335Y1109349D02*
X470197D01*
X124444Y785136D02*
X470123D01*
X124534Y1256042D02*
X470033D01*
X373232Y1175786D02*
X470029D01*
X124544Y1245944D02*
X470023D01*
X267892Y1119979D02*
X470007D01*
X363673Y1170471D02*
X469976D01*
X124630Y775038D02*
X469937D01*
X253422Y1104034D02*
X469833D01*
X124741Y784605D02*
X469826D01*
X255335Y1186416D02*
X469777D01*
X124819Y1255510D02*
X469748D01*
X255335Y1108818D02*
X469747D01*
X124828Y1246475D02*
X469739D01*
X373286Y1179507D02*
X469731D01*
X124902Y775570D02*
X469664D01*
X372985Y1175255D02*
X469628D01*
X255335Y1171003D02*
X469591D01*
X124998Y784073D02*
X469569D01*
X255335Y1113070D02*
X469560D01*
X125066Y1254979D02*
X469501D01*
X125073Y1247007D02*
X469494D01*
X253981Y1104566D02*
X469489D01*
X267224Y1119448D02*
X469450D01*
X125137Y776101D02*
X469430D01*
X255335Y1108286D02*
X469429D01*
X125219Y783542D02*
X469348D01*
X372658Y1174723D02*
X469345D01*
X255335Y1185885D02*
X469331D01*
X255335Y1171534D02*
X469319D01*
X373057Y1180038D02*
X469307D01*
X125276Y1254448D02*
X469291D01*
X125282Y1247538D02*
X469285D01*
X254404Y1105097D02*
X469250D01*
X125336Y776633D02*
X469231D01*
X255335Y1113601D02*
X469215D01*
X255325Y1107755D02*
X469209D01*
X125405Y783010D02*
X469162D01*
X266207Y1118916D02*
X469157D01*
X372231Y1174192D02*
X469155D01*
X255335Y1172066D02*
X469138D01*
X125453Y1253916D02*
X469114D01*
X125458Y1248070D02*
X469109D01*
X255335Y1185353D02*
X469096D01*
X254728Y1105629D02*
X469096D01*
X372753Y1180570D02*
X469085D01*
X255265Y1107223D02*
X469072D01*
X125503Y777164D02*
X469064D01*
X255335Y1114133D02*
X469044D01*
X371666Y1173660D02*
X469043D01*
X369388Y1172597D02*
X469035D01*
X255335Y1118385D02*
X469022D01*
X254972Y1106160D02*
X469017D01*
X255149Y1106692D02*
X469009D01*
X125559Y782479D02*
X469008D01*
X255335Y1184822D02*
X469007D01*
X372355Y1181101D02*
X469005D01*
X370868Y1173129D02*
X469004D01*
X255335Y1184290D02*
X469004D01*
X255335Y1183759D02*
X469004D01*
X255335Y1183227D02*
X469004D01*
X369942Y1182696D02*
X469004D01*
X371112Y1182164D02*
X469004D01*
X371832Y1181633D02*
X469004D01*
X255335Y1117853D02*
X469004D01*
X255335Y1117322D02*
X469004D01*
X255335Y1116790D02*
X469004D01*
X255335Y1116259D02*
X469004D01*
X255335Y1115727D02*
X469004D01*
X255335Y1115196D02*
X469004D01*
X255335Y1114664D02*
X469004D01*
X125598Y1253385D02*
X468969D01*
X125602Y1248601D02*
X468965D01*
X125638Y777696D02*
X468929D01*
X125682Y781948D02*
X468885D01*
X125712Y1252853D02*
X468855D01*
X125715Y1249133D02*
X468852D01*
X125743Y778227D02*
X468824D01*
X125776Y781416D02*
X468791D01*
X125797Y1252322D02*
X468770D01*
X125800Y1249664D02*
X468767D01*
X125818Y778759D02*
X468748D01*
X125840Y780885D02*
X468727D01*
X125854Y1251790D02*
X468713D01*
X125855Y1250196D02*
X468712D01*
X125866Y779290D02*
X468701D01*
X125877Y780353D02*
X468690D01*
X125882Y1251259D02*
X468685D01*
X125883Y1250727D02*
X468684D01*
X125885Y779822D02*
X468682D01*
X446240Y911101D02*
X453125D01*
X447419Y910570D02*
X451946D01*
X448144Y910038D02*
X451220D01*
X445678Y890904D02*
X451033D01*
X448672Y909507D02*
X450692D01*
X449074Y908975D02*
X450291D01*
X447173Y891436D02*
X450119D01*
X449382Y908444D02*
X449982D01*
X447976Y891967D02*
X449707D01*
X448546Y892499D02*
X449492D01*
X449035Y893030D02*
X449251D01*
X321960Y890904D02*
X443686D01*
X321962Y911101D02*
X443125D01*
X432688Y901003D02*
X442539D01*
X321960Y891436D02*
X442191D01*
X432481Y901534D02*
X442016D01*
X321962Y910570D02*
X441946D01*
X432831Y900471D02*
X441790D01*
X321960Y891967D02*
X441388D01*
X432202Y902066D02*
X441269D01*
X321962Y910038D02*
X441220D01*
X432916Y899940D02*
X441111D01*
X321960Y892499D02*
X440818D01*
X431836Y902597D02*
X440729D01*
X321962Y909507D02*
X440692D01*
X432946Y899408D02*
X440610D01*
X321960Y893030D02*
X440387D01*
X431358Y903129D02*
X440319D01*
X321962Y908975D02*
X440291D01*
X432922Y898877D02*
X440227D01*
X321960Y893562D02*
X440056D01*
X430712Y903660D02*
X440004D01*
X321962Y908444D02*
X439982D01*
X432843Y898345D02*
X439934D01*
X321960Y894093D02*
X439805D01*
X429745Y904192D02*
X439766D01*
X321962Y907912D02*
X439750D01*
X432706Y897814D02*
X439715D01*
X429875Y894625D02*
X439622D01*
X321961Y904723D02*
X439594D01*
X321962Y907381D02*
X439583D01*
X432506Y897282D02*
X439559D01*
X430791Y895156D02*
X439499D01*
X321961Y905255D02*
X439482D01*
X321962Y906849D02*
X439476D01*
X432235Y896751D02*
X439462D01*
X431415Y895688D02*
X439432D01*
X321961Y905786D02*
X439426D01*
X321962Y906318D02*
X439424D01*
X431880Y896219D02*
X439420D01*
X321966Y956278D02*
X427081D01*
X321967Y966377D02*
X426727D01*
X321961Y904192D02*
X425715D01*
X321966Y956810D02*
X425674D01*
X321960Y894625D02*
X425585D01*
X321967Y965845D02*
X425517D01*
X321966Y957341D02*
X424892D01*
X321967Y965314D02*
X424784D01*
X321961Y903660D02*
X424748D01*
X321960Y895156D02*
X424669D01*
X321966Y957873D02*
X424334D01*
X321967Y964782D02*
X424254D01*
X321961Y903129D02*
X424102D01*
X321961Y895688D02*
X424045D01*
X321966Y958404D02*
X423913D01*
X321967Y964251D02*
X423851D01*
X321961Y902597D02*
X423624D01*
X321967Y958936D02*
X423590D01*
X321961Y896219D02*
X423580D01*
X321967Y963719D02*
X423543D01*
X321967Y959467D02*
X423346D01*
X321967Y963188D02*
X423311D01*
X321961Y902066D02*
X423258D01*
X321961Y896751D02*
X423225D01*
X321967Y959999D02*
X423170D01*
X321967Y962656D02*
X423146D01*
X321967Y960530D02*
X423054D01*
X321967Y962125D02*
X423040D01*
X321967Y961062D02*
X422995D01*
X321967Y961593D02*
X422990D01*
X321961Y901534D02*
X422979D01*
X321961Y897282D02*
X422954D01*
X321961Y901003D02*
X422772D01*
X321961Y897814D02*
X422754D01*
X321961Y900471D02*
X422629D01*
X321961Y898345D02*
X422617D01*
X321961Y899940D02*
X422544D01*
X321961Y898877D02*
X422538D01*
X321961Y899408D02*
X422514D01*
X340809Y1024310D02*
X421009D01*
X341341Y1024841D02*
X419957D01*
X341872Y1025373D02*
X419277D01*
X342404Y1025904D02*
X418740D01*
X342935Y1026436D02*
X418209D01*
X343467Y1026967D02*
X417677D01*
X343998Y1027499D02*
X417146D01*
X409507Y812243D02*
X416674D01*
X344530Y1028030D02*
X416614D01*
X409925Y819684D02*
X416256D01*
X345061Y1028562D02*
X416083D01*
X410526Y812774D02*
X415655D01*
X345593Y1029093D02*
X415551D01*
X410750Y819152D02*
X415431D01*
X411128Y813306D02*
X415053D01*
X346124Y1029625D02*
X415020D01*
X411280Y818621D02*
X414901D01*
X411544Y813837D02*
X414637D01*
X411651Y818089D02*
X414529D01*
X346656Y1030156D02*
X414488D01*
X411838Y814369D02*
X414343D01*
X411912Y817558D02*
X414268D01*
X412037Y814900D02*
X414143D01*
X412085Y817026D02*
X414096D01*
X412157Y815432D02*
X414024D01*
X412180Y816495D02*
X414001D01*
X412204Y815963D02*
X413977D01*
X347187Y1030688D02*
X413957D01*
X347719Y1031219D02*
X413425D01*
X348250Y1031751D02*
X412894D01*
X401088Y812243D02*
X406832D01*
X401386Y819684D02*
X406413D01*
X401790Y812774D02*
X405813D01*
X401930Y819152D02*
X405588D01*
X402142Y813306D02*
X405211D01*
X402216Y818621D02*
X405058D01*
X402319Y813837D02*
X404794D01*
X402346Y818089D02*
X404687D01*
X402362Y814369D02*
X404501D01*
X402362Y817558D02*
X404426D01*
X402362Y814900D02*
X404301D01*
X402362Y817026D02*
X404253D01*
X402362Y815432D02*
X404181D01*
X402362Y816495D02*
X404158D01*
X402362Y815963D02*
X404135D01*
X293037Y812243D02*
X395565D01*
X292347Y819684D02*
X395267D01*
X293428Y812774D02*
X394863D01*
X292903Y819152D02*
X394723D01*
X293727Y813306D02*
X394511D01*
X293325Y818621D02*
X394437D01*
X293952Y813837D02*
X394335D01*
X293649Y818089D02*
X394307D01*
X293894Y817558D02*
X394291D01*
X294073Y817026D02*
X394291D01*
X294191Y816495D02*
X394291D01*
X294253Y815963D02*
X394291D01*
X294260Y815432D02*
X394291D01*
X294214Y814900D02*
X394291D01*
X294113Y814369D02*
X394291D01*
X245335Y1070018D02*
X391843D01*
X245335Y1080117D02*
X391757D01*
X245335Y1070550D02*
X390521D01*
X245335Y1079585D02*
X390483D01*
X245335Y1071081D02*
X389759D01*
X245335Y1079054D02*
X389732D01*
X245335Y1071613D02*
X389212D01*
X245335Y1078522D02*
X389192D01*
X245335Y1072144D02*
X388797D01*
X245335Y1077991D02*
X388782D01*
X245335Y1072676D02*
X388480D01*
X245335Y1077459D02*
X388469D01*
X245335Y1073207D02*
X388241D01*
X245335Y1076928D02*
X388232D01*
X245335Y1073739D02*
X388069D01*
X245335Y1076396D02*
X388063D01*
X245335Y1074270D02*
X387957D01*
X245335Y1075865D02*
X387953D01*
X245335Y1074802D02*
X387901D01*
X245335Y1075333D02*
X387900D01*
X321965Y941928D02*
X381305D01*
X321964Y931829D02*
X381289D01*
X321965Y941396D02*
X380087D01*
X321964Y932361D02*
X380080D01*
X321965Y940865D02*
X379350D01*
X321964Y932892D02*
X379345D01*
X321965Y940333D02*
X378815D01*
X321964Y933424D02*
X378811D01*
X321965Y939802D02*
X378409D01*
X321964Y933955D02*
X378406D01*
X321965Y939270D02*
X378097D01*
X321964Y934487D02*
X378095D01*
X321965Y938739D02*
X377862D01*
X321964Y935018D02*
X377860D01*
X321965Y938207D02*
X377692D01*
X321964Y935550D02*
X377691D01*
X321965Y937676D02*
X377582D01*
X321964Y936081D02*
X377581D01*
X321964Y937144D02*
X377528D01*
X321964Y936613D02*
X377528D01*
X255335Y1172597D02*
X367384D01*
X255335Y1182696D02*
X366830D01*
X255335Y1173129D02*
X365903D01*
X255335Y1182164D02*
X365660D01*
X255335Y1173660D02*
X365106D01*
X255335Y1181633D02*
X364939D01*
X255335Y1174192D02*
X364540D01*
X255335Y1181101D02*
X364416D01*
X255335Y1174723D02*
X364114D01*
X255335Y1180570D02*
X364019D01*
X255335Y1175255D02*
X363787D01*
X255335Y1180038D02*
X363714D01*
X255335Y1175786D02*
X363540D01*
X255335Y1179507D02*
X363486D01*
X255335Y1176318D02*
X363360D01*
X255335Y1178975D02*
X363323D01*
X255335Y1176849D02*
X363242D01*
X255335Y1178444D02*
X363220D01*
X255335Y1177381D02*
X363180D01*
X255335Y1177912D02*
X363173D01*
X340768Y1164093D02*
X362529D01*
X255335Y1170471D02*
X362075D01*
X255335Y1151337D02*
X352692D01*
X321964Y928109D02*
X352397D01*
X321958Y873896D02*
X352082D01*
X245335Y863798D02*
X351996D01*
X321963Y918010D02*
X351762D01*
X255335Y1150806D02*
X351619D01*
X255335Y1150274D02*
X351032D01*
X321964Y927577D02*
X350884D01*
X321958Y873365D02*
X350760D01*
X317649Y864329D02*
X350722D01*
X321963Y918542D02*
X350607D01*
X255335Y1149743D02*
X350501D01*
X321963Y927046D02*
X350081D01*
X321958Y872833D02*
X349997D01*
X319202Y864861D02*
X349971D01*
X255335Y1149211D02*
X349969D01*
X321963Y919073D02*
X349892D01*
X321963Y926514D02*
X349512D01*
X321958Y872302D02*
X349450D01*
X255335Y1148680D02*
X349438D01*
X320015Y865392D02*
X349431D01*
X321963Y919605D02*
X349371D01*
X321963Y925983D02*
X349084D01*
X321958Y871770D02*
X349036D01*
X320591Y865924D02*
X349021D01*
X321963Y920136D02*
X348976D01*
X255335Y1148148D02*
X348906D01*
X321963Y925451D02*
X348755D01*
X321958Y871239D02*
X348719D01*
X321025Y866455D02*
X348707D01*
X321963Y920668D02*
X348673D01*
X321963Y924920D02*
X348507D01*
X321958Y870707D02*
X348480D01*
X321359Y866987D02*
X348471D01*
X321963Y921199D02*
X348446D01*
X255335Y1147617D02*
X348375D01*
X321963Y924388D02*
X348326D01*
X321964Y870176D02*
X348307D01*
X321612Y867518D02*
X348302D01*
X321963Y921731D02*
X348284D01*
X321963Y923857D02*
X348207D01*
X322004Y869644D02*
X348195D01*
X321797Y868050D02*
X348192D01*
X321963Y922262D02*
X348182D01*
X321963Y923325D02*
X348144D01*
X321990Y869113D02*
X348140D01*
X321922Y868581D02*
X348139D01*
X321963Y922794D02*
X348136D01*
X255335Y1147085D02*
X347843D01*
X255335Y1146554D02*
X347312D01*
X255335Y1146022D02*
X346780D01*
X255335Y1145491D02*
X346249D01*
X255335Y1144959D02*
X345717D01*
X245335Y1042381D02*
X345228D01*
X255335Y1144428D02*
X345186D01*
X255335Y1143896D02*
X344654D01*
X255335Y1143365D02*
X344123D01*
X245335Y1041849D02*
X343866D01*
X255335Y1142833D02*
X343591D01*
X245335Y1041318D02*
X343094D01*
X255335Y1142302D02*
X343060D01*
X245335Y1040786D02*
X342531D01*
X255335Y1141770D02*
X342528D01*
X245335Y1040255D02*
X341999D01*
X255335Y1141239D02*
X341997D01*
X245335Y1039723D02*
X341468D01*
X255335Y1140707D02*
X341465D01*
X245335Y1039192D02*
X340936D01*
X255335Y1140176D02*
X340934D01*
X245335Y1038660D02*
X340405D01*
X255335Y1139644D02*
X340402D01*
X245335Y1038129D02*
X339873D01*
X255335Y1139113D02*
X339871D01*
X245335Y1037597D02*
X339342D01*
X255335Y1138581D02*
X339339D01*
X255335Y1169940D02*
X338821D01*
X245335Y1037066D02*
X338810D01*
X255335Y1138050D02*
X338808D01*
X245335Y1036534D02*
X338279D01*
X255335Y1137518D02*
X338276D01*
X255335Y1169408D02*
X338012D01*
X245335Y1036003D02*
X337747D01*
X255335Y1136987D02*
X337745D01*
X255335Y1168877D02*
X337478D01*
X245335Y1035471D02*
X337216D01*
X255335Y1136455D02*
X337213D01*
X255335Y1168345D02*
X336946D01*
X245335Y1034940D02*
X336684D01*
X255335Y1135924D02*
X336682D01*
X255335Y1167814D02*
X336415D01*
X245335Y1034408D02*
X336153D01*
X255335Y1135392D02*
X336150D01*
X255335Y1167282D02*
X335883D01*
X245335Y1033877D02*
X335621D01*
X255335Y1134861D02*
X335619D01*
X255335Y1166751D02*
X335352D01*
X245335Y1033345D02*
X335090D01*
X255335Y1134329D02*
X335087D01*
X255335Y1166219D02*
X334820D01*
X245335Y1032814D02*
X334558D01*
X255335Y1133798D02*
X334556D01*
X255335Y1165688D02*
X334289D01*
X245335Y1032282D02*
X334027D01*
X255335Y1133266D02*
X334024D01*
X255335Y1165156D02*
X333757D01*
X245335Y1031751D02*
X333495D01*
X255335Y1132735D02*
X333493D01*
X255335Y1164625D02*
X333226D01*
X245335Y1031219D02*
X332964D01*
X255335Y1132203D02*
X332962D01*
X255335Y1164093D02*
X332694D01*
X245335Y1030688D02*
X332432D01*
X255335Y1131672D02*
X332430D01*
X255335Y1163562D02*
X332163D01*
X245335Y1030156D02*
X331901D01*
X255335Y1131140D02*
X331899D01*
X255335Y1163030D02*
X331631D01*
X245335Y1029625D02*
X331369D01*
X255335Y1130609D02*
X331367D01*
X255335Y1162499D02*
X331100D01*
X245335Y1029093D02*
X330838D01*
X255335Y1130077D02*
X330836D01*
X255335Y1161967D02*
X330545D01*
X245335Y1028562D02*
X330306D01*
X255335Y1129546D02*
X330304D01*
X245335Y1028030D02*
X329775D01*
X265136Y1129014D02*
X329773D01*
X255335Y1156121D02*
X329748D01*
X255335Y1161436D02*
X329520D01*
X245335Y1027499D02*
X329243D01*
X266731Y1128483D02*
X329241D01*
X255335Y1156652D02*
X329112D01*
X255335Y1160904D02*
X328973D01*
X255335Y1157184D02*
X328713D01*
X245335Y1026967D02*
X328712D01*
X267552Y1127951D02*
X328710D01*
X255335Y1160373D02*
X328623D01*
X255335Y1157715D02*
X328456D01*
X255335Y1159841D02*
X328400D01*
X255335Y1158247D02*
X328306D01*
X255335Y1159310D02*
X328280D01*
X255335Y1158778D02*
X328249D01*
X245335Y1026436D02*
X328180D01*
X268131Y1127420D02*
X328178D01*
X245335Y1025904D02*
X327649D01*
X245335Y1025373D02*
X327117D01*
X245335Y1024841D02*
X326586D01*
X245335Y1024310D02*
X326054D01*
X245335Y1023778D02*
X325523D01*
X245335Y1023247D02*
X324991D01*
X245335Y1022715D02*
X324460D01*
X245335Y1022184D02*
X323928D01*
X245335Y1021652D02*
X323397D01*
X245335Y1021121D02*
X322865D01*
X245335Y1020589D02*
X322334D01*
X245335Y1020058D02*
X321802D01*
X245335Y1019526D02*
X321271D01*
X245335Y1018995D02*
X320739D01*
X245335Y1018463D02*
X320208D01*
X245335Y1017932D02*
X319676D01*
X245335Y1017400D02*
X319145D01*
X245335Y1016869D02*
X318613D01*
X245335Y1016337D02*
X318082D01*
X245335Y1015806D02*
X317550D01*
X245335Y1015274D02*
X317019D01*
X245335Y1014743D02*
X316488D01*
X245335Y1014211D02*
X315956D01*
X245335Y864329D02*
X315834D01*
X245335Y1013680D02*
X315425D01*
X245335Y1013148D02*
X314893D01*
X245335Y1012617D02*
X314362D01*
X245335Y864861D02*
X314281D01*
X245335Y1012085D02*
X313830D01*
X245335Y865392D02*
X313468D01*
X245335Y1011554D02*
X313299D01*
X245335Y865924D02*
X312892D01*
X245335Y1011022D02*
X312780D01*
X245335Y866455D02*
X312458D01*
X245335Y1010491D02*
X312367D01*
X245335Y866987D02*
X312124D01*
X245335Y1009959D02*
X312051D01*
X245335Y867518D02*
X311871D01*
X245335Y1009428D02*
X311812D01*
X246752Y868050D02*
X311686D01*
X245335Y1008896D02*
X311641D01*
X247765Y868581D02*
X311561D01*
X246132Y1006239D02*
X311538D01*
X247501Y1005707D02*
X311538D01*
X248205Y1005176D02*
X311538D01*
X248686Y1004644D02*
X311538D01*
X249032Y1004113D02*
X311538D01*
X249279Y1003581D02*
X311538D01*
X249443Y1003050D02*
X311538D01*
X249535Y1002518D02*
X311538D01*
X249560Y1001987D02*
X311538D01*
X249518Y1001455D02*
X311537D01*
X249407Y1000924D02*
X311537D01*
X249222Y1000392D02*
X311537D01*
X248951Y999861D02*
X311537D01*
X248573Y999329D02*
X311537D01*
X248045Y998798D02*
X311537D01*
X247247Y998266D02*
X311537D01*
X245438Y997735D02*
X311537D01*
X245335Y997203D02*
X311537D01*
X245335Y996672D02*
X311537D01*
X245335Y996140D02*
X311537D01*
X245335Y995609D02*
X311537D01*
X245335Y995077D02*
X311537D01*
X245335Y994546D02*
X311537D01*
X245335Y994014D02*
X311537D01*
X245335Y993483D02*
X311537D01*
X245335Y992951D02*
X311537D01*
X245335Y992420D02*
X311537D01*
X245335Y991888D02*
X311537D01*
X245335Y991357D02*
X311537D01*
X245335Y990825D02*
X311536D01*
X245335Y990294D02*
X311536D01*
X245335Y989762D02*
X311536D01*
X245335Y989231D02*
X311536D01*
X245335Y988699D02*
X311536D01*
X245335Y988168D02*
X311536D01*
X245335Y987636D02*
X311536D01*
X245335Y987105D02*
X311536D01*
X245335Y986573D02*
X311536D01*
X245335Y986042D02*
X311536D01*
X245335Y985510D02*
X311536D01*
X245335Y984979D02*
X311536D01*
X245335Y984448D02*
X311536D01*
X245335Y983916D02*
X311536D01*
X245335Y983385D02*
X311536D01*
X245335Y982853D02*
X311536D01*
X245335Y982322D02*
X311536D01*
X245335Y981790D02*
X311536D01*
X245335Y981259D02*
X311536D01*
X245335Y980727D02*
X311535D01*
X245335Y980196D02*
X311535D01*
X245335Y979664D02*
X311535D01*
X245335Y979133D02*
X311535D01*
X245335Y978601D02*
X311535D01*
X245335Y978070D02*
X311535D01*
X245335Y977538D02*
X311535D01*
X245335Y977007D02*
X311535D01*
X245335Y976475D02*
X311535D01*
X245335Y975944D02*
X311535D01*
X245335Y975412D02*
X311535D01*
X245335Y974881D02*
X311535D01*
X245335Y974349D02*
X311535D01*
X245335Y973818D02*
X311535D01*
X245335Y973286D02*
X311535D01*
X245335Y972755D02*
X311535D01*
X245335Y972223D02*
X311535D01*
X245335Y971692D02*
X311535D01*
X245335Y971160D02*
X311535D01*
X245335Y970629D02*
X311535D01*
X245335Y970097D02*
X311534D01*
X245335Y969566D02*
X311534D01*
X245335Y969034D02*
X311534D01*
X245335Y968503D02*
X311534D01*
X245335Y967971D02*
X311534D01*
X245335Y967440D02*
X311534D01*
X245335Y966908D02*
X311534D01*
X245335Y966377D02*
X311534D01*
X245335Y965845D02*
X311534D01*
X245335Y965314D02*
X311534D01*
X245335Y964782D02*
X311534D01*
X245335Y964251D02*
X311534D01*
X245335Y963719D02*
X311534D01*
X245335Y963188D02*
X311534D01*
X245335Y962656D02*
X311534D01*
X245335Y962125D02*
X311534D01*
X245335Y961593D02*
X311534D01*
X245335Y961062D02*
X311534D01*
X245335Y960530D02*
X311534D01*
X245335Y959999D02*
X311534D01*
X245335Y959467D02*
X311533D01*
X245335Y958936D02*
X311533D01*
X245335Y958404D02*
X311533D01*
X245335Y957873D02*
X311533D01*
X245335Y957341D02*
X311533D01*
X245335Y956810D02*
X311533D01*
X245335Y956278D02*
X311533D01*
X245335Y955747D02*
X311533D01*
X245335Y955215D02*
X311533D01*
X245335Y954684D02*
X311533D01*
X245335Y954152D02*
X311533D01*
X245335Y953621D02*
X311533D01*
X245335Y953089D02*
X311533D01*
X245335Y952558D02*
X311533D01*
X245335Y952026D02*
X311533D01*
X245335Y951495D02*
X311533D01*
X245335Y950963D02*
X311533D01*
X245335Y950432D02*
X311533D01*
X245335Y949900D02*
X311533D01*
X245335Y949369D02*
X311533D01*
X245335Y948837D02*
X311532D01*
X245335Y948306D02*
X311532D01*
X245335Y947774D02*
X311532D01*
X245335Y947243D02*
X311532D01*
X245335Y946711D02*
X311532D01*
X245335Y946180D02*
X311532D01*
X245335Y945648D02*
X311532D01*
X245335Y945117D02*
X311532D01*
X245335Y944585D02*
X311532D01*
X245335Y944054D02*
X311532D01*
X245335Y943522D02*
X311532D01*
X245335Y942991D02*
X311532D01*
X245335Y942459D02*
X311532D01*
X245335Y941928D02*
X311532D01*
X245335Y941396D02*
X311532D01*
X245335Y940865D02*
X311532D01*
X245335Y940333D02*
X311532D01*
X245335Y939802D02*
X311532D01*
X245335Y939270D02*
X311532D01*
X245335Y938739D02*
X311531D01*
X245335Y938207D02*
X311531D01*
X245335Y937676D02*
X311531D01*
X245335Y937144D02*
X311531D01*
X245335Y936613D02*
X311531D01*
X245335Y936081D02*
X311531D01*
X245335Y935550D02*
X311531D01*
X245335Y935018D02*
X311531D01*
X245335Y934487D02*
X311531D01*
X245335Y933955D02*
X311531D01*
X245335Y933424D02*
X311531D01*
X245335Y932892D02*
X311531D01*
X245335Y932361D02*
X311531D01*
X245335Y931829D02*
X311531D01*
X245335Y931298D02*
X311531D01*
X245335Y930766D02*
X311531D01*
X245335Y930235D02*
X311531D01*
X245335Y929703D02*
X311531D01*
X245335Y929172D02*
X311531D01*
X245335Y928640D02*
X311531D01*
X284056Y928109D02*
X311530D01*
X285441Y927577D02*
X311530D01*
X286222Y927046D02*
X311530D01*
X286780Y926514D02*
X311530D01*
X287203Y925983D02*
X311530D01*
X287528Y925451D02*
X311530D01*
X287774Y924920D02*
X311530D01*
X287953Y924388D02*
X311530D01*
X288072Y923857D02*
X311530D01*
X288134Y923325D02*
X311530D01*
X288142Y922794D02*
X311530D01*
X288097Y922262D02*
X311530D01*
X287996Y921731D02*
X311530D01*
X287836Y921199D02*
X311530D01*
X287612Y920668D02*
X311530D01*
X287313Y920136D02*
X311530D01*
X286923Y919605D02*
X311530D01*
X286412Y919073D02*
X311530D01*
X285716Y918542D02*
X311530D01*
X284624Y918010D02*
X311530D01*
X245335Y917479D02*
X311529D01*
X245335Y916948D02*
X311529D01*
X245335Y916416D02*
X311529D01*
X245335Y1008365D02*
X311529D01*
X245335Y915885D02*
X311529D01*
X245335Y915353D02*
X311529D01*
X245335Y914822D02*
X311529D01*
X245335Y914290D02*
X311529D01*
X245335Y913759D02*
X311529D01*
X245335Y913227D02*
X311529D01*
X245335Y912696D02*
X311529D01*
X245335Y912164D02*
X311529D01*
X245335Y911633D02*
X311529D01*
X245335Y911101D02*
X311529D01*
X245335Y910570D02*
X311529D01*
X245335Y910038D02*
X311529D01*
X245335Y909507D02*
X311529D01*
X245335Y908975D02*
X311529D01*
X245335Y908444D02*
X311529D01*
X245335Y907912D02*
X311529D01*
X245335Y907381D02*
X311529D01*
X245335Y906849D02*
X311528D01*
X245335Y906318D02*
X311528D01*
X245335Y905786D02*
X311528D01*
X245335Y905255D02*
X311528D01*
X245335Y904723D02*
X311528D01*
X245335Y904192D02*
X311528D01*
X245335Y903660D02*
X311528D01*
X245335Y903129D02*
X311528D01*
X245335Y902597D02*
X311528D01*
X245335Y902066D02*
X311528D01*
X245335Y901534D02*
X311528D01*
X245335Y901003D02*
X311528D01*
X245335Y900471D02*
X311528D01*
X245335Y899940D02*
X311528D01*
X245335Y899408D02*
X311528D01*
X245335Y898877D02*
X311528D01*
X245335Y898345D02*
X311528D01*
X245335Y897814D02*
X311528D01*
X245335Y897282D02*
X311528D01*
X245335Y1006770D02*
X311528D01*
X245335Y896751D02*
X311528D01*
X245335Y896219D02*
X311527D01*
X245335Y895688D02*
X311527D01*
X245335Y895156D02*
X311527D01*
X245335Y894625D02*
X311527D01*
X245335Y894093D02*
X311527D01*
X245335Y893562D02*
X311527D01*
X245335Y893030D02*
X311527D01*
X245335Y892499D02*
X311527D01*
X245335Y891967D02*
X311527D01*
X245335Y891436D02*
X311527D01*
X245335Y890904D02*
X311527D01*
X245335Y890373D02*
X311527D01*
X245335Y889841D02*
X311527D01*
X245335Y889310D02*
X311527D01*
X245335Y888778D02*
X311527D01*
X245335Y888247D02*
X311527D01*
X245335Y887715D02*
X311527D01*
X245335Y887184D02*
X311527D01*
X245335Y886652D02*
X311527D01*
X245335Y886121D02*
X311526D01*
X245335Y885589D02*
X311526D01*
X245335Y885058D02*
X311526D01*
X245335Y884526D02*
X311526D01*
X245335Y883995D02*
X311526D01*
X245335Y883463D02*
X311526D01*
X245335Y882932D02*
X311526D01*
X245335Y882400D02*
X311526D01*
X245335Y881869D02*
X311526D01*
X245335Y881337D02*
X311526D01*
X245335Y880806D02*
X311526D01*
X245335Y880274D02*
X311526D01*
X245335Y879743D02*
X311526D01*
X245335Y879211D02*
X311526D01*
X245335Y878680D02*
X311526D01*
X245335Y878148D02*
X311526D01*
X245335Y877617D02*
X311526D01*
X245335Y877085D02*
X311526D01*
X245339Y876554D02*
X311526D01*
X246866Y876022D02*
X311526D01*
X247825Y875491D02*
X311525D01*
X248421Y874959D02*
X311525D01*
X248841Y874428D02*
X311525D01*
X249144Y873896D02*
X311525D01*
X249355Y873365D02*
X311525D01*
X249489Y872833D02*
X311525D01*
X249553Y872302D02*
X311525D01*
X249551Y871770D02*
X311525D01*
X249481Y871239D02*
X311525D01*
X249341Y870707D02*
X311525D01*
X249123Y870176D02*
X311519D01*
X248380Y869113D02*
X311493D01*
X248812Y869644D02*
X311479D01*
X245335Y1007833D02*
X311474D01*
X245335Y1007302D02*
X311474D01*
X102264Y820747D02*
X287803D01*
X102264Y810648D02*
X287273D01*
X187726Y820215D02*
X286431D01*
X187186Y811180D02*
X286174D01*
X188942Y819684D02*
X285653D01*
X188748Y811711D02*
X285475D01*
X189639Y819152D02*
X285097D01*
X189511Y812243D02*
X284963D01*
X190131Y818621D02*
X284675D01*
X190038Y812774D02*
X284572D01*
X190494Y818089D02*
X284351D01*
X190425Y813306D02*
X284273D01*
X190760Y817558D02*
X284106D01*
X190710Y813837D02*
X284048D01*
X190948Y817026D02*
X283927D01*
X190914Y814369D02*
X283887D01*
X191066Y816495D02*
X283809D01*
X191046Y814900D02*
X283786D01*
X191121Y815963D02*
X283747D01*
X191115Y815432D02*
X283740D01*
X274056Y928109D02*
X281708D01*
X274624Y918010D02*
X281140D01*
X275441Y927577D02*
X280323D01*
X275716Y918542D02*
X280048D01*
X276222Y927046D02*
X279542D01*
X276412Y919073D02*
X279351D01*
X241424Y1212459D02*
X279081D01*
X276780Y926514D02*
X278983D01*
X276923Y919605D02*
X278841D01*
X277203Y925983D02*
X278560D01*
X277313Y920136D02*
X278451D01*
X277528Y925451D02*
X278236D01*
X252457Y1202361D02*
X278175D01*
X277612Y920668D02*
X278152D01*
X242661Y1211928D02*
X277562D01*
X251926Y1202892D02*
X277137D01*
X243401Y1211396D02*
X276754D01*
X251394Y1203424D02*
X276460D01*
X243953Y1210865D02*
X276182D01*
X250863Y1203955D02*
X275961D01*
X244485Y1210333D02*
X275749D01*
X250331Y1204487D02*
X275580D01*
X245016Y1209802D02*
X275417D01*
X249800Y1205018D02*
X275288D01*
X245548Y1209270D02*
X275165D01*
X249268Y1205550D02*
X275069D01*
X246079Y1208739D02*
X274981D01*
X248737Y1206081D02*
X274915D01*
X246611Y1208207D02*
X274857D01*
X248205Y1206613D02*
X274818D01*
X247142Y1207676D02*
X274790D01*
X247674Y1207144D02*
X274777D01*
X245335Y928109D02*
X271708D01*
X245335Y918010D02*
X271140D01*
X245335Y927577D02*
X270323D01*
X245335Y918542D02*
X270048D01*
X245335Y927046D02*
X269542D01*
X245335Y919073D02*
X269351D01*
X245335Y926514D02*
X268983D01*
X245335Y919605D02*
X268841D01*
X245335Y925983D02*
X268560D01*
X245335Y920136D02*
X268451D01*
X245335Y925451D02*
X268236D01*
X245335Y920668D02*
X268152D01*
X245335Y924920D02*
X267990D01*
X245335Y921199D02*
X267928D01*
X245335Y924388D02*
X267811D01*
X245335Y921731D02*
X267768D01*
X245335Y923857D02*
X267692D01*
X245335Y922262D02*
X267667D01*
X245335Y923325D02*
X267630D01*
X245335Y922794D02*
X267621D01*
X255335Y1129014D02*
X263446D01*
X255335Y1118916D02*
X262376D01*
X255335Y1128483D02*
X261851D01*
X255335Y1119448D02*
X261359D01*
X255335Y1127951D02*
X261031D01*
X255335Y1119979D02*
X260691D01*
X255335Y1127420D02*
X260452D01*
X255335Y1120510D02*
X260197D01*
X255335Y1126888D02*
X260015D01*
X255335Y1121042D02*
X259820D01*
X255335Y1126357D02*
X259680D01*
X255335Y1121573D02*
X259530D01*
X255335Y1125825D02*
X259425D01*
X255335Y1122105D02*
X259314D01*
X255335Y1125294D02*
X259238D01*
X255335Y1122636D02*
X259162D01*
X255335Y1124762D02*
X259113D01*
X255335Y1123168D02*
X259068D01*
X255335Y1124231D02*
X259044D01*
X255335Y1123699D02*
X259029D01*
X102264Y1102971D02*
X249020D01*
X102264Y1103503D02*
X247599D01*
X102264Y1104034D02*
X246814D01*
X102264Y1104566D02*
X246255D01*
X102264Y1105097D02*
X245832D01*
X102264Y1105629D02*
X245509D01*
X102264Y1106160D02*
X245264D01*
X102264Y1106692D02*
X245087D01*
X102264Y1107223D02*
X244971D01*
X102264Y1107755D02*
X244911D01*
X102264Y1194920D02*
X244902D01*
X102264Y1194388D02*
X244902D01*
X102264Y1193857D02*
X244902D01*
X102264Y1193325D02*
X244902D01*
X102264Y1192794D02*
X244902D01*
X102264Y1192262D02*
X244902D01*
X102264Y1191731D02*
X244902D01*
X102264Y1191199D02*
X244902D01*
X102264Y1190668D02*
X244902D01*
X102264Y1190136D02*
X244902D01*
X102264Y1189605D02*
X244902D01*
X102264Y1189073D02*
X244902D01*
X102264Y1188542D02*
X244902D01*
X102264Y1188010D02*
X244902D01*
X102264Y1187479D02*
X244902D01*
X102264Y1186948D02*
X244902D01*
X102264Y1186416D02*
X244902D01*
X102264Y1185885D02*
X244902D01*
X102264Y1185353D02*
X244902D01*
X102264Y1184822D02*
X244902D01*
X102264Y1184290D02*
X244902D01*
X102264Y1183759D02*
X244902D01*
X102264Y1183227D02*
X244902D01*
X102264Y1182696D02*
X244902D01*
X102264Y1182164D02*
X244902D01*
X102264Y1181633D02*
X244902D01*
X102264Y1181101D02*
X244902D01*
X139142Y1180570D02*
X244902D01*
X139700Y1180038D02*
X244902D01*
X139993Y1179507D02*
X244902D01*
X140128Y1178975D02*
X244902D01*
X140146Y1178444D02*
X244902D01*
X140146Y1177912D02*
X244902D01*
X140146Y1177381D02*
X244902D01*
X140146Y1176849D02*
X244902D01*
X140146Y1176318D02*
X244902D01*
X140146Y1175786D02*
X244902D01*
X140146Y1175255D02*
X244902D01*
X140106Y1174723D02*
X244902D01*
X139935Y1174192D02*
X244902D01*
X139590Y1173660D02*
X244902D01*
X138910Y1173129D02*
X244902D01*
X102264Y1172597D02*
X244902D01*
X102264Y1172066D02*
X244902D01*
X102264Y1171534D02*
X244902D01*
X137036Y1171003D02*
X244902D01*
X138290Y1170471D02*
X244902D01*
X138952Y1169940D02*
X244902D01*
X139403Y1169408D02*
X244902D01*
X139721Y1168877D02*
X244902D01*
X139941Y1168345D02*
X244902D01*
X140077Y1167814D02*
X244902D01*
X140140Y1167282D02*
X244902D01*
X140133Y1166751D02*
X244902D01*
X140054Y1166219D02*
X244902D01*
X139900Y1165688D02*
X244902D01*
X139660Y1165156D02*
X244902D01*
X139317Y1164625D02*
X244902D01*
X138830Y1164093D02*
X244902D01*
X138096Y1163562D02*
X244902D01*
X102264Y1163030D02*
X244902D01*
X102264Y1162499D02*
X244902D01*
X102264Y1161967D02*
X244902D01*
X102264Y1161436D02*
X244902D01*
X137784Y1160904D02*
X244902D01*
X138645Y1160373D02*
X244902D01*
X139189Y1159841D02*
X244902D01*
X139570Y1159310D02*
X244902D01*
X139838Y1158778D02*
X244902D01*
X140016Y1158247D02*
X244902D01*
X140117Y1157715D02*
X244902D01*
X237298Y1157184D02*
X244902D01*
X238604Y1156652D02*
X244902D01*
X239366Y1156121D02*
X244902D01*
X239914Y1155589D02*
X244902D01*
X240329Y1155058D02*
X244902D01*
X240649Y1154526D02*
X244902D01*
X240890Y1153995D02*
X244902D01*
X241065Y1153463D02*
X244902D01*
X241180Y1152932D02*
X244902D01*
X241239Y1152400D02*
X244902D01*
X241244Y1151869D02*
X244902D01*
X241194Y1151337D02*
X244902D01*
X241090Y1150806D02*
X244902D01*
X240926Y1150274D02*
X244902D01*
X240697Y1149743D02*
X244902D01*
X240393Y1149211D02*
X244902D01*
X239997Y1148680D02*
X244902D01*
X239477Y1148148D02*
X244902D01*
X238764Y1147617D02*
X244902D01*
X238119Y1147085D02*
X244902D01*
X238768Y1146554D02*
X244902D01*
X239480Y1146022D02*
X244902D01*
X239999Y1145491D02*
X244902D01*
X240395Y1144959D02*
X244902D01*
X240699Y1144428D02*
X244902D01*
X240927Y1143896D02*
X244902D01*
X241090Y1143365D02*
X244902D01*
X241195Y1142833D02*
X244902D01*
X241244Y1142302D02*
X244902D01*
X241239Y1141770D02*
X244902D01*
X241179Y1141239D02*
X244902D01*
X241064Y1140707D02*
X244902D01*
X240889Y1140176D02*
X244902D01*
X240647Y1139644D02*
X244902D01*
X240328Y1139113D02*
X244902D01*
X239911Y1138581D02*
X244902D01*
X239362Y1138050D02*
X244902D01*
X238599Y1137518D02*
X244902D01*
X237288Y1136987D02*
X244902D01*
X102264Y1136455D02*
X244902D01*
X102264Y1135924D02*
X244902D01*
X102264Y1135392D02*
X244902D01*
X102264Y1134861D02*
X244902D01*
X102264Y1134329D02*
X244902D01*
X102264Y1133798D02*
X244902D01*
X102264Y1133266D02*
X244902D01*
X102264Y1132735D02*
X244902D01*
X102264Y1132203D02*
X244902D01*
X102264Y1131672D02*
X244902D01*
X102264Y1131140D02*
X244902D01*
X102264Y1130609D02*
X244902D01*
X102264Y1130077D02*
X244902D01*
X102264Y1129546D02*
X244902D01*
X102264Y1129014D02*
X244902D01*
X102264Y1128483D02*
X244902D01*
X102264Y1127951D02*
X244902D01*
X102264Y1127420D02*
X244902D01*
X102264Y1126888D02*
X244902D01*
X102264Y1126357D02*
X244902D01*
X102264Y1125825D02*
X244902D01*
X102264Y1125294D02*
X244902D01*
X102264Y1124762D02*
X244902D01*
X102264Y1124231D02*
X244902D01*
X102264Y1123699D02*
X244902D01*
X102264Y1123168D02*
X244902D01*
X102264Y1122636D02*
X244902D01*
X102264Y1122105D02*
X244902D01*
X102264Y1121573D02*
X244902D01*
X102264Y1121042D02*
X244902D01*
X102264Y1120510D02*
X244902D01*
X102264Y1119979D02*
X244902D01*
X102264Y1119448D02*
X244902D01*
X102264Y1118916D02*
X244902D01*
X102264Y1118385D02*
X244902D01*
X102264Y1117853D02*
X244902D01*
X102264Y1117322D02*
X244902D01*
X102264Y1116790D02*
X244902D01*
X102264Y1116259D02*
X244902D01*
X102264Y1115727D02*
X244902D01*
X102264Y1115196D02*
X244902D01*
X102264Y1114664D02*
X244902D01*
X102264Y1114133D02*
X244902D01*
X102264Y1113601D02*
X244902D01*
X102264Y1113070D02*
X244902D01*
X102264Y1112538D02*
X244902D01*
X102264Y1112007D02*
X244902D01*
X102264Y1111475D02*
X244902D01*
X102264Y1110944D02*
X244902D01*
X102264Y1110412D02*
X244902D01*
X102264Y1109881D02*
X244902D01*
X102264Y1109349D02*
X244902D01*
X102264Y1108818D02*
X244902D01*
X102264Y1108286D02*
X244902D01*
X102264Y1195451D02*
X244612D01*
X102264Y1195983D02*
X244081D01*
X102264Y1196514D02*
X243549D01*
X102264Y1197046D02*
X243018D01*
X102264Y1197577D02*
X242486D01*
X102264Y1198109D02*
X241955D01*
X102264Y1198640D02*
X241423D01*
X102264Y1199172D02*
X240892D01*
X102264Y1199703D02*
X240360D01*
X102264Y1200235D02*
X239829D01*
X102264Y1200766D02*
X239297D01*
X102264Y1201298D02*
X238766D01*
X102264Y1212459D02*
X238576D01*
X102264Y1201829D02*
X238234D01*
X102264Y1202361D02*
X237703D01*
X102264Y1211928D02*
X237339D01*
X102264Y1202892D02*
X237171D01*
X102264Y1203424D02*
X236640D01*
X102264Y1211396D02*
X236599D01*
X102264Y1203955D02*
X236119D01*
X102264Y1210865D02*
X236064D01*
X102264Y1204487D02*
X235700D01*
X102264Y1210333D02*
X235659D01*
X102264Y1205018D02*
X235380D01*
X102264Y1209802D02*
X235348D01*
X102264Y1205550D02*
X235138D01*
X102264Y1209270D02*
X235115D01*
X102264Y1206081D02*
X234964D01*
X102264Y1208739D02*
X234947D01*
X102264Y1206613D02*
X234850D01*
X102264Y1208207D02*
X234840D01*
X102264Y1207144D02*
X234792D01*
X102264Y1207676D02*
X234789D01*
X229830Y1136987D02*
X234680D01*
X227298Y1157184D02*
X234670D01*
X230617Y1137518D02*
X233369D01*
X228604Y1156652D02*
X233365D01*
X230997Y1138050D02*
X232606D01*
X229366Y1156121D02*
X232603D01*
X231191Y1138581D02*
X232057D01*
X229914Y1155589D02*
X232055D01*
X230329Y1155058D02*
X231639D01*
X230649Y1154526D02*
X231320D01*
X140145Y1157184D02*
X224670D01*
X140104Y1156652D02*
X223365D01*
X102264Y1147617D02*
X222962D01*
X139990Y1156121D02*
X222603D01*
X102264Y1148148D02*
X222492D01*
X102264Y1136987D02*
X222138D01*
X139796Y1155589D02*
X222055D01*
X102264Y1148680D02*
X221972D01*
X102264Y1147085D02*
X221921D01*
X139510Y1155058D02*
X221639D01*
X102264Y1149211D02*
X221575D01*
X102264Y1137518D02*
X221352D01*
X139104Y1154526D02*
X221320D01*
X102264Y1149743D02*
X221271D01*
X102264Y1146554D02*
X221260D01*
X138519Y1153995D02*
X221078D01*
X102264Y1150274D02*
X221042D01*
X102264Y1138050D02*
X220972D01*
X102264Y1146022D02*
X220923D01*
X137552Y1153463D02*
X220904D01*
X102264Y1150806D02*
X220879D01*
X102264Y1152932D02*
X220789D01*
X102264Y1138581D02*
X220778D01*
X102264Y1151337D02*
X220774D01*
X102264Y1145491D02*
X220757D01*
X102264Y1152400D02*
X220730D01*
X102264Y1151869D02*
X220725D01*
X102264Y1144959D02*
X220720D01*
X102264Y1144428D02*
X220720D01*
X102264Y1143896D02*
X220720D01*
X102264Y1143365D02*
X220720D01*
X102264Y1142833D02*
X220720D01*
X102264Y1142302D02*
X220720D01*
X102264Y1141770D02*
X220720D01*
X102264Y1141239D02*
X220720D01*
X102264Y1140707D02*
X220720D01*
X102264Y1140176D02*
X220720D01*
X102264Y1139644D02*
X220720D01*
X102264Y1139113D02*
X220720D01*
X177186Y811180D02*
X185814D01*
X177726Y820215D02*
X185274D01*
X178748Y811711D02*
X184252D01*
X178942Y819684D02*
X184058D01*
X179511Y812243D02*
X183489D01*
X179639Y819152D02*
X183361D01*
X180038Y812774D02*
X182962D01*
X180131Y818621D02*
X182869D01*
X180425Y813306D02*
X182575D01*
X180494Y818089D02*
X182506D01*
X180710Y813837D02*
X182290D01*
X180760Y817558D02*
X182240D01*
X180914Y814369D02*
X182086D01*
X180948Y817026D02*
X182052D01*
X181046Y814900D02*
X181954D01*
X181066Y816495D02*
X181934D01*
X181115Y815432D02*
X181885D01*
X181121Y815963D02*
X181879D01*
X169341Y811180D02*
X175814D01*
X169712Y820215D02*
X175274D01*
X170378Y811711D02*
X174252D01*
X170496Y819684D02*
X174058D01*
X170812Y812243D02*
X173489D01*
X170875Y819152D02*
X173361D01*
X171040Y812774D02*
X172962D01*
X171069Y818621D02*
X172869D01*
X171124Y813306D02*
X172575D01*
X171126Y818089D02*
X172506D01*
X171126Y813837D02*
X172290D01*
X171126Y817558D02*
X172240D01*
X171126Y814369D02*
X172086D01*
X171126Y817026D02*
X172052D01*
X171126Y814900D02*
X171954D01*
X171126Y816495D02*
X171934D01*
X171126Y815432D02*
X171885D01*
X171126Y815963D02*
X171879D01*
X102264Y811180D02*
X163659D01*
X102264Y820215D02*
X163288D01*
X102264Y811711D02*
X162622D01*
X102264Y819684D02*
X162504D01*
X102264Y812243D02*
X162188D01*
X102264Y819152D02*
X162125D01*
X102264Y812774D02*
X161960D01*
X102264Y818621D02*
X161931D01*
X102264Y813306D02*
X161876D01*
X102264Y818089D02*
X161874D01*
X102264Y817558D02*
X161874D01*
X102264Y817026D02*
X161874D01*
X102264Y816495D02*
X161874D01*
X102264Y815963D02*
X161874D01*
X102264Y815432D02*
X161874D01*
X102264Y814900D02*
X161874D01*
X102264Y814369D02*
X161874D01*
X102264Y813837D02*
X161874D01*
X102264Y1171003D02*
X135184D01*
X102264Y1153463D02*
X134668D01*
X102264Y1160904D02*
X134436D01*
X102264Y1163562D02*
X134125D01*
X102264Y1170471D02*
X133931D01*
X102264Y1153995D02*
X133701D01*
X102264Y1160373D02*
X133576D01*
X102264Y1164093D02*
X133391D01*
X102264Y1173129D02*
X133311D01*
X102264Y1169940D02*
X133268D01*
X102264Y1154526D02*
X133117D01*
X102264Y1180570D02*
X133078D01*
X102264Y1159841D02*
X133032D01*
X102264Y1164625D02*
X132904D01*
X102264Y1169408D02*
X132818D01*
X102264Y1155058D02*
X132711D01*
X102264Y1159310D02*
X132651D01*
X102264Y1173660D02*
X132630D01*
X102264Y1165156D02*
X132560D01*
X102264Y1180038D02*
X132521D01*
X102264Y1168877D02*
X132499D01*
X102264Y1155589D02*
X132424D01*
X102264Y1158778D02*
X132383D01*
X102264Y1165688D02*
X132321D01*
X102264Y1174192D02*
X132286D01*
X102264Y1168345D02*
X132280D01*
X102264Y1156121D02*
X132231D01*
X102264Y1179507D02*
X132228D01*
X102264Y1158247D02*
X132204D01*
X102264Y1166219D02*
X132167D01*
X102264Y1167814D02*
X132143D01*
X102264Y1156652D02*
X132117D01*
X102264Y1174723D02*
X132115D01*
X102264Y1157715D02*
X132104D01*
X102264Y1178975D02*
X132093D01*
X102264Y1166751D02*
X132088D01*
X102264Y1167282D02*
X132080D01*
X102264Y1157184D02*
X132075D01*
X102264Y1178444D02*
X132075D01*
X102264Y1177912D02*
X132075D01*
X102264Y1177381D02*
X132075D01*
X102264Y1176849D02*
X132075D01*
X102264Y1176318D02*
X132075D01*
X102264Y1175786D02*
X132075D01*
X102264Y1175255D02*
X132075D01*
X102264Y789920D02*
X114051D01*
X102264Y1260825D02*
X113314D01*
X102264Y1241160D02*
X113246D01*
X102264Y770255D02*
X112706D01*
X102264Y789388D02*
X112112D01*
X102264Y1260294D02*
X111735D01*
X102264Y1241692D02*
X111696D01*
X102264Y770786D02*
X111360D01*
X102264Y788857D02*
X110952D01*
X102264Y1259762D02*
X110677D01*
X102264Y1242223D02*
X110647D01*
X102264Y771318D02*
X110392D01*
X102264Y788325D02*
X110073D01*
X102264Y1259231D02*
X109852D01*
X102264Y1242755D02*
X109828D01*
X102264Y771849D02*
X109620D01*
X102264Y787794D02*
X109356D01*
X102264Y1258699D02*
X109172D01*
X102264Y1243286D02*
X109152D01*
X102264Y772381D02*
X108976D01*
X102264Y787262D02*
X108752D01*
X102264Y1258168D02*
X108595D01*
X102264Y1243818D02*
X108578D01*
X102264Y772912D02*
X108427D01*
X102264Y786731D02*
X108234D01*
X102264Y1257636D02*
X108098D01*
X102264Y1244349D02*
X108083D01*
X102264Y773444D02*
X107953D01*
X102264Y786199D02*
X107785D01*
X102264Y1257105D02*
X107666D01*
X102264Y1244881D02*
X107654D01*
X102264Y773975D02*
X107540D01*
X102264Y785668D02*
X107394D01*
X102264Y1256573D02*
X107290D01*
X102264Y1245412D02*
X107279D01*
X102264Y774507D02*
X107180D01*
X102264Y785136D02*
X107052D01*
X102264Y1256042D02*
X106962D01*
X102264Y1245944D02*
X106952D01*
X102264Y775038D02*
X106866D01*
X102264Y784605D02*
X106755D01*
X102264Y1255510D02*
X106677D01*
X102264Y1246475D02*
X106668D01*
X102264Y775570D02*
X106594D01*
X102264Y784073D02*
X106498D01*
X102264Y1254979D02*
X106430D01*
X102264Y1247007D02*
X106423D01*
X102264Y776101D02*
X106359D01*
X102264Y783542D02*
X106277D01*
X102264Y1254448D02*
X106220D01*
X102264Y1247538D02*
X106214D01*
X102264Y776633D02*
X106160D01*
X102264Y783010D02*
X106091D01*
X102264Y1253916D02*
X106043D01*
X102264Y1248070D02*
X106038D01*
X102264Y777164D02*
X105993D01*
X102264Y782479D02*
X105937D01*
X102264Y1253385D02*
X105898D01*
X102264Y1248601D02*
X105894D01*
X102264Y777696D02*
X105858D01*
X102264Y781948D02*
X105814D01*
X102264Y1252853D02*
X105784D01*
X102264Y1249133D02*
X105781D01*
X102264Y778227D02*
X105753D01*
X102264Y781416D02*
X105720D01*
X102264Y1252322D02*
X105699D01*
X102264Y1249664D02*
X105697D01*
X102264Y778759D02*
X105678D01*
X102264Y780885D02*
X105656D01*
X102264Y1251790D02*
X105642D01*
X102264Y1250196D02*
X105641D01*
X102264Y779290D02*
X105630D01*
X102264Y780353D02*
X105619D01*
X102264Y1251259D02*
X105614D01*
X102264Y1250727D02*
X105613D01*
X102264Y779822D02*
X105611D01*
G54D14*
X456974Y255389D03*
Y266295D03*
Y277200D03*
Y288106D03*
Y299011D03*
X468155Y260842D03*
Y271748D03*
Y282653D03*
Y293559D03*
X456974Y171825D03*
Y160920D03*
Y150014D03*
Y139109D03*
Y128203D03*
X468156Y166136D03*
Y155231D03*
Y144325D03*
Y133420D03*
G54D16*
X233827Y1017990D03*
G54D17*
X183827D03*
X136819D03*
Y856021D03*
X171819D03*
X183827D03*
X221819D03*
X233827D03*
X305748Y649921D03*
Y627874D03*
X141829Y194812D02*
Y221563D01*
X123787*
X141829D02*
X141853D01*
X413228Y442899D02*
Y462266D01*
X398295Y477199*
X421348Y431726D02*
X441837D01*
X462950Y452839*
Y504091*
X454428Y512613*
X444293*
X421348Y431726D02*
X413228Y439845D01*
Y441433*
X424293Y505913D02*
X423303Y506903D01*
X222812*
X424293Y519313D02*
X240702D01*
X195121Y564894*
Y578961*
X280671Y552111D02*
Y602389D01*
X279985Y603075*
X257841Y601529D02*
X278440D01*
X279985Y603075*
X289239Y612328*
X306201*
X408169Y833877D02*
X388308D01*
X353349Y868836*
X408169Y833877D02*
Y879819D01*
X427730Y899380*
X427730*
X408169Y816050D02*
Y833877D01*
X316741Y869514D02*
X316755Y1007491D01*
X353349Y868836D02*
Y922980D01*
X427730Y899380D02*
X428202Y899852D01*
Y961373*
X445136Y978307*
Y1050551*
X420609Y1075079*
X418150*
X316755Y1007491D02*
X316684Y1007562D01*
X346425Y1037303*
X414719*
X422820Y1029202*
X393110Y1075079D02*
X418150D01*
X449555Y1106484*
X473039*
X250118Y1108071D02*
Y1197323D01*
X240000Y1207441*
X141829Y194812D03*
X214703Y191072D03*
X233168Y177293D03*
X141853Y221563D03*
X186969Y246230D03*
X222243Y218579D03*
X168640Y277726D03*
X172499Y312332D03*
X343634Y442899D03*
X398295Y477199D03*
X284348Y532480D03*
X280671Y552111D03*
X354594Y548811D03*
X257718Y601589D03*
X429154Y620138D03*
X353349Y868836D03*
Y922980D03*
X427730Y899380D03*
X428202Y961373D03*
X422820Y1029202D03*
X393110Y1075079D03*
X250118Y1108071D03*
X240000Y1207441D03*
X368386Y1177717D03*
G54D22*
X123787Y192035D02*
X132428Y183395D01*
X207375*
X215052Y191072*
X214703*
X233168Y177293D02*
X222262Y188198D01*
X222243*
Y198263*
X215052Y191072*
X222243Y198263D02*
Y218579D01*
X198754*
X186969Y230364*
Y246230*
X168640Y277726D02*
Y308474D01*
X172499Y312332*
X409362Y442899D02*
X413228D01*
X444293Y526013D02*
X465276D01*
X480601Y541339*
Y652115*
X480591Y652126*
X354594Y548811D02*
X328786Y574619D01*
G54D23*
X264291Y1123819D02*
X329449D01*
X353661Y1148031*
G54D24*
X257841Y601529D02*
X257718Y601589D01*
X328786Y574619D02*
X328390D01*
X306201Y612328D02*
X305735D01*
X331496Y1158858D02*
X339961Y1167323D01*
X362874*
G54D26*
X226479Y165067D02*
X226479D01*
X218286Y173260*
Y184401*
X384414Y147937D02*
X373626Y158724D01*
X373656Y158755*
Y193474*
X456974Y150014D02*
Y150022D01*
X421278Y185718*
X382420Y193474D02*
X373656D01*
Y214346*
X380488Y221179*
X380646Y208035D02*
X387821Y215210D01*
Y277821*
X313928Y243936D02*
Y275623D01*
X419585Y245600D02*
X425373D01*
X456974Y277200*
X171819Y856021D02*
X183827D01*
X226479Y165067D03*
X384414Y147937D03*
X235806Y195442D03*
X218286Y184401D03*
X382420Y193474D03*
X421278Y185718D03*
X243719Y216860D03*
X313928Y243936D03*
X419585Y245600D03*
X167932Y266230D03*
X200412Y251466D03*
X177577Y278552D03*
X208877Y263671D03*
X387821Y277821D03*
X480591Y652126D03*
X316755Y1007491D03*
X331496Y1158858D03*
X353661Y1148031D03*
X362874Y1167323D03*
G54D27*
G54D30*
X123787Y221563D03*
X473039Y1116327D03*
X398327Y816050D03*
X124192Y1066669D03*
X473039Y1182941D03*
X136110Y1176917D03*
G54D39*
X235806Y195442D02*
Y216072D01*
X200412Y251466*
X243719Y216860D02*
X182026Y278552D01*
X177577*
X167932Y266230D02*
X150018Y284143D01*
Y328789*
X208877Y263671D02*
Y318198D01*
X198168Y328907*
G54D40*
X494567Y1266732D02*
X100000D01*
Y61575*
X494567*
Y1266732*
X468858Y100787D02*
G03X468858I-6299J0D01*
G01Y199173D02*
G03X468858I-6299J0D01*
G01X468898Y227992D02*
G03X468898I-6300J0D01*
G01Y326378D02*
G03X468898I-6300J0D01*
G01X439017Y570684D02*
G03X439017I-4724J0D01*
G01Y454542D02*
G03X439017I-4724J0D01*
G01X127297Y872058D02*
G03X127297I-2000J0D01*
G01X247297D02*
G03X247297I-2000J0D01*
G01X127297Y1002058D02*
G03X127297I-2000J0D01*
G01X247297D02*
G03X247297I-2000J0D01*
G01X123622Y77323D02*
G03X123622I-7874J0D01*
G01X486693D02*
G03X486693I-7874J0D01*
G01Y348583D02*
G03X486693I-7874J0D01*
G01Y380079D02*
G03X486693I-7874J0D01*
G01X123622D02*
G03X123622I-7874J0D01*
G01Y348583D02*
G03X123622I-7874J0D01*
G01Y748429D02*
G03X123622I-7874J0D01*
G01Y779925D02*
G03X123622I-7874J0D01*
G01X486693Y748429D02*
G03X486693I-7874J0D01*
G01Y779925D02*
G03X486693I-7874J0D01*
G01X123622Y1250984D02*
G03X123622I-7874J0D01*
G01X486693D02*
G03X486693I-7874J0D01*
G54D42*
G01X399060Y703365D03*
X261265D03*
X264383Y420196D03*
X402178D03*
X284348Y532480D02*
X258824D01*
X243013Y548291*
Y601613*
X197087Y643858*
G54D70*
X166500Y815755D03*
G54D102*
X343634Y442899D02*
X409362D01*
X444293Y539413D02*
X450797Y545917D01*
G54D108*
X313928Y275623D02*
Y276175D01*
X313914Y276189*
X413228Y441433D02*
Y442899D01*
G54D128*
X195121Y578961D03*
X313914Y276189D03*
X382785Y936876D03*
X272882Y922978D03*
X282882D03*
X466262Y713744D03*
X198168Y328907D03*
Y338907D03*
X380646Y208035D03*
X380488Y221179D03*
X444682Y896073D03*
X454682Y906073D03*
X444682D03*
X133157Y550517D03*
X133161Y500642D03*
X183244Y550531D03*
Y560531D03*
Y477776D03*
Y487776D03*
X305735Y612328D03*
Y602328D03*
X289000Y815621D03*
X222812Y506903D03*
X328390Y574619D03*
X197087Y643858D03*
X316741Y869514D03*
X225984Y1152087D03*
X235984Y1142087D03*
Y1152087D03*
X280039Y1207283D03*
X264291Y1123819D03*
X150018Y328789D03*
Y338789D03*
G54D129*
X176500Y815755D03*
X186500D03*
G54D136*
X123787Y211720D03*
Y201878D03*
Y192035D03*
X473039Y1106484D03*
X408169Y816050D03*
X418012D03*
X124192Y1056827D03*
X473039Y1173098D03*
X136110Y1167075D03*
Y1157232D03*
G54D153*
X450797Y545917D02*
X455176Y550296D01*
Y658622*
X410433Y703365*
X399060*
G54D214*
X138964Y1154379D02*
X137363Y1155980D01*
X138964Y1160086D02*
X137363Y1158485D01*
X133257Y1160086D02*
X134857Y1158485D01*
X133257Y1154379D02*
X134857Y1155980D01*
X276604Y919256D02*
X275003Y920856D01*
X276604Y926700D02*
X275003Y925099D01*
X269160Y926700D02*
X270761Y925099D01*
X269160Y919256D02*
X270761Y920856D01*
X475893Y1103631D02*
X474292Y1105232D01*
X475893Y1109338D02*
X474292Y1107737D01*
X470186Y1109338D02*
X471787Y1107737D01*
X470186Y1103631D02*
X471787Y1105232D01*
X420865Y818904D02*
X419264Y817303D01*
X415158Y818904D02*
X416759Y817303D01*
X415158Y813197D02*
X416759Y814797D01*
X420865Y813197D02*
X419264Y814797D01*
X411023Y818904D02*
X409422Y817303D01*
X405316Y818904D02*
X406916Y817303D01*
X405316Y813197D02*
X406916Y814797D01*
X411023Y813197D02*
X409422Y814797D01*
X138964Y1164221D02*
X137363Y1165822D01*
X138964Y1169928D02*
X137363Y1168328D01*
X133257Y1169928D02*
X134857Y1168328D01*
X133257Y1164221D02*
X134857Y1165822D01*
X372074Y1181405D02*
X370474Y1179804D01*
X364697Y1181405D02*
X366298Y1179804D01*
X364697Y1174028D02*
X366298Y1175629D01*
X372074Y1174028D02*
X370474Y1175629D01*
X431891Y965062D02*
X430290Y963461D01*
X424513Y965062D02*
X426114Y963461D01*
X424513Y957684D02*
X426114Y959285D01*
X431891Y957684D02*
X430290Y959285D01*
X396799Y1078767D02*
X395198Y1077167D01*
X389422Y1078767D02*
X391022Y1077167D01*
X389422Y1071390D02*
X391022Y1072991D01*
X396799Y1071390D02*
X395198Y1072991D01*
X357038Y872525D02*
X355437Y870924D01*
X349660Y872525D02*
X351261Y870924D01*
X349660Y865147D02*
X351261Y866748D01*
X357038Y865147D02*
X355437Y866748D01*
X357038Y926669D02*
X355437Y925068D01*
X349660Y926669D02*
X351261Y925068D01*
X349660Y919291D02*
X351261Y920892D01*
X357038Y919291D02*
X355437Y920892D01*
X431419Y903069D02*
X429818Y901468D01*
X424041Y903069D02*
X425642Y901468D01*
X424041Y895691D02*
X425642Y897292D01*
X431419Y895691D02*
X429818Y897292D01*
G54D216*
X466262Y694059D03*
X454682Y896073D03*
X133157Y570202D03*
X133161Y520327D03*
X225984Y1142087D03*
G54D224*
X424293Y546113D03*
G54D225*
X444293Y539413D03*
X424293Y532713D03*
X444293Y526013D03*
X424293Y519313D03*
X444293Y512613D03*
X424293Y505913D03*
X444293Y499213D03*
X424293Y492513D03*
X444293Y485813D03*
X424293Y479113D03*
G54D233*
X132975Y676265D03*
G54D234*
Y643765D03*
G54D243*
X410045Y532713D02*
X410045D01*
X424293*
X410045D02*
X390088Y552669D01*
Y581072*
X390088*
X429154Y620138*
G74*
X0Y0D02*
M02*
