*
*
G04 PADS 9.5 Build Number: 522968 generated Gerber (RS-274-X) file*
G04 PC Version=2.1*
*
%IN "Total_Board_ATIK_V1.0.p"*%
*
%MOIN*%
*
%FSLAX35Y35*%
*
*
*
*
G04 PC Standard Apertures*
*
*
G04 Thermal Relief Aperture macro.*
%AMTER*
1,1,$1,0,0*
1,0,$1-$2,0,0*
21,0,$3,$4,0,0,45*
21,0,$3,$4,0,0,135*
%
*
*
G04 Annular Aperture macro.*
%AMANN*
1,1,$1,0,0*
1,0,$2,0,0*
%
*
*
G04 Odd Aperture macro.*
%AMODD*
1,1,$1,0,0*
1,0,$1-0.005,0,0*
%
*
*
G04 PC Custom Aperture Macros*
*
*
*
*
*
*
G04 PC Aperture Table*
*
%ADD010C,0.00472*%
%ADD027C,0.001*%
%ADD040C,0.00394*%
*
*
*
*
G04 PC Circuitry*
G04 Layer Name Total_Board_ATIK_V1.0.p - circuitry*
%LPD*%
*
*
G04 PC Custom Flashes*
G04 Layer Name Total_Board_ATIK_V1.0.p - flashes*
%LPD*%
*
*
G04 PC Circuitry*
G04 Layer Name Total_Board_ATIK_V1.0.p - circuitry*
%LPD*%
*
G54D10*
G01X121819Y221563D02*
X125756D01*
X123787Y219594D02*
Y223531D01*
X124772Y225131D02*
Y222547D01*
Y225131D02*
X125577D01*
X125845Y225008*
X125935Y224885*
X126024Y224639*
Y224393*
X125935Y224147*
X125845Y224024*
X125577Y223901*
X124772D02*
X125577D01*
X125845Y223778*
X125935Y223655*
X126024Y223408*
Y223039*
X125935Y222793*
X125845Y222670*
X125577Y222547*
X124772*
X121819Y211720D02*
X125756D01*
X123787Y209752D02*
Y213689D01*
X124772Y215288D02*
Y212705D01*
Y215288D02*
X125577D01*
X125845Y215165*
X125935Y215042*
X126024Y214796*
Y214550*
X125935Y214304*
X125845Y214181*
X125577Y214058*
X124772D02*
X125577D01*
X125845Y213935*
X125935Y213812*
X126024Y213566*
Y213197*
X125935Y212951*
X125845Y212828*
X125577Y212705*
X124772*
X121819Y201878D02*
X125756D01*
X123787Y199909D02*
Y203846D01*
X124772Y205446D02*
Y202862D01*
Y205446D02*
X125577D01*
X125845Y205323*
X125935Y205200*
X126024Y204954*
Y204708*
X125935Y204462*
X125845Y204339*
X125577Y204216*
X124772D02*
X125577D01*
X125845Y204093*
X125935Y203969*
X126024Y203723*
Y203354*
X125935Y203108*
X125845Y202985*
X125577Y202862*
X124772*
X121819Y192035D02*
X125756D01*
X123787Y190067D02*
Y194004D01*
X124772Y195603D02*
Y193020D01*
Y195603D02*
X125577D01*
X125845Y195480*
X125935Y195357*
X126024Y195111*
Y194865*
X125935Y194619*
X125845Y194496*
X125577Y194373*
X124772D02*
X125577D01*
X125845Y194250*
X125935Y194127*
X126024Y193881*
Y193512*
X125935Y193266*
X125845Y193143*
X125577Y193020*
X124772*
X193152Y578961D02*
X197089D01*
X195121Y576992D02*
Y580929D01*
X197447Y581913D02*
X197358Y582159D01*
X197179Y582406*
X197000Y582529*
X196642*
X196463Y582406*
X196284Y582159*
X196194Y581913*
X196105Y581544*
Y580929*
X196194Y580560*
X196284Y580314*
X196463Y580068*
X196642Y579945*
X197000*
X197179Y580068*
X197358Y580314*
X197447Y580560*
X311946Y276189D02*
X315883D01*
X313914Y274221D02*
Y278158D01*
X316241Y279142D02*
X316151Y279388D01*
X315972Y279634*
X315793Y279757*
X315435*
X315256Y279634*
X315077Y279388*
X314988Y279142*
X314898Y278773*
Y278158*
X314988Y277788*
X315077Y277542*
X315256Y277296*
X315435Y277173*
X315793*
X315972Y277296*
X316151Y277542*
X316241Y277788*
X471071Y1116327D02*
X475008D01*
X473039Y1114358D02*
Y1118295D01*
X474024Y1119895D02*
Y1117311D01*
Y1119895D02*
X474829D01*
X475097Y1119772*
X475187Y1119649*
X475276Y1119403*
Y1119156*
X475187Y1118910*
X475097Y1118787*
X474829Y1118664*
X474024D02*
X474829D01*
X475097Y1118541*
X475187Y1118418*
X475276Y1118172*
Y1117803*
X475187Y1117557*
X475097Y1117434*
X474829Y1117311*
X474024*
X471071Y1106484D02*
X475008D01*
X473039Y1104516D02*
Y1108453D01*
X474024Y1110052D02*
Y1107469D01*
Y1110052D02*
X474829D01*
X475097Y1109929*
X475187Y1109806*
X475276Y1109560*
Y1109314*
X475187Y1109068*
X475097Y1108945*
X474829Y1108822*
X474024D02*
X474829D01*
X475097Y1108699*
X475187Y1108576*
X475276Y1108330*
Y1107961*
X475187Y1107715*
X475097Y1107592*
X474829Y1107469*
X474024*
X380816Y936876D02*
X384753D01*
X382785Y934908D02*
Y938845D01*
X385111Y939829D02*
X385022Y940075D01*
X384843Y940321*
X384664Y940444*
X384306*
X384127Y940321*
X383948Y940075*
X383859Y939829*
X383769Y939460*
Y938845*
X383859Y938476*
X383948Y938230*
X384127Y937984*
X384306Y937861*
X384664*
X384843Y937984*
X385022Y938230*
X385111Y938476*
X396358Y816050D02*
X400295D01*
X398327Y814082D02*
Y818019D01*
X399311Y819618D02*
Y817034D01*
Y819618D02*
X400116D01*
X400385Y819495*
X400474Y819372*
X400564Y819126*
Y818880*
X400474Y818634*
X400385Y818511*
X400116Y818388*
X399311D02*
X400116D01*
X400385Y818265*
X400474Y818142*
X400564Y817896*
Y817527*
X400474Y817280*
X400385Y817157*
X400116Y817034*
X399311*
X406201Y816050D02*
X410138D01*
X408169Y814082D02*
Y818019D01*
X409153Y819618D02*
Y817034D01*
Y819618D02*
X409959D01*
X410227Y819495*
X410317Y819372*
X410406Y819126*
Y818880*
X410317Y818634*
X410227Y818511*
X409959Y818388*
X409153D02*
X409959D01*
X410227Y818265*
X410317Y818142*
X410406Y817896*
Y817527*
X410317Y817280*
X410227Y817157*
X409959Y817034*
X409153*
X416043Y816050D02*
X419980D01*
X418012Y814082D02*
Y818019D01*
X418996Y819618D02*
Y817034D01*
Y819618D02*
X419801D01*
X420070Y819495*
X420159Y819372*
X420249Y819126*
Y818880*
X420159Y818634*
X420070Y818511*
X419801Y818388*
X418996D02*
X419801D01*
X420070Y818265*
X420159Y818142*
X420249Y817896*
Y817527*
X420159Y817280*
X420070Y817157*
X419801Y817034*
X418996*
X270913Y922978D02*
X274850D01*
X272882Y921009D02*
Y924946D01*
X273866Y926546D02*
Y923962D01*
Y926546D02*
X274492D01*
X274761Y926423*
X274940Y926177*
X275029Y925930*
X275119Y925561*
Y924946*
X275029Y924577*
X274940Y924331*
X274761Y924085*
X274492Y923962*
X273866*
X280913Y922978D02*
X284850D01*
X282882Y921009D02*
Y924946D01*
X283866Y926546D02*
Y923962D01*
Y926546D02*
X284492D01*
X284761Y926423*
X284940Y926177*
X285029Y925930*
X285119Y925561*
Y924946*
X285029Y924577*
X284940Y924331*
X284761Y924085*
X284492Y923962*
X283866*
X164531Y815755D02*
X168469D01*
X166500Y813786D02*
Y817723D01*
X167484Y819323D02*
Y816739D01*
Y819323D02*
X168647D01*
X167484Y818092D02*
X168200D01*
X167484Y816739D02*
X168647D01*
X174531Y815755D02*
X178469D01*
X176500Y813786D02*
Y817723D01*
X177484Y819323D02*
Y816739D01*
Y819323D02*
X178647D01*
X177484Y818092D02*
X178200D01*
X177484Y816739D02*
X178647D01*
X184531Y815755D02*
X188469D01*
X186500Y813786D02*
Y817723D01*
X187484Y819323D02*
Y816739D01*
Y819323D02*
X188647D01*
X187484Y818092D02*
X188200D01*
X187484Y816739D02*
X188647D01*
X464294Y694059D02*
X468231D01*
X466262Y692091D02*
Y696028D01*
X467247Y697627D02*
Y695043D01*
Y697627D02*
X468410D01*
X467247Y696397D02*
X467963D01*
X464294Y713744D02*
X468231D01*
X466262Y711776D02*
Y715713D01*
X467247Y717312D02*
Y714728D01*
Y717312D02*
X468410D01*
X467247Y716082D02*
X467963D01*
X422324Y546113D02*
X426261D01*
X424293Y544144D02*
Y548081D01*
X426619Y549066D02*
X426530Y549312D01*
X426351Y549558*
X426172Y549681*
X425814*
X425635Y549558*
X425456Y549312*
X425366Y549066*
X425277Y548697*
Y548081*
X425366Y547712*
X425456Y547466*
X425635Y547220*
X425814Y547097*
X426172*
X426351Y547220*
X426530Y547466*
X426619Y547712*
Y548081*
X426172D02*
X426619D01*
X442324Y539413D02*
X446261D01*
X444293Y537444D02*
Y541381D01*
X446619Y542366D02*
X446530Y542612D01*
X446351Y542858*
X446172Y542981*
X445814*
X445635Y542858*
X445456Y542612*
X445366Y542366*
X445277Y541997*
Y541381*
X445366Y541012*
X445456Y540766*
X445635Y540520*
X445814Y540397*
X446172*
X446351Y540520*
X446530Y540766*
X446619Y541012*
Y541381*
X446172D02*
X446619D01*
X422324Y532713D02*
X426261D01*
X424293Y530744D02*
Y534681D01*
X426619Y535666D02*
X426530Y535912D01*
X426351Y536158*
X426172Y536281*
X425814*
X425635Y536158*
X425456Y535912*
X425366Y535666*
X425277Y535297*
Y534681*
X425366Y534312*
X425456Y534066*
X425635Y533820*
X425814Y533697*
X426172*
X426351Y533820*
X426530Y534066*
X426619Y534312*
Y534681*
X426172D02*
X426619D01*
X442324Y526013D02*
X446261D01*
X444293Y524044D02*
Y527981D01*
X446619Y528966D02*
X446530Y529212D01*
X446351Y529458*
X446172Y529581*
X445814*
X445635Y529458*
X445456Y529212*
X445366Y528966*
X445277Y528597*
Y527981*
X445366Y527612*
X445456Y527366*
X445635Y527120*
X445814Y526997*
X446172*
X446351Y527120*
X446530Y527366*
X446619Y527612*
Y527981*
X446172D02*
X446619D01*
X422324Y519313D02*
X426261D01*
X424293Y517344D02*
Y521281D01*
X426619Y522266D02*
X426530Y522512D01*
X426351Y522758*
X426172Y522881*
X425814*
X425635Y522758*
X425456Y522512*
X425366Y522266*
X425277Y521897*
Y521281*
X425366Y520912*
X425456Y520666*
X425635Y520420*
X425814Y520297*
X426172*
X426351Y520420*
X426530Y520666*
X426619Y520912*
Y521281*
X426172D02*
X426619D01*
X442324Y512613D02*
X446261D01*
X444293Y510644D02*
Y514581D01*
X446619Y515566D02*
X446530Y515812D01*
X446351Y516058*
X446172Y516181*
X445814*
X445635Y516058*
X445456Y515812*
X445366Y515566*
X445277Y515197*
Y514581*
X445366Y514212*
X445456Y513966*
X445635Y513720*
X445814Y513597*
X446172*
X446351Y513720*
X446530Y513966*
X446619Y514212*
Y514581*
X446172D02*
X446619D01*
X422324Y505913D02*
X426261D01*
X424293Y503944D02*
Y507881D01*
X426619Y508866D02*
X426530Y509112D01*
X426351Y509358*
X426172Y509481*
X425814*
X425635Y509358*
X425456Y509112*
X425366Y508866*
X425277Y508497*
Y507881*
X425366Y507512*
X425456Y507266*
X425635Y507020*
X425814Y506897*
X426172*
X426351Y507020*
X426530Y507266*
X426619Y507512*
Y507881*
X426172D02*
X426619D01*
X442324Y499213D02*
X446261D01*
X444293Y497244D02*
Y501181D01*
X446619Y502166D02*
X446530Y502412D01*
X446351Y502658*
X446172Y502781*
X445814*
X445635Y502658*
X445456Y502412*
X445366Y502166*
X445277Y501797*
Y501181*
X445366Y500812*
X445456Y500566*
X445635Y500320*
X445814Y500197*
X446172*
X446351Y500320*
X446530Y500566*
X446619Y500812*
Y501181*
X446172D02*
X446619D01*
X422324Y492513D02*
X426261D01*
X424293Y490544D02*
Y494481D01*
X426619Y495466D02*
X426530Y495712D01*
X426351Y495958*
X426172Y496081*
X425814*
X425635Y495958*
X425456Y495712*
X425366Y495466*
X425277Y495097*
Y494481*
X425366Y494112*
X425456Y493866*
X425635Y493620*
X425814Y493497*
X426172*
X426351Y493620*
X426530Y493866*
X426619Y494112*
Y494481*
X426172D02*
X426619D01*
X442324Y485813D02*
X446261D01*
X444293Y483844D02*
Y487781D01*
X446619Y488766D02*
X446530Y489012D01*
X446351Y489258*
X446172Y489381*
X445814*
X445635Y489258*
X445456Y489012*
X445366Y488766*
X445277Y488397*
Y487781*
X445366Y487412*
X445456Y487166*
X445635Y486920*
X445814Y486797*
X446172*
X446351Y486920*
X446530Y487166*
X446619Y487412*
Y487781*
X446172D02*
X446619D01*
X422324Y479113D02*
X426261D01*
X424293Y477144D02*
Y481081D01*
X426619Y482066D02*
X426530Y482312D01*
X426351Y482558*
X426172Y482681*
X425814*
X425635Y482558*
X425456Y482312*
X425366Y482066*
X425277Y481697*
Y481081*
X425366Y480712*
X425456Y480466*
X425635Y480220*
X425814Y480097*
X426172*
X426351Y480220*
X426530Y480466*
X426619Y480712*
Y481081*
X426172D02*
X426619D01*
X397092Y701396D02*
X401029Y705333D01*
X397092D02*
X401029Y701396D01*
X259297D02*
X263234Y705333D01*
X259297D02*
X263234Y701396D01*
X196199Y328907D02*
X200136D01*
X198168Y326938D02*
Y330875D01*
X199152Y332475D02*
Y329891D01*
Y332475D02*
X199779D01*
X200047Y332352*
X200226Y332106*
X200315Y331860*
X200405Y331490*
Y330875*
X200315Y330506*
X200226Y330260*
X200047Y330014*
X199779Y329891*
X199152*
X196199Y338907D02*
X200136D01*
X198168Y336938D02*
Y340875D01*
X199152Y342475D02*
Y339891D01*
Y342475D02*
X199779D01*
X200047Y342352*
X200226Y342106*
X200315Y341860*
X200405Y341490*
Y340875*
X200315Y340506*
X200226Y340260*
X200047Y340014*
X199779Y339891*
X199152*
X378677Y208035D02*
X382614D01*
X380646Y206066D02*
Y210003D01*
X382972Y210987D02*
X382883Y211233D01*
X382704Y211479*
X382525Y211602*
X382167*
X381988Y211479*
X381809Y211233*
X381719Y210987*
X381630Y210618*
Y210003*
X381719Y209634*
X381809Y209388*
X381988Y209142*
X382167Y209019*
X382525*
X382704Y209142*
X382883Y209388*
X382972Y209634*
X378520Y221179D02*
X382457D01*
X380488Y219210D02*
Y223147D01*
X382815Y224131D02*
X382725Y224377D01*
X382546Y224623*
X382367Y224747*
X382009*
X381831Y224623*
X381652Y224377*
X381562Y224131*
X381473Y223762*
Y223147*
X381562Y222778*
X381652Y222532*
X381831Y222286*
X382009Y222163*
X382367*
X382546Y222286*
X382725Y222532*
X382815Y222778*
X122223Y1066669D02*
X126160D01*
X124192Y1064701D02*
Y1068638D01*
X125176Y1070237D02*
Y1067654D01*
Y1070237D02*
X125981D01*
X126250Y1070114*
X126339Y1069991*
X126429Y1069745*
Y1069499*
X126339Y1069253*
X126250Y1069130*
X125981Y1069007*
X125176D02*
X125981D01*
X126250Y1068884*
X126339Y1068761*
X126429Y1068515*
Y1068146*
X126339Y1067900*
X126250Y1067777*
X125981Y1067654*
X125176*
X122223Y1056827D02*
X126160D01*
X124192Y1054858D02*
Y1058795D01*
X125176Y1060395D02*
Y1057811D01*
Y1060395D02*
X125981D01*
X126250Y1060272*
X126339Y1060149*
X126429Y1059903*
Y1059656*
X126339Y1059410*
X126250Y1059287*
X125981Y1059164*
X125176D02*
X125981D01*
X126250Y1059041*
X126339Y1058918*
X126429Y1058672*
Y1058303*
X126339Y1058057*
X126250Y1057934*
X125981Y1057811*
X125176*
X455006Y255389D02*
X458943D01*
X456974Y253421D02*
Y257358D01*
X457958Y258957D02*
Y256374D01*
X459211Y258957D02*
Y256374D01*
X457958Y257727D02*
X459211D01*
X455006Y266295D02*
X458943D01*
X456974Y264326D02*
Y268263D01*
X457958Y269863D02*
Y267279D01*
X459211Y269863D02*
Y267279D01*
X457958Y268633D02*
X459211D01*
X455006Y277200D02*
X458943D01*
X456974Y275232D02*
Y279169D01*
X457958Y280768D02*
Y278185D01*
X459211Y280768D02*
Y278185D01*
X457958Y279538D02*
X459211D01*
X455006Y288106D02*
X458943D01*
X456974Y286137D02*
Y290074D01*
X457958Y291674D02*
Y289090D01*
X459211Y291674D02*
Y289090D01*
X457958Y290444D02*
X459211D01*
X455006Y299011D02*
X458943D01*
X456974Y297043D02*
Y300980D01*
X457958Y302579D02*
Y299996D01*
X459211Y302579D02*
Y299996D01*
X457958Y301349D02*
X459211D01*
X466187Y260842D02*
X470124D01*
X468155Y258874D02*
Y262811D01*
X469139Y264410D02*
Y261826D01*
X470392Y264410D02*
Y261826D01*
X469139Y263180D02*
X470392D01*
X466187Y271748D02*
X470124D01*
X468155Y269779D02*
Y273716D01*
X469139Y275316D02*
Y272732D01*
X470392Y275316D02*
Y272732D01*
X469139Y274085D02*
X470392D01*
X466187Y282653D02*
X470124D01*
X468155Y280685D02*
Y284622D01*
X469139Y286221D02*
Y283637D01*
X470392Y286221D02*
Y283637D01*
X469139Y284991D02*
X470392D01*
X466187Y293559D02*
X470124D01*
X468155Y291590D02*
Y295527D01*
X469139Y297127D02*
Y294543D01*
X470392Y297127D02*
Y294543D01*
X469139Y295896D02*
X470392D01*
X455006Y171825D02*
X458943D01*
X456974Y169857D02*
Y173794D01*
X457959Y175393D02*
Y172809D01*
X459211Y175393D02*
Y172809D01*
X457959Y174163D02*
X459211D01*
X455006Y160920D02*
X458943D01*
X456974Y158951D02*
Y162888D01*
X457959Y164488D02*
Y161904D01*
X459211Y164488D02*
Y161904D01*
X457959Y163257D02*
X459211D01*
X455006Y150014D02*
X458943D01*
X456974Y148046D02*
Y151983D01*
X457959Y153582D02*
Y150998D01*
X459211Y153582D02*
Y150998D01*
X457959Y152352D02*
X459211D01*
X455006Y139109D02*
X458943D01*
X456974Y137140D02*
Y141077D01*
X457959Y142677D02*
Y140093D01*
X459211Y142677D02*
Y140093D01*
X457959Y141446D02*
X459211D01*
X455006Y128203D02*
X458943D01*
X456974Y126235D02*
Y130172D01*
X457959Y131771D02*
Y129187D01*
X459211Y131771D02*
Y129187D01*
X457959Y130541D02*
X459211D01*
X466187Y166136D02*
X470124D01*
X468156Y164168D02*
Y168105D01*
X469140Y169704D02*
Y167120D01*
X470393Y169704D02*
Y167120D01*
X469140Y168474D02*
X470393D01*
X466187Y155231D02*
X470124D01*
X468156Y153262D02*
Y157199D01*
X469140Y158799D02*
Y156215D01*
X470393Y158799D02*
Y156215D01*
X469140Y157568D02*
X470393D01*
X466187Y144325D02*
X470124D01*
X468156Y142357D02*
Y146294D01*
X469140Y147893D02*
Y145309D01*
X470393Y147893D02*
Y145309D01*
X469140Y146663D02*
X470393D01*
X466187Y133420D02*
X470124D01*
X468156Y131451D02*
Y135388D01*
X469140Y136988D02*
Y134404D01*
X470393Y136988D02*
Y134404D01*
X469140Y135757D02*
X470393D01*
X231858Y1017990D02*
X235795D01*
X233827Y1016021D02*
Y1019958D01*
X234811Y1021557D02*
Y1018974D01*
X181858Y1017990D02*
X185795D01*
X183827Y1016021D02*
Y1019958D01*
X184811Y1021557D02*
Y1018974D01*
X134850Y1017990D02*
X138787D01*
X136819Y1016021D02*
Y1019958D01*
X137803Y1021557D02*
Y1018974D01*
X134850Y856021D02*
X138787D01*
X136819Y854052D02*
Y857990D01*
X137803Y859589D02*
Y857005D01*
X169850Y856021D02*
X173787D01*
X171819Y854052D02*
Y857990D01*
X172803Y859589D02*
Y857005D01*
X181858Y856021D02*
X185795D01*
X183827Y854052D02*
Y857990D01*
X184811Y859589D02*
Y857005D01*
X219850Y856021D02*
X223787D01*
X221819Y854052D02*
Y857990D01*
X222803Y859589D02*
Y857005D01*
X231858Y856021D02*
X235795D01*
X233827Y854052D02*
Y857990D01*
X234811Y859589D02*
Y857005D01*
X452714Y896073D02*
X456651D01*
X454682Y894104D02*
Y898041D01*
X455666Y899641D02*
Y897057D01*
Y899641D02*
X456293D01*
X456561Y899518*
X456740Y899272*
X456830Y899026*
X456919Y898657*
Y898041*
X456830Y897672*
X456740Y897426*
X456561Y897180*
X456293Y897057*
X455666*
X442714Y896073D02*
X446651D01*
X444682Y894104D02*
Y898041D01*
X445666Y899641D02*
Y897057D01*
Y899641D02*
X446293D01*
X446561Y899518*
X446740Y899272*
X446830Y899026*
X446919Y898657*
Y898041*
X446830Y897672*
X446740Y897426*
X446561Y897180*
X446293Y897057*
X445666*
X452714Y906073D02*
X456651D01*
X454682Y904104D02*
Y908041D01*
X455666Y909641D02*
Y907057D01*
Y909641D02*
X456293D01*
X456561Y909518*
X456740Y909272*
X456830Y909026*
X456919Y908657*
Y908041*
X456830Y907672*
X456740Y907426*
X456561Y907180*
X456293Y907057*
X455666*
X442714Y906073D02*
X446651D01*
X444682Y904104D02*
Y908041D01*
X445666Y909641D02*
Y907057D01*
Y909641D02*
X446293D01*
X446561Y909518*
X446740Y909272*
X446830Y909026*
X446919Y908657*
Y908041*
X446830Y907672*
X446740Y907426*
X446561Y907180*
X446293Y907057*
X445666*
X131007Y676265D02*
X134944D01*
X132975Y674297D02*
Y678234D01*
X134854Y679833D02*
Y677865D01*
X134854D02*
X134765Y677495D01*
X134675Y677372*
X134496Y677249*
X134317*
X134138Y677372*
X134049Y677495*
X133959Y677865*
X133959D02*
Y678111D01*
X131007Y643765D02*
X134944D01*
X132975Y641797D02*
Y645734D01*
X134854Y647333D02*
Y645365D01*
X134854D02*
X134765Y644995D01*
X134675Y644872*
X134496Y644749*
X134317*
X134138Y644872*
X134049Y644995*
X133959Y645365*
X133959D02*
Y645611D01*
X131189Y570202D02*
X135126D01*
X133157Y568234D02*
Y572171D01*
X134142Y573770D02*
Y571186D01*
Y573770D02*
X135305D01*
X134142Y572540D02*
X134858D01*
X131189Y550517D02*
X135126D01*
X133157Y548549D02*
Y552486D01*
X134142Y554085D02*
Y551501D01*
Y554085D02*
X135305D01*
X134142Y552855D02*
X134858D01*
X131193Y520327D02*
X135130D01*
X133161Y518358D02*
Y522295D01*
X134146Y523895D02*
Y521311D01*
Y523895D02*
X135309D01*
X134146Y522664D02*
X134861D01*
X131193Y500642D02*
X135130D01*
X133161Y498673D02*
Y502610D01*
X134146Y504210D02*
Y501626D01*
Y504210D02*
X135309D01*
X134146Y502979D02*
X134861D01*
X181276Y550531D02*
X185213D01*
X183244Y548563D02*
Y552500D01*
X184228Y554099D02*
Y551516D01*
Y554099D02*
X184855D01*
X185123Y553976*
X185302Y553730*
X185392Y553484*
X185481Y553115*
Y552500*
X185392Y552131*
X185302Y551885*
X185123Y551639*
X184855Y551516*
X184228*
X181276Y560531D02*
X185213D01*
X183244Y558563D02*
Y562500D01*
X184228Y564099D02*
Y561516D01*
Y564099D02*
X184855D01*
X185123Y563976*
X185302Y563730*
X185392Y563484*
X185481Y563115*
Y562500*
X185392Y562131*
X185302Y561885*
X185123Y561639*
X184855Y561516*
X184228*
X181276Y477776D02*
X185213D01*
X183244Y475807D02*
Y479744D01*
X184228Y481344D02*
Y478760D01*
Y481344D02*
X184855D01*
X185123Y481221*
X185302Y480975*
X185392Y480729*
X185481Y480360*
Y479744*
X185392Y479375*
X185302Y479129*
X185123Y478883*
X184855Y478760*
X184228*
X181276Y487776D02*
X185213D01*
X183244Y485807D02*
Y489744D01*
X184228Y491344D02*
Y488760D01*
Y491344D02*
X184855D01*
X185123Y491221*
X185302Y490975*
X185392Y490729*
X185481Y490360*
Y489744*
X185392Y489375*
X185302Y489129*
X185123Y488883*
X184855Y488760*
X184228*
X303766Y612328D02*
X307703D01*
X305735Y610360D02*
Y614297D01*
X306719Y615896D02*
Y613312D01*
Y615896D02*
X307346D01*
X307346D02*
X307614Y615773D01*
X307793Y615527*
X307882Y615281*
X307972Y614912*
Y614297*
X307882Y613927*
X307793Y613681*
X307614Y613435*
X307346Y613312*
X307346D02*
X306719D01*
X303766Y602328D02*
X307703D01*
X305735Y600360D02*
Y604297D01*
X306719Y605896D02*
Y603312D01*
Y605896D02*
X307346D01*
X307346D02*
X307614Y605773D01*
X307793Y605527*
X307882Y605281*
X307972Y604912*
Y604297*
X307882Y603927*
X307793Y603681*
X307614Y603435*
X307346Y603312*
X307346D02*
X306719D01*
X287031Y815621D02*
X290969D01*
X289000Y813652D02*
Y817589D01*
X291326Y818573D02*
X291237Y818820D01*
X291058Y819066*
X290879Y819189*
X290521*
X290342Y819066*
X290163Y818820*
X290074Y818573*
X289984Y818204*
Y817589*
X290074Y817220*
X290163Y816974*
X290342Y816728*
X290521Y816605*
X290879*
X291058Y816728*
X291237Y816974*
X291326Y817220*
X303780Y649921D02*
X307717D01*
X305748Y647953D02*
Y651890D01*
X306732Y653489D02*
Y650906D01*
X307985Y653489D02*
X306732Y651767D01*
X307180Y652382D02*
X307985Y650906D01*
X303780Y627874D02*
X307717D01*
X305748Y625906D02*
Y629843D01*
X306732Y631442D02*
Y628858D01*
X307985Y631442D02*
X306732Y629719D01*
X307180Y630335D02*
X307985Y628858D01*
X262415Y418227D02*
X266352Y422164D01*
X262415D02*
X266352Y418227D01*
X400210D02*
X404147Y422164D01*
X400210D02*
X404147Y418227D01*
X220844Y506903D02*
X224781D01*
X222812Y504934D02*
Y508871D01*
X225139Y509856D02*
X225049Y510102D01*
X224870Y510348*
X224691Y510471*
X224333*
X224154Y510348*
X224154D02*
X223976Y510102D01*
X223886Y509856*
X223797Y509487*
Y508871*
X223886Y508502*
X223976Y508256*
X224154Y508010*
X224154D02*
X224333Y507887D01*
X224691*
X224870Y508010*
X225049Y508256*
X225139Y508502*
X326421Y574619D02*
X330358D01*
X328390Y572651D02*
Y576588D01*
X330716Y577572D02*
X330627Y577818D01*
X330448Y578064*
X330269Y578187*
X329911*
X329732Y578064*
X329553Y577818*
X329463Y577572*
X329374Y577203*
Y576588*
X329463Y576219*
X329553Y575973*
X329732Y575727*
X329911Y575604*
X330269*
X330448Y575727*
X330627Y575973*
X330716Y576219*
X195118Y643858D02*
X199055D01*
X197087Y641890D02*
Y645827D01*
X199413Y646811D02*
X199324Y647057D01*
X199145Y647303*
X198966Y647426*
X198608*
X198429Y647303*
X198250Y647057*
X198160Y646811*
X198071Y646442*
Y645827*
X198160Y645458*
X198250Y645212*
X198429Y644966*
X198608Y644843*
X198966*
X199145Y644966*
X199324Y645212*
X199413Y645458*
X314773Y869514D02*
X318710D01*
X316741Y867546D02*
Y871483D01*
X319068Y872467D02*
X318978Y872713D01*
X318799Y872959*
X318620Y873082*
X318263*
X318084Y872959*
X317905Y872713*
X317815Y872467*
X317726Y872098*
Y871483*
X317815Y871114*
X317905Y870868*
X318084Y870622*
X318263Y870499*
X318620*
X318799Y870622*
X318978Y870868*
X319068Y871114*
X471071Y1182941D02*
X475008D01*
X473039Y1180972D02*
Y1184909D01*
X474024Y1186509D02*
Y1183925D01*
Y1186509D02*
X474829D01*
X475097Y1186386*
X475187Y1186263*
X475276Y1186017*
Y1185771*
X475187Y1185525*
X475097Y1185402*
X474829Y1185279*
X474024D02*
X474829D01*
X475097Y1185156*
X475187Y1185032*
X475276Y1184786*
Y1184417*
X475187Y1184171*
X475097Y1184048*
X474829Y1183925*
X474024*
X471071Y1173098D02*
X475008D01*
X473039Y1171130D02*
Y1175067D01*
X474024Y1176666D02*
Y1174083D01*
Y1176666D02*
X474829D01*
X475097Y1176543*
X475187Y1176420*
X475276Y1176174*
Y1175928*
X475187Y1175682*
X475097Y1175559*
X474829Y1175436*
X474024D02*
X474829D01*
X475097Y1175313*
X475187Y1175190*
X475276Y1174944*
Y1174575*
X475187Y1174329*
X475097Y1174206*
X474829Y1174083*
X474024*
X134142Y1176917D02*
X138079D01*
X136110Y1174949D02*
Y1178886D01*
X137094Y1180485D02*
Y1177902D01*
Y1180485D02*
X137900D01*
X138168Y1180362*
X138258Y1180239*
X138347Y1179993*
Y1179747*
X138258Y1179501*
X138168Y1179378*
X137900Y1179255*
X137094D02*
X137900D01*
X138168Y1179132*
X138258Y1179009*
X138347Y1178763*
Y1178394*
X138258Y1178148*
X138168Y1178025*
X137900Y1177902*
X137094*
X134142Y1167075D02*
X138079D01*
X136110Y1165106D02*
Y1169043D01*
X137094Y1170643D02*
Y1168059D01*
Y1170643D02*
X137900D01*
X138168Y1170520*
X138258Y1170397*
X138347Y1170151*
Y1169905*
X138258Y1169658*
X138168Y1169535*
X137900Y1169412*
X137094D02*
X137900D01*
X138168Y1169289*
X138258Y1169166*
X138347Y1168920*
Y1168551*
X138258Y1168305*
X138168Y1168182*
X137900Y1168059*
X137094*
X134142Y1157232D02*
X138079D01*
X136110Y1155264D02*
Y1159201D01*
X137094Y1160800D02*
Y1158217D01*
Y1160800D02*
X137900D01*
X138168Y1160677*
X138258Y1160554*
X138347Y1160308*
Y1160062*
X138258Y1159816*
X138168Y1159693*
X137900Y1159570*
X137094D02*
X137900D01*
X138168Y1159447*
X138258Y1159324*
X138347Y1159078*
Y1158709*
X138258Y1158463*
X138168Y1158340*
X137900Y1158217*
X137094*
X224016Y1142087D02*
X227953D01*
X225984Y1140118D02*
Y1144055D01*
X226969Y1145655D02*
Y1143071D01*
Y1145655D02*
X227595D01*
X227863Y1145531*
X228042Y1145285*
X228132Y1145039*
X228221Y1144670*
Y1144055*
X228132Y1143686*
X228042Y1143440*
X227863Y1143194*
X227595Y1143071*
X226969*
X224016Y1152087D02*
X227953D01*
X225984Y1150118D02*
Y1154055D01*
X226969Y1155655D02*
Y1153071D01*
Y1155655D02*
X227595D01*
X227863Y1155531*
X228042Y1155285*
X228132Y1155039*
X228221Y1154670*
Y1154055*
X228132Y1153686*
X228042Y1153440*
X227863Y1153194*
X227595Y1153071*
X226969*
X234016Y1142087D02*
X237953D01*
X235984Y1140118D02*
Y1144055D01*
X236969Y1145655D02*
Y1143071D01*
Y1145655D02*
X237595D01*
X237863Y1145531*
X238042Y1145285*
X238132Y1145039*
X238221Y1144670*
Y1144055*
X238132Y1143686*
X238042Y1143440*
X237863Y1143194*
X237595Y1143071*
X236969*
X234016Y1152087D02*
X237953D01*
X235984Y1150118D02*
Y1154055D01*
X236969Y1155655D02*
Y1153071D01*
Y1155655D02*
X237595D01*
X237863Y1155531*
X238042Y1155285*
X238132Y1155039*
X238221Y1154670*
Y1154055*
X238132Y1153686*
X238042Y1153440*
X237863Y1153194*
X237595Y1153071*
X236969*
X278071Y1207283D02*
X282008D01*
X280039Y1205315D02*
Y1209252D01*
X282366Y1210236D02*
X282276Y1210482D01*
X282097Y1210728*
X281918Y1210851*
X281560*
X281382Y1210728*
X281203Y1210482*
X281113Y1210236*
X281024Y1209867*
Y1209252*
X281113Y1208883*
X281203Y1208637*
X281382Y1208391*
X281560Y1208268*
X281918*
X282097Y1208391*
X282276Y1208637*
X282366Y1208883*
X262323Y1123819D02*
X266260D01*
X264291Y1121850D02*
Y1125787D01*
X266618Y1126772D02*
X266528Y1127018D01*
X266349Y1127264*
X266170Y1127387*
X265812*
X265634Y1127264*
X265634D02*
X265455Y1127018D01*
X265365Y1126772*
X265276Y1126403*
Y1125787*
X265365Y1125418*
X265455Y1125172*
X265634Y1124926*
X265634D02*
X265812Y1124803D01*
X266170*
X266349Y1124926*
X266528Y1125172*
X266618Y1125418*
X148050Y328789D02*
X151987D01*
X150018Y326820D02*
Y330757D01*
X151003Y332357D02*
Y329773D01*
Y332357D02*
X151629D01*
X151897Y332234*
X152076Y331988*
X152166Y331741*
X152255Y331372*
Y330757*
X152166Y330388*
X152076Y330142*
X151897Y329896*
X151629Y329773*
X151003*
X148050Y338789D02*
X151987D01*
X150018Y336820D02*
Y340757D01*
X151003Y342357D02*
Y339773D01*
Y342357D02*
X151629D01*
X151897Y342234*
X152076Y341988*
X152166Y341741*
X152255Y341372*
Y340757*
X152166Y340388*
X152076Y340142*
X151897Y339896*
X151629Y339773*
X151003*
X224510Y165067D02*
X228447D01*
X226479Y163098D02*
Y167035D01*
X227463Y168635D02*
Y166051D01*
X228537*
X382445Y147937D02*
X386382D01*
X384414Y145968D02*
Y149905D01*
X385398Y151505D02*
Y148921D01*
X386472*
X139861Y194812D02*
X143798D01*
X141829Y192844D02*
Y196781D01*
X142814Y198380D02*
Y195797D01*
X144066Y198380D02*
X142814Y196658D01*
X143261Y197273D02*
X144066Y195797D01*
X212735Y191072D02*
X216672D01*
X214703Y189104D02*
Y193041D01*
X215688Y194640D02*
Y192056D01*
X216940Y194640D02*
X215688Y192918D01*
X216135Y193533D02*
X216940Y192056D01*
X233837Y195442D02*
X237774D01*
X235806Y193474D02*
Y197411D01*
X236790Y199010D02*
Y196427D01*
X237864*
X231199Y177293D02*
X235136D01*
X233168Y175324D02*
Y179261D01*
X234152Y180861D02*
Y178277D01*
X235405Y180861D02*
X234152Y179138D01*
X234600Y179753D02*
X235405Y178277D01*
X216317Y184401D02*
X220254D01*
X218286Y182432D02*
Y186369D01*
X219270Y187969D02*
Y185385D01*
X220344*
X380451Y193474D02*
X384388D01*
X382420Y191505D02*
Y195442D01*
X383404Y197042D02*
Y194458D01*
X384478*
X419310Y185718D02*
X423247D01*
X421278Y183749D02*
Y187686D01*
X422262Y189286D02*
Y186702D01*
X423336*
X139885Y221563D02*
X143822D01*
X141853Y219594D02*
Y223531D01*
X142838Y225131D02*
Y222547D01*
X144090Y225131D02*
X142838Y223408D01*
X143285Y224024D02*
X144090Y222547D01*
X185001Y246230D02*
X188938D01*
X186969Y244261D02*
Y248198D01*
X187953Y249798D02*
Y247214D01*
X189206Y249798D02*
X187953Y248075D01*
X188401Y248690D02*
X189206Y247214D01*
X220274Y218579D02*
X224211D01*
X222243Y216610D02*
Y220547D01*
X223227Y222147D02*
Y219563D01*
X224480Y222147D02*
X223227Y220424D01*
X223675Y221039D02*
X224480Y219563D01*
X241751Y216860D02*
X245688D01*
X243719Y214891D02*
Y218828D01*
X244703Y220427D02*
Y217844D01*
X245777*
X311959Y243936D02*
X315896D01*
X313928Y241967D02*
Y245904D01*
X314912Y247504D02*
Y244920D01*
X315986*
X417617Y245600D02*
X421554D01*
X419585Y243631D02*
Y247568D01*
X420570Y249168D02*
Y246584D01*
X421643*
X165963Y266230D02*
X169900D01*
X167932Y264261D02*
Y268198D01*
X168916Y269798D02*
Y267214D01*
X169990*
X166672Y277726D02*
X170609D01*
X168640Y275757D02*
Y279694D01*
X169625Y281294D02*
Y278710D01*
X170877Y281294D02*
X169625Y279571D01*
X170072Y280186D02*
X170877Y278710D01*
X198444Y251466D02*
X202381D01*
X200412Y249497D02*
Y253434D01*
X201396Y255034D02*
Y252450D01*
X202470*
X175609Y278552D02*
X179546D01*
X177577Y276584D02*
Y280521D01*
X178562Y282120D02*
Y279537D01*
X179635*
X206908Y263671D02*
X210845D01*
X208877Y261702D02*
Y265639D01*
X209861Y267239D02*
Y264655D01*
X210935*
X385852Y277821D02*
X389789D01*
X387821Y275852D02*
Y279789D01*
X388805Y281389D02*
Y278805D01*
X389879*
X170530Y312332D02*
X174467D01*
X172499Y310364D02*
Y314301D01*
X173483Y315900D02*
Y313316D01*
X174736Y315900D02*
X173483Y314177D01*
X173930Y314793D02*
X174736Y313316D01*
X341665Y442899D02*
X345603D01*
X343634Y440930D02*
Y444868D01*
X344618Y446467D02*
Y443883D01*
X345871Y446467D02*
X344618Y444744D01*
X345066Y445360D02*
X345871Y443883D01*
X396326Y477199D02*
X400264D01*
X398295Y475230D02*
Y479168D01*
X399279Y480767D02*
Y478183D01*
X400532Y480767D02*
X399279Y479044D01*
X399727Y479660D02*
X400532Y478183D01*
X282379Y532480D02*
X286317D01*
X284348Y530511D02*
Y534449D01*
X285332Y536048D02*
Y533464D01*
X286585Y536048D02*
X285332Y534325D01*
X285780Y534941D02*
X286585Y533464D01*
X278702Y552111D02*
X282639D01*
X280671Y550142D02*
Y554079D01*
X281655Y555679D02*
Y553095D01*
X282908Y555679D02*
X281655Y553956D01*
X282102Y554572D02*
X282908Y553095D01*
X352625Y548811D02*
X356563D01*
X354594Y546842D02*
Y550780D01*
X355578Y552379D02*
Y549795D01*
X356831Y552379D02*
X355578Y550656D01*
X356026Y551272D02*
X356831Y549795D01*
X255749Y601589D02*
X259687D01*
X257718Y599620D02*
Y603558D01*
X258702Y605157D02*
Y602573D01*
X259955Y605157D02*
X258702Y603434D01*
X259150Y604050D02*
X259955Y602573D01*
X427185Y620138D02*
X431123D01*
X429154Y618169D02*
Y622107D01*
X430138Y623706D02*
Y621122D01*
X431391Y623706D02*
X430138Y621983D01*
X430586Y622599D02*
X431391Y621122D01*
X478622Y652126D02*
X482559D01*
X480591Y650157D02*
Y654094D01*
X481575Y655694D02*
Y653110D01*
X482649*
X351381Y868836D02*
X355318D01*
X353349Y866867D02*
Y870804D01*
X354333Y872404D02*
Y869820D01*
X355586Y872404D02*
X354333Y870681D01*
X354781Y871297D02*
X355586Y869820D01*
X351381Y922980D02*
X355318D01*
X353349Y921011D02*
Y924948D01*
X354333Y926548D02*
Y923964D01*
X355586Y926548D02*
X354333Y924825D01*
X354781Y925441D02*
X355586Y923964D01*
X425762Y899380D02*
X429699D01*
X427730Y897411D02*
Y901348D01*
X428714Y902948D02*
Y900364D01*
X429967Y902948D02*
X428714Y901225D01*
X429162Y901841D02*
X429967Y900364D01*
X426234Y961373D02*
X430171D01*
X428202Y959404D02*
Y963341D01*
X429186Y964941D02*
Y962357D01*
X430439Y964941D02*
X429186Y963218D01*
X429634Y963834D02*
X430439Y962357D01*
X314786Y1007491D02*
X318723D01*
X316755Y1005522D02*
Y1009459D01*
X317739Y1011059D02*
Y1008475D01*
X318813*
X420852Y1029202D02*
X424789D01*
X422820Y1027233D02*
Y1031170D01*
X423804Y1032770D02*
Y1030186D01*
X425057Y1032770D02*
X423804Y1031047D01*
X424252Y1031663D02*
X425057Y1030186D01*
X391142Y1075079D02*
X395079D01*
X393110Y1073110D02*
Y1077047D01*
X394094Y1078647D02*
Y1076063D01*
X395347Y1078647D02*
X394094Y1076924D01*
X394542Y1077539D02*
X395347Y1076063D01*
X248150Y1108071D02*
X252087D01*
X250118Y1106102D02*
Y1110039D01*
X251102Y1111639D02*
Y1109055D01*
X252355Y1111639D02*
X251102Y1109916D01*
X251550Y1110531D02*
X252355Y1109055D01*
X329528Y1158858D02*
X333465D01*
X331496Y1156890D02*
Y1160827D01*
X332480Y1162426D02*
Y1159843D01*
X333554*
X351693Y1148031D02*
X355630D01*
X353661Y1146063D02*
Y1150000D01*
X354646Y1151599D02*
Y1149016D01*
X355719*
X360906Y1167323D02*
X364843D01*
X362874Y1165354D02*
Y1169291D01*
X363858Y1170891D02*
Y1168307D01*
X364932*
X238031Y1207441D02*
X241969D01*
X240000Y1205472D02*
Y1209409D01*
X240984Y1211009D02*
Y1208425D01*
X242237Y1211009D02*
X240984Y1209286D01*
X241432Y1209902D02*
X242237Y1208425D01*
X366417Y1177717D02*
X370354D01*
X368386Y1175748D02*
Y1179685D01*
X369370Y1181284D02*
Y1178701D01*
X370623Y1181284D02*
X369370Y1179562D01*
X369817Y1180177D02*
X370623Y1178701D01*
X111575Y198671D02*
X111396Y198917D01*
X111127Y199040*
X110770*
X110501Y198917*
X110322Y198671*
Y198425*
X110412Y198179*
X110501Y198056*
X110680Y197933*
X111217Y197687*
X111396Y197564*
X111485Y197441*
X111575Y197195*
Y196826*
X111396Y196580*
X111127Y196457*
X110770*
X110501Y196580*
X110322Y196826*
X112380Y199040D02*
Y196457D01*
X114438Y199040D02*
X113185Y196457D01*
Y199040D02*
X114438D01*
X113185Y196457D02*
X114438D01*
X115243Y199040D02*
Y196457D01*
Y199040D02*
X116407D01*
X115243Y197810D02*
X115959D01*
X115243Y196457D02*
X116407D01*
X130723Y199040D02*
X130544Y198917D01*
X130365Y198671*
X130276Y198425*
X130186Y198056*
Y197441*
X130276Y197072*
X130365Y196826*
X130544Y196580*
X130723Y196457*
X131081*
X131260Y196580*
X131439Y196826*
X131528Y197072*
X131618Y197441*
Y198056*
X131528Y198425*
X131439Y198671*
X131260Y198917*
X131081Y199040*
X130723*
X130991Y196949D02*
X131528Y196211D01*
X133049Y199040D02*
Y196457D01*
X132423Y199040D02*
X133676D01*
X134481D02*
X135197Y197810D01*
Y196457*
X135913Y199040D02*
X135197Y197810D01*
X143250Y198671D02*
X143071Y198917D01*
X142802Y199040*
X142445*
X142176Y198917*
X141997Y198671*
Y198425*
X142087Y198179*
X142176Y198056*
X142355Y197933*
X142892Y197687*
X143071Y197564*
X143160Y197441*
X143250Y197195*
Y196826*
X143071Y196580*
X142802Y196457*
X142445*
X142176Y196580*
X141997Y196826*
X144055Y199040D02*
X144771Y197810D01*
Y196457*
X145487Y199040D02*
X144771Y197810D01*
X146292Y199040D02*
Y196457D01*
Y199040D02*
X147008Y196457D01*
X147724Y199040D02*
X147008Y196457D01*
X147724Y199040D02*
Y196457D01*
X154882Y199040D02*
Y196457D01*
Y199040D02*
X155687D01*
X155956Y198917*
X156045Y198794*
X156135Y198548*
Y198179*
X156045Y197933*
X155956Y197810*
X155687Y197687*
X154882*
X156940Y199040D02*
Y196457D01*
X158014*
X159535Y199040D02*
X158819Y196457D01*
X159535Y199040D02*
X160251Y196457D01*
X159087Y197318D02*
X159982D01*
X161682Y199040D02*
Y196457D01*
X161056Y199040D02*
X162309D01*
X163114D02*
Y196457D01*
Y199040D02*
X164277D01*
X163114Y197810D02*
X163830D01*
X163114Y196457D02*
X164277D01*
X165082Y199040D02*
Y196457D01*
Y199040D02*
X165709D01*
X165977Y198917*
X166156Y198671*
X166246Y198425*
X166335Y198056*
Y197441*
X166246Y197072*
X166156Y196826*
X165977Y196580*
X165709Y196457*
X165082*
X174298Y199040D02*
Y196457D01*
X173672Y199040D02*
X174925D01*
X176267D02*
X176088Y198917D01*
X175909Y198671*
X175820Y198425*
X175730Y198056*
Y197441*
X175820Y197072*
X175909Y196826*
X176088Y196580*
X176267Y196457*
X176625*
X176804Y196580*
X176983Y196826*
X177072Y197072*
X177162Y197441*
Y198056*
X177072Y198425*
X176983Y198671*
X176804Y198917*
X176625Y199040*
X176267*
X177967D02*
Y196457D01*
X179041*
X101969Y190674D02*
X102147Y190797D01*
X102416Y191166*
Y188583*
X133273Y191166D02*
X132378Y189444D01*
X133720*
X133273Y191166D02*
Y188583D01*
X143307D02*
X147244Y192520D01*
X143307D02*
X147244Y188583D01*
X153942Y191166D02*
X154658Y189936D01*
Y188583*
X155374Y191166D02*
X154658Y189936D01*
X156179Y191166D02*
Y188583D01*
Y191166D02*
X157343D01*
X156179Y189936D02*
X156895D01*
X156179Y188583D02*
X157343D01*
X159401Y190797D02*
X159222Y191043D01*
X158953Y191166*
X158595*
X158327Y191043*
X158148Y190797*
Y190551*
X158237Y190305*
X158327Y190182*
X158506Y190059*
X159043Y189813*
X159222Y189690*
X159311Y189567*
X159401Y189321*
X159401D02*
Y188952D01*
X159401D02*
X159222Y188706D01*
X158953Y188583*
X158595*
X158327Y188706*
X158148Y188952*
X171390Y190797D02*
Y188583D01*
X170585Y189690D02*
X172196D01*
X174612Y191658D02*
X173001Y187721D01*
X175417Y189690D02*
X177028D01*
X178370Y191166D02*
X178101Y191043D01*
X177922Y190674*
X177833Y190059*
Y189690*
X177922Y189075*
X178101Y188706*
X178370Y188583*
X178549*
X178817Y188706*
X178996Y189075*
X179086Y189690*
Y190059*
X178996Y190674*
X178817Y191043*
X178549Y191166*
X178370*
X179980Y188829D02*
X179891Y188706D01*
X179980Y188583*
X180070Y188706*
X179980Y188829*
X181412Y191166D02*
X181144Y191043D01*
X180965Y190674*
X180875Y190059*
Y189690*
X180965Y189075*
X181144Y188706*
X181412Y188583*
X181591*
X181859Y188706*
X182038Y189075*
X182128Y189690*
Y190059*
X182038Y190674*
X181859Y191043*
X181591Y191166*
X181412*
X102505Y183292D02*
X102237Y183169D01*
X102058Y182800*
X101969Y182185*
Y181816*
X102058Y181201*
X102237Y180832*
X102505Y180709*
X102684*
X102953Y180832*
X103132Y181201*
X103221Y181816*
Y182185*
X103132Y182800*
X102953Y183169*
X102684Y183292*
X102505*
X104116Y180955D02*
X104026Y180832D01*
X104116Y180709*
X104205Y180832*
X104116Y180955*
X105906Y183292D02*
X105011Y181570D01*
X106353*
X105906Y183292D02*
Y180709D01*
X108321Y183292D02*
X107427D01*
X107337Y182185*
X107427Y182308*
X107695Y182431*
X107963*
X108232Y182308*
X108411Y182062*
X108500Y181693*
X108411Y181447*
X108321Y181078*
X108142Y180832*
X107874Y180709*
X107606*
X107337Y180832*
X107248Y180955*
X107158Y181201*
X131841Y182800D02*
X132020Y182923D01*
X132289Y183292*
Y180709*
X134168Y182923D02*
X134078Y183169D01*
X133810Y183292*
X133631*
X133363Y183169*
X133184Y182800*
X133094Y182185*
Y181570*
X133184Y181078*
X133363Y180832*
X133631Y180709*
X133720*
X133989Y180832*
X134168Y181078*
X134257Y181447*
Y181570*
X134168Y181939*
X133989Y182185*
X133720Y182308*
X133631*
X133363Y182185*
X133184Y181939*
X133094Y181570*
X143307Y182677D02*
X147244D01*
X145276Y180709D02*
Y184646D01*
X146260Y185728D02*
Y183661D01*
Y185728D02*
X146904D01*
X147119Y185630*
X147190Y185531*
X147262Y185335*
Y185138*
X147190Y184941*
X147119Y184843*
X146904Y184744*
X146260D02*
X146904D01*
X147119Y184646*
X147190Y184547*
X147262Y184350*
Y184055*
X147190Y183858*
X147119Y183760*
X146904Y183661*
X146260*
X153942Y183292D02*
X154658Y182062D01*
Y180709*
X155374Y183292D02*
X154658Y182062D01*
X156179Y183292D02*
Y180709D01*
Y183292D02*
X157343D01*
X156179Y182062D02*
X156895D01*
X156179Y180709D02*
X157343D01*
X159401Y182923D02*
X159222Y183169D01*
X158953Y183292*
X158595*
X158327Y183169*
X158148Y182923*
Y182677*
X158237Y182431*
X158327Y182308*
X158506Y182185*
X159043Y181939*
X159222Y181816*
X159311Y181693*
X159401Y181447*
X159401D02*
Y181078D01*
X159401D02*
X159222Y180832D01*
X158953Y180709*
X158595*
X158327Y180832*
X158148Y181078*
X171390Y182923D02*
Y180709D01*
X170585Y181816D02*
X172196D01*
X174612Y183784D02*
X173001Y179847D01*
X175417Y181816D02*
X177028D01*
X178370Y183292D02*
X178101Y183169D01*
X177922Y182800*
X177833Y182185*
Y181816*
X177922Y181201*
X178101Y180832*
X178370Y180709*
X178549*
X178817Y180832*
X178996Y181201*
X179086Y181816*
Y182185*
X178996Y182800*
X178817Y183169*
X178549Y183292*
X178370*
X179980Y180955D02*
X179891Y180832D01*
X179980Y180709*
X180070Y180832*
X179980Y180955*
X181412Y183292D02*
X181144Y183169D01*
X180965Y182800*
X180875Y182185*
Y181816*
X180965Y181201*
X181144Y180832*
X181412Y180709*
X181591*
X181859Y180832*
X182038Y181201*
X182128Y181816*
Y182185*
X182038Y182800*
X181859Y183169*
X181591Y183292*
X181412*
X102505Y175418D02*
X102237Y175295D01*
X102058Y174926*
X101969Y174311*
Y173942*
X102058Y173327*
X102237Y172958*
X102505Y172835*
X102684*
X102953Y172958*
X103132Y173327*
X103221Y173942*
Y174311*
X103132Y174926*
X102953Y175295*
X102684Y175418*
X102505*
X104116Y173081D02*
X104026Y172958D01*
X104116Y172835*
X104205Y172958*
X104116Y173081*
X105458Y175418D02*
X105190Y175295D01*
X105100Y175049*
Y174803*
X105190Y174557*
X105369Y174434*
X105727Y174311*
X105995Y174188*
X106174Y173942*
X106263Y173696*
Y173327*
X106174Y173081*
X106084Y172958*
X105816Y172835*
X105458*
X105190Y172958*
X105100Y173081*
X105011Y173327*
Y173696*
X105100Y173942*
X105279Y174188*
X105548Y174311*
X105906Y174434*
X106084Y174557*
X106174Y174803*
Y175049*
X106084Y175295*
X105816Y175418*
X105458*
X107516D02*
X107248Y175295D01*
X107158Y175049*
Y174803*
X107248Y174557*
X107427Y174434*
X107785Y174311*
X108053Y174188*
X108232Y173942*
X108321Y173696*
Y173327*
X108232Y173081*
X108142Y172958*
X107874Y172835*
X107516*
X107248Y172958*
X107158Y173081*
X107069Y173327*
Y173696*
X107158Y173942*
X107337Y174188*
X107606Y174311*
X107963Y174434*
X108142Y174557*
X108232Y174803*
Y175049*
X108142Y175295*
X107874Y175418*
X107516*
X110290Y174557D02*
X110200Y174188D01*
X110021Y173942*
X109753Y173819*
X109664*
X109395Y173942*
X109216Y174188*
X109127Y174557*
Y174680*
X109216Y175049*
X109395Y175295*
X109664Y175418*
X109753*
X110021Y175295*
X110200Y175049*
X110290Y174557*
Y173942*
X110200Y173327*
X110021Y172958*
X109753Y172835*
X109574*
X109306Y172958*
X109216Y173204*
X131797Y174926D02*
X131976Y175049D01*
X132244Y175418*
Y172835*
X133139Y174803D02*
Y174926D01*
X133228Y175172*
X133318Y175295*
X133497Y175418*
X133855*
X134034Y175295*
X134123Y175172*
X134213Y174926*
Y174680*
X134123Y174434*
X133944Y174065*
X133049Y172835*
X134302*
X143307Y174803D02*
X147244D01*
X145276Y172835D02*
Y176772D01*
X147334Y177362D02*
X147262Y177559D01*
X147119Y177756*
X146976Y177854*
X146689*
X146546Y177756*
X146403Y177559*
X146331Y177362*
X146260Y177067*
Y176575*
X146331Y176280*
X146403Y176083*
X146546Y175886*
X146689Y175787*
X146976*
X147119Y175886*
X147262Y176083*
X147334Y176280*
X153942Y175418D02*
X154658Y174188D01*
Y172835*
X155374Y175418D02*
X154658Y174188D01*
X156179Y175418D02*
Y172835D01*
Y175418D02*
X157343D01*
X156179Y174188D02*
X156895D01*
X156179Y172835D02*
X157343D01*
X159401Y175049D02*
X159222Y175295D01*
X158953Y175418*
X158595*
X158327Y175295*
X158148Y175049*
Y174803*
X158237Y174557*
X158327Y174434*
X158506Y174311*
X159043Y174065*
X159222Y173942*
X159311Y173819*
X159401Y173573*
X159401D02*
Y173204D01*
X159401D02*
X159222Y172958D01*
X158953Y172835*
X158595*
X158327Y172958*
X158148Y173204*
X171390Y175049D02*
Y172835D01*
X170585Y173942D02*
X172196D01*
X174612Y175910D02*
X173001Y171973D01*
X175417Y173942D02*
X177028D01*
X178370Y175418D02*
X178101Y175295D01*
X177922Y174926*
X177833Y174311*
Y173942*
X177922Y173327*
X178101Y172958*
X178370Y172835*
X178549*
X178817Y172958*
X178996Y173327*
X179086Y173942*
Y174311*
X178996Y174926*
X178817Y175295*
X178549Y175418*
X178370*
X179980Y173081D02*
X179891Y172958D01*
X179980Y172835*
X180070Y172958*
X179980Y173081*
X181412Y175418D02*
X181144Y175295D01*
X180965Y174926*
X180875Y174311*
Y173942*
X180965Y173327*
X181144Y172958*
X181412Y172835*
X181591*
X181859Y172958*
X182038Y173327*
X182128Y173942*
Y174311*
X182038Y174926*
X181859Y175295*
X181591Y175418*
X181412*
X102505Y167544D02*
X102237Y167421D01*
X102058Y167052*
X101969Y166437*
Y166068*
X102058Y165453*
X102237Y165084*
X102505Y164961*
X102684*
X102953Y165084*
X103132Y165453*
X103221Y166068*
Y166437*
X103132Y167052*
X102953Y167421*
X102684Y167544*
X102505*
X104116Y165207D02*
X104026Y165084D01*
X104116Y164961*
X104205Y165084*
X104116Y165207*
X106174Y166683D02*
X106084Y166314D01*
X105906Y166068*
X105637Y165945*
X105548*
X105279Y166068*
X105100Y166314*
X105011Y166683*
Y166806*
X105100Y167175*
X105279Y167421*
X105548Y167544*
X105637*
X105906Y167421*
X106084Y167175*
X106174Y166683*
Y166068*
X106084Y165453*
X105906Y165084*
X105637Y164961*
X105458*
X105190Y165084*
X105100Y165330*
X107158Y167544D02*
X108142D01*
X107606Y166560*
X107874*
X108053Y166437*
X108142Y166314*
X108232Y165945*
Y165699*
X108142Y165330*
X107963Y165084*
X107695Y164961*
X107427*
X107158Y165084*
X107069Y165207*
X106979Y165453*
X110200Y166683D02*
X110111Y166314D01*
X109932Y166068*
X109664Y165945*
X109574*
X109306Y166068*
X109127Y166314*
X109037Y166683*
Y166806*
X109127Y167175*
X109306Y167421*
X109574Y167544*
X109664*
X109932Y167421*
X110111Y167175*
X110200Y166683*
Y166068*
X110111Y165453*
X109932Y165084*
X109664Y164961*
X109485*
X109216Y165084*
X109127Y165330*
X111453Y167544D02*
X111185Y167421D01*
X111095Y167175*
Y166929*
X111185Y166683*
X111364Y166560*
X111722Y166437*
X111990Y166314*
X112169Y166068*
X112258Y165822*
Y165453*
X112169Y165207*
X112079Y165084*
X111811Y164961*
X111453*
X111185Y165084*
X111095Y165207*
X111006Y165453*
Y165822*
X111095Y166068*
X111274Y166314*
X111543Y166437*
X111901Y166560*
X111901D02*
X112079Y166683D01*
X112169Y166929*
Y167175*
X112079Y167421*
X111811Y167544*
X111453*
X131484Y166929D02*
Y167052D01*
X131573Y167298*
X131662Y167421*
X131841Y167544*
X132199*
X132378Y167421*
X132468Y167298*
X132557Y167052*
Y166806*
X132468Y166560*
X132289Y166191*
X131394Y164961*
X132647*
X133989Y167544D02*
X133720Y167421D01*
X133542Y167052*
X133452Y166437*
Y166068*
X133542Y165453*
X133720Y165084*
X133989Y164961*
X134168*
X134436Y165084*
X134615Y165453*
X134705Y166068*
Y166437*
X134615Y167052*
X134436Y167421*
X134168Y167544*
X133989*
X143307Y166929D02*
X147244D01*
X145276Y164961D02*
Y168898D01*
X146260Y169980D02*
Y167913D01*
Y169980D02*
X146761D01*
X146976Y169882*
X147119Y169685*
X147190Y169488*
X147262Y169193*
Y168701*
X147190Y168406*
X147119Y168209*
X146976Y168012*
X146761Y167913*
X146260*
X153942Y167544D02*
X154658Y166314D01*
Y164961*
X155374Y167544D02*
X154658Y166314D01*
X156179Y167544D02*
Y164961D01*
Y167544D02*
X157343D01*
X156179Y166314D02*
X156895D01*
X156179Y164961D02*
X157343D01*
X159401Y167175D02*
X159222Y167421D01*
X158953Y167544*
X158595*
X158327Y167421*
X158148Y167175*
Y166929*
X158237Y166683*
X158327Y166560*
X158506Y166437*
X159043Y166191*
X159222Y166068*
X159311Y165945*
X159401Y165699*
X159401D02*
Y165330D01*
X159401D02*
X159222Y165084D01*
X158953Y164961*
X158595*
X158327Y165084*
X158148Y165330*
X171390Y167175D02*
Y164961D01*
X170585Y166068D02*
X172196D01*
X174612Y168036D02*
X173001Y164099D01*
X175417Y166068D02*
X177028D01*
X178370Y167544D02*
X178101Y167421D01*
X177922Y167052*
X177833Y166437*
Y166068*
X177922Y165453*
X178101Y165084*
X178370Y164961*
X178549*
X178817Y165084*
X178996Y165453*
X179086Y166068*
Y166437*
X178996Y167052*
X178817Y167421*
X178549Y167544*
X178370*
X179980Y165207D02*
X179891Y165084D01*
X179980Y164961*
X180070Y165084*
X179980Y165207*
X181412Y167544D02*
X181144Y167421D01*
X180965Y167052*
X180875Y166437*
Y166068*
X180965Y165453*
X181144Y165084*
X181412Y164961*
X181591*
X181859Y165084*
X182038Y165453*
X182128Y166068*
Y166437*
X182038Y167052*
X181859Y167421*
X181591Y167544*
X181412*
X102505Y159670D02*
X102237Y159547D01*
X102058Y159178*
X101969Y158563*
Y158194*
X102058Y157579*
X102237Y157210*
X102505Y157087*
X102684*
X102953Y157210*
X103132Y157579*
X103221Y158194*
Y158563*
X103132Y159178*
X102953Y159547*
X102684Y159670*
X102505*
X104116Y157333D02*
X104026Y157210D01*
X104116Y157087*
X104205Y157210*
X104116Y157333*
X106084Y159301D02*
X105995Y159547D01*
X105727Y159670*
X105548*
X105279Y159547*
X105100Y159178*
X105011Y158563*
Y157948*
X105100Y157456*
X105279Y157210*
X105548Y157087*
X105637*
X105906Y157210*
X106084Y157456*
X106174Y157825*
Y157948*
X106084Y158317*
X105906Y158563*
X105637Y158686*
X105548*
X105279Y158563*
X105100Y158317*
X105011Y157948*
X132602Y159670D02*
X133586D01*
X133049Y158686*
X133318*
X133497Y158563*
X133586Y158440*
X133676Y158071*
Y157825*
X133586Y157456*
X133407Y157210*
X133139Y157087*
X132870*
X132602Y157210*
X132513Y157333*
X132423Y157579*
X143307Y159055D02*
X147244D01*
X145276Y157087D02*
Y161024D01*
X146260Y162106D02*
Y160039D01*
Y162106D02*
X147190D01*
X146260Y161122D02*
X146832D01*
X146260Y160039D02*
X147190D01*
X153942Y159670D02*
X154658Y158440D01*
Y157087*
X155374Y159670D02*
X154658Y158440D01*
X156179Y159670D02*
Y157087D01*
Y159670D02*
X157343D01*
X156179Y158440D02*
X156895D01*
X156179Y157087D02*
X157343D01*
X159401Y159301D02*
X159222Y159547D01*
X158953Y159670*
X158595*
X158327Y159547*
X158148Y159301*
Y159055*
X158237Y158809*
X158327Y158686*
X158506Y158563*
X159043Y158317*
X159222Y158194*
X159311Y158071*
X159401Y157825*
X159401D02*
Y157456D01*
X159401D02*
X159222Y157210D01*
X158953Y157087*
X158595*
X158327Y157210*
X158148Y157456*
X171390Y159301D02*
Y157087D01*
X170585Y158194D02*
X172196D01*
X174612Y160162D02*
X173001Y156225D01*
X175417Y158194D02*
X177028D01*
X178370Y159670D02*
X178101Y159547D01*
X177922Y159178*
X177833Y158563*
Y158194*
X177922Y157579*
X178101Y157210*
X178370Y157087*
X178549*
X178817Y157210*
X178996Y157579*
X179086Y158194*
Y158563*
X178996Y159178*
X178817Y159547*
X178549Y159670*
X178370*
X179980Y157333D02*
X179891Y157210D01*
X179980Y157087*
X180070Y157210*
X179980Y157333*
X181412Y159670D02*
X181144Y159547D01*
X180965Y159178*
X180875Y158563*
Y158194*
X180965Y157579*
X181144Y157210*
X181412Y157087*
X181591*
X181859Y157210*
X182038Y157579*
X182128Y158194*
Y158563*
X182038Y159178*
X181859Y159547*
X181591Y159670*
X181412*
X102505Y151796D02*
X102237Y151673D01*
X102058Y151304*
X101969Y150689*
Y150320*
X102058Y149705*
X102237Y149336*
X102505Y149213*
X102684*
X102953Y149336*
X103132Y149705*
X103221Y150320*
Y150689*
X103132Y151304*
X102953Y151673*
X102684Y151796*
X102505*
X104116Y149459D02*
X104026Y149336D01*
X104116Y149213*
X104205Y149336*
X104116Y149459*
X106084Y151427D02*
X105995Y151673D01*
X105727Y151796*
X105548*
X105279Y151673*
X105100Y151304*
X105011Y150689*
Y150074*
X105100Y149582*
X105279Y149336*
X105548Y149213*
X105637*
X105906Y149336*
X106084Y149582*
X106174Y149951*
Y150074*
X106084Y150443*
X105906Y150689*
X105637Y150812*
X105548*
X105279Y150689*
X105100Y150443*
X105011Y150074*
X108142Y151796D02*
X107248D01*
X107158Y150689*
X107248Y150812*
X107516Y150935*
X107785*
X108053Y150812*
X108232Y150566*
X108321Y150197*
X108232Y149951*
X108142Y149582*
X107963Y149336*
X107695Y149213*
X107427*
X107158Y149336*
X107069Y149459*
X106979Y149705*
X133542Y151427D02*
X133452Y151673D01*
X133184Y151796*
X133005*
X132736Y151673*
X132557Y151304*
X132468Y150689*
Y150074*
X132557Y149582*
X132736Y149336*
X133005Y149213*
X133094*
X133363Y149336*
X133542Y149582*
X133631Y149951*
Y150074*
X133542Y150443*
X133363Y150689*
X133094Y150812*
X133005*
X132736Y150689*
X132557Y150443*
X132468Y150074*
X143307Y151181D02*
X147244D01*
X145276Y149213D02*
Y153150D01*
X146260Y154232D02*
Y152165D01*
Y154232D02*
X147190D01*
X146260Y153248D02*
X146832D01*
X153942Y151796D02*
X154658Y150566D01*
Y149213*
X155374Y151796D02*
X154658Y150566D01*
X156179Y151796D02*
Y149213D01*
Y151796D02*
X157343D01*
X156179Y150566D02*
X156895D01*
X156179Y149213D02*
X157343D01*
X159401Y151427D02*
X159222Y151673D01*
X158953Y151796*
X158595*
X158327Y151673*
X158148Y151427*
Y151181*
X158237Y150935*
X158327Y150812*
X158506Y150689*
X159043Y150443*
X159222Y150320*
X159311Y150197*
X159401Y149951*
X159401D02*
Y149582D01*
X159401D02*
X159222Y149336D01*
X158953Y149213*
X158595*
X158327Y149336*
X158148Y149582*
X171390Y151427D02*
Y149213D01*
X170585Y150320D02*
X172196D01*
X174612Y152288D02*
X173001Y148351D01*
X175417Y150320D02*
X177028D01*
X178370Y151796D02*
X178101Y151673D01*
X177922Y151304*
X177833Y150689*
Y150320*
X177922Y149705*
X178101Y149336*
X178370Y149213*
X178549*
X178817Y149336*
X178996Y149705*
X179086Y150320*
Y150689*
X178996Y151304*
X178817Y151673*
X178549Y151796*
X178370*
X179980Y149459D02*
X179891Y149336D01*
X179980Y149213*
X180070Y149336*
X179980Y149459*
X181412Y151796D02*
X181144Y151673D01*
X180965Y151304*
X180875Y150689*
Y150320*
X180965Y149705*
X181144Y149336*
X181412Y149213*
X181591*
X181859Y149336*
X182038Y149705*
X182128Y150320*
Y150689*
X182038Y151304*
X181859Y151673*
X181591Y151796*
X181412*
X101969Y143430D02*
X102147Y143553D01*
X102416Y143922*
Y141339*
X103311Y141585D02*
X103221Y141462D01*
X103311Y141339*
X103400Y141462*
X103311Y141585*
X104384Y143922D02*
X105369D01*
X104832Y142938*
X105100*
X105279Y142815*
X105369Y142692*
X105458Y142323*
Y142077*
X105369Y141708*
X105190Y141462*
X104921Y141339*
X104653*
X104384Y141462*
X104295Y141585*
X104205Y141831*
X107516Y143922D02*
X106621Y141339D01*
X106263Y143922D02*
X107516D01*
X108321Y143430D02*
X108500Y143553D01*
X108769Y143922*
Y141339*
X110648Y143553D02*
X110558Y143799D01*
X110290Y143922*
X110111*
X109843Y143799*
X109664Y143430*
X109574Y142815*
Y142200*
X109664Y141708*
X109843Y141462*
X110111Y141339*
X110200*
X110469Y141462*
X110648Y141708*
X110737Y142077*
Y142200*
X110648Y142569*
X110469Y142815*
X110200Y142938*
X110111*
X109843Y142815*
X109664Y142569*
X109574Y142200*
X132199Y143430D02*
X132378Y143553D01*
X132647Y143922*
Y141339*
X133452Y143430D02*
X133631Y143553D01*
X133899Y143922*
Y141339*
X143307Y143307D02*
X147244D01*
X145276Y141339D02*
Y145276D01*
X147334Y145866D02*
X147262Y146063D01*
X147119Y146260*
X146976Y146358*
X146689*
X146546Y146260*
X146403Y146063*
X146331Y145866*
X146260Y145571*
Y145079*
X146331Y144783*
X146403Y144587*
X146546Y144390*
X146689Y144291*
X146976*
X147119Y144390*
X147262Y144587*
X147334Y144783*
Y145079*
X146976D02*
X147334D01*
X153942Y143922D02*
X154658Y142692D01*
Y141339*
X155374Y143922D02*
X154658Y142692D01*
X156179Y143922D02*
Y141339D01*
Y143922D02*
X157343D01*
X156179Y142692D02*
X156895D01*
X156179Y141339D02*
X157343D01*
X159401Y143553D02*
X159222Y143799D01*
X158953Y143922*
X158595*
X158327Y143799*
X158148Y143553*
Y143307*
X158237Y143061*
X158327Y142938*
X158506Y142815*
X159043Y142569*
X159222Y142446*
X159311Y142323*
X159401Y142077*
X159401D02*
Y141708D01*
X159401D02*
X159222Y141462D01*
X158953Y141339*
X158595*
X158327Y141462*
X158148Y141708*
X171390Y143553D02*
Y141339D01*
X170585Y142446D02*
X172196D01*
X174612Y144414D02*
X173001Y140477D01*
X175417Y142446D02*
X177028D01*
X178370Y143922D02*
X178101Y143799D01*
X177922Y143430*
X177833Y142815*
Y142446*
X177922Y141831*
X178101Y141462*
X178370Y141339*
X178549*
X178817Y141462*
X178996Y141831*
X179086Y142446*
Y142815*
X178996Y143430*
X178817Y143799*
X178549Y143922*
X178370*
X179980Y141585D02*
X179891Y141462D01*
X179980Y141339*
X180070Y141462*
X179980Y141585*
X181412Y143922D02*
X181144Y143799D01*
X180965Y143430*
X180875Y142815*
Y142446*
X180965Y141831*
X181144Y141462*
X181412Y141339*
X181591*
X181859Y141462*
X182038Y141831*
X182128Y142446*
Y142815*
X182038Y143430*
X181859Y143799*
X181591Y143922*
X181412*
X101969Y135556D02*
X102147Y135679D01*
X102416Y136048*
Y133465*
X103311Y133711D02*
X103221Y133588D01*
X103311Y133465*
X103400Y133588*
X103311Y133711*
X104742Y136048D02*
X104474Y135925D01*
X104295Y135556*
X104205Y134941*
Y134572*
X104295Y133957*
X104474Y133588*
X104742Y133465*
X104921*
X105190Y133588*
X105369Y133957*
X105458Y134572*
Y134941*
X105369Y135556*
X105190Y135925*
X104921Y136048*
X104742*
X106353Y135433D02*
Y135556D01*
X106442Y135802*
X106532Y135925*
X106711Y136048*
X107069*
X107248Y135925*
X107337Y135802*
X107427Y135556*
Y135310*
X107337Y135064*
X107158Y134695*
X106263Y133465*
X107516*
X131797Y135556D02*
X131976Y135679D01*
X132244Y136048*
Y133465*
X133497Y136048D02*
X133228Y135925D01*
X133139Y135679*
Y135433*
X133228Y135187*
X133407Y135064*
X133765Y134941*
X134034Y134818*
X134213Y134572*
X134302Y134326*
Y133957*
X134213Y133711*
X134123Y133588*
X133855Y133465*
X133497*
X133228Y133588*
X133139Y133711*
X133049Y133957*
Y134326*
X133139Y134572*
X133318Y134818*
X133586Y134941*
X133944Y135064*
X134123Y135187*
X134213Y135433*
Y135679*
X134123Y135925*
X133855Y136048*
X133497*
X143307Y135433D02*
X147244D01*
X145276Y133465D02*
Y137402D01*
X146260Y138484D02*
Y136417D01*
X147262Y138484D02*
Y136417D01*
X146260Y137500D02*
X147262D01*
X153942Y136048D02*
X154658Y134818D01*
Y133465*
X155374Y136048D02*
X154658Y134818D01*
X156179Y136048D02*
Y133465D01*
Y136048D02*
X157343D01*
X156179Y134818D02*
X156895D01*
X156179Y133465D02*
X157343D01*
X159401Y135679D02*
X159222Y135925D01*
X158953Y136048*
X158595*
X158327Y135925*
X158148Y135679*
Y135433*
X158237Y135187*
X158327Y135064*
X158506Y134941*
X159043Y134695*
X159222Y134572*
X159311Y134449*
X159401Y134203*
X159401D02*
Y133834D01*
X159401D02*
X159222Y133588D01*
X158953Y133465*
X158595*
X158327Y133588*
X158148Y133834*
X171390Y135679D02*
Y133465D01*
X170585Y134572D02*
X172196D01*
X174612Y136540D02*
X173001Y132603D01*
X175417Y134572D02*
X177028D01*
X178370Y136048D02*
X178101Y135925D01*
X177922Y135556*
X177833Y134941*
Y134572*
X177922Y133957*
X178101Y133588*
X178370Y133465*
X178549*
X178817Y133588*
X178996Y133957*
X179086Y134572*
Y134941*
X178996Y135556*
X178817Y135925*
X178549Y136048*
X178370*
X179980Y133711D02*
X179891Y133588D01*
X179980Y133465*
X180070Y133588*
X179980Y133711*
X181412Y136048D02*
X181144Y135925D01*
X180965Y135556*
X180875Y134941*
Y134572*
X180965Y133957*
X181144Y133588*
X181412Y133465*
X181591*
X181859Y133588*
X182038Y133957*
X182128Y134572*
Y134941*
X182038Y135556*
X181859Y135925*
X181591Y136048*
X181412*
X102505Y128174D02*
X102237Y128051D01*
X102058Y127682*
X101969Y127067*
Y126698*
X102058Y126083*
X102237Y125714*
X102505Y125591*
X102684*
X102953Y125714*
X103132Y126083*
X103221Y126698*
Y127067*
X103132Y127682*
X102953Y128051*
X102684Y128174*
X102505*
X104116Y125837D02*
X104026Y125714D01*
X104116Y125591*
X104205Y125714*
X104116Y125837*
X106263Y128174D02*
X105369Y125591D01*
X105011Y128174D02*
X106263D01*
X107963D02*
X107069Y126452D01*
X108411*
X107963Y128174D02*
Y125591D01*
X132870Y128174D02*
X132602Y128051D01*
X132513Y127805*
Y127559*
X132602Y127313*
X132781Y127190*
X133139Y127067*
X133407Y126944*
X133586Y126698*
X133676Y126452*
Y126083*
X133586Y125837*
X133497Y125714*
X133228Y125591*
X132870*
X132602Y125714*
X132513Y125837*
X132423Y126083*
Y126452*
X132513Y126698*
X132691Y126944*
X132960Y127067*
X133318Y127190*
X133497Y127313*
X133586Y127559*
Y127805*
X133497Y128051*
X133228Y128174*
X132870*
X143307Y127559D02*
X147244D01*
X145276Y125591D02*
Y129528D01*
X146260Y130610D02*
Y128543D01*
X153942Y128174D02*
X154658Y126944D01*
Y125591*
X155374Y128174D02*
X154658Y126944D01*
X156179Y128174D02*
Y125591D01*
Y128174D02*
X157343D01*
X156179Y126944D02*
X156895D01*
X156179Y125591D02*
X157343D01*
X159401Y127805D02*
X159222Y128051D01*
X158953Y128174*
X158595*
X158327Y128051*
X158148Y127805*
Y127559*
X158237Y127313*
X158327Y127190*
X158506Y127067*
X159043Y126821*
X159222Y126698*
X159311Y126575*
X159401Y126329*
X159401D02*
Y125960D01*
X159401D02*
X159222Y125714D01*
X158953Y125591*
X158595*
X158327Y125714*
X158148Y125960*
X171390Y127805D02*
Y125591D01*
X170585Y126698D02*
X172196D01*
X174612Y128666D02*
X173001Y124729D01*
X175417Y126698D02*
X177028D01*
X178370Y128174D02*
X178101Y128051D01*
X177922Y127682*
X177833Y127067*
Y126698*
X177922Y126083*
X178101Y125714*
X178370Y125591*
X178549*
X178817Y125714*
X178996Y126083*
X179086Y126698*
Y127067*
X178996Y127682*
X178817Y128051*
X178549Y128174*
X178370*
X179980Y125837D02*
X179891Y125714D01*
X179980Y125591*
X180070Y125714*
X179980Y125837*
X181412Y128174D02*
X181144Y128051D01*
X180965Y127682*
X180875Y127067*
Y126698*
X180965Y126083*
X181144Y125714*
X181412Y125591*
X181591*
X181859Y125714*
X182038Y126083*
X182128Y126698*
Y127067*
X182038Y127682*
X181859Y128051*
X181591Y128174*
X181412*
X101969Y119808D02*
X102147Y119931D01*
X102416Y120300*
Y117717*
X103311Y117963D02*
X103221Y117840D01*
X103311Y117717*
X103400Y117840*
X103311Y117963*
X104653Y120300D02*
X104384Y120177D01*
X104295Y119931*
Y119685*
X104384Y119439*
X104563Y119316*
X104921Y119193*
X105190Y119070*
X105369Y118824*
X105458Y118578*
Y118209*
X105369Y117963*
X105279Y117840*
X105011Y117717*
X104653*
X104384Y117840*
X104295Y117963*
X104205Y118209*
Y118578*
X104295Y118824*
X104474Y119070*
X104742Y119193*
X105100Y119316*
X105279Y119439*
X105369Y119685*
Y119931*
X105279Y120177*
X105011Y120300*
X104653*
X106353Y119685D02*
Y119808D01*
X106442Y120054*
X106532Y120177*
X106711Y120300*
X107069*
X107248Y120177*
X107337Y120054*
X107427Y119808*
Y119562*
X107337Y119316*
X107158Y118947*
X106263Y117717*
X107516*
X108769Y120300D02*
X108500Y120177D01*
X108411Y119931*
Y119685*
X108500Y119439*
X108679Y119316*
X109037Y119193*
X109306Y119070*
X109485Y118824*
X109574Y118578*
Y118209*
X109485Y117963*
X109395Y117840*
X109127Y117717*
X108769*
X108500Y117840*
X108411Y117963*
X108321Y118209*
Y118578*
X108411Y118824*
X108590Y119070*
X108858Y119193*
X109216Y119316*
X109395Y119439*
X109485Y119685*
Y119931*
X109395Y120177*
X109127Y120300*
X108769*
X110827D02*
X110558Y120177D01*
X110469Y119931*
Y119685*
X110558Y119439*
X110737Y119316*
X111095Y119193*
X111364Y119070*
X111543Y118824*
X111632Y118578*
Y118209*
X111543Y117963*
X111453Y117840*
X111185Y117717*
X110827*
X110558Y117840*
X110469Y117963*
X110379Y118209*
Y118578*
X110469Y118824*
X110648Y119070*
X110916Y119193*
X111274Y119316*
X111453Y119439*
X111543Y119685*
Y119931*
X111453Y120177*
X111185Y120300*
X110827*
X132513Y119685D02*
Y119808D01*
X132602Y120054*
X132691Y120177*
X132870Y120300*
X133228*
X133407Y120177*
X133497Y120054*
X133586Y119808*
Y119562*
X133497Y119316*
X133318Y118947*
X132423Y117717*
X133676*
X143307Y119685D02*
X147244D01*
X145276Y117717D02*
Y121654D01*
X146976Y122736D02*
Y121161D01*
X146904Y120866*
X146832Y120768*
X146832D02*
X146689Y120669D01*
X146546*
X146403Y120768*
X146331Y120866*
X146260Y121161*
Y121358*
X153942Y120300D02*
X154658Y119070D01*
Y117717*
X155374Y120300D02*
X154658Y119070D01*
X156179Y120300D02*
Y117717D01*
Y120300D02*
X157343D01*
X156179Y119070D02*
X156895D01*
X156179Y117717D02*
X157343D01*
X159401Y119931D02*
X159222Y120177D01*
X158953Y120300*
X158595*
X158327Y120177*
X158148Y119931*
Y119685*
X158237Y119439*
X158327Y119316*
X158506Y119193*
X159043Y118947*
X159222Y118824*
X159311Y118701*
X159401Y118455*
X159401D02*
Y118086D01*
X159401D02*
X159222Y117840D01*
X158953Y117717*
X158595*
X158327Y117840*
X158148Y118086*
X171390Y119931D02*
Y117717D01*
X170585Y118824D02*
X172196D01*
X174612Y120792D02*
X173001Y116855D01*
X175417Y118824D02*
X177028D01*
X178370Y120300D02*
X178101Y120177D01*
X177922Y119808*
X177833Y119193*
Y118824*
X177922Y118209*
X178101Y117840*
X178370Y117717*
X178549*
X178817Y117840*
X178996Y118209*
X179086Y118824*
Y119193*
X178996Y119808*
X178817Y120177*
X178549Y120300*
X178370*
X179980Y117963D02*
X179891Y117840D01*
X179980Y117717*
X180070Y117840*
X179980Y117963*
X181412Y120300D02*
X181144Y120177D01*
X180965Y119808*
X180875Y119193*
Y118824*
X180965Y118209*
X181144Y117840*
X181412Y117717*
X181591*
X181859Y117840*
X182038Y118209*
X182128Y118824*
Y119193*
X182038Y119808*
X181859Y120177*
X181591Y120300*
X181412*
X102505Y112426D02*
X102237Y112303D01*
X102058Y111934*
X101969Y111319*
Y110950*
X102058Y110335*
X102237Y109966*
X102505Y109843*
X102684*
X102953Y109966*
X103132Y110335*
X103221Y110950*
Y111319*
X103132Y111934*
X102953Y112303*
X102684Y112426*
X102505*
X104116Y110089D02*
X104026Y109966D01*
X104116Y109843*
X104205Y109966*
X104116Y110089*
X106263Y112426D02*
X105369Y109843D01*
X105011Y112426D02*
X106263D01*
X108232D02*
X107337D01*
X107248Y111319*
X107337Y111442*
X107606Y111565*
X107874*
X108142Y111442*
X108321Y111196*
X108411Y110827*
X108321Y110581*
X108232Y110212*
X108053Y109966*
X107785Y109843*
X107516*
X107248Y109966*
X107158Y110089*
X107069Y110335*
X131528Y111811D02*
Y111934D01*
X131618Y112180*
X131707Y112303*
X131886Y112426*
X132244*
X132423Y112303*
X132513Y112180*
X132602Y111934*
Y111688*
X132513Y111442*
X132334Y111073*
X131439Y109843*
X132691*
X134571Y112057D02*
X134481Y112303D01*
X134213Y112426*
X134034*
X133765Y112303*
X133586Y111934*
X133497Y111319*
Y110704*
X133586Y110212*
X133765Y109966*
X134034Y109843*
X134123*
X134392Y109966*
X134571Y110212*
X134660Y110581*
Y110704*
X134571Y111073*
X134392Y111319*
X134123Y111442*
X134034*
X133765Y111319*
X133586Y111073*
X133497Y110704*
X143307Y111811D02*
X147244D01*
X145276Y109843D02*
Y113780D01*
X146260Y114862D02*
Y112795D01*
X147262Y114862D02*
X146260Y113484D01*
X146618Y113976D02*
X147262Y112795D01*
X153942Y112426D02*
X154658Y111196D01*
Y109843*
X155374Y112426D02*
X154658Y111196D01*
X156179Y112426D02*
Y109843D01*
Y112426D02*
X157343D01*
X156179Y111196D02*
X156895D01*
X156179Y109843D02*
X157343D01*
X159401Y112057D02*
X159222Y112303D01*
X158953Y112426*
X158595*
X158327Y112303*
X158148Y112057*
Y111811*
X158237Y111565*
X158327Y111442*
X158506Y111319*
X159043Y111073*
X159222Y110950*
X159311Y110827*
X159401Y110581*
X159401D02*
Y110212D01*
X159401D02*
X159222Y109966D01*
X158953Y109843*
X158595*
X158327Y109966*
X158148Y110212*
X171390Y112057D02*
Y109843D01*
X170585Y110950D02*
X172196D01*
X174612Y112918D02*
X173001Y108981D01*
X175417Y110950D02*
X177028D01*
X178370Y112426D02*
X178101Y112303D01*
X177922Y111934*
X177833Y111319*
Y110950*
X177922Y110335*
X178101Y109966*
X178370Y109843*
X178549*
X178817Y109966*
X178996Y110335*
X179086Y110950*
Y111319*
X178996Y111934*
X178817Y112303*
X178549Y112426*
X178370*
X179980Y110089D02*
X179891Y109966D01*
X179980Y109843*
X180070Y109966*
X179980Y110089*
X181412Y112426D02*
X181144Y112303D01*
X180965Y111934*
X180875Y111319*
Y110950*
X180965Y110335*
X181144Y109966*
X181412Y109843*
X181591*
X181859Y109966*
X182038Y110335*
X182128Y110950*
Y111319*
X182038Y111934*
X181859Y112303*
X181591Y112426*
X181412*
X102505Y104552D02*
X102237Y104429D01*
X102058Y104060*
X101969Y103445*
Y103076*
X102058Y102461*
X102237Y102092*
X102505Y101969*
X102684*
X102953Y102092*
X103132Y102461*
X103221Y103076*
Y103445*
X103132Y104060*
X102953Y104429*
X102684Y104552*
X102505*
X104116Y102215D02*
X104026Y102092D01*
X104116Y101969*
X104205Y102092*
X104116Y102215*
X105190Y104552D02*
X106174D01*
X105637Y103568*
X105906*
X106084Y103445*
X106174Y103322*
X106263Y102953*
Y102707*
X106174Y102338*
X105995Y102092*
X105727Y101969*
X105458*
X105190Y102092*
X105100Y102215*
X105011Y102461*
X108232Y104552D02*
X107337D01*
X107248Y103445*
X107337Y103568*
X107606Y103691*
X107874*
X108142Y103568*
X108321Y103322*
X108411Y102953*
X108321Y102707*
X108232Y102338*
X108053Y102092*
X107785Y101969*
X107516*
X107248Y102092*
X107158Y102215*
X107069Y102461*
X131841Y104060D02*
X132020Y104183D01*
X132289Y104552*
Y101969*
X134257Y103691D02*
X134168Y103322D01*
X133989Y103076*
X133720Y102953*
X133631*
X133363Y103076*
X133184Y103322*
X133094Y103691*
Y103814*
X133184Y104183*
X133363Y104429*
X133631Y104552*
X133720*
X133989Y104429*
X134168Y104183*
X134257Y103691*
Y103076*
X134168Y102461*
X133989Y102092*
X133720Y101969*
X133542*
X133273Y102092*
X133184Y102338*
X143307Y103937D02*
X147244D01*
X145276Y101969D02*
Y105906D01*
X146260Y106988D02*
Y104921D01*
X147119*
X153942Y104552D02*
X154658Y103322D01*
Y101969*
X155374Y104552D02*
X154658Y103322D01*
X156179Y104552D02*
Y101969D01*
Y104552D02*
X157343D01*
X156179Y103322D02*
X156895D01*
X156179Y101969D02*
X157343D01*
X159401Y104183D02*
X159222Y104429D01*
X158953Y104552*
X158595*
X158327Y104429*
X158148Y104183*
Y103937*
X158237Y103691*
X158327Y103568*
X158506Y103445*
X159043Y103199*
X159222Y103076*
X159311Y102953*
X159401Y102707*
X159401D02*
Y102338D01*
X159401D02*
X159222Y102092D01*
X158953Y101969*
X158595*
X158327Y102092*
X158148Y102338*
X171390Y104183D02*
Y101969D01*
X170585Y103076D02*
X172196D01*
X174612Y105044D02*
X173001Y101107D01*
X175417Y103076D02*
X177028D01*
X178370Y104552D02*
X178101Y104429D01*
X177922Y104060*
X177833Y103445*
Y103076*
X177922Y102461*
X178101Y102092*
X178370Y101969*
X178549*
X178817Y102092*
X178996Y102461*
X179086Y103076*
Y103445*
X178996Y104060*
X178817Y104429*
X178549Y104552*
X178370*
X179980Y102215D02*
X179891Y102092D01*
X179980Y101969*
X180070Y102092*
X179980Y102215*
X181412Y104552D02*
X181144Y104429D01*
X180965Y104060*
X180875Y103445*
Y103076*
X180965Y102461*
X181144Y102092*
X181412Y101969*
X181591*
X181859Y102092*
X182038Y102461*
X182128Y103076*
Y103445*
X182038Y104060*
X181859Y104429*
X181591Y104552*
X181412*
G54D27*
G54D40*
X494567Y1266732D02*
X100000D01*
Y61575*
X494567*
Y1266732*
X468858Y100787D02*
G75*
G03X468858I-6299J0D01*
G01Y199173D02*
G03X468858I-6299J0D01*
G01X468898Y227992D02*
G03X468898I-6300J0D01*
G01Y326378D02*
G03X468898I-6300J0D01*
G01X439017Y570684D02*
G03X439017I-4724J0D01*
G01Y454542D02*
G03X439017I-4724J0D01*
G01X127297Y872058D02*
G03X127297I-2000J0D01*
G01X247297D02*
G03X247297I-2000J0D01*
G01X127297Y1002058D02*
G03X127297I-2000J0D01*
G01X247297D02*
G03X247297I-2000J0D01*
G01X123622Y77323D02*
G03X123622I-7874J0D01*
G01X486693D02*
G03X486693I-7874J0D01*
G01Y348583D02*
G03X486693I-7874J0D01*
G01Y380079D02*
G03X486693I-7874J0D01*
G01X123622D02*
G03X123622I-7874J0D01*
G01Y348583D02*
G03X123622I-7874J0D01*
G01Y748429D02*
G03X123622I-7874J0D01*
G01Y779925D02*
G03X123622I-7874J0D01*
G01X486693Y748429D02*
G03X486693I-7874J0D01*
G01Y779925D02*
G03X486693I-7874J0D01*
G01X123622Y1250984D02*
G03X123622I-7874J0D01*
G01X486693D02*
G03X486693I-7874J0D01*
G01X100000Y202362D02*
X184646D01*
X100000Y194488D02*
X184646D01*
X100000Y186614D02*
X184646D01*
X100000Y178740D02*
X184646D01*
X100000Y170866D02*
X184646D01*
X100000Y162992D02*
X184646D01*
X100000Y155118D02*
X184646D01*
X100000Y147244D02*
X184646D01*
X100000Y139370D02*
X184646D01*
X100000Y131496D02*
X184646D01*
X100000Y123622D02*
X184646D01*
X100000Y115748D02*
X184646D01*
X100000Y107874D02*
X184646D01*
X100000Y100000D02*
X184646D01*
X100000Y202362D02*
Y100000D01*
X127559Y202362D02*
Y100000D01*
X139370Y202362D02*
Y100000D01*
X151181Y202362D02*
Y100000D01*
X168898Y202362D02*
Y100000D01*
X184646Y202362D02*
Y100000D01*
G74*
X0Y0D02*
M02*
