%
T1C.01378F095S3
X022648Y016507
X021829Y01844
X023581Y019544
X024372Y021686
X020041Y025147
X020888Y026367
X016793Y026623
X017758Y027855
X036287Y116732
X03315Y115886
X035366Y114803
X031675Y100749
X038782Y027782
X041959Y02456
X031393Y024394
X038242Y019347
X042128Y018572
X038441Y014794
X048059Y065213
T2C.01772F095S3
X012379Y019204
X012379Y020188
X012379Y021172
X012379Y022156
X012419Y105683
X012419Y106667
X013611Y115723
X013611Y116707
X013611Y117692
X047304Y118294
X047304Y11731
X047304Y111633
X047304Y110648
X041801Y081605
X040817Y081605
X039833Y081605
T3C.02362F197S55
X01665Y081575
X01765Y081575
X01865Y081575
T4C.02559F197S55
X013316Y050064
X013316Y052033
X013316Y055052
X013316Y05702
X046626Y071374
X046626Y069406
T5C.02913F197S55
X013682Y085602
X017182Y085602
X018383Y085602
X022182Y085602
X023383Y085602
X018383Y101799
X023383Y101799
X013682Y101799
T6C.02953F197S55
X023317Y017729
X02147Y019107
X014183Y019481
X022224Y021858
X014185Y022156
X018697Y024623
X016864Y027773
X01725Y031233
X024Y120744
X036839Y117772
X025012Y110807
X035335Y092298
X035335Y086884
X030575Y064992
X030575Y062787
X025772Y060159
X028067Y055211
X035459Y054881
X028435Y053248
X034363Y04429
X03983Y04772
X042915Y062014
X042773Y089938
X04282Y096137
X042282Y10292
X039311Y107508
T7C.035F197S55
X031391Y027619
X022281Y05069
X019512Y057896
X019709Y064386
X0289Y081562
X031674Y086951
X026429Y112382
X028004Y120728
X038278Y093688
X032839Y057462
X038049Y022118
X038065Y020803
T8C.037F197S55
X015002Y032879
X019817Y032891
X015002Y033879
X019817Y033891
X018324Y047778
X018324Y048778
X018324Y055053
X018324Y056053
X022598Y114209
X023598Y114209
X022598Y115209
X023598Y115209
X027288Y092298
X028288Y092298
X044468Y090607
X044468Y089607
X030573Y061233
X030573Y060233
X045468Y089607
X045468Y090607
T9C.03937F197S55
X026438Y04202
X040218Y04202
X039906Y070336
X026127Y070336
T10C.04016F139S55
X045697Y01282
X046816Y013342
X045697Y013911
X046816Y014433
X045697Y015001
X046816Y015523
X045697Y016092
X046816Y016614
X045697Y017183
X045697Y025539
X046816Y026084
X045697Y026629
X046816Y027175
X045697Y02772
X046816Y028265
X045697Y028811
X046816Y029356
X045697Y029901
T11C.054F107S55
X042429Y047911
X044429Y048581
X042429Y049251
X044429Y049921
X042429Y050591
X044429Y051261
X042429Y051931
X044429Y052601
X042429Y053271
X044429Y053941
X042429Y054611
T12C.072F081S55
X013298Y064377
X013298Y067627
M30
