*
*
G04 PADS 9.5 Build Number: 522968 generated Gerber (RS-274-X) file*
G04 PC Version=2.1*
*
%IN "Total_Board_ATIK_V1.0.p"*%
*
%MOIN*%
*
%FSLAX35Y35*%
*
*
*
*
G04 PC Standard Apertures*
*
*
G04 Thermal Relief Aperture macro.*
%AMTER*
1,1,$1,0,0*
1,0,$1-$2,0,0*
21,0,$3,$4,0,0,45*
21,0,$3,$4,0,0,135*
%
*
*
G04 Annular Aperture macro.*
%AMANN*
1,1,$1,0,0*
1,0,$2,0,0*
%
*
*
G04 Odd Aperture macro.*
%AMODD*
1,1,$1,0,0*
1,0,$1-0.005,0,0*
%
*
*
G04 PC Custom Aperture Macros*
*
*
*
*
*
*
G04 PC Aperture Table*
*
%ADD011C,0.00591*%
%ADD025C,0.00787*%
%ADD027C,0.001*%
%ADD040C,0.00394*%
%ADD041C,0.01*%
%ADD093C,0.005*%
%ADD143C,0.00039*%
%ADD148C,0.00197*%
%ADD245C,0.012*%
%ADD246C,0.00394*%
*
*
*
*
G04 PC Circuitry*
G04 Layer Name Total_Board_ATIK_V1.0.p - circuitry*
%LPD*%
*
*
G04 PC Custom Flashes*
G04 Layer Name Total_Board_ATIK_V1.0.p - flashes*
%LPD*%
*
*
G04 PC Circuitry*
G04 Layer Name Total_Board_ATIK_V1.0.p - circuitry*
%LPD*%
*
G54D11*
G01X136024Y224094D02*
Y220157D01*
X134055Y222126*
X136024Y224094*
X195201Y805912D02*
Y825597D01*
X157799*
Y805912*
X195201*
X373470Y722066D02*
X286856D01*
Y684664*
X373470*
Y722066*
X125283Y1026572D02*
Y847438D01*
X245362*
Y1026572*
X125283*
X323465Y638898D02*
G75*
G03X323465I-17717J0D01*
G01X315591Y659764D02*
X311654D01*
X313622Y661732D02*
Y657795D01*
Y620394D02*
Y616457D01*
X289974Y401495D02*
X376588D01*
Y438896*
X289974*
Y401495*
X334961Y1159449D02*
X332992D01*
X334961Y1157480*
Y1159449*
X447597Y842551D02*
X451472D01*
X447597D02*
Y843759D01*
X447781Y844162*
X447966Y844296*
X448335Y844430*
X448704*
X449073Y844296*
X449258Y844162*
X449442Y843759*
Y842551*
Y843491D02*
X451472Y844430D01*
X448335Y845638D02*
X448151Y845907D01*
X447597Y846309*
X451472*
X447597Y847786D02*
Y849262D01*
X449073Y848457*
Y848859*
X449258Y849128*
X449442Y849262*
X449996Y849396*
X450365*
X450919Y849262*
X451288Y848994*
X451472Y848591*
Y848188*
X451288Y847786*
X451103Y847651*
X450734Y847517*
X434791Y842673D02*
X438667D01*
X434791D02*
Y843881D01*
X434976Y844284*
X435160Y844418*
X435529Y844552*
X435898*
X436268Y844418*
X436452Y844284*
X436637Y843881*
Y842673*
Y843613D02*
X438667Y844552D01*
X435529Y845760D02*
X435345Y846029D01*
X434791Y846431*
X438667*
X434791Y848981D02*
X437375Y847639D01*
Y849652*
X434791Y848981D02*
X438667D01*
X305640Y879080D02*
X305271Y878946D01*
X304902Y878678*
X304718Y878409*
Y877872*
X304902Y877604*
X305271Y877335*
X305640Y877201*
X306194Y877067*
X307117*
X307670Y877201*
X308040Y877335*
X308409Y877604*
X308593Y877872*
Y878409*
X308409Y878678*
X308040Y878946*
X307670Y879080*
X305456Y880288D02*
X305271Y880557D01*
X304718Y880959*
X308593*
X305456Y882167D02*
X305271Y882436D01*
X304718Y882838*
X308593*
X250013Y180732D02*
X253888D01*
X250013D02*
Y181940D01*
X250198Y182343*
X250382Y182477*
X250751Y182611*
X251120*
X251489Y182477*
X251674Y182343*
X251858Y181940*
Y180732*
Y181672D02*
X253888Y182611D01*
X250567Y185430D02*
X250198Y185296D01*
X250013Y184893*
Y184625*
X250198Y184222*
X250751Y183953*
X251674Y183819*
X252597*
X253335Y183953*
X253704Y184222*
X253888Y184625*
Y184759*
X253704Y185161*
X253335Y185430*
X252781Y185564*
X252597*
X252043Y185430*
X251674Y185161*
X251489Y184759*
Y184625*
X251674Y184222*
X252043Y183953*
X252597Y183819*
X224846Y176361D02*
Y173593D01*
X224981Y173039*
X225249Y172670*
X225652Y172486*
X225920*
X226323Y172670*
X226591Y173039*
X226725Y173593*
Y176361*
X228068Y175438D02*
Y175623D01*
X228202Y175992*
X228336Y176177*
X228605Y176361*
X229141*
X229410Y176177*
X229544Y175992*
X229678Y175623*
Y175254*
X229544Y174885*
X229276Y174331*
X227933Y172486*
X229812*
X117457Y241140D02*
X117826Y241275D01*
X118195Y241543*
X118379Y241811*
Y242348*
X118195Y242617*
X117826Y242885*
X117457Y243019*
X116903Y243154*
X115980*
X115427Y243019*
X115058Y242885*
X114688Y242617*
X114504Y242348*
Y241811*
X114688Y241543*
X115058Y241275*
X115427Y241140*
X118379Y239932D02*
X114504D01*
X118379D02*
X114504Y238053D01*
X118379D02*
X114504D01*
X117641Y236845D02*
X117826Y236577D01*
X118379Y236174*
X114504*
X117457Y234832D02*
X117641D01*
X118010Y234698*
X118195Y234564*
X118379Y234295*
Y233758*
X118195Y233490*
X118010Y233356*
X117641Y233222*
X117272*
X116903Y233356*
X116349Y233624*
X114504Y234966*
Y233087*
X401453Y908362D02*
X405328D01*
X401453D02*
Y909570D01*
X401637Y909973*
X401822Y910107*
X402191Y910241*
X402560*
X402929Y910107*
X403114Y909973*
X403298Y909570*
Y908362*
Y909302D02*
X405328Y910241D01*
X402191Y911449D02*
X402006Y911718D01*
X401453Y912120*
X405328*
X402375Y913462D02*
X402191D01*
X401822Y913597*
X401637Y913731*
X401453Y913999*
Y914536*
X401637Y914805*
X401822Y914939*
X402191Y915073*
X402560*
X402929Y914939*
X403483Y914670*
X405328Y913328*
Y915207*
X251891Y855320D02*
X254659D01*
X255213Y855454*
X255582Y855723*
X255766Y856126*
Y856394*
X255582Y856797*
X255213Y857065*
X254659Y857199*
X251891*
Y860152D02*
Y858810D01*
X253552Y858676*
X253367Y858810*
X253183Y859212*
Y859615*
X253367Y860018*
X253736Y860286*
X254290Y860420*
X254659Y860286*
X255213Y860152*
X255582Y859884*
X255766Y859481*
Y859078*
X255582Y858676*
X255397Y858541*
X255028Y858407*
X293543Y527522D02*
X297419D01*
X293543D02*
Y528730D01*
X293728Y529133*
X293912Y529267*
X294281Y529401*
X294650*
X295020Y529267*
X295204Y529133*
X295389Y528730*
Y527522*
Y528462D02*
X297419Y529401D01*
X293543Y530878D02*
Y532354D01*
X295020Y531549*
Y531951*
X295204Y532220*
X295389Y532354*
X295942Y532488*
X296311*
X296865Y532354*
X297234Y532086*
X297419Y531683*
Y531280*
X297234Y530878*
X297050Y530743*
X297050D02*
X296680Y530609D01*
X294466Y533830D02*
X294281D01*
X293912Y533965*
X293728Y534099*
X293543Y534367*
Y534904*
X293728Y535173*
X293912Y535307*
X294281Y535441*
X294650*
X295020Y535307*
X295573Y535038*
X297419Y533696*
Y535575*
X286971Y556904D02*
X289739D01*
X290293Y557038*
X290662Y557307*
X290846Y557709*
X290846D02*
Y557978D01*
X290662Y558381*
X290293Y558649*
X289739Y558783*
X286971*
X287709Y559991D02*
X287525Y560260D01*
X286971Y560662*
X290846*
X287709Y561870D02*
X287525Y562139D01*
X286971Y562541*
X290846*
X380163Y464099D02*
Y460223D01*
Y464099D02*
X381371D01*
X381773Y463914*
X381908Y463729*
X381908D02*
X382042Y463360D01*
Y462991*
X381908Y462622*
X381773Y462438*
X381371Y462253*
X380163*
X381102D02*
X382042Y460223D01*
X383250Y463360D02*
X383518Y463545D01*
X383921Y464099*
Y460223*
X387008Y464099D02*
X385666Y460223D01*
X385129Y464099D02*
X387008D01*
X322360Y262925D02*
X321990Y262791D01*
X321621Y262522*
X321437Y262254*
Y261717*
X321621Y261448*
X321990Y261180*
X322360Y261046*
X322913Y260912*
X323836*
X324390Y261046*
X324759Y261180*
X325128Y261448*
X325312Y261717*
Y262254*
X325128Y262522*
X324759Y262791*
X324390Y262925*
X321437Y265475D02*
X324021Y264133D01*
X324021D02*
Y266146D01*
X321437Y265475D02*
X325312D01*
X373146Y1021818D02*
X377021D01*
X373146D02*
Y1023026D01*
X373146D02*
X373330Y1023428D01*
X373515Y1023562*
X373884Y1023697*
X374253*
X374622Y1023562*
X374806Y1023428*
X374991Y1023026*
Y1021818*
Y1022757D02*
X377021Y1023697D01*
X373884Y1024905D02*
X373699Y1025173D01*
X373146Y1025576*
X373146D02*
X377021D01*
X373699Y1028394D02*
X373330Y1028260D01*
X373146Y1027857*
X373146D02*
Y1027589D01*
X373146D02*
X373330Y1027186D01*
X373884Y1026918*
X374806Y1026784*
X375729*
X376467Y1026918*
X376836Y1027186*
X377021Y1027589*
Y1027723*
X376836Y1028126*
X376467Y1028394*
X375914Y1028528*
X375729*
X375176Y1028394*
X374806Y1028126*
X374622Y1027723*
Y1027589*
X374806Y1027186*
X375176Y1026918*
X375729Y1026784*
X478386Y1132446D02*
X478017Y1132312D01*
X477648Y1132044*
X477463Y1131775*
Y1131238*
X477648Y1130970*
X478017Y1130702*
X478386Y1130567*
X478939Y1130433*
X479862*
X480416Y1130567*
X480785Y1130702*
X481154Y1130970*
X481339Y1131238*
Y1131775*
X481154Y1132044*
X480785Y1132312*
X480416Y1132446*
X477463Y1133654D02*
X481339D01*
X477463D02*
X481339Y1135533D01*
X477463D02*
X481339D01*
X477463Y1138486D02*
Y1137144D01*
X479124Y1137010*
X478939Y1137144*
X478755Y1137547*
Y1137949*
X478939Y1138352*
X479309Y1138620*
X479862Y1138754*
X480231Y1138620*
X480785Y1138486*
X481154Y1138218*
X481339Y1137815*
Y1137412*
X481154Y1137010*
X480969Y1136875*
X480600Y1136741*
X379597Y811062D02*
X379463Y811431D01*
X379195Y811800*
X378926Y811984*
X378389*
X378121Y811800*
X377852Y811431*
X377718Y811062*
X377584Y810508*
Y809585*
X377718Y809032*
X377852Y808663*
X378121Y808293*
X378389Y808109*
X378926*
X379195Y808293*
X379463Y808663*
X379597Y809032*
X380805Y811984D02*
Y808109D01*
Y811984D02*
X382684Y808109D01*
Y811984D02*
Y808109D01*
X385234Y811984D02*
X383892Y809401D01*
X385905*
X385234Y811984D02*
Y808109D01*
X261563Y938576D02*
Y934701D01*
Y938576D02*
X262503D01*
X262905Y938392*
X263174Y938023*
X263308Y937654*
X263442Y937100*
Y936177*
X263308Y935624*
X263174Y935254*
X262905Y934885*
X262503Y934701*
X261563*
X265992Y938576D02*
X264650Y935993D01*
X266663*
X265992Y938576D02*
Y934701D01*
X261559Y904706D02*
Y900831D01*
Y904706D02*
X262767D01*
X263170Y904522*
X263304Y904337*
X263438Y903968*
Y903599*
X263304Y903230*
X263170Y903045*
X262767Y902861*
X261559*
X262499D02*
X263438Y900831D01*
X266391Y903414D02*
X266257Y902861D01*
X265988Y902492*
X265586Y902307*
X265451*
X265049Y902492*
X264780Y902861*
X264646Y903414*
Y903599*
X264780Y904153*
X265049Y904522*
X265451Y904706*
X265586*
X265988Y904522*
X266257Y904153*
X266391Y903414*
Y902492*
X266257Y901569*
X265988Y901015*
X265586Y900831*
X265317*
X264914Y901015*
X264780Y901384*
X273475Y834740D02*
X273341Y835109D01*
X273073Y835478*
X272804Y835663*
X272267*
X271999Y835478*
X271730Y835109*
X271596Y834740*
X271462Y834187*
Y833264*
X271596Y832710*
X271730Y832341*
X271999Y831972*
X272267Y831787*
X272804*
X273073Y831972*
X273341Y832341*
X273475Y832710*
X274683Y834925D02*
X274952Y835109D01*
X275354Y835663*
Y831787*
X276696Y834740D02*
Y834925D01*
X276831Y835294*
X276965Y835478*
X277233Y835663*
X277770*
X278039Y835478*
X278173Y835294*
X278307Y834925*
Y834556*
X278173Y834187*
X277904Y833633*
X276562Y831787*
X278441*
X206562Y827263D02*
Y823387D01*
Y827263D02*
X207770D01*
X208172Y827078*
X208306Y826894*
X208441Y826524*
Y826155*
X208306Y825786*
X208172Y825602*
X207770Y825417*
X206562*
X207501D02*
X208441Y823387D01*
X209783Y826340D02*
Y826524D01*
X209917Y826894*
X210051Y827078*
X210320Y827263*
X210857*
X211125Y827078*
X211259Y826894*
X211393Y826524*
Y826155*
X211259Y825786*
X210991Y825233*
X209649Y823387*
X211528*
X158626Y831441D02*
Y827566D01*
Y831441D02*
X159834D01*
X160237Y831257*
X160371Y831072*
X160505Y830703*
Y830334*
X160371Y829965*
X160237Y829780*
X159834Y829596*
X158626*
X159565D02*
X160505Y827566D01*
X161713Y831441D02*
X162787Y827566D01*
X163860Y831441D02*
X162787Y827566D01*
X165068Y830703D02*
X165337Y830887D01*
X165739Y831441*
Y827566*
X294123Y511671D02*
X297999D01*
X294123D02*
Y512879D01*
X294308Y513281*
X294492Y513415*
X294861Y513550*
X295230*
X295600Y513415*
X295784Y513281*
X295969Y512879*
Y511671*
Y512610D02*
X297999Y513550D01*
X294123Y516502D02*
Y515160D01*
X295784Y515026*
X295600Y515160*
X295415Y515563*
Y515966*
X295600Y516368*
X295969Y516637*
X296522Y516771*
X296891Y516637*
X297445Y516502*
X297814Y516234*
X297999Y515831*
Y515429*
X297814Y515026*
X297630Y514892*
X297260Y514758*
X294123Y519321D02*
X296707Y517979D01*
Y519992*
X294123Y519321D02*
X297999D01*
X327961Y561360D02*
Y557484D01*
Y561360D02*
X329169D01*
X329571Y561175*
X329705Y560991*
X329840Y560622*
Y560252*
X329705Y559883*
X329571Y559699*
X329169Y559514*
X327961*
X328900D02*
X329840Y557484D01*
X331316Y561360D02*
X332792D01*
X331987Y559883*
X332390*
X332658Y559699*
X332792Y559514*
X332927Y558961*
Y558592*
X332792Y558038*
X332524Y557669*
X332121Y557484*
X331719*
X331316Y557669*
X331182Y557853*
X331048Y558222*
X334135Y560622D02*
X334403Y560806D01*
X334806Y561360*
Y557484*
X475643Y673104D02*
X475274Y672970D01*
X474905Y672701*
X474720Y672433*
Y671896*
X474905Y671627*
X475274Y671359*
X475643Y671225*
X476197Y671091*
X477119*
X477673Y671225*
X478042Y671359*
X478411Y671627*
X478596Y671896*
Y672433*
X478411Y672701*
X478042Y672970*
X477673Y673104*
X474720Y674312D02*
X478596D01*
X474720D02*
X478596Y676191D01*
X474720D02*
X478596D01*
X475458Y677399D02*
X475274Y677667D01*
X474720Y678070*
X478596*
X475458Y679278D02*
X475274Y679546D01*
X474720Y679949*
X478596*
X412862Y559291D02*
X410094D01*
X409541Y559157*
X409171Y558889*
X408987Y558486*
Y558218*
X409171Y557815*
X409541Y557547*
X410094Y557412*
X412862*
X412124Y556204D02*
X412309Y555936D01*
X412862Y555533*
X408987*
X412862Y553520D02*
X412678Y553923D01*
X412124Y554191*
X411201Y554325*
X410648*
X409725Y554191*
X409171Y553923*
X408987Y553520*
Y553252*
X409171Y552849*
X409725Y552581*
X410648Y552446*
X411201*
X412124Y552581*
X412678Y552849*
X412862Y553252*
Y553520*
X238526Y577087D02*
X242402D01*
X238526D02*
Y578295D01*
X238711Y578697*
X238895Y578831*
X239264Y578966*
X239633*
X240002Y578831*
X240187Y578697*
X240372Y578295*
Y577087*
Y578026D02*
X242402Y578966D01*
X238526Y580442D02*
Y581918D01*
X240002Y581113*
Y581516*
X240187Y581784*
X240372Y581918*
X240925Y582053*
X241294*
X241848Y581918*
X242217Y581650*
X242402Y581247*
Y580845*
X242217Y580442*
X242032Y580308*
X241663Y580174*
X239080Y584871D02*
X238711Y584737D01*
X238526Y584334*
Y584066*
X238711Y583663*
X239264Y583395*
X240187Y583261*
X241110*
X241848Y583395*
X242217Y583663*
X242402Y584066*
Y584200*
X242217Y584603*
X241848Y584871*
X241294Y585005*
X241110*
X240556Y584871*
X240187Y584603*
X240002Y584200*
Y584066*
X240187Y583663*
X240556Y583395*
X241110Y583261*
X203684Y655014D02*
X207559D01*
X203684D02*
Y656222D01*
X203868Y656625*
X204053Y656759*
X204422Y656893*
X204791*
X205160Y656759*
X205344Y656625*
X205529Y656222*
Y655014*
Y655954D02*
X207559Y656893D01*
X203684Y658370D02*
Y659846D01*
X205160Y659041*
Y659444*
X205344Y659712*
X205529Y659846*
X206083Y659980*
X206452*
X207005Y659846*
X207375Y659578*
X207559Y659175*
Y658772*
X207375Y658370*
X207190Y658236*
X206821Y658101*
X203684Y662531D02*
X206267Y661188D01*
Y663202*
X203684Y662531D02*
X207559D01*
X377903Y723501D02*
Y719626D01*
Y723501D02*
X379111D01*
X379513Y723317*
X379648Y723132*
X379782Y722763*
Y722394*
X379648Y722025*
X379513Y721841*
X379111Y721656*
X377903*
X378842D02*
X379782Y719626D01*
X381124Y722579D02*
Y722763D01*
X381258Y723132*
X381393Y723317*
X381661Y723501*
X382198*
X382466Y723317*
X382600Y723132*
X382735Y722763*
Y722394*
X382600Y722025*
X382332Y721471*
X380990Y719626*
X382869*
X385822Y722210D02*
X385687Y721656D01*
X385419Y721287*
X385016Y721102*
X384882*
X384479Y721287*
X384211Y721656*
X384077Y722210*
Y722394*
X384211Y722948*
X384479Y723317*
X384882Y723501*
X385016*
X385419Y723317*
X385687Y722948*
X385822Y722210*
Y721287*
X385687Y720364*
X385419Y719811*
X385016Y719626*
X384748*
X384345Y719811*
X384211Y720180*
X283229Y476422D02*
X283414Y476154D01*
X283783Y475885*
X284152Y475751*
X284706Y475617*
X285629*
X286182Y475751*
X286551Y475885*
X286920Y476154*
X287105Y476422*
Y476959*
X286920Y477227*
X286551Y477496*
X286182Y477630*
X285629Y477764*
X284706*
X284152Y477630*
X283783Y477496*
X283414Y477227*
X283229Y476959*
Y476422*
X286367Y476825D02*
X287474Y477630D01*
X283229Y480314D02*
X285813Y478972D01*
Y480985*
X283229Y480314D02*
X287105D01*
X199664Y315897D02*
Y319773D01*
Y315897D02*
X198725D01*
X198322Y316082*
X198053Y316451*
X197919Y316820*
X197785Y317374*
Y318297*
X197919Y318850*
X198053Y319219*
X198322Y319588*
X198725Y319773*
X199664*
X194832Y317189D02*
X194966Y317743D01*
X195235Y318112*
X195638Y318297*
X195772*
X196174Y318112*
X196443Y317743*
X196577Y317189*
Y317005*
X196443Y316451*
X196174Y316082*
X195772Y315897*
X195638*
X195235Y316082*
X194966Y316451*
X194832Y317189*
Y318112*
X194966Y319035*
X195235Y319588*
X195638Y319773*
X195906*
X196309Y319588*
X196443Y319219*
X420021Y149381D02*
Y145505D01*
Y149381D02*
X421229D01*
X421632Y149196*
X421766Y149012*
X421900Y148643*
Y148273*
X421766Y147904*
X421632Y147720*
X421229Y147535*
X420021*
X420961D02*
X421900Y145505D01*
X423376Y149381D02*
X424853D01*
X424047Y147904*
X424450*
X424719Y147720*
X424853Y147535*
X424987Y146982*
Y146613*
X424853Y146059*
X424584Y145690*
X424182Y145505*
X423779*
X423376Y145690*
X423242Y145874*
X423108Y146243*
X427940Y148089D02*
X427806Y147535D01*
X427537Y147166*
X427134Y146982*
X427000*
X426598Y147166*
X426329Y147535*
X426195Y148089*
Y148273*
X426329Y148827*
X426598Y149196*
X427000Y149381*
X427134*
X427537Y149196*
X427806Y148827*
X427940Y148089*
Y147166*
X427806Y146243*
X427537Y145690*
X427134Y145505*
X426866*
X426463Y145690*
X426329Y146059*
X419110Y164252D02*
Y160377D01*
Y164252D02*
X420318D01*
X420721Y164068*
X420855Y163883*
X420989Y163514*
Y163145*
X420855Y162776*
X420721Y162591*
X420318Y162407*
X419110*
X420050D02*
X420989Y160377D01*
X422466Y164252D02*
X423942D01*
X423137Y162776*
X423539*
X423808Y162591*
X423942Y162407*
X424076Y161853*
Y161484*
X423942Y160930*
X423674Y160561*
X423271Y160377*
X422868*
X422466Y160561*
X422331Y160746*
X422197Y161115*
X425955Y164252D02*
X425553Y164068D01*
X425418Y163698*
Y163329*
X425553Y162960*
X425821Y162776*
X426358Y162591*
X426761Y162407*
X427029Y162038*
X427163Y161668*
Y161115*
X427029Y160746*
X426895Y160561*
X426492Y160377*
X425955*
X425553Y160561*
X425418Y160746*
X425284Y161115*
Y161668*
X425418Y162038*
X425687Y162407*
X426089Y162591*
X426626Y162776*
X426895Y162960*
X427029Y163329*
Y163698*
X426895Y164068*
X426492Y164252*
X425955*
X355727Y231925D02*
Y228050D01*
X357338*
X358680Y231003D02*
Y231187D01*
X358814Y231556*
X358948Y231741*
X359217Y231925*
X359754*
X360022Y231741*
X360156Y231556*
X360290Y231187*
Y230818*
X360156Y230449*
X359888Y229895*
X358546Y228050*
X360425*
X331361Y192289D02*
X335236D01*
X331361D02*
Y193228D01*
X331545Y193631*
X331914Y193899*
X332283Y194034*
X332837Y194168*
X333760*
X334313Y194034*
X334683Y193899*
X335052Y193631*
X335236Y193228*
Y192289*
X332099Y195376D02*
X331914Y195644D01*
X331361Y196047*
X335236*
X314887Y180770D02*
X314518Y180636D01*
X314149Y180368*
X313964Y180099*
Y179563*
X314149Y179294*
X314518Y179026*
X314887Y178891*
X315441Y178757*
X316364*
X316917Y178891*
X317286Y179026*
X317655Y179294*
X317840Y179563*
Y180099*
X317655Y180368*
X317286Y180636*
X316917Y180770*
X313964Y182649D02*
X314149Y182247D01*
X314518Y182113*
X314887*
X315256Y182247*
X315441Y182515*
X315625Y183052*
X315810Y183455*
X316179Y183723*
X316548Y183857*
X317102*
X317471Y183723*
X317655Y183589*
X317840Y183186*
Y182649*
X317655Y182247*
X317471Y182113*
X317102Y181978*
X316548*
X316179Y182113*
X315810Y182381*
X315625Y182784*
X315441Y183321*
X315256Y183589*
X314887Y183723*
X314518*
X314149Y183589*
X313964Y183186*
Y182649*
X242236Y241511D02*
X241867Y241376D01*
X241498Y241108*
X241313Y240840*
Y240303*
X241498Y240034*
X241867Y239766*
X242236Y239632*
X242790Y239497*
X243713*
X244266Y239632*
X244635Y239766*
X245004Y240034*
X245189Y240303*
Y240840*
X245004Y241108*
X244635Y241376*
X244266Y241511*
X242236Y242853D02*
X242052D01*
X241683Y242987*
X241498Y243121*
X241313Y243390*
Y243927*
X241498Y244195*
X241683Y244329*
X242052Y244463*
X242421*
X242790Y244329*
X243344Y244061*
X243344D02*
X245189Y242719D01*
Y244598*
X233345Y241704D02*
X232976Y241569D01*
X232607Y241301*
X232422Y241032*
Y240496*
X232607Y240227*
X232976Y239959*
X233345Y239825*
X233899Y239690*
X234822*
X235375Y239825*
X235744Y239959*
X236113Y240227*
X236298Y240496*
Y241032*
X236113Y241301*
X235744Y241569*
X235375Y241704*
X233161Y242911D02*
X232976Y243180D01*
X232422Y243583*
X236298*
X250564Y166646D02*
Y162771D01*
Y166646D02*
X251772D01*
X252175Y166462*
X252309Y166277*
X252444Y165908*
Y165539*
X252309Y165170*
X252175Y164985*
X251772Y164801*
X250564*
X251504D02*
X252444Y162771D01*
X255396Y166646D02*
X254054D01*
X253920Y164985*
X254054Y165170*
X254457Y165355*
X254859*
X255262Y165170*
X255530Y164801*
X255665Y164247*
X255530Y163878*
X255396Y163325*
X255128Y162955*
X254725Y162771*
X254323*
X253920Y162955*
X253786Y163140*
X253651Y163509*
X118602Y1084499D02*
X118971Y1084633D01*
X119341Y1084901*
X119525Y1085170*
Y1085707*
X119341Y1085975*
X118971Y1086243*
X118602Y1086378*
X118049Y1086512*
X117126*
X116572Y1086378*
X116203Y1086243*
X115834Y1085975*
X115650Y1085707*
Y1085170*
X115834Y1084901*
X116203Y1084633*
X116572Y1084499*
X119525Y1083291D02*
X115650D01*
X119525D02*
X115650Y1081412D01*
X119525D02*
X115650D01*
X119525Y1079935D02*
Y1078459D01*
X118049Y1079264*
Y1078861*
X117864Y1078593*
X117680Y1078459*
X117126Y1078325*
X116757*
X116203Y1078459*
X115834Y1078727*
X115650Y1079130*
Y1079533*
X115834Y1079935*
X116019Y1080069*
X116388Y1080204*
X154311Y1084353D02*
Y1080478D01*
Y1084353D02*
X156056D01*
X154311Y1082508D02*
X155385D01*
X157264Y1083615D02*
X157532Y1083800D01*
X157935Y1084353*
Y1080478*
X241508Y215333D02*
X245383D01*
X241508D02*
Y216541D01*
X241692Y216944*
X241877Y217078*
X242246Y217212*
X242615*
X242984Y217078*
X243169Y216944*
X243353Y216541*
Y215333*
Y216273D02*
X245383Y217212D01*
X241508Y220299D02*
X245383Y218957D01*
X241508Y218420D02*
Y220299D01*
X232615Y215140D02*
X236491D01*
X232615D02*
Y216348D01*
X232800Y216751*
X232984Y216885*
X233354Y217019*
X233723*
X234092Y216885*
X234276Y216751*
X234461Y216348*
Y215140*
Y216080D02*
X236491Y217019D01*
X232615Y218898D02*
X232800Y218496D01*
X233169Y218362*
X233538*
X233907Y218496*
X234092Y218764*
X234276Y219301*
X234461Y219704*
X234830Y219972*
X235199Y220106*
X235753*
X236122Y219972*
X236306Y219838*
X236491Y219435*
Y218898*
X236306Y218496*
X236122Y218362*
X235753Y218227*
X235199*
X234830Y218362*
X234461Y218630*
X234276Y219033*
X234092Y219570*
X233907Y219838*
X233538Y219972*
X233169*
X232800Y219838*
X232615Y219435*
Y218898*
X256417Y250248D02*
Y247479D01*
X256551Y246926*
X256820Y246557*
X257222Y246372*
X257491*
X257894Y246557*
X258162Y246926*
X258296Y247479*
Y250248*
X259773D02*
X261249D01*
X260444Y248771*
X260846*
X261115Y248587*
X261249Y248402*
X261383Y247849*
Y247479*
X261249Y246926*
X260980Y246557*
X260578Y246372*
X260175*
X259773Y246557*
X259638Y246741*
X259504Y247110*
X331510Y262925D02*
X331141Y262791D01*
X330772Y262523*
X330588Y262254*
Y261717*
X330772Y261449*
X331141Y261181*
X331510Y261046*
X332064Y260912*
X332987*
X333541Y261046*
X333910Y261181*
X334279Y261449*
X334463Y261717*
Y262254*
X334279Y262523*
X333910Y262791*
X333541Y262925*
X330588Y264402D02*
Y265878D01*
X332064Y265073*
Y265475*
X332249Y265744*
X332433Y265878*
X332987Y266012*
X333356*
X333910Y265878*
X334279Y265610*
X334463Y265207*
Y264804*
X334279Y264402*
X334094Y264267*
X333725Y264133*
X340528Y262925D02*
X340159Y262791D01*
X339790Y262523*
X339606Y262254*
Y261717*
X339790Y261449*
X340159Y261181*
X340528Y261046*
X341082Y260912*
X342005*
X342558Y261046*
X342927Y261181*
X343297Y261449*
X343481Y261717*
Y262254*
X343297Y262523*
X342927Y262791*
X342558Y262925*
X339606Y265878D02*
Y264536D01*
X341267Y264402*
X341082Y264536*
X340897Y264939*
Y265341*
X341082Y265744*
X341451Y266012*
X342005Y266147*
X342374Y266012*
X342927Y265878*
X343297Y265610*
X343481Y265207*
Y264804*
X343297Y264402*
X343112Y264267*
X342743Y264133*
X314500Y228324D02*
X314131Y228190D01*
X313762Y227922*
X313577Y227653*
Y227116*
X313762Y226848*
X314131Y226579*
X314500Y226445*
X315054Y226311*
X315976*
X316530Y226445*
X316899Y226579*
X317268Y226848*
X317453Y227116*
Y227653*
X317268Y227922*
X316899Y228190*
X316530Y228324*
X314131Y231143D02*
X313762Y231009D01*
X313577Y230606*
Y230338*
X313762Y229935*
X314315Y229666*
X315238Y229532*
X316161*
X316899Y229666*
X317268Y229935*
X317453Y230338*
Y230472*
X317268Y230874*
X316899Y231143*
X316345Y231277*
X316161*
X315607Y231143*
X315238Y230874*
X315054Y230472*
Y230338*
X315238Y229935*
X315607Y229666*
X316161Y229532*
X314887Y197202D02*
X314518Y197068D01*
X314149Y196800*
X313964Y196531*
Y195994*
X314149Y195726*
X314518Y195457*
X314887Y195323*
X315441Y195189*
X316364*
X316917Y195323*
X317286Y195457*
X317655Y195726*
X317840Y195994*
Y196531*
X317655Y196800*
X317286Y197068*
X316917Y197202*
X313964Y200289D02*
X317840Y198947D01*
X313964Y198410D02*
Y200289D01*
X331361Y218579D02*
X335236D01*
X331361D02*
Y219518D01*
X331545Y219921*
X331914Y220189*
X332283Y220324*
X332837Y220458*
X333760*
X334313Y220324*
X334683Y220189*
X335052Y219921*
X335236Y219518*
Y218579*
X332283Y221800D02*
X332099D01*
X331730Y221934*
X331545Y222068*
X331361Y222337*
Y222874*
X331545Y223142*
X331730Y223276*
X332099Y223411*
X332468*
X332837Y223276*
X333391Y223008*
X335236Y221666*
Y223545*
X441346Y239780D02*
X440977Y239645D01*
X440608Y239377*
X440424Y239109*
Y238572*
X440608Y238303*
X440977Y238035*
X441346Y237901*
X441900Y237766*
X442823*
X443376Y237901*
X443746Y238035*
X444115Y238303*
X444299Y238572*
Y239109*
X444115Y239377*
X443746Y239645*
X443376Y239780*
X440424Y240988D02*
X444299D01*
X440424D02*
X444299Y242867D01*
X440424D02*
X444299D01*
X441162Y244075D02*
X440977Y244343D01*
X440424Y244746*
X444299*
X440740Y113528D02*
X440371Y113393D01*
X440002Y113125*
X439817Y112857*
Y112320*
X440002Y112051*
X440371Y111783*
X440740Y111649*
X441294Y111514*
X442217*
X442770Y111649*
X443139Y111783*
X443508Y112051*
X443693Y112320*
Y112857*
X443508Y113125*
X443139Y113393*
X442770Y113528*
X439817Y114736D02*
X443693D01*
X439817D02*
X443693Y116615D01*
X439817D02*
X443693D01*
X440740Y117957D02*
X440556D01*
X440187Y118091*
X440002Y118225*
X439817Y118494*
Y119031*
X440002Y119299*
X440187Y119433*
X440556Y119567*
X440925*
X441294Y119433*
X441847Y119165*
X443693Y117823*
Y119702*
X251629Y1025877D02*
Y1023109D01*
X251763Y1022555*
X252031Y1022186*
X252434Y1022001*
X252702*
X253105Y1022186*
X253373Y1022555*
X253508Y1023109*
Y1025877*
X256058D02*
X254716Y1023293D01*
X256729*
X256058Y1025877D02*
Y1022001D01*
X120399Y828150D02*
X120265Y828519D01*
X119996Y828888*
X119728Y829072*
X119191*
X118923Y828888*
X118654Y828519*
X118520Y828150*
X118386Y827596*
Y826673*
X118520Y826120*
X118654Y825750*
X118923Y825381*
X119191Y825197*
X119728*
X119996Y825381*
X120265Y825750*
X120399Y826120*
X123352Y827781D02*
X123218Y827227D01*
X122949Y826858*
X122547Y826673*
X122412*
X122010Y826858*
X121741Y827227*
X121607Y827781*
Y827965*
X121741Y828519*
X122010Y828888*
X122412Y829072*
X122547*
X122949Y828888*
X123218Y828519*
X123352Y827781*
Y826858*
X123218Y825935*
X122949Y825381*
X122547Y825197*
X122278*
X121875Y825381*
X121741Y825750*
X118583Y817852D02*
Y813976D01*
Y817852D02*
X119791D01*
X120193Y817667*
X120327Y817483*
X120462Y817114*
Y816745*
X120327Y816375*
X120193Y816191*
X119791Y816006*
X118583*
X119522D02*
X120462Y813976D01*
X121670Y817114D02*
X121938Y817298D01*
X122341Y817852*
Y813976*
X279168Y878957D02*
X278799Y878823D01*
X278430Y878554*
X278245Y878286*
Y877749*
X278430Y877480*
X278799Y877212*
X279168Y877078*
X279722Y876944*
X280644*
X281198Y877078*
X281567Y877212*
X281936Y877480*
X282121Y877749*
Y878286*
X281936Y878554*
X281567Y878823*
X281198Y878957*
X278983Y880165D02*
X278799Y880433D01*
X278245Y880836*
X282121*
X278245Y882849D02*
X278430Y882446D01*
X278983Y882178*
X279906Y882044*
X280460*
X281383Y882178*
X281936Y882446*
X282121Y882849*
Y883118*
X281936Y883520*
X281383Y883789*
X280460Y883923*
X279906*
X278983Y883789*
X278430Y883520*
X278245Y883118*
Y882849*
X235722Y831881D02*
Y828005D01*
Y831881D02*
X236930D01*
X237332Y831696*
X237467Y831512*
X237601Y831143*
Y830773*
X237467Y830404*
X237332Y830220*
X236930Y830035*
X235722*
X236661D02*
X237601Y828005D01*
X238809Y831143D02*
X239077Y831327D01*
X239480Y831881*
Y828005*
X241493Y831881D02*
X241090Y831696D01*
X240822Y831143*
X240688Y830220*
Y829666*
X240822Y828743*
X241090Y828190*
X241493Y828005*
X241762*
X242164Y828190*
X242433Y828743*
X242567Y829666*
Y830220*
X242433Y831143*
X242164Y831696*
X241762Y831881*
X241493*
X385136Y891190D02*
X387905D01*
X388458Y891325*
X388827Y891593*
X389012Y891996*
Y892264*
X388827Y892667*
X388458Y892935*
X387905Y893069*
X385136*
X385690Y895888D02*
X385321Y895754D01*
X385136Y895351*
Y895083*
X385321Y894680*
X385875Y894411*
X386797Y894277*
X387720*
X388458Y894411*
X388827Y894680*
X389012Y895083*
Y895217*
X388827Y895619*
X388458Y895888*
X387905Y896022*
X387720*
X387166Y895888*
X386797Y895619*
X386613Y895217*
Y895083*
X386797Y894680*
X387166Y894411*
X387720Y894277*
X388802Y984331D02*
X391570D01*
X392124Y984465*
X392493Y984733*
X392677Y985136*
Y985404*
X392493Y985807*
X392124Y986076*
X391570Y986210*
X388802*
Y989297D02*
X392677Y987955D01*
X388802Y987418D02*
Y989297D01*
X464234Y899357D02*
X463865Y899223D01*
X463865D02*
X463495Y898954D01*
X463311Y898686*
Y898149*
X463495Y897881*
X463865Y897612*
X463865D02*
X464234Y897478D01*
X464787Y897344*
X465710*
X466264Y897478*
X466633Y897612*
X467002Y897881*
X467186Y898149*
Y898686*
X467002Y898954*
X466633Y899223*
X466264Y899357*
X463311Y900565D02*
X467186D01*
X463311D02*
X467186Y902444D01*
X463311D02*
X467186D01*
X463311Y905531D02*
X467186Y904189D01*
X463311Y903652D02*
Y905531D01*
X112542Y706317D02*
X112911Y706452D01*
X113280Y706720*
X113465Y706989*
Y707525*
X113280Y707794*
X112911Y708062*
X112542Y708196*
X111988Y708331*
X111066*
X110512Y708196*
X110143Y708062*
X109774Y707794*
X109589Y707525*
Y706989*
X109774Y706720*
X110143Y706452*
X110512Y706317*
X113465Y705110D02*
X109589D01*
X113465D02*
X109589Y703230D01*
X113465D02*
X109589D01*
X113465Y701351D02*
X113280Y701754D01*
X112911Y701888*
X112542*
X112173Y701754*
X111988Y701486*
X111804Y700949*
X111619Y700546*
X111250Y700278*
X110881Y700144*
X110327*
X109958Y700278*
X109774Y700412*
X109589Y700815*
Y701351*
X109774Y701754*
X109958Y701888*
X110327Y702023*
X110881*
X111250Y701888*
X111619Y701620*
X111804Y701217*
X111988Y700680*
X112173Y700412*
X112542Y700278*
X112911*
X113280Y700412*
X113465Y700815*
Y701351*
X121471Y589065D02*
X121840Y589200D01*
X122209Y589468*
X122394Y589737*
Y590273*
X122209Y590542*
X121840Y590810*
X121471Y590945*
X120917Y591079*
X119995*
X119441Y590945*
X119072Y590810*
X118703Y590542*
X118518Y590273*
Y589737*
X118703Y589468*
X119072Y589200*
X119441Y589065*
X122394Y587858D02*
X118518D01*
X122394D02*
X118518Y585979D01*
X122394D02*
X118518D01*
X121102Y583026D02*
X120548Y583160D01*
X120179Y583428*
X119995Y583831*
Y583965*
X120179Y584368*
X120548Y584636*
X121102Y584771*
X121287*
X121840Y584636*
X122209Y584368*
X122394Y583965*
Y583831*
X122209Y583428*
X121840Y583160*
X121102Y583026*
X120179*
X119257Y583160*
X118703Y583428*
X118518Y583831*
Y584099*
X118703Y584502*
X119072Y584636*
X121793Y485702D02*
X122162Y485836D01*
X122531Y486105*
X122715Y486373*
Y486910*
X122531Y487178*
X122162Y487447*
X121793Y487581*
X121239Y487715*
X120316*
X119763Y487581*
X119394Y487447*
X119024Y487178*
X118840Y486910*
Y486373*
X119024Y486105*
X119394Y485836*
X119763Y485702*
X122715Y484494D02*
X118840D01*
X122715D02*
X118840Y482615D01*
X122715D02*
X118840D01*
X121977Y481407D02*
X122162Y481139D01*
X122715Y480736*
X118840*
X122715Y478723D02*
X122531Y479125D01*
X121977Y479394*
X121054Y479528*
X120501*
X119578Y479394*
X119024Y479125*
X118840Y478723*
Y478454*
X119024Y478052*
X119578Y477783*
X120501Y477649*
X121054*
X121977Y477783*
X122531Y478052*
X122715Y478454*
Y478723*
X181243Y600512D02*
X185118D01*
X181243D02*
Y601720D01*
X181427Y602122*
X181612Y602257*
X181981Y602391*
X182350*
X182719Y602257*
X182904Y602122*
X183088Y601720*
Y600512*
Y601451D02*
X185118Y602391D01*
X182165Y603733D02*
X181981D01*
X181612Y603867*
X181427Y604001*
X181243Y604270*
Y604807*
X181427Y605075*
X181612Y605209*
X181981Y605344*
X182350*
X182719Y605209*
X183273Y604941*
X185118Y603599*
Y605478*
X181243Y608565D02*
X185118Y607223D01*
X181243Y606686D02*
Y608565D01*
X170884Y502882D02*
X174760D01*
X170884D02*
Y504090D01*
X171069Y504492*
X171253Y504627*
X171623Y504761*
X171992*
X172361Y504627*
X172545Y504492*
X172730Y504090*
Y502882*
Y503821D02*
X174760Y504761D01*
X171807Y506103D02*
X171623D01*
X171253Y506237*
X171069Y506372*
X170884Y506640*
Y507177*
X171069Y507445*
X171253Y507579*
X171623Y507714*
X171992*
X172361Y507579*
X172914Y507311*
X174760Y505969*
Y507848*
X170884Y509727D02*
X171069Y509324D01*
X171438Y509190*
X171807*
X172176Y509324*
X172361Y509593*
X172545Y510130*
X172730Y510532*
X173099Y510801*
X173468Y510935*
X174022*
X174391Y510801*
X174575Y510666*
X174760Y510264*
Y509727*
X174575Y509324*
X174391Y509190*
X174022Y509056*
X173468*
X173099Y509190*
X172730Y509458*
X172545Y509861*
X172361Y510398*
X172176Y510666*
X171807Y510801*
X171438*
X171069Y510666*
X170884Y510264*
Y509727*
X181517Y537484D02*
X185392D01*
X181517D02*
Y538424D01*
X181701Y538826*
X182071Y539095*
X182440Y539229*
X182993Y539363*
X183916*
X184470Y539229*
X184839Y539095*
X185208Y538826*
X185392Y538424*
Y537484*
X181517Y542316D02*
Y540974D01*
X183178Y540840*
X182993Y540974*
X182809Y541377*
Y541779*
X182993Y542182*
X183362Y542450*
X183916Y542584*
X184285Y542450*
X184839Y542316*
X185208Y542048*
X185392Y541645*
Y541242*
X185208Y540840*
X185023Y540705*
X184654Y540571*
X180937Y464028D02*
X184812D01*
X180937D02*
Y464967D01*
X181121Y465370*
X181490Y465638*
X181860Y465772*
X182413Y465907*
X183336*
X183890Y465772*
X184259Y465638*
X184628Y465370*
X184812Y464967*
Y464028*
X181490Y468725D02*
X181121Y468591D01*
X180937Y468188*
Y467920*
X181121Y467517*
X181675Y467249*
X182598Y467115*
X183521*
X184259Y467249*
X184628Y467517*
X184812Y467920*
Y468054*
X184628Y468457*
X184259Y468725*
X183705Y468859*
X183521*
X182967Y468725*
X182598Y468457*
X182413Y468054*
Y467920*
X182598Y467517*
X182967Y467249*
X183521Y467115*
X363639Y665839D02*
Y661963D01*
Y665839D02*
X364847D01*
X365250Y665654*
X365384Y665470*
X365518Y665101*
Y664731*
X365384Y664362*
X365250Y664178*
X364847Y663993*
X363639*
X364579D02*
X365518Y661963D01*
X366995Y665839D02*
X368471D01*
X367666Y664362*
X368068*
X368337Y664178*
X368471Y663993*
X368605Y663440*
Y663071*
X368471Y662517*
X368202Y662148*
X367800Y661963*
X367397*
X366995Y662148*
X366860Y662332*
X366726Y662701*
X370618Y665839D02*
X370216Y665654D01*
X369947Y665101*
X369813Y664178*
Y663624*
X369947Y662701*
X370216Y662148*
X370618Y661963*
X370887*
X371289Y662148*
X371558Y662701*
X371692Y663624*
Y664178*
X371558Y665101*
X371289Y665654*
X370887Y665839*
X370618*
X349332Y632205D02*
X349063Y632020D01*
X348795Y631651*
X348660Y631282*
X348526Y630729*
Y629806*
X348660Y629252*
X348795Y628883*
X349063Y628514*
X349332Y628329*
X349868*
X350137Y628514*
X350405Y628883*
X350539Y629252*
X350674Y629806*
Y630729*
X350539Y631282*
X350405Y631651*
X350137Y632020*
X349868Y632205*
X349332*
X349734Y629068D02*
X350539Y627960D01*
X351882Y631467D02*
X352150Y631651D01*
X352553Y632205*
Y628329*
X234346Y501117D02*
Y497241D01*
Y501117D02*
X235286D01*
X235689Y500932*
X235957Y500563*
X236091Y500194*
X236225Y499641*
Y498718*
X236091Y498164*
X235957Y497795*
X235689Y497426*
X235286Y497241*
X234346*
X239312Y501117D02*
X237970Y497241D01*
X237433Y501117D02*
X239312D01*
X203228Y625009D02*
X207104D01*
X203228D02*
Y626217D01*
X203413Y626620*
X203597Y626754*
X203966Y626888*
X204335*
X204705Y626754*
X204889Y626620*
X205074Y626217*
Y625009*
Y625949D02*
X207104Y626888D01*
X203228Y628365D02*
Y629841D01*
X204705Y629036*
Y629438*
X204889Y629707*
X205074Y629841*
X205627Y629975*
X205996*
X206550Y629841*
X206919Y629573*
X207104Y629170*
Y628767*
X206919Y628365*
X206735Y628230*
X206365Y628096*
X203228Y632928D02*
Y631586D01*
X204889Y631452*
X204705Y631586*
X204520Y631988*
Y632391*
X204705Y632794*
X205074Y633062*
X205627Y633196*
X205996Y633062*
X206550Y632928*
X206919Y632660*
X207104Y632257*
Y631854*
X206919Y631452*
X206735Y631317*
X206365Y631183*
X294157Y570505D02*
X298033D01*
X294157D02*
Y571713D01*
X294342Y572116*
X294526Y572250*
X294896Y572384*
X295265*
X295634Y572250*
X295818Y572116*
X296003Y571713*
Y570505*
Y571445D02*
X298033Y572384D01*
X294157Y573861D02*
Y575337D01*
X295634Y574532*
Y574934*
X295818Y575203*
X296003Y575337*
X296556Y575471*
X296926*
X297479Y575337*
X297848Y575069*
X298033Y574666*
Y574263*
X297848Y573861*
X297664Y573726*
X297295Y573592*
X294157Y578558D02*
X298033Y577216D01*
X294157Y576679D02*
Y578558D01*
X321063Y609742D02*
Y605866D01*
Y609742D02*
X322003D01*
X322405Y609557*
X322674Y609188*
X322808Y608819*
X322942Y608265*
Y607343*
X322808Y606789*
X322674Y606420*
X322405Y606051*
X322003Y605866*
X321063*
X324821Y609742D02*
X324418Y609557D01*
X324284Y609188*
Y608819*
X324418Y608450*
X324687Y608265*
X325224Y608081*
X325626Y607896*
X325895Y607527*
X326029Y607158*
Y606604*
X325895Y606235*
X325761Y606051*
X325358Y605866*
X324821*
X324418Y606051*
X324284Y606235*
X324150Y606604*
Y607158*
X324284Y607527*
X324553Y607896*
X324955Y608081*
X325492Y608265*
X325761Y608450*
X325895Y608819*
Y609188*
X325761Y609557*
X325358Y609742*
X324821*
X419518Y264015D02*
Y260139D01*
Y264015D02*
X420726D01*
X421129Y263830*
X421263Y263646*
X421397Y263276*
Y262907*
X421263Y262538*
X421129Y262354*
X420726Y262169*
X419518*
X420458D02*
X421397Y260139D01*
X423948Y264015D02*
X422605Y261431D01*
X424619*
X423948Y264015D02*
Y260139D01*
X426632Y264015D02*
X426229Y263830D01*
X425961Y263276*
X425827Y262354*
Y261800*
X425961Y260877*
X426229Y260324*
X426632Y260139*
X426900*
X427303Y260324*
X427571Y260877*
X427706Y261800*
Y262354*
X427571Y263276*
X427303Y263830*
X426900Y264015*
X426632*
X419904Y279092D02*
Y275217D01*
Y279092D02*
X421112D01*
X421515Y278907*
X421649Y278723*
X421783Y278354*
Y277985*
X421649Y277616*
X421515Y277431*
X421112Y277247*
X419904*
X420844D02*
X421783Y275217D01*
X424333Y279092D02*
X422991Y276508D01*
X425004*
X424333Y279092D02*
Y275217D01*
X426212Y278354D02*
X426481Y278538D01*
X426883Y279092*
Y275217*
X233118Y654614D02*
X236993D01*
X233118D02*
Y655554D01*
X233302Y655956*
X233672Y656225*
X234041Y656359*
X234594Y656493*
X235517*
X236071Y656359*
X236440Y656225*
X236809Y655956*
X236993Y655554*
Y654614*
X233856Y657701D02*
X233672Y657970D01*
X233118Y658372*
X236993*
X233856Y659580D02*
X233672Y659849D01*
X233118Y660251*
X236993*
X204825Y600319D02*
X208701D01*
X204825D02*
Y601527D01*
X205010Y601929*
X205194Y602064*
X205563Y602198*
X205933*
X206302Y602064*
X206486Y601929*
X206671Y601527*
Y600319*
Y601258D02*
X208701Y602198D01*
X204825Y604748D02*
X207409Y603406D01*
Y605419*
X204825Y604748D02*
X208701D01*
X205748Y606761D02*
X205563D01*
X205194Y606895*
X205010Y607030*
X204825Y607298*
Y607835*
X205010Y608103*
X205194Y608238*
X205563Y608372*
X205933*
X206302Y608238*
X206855Y607969*
X208701Y606627*
Y608506*
X214765Y545990D02*
X218640D01*
X214765D02*
Y547197D01*
X214949Y547600*
X215134Y547734*
X215503Y547869*
X215872*
X216241Y547734*
X216426Y547600*
X216610Y547197*
Y545990*
Y546929D02*
X218640Y547869D01*
X214765Y550419D02*
X217349Y549076D01*
Y551090*
X214765Y550419D02*
X218640D01*
X214765Y552566D02*
Y554042D01*
X216241Y553237*
Y553640*
X216426Y553908*
X216610Y554042*
X217164Y554177*
X217533*
X218087Y554042*
X218456Y553774*
X218640Y553371*
Y552969*
X218456Y552566*
X218271Y552432*
X217902Y552298*
X195241Y502882D02*
X199117D01*
X195241D02*
Y504090D01*
X195426Y504492*
X195610Y504627*
X195979Y504761*
X196349*
X196718Y504627*
X196902Y504492*
X197087Y504090*
Y502882*
Y503821D02*
X199117Y504761D01*
X195241Y507714D02*
Y506372D01*
X196902Y506237*
X196718Y506372*
X196533Y506774*
Y507177*
X196718Y507579*
X197087Y507848*
X197640Y507982*
X198010Y507848*
X198563Y507714*
X198932Y507445*
X199117Y507043*
Y506640*
X198932Y506237*
X198748Y506103*
X198379Y505969*
X195241Y509995D02*
X195426Y509593D01*
X195979Y509324*
X196902Y509190*
X197456*
X198379Y509324*
X198932Y509593*
X199117Y509995*
Y510264*
X198932Y510666*
X198379Y510935*
X197456Y511069*
X196902*
X195979Y510935*
X195426Y510666*
X195241Y510264*
Y509995*
X215152Y473307D02*
X219028D01*
X215152D02*
Y474515D01*
X215337Y474918*
X215521Y475052*
X215890Y475186*
X216259*
X216628Y475052*
X216813Y474918*
X216998Y474515*
Y473307*
Y474247D02*
X219028Y475186D01*
X215152Y478139D02*
Y476797D01*
X216813Y476662*
X216628Y476797*
X216444Y477199*
Y477602*
X216628Y478005*
X216998Y478273*
X217551Y478407*
X217920Y478273*
X218474Y478139*
X218843Y477870*
X219028Y477468*
Y477065*
X218843Y476662*
X218658Y476528*
X218289Y476394*
X215890Y479615D02*
X215706Y479884D01*
X215152Y480286*
X219028*
X338589Y474221D02*
X338774Y473953D01*
X339143Y473684*
X339512Y473550*
X340065Y473416*
X340988*
X341542Y473550*
X341911Y473684*
X342280Y473953*
X342465Y474221*
Y474758*
X342280Y475027*
X341911Y475295*
X341542Y475429*
X340988Y475563*
X340065*
X339512Y475429*
X339143Y475295*
X338774Y475027*
X338589Y474758*
Y474221*
X341726Y474624D02*
X342834Y475429D01*
X338589Y478516D02*
Y477174D01*
X340250Y477040*
X340065Y477174*
X339881Y477577*
Y477979*
X340065Y478382*
X340435Y478650*
X340988Y478785*
X341357Y478650*
X341911Y478516*
X342280Y478248*
X342465Y477845*
Y477442*
X342280Y477040*
X342095Y476906*
X341726Y476771*
X379390Y478789D02*
Y474913D01*
Y478789D02*
X380598D01*
X381000Y478604*
X381135Y478420*
X381269Y478051*
Y477682*
X381135Y477313*
X381135D02*
X381000Y477128D01*
X380598Y476943*
X379390*
X380329D02*
X381269Y474913D01*
X384222Y478789D02*
X382879D01*
X382745Y477128*
X382879Y477313*
X382879D02*
X383282Y477497D01*
X383685*
X384087Y477313*
X384087D02*
X384356Y476943D01*
X384490Y476390*
X384356Y476021*
X384222Y475467*
X383953Y475098*
X383550Y474913*
X383148*
X382745Y475098*
X382611Y475282*
X382477Y475652*
X385832Y477866D02*
Y478051D01*
X385966Y478420*
X386101Y478604*
X386369Y478789*
X386906*
X387174Y478604*
X387309Y478420*
X387443Y478051*
Y477682*
X387309Y477313*
X387309D02*
X387040Y476759D01*
X385698Y474913*
X387577*
X328724Y511283D02*
X332600D01*
X328724D02*
Y512491D01*
X328909Y512894*
X329093Y513028*
X329462Y513162*
X329832*
X330201Y513028*
X330385Y512894*
X330570Y512491*
Y511283*
Y512223D02*
X332600Y513162D01*
X328724Y516115D02*
Y514773D01*
X330385Y514639*
X330201Y514773*
X330016Y515176*
Y515578*
X330201Y515981*
X330570Y516249*
X331123Y516384*
X331492Y516249*
X332046Y516115*
X332415Y515847*
X332600Y515444*
Y515042*
X332415Y514639*
X332231Y514505*
X331862Y514370*
X328724Y517860D02*
Y519336D01*
X330201Y518531*
Y518934*
X330385Y519202*
X330570Y519336*
X331123Y519471*
X331492*
X332046Y519336*
X332415Y519068*
X332600Y518665*
Y518263*
X332415Y517860*
X332231Y517726*
X331862Y517592*
X302511Y478163D02*
Y474287D01*
Y478163D02*
X303718D01*
X304121Y477978*
X304255Y477794*
X304390Y477425*
Y477056*
X304255Y476687*
X304121Y476502*
X303718Y476317*
X302511*
X303450D02*
X304390Y474287D01*
X307342Y478163D02*
X306000D01*
X305866Y476502*
X306000Y476687*
X306403Y476871*
X306805*
X307208Y476687*
X307476Y476317*
X307476D02*
X307611Y475764D01*
X307476Y475395*
X307476D02*
X307342Y474841D01*
X307074Y474472*
X306671Y474287*
X306269*
X305866Y474472*
X305732Y474656*
X305597Y475026*
X310563Y478163D02*
X309221D01*
X309087Y476502*
X309221Y476687*
X309624Y476871*
X310027*
X310429Y476687*
X310698Y476317*
X310832Y475764*
X310698Y475395*
X310563Y474841*
X310295Y474472*
X309892Y474287*
X309490*
X309087Y474472*
X308953Y474656*
X308819Y475026*
X252107Y472524D02*
X255983D01*
X252107D02*
Y473732D01*
X252292Y474134*
X252477Y474268*
X252846Y474403*
X253215*
X253584Y474268*
X253768Y474134*
X253953Y473732*
Y472524*
Y473463D02*
X255983Y474403D01*
X252107Y477355D02*
Y476013D01*
X253768Y475879*
X253584Y476013*
X253399Y476416*
Y476819*
X253584Y477221*
X253953Y477490*
X254507Y477624*
X254876Y477490*
X255429Y477355*
X255798Y477087*
X255983Y476684*
Y476282*
X255798Y475879*
X255614Y475745*
X255245Y475611*
X252661Y480442D02*
X252292Y480308D01*
X252107Y479906*
Y479637*
X252292Y479234*
X252846Y478966*
X253768Y478832*
X254691*
X255429Y478966*
X255798Y479234*
X255983Y479637*
Y479771*
X255798Y480174*
X255429Y480442*
X254876Y480577*
X254691*
X254137Y480442*
X253768Y480174*
X253584Y479771*
Y479637*
X253768Y479234*
X254137Y478966*
X254691Y478832*
X356114Y201190D02*
Y197315D01*
X357725*
X358933Y200452D02*
X359201Y200637D01*
X359604Y201190*
Y197315*
X262475Y440234D02*
Y436358D01*
Y440234D02*
X263683D01*
X264086Y440049*
X264220Y439865*
X264354Y439496*
Y439126*
X264220Y438757*
X264086Y438573*
X263683Y438388*
X262475*
X263415D02*
X264354Y436358D01*
X265830Y440234D02*
X267307D01*
X266502Y438757*
X266904*
X267173Y438573*
X267307Y438388*
X267441Y437835*
Y437466*
X267307Y436912*
X267038Y436543*
X266636Y436358*
X266233*
X265830Y436543*
X265696Y436727*
X265562Y437096*
X268917Y440234D02*
X270394D01*
X269589Y438757*
X269991*
X270260Y438573*
X270394Y438388*
X270528Y437835*
Y437466*
X270394Y436912*
X270125Y436543*
X269723Y436358*
X269320*
X268917Y436543*
X268783Y436727*
X268649Y437096*
X390627Y946251D02*
X394503D01*
X390627D02*
Y947459D01*
X390812Y947861*
X390996Y947995*
X391365Y948130*
X391734*
X392104Y947995*
X392288Y947861*
X392473Y947459*
Y946251*
Y947190D02*
X394503Y948130D01*
X391365Y949338D02*
X391181Y949606D01*
X390627Y950009*
X394503*
X391365Y951217D02*
X391181Y951485D01*
X390627Y951888*
X394503*
X478346Y1197997D02*
X477977Y1197863D01*
X477608Y1197595*
X477424Y1197326*
Y1196790*
X477608Y1196521*
X477977Y1196253*
X478346Y1196118*
X478900Y1195984*
X479823*
X480376Y1196118*
X480746Y1196253*
X481115Y1196521*
X481299Y1196790*
Y1197326*
X481115Y1197595*
X480746Y1197863*
X480376Y1197997*
X477424Y1199205D02*
X481299D01*
X477424D02*
X481299Y1201084D01*
X477424D02*
X481299D01*
X478162Y1202292D02*
X477977Y1202561D01*
X477424Y1202963*
X481299*
X477424Y1204440D02*
Y1205916D01*
X478900Y1205111*
Y1205514*
X479085Y1205782*
X479269Y1205916*
X479823Y1206050*
X480192*
X480746Y1205916*
X481115Y1205648*
X481299Y1205245*
Y1204843*
X481115Y1204440*
X480930Y1204306*
X480561Y1204171*
X130591Y1195152D02*
X130960Y1195286D01*
X131329Y1195555*
X131513Y1195823*
Y1196360*
X131329Y1196628*
X130960Y1196897*
X130591Y1197031*
X130037Y1197165*
X129114*
X128561Y1197031*
X128191Y1196897*
X127822Y1196628*
X127638Y1196360*
Y1195823*
X127822Y1195555*
X128191Y1195286*
X128561Y1195152*
X131513Y1193944D02*
X127638D01*
X131513D02*
X127638Y1192065D01*
X131513D02*
X127638D01*
X130960Y1189247D02*
X131329Y1189381D01*
X131513Y1189783*
Y1190052*
X131329Y1190455*
X130775Y1190723*
X129852Y1190857*
X128930*
X128191Y1190723*
X127822Y1190455*
X127638Y1190052*
Y1189918*
X127822Y1189515*
X128191Y1189247*
X128745Y1189112*
X128930*
X129483Y1189247*
X129852Y1189515*
X130037Y1189918*
Y1190052*
X129852Y1190455*
X129483Y1190723*
X128930Y1190857*
X327148Y1163386D02*
X329916D01*
X330470Y1163520*
X330839Y1163788*
X331024Y1164191*
Y1164460*
X330839Y1164862*
X330470Y1165131*
X329916Y1165265*
X327148*
Y1167144D02*
X327333Y1166741D01*
X327702Y1166607*
X328071*
X328440Y1166741*
X328625Y1167010*
X328809Y1167547*
X328994Y1167949*
X329363Y1168218*
X329732Y1168352*
X330285*
X330655Y1168218*
X330839Y1168083*
X331024Y1167681*
Y1167144*
X330839Y1166741*
X330655Y1166607*
X330285Y1166473*
X329732*
X329363Y1166607*
X328994Y1166875*
X328809Y1167278*
X328625Y1167815*
X328440Y1168083*
X328071Y1168218*
X327702*
X327333Y1168083*
X327148Y1167681*
Y1167144*
X222879Y1164331D02*
X222745Y1164700D01*
X222477Y1165069*
X222208Y1165253*
X221671*
X221403Y1165069*
X221135Y1164700*
X221000Y1164331*
X220866Y1163777*
Y1162854*
X221000Y1162301*
X221135Y1161932*
X221403Y1161563*
X221403D02*
X221671Y1161378D01*
X222208*
X222477Y1161563*
X222477D02*
X222745Y1161932D01*
X222879Y1162301*
X224087Y1165253D02*
Y1161378D01*
Y1165253D02*
X225966Y1161378D01*
Y1165253D02*
Y1161378D01*
X227174Y1164515D02*
X227443Y1164700D01*
X227845Y1165253*
Y1161378*
X230395Y1165253D02*
X229053Y1162670D01*
X231067*
X230395Y1165253D02*
Y1161378D01*
X280630Y1136907D02*
Y1134139D01*
X280764Y1133585*
X281033Y1133216*
X281435Y1133031*
X281704*
X282106Y1133216*
X282375Y1133585*
X282509Y1134139*
Y1136907*
X285462Y1135615D02*
X285327Y1135062D01*
X285059Y1134692*
X284656Y1134508*
X284522*
X284120Y1134692*
X283851Y1135062*
X283717Y1135615*
Y1135800*
X283851Y1136353*
X284120Y1136722*
X284522Y1136907*
X284656*
X285059Y1136722*
X285327Y1136353*
X285462Y1135615*
Y1134692*
X285327Y1133770*
X285059Y1133216*
X284656Y1133031*
X284388*
X283985Y1133216*
X283851Y1133585*
X188819Y1199663D02*
Y1196895D01*
X188953Y1196341*
X189222Y1195972*
X189624Y1195787*
X189893*
X190295Y1195972*
X190564Y1196341*
X190698Y1196895*
Y1199663*
X191906Y1198925D02*
X192174Y1199109D01*
X192577Y1199663*
Y1195787*
X175906Y1142379D02*
Y1138504D01*
Y1142379D02*
X177113D01*
X177516Y1142195*
X177650Y1142010*
X177785Y1141641*
Y1141272*
X177650Y1140903*
X177516Y1140719*
X177113Y1140534*
X175906*
X176845D02*
X177785Y1138504D01*
X178992Y1141641D02*
X179261Y1141826D01*
X179664Y1142379*
Y1138504*
X182616Y1141088D02*
X182482Y1140534D01*
X182214Y1140165*
X181811Y1139980*
X181677*
X181274Y1140165*
X181006Y1140534*
X180872Y1141088*
Y1141272*
X181006Y1141826*
X181274Y1142195*
X181677Y1142379*
X181811*
X182214Y1142195*
X182482Y1141826*
X182616Y1141088*
Y1140165*
X182482Y1139242*
X182214Y1138688*
X181811Y1138504*
X181543*
X181140Y1138688*
X181006Y1139058*
X174882Y1155293D02*
Y1151417D01*
Y1155293D02*
X176090D01*
X176492Y1155108*
X176627Y1154924*
X176761Y1154555*
Y1154186*
X176627Y1153816*
X176492Y1153632*
X176090Y1153447*
X174882*
X175821D02*
X176761Y1151417D01*
X178103Y1154370D02*
Y1154555D01*
X178237Y1154924*
X178372Y1155108*
X178640Y1155293*
X179177*
X179445Y1155108*
X179579Y1154924*
X179714Y1154555*
Y1154186*
X179579Y1153816*
X179311Y1153263*
X177969Y1151417*
X179848*
X181861Y1155293D02*
X181458Y1155108D01*
X181190Y1154555*
X181056Y1153632*
Y1153078*
X181190Y1152156*
X181458Y1151602*
X181861Y1151417*
X182130*
X182532Y1151602*
X182801Y1152156*
X182935Y1153078*
Y1153632*
X182801Y1154555*
X182532Y1155108*
X182130Y1155293*
X181861*
X247677Y1196001D02*
Y1192126D01*
Y1196001D02*
X248885D01*
X249288Y1195817*
X249422Y1195632*
X249556Y1195263*
Y1194894*
X249422Y1194525*
X249288Y1194341*
X248885Y1194156*
X247677*
X248617D02*
X249556Y1192126D01*
X250898Y1195079D02*
Y1195263D01*
X251033Y1195632*
X251167Y1195817*
X251435Y1196001*
X251972*
X252241Y1195817*
X252375Y1195632*
X252509Y1195263*
Y1194894*
X252375Y1194525*
X252106Y1193971*
X250764Y1192126*
X252643*
X253851Y1195263D02*
X254120Y1195448D01*
X254522Y1196001*
Y1192126*
X289803Y1185923D02*
Y1182047D01*
Y1185923D02*
X291011D01*
X291414Y1185738*
X291548Y1185554*
X291682Y1185185*
Y1184815*
X291548Y1184446*
X291414Y1184262*
X291011Y1184077*
X289803*
X290743D02*
X291682Y1182047D01*
X293024Y1185000D02*
Y1185185D01*
X293159Y1185554*
X293293Y1185738*
X293561Y1185923*
X294098*
X294366Y1185738*
X294366D02*
X294501Y1185554D01*
X294635Y1185185*
Y1184815*
X294501Y1184446*
X294232Y1183893*
X292890Y1182047*
X294769*
X296111Y1185000D02*
Y1185185D01*
X296246Y1185554*
X296380Y1185738*
X296648Y1185923*
X297185*
X297453Y1185738*
X297588Y1185554*
X297722Y1185185*
Y1184815*
X297588Y1184446*
X297319Y1183893*
X295977Y1182047*
X297856*
X313150Y1159309D02*
Y1155433D01*
Y1159309D02*
X314358D01*
X314760Y1159124*
X314894Y1158939*
X315029Y1158570*
Y1158201*
X314894Y1157832*
X314760Y1157648*
X314358Y1157463*
X313150*
X314089D02*
X315029Y1155433D01*
X316371Y1158386D02*
Y1158570D01*
X316505Y1158939*
X316639Y1159124*
X316908Y1159309*
X317445*
X317713Y1159124*
X317847Y1158939*
X317981Y1158570*
Y1158201*
X317847Y1157832*
X317579Y1157279*
X316237Y1155433*
X318116*
X319592Y1159309D02*
X321068D01*
X320263Y1157832*
X320666*
X320934Y1157648*
X321068Y1157463*
X321203Y1156909*
Y1156540*
X321068Y1155987*
X320800Y1155618*
X320397Y1155433*
X319995*
X319592Y1155618*
X319458Y1155802*
X319324Y1156171*
X301654Y1207616D02*
Y1203740D01*
Y1207616D02*
X302861D01*
X303264Y1207431*
X303398Y1207247*
X303533Y1206877*
Y1206508*
X303398Y1206139*
X303264Y1205955*
X302861Y1205770*
X301654*
X302593D02*
X303533Y1203740D01*
X304875Y1206693D02*
Y1206877D01*
X305009Y1207247*
X305143Y1207431*
X305412Y1207616*
X305948*
X306217Y1207431*
X306351Y1207247*
X306485Y1206877*
Y1206508*
X306351Y1206139*
X306083Y1205586*
X304741Y1203740*
X306620*
X309170Y1207616D02*
X307827Y1205032D01*
X309841*
X309170Y1207616D02*
Y1203740D01*
X405827Y1198954D02*
Y1195079D01*
Y1198954D02*
X407035D01*
X407437Y1198770*
X407572Y1198585*
X407706Y1198216*
Y1197847*
X407572Y1197478*
X407437Y1197293*
X407035Y1197109*
X405827*
X406766D02*
X407706Y1195079D01*
X409048Y1198031D02*
Y1198216D01*
X409182Y1198585*
X409316Y1198770*
X409585Y1198954*
X410122*
X410390Y1198770*
X410524Y1198585*
X410659Y1198216*
Y1197847*
X410524Y1197478*
X410256Y1196924*
X408914Y1195079*
X410793*
X413746Y1198954D02*
X412403D01*
X412269Y1197293*
X412403Y1197478*
X412806Y1197662*
X413209*
X413611Y1197478*
X413880Y1197109*
X414014Y1196555*
X413880Y1196186*
X413746Y1195632*
X413477Y1195263*
X413074Y1195079*
X412672*
X412269Y1195263*
X412135Y1195448*
X412001Y1195817*
X405827Y1159860D02*
Y1155984D01*
Y1159860D02*
X407035D01*
X407437Y1159675*
X407572Y1159491*
X407706Y1159122*
Y1158752*
X407572Y1158383*
X407437Y1158199*
X407035Y1158014*
X405827*
X406766D02*
X407706Y1155984D01*
X409048Y1158937D02*
Y1159122D01*
X409182Y1159491*
X409316Y1159675*
X409585Y1159860*
X410122*
X410390Y1159675*
X410524Y1159491*
X410659Y1159122*
Y1158752*
X410524Y1158383*
X410256Y1157830*
X408914Y1155984*
X410793*
X413611Y1159306D02*
X413477Y1159675D01*
X413074Y1159860*
X412806*
X412403Y1159675*
X412135Y1159122*
X412001Y1158199*
Y1157276*
X412135Y1156538*
X412403Y1156169*
X412806Y1155984*
X412940*
X413343Y1156169*
X413611Y1156538*
X413746Y1157092*
Y1157276*
X413611Y1157830*
X413343Y1158199*
X412940Y1158383*
X412806*
X412403Y1158199*
X412135Y1157830*
X412001Y1157276*
X285630Y1099190D02*
Y1095315D01*
Y1099190D02*
X286838D01*
X287241Y1099006*
X287375Y1098821*
X287509Y1098452*
Y1098083*
X287375Y1097714*
X287241Y1097530*
X286838Y1097345*
X285630*
X286569D02*
X287509Y1095315D01*
X290059Y1099190D02*
X288717Y1096607D01*
X290730*
X290059Y1099190D02*
Y1095315D01*
X293549Y1098637D02*
X293414Y1099006D01*
X293012Y1099190*
X292743*
X292341Y1099006*
X292072Y1098452*
X291938Y1097530*
Y1096607*
X292072Y1095869*
X292341Y1095500*
X292743Y1095315*
X292878*
X293280Y1095500*
X293549Y1095869*
X293683Y1096422*
Y1096607*
X293549Y1097160*
X293280Y1097530*
X292878Y1097714*
X292743*
X292341Y1097530*
X292072Y1097160*
X291938Y1096607*
X259724Y1159112D02*
Y1155236D01*
Y1159112D02*
X260932D01*
X261335Y1158927*
X261469Y1158743*
X261603Y1158374*
Y1158004*
X261469Y1157635*
X261335Y1157451*
X260932Y1157266*
X259724*
X260664D02*
X261603Y1155236D01*
X264154Y1159112D02*
X262811Y1156528D01*
X264825*
X264154Y1159112D02*
Y1155236D01*
X267912Y1159112D02*
X266569Y1155236D01*
X266033Y1159112D02*
X267912D01*
X287323Y1158797D02*
Y1154921D01*
Y1158797D02*
X288531D01*
X288933Y1158612*
X289068Y1158428*
X289202Y1158059*
Y1157689*
X289068Y1157320*
X288933Y1157136*
X288531Y1156951*
X287323*
X288262D02*
X289202Y1154921D01*
X291752Y1158797D02*
X290410Y1156213D01*
X292423*
X291752Y1158797D02*
Y1154921D01*
X294302Y1158797D02*
X293899Y1158612D01*
X293765Y1158243*
Y1157874*
X293899Y1157505*
X294168Y1157320*
X294705Y1157136*
X295107Y1156951*
X295376Y1156582*
X295510Y1156213*
Y1155659*
X295376Y1155290*
X295242Y1155106*
X294839Y1154921*
X294302*
X293899Y1155106*
X293765Y1155290*
X293631Y1155659*
Y1156213*
X293765Y1156582*
X294034Y1156951*
X294436Y1157136*
X294973Y1157320*
X295242Y1157505*
X295376Y1157874*
Y1158243*
X295242Y1158612*
X294839Y1158797*
X294302*
X276294Y1224230D02*
Y1220354D01*
X275354Y1224230D02*
X277233D01*
X278441D02*
Y1220354D01*
Y1224230D02*
X279649D01*
X280052Y1224045*
X280186Y1223861*
X280320Y1223492*
Y1222938*
X280186Y1222569*
X280052Y1222384*
X279649Y1222200*
X278441*
X281528Y1223492D02*
X281797Y1223676D01*
X282199Y1224230*
Y1220354*
X283407Y1223492D02*
X283676Y1223676D01*
X284078Y1224230*
Y1220354*
X290472Y1171946D02*
Y1168071D01*
Y1171946D02*
X291680D01*
X292083Y1171762*
X292217Y1171577*
X292351Y1171208*
Y1170839*
X292217Y1170470*
X292083Y1170285*
X291680Y1170101*
X290472*
X291412D02*
X292351Y1168071D01*
X293559Y1171208D02*
X293828Y1171393D01*
X294230Y1171946*
Y1168071*
X296110Y1171946D02*
X295707Y1171762D01*
X295573Y1171393*
Y1171024*
X295707Y1170655*
X295975Y1170470*
X296512Y1170285*
X296915Y1170101*
X297183Y1169732*
X297317Y1169363*
Y1168809*
X297183Y1168440*
X297049Y1168255*
X296646Y1168071*
X296110*
X295707Y1168255*
X295573Y1168440*
X295438Y1168809*
Y1169363*
X295573Y1169732*
X295841Y1170101*
X296244Y1170285*
X296781Y1170470*
X297049Y1170655*
X297183Y1171024*
Y1171393*
X297049Y1171762*
X296646Y1171946*
X296110*
X260506Y1139190D02*
Y1135315D01*
X259567Y1139190D02*
X261446D01*
X262654D02*
Y1135315D01*
Y1139190D02*
X263862D01*
X264264Y1139006*
X264399Y1138821*
X264533Y1138452*
Y1137899*
X264399Y1137530*
X264264Y1137345*
X263862Y1137160*
X262654*
X265741Y1138452D02*
X266009Y1138637D01*
X266412Y1139190*
Y1135315*
X267754Y1138268D02*
Y1138452D01*
X267888Y1138821*
X268023Y1139006*
X268291Y1139190*
X268828*
X269096Y1139006*
X269230Y1138821*
X269365Y1138452*
Y1138083*
X269230Y1137714*
X268962Y1137160*
X267620Y1135315*
X269499*
X145710Y241899D02*
X149585D01*
X145710D02*
Y243107D01*
X145894Y243510*
X146079Y243644*
X146448Y243778*
X146817*
X147186Y243644*
X147371Y243510*
X147555Y243107*
Y241899*
Y242838D02*
X149585Y243778D01*
X145710Y245254D02*
Y246731D01*
X147186Y245925*
Y246328*
X147371Y246597*
X147555Y246731*
X148109Y246865*
X148478*
X149032Y246731*
X149401Y246462*
X149585Y246060*
Y245657*
X149401Y245254*
X149216Y245120*
X148847Y244986*
X227796Y322371D02*
X231672D01*
X227796D02*
Y323579D01*
X227981Y323982*
X228166Y324116*
X228535Y324250*
X228904*
X229273Y324116*
X229457Y323982*
X229642Y323579*
Y322371*
Y323311D02*
X231672Y324250D01*
X227796Y326801D02*
X230380Y325458D01*
Y327472*
X227796Y326801D02*
X231672D01*
X175136Y250932D02*
Y248164D01*
X175271Y247610*
X175539Y247241*
X175942Y247056*
X176210*
X176613Y247241*
X176881Y247610*
X177016Y248164*
Y250932*
X178223Y250194D02*
X178492Y250378D01*
X178895Y250932*
Y247056*
X180237Y250009D02*
Y250194D01*
X180371Y250563*
X180505Y250747*
X180774Y250932*
X181310*
X181579Y250747*
X181713Y250563*
X181847Y250194*
Y249825*
X181713Y249456*
X181445Y248902*
X180102Y247056*
X181982*
X153089Y316567D02*
Y320442D01*
Y316567D02*
X152150D01*
X151747Y316751*
X151479Y317120*
X151344Y317490*
X151344D02*
X151210Y318043D01*
Y318966*
X151344Y319520*
X151479Y319889*
X151747Y320258*
X152150Y320442*
X153089*
X150002Y317305D02*
X149734Y317120D01*
X149331Y316567*
Y320442*
X147989Y317490D02*
Y317305D01*
X147855Y316936*
X147721Y316751*
X147452Y316567*
X146915*
X146647Y316751*
X146513Y316936*
X146378Y317305*
Y317674*
X146513Y318043*
X146781Y318597*
X148123Y320442*
X146244*
X278286Y677931D02*
X278017Y677746D01*
X277749Y677377*
X277615Y677008*
X277480Y676454*
Y675531*
X277615Y674978*
X277749Y674609*
X278017Y674240*
X278286Y674055*
X278822*
X279091Y674240*
X279359Y674609*
X279494Y674978*
X279628Y675531*
Y676454*
X279494Y677008*
X279359Y677377*
X279091Y677746*
X278822Y677931*
X278286*
X278688Y674793D02*
X279494Y673686D01*
X282446Y677377D02*
X282312Y677746D01*
X281909Y677931*
X281641*
X281238Y677746*
X280970Y677192*
X280836Y676270*
Y675347*
X280970Y674609*
X281238Y674240*
X281641Y674055*
X281775*
X282178Y674240*
X282446Y674609*
X282581Y675162*
Y675347*
X282446Y675901*
X282178Y676270*
X281775Y676454*
X281641*
X281238Y676270*
X280970Y675901*
X280836Y675347*
X419782Y187467D02*
Y183592D01*
Y187467D02*
X420990D01*
X421393Y187283*
X421527Y187098*
X421661Y186729*
Y186360*
X421527Y185991*
X421393Y185806*
X420990Y185622*
X419782*
X420722D02*
X421661Y183592D01*
X424211Y187467D02*
X422869Y184884D01*
X424882*
X424211Y187467D02*
Y183592D01*
X427835Y186176D02*
X427701Y185622D01*
X427432Y185253*
X427030Y185068*
X426896*
X426493Y185253*
X426225Y185622*
X426090Y186176*
Y186360*
X426225Y186914*
X426493Y187283*
X426896Y187467*
X427030*
X427432Y187283*
X427701Y186914*
X427835Y186176*
Y185253*
X427701Y184330*
X427432Y183776*
X427030Y183592*
X426761*
X426359Y183776*
X426225Y184146*
X419782Y202152D02*
Y198277D01*
Y202152D02*
X420990D01*
X421393Y201968*
X421527Y201783*
X421661Y201414*
Y201045*
X421527Y200676*
X421393Y200491*
X420990Y200307*
X419782*
X420722D02*
X421661Y198277D01*
X424614Y202152D02*
X423272D01*
X423138Y200491*
X423272Y200676*
X423674Y200861*
X424077*
X424480Y200676*
X424748Y200307*
X424882Y199753*
X424748Y199384*
X424614Y198831*
X424346Y198461*
X424346D02*
X423943Y198277D01*
X423540*
X423138Y198461*
X423003Y198646*
X422869Y199015*
X427969Y202152D02*
X426627Y198277D01*
X426090Y202152D02*
X427969D01*
X420255Y247074D02*
Y243198D01*
Y247074D02*
X421463D01*
X421865Y246889*
X421999Y246705*
X422134Y246335*
Y245966*
X421999Y245597*
X421865Y245413*
X421463Y245228*
X420255*
X421194D02*
X422134Y243198D01*
X425086Y247074D02*
X423744D01*
X423610Y245413*
X423744Y245597*
X424147Y245782*
X424550*
X424952Y245597*
X425221Y245228*
X425355Y244675*
X425221Y244305*
X425086Y243752*
X424818Y243383*
X424415Y243198*
X424013*
X423610Y243383*
X423476Y243567*
X423342Y243936*
X427234Y247074D02*
X426831Y246889D01*
X426697Y246520*
Y246151*
X426831Y245782*
X427100Y245597*
X427636Y245413*
X428039Y245228*
X428308Y244859*
X428442Y244490*
Y243936*
X428308Y243567*
X428173Y243383*
X427771Y243198*
X427234*
X426831Y243383*
X426697Y243567*
X426563Y243936*
Y244490*
X426697Y244859*
X426965Y245228*
X427368Y245413*
X427905Y245597*
X428173Y245782*
X428308Y246151*
Y246520*
X428173Y246889*
X427771Y247074*
X427234*
X420255Y232822D02*
Y228946D01*
Y232822D02*
X421463D01*
X421865Y232637*
X421999Y232453*
X422134Y232084*
X422134D02*
Y231714D01*
X421999Y231345*
X421865Y231161*
X421463Y230976*
X420255*
X421194D02*
X422134Y228946D01*
X425086Y232822D02*
X423744D01*
X423610Y231161*
X423744Y231345*
X424147Y231530*
X424550*
X424952Y231345*
X425221Y230976*
X425355Y230423*
X425221Y230053*
X425086Y229500*
X424818Y229131*
X424415Y228946*
X424013*
X423610Y229131*
X423476Y229315*
X423342Y229684*
X428308Y231530D02*
X428173Y230976D01*
X427905Y230607*
X427502Y230423*
X427368*
X426965Y230607*
X426697Y230976*
X426563Y231530*
Y231714*
X426697Y232268*
X426965Y232637*
X427368Y232822*
X427502*
X427905Y232637*
X428173Y232268*
X428308Y231530*
Y230607*
X428173Y229684*
X427905Y229131*
X427502Y228946*
X427234*
X426831Y229131*
X426697Y229500*
X304094Y679742D02*
Y675866D01*
Y679742D02*
X305302D01*
X305705Y679557*
X305839Y679373*
X305974Y679003*
Y678634*
X305839Y678265*
X305705Y678081*
X305302Y677896*
X304094*
X305034D02*
X305974Y675866D01*
X308792Y679188D02*
X308658Y679557D01*
X308255Y679742*
X307987*
X307584Y679557*
X307316Y679003*
X307181Y678081*
Y677158*
X307316Y676420*
X307584Y676051*
X307987Y675866*
X308121*
X308524Y676051*
X308792Y676420*
X308926Y676973*
Y677158*
X308792Y677712*
X308524Y678081*
X308121Y678265*
X307987*
X307584Y678081*
X307316Y677712*
X307181Y677158*
X310940Y679742D02*
X310537Y679557D01*
X310268Y679003*
X310134Y678081*
Y677527*
X310268Y676604*
X310537Y676051*
X310940Y675866*
X311208*
X311611Y676051*
X311879Y676604*
X312013Y677527*
Y678081*
X311879Y679003*
X311611Y679557*
X311208Y679742*
X310940*
X265787Y638797D02*
Y634921D01*
Y638797D02*
X266995D01*
X267398Y638612*
X267532Y638428*
X267666Y638059*
Y637689*
X267532Y637320*
X267398Y637136*
X266995Y636951*
X265787*
X266727D02*
X267666Y634921D01*
X270485Y638243D02*
X270351Y638612D01*
X269948Y638797*
X269680*
X269277Y638612*
X269009Y638059*
X268874Y637136*
Y636213*
X269009Y635475*
X269277Y635106*
X269680Y634921*
X269814*
X270217Y635106*
X270485Y635475*
X270619Y636029*
Y636213*
X270485Y636767*
X270217Y637136*
X269814Y637320*
X269680*
X269277Y637136*
X269009Y636767*
X268874Y636213*
X271827Y638059D02*
X272096Y638243D01*
X272498Y638797*
Y634921*
X230862Y301505D02*
X226987D01*
X230862D02*
Y300297D01*
X230678Y299895*
X230493Y299760*
X230124Y299626*
X229755*
X229386Y299760*
X229201Y299895*
X229017Y300297*
Y301505*
Y300566D02*
X226987Y299626D01*
X230309Y296808D02*
X230678Y296942D01*
X230862Y297345*
Y297613*
X230678Y298016*
X230124Y298284*
X229201Y298418*
X228279*
X227541Y298284*
X227171Y298016*
X226987Y297613*
Y297479*
X227171Y297076*
X227541Y296808*
X228094Y296673*
X228279*
X228832Y296808*
X229201Y297076*
X229386Y297479*
Y297613*
X229201Y298016*
X228832Y298284*
X228279Y298418*
X229940Y295331D02*
X230124D01*
X230493Y295197*
X230678Y295063*
X230862Y294794*
Y294258*
X230678Y293989*
X230493Y293855*
X230124Y293721*
X229755*
X229386Y293855*
X228832Y294123*
X226987Y295466*
Y293586*
X179371Y321466D02*
X183247D01*
X179371D02*
Y322674D01*
X179556Y323076*
X179740Y323211*
X180109Y323345*
X180479*
X180848Y323211*
X181032Y323076*
X181217Y322674*
Y321466*
Y322405D02*
X183247Y323345D01*
X179925Y326163D02*
X179556Y326029D01*
X179371Y325627*
Y325358*
X179556Y324956*
X179556D02*
X180109Y324687D01*
X181032Y324553*
X181955*
X182693Y324687*
X183062Y324956*
X183062D02*
X183247Y325358D01*
Y325492*
X183062Y325895*
X182693Y326163*
X182139Y326298*
X181955*
X181401Y326163*
X181032Y325895*
X180848Y325492*
Y325358*
X181032Y324956*
X181032D02*
X181401Y324687D01*
X181955Y324553*
X179371Y327774D02*
Y329250D01*
X180848Y328445*
Y328848*
X181032Y329116*
X181217Y329250*
X181770Y329385*
X182139*
X182693Y329250*
X183062Y328982*
X183247Y328579*
Y328177*
X183062Y327774*
X182878Y327640*
X182509Y327506*
X362985Y967320D02*
X366861D01*
X362985D02*
Y968528D01*
X363170Y968931*
X363354Y969065*
X363724Y969199*
X364093*
X364462Y969065*
X364646Y968931*
X364831Y968528*
Y967320*
Y968260D02*
X366861Y969199D01*
X363724Y970407D02*
X363539Y970676D01*
X362985Y971078*
X366861*
X362985Y974031D02*
Y972689D01*
X364646Y972555*
X364462Y972689*
X364277Y973092*
Y973494*
X364462Y973897*
X364831Y974165*
X365385Y974299*
X365754Y974165*
X366307Y974031*
X366676Y973763*
X366861Y973360*
Y972957*
X366676Y972555*
X366492Y972420*
X366123Y972286*
X364961Y868391D02*
X364592Y868257D01*
X364222Y867989*
X364038Y867720*
Y867183*
X364222Y866915*
X364592Y866646*
X364961Y866512*
X365514Y866378*
X366437*
X366991Y866512*
X367360Y866646*
X367729Y866915*
X367913Y867183*
Y867720*
X367729Y867989*
X367360Y868257*
X366991Y868391*
X364776Y869599D02*
X364592Y869868D01*
X364038Y870270*
X367913*
X364038Y871747D02*
Y873223D01*
X365514Y872418*
Y872820*
X365699Y873089*
X365883Y873223*
X366437Y873357*
X366806*
X367360Y873223*
X367729Y872955*
X367913Y872552*
Y872149*
X367729Y871747*
X367544Y871612*
X367175Y871478*
X415669Y915045D02*
X415300Y914911D01*
X414931Y914642*
X414747Y914374*
Y913837*
X414931Y913568*
X415300Y913300*
X415669Y913166*
X416223Y913031*
X417146*
X417699Y913166*
X418068Y913300*
X418437Y913568*
X418437D02*
X418622Y913837D01*
Y914374*
X418437Y914642*
X418437D02*
X418068Y914911D01*
X417699Y915045*
X415485Y916253D02*
X415300Y916521D01*
X414747Y916924*
X418622*
X414747Y919474D02*
X417330Y918132D01*
Y920145*
X414747Y919474D02*
X418622D01*
X461079Y844441D02*
X460710Y844307D01*
X460341Y844038*
X460156Y843770*
Y843233*
X460341Y842965*
X460710Y842696*
X461079Y842562*
X461632Y842428*
X462555*
X463109Y842562*
X463478Y842696*
X463847Y842965*
X464031Y843233*
Y843770*
X463847Y844038*
X463478Y844307*
X463109Y844441*
X460894Y845649D02*
X460710Y845917D01*
X460156Y846320*
X464031*
X460156Y849273D02*
Y847931D01*
X461817Y847796*
X461632Y847931*
X461448Y848333*
Y848736*
X461632Y849139*
X462001Y849407*
X462555Y849541*
X462924Y849407*
X463478Y849273*
X463847Y849004*
X464031Y848602*
Y848199*
X463847Y847796*
X463662Y847662*
X463293Y847528*
X422395Y983816D02*
X422026Y983682D01*
X421657Y983414*
X421472Y983145*
Y982608*
X421657Y982340*
X422026Y982072*
X422395Y981937*
X422949Y981803*
X423871*
X424425Y981937*
X424794Y982072*
X425163Y982340*
X425348Y982608*
Y983145*
X425163Y983414*
X424794Y983682*
X424425Y983816*
X422210Y985024D02*
X422026Y985293D01*
X421472Y985695*
X425348*
X422026Y988514D02*
X421657Y988380D01*
X421472Y987977*
Y987709*
X421657Y987306*
X422210Y987038*
X423133Y986903*
X424056*
X424794Y987038*
X425163Y987306*
X425348Y987709*
Y987843*
X425163Y988246*
X424794Y988514*
X424240Y988648*
X424056*
X423502Y988514*
X423133Y988246*
X422949Y987843*
Y987709*
X423133Y987306*
X423502Y987038*
X424056Y986903*
X361310Y1024217D02*
X360941Y1024082D01*
X360572Y1023814*
X360387Y1023546*
Y1023009*
X360572Y1022740*
X360941Y1022472*
X361310Y1022338*
X361863Y1022203*
X362786*
X363340Y1022338*
X363709Y1022472*
X364078Y1022740*
X364262Y1023009*
Y1023546*
X364078Y1023814*
X363709Y1024082*
X363340Y1024217*
X361125Y1025425D02*
X360941Y1025693D01*
X360387Y1026096*
X364262*
X360387Y1029183D02*
X364262Y1027840D01*
X360387Y1027304D02*
Y1029183D01*
X422909Y844194D02*
X422540Y844060D01*
X422171Y843792*
X421987Y843523*
Y842986*
X422171Y842718*
X422540Y842450*
X422909Y842315*
X423463Y842181*
X424386*
X424939Y842315*
X425309Y842450*
X425678Y842718*
X425862Y842986*
Y843523*
X425678Y843792*
X425309Y844060*
X424939Y844194*
X422725Y845402D02*
X422540Y845671D01*
X421987Y846073*
X425862*
X421987Y847952D02*
X422171Y847550D01*
X422540Y847416*
X422909*
X423279Y847550*
X423463Y847818*
X423648Y848355*
X423832Y848758*
X424201Y849026*
X424570Y849160*
X425124*
X425493Y849026*
X425678Y848892*
X425862Y848489*
Y847952*
X425678Y847550*
X425493Y847416*
X425124Y847281*
X424570*
X424201Y847416*
X423832Y847684*
X423648Y848087*
X423463Y848623*
X423279Y848892*
X422909Y849026*
X422540*
X422171Y848892*
X421987Y848489*
Y847952*
X200950Y1218346D02*
X200816Y1218716D01*
X200548Y1219085*
X200279Y1219269*
X199742*
X199474Y1219085*
X199205Y1218716*
X199071Y1218346*
X198937Y1217793*
Y1216870*
X199071Y1216316*
X199205Y1215947*
X199474Y1215578*
X199742Y1215394*
X200279*
X200548Y1215578*
X200816Y1215947*
X200950Y1216316*
X202158Y1218531D02*
X202427Y1218716D01*
X202829Y1219269*
Y1215394*
X205782Y1217977D02*
X205648Y1217424D01*
X205379Y1217055*
X204977Y1216870*
X204843*
X204440Y1217055*
X204171Y1217424*
X204037Y1217977*
Y1218162*
X204171Y1218716*
X204440Y1219085*
X204843Y1219269*
X204977*
X205379Y1219085*
X205648Y1218716*
X205782Y1217977*
Y1217055*
X205648Y1216132*
X205379Y1215578*
X204977Y1215394*
X204708*
X204306Y1215578*
X204171Y1215947*
X363273Y1130157D02*
X363139Y1130527D01*
X362870Y1130896*
X362602Y1131080*
X362065*
X361797Y1130896*
X361528Y1130527*
X361394Y1130157*
X361260Y1129604*
Y1128681*
X361394Y1128127*
X361528Y1127758*
X361797Y1127389*
X362065Y1127205*
X362602*
X362870Y1127389*
X363139Y1127758*
X363273Y1128127*
X364615Y1130157D02*
Y1130342D01*
X364749Y1130711*
X364884Y1130896*
X365152Y1131080*
X365689*
X365957Y1130896*
X366092Y1130711*
X366226Y1130342*
Y1129973*
X366092Y1129604*
X365823Y1129050*
X364481Y1127205*
X366360*
X368373Y1131080D02*
X367971Y1130896D01*
X367702Y1130342*
X367568Y1129419*
Y1128866*
X367702Y1127943*
X367971Y1127389*
X368373Y1127205*
X368642*
X369044Y1127389*
X369313Y1127943*
X369447Y1128866*
Y1129419*
X369313Y1130342*
X369044Y1130896*
X368642Y1131080*
X368373*
X177407Y1128583D02*
X177273Y1128952D01*
X177004Y1129321*
X176736Y1129505*
X176199*
X175931Y1129321*
X175662Y1128952*
X175528Y1128583*
X175394Y1128029*
Y1127106*
X175528Y1126553*
X175662Y1126184*
X175931Y1125814*
X176199Y1125630*
X176736*
X177004Y1125814*
X177273Y1126184*
X177407Y1126553*
X178749Y1128583D02*
Y1128767D01*
X178883Y1129136*
X179018Y1129321*
X179286Y1129505*
X179823*
X180091Y1129321*
X180225Y1129136*
X180360Y1128767*
Y1128398*
X180225Y1128029*
X179957Y1127475*
X178615Y1125630*
X180494*
X181702Y1128767D02*
X181970Y1128952D01*
X182373Y1129505*
Y1125630*
X176620Y1167520D02*
X176485Y1167889D01*
X176217Y1168258*
X175948Y1168442*
X175412*
X175143Y1168258*
X174875Y1167889*
X174741Y1167520*
X174606Y1166966*
Y1166043*
X174741Y1165490*
X174875Y1165121*
X175143Y1164751*
X175412Y1164567*
X175948*
X176217Y1164751*
X176485Y1165121*
X176620Y1165490*
X177962Y1167520D02*
Y1167704D01*
X178096Y1168073*
X178230Y1168258*
X178499Y1168442*
X179035*
X179304Y1168258*
X179438Y1168073*
X179572Y1167704*
Y1167335*
X179438Y1166966*
X179170Y1166412*
X177827Y1164567*
X179707*
X181049Y1167520D02*
Y1167704D01*
X181183Y1168073*
X181317Y1168258*
X181586Y1168442*
X182122*
X182391Y1168258*
X182525Y1168073*
X182659Y1167704*
Y1167335*
X182525Y1166966*
X182257Y1166412*
X180914Y1164567*
X182793*
X328701Y540123D02*
X328332Y539989D01*
X327963Y539721*
X327778Y539452*
Y538916*
X327963Y538647*
X328332Y538379*
X328701Y538244*
X329254Y538110*
X330177*
X330731Y538244*
X331100Y538379*
X331469Y538647*
X331654Y538916*
Y539452*
X331469Y539721*
X331100Y539989*
X330731Y540123*
X328701Y541466D02*
X328516D01*
X328147Y541600*
X327963Y541734*
X327778Y542003*
Y542539*
X327963Y542808*
X328147Y542942*
X328516Y543076*
X328885*
X329254Y542942*
X329808Y542674*
X331654Y541331*
Y543210*
X327778Y544687D02*
Y546163D01*
X329254Y545358*
Y545761*
X329439Y546029*
X329624Y546163*
X330177Y546297*
X330546*
X331100Y546163*
X331469Y545895*
X331654Y545492*
Y545089*
X331469Y544687*
X331284Y544553*
X330915Y544418*
X429018Y661983D02*
X428884Y662352D01*
X428616Y662721*
X428347Y662906*
X427811*
X427542Y662721*
X427274Y662352*
X427139Y661983*
X427005Y661429*
Y660507*
X427139Y659953*
X427274Y659584*
X427542Y659215*
X427811Y659030*
X428347*
X428616Y659215*
X428884Y659584*
X429018Y659953*
X430361Y661983D02*
Y662167D01*
X430495Y662537*
X430629Y662721*
X430898Y662906*
X431434*
X431703Y662721*
X431837Y662537*
X431971Y662167*
Y661798*
X431837Y661429*
X431569Y660876*
X430226Y659030*
X432105*
X434656Y662906D02*
X433313Y660322D01*
X435327*
X434656Y662906D02*
Y659030D01*
X397916Y661589D02*
X397782Y661958D01*
X397513Y662327*
X397245Y662512*
X396708*
X396440Y662327*
X396171Y661958*
X396037Y661589*
X395903Y661036*
Y660113*
X396037Y659559*
X396171Y659190*
X396440Y658821*
X396708Y658636*
X397245*
X397513Y658821*
X397782Y659190*
X397916Y659559*
X399258Y661589D02*
Y661774D01*
X399393Y662143*
X399527Y662327*
X399795Y662512*
X400332*
X400600Y662327*
X400735Y662143*
X400869Y661774*
Y661405*
X400735Y661036*
X400466Y660482*
X399124Y658636*
X401003*
X403956Y662512D02*
X402614D01*
X402479Y660851*
X402614Y661036*
X403016Y661220*
X403419*
X403822Y661036*
X404090Y660667*
X404090D02*
X404224Y660113D01*
X404090Y659744*
X403956Y659190*
X403687Y658821*
X403285Y658636*
X402882*
X402479Y658821*
X402345Y659006*
X402211Y659375*
X253942Y543150D02*
X253808Y543519D01*
X253540Y543888*
X253271Y544072*
X252734*
X252466Y543888*
X252198Y543519*
X252063Y543150*
X251929Y542596*
Y541673*
X252063Y541120*
X252198Y540750*
X252466Y540381*
X252734Y540197*
X253271*
X253540Y540381*
X253808Y540750*
X253942Y541120*
X255285Y543150D02*
Y543334D01*
X255419Y543703*
X255553Y543888*
X255821Y544072*
X256358*
X256627Y543888*
X256761Y543703*
X256895Y543334*
Y542965*
X256761Y542596*
X256492Y542042*
X255150Y540197*
X257029*
X259848Y543519D02*
X259714Y543888D01*
X259311Y544072*
X259043*
X258640Y543888*
X258372Y543334*
X258237Y542411*
Y541489*
X258372Y540750*
X258640Y540381*
X259043Y540197*
X259177*
X259579Y540381*
X259848Y540750*
X259982Y541304*
Y541489*
X259848Y542042*
X259579Y542411*
X259177Y542596*
X259043*
X258640Y542411*
X258372Y542042*
X258237Y541489*
X239528Y603588D02*
X239158Y603454D01*
X238789Y603185*
X238605Y602917*
Y602380*
X238789Y602112*
X239158Y601843*
X239528Y601709*
X240081Y601575*
X241004*
X241558Y601709*
X241927Y601843*
X242296Y602112*
X242480Y602380*
Y602917*
X242296Y603185*
X241927Y603454*
X241558Y603588*
X239528Y604930D02*
X239343D01*
X238974Y605064*
X238789Y605199*
X238605Y605467*
Y606004*
X238789Y606272*
X238974Y606407*
X239343Y606541*
X239712*
X240081Y606407*
X240635Y606138*
X242480Y604796*
Y606675*
X238605Y609762D02*
X242480Y608420D01*
X238605Y607883D02*
Y609762D01*
X246438Y656517D02*
X246069Y656383D01*
X245700Y656115*
X245516Y655846*
Y655309*
X245700Y655041*
X246069Y654772*
X246438Y654638*
X246992Y654504*
X247915*
X248468Y654638*
X248837Y654772*
X249207Y655041*
X249391Y655309*
Y655846*
X249207Y656115*
X248837Y656383*
X248468Y656517*
X246438Y657859D02*
X246254D01*
X245885Y657994*
X245700Y658128*
X245516Y658396*
Y658933*
X245700Y659202*
X245885Y659336*
X246254Y659470*
X246623*
X246992Y659336*
X247546Y659067*
X249391Y657725*
Y659604*
X245516Y661483D02*
X245700Y661081D01*
X246069Y660946*
X246438*
X246807Y661081*
X246992Y661349*
X247177Y661886*
X247361Y662288*
X247730Y662557*
X248099Y662691*
X248653*
X249022Y662557*
X249207Y662423*
X249391Y662020*
Y661483*
X249207Y661081*
X249022Y660946*
X248653Y660812*
X248099*
X247730Y660946*
X247361Y661215*
X247177Y661617*
X246992Y662154*
X246807Y662423*
X246438Y662557*
X246069*
X245700Y662423*
X245516Y662020*
Y661483*
X315320Y1126339D02*
X315186Y1126708D01*
X314918Y1127077*
X314649Y1127261*
X314112*
X313844Y1127077*
X313576Y1126708*
X313441Y1126339*
X313307Y1125785*
Y1124862*
X313441Y1124309*
X313576Y1123939*
X313844Y1123570*
X314112Y1123386*
X314649*
X314918Y1123570*
X315186Y1123939*
X315320Y1124309*
X316662Y1126339D02*
Y1126523D01*
X316797Y1126892*
X316931Y1127077*
X317199Y1127261*
X317736*
X318005Y1127077*
X318139Y1126892*
X318273Y1126523*
Y1126154*
X318139Y1125785*
X317870Y1125231*
X316528Y1123386*
X318407*
X321360Y1125969D02*
X321226Y1125416D01*
X320957Y1125047*
X320555Y1124862*
X320421*
X320018Y1125047*
X319749Y1125416*
X319615Y1125969*
Y1126154*
X319749Y1126708*
X320018Y1127077*
X320421Y1127261*
X320555*
X320957Y1127077*
X321226Y1126708*
X321360Y1125969*
Y1125047*
X321226Y1124124*
X320957Y1123570*
X320555Y1123386*
X320286*
X319884Y1123570*
X319749Y1123939*
X277879Y1166378D02*
X277745Y1166747D01*
X277477Y1167116*
X277208Y1167301*
X276671*
X276403Y1167116*
X276135Y1166747*
X276000Y1166378*
X275866Y1165824*
Y1164902*
X276000Y1164348*
X276135Y1163979*
X276403Y1163610*
X276671Y1163425*
X277208*
X277477Y1163610*
X277745Y1163979*
X277879Y1164348*
X279356Y1167301D02*
X280832D01*
X280027Y1165824*
X280429*
X280698Y1165640*
X280832Y1165455*
X280966Y1164902*
Y1164532*
X280832Y1163979*
X280564Y1163610*
X280161Y1163425*
X279758*
X279356Y1163610*
X279222Y1163794*
X279087Y1164163*
X282980Y1167301D02*
X282577Y1167116D01*
X282309Y1166563*
X282309D02*
X282174Y1165640D01*
Y1165086*
X282309Y1164163*
X282577Y1163610*
X282980Y1163425*
X283248*
X283651Y1163610*
X283919Y1164163*
X284053Y1165086*
Y1165640*
X283919Y1166563*
X283919D02*
X283651Y1167116D01*
X283248Y1167301*
X282980*
X303509Y1219488D02*
X303375Y1219857D01*
X303107Y1220226*
X302838Y1220411*
X302301*
X302033Y1220226*
X301764Y1219857*
X301630Y1219488*
X301496Y1218935*
Y1218012*
X301630Y1217458*
X301764Y1217089*
X302033Y1216720*
X302301Y1216535*
X302838*
X303107Y1216720*
X303375Y1217089*
X303509Y1217458*
X304986Y1220411D02*
X306462D01*
X305657Y1218935*
X306059*
X306328Y1218750*
X306462Y1218565*
X306596Y1218012*
Y1217643*
X306462Y1217089*
X306194Y1216720*
X305791Y1216535*
X305388*
X304986Y1216720*
X304851Y1216905*
X304717Y1217274*
X307804Y1219673D02*
X308073Y1219857D01*
X308475Y1220411*
Y1216535*
X343037Y1125709D02*
X342903Y1126078D01*
X342634Y1126447*
X342366Y1126631*
X341829*
X341560Y1126447*
X341292Y1126078*
X341158Y1125709*
X341024Y1125155*
Y1124232*
X341158Y1123679*
X341292Y1123310*
X341560Y1122940*
X341829Y1122756*
X342366*
X342634Y1122940*
X342903Y1123310*
X343037Y1123679*
X344513Y1126631D02*
X345990D01*
X345184Y1125155*
X345587*
X345855Y1124970*
X345990Y1124786*
X346124Y1124232*
Y1123863*
X345990Y1123310*
X345721Y1122940*
X345319Y1122756*
X344916*
X344513Y1122940*
X344379Y1123125*
X344245Y1123494*
X347466Y1125709D02*
Y1125893D01*
X347600Y1126262*
X347734Y1126447*
X348003Y1126631*
X348540*
X348808Y1126447*
X348942Y1126262*
X349077Y1125893*
Y1125524*
X348942Y1125155*
X348674Y1124601*
X347332Y1122756*
X349211*
X182171Y298307D02*
X182037Y298676D01*
X181768Y299045*
X181500Y299230*
X180963*
X180694Y299045*
X180426Y298676*
X180292Y298307*
X180157Y297753*
Y296831*
X180292Y296277*
X180426Y295908*
X180694Y295539*
X180963Y295354*
X181500*
X181768Y295539*
X182037Y295908*
X182171Y296277*
X183647Y299230D02*
X185123D01*
X184318Y297753*
X184721*
X184989Y297569*
X185123Y297384*
X185258Y296831*
Y296462*
X185123Y295908*
X184855Y295539*
X184452Y295354*
X184050*
X183647Y295539*
X183513Y295723*
X183379Y296093*
X186734Y299230D02*
X188210D01*
X187405Y297753*
X187808*
X188076Y297569*
X188210Y297384*
X188345Y296831*
Y296462*
X188210Y295908*
X187942Y295539*
X187539Y295354*
X187137*
X186734Y295539*
X186600Y295723*
X186466Y296093*
X229646Y274680D02*
X230015Y274814D01*
X230384Y275082*
X230568Y275351*
Y275888*
X230384Y276156*
X230015Y276424*
X229646Y276559*
X229092Y276693*
X228169*
X227616Y276559*
X227247Y276424*
X226877Y276156*
X226693Y275888*
Y275351*
X226877Y275082*
X227247Y274814*
X227616Y274680*
X230568Y273203D02*
Y271727D01*
X229092Y272532*
Y272130*
X228907Y271861*
X228723Y271727*
X228169Y271593*
X227800*
X227247Y271727*
X226877Y271995*
X226693Y272398*
Y272801*
X226877Y273203*
X227062Y273338*
X227431Y273472*
X230568Y269043D02*
X227985Y270385D01*
Y268372*
X230568Y269043D02*
X226693D01*
X407997Y1184409D02*
X407863Y1184779D01*
X407595Y1185148*
X407326Y1185332*
X406790*
X406521Y1185148*
X406253Y1184779*
X406118Y1184409*
X405984Y1183856*
Y1182933*
X406118Y1182379*
X406253Y1182010*
X406521Y1181641*
X406790Y1181457*
X407326*
X407595Y1181641*
X407863Y1182010*
X407997Y1182379*
X409474Y1185332D02*
X410950D01*
X410145Y1183856*
X410548*
X410816Y1183671*
X410950Y1183487*
X411084Y1182933*
Y1182564*
X410950Y1182010*
X410682Y1181641*
X410279Y1181457*
X409877*
X409474Y1181641*
X409340Y1181826*
X409205Y1182195*
X414037Y1185332D02*
X412695D01*
X412561Y1183671*
X412695Y1183856*
X413098Y1184040*
X413500*
X413903Y1183856*
X414171Y1183487*
X414306Y1182933*
X414171Y1182564*
X414037Y1182010*
X413769Y1181641*
X413366Y1181457*
X412963*
X412561Y1181641*
X412427Y1181826*
X412292Y1182195*
X407840Y1172323D02*
X407706Y1172692D01*
X407437Y1173061*
X407169Y1173246*
X406632*
X406364Y1173061*
X406095Y1172692*
X405961Y1172323*
X405827Y1171769*
Y1170846*
X405961Y1170293*
X406095Y1169924*
X406364Y1169555*
X406632Y1169370*
X407169*
X407437Y1169555*
X407706Y1169924*
X407840Y1170293*
X409316Y1173246D02*
X410793D01*
X409987Y1171769*
X410390*
X410659Y1171585*
X410793Y1171400*
X410927Y1170846*
Y1170477*
X410793Y1169924*
X410524Y1169555*
X410122Y1169370*
X409719*
X409316Y1169555*
X409182Y1169739*
X409048Y1170108*
X413746Y1172692D02*
X413611Y1173061D01*
X413209Y1173246*
X412940*
X412538Y1173061*
X412269Y1172507*
X412135Y1171585*
Y1170662*
X412269Y1169924*
X412538Y1169555*
X412940Y1169370*
X413074*
X413477Y1169555*
X413746Y1169924*
X413880Y1170477*
Y1170662*
X413746Y1171216*
X413477Y1171585*
X413074Y1171769*
X412940*
X412538Y1171585*
X412269Y1171216*
X412135Y1170662*
X146908Y269463D02*
X146539Y269329D01*
X146170Y269061*
X145985Y268792*
Y268255*
X146170Y267987*
X146539Y267719*
X146908Y267584*
X147462Y267450*
X148385*
X148938Y267584*
X149307Y267719*
X149676Y267987*
X149861Y268255*
Y268792*
X149676Y269061*
X149307Y269329*
X148938Y269463*
X145985Y270940D02*
Y272416D01*
X147462Y271611*
Y272013*
X147646Y272282*
X147831Y272416*
X148385Y272550*
X148754*
X149307Y272416*
X149676Y272148*
X149861Y271745*
Y271342*
X149676Y270940*
X149492Y270806*
X149123Y270671*
X145985Y275637D02*
X149861Y274295D01*
X145985Y273758D02*
Y275637D01*
G54D25*
X455268Y824442D02*
Y808694D01*
Y816568D02*
X447394Y824442D01*
X455268Y816568D02*
X447394Y808694D01*
Y824442D02*
Y808694D01*
X435583Y816656D02*
X447394D01*
X455268Y816568D02*
X467079D01*
X120433Y1161614D02*
X104685D01*
X112559D02*
X120433Y1169488D01*
X112559Y1161614D02*
X104685Y1169488D01*
X120433D02*
X104685D01*
X112647Y1181299D02*
Y1169488D01*
X112559Y1161614D02*
Y1149803D01*
G54D27*
G54D40*
X235172Y183220D02*
Y182039D01*
X236353Y183220*
X235172*
X114142Y231209D02*
Y182390D01*
X133433*
Y231209*
X114142*
X463394Y1125972D02*
Y1096839D01*
X482685*
Y1125972*
X463394*
X388681Y806404D02*
X427657D01*
X427657D02*
Y825696D01*
X388681*
Y806404*
X481026Y684217D02*
Y723587D01*
X451499*
Y684217*
X481026*
X114546Y1076315D02*
Y1047181D01*
X133837*
Y1076315*
X114546*
X167168Y1069878D02*
G03X172168Y1069882I2500J351D01*
G01X167168Y1069881D02*
G03X162168Y1069877I-2500J-351D01*
G01X439682Y891073D02*
Y911427D01*
X459682*
Y894073*
X456682Y891073*
X439682*
X118394Y580045D02*
Y540675D01*
X147921*
Y580045*
X118394*
X118398Y530169D02*
Y490799D01*
X147925*
Y530169*
X118398*
X463394Y1192587D02*
Y1163453D01*
X482685*
Y1192587*
X463394*
X126465Y1186563D02*
Y1147587D01*
X145756*
Y1186563*
X126465*
X220984Y1157087D02*
X241339D01*
Y1137087*
X223984*
X220984Y1140087*
Y1157087*
X494567Y1266732D02*
X100000D01*
Y61575*
X494567*
Y1266732*
X468858Y100787D02*
G03X468858I-6299J0D01*
G01Y199173D02*
G03X468858I-6299J0D01*
G01X468898Y227992D02*
G03X468898I-6300J0D01*
G01Y326378D02*
G03X468898I-6300J0D01*
G01X439017Y570684D02*
G03X439017I-4724J0D01*
G01Y454542D02*
G03X439017I-4724J0D01*
G01X127297Y872058D02*
G03X127297I-2000J0D01*
G01X247297D02*
G03X247297I-2000J0D01*
G01X127297Y1002058D02*
G03X127297I-2000J0D01*
G01X247297D02*
G03X247297I-2000J0D01*
G01X123622Y77323D02*
G03X123622I-7874J0D01*
G01X486693D02*
G03X486693I-7874J0D01*
G01Y348583D02*
G03X486693I-7874J0D01*
G01Y380079D02*
G03X486693I-7874J0D01*
G01X123622D02*
G03X123622I-7874J0D01*
G01Y348583D02*
G03X123622I-7874J0D01*
G01Y748429D02*
G03X123622I-7874J0D01*
G01Y779925D02*
G03X123622I-7874J0D01*
G01X486693Y748429D02*
G03X486693I-7874J0D01*
G01Y779925D02*
G03X486693I-7874J0D01*
G01X123622Y1250984D02*
G03X123622I-7874J0D01*
G01X486693D02*
G03X486693I-7874J0D01*
G54D41*
G01X454557Y867845D02*
Y875895D01*
X444557*
Y867845*
X454557Y860345D02*
Y852295D01*
X444557*
Y860345*
X442019Y867799D02*
Y875849D01*
X432019*
Y867799*
X442019Y860299D02*
Y852249D01*
X432019*
Y860299*
X295076Y882275D02*
Y876475D01*
X302076*
Y882275*
X295076Y884675D02*
Y890475D01*
X302076*
Y884675*
X247226Y188441D02*
Y194241D01*
X240226*
Y188441*
X247226Y186041D02*
Y180241D01*
X240226*
Y186041*
X408555Y933894D02*
Y941944D01*
X398555*
Y933894*
X408555Y926394D02*
Y918344D01*
X398555*
Y926394*
X300794Y535184D02*
Y527134D01*
X310794*
Y535184*
X300794Y542684D02*
Y550734D01*
X310794*
Y542684*
X367253Y457184D02*
X375303D01*
Y467184*
X367253*
X359753Y457184D02*
X351703D01*
Y467184*
X359753*
X327519Y252299D02*
Y258099D01*
X320519*
Y252299*
X327519Y249899D02*
Y244099D01*
X320519*
Y249899*
X380149Y1010831D02*
Y1018881D01*
X370149*
Y1010831*
X380149Y1003331D02*
Y995281D01*
X370149*
Y1003331*
X279979Y898640D02*
X287979D01*
Y907640*
X279979*
X276979Y898640D02*
X268979D01*
Y907640*
X276979*
X263106Y830451D02*
X268906D01*
Y837451*
X263106*
X260706Y830451D02*
X254906D01*
Y837451*
X260706*
X213789Y820210D02*
X205789D01*
Y811210*
X213789*
X216789Y820210D02*
X224789D01*
Y811210*
X216789*
X301546Y504784D02*
Y496734D01*
X311546*
Y504784*
X301546Y512284D02*
Y520334D01*
X311546*
Y512284*
X308743Y564867D02*
X300693D01*
Y554867*
X308743*
X316243Y564867D02*
X324293D01*
Y554867*
X316243*
X236038Y577493D02*
Y585543D01*
X226038*
Y577493*
X236038Y569993D02*
Y561943D01*
X226038*
Y569993*
X209685Y662234D02*
Y654184D01*
X219685*
Y662234*
X209685Y669734D02*
Y677784D01*
X219685*
Y669734*
X280874Y487835D02*
Y485335D01*
X285874*
X280874Y493835D02*
Y496335D01*
X285874*
X289874Y490335D02*
Y491335D01*
X407898Y142929D02*
X415948D01*
Y152929*
X407898*
X400398Y142929D02*
X392348D01*
Y152929*
X400398*
X407840Y157757D02*
X415890D01*
Y167757*
X407840*
X400340Y157757D02*
X392290D01*
Y167757*
X400340*
X360863Y224692D02*
X355063D01*
Y217692*
X360863*
X363263Y224692D02*
X369063D01*
Y217692*
X363263*
X327518Y186514D02*
Y192314D01*
X320518*
Y186514*
X327518Y184114D02*
Y178314D01*
X320518*
Y184114*
X247231Y230322D02*
Y236122D01*
X240231*
Y230322*
X247231Y227922D02*
Y222122D01*
X240231*
Y227922*
X238497Y230322D02*
Y236122D01*
X231497*
Y230322*
X238497Y227922D02*
Y222122D01*
X231497*
Y227922*
X239771Y168555D02*
X233971D01*
Y161555*
X239771*
X242171Y168555D02*
X247971D01*
Y161555*
X242171*
X238497Y206878D02*
Y212678D01*
X231497*
Y206878*
X238497Y204478D02*
Y198678D01*
X231497*
Y204478*
X240231Y204500D02*
Y198700D01*
X247231*
Y204500*
X240231Y206900D02*
Y212700D01*
X247231*
Y206900*
X336642Y252299D02*
Y258099D01*
X329642*
Y252299*
X336642Y249899D02*
Y244099D01*
X329642*
Y249899*
X345754Y252300D02*
Y258100D01*
X338754*
Y252300*
X345754Y249900D02*
Y244100D01*
X338754*
Y249900*
X327519Y234192D02*
Y239992D01*
X320519*
Y234192*
X327519Y231792D02*
Y225992D01*
X320519*
Y231792*
X327518Y203064D02*
Y208864D01*
X320518*
Y203064*
X327518Y200664D02*
Y194864D01*
X320518*
Y200664*
X134924Y823829D02*
X140724D01*
Y830829*
X134924*
X132524Y823829D02*
X126724D01*
Y830829*
X132524*
X133539Y820327D02*
X125539D01*
Y811327*
X133539*
X136539Y820327D02*
X144539D01*
Y811327*
X136539*
X285381Y882275D02*
Y876475D01*
X292381*
Y882275*
X285381Y884675D02*
Y890475D01*
X292381*
Y884675*
X261860Y807384D02*
X270360D01*
Y823884*
X261860*
X242860Y807384D02*
X234360D01*
Y823884*
X242860*
X178244Y582127D02*
Y574077D01*
X188244*
Y582127*
X178244Y589627D02*
Y597677D01*
X188244*
Y589627*
X178244Y509888D02*
Y501838D01*
X188244*
Y509888*
X178244Y517388D02*
Y525438D01*
X188244*
Y517388*
X379192Y647361D02*
X387242D01*
Y657361*
X379192*
X371692Y647361D02*
X363642D01*
Y657361*
X371692*
X353353Y611091D02*
X355853D01*
Y616091*
X347353Y611091D02*
X344853D01*
Y616091*
X350853Y620091D02*
X349853D01*
X210130Y632396D02*
Y624346D01*
X220130*
Y632396*
X210130Y639896D02*
Y647946D01*
X220130*
Y639896*
X310635Y585100D02*
Y593150D01*
X300635*
Y585100*
X310635Y577600D02*
Y569550D01*
X300635*
Y577600*
X407970Y258224D02*
X416020D01*
Y268224*
X407970*
X400470Y258224D02*
X392420D01*
Y268224*
X400470*
X407970Y272807D02*
X416020D01*
Y282807*
X407970*
X400470Y272807D02*
X392420D01*
Y282807*
X400470*
X201597Y581983D02*
Y573933D01*
X211597*
Y581983*
X201597Y589483D02*
Y597533D01*
X211597*
Y589483*
X201722Y553489D02*
Y545439D01*
X211722*
Y553489*
X201722Y560989D02*
Y569039D01*
X211722*
Y560989*
X201722Y509888D02*
Y501838D01*
X211722*
Y509888*
X201722Y517388D02*
Y525438D01*
X211722*
Y517388*
X201722Y480734D02*
Y472684D01*
X211722*
Y480734*
X201722Y488234D02*
Y496284D01*
X211722*
Y488234*
X336276Y484101D02*
Y481601D01*
X341276*
X336276Y490101D02*
Y492601D01*
X341276*
X345276Y486601D02*
Y487601D01*
X359753Y481361D02*
X351703D01*
Y471361*
X359753*
X367253Y481361D02*
X375303D01*
Y471361*
X367253*
X315096Y504795D02*
Y496745D01*
X325096*
Y504795*
X315096Y512295D02*
Y520345D01*
X325096*
Y512295*
X317074Y482073D02*
X325124D01*
Y492073*
X317074*
X309574Y482073D02*
X301524D01*
Y492073*
X309574*
X259178Y480484D02*
Y472434D01*
X269178*
Y480484*
X259178Y487984D02*
Y496034D01*
X269178*
Y487984*
X361028Y211545D02*
X355228D01*
Y204545*
X361028*
X363428Y211545D02*
X369228D01*
Y204545*
X363428*
X408463Y960078D02*
Y968128D01*
X398463*
Y960078*
X408463Y952578D02*
Y944528D01*
X398463*
Y952578*
X200876Y1135315D02*
X208926D01*
Y1145315*
X200876*
X193376Y1135315D02*
X185326D01*
Y1145315*
X193376*
X200876Y1148346D02*
X208926D01*
Y1158346*
X200876*
X193376Y1148346D02*
X185326D01*
Y1158346*
X193376*
X262372Y1178976D02*
X270422D01*
Y1188976*
X262372*
X254872Y1178976D02*
X246822D01*
Y1188976*
X254872*
X314892Y1178819D02*
X322942D01*
Y1188819*
X314892*
X307392Y1178819D02*
X299342D01*
Y1188819*
X307392*
X328474Y1142677D02*
X336524D01*
Y1152677*
X328474*
X320974Y1142677D02*
X312924D01*
Y1152677*
X320974*
X328356Y1200945D02*
X336406D01*
Y1210945*
X328356*
X320856Y1200945D02*
X312806D01*
Y1210945*
X320856*
X393947Y1192165D02*
X401997D01*
Y1202165*
X393947*
X386447Y1192165D02*
X378397D01*
Y1202165*
X386447*
X393947Y1153031D02*
X401997D01*
Y1163031*
X393947*
X386447Y1153031D02*
X378397D01*
Y1163031*
X386447*
X284262Y1103071D02*
X292312D01*
Y1113071*
X284262*
X276762Y1103071D02*
X268712D01*
Y1113071*
X276762*
X267313Y1152795D02*
X259263D01*
Y1142795*
X267313*
X274813Y1152795D02*
X282863D01*
Y1142795*
X274813*
X293927Y1152795D02*
X285877D01*
Y1142795*
X293927*
X301427Y1152795D02*
X309477D01*
Y1142795*
X301427*
X314892Y1165354D02*
X322942D01*
Y1175354*
X314892*
X307392Y1165354D02*
X299342D01*
Y1175354*
X307392*
X162853Y255649D02*
Y263699D01*
X152853*
Y255649*
X162853Y248149D02*
Y240099D01*
X152853*
Y248149*
X224388Y335964D02*
Y344014D01*
X214388*
Y335964*
X224388Y328464D02*
Y320414D01*
X214388*
Y328464*
X293055Y667213D02*
Y669713D01*
X288055*
X293055Y661213D02*
Y658713D01*
X288055*
X284055Y664713D02*
Y663713D01*
X407823Y180678D02*
X415873D01*
Y190678*
X407823*
X400323Y180678D02*
X392273D01*
Y190678*
X400323*
X407823Y195364D02*
X415873D01*
Y205364*
X407823*
X400323Y195364D02*
X392273D01*
Y205364*
X400323*
X407981Y240600D02*
X416031D01*
Y250600*
X407981*
X400481Y240600D02*
X392431D01*
Y250600*
X400481*
X407981Y226348D02*
X416031D01*
Y236348*
X407981*
X400481Y226348D02*
X392431D01*
Y236348*
X400481*
X310659Y673031D02*
X302609D01*
Y663031*
X310659*
X318159Y673031D02*
X326209D01*
Y663031*
X318159*
X274016Y657293D02*
Y665343D01*
X264016*
Y657293*
X274016Y649793D02*
Y641743D01*
X264016*
Y649793*
X214428Y286771D02*
Y278721D01*
X224428*
Y286771*
X214428Y294271D02*
Y302321D01*
X224428*
Y294271*
X176042Y335846D02*
Y343896D01*
X166042*
Y335846*
X176042Y328346D02*
Y320296D01*
X166042*
Y328346*
X380155Y978814D02*
Y986864D01*
X370155*
Y978814*
X380155Y971314D02*
Y963264D01*
X370155*
Y971314*
X370933Y873776D02*
Y865776D01*
X379933*
Y873776*
X370933Y876776D02*
Y884776D01*
X379933*
Y876776*
X421154Y933941D02*
Y941941D01*
X412154*
Y933941*
X421154Y930941D02*
Y922941D01*
X412154*
Y930941*
X457545Y862595D02*
Y854595D01*
X466545*
Y862595*
X457545Y865595D02*
Y873595D01*
X466545*
Y865595*
X418286Y1001776D02*
Y993776D01*
X427286*
Y1001776*
X418286Y1004776D02*
Y1012776D01*
X427286*
Y1004776*
X358160Y1005581D02*
Y997581D01*
X367160*
Y1005581*
X358160Y1008581D02*
Y1016581D01*
X367160*
Y1008581*
X419763Y862549D02*
Y854549D01*
X428763*
Y862549*
X419763Y865549D02*
Y873549D01*
X428763*
Y865549*
X207634Y1211941D02*
X199634D01*
Y1202941*
X207634*
X210634Y1211941D02*
X218634D01*
Y1202941*
X210634*
X370012Y1145083D02*
Y1153083D01*
X361012*
Y1145083*
X370012Y1142083D02*
Y1134083D01*
X361012*
Y1142083*
X195626Y1132217D02*
X187626D01*
Y1123217*
X195626*
X198626Y1132217D02*
X206626D01*
Y1123217*
X198626*
X195626Y1170406D02*
X187626D01*
Y1161406*
X195626*
X198626Y1170406D02*
X206626D01*
Y1161406*
X198626*
X323909Y538154D02*
Y546154D01*
X314909*
Y538154*
X323909Y535154D02*
Y527154D01*
X314909*
Y535154*
X434711Y656622D02*
X426711D01*
Y647622*
X434711*
X437711Y656622D02*
X445711D01*
Y647622*
X437711*
X406461Y647665D02*
X414461D01*
Y656665*
X406461*
X403461Y647665D02*
X395461D01*
Y656665*
X403461*
X252469Y547245D02*
X260469D01*
Y556245*
X252469*
X249469Y547245D02*
X241469D01*
Y556245*
X249469*
X235538Y602521D02*
Y610521D01*
X226538*
Y602521*
X235538Y599521D02*
Y591521D01*
X226538*
Y599521*
X252272Y641563D02*
Y649563D01*
X243272*
Y641563*
X252272Y638563D02*
Y630563D01*
X243272*
Y638563*
X323224Y1139815D02*
X315224D01*
Y1130815*
X323224*
X326224Y1139815D02*
X334224D01*
Y1130815*
X326224*
X284618Y1181028D02*
Y1189028D01*
X275618*
Y1181028*
X284618Y1178028D02*
Y1170028D01*
X275618*
Y1178028*
X323106Y1222492D02*
X315106D01*
Y1213492*
X323106*
X326106Y1222492D02*
X334106D01*
Y1213492*
X326106*
X349421Y1142799D02*
Y1150799D01*
X340421*
Y1142799*
X349421Y1139799D02*
Y1131799D01*
X340421*
Y1139799*
X192996Y282547D02*
X200996D01*
Y291547*
X192996*
X189996Y282547D02*
X181996D01*
Y291547*
X189996*
X223949Y268311D02*
Y276311D01*
X214949*
Y268311*
X223949Y265311D02*
Y257311D01*
X214949*
Y265311*
X393980Y1180028D02*
X401980D01*
Y1189028*
X393980*
X390980Y1180028D02*
X382980D01*
Y1189028*
X390980*
Y1175760D02*
X382980D01*
Y1166760*
X390980*
X393980Y1175760D02*
X401980D01*
Y1166760*
X393980*
X162353Y279344D02*
Y287344D01*
X153353*
Y279344*
X162353Y276344D02*
Y268344D01*
X153353*
Y276344*
G54D93*
X192950Y592058D02*
Y588777D01*
X192155Y592058D02*
X193746D01*
X194768D02*
Y588777D01*
Y592058D02*
X195791D01*
X196132Y591902*
X196246Y591746*
X196359Y591433*
Y590964*
X196246Y590652*
X196132Y590496*
X195791Y590339*
X194768*
X198973Y592058D02*
X197837Y588777D01*
X197382Y592058D02*
X198973D01*
X310773Y290494D02*
Y287213D01*
X309977Y290494D02*
X311568D01*
X312591D02*
Y287213D01*
Y290494D02*
X313614D01*
X313955Y290338*
X314068Y290181*
X314182Y289869*
Y289400*
X314068Y289088*
X313955Y288931*
X313614Y288775*
X312591*
X315205Y289869D02*
X315432Y290025D01*
X315773Y290494*
Y287213*
X368480Y933735D02*
X371761D01*
X368480Y932939D02*
Y934530D01*
Y935553D02*
X371761D01*
X368480D02*
Y936576D01*
X368636Y936917*
X368793Y937030*
X369105Y937144*
X369574*
X369886Y937030*
X370043Y936917*
X370199Y936576*
Y935553*
X368480Y939644D02*
Y938507D01*
X369886Y938394*
X369730Y938507*
X369574Y938848*
Y939189*
X369730Y939530*
X370043Y939757*
X370511Y939871*
X370824Y939757*
X371293Y939644*
X371605Y939417*
X371761Y939076*
Y938735*
X371605Y938394*
X371449Y938280*
X371136Y938167*
X375643Y193487D02*
X378924D01*
X375643Y192692D02*
Y194283D01*
Y195305D02*
X378924D01*
X375643D02*
Y196328D01*
X375799Y196669*
X375955Y196783*
X376268Y196896*
X376736*
X377049Y196783*
X377205Y196669*
X377361Y196328*
Y195305*
X376424Y198033D02*
X376268D01*
X375955Y198146*
X375799Y198260*
X375643Y198487*
Y198942*
X375799Y199169*
X375955Y199283*
X376268Y199396*
X376580*
X376893Y199283*
X377361Y199055*
X378924Y197919*
Y199510*
X375643Y228652D02*
X378924D01*
X375643Y227857D02*
Y229448D01*
Y230471D02*
X378924D01*
X375643D02*
Y231493D01*
X375799Y231834*
X375955Y231948*
X376268Y232062*
X376268D02*
X376736D01*
X376736D02*
X377049Y231948D01*
X377205Y231834*
X377361Y231493*
Y230471*
X375643Y233312D02*
Y234562D01*
X375643D02*
X376893Y233880D01*
Y234221*
X377049Y234448*
X377205Y234562*
X377205D02*
X377674Y234675D01*
X377986*
X378455Y234562*
X378455D02*
X378768Y234334D01*
X378924Y233993*
Y233652*
X378768Y233312*
X378768D02*
X378611Y233198D01*
X378299Y233084*
X296278Y820407D02*
Y817126D01*
X295483Y820407D02*
X297074D01*
X298097D02*
Y817126D01*
Y820407D02*
X299119D01*
X299460Y820251*
X299574Y820095*
X299687Y819782*
Y819313*
X299574Y819001*
X299460Y818845*
X299119Y818688*
X298097*
X301847Y820407D02*
X300710Y818220D01*
X302415*
X301847Y820407D02*
Y817126D01*
X322323Y655407D02*
Y652126D01*
Y655407D02*
X323346D01*
X323686Y655251*
X323800Y655095*
X323914Y654782*
Y654470*
X323800Y654157*
X323686Y654001*
X323346Y653845*
X322323D02*
X323346D01*
X323686Y653688*
X323800Y653532*
X323914Y653220*
Y652751*
X323800Y652438*
X323686Y652282*
X323346Y652126*
X322323*
X326527Y655407D02*
X324936Y652126D01*
Y655407D02*
X326527D01*
X324936Y652126D02*
X326527D01*
X327550Y654782D02*
X327777Y654938D01*
X328118Y655407*
Y652126*
X207377Y1076987D02*
Y1073706D01*
Y1076987D02*
X208172D01*
X208513Y1076831*
X208740Y1076519*
X208854Y1076206*
X208968Y1075737*
Y1074956*
X208854Y1074487*
X208740Y1074175*
X208513Y1073862*
X208172Y1073706*
X207377*
X210218Y1076987D02*
X211468D01*
X210786Y1075737*
X211127*
X211354Y1075581*
X211468Y1075425*
X211581Y1074956*
Y1074644*
X211468Y1074175*
X211240Y1073862*
X210899Y1073706*
X210558*
X210218Y1073862*
X210104Y1074019*
X209990Y1074331*
X219671Y521208D02*
Y517927D01*
X218875Y521208D02*
X220466D01*
X221489D02*
Y517927D01*
Y521208D02*
X222512D01*
X222853Y521052*
X222966Y520895*
X223080Y520583*
Y520114*
X222966Y519802*
X222853Y519645*
X222512Y519489*
X221489*
X225466Y520739D02*
X225353Y521052D01*
X225012Y521208*
X224784*
X224444Y521052*
X224216Y520583*
X224103Y519802*
Y519020*
X224216Y518395*
X224444Y518083*
X224784Y517927*
X224898*
X225239Y518083*
X225466Y518395*
X225580Y518864*
Y519020*
X225466Y519489*
X225239Y519802*
X224898Y519958*
X224784*
X224444Y519802*
X224216Y519489*
X224103Y519020*
X326530Y589423D02*
Y586142D01*
X325735Y589423D02*
X327326D01*
X328349D02*
Y586142D01*
Y589423D02*
X329371D01*
X329712Y589267*
X329826Y589110*
X329939Y588798*
Y588329*
X329826Y588017*
X329712Y587860*
X329371Y587704*
X328349*
X331530Y589423D02*
X331189Y589267D01*
X331076Y588954*
Y588642*
X331189Y588329*
X331417Y588173*
X331871Y588017*
X332212Y587860*
X332439Y587548*
X332553Y587235*
Y586767*
X332439Y586454*
X332326Y586298*
X331985Y586142*
X331530*
X331189Y586298*
X331076Y586454*
X330962Y586767*
Y587235*
X331076Y587548*
X331303Y587860*
X331644Y588017*
X332099Y588173*
X332326Y588329*
X332439Y588642*
Y588954*
X332326Y589267*
X331985Y589423*
X331530*
X184189Y653054D02*
Y649773D01*
X183394Y653054D02*
X184985D01*
X186007D02*
Y649773D01*
Y653054D02*
X187030D01*
X187371Y652898*
X187485Y652742*
X187598Y652429*
Y651960*
X187485Y651648*
X187371Y651492*
X187030Y651335*
X186007*
X190098Y651960D02*
X189985Y651492D01*
X189757Y651179*
X189416Y651023*
X189303*
X188962Y651179*
X188735Y651492*
X188621Y651960*
Y652117*
X188735Y652585*
X188962Y652898*
X189303Y653054*
X189416*
X189757Y652898*
X189985Y652585*
X190098Y651960*
Y651179*
X189985Y650398*
X189757Y649929*
X189416Y649773*
X189189*
X188848Y649929*
X188735Y650242*
X322904Y870948D02*
Y867667D01*
X322109Y870948D02*
X323700D01*
X324723D02*
Y867667D01*
Y870948D02*
X325745D01*
X326086Y870792*
X326200Y870635*
X326313Y870323*
Y869854*
X326200Y869542*
X326086Y869385*
X325745Y869229*
X324723*
X327336Y870323D02*
X327563Y870479D01*
X327904Y870948*
Y867667*
X329609Y870948D02*
X329268Y870792D01*
X329041Y870323*
X328927Y869542*
Y869073*
X329041Y868292*
X329268Y867823*
X329609Y867667*
X329836*
X330177Y867823*
X330404Y868292*
X330518Y869073*
Y869542*
X330404Y870323*
X330177Y870792*
X329836Y870948*
X329609*
X211037Y739213D02*
X207756D01*
X211037D02*
Y738417D01*
X210881Y738076*
X210568Y737849*
X210256Y737735*
X209787Y737622*
X209006*
X208537Y737735*
X208225Y737849*
X207912Y738076*
X207756Y738417*
Y739213*
X210412Y736599D02*
X210568Y736372D01*
X211037Y736031*
X207756*
X211037Y734326D02*
X210881Y734667D01*
X210412Y734894*
X209631Y735008*
X209162*
X208381Y734894*
X207912Y734667*
X207756Y734326*
Y734099*
X207912Y733758*
X208381Y733531*
X209162Y733417*
X209631*
X210412Y733531*
X210881Y733758*
X211037Y734099*
Y734326*
X296098Y814365D02*
X296326Y814521D01*
X296667Y814990*
Y811709*
X297803Y814209D02*
Y814365D01*
X297917Y814677*
X298030Y814834*
X298258Y814990*
X298712*
X298939Y814834*
X299053Y814677*
X299167Y814365*
Y814052*
X299053Y813740*
X298826Y813271*
X297689Y811709*
X299280*
X300303Y814990D02*
X301212Y811709D01*
X302121Y814990D02*
X301212Y811709D01*
X324567Y864521D02*
X323430D01*
X323317Y863115*
X323430Y863271*
X323771Y863428*
X324112*
X324453Y863271*
X324680Y862959*
X324794Y862490*
X324680Y862178*
X324567Y861709*
X324339Y861396*
X323998Y861240*
X323657*
X323317Y861396*
X323203Y861553*
X323089Y861865*
X325817Y864521D02*
X326726Y861240D01*
X327635Y864521D02*
X326726Y861240D01*
X375377Y933289D02*
X375220Y933516D01*
X374752Y933857*
X378033*
X374752Y934880D02*
X375845D01*
Y936698D02*
X376002Y936471D01*
X376314Y936243*
X376783Y936130*
X377095*
X377564Y936243*
X377877Y936471*
X378033Y936698*
Y937039*
X377877Y937266*
X377564Y937493*
X377095Y937607*
X376783*
X376314Y937493*
X376002Y937266*
X375845Y937039*
Y936698*
Y938630D02*
X377408D01*
X377877Y938743*
X378033Y938971*
Y939311*
X377877Y939539*
X377408Y939880*
X375845D02*
X378033D01*
X374752Y941243D02*
X377408D01*
X377877Y941357*
X378033Y941584*
Y941811*
X375845Y940902D02*
Y941698D01*
X184586Y648762D02*
X185836D01*
X185154Y647512*
X185495*
X185722Y647355*
X185836Y647199*
X185949Y646730*
Y646418*
X185836Y645949*
X185608Y645637*
X185267Y645480*
X184926*
X184586Y645637*
X184472Y645793*
X184358Y646105*
X187086Y645793D02*
X186972Y645637D01*
X187086Y645480*
X187199Y645637*
X187086Y645793*
X188449Y648762D02*
X189699D01*
X189017Y647512*
X189358*
X189586Y647355*
X189699Y647199*
X189813Y646730*
Y646418*
X189699Y645949*
X189472Y645637*
X189131Y645480*
X188790*
X188449Y645637*
X188336Y645793*
X188222Y646105*
X190836Y648762D02*
X191745Y645480D01*
X192654Y648762D02*
X191745Y645480D01*
X193432Y586571D02*
X193205Y586884D01*
X192864Y587040*
X192409*
X192068Y586884*
X191841Y586571*
Y586259*
X191955Y585946*
X192068Y585790*
X192296Y585634*
X192978Y585321*
X193205Y585165*
X193318Y585009*
X193432Y584696*
Y584227*
X193205Y583915*
X192864Y583759*
X192409*
X192068Y583915*
X191841Y584227*
X194455Y587040D02*
Y583759D01*
X197182Y586259D02*
X197068Y586571D01*
X196841Y586884*
X196614Y587040*
X196159*
X195932Y586884*
X195705Y586571*
X195591Y586259*
X195478Y585790*
Y585009*
X195591Y584540*
X195705Y584227*
X195932Y583915*
X196159Y583759*
X196614*
X196841Y583915*
X197068Y584227*
X197182Y584540*
Y585009*
X196614D02*
X197182D01*
X198205Y586415D02*
X198432Y586571D01*
X198773Y587040*
Y583759*
X220943Y514828D02*
X220715Y515141D01*
X220374Y515297*
X219920*
X219579Y515141*
X219352Y514828*
Y514516*
X219465Y514203*
X219579Y514047*
X219806Y513891*
X220488Y513578*
X220715Y513422*
X220829Y513266*
X220943Y512953*
Y512484*
X220943D02*
X220715Y512172D01*
X220374Y512016*
X219920*
X219579Y512172*
X219352Y512484*
X221965Y515297D02*
Y512016D01*
X224693Y514516D02*
X224579Y514828D01*
X224352Y515141*
X224124Y515297*
X223670*
X223443Y515141*
X223215Y514828*
X223102Y514516*
X222988Y514047*
Y513266*
X223102Y512797*
X223215Y512484*
X223215D02*
X223443Y512172D01*
X223670Y512016*
X224124*
X224352Y512172*
X224579Y512484*
X224579D02*
X224693Y512797D01*
Y513266*
X224124D02*
X224693D01*
X225829Y514516D02*
Y514672D01*
X225943Y514984*
X225943D02*
X226056Y515141D01*
X226284Y515297*
X226738*
X226965Y515141*
X227079Y514984*
X227079D02*
X227193Y514672D01*
Y514359*
X227193D02*
X227079Y514047D01*
X226852Y513578*
X225715Y512016*
X227306*
X325963Y582945D02*
X326191Y583101D01*
X326531Y583570*
Y580289*
X327554Y583414D02*
X329259Y580289D01*
X331304Y583570D02*
X331077Y583414D01*
X330850Y583101*
X330736Y582789*
X330622Y582320*
Y581539*
X330736Y581070*
X330850Y580757*
X331077Y580445*
X331304Y580289*
X331759*
X331986Y580445*
X332213Y580757*
X332327Y581070*
X332441Y581539*
Y582320*
X332327Y582789*
X332213Y583101*
X331986Y583414*
X331759Y583570*
X331304*
X331645Y580914D02*
X332327Y579976D01*
X310320Y284494D02*
X311229Y281213D01*
X312138Y284494D02*
X311229Y281213D01*
X314184Y284025D02*
Y281213D01*
X313161Y282619D02*
X315207D01*
X381874Y228774D02*
X385155D01*
X381874Y227979D02*
Y229570D01*
Y230593D02*
X385155Y232184D01*
X381874D02*
X385155Y230593D01*
X381874Y233888D02*
X382030Y233661D01*
X382342Y233434*
X382655Y233320*
X383124Y233206*
X383905*
X384374Y233320*
X384686Y233434*
X384999Y233661*
X385155Y233888*
Y234343*
X384999Y234570*
X384686Y234797*
X384374Y234911*
X383905Y235024*
X383124*
X382655Y234911*
X382342Y234797*
X382030Y234570*
X381874Y234343*
Y233888*
Y236047D02*
X384217D01*
X384686Y236161*
X384999Y236388*
X385155Y236729*
Y236956*
X384999Y237297*
X384686Y237524*
X384217Y237638*
X381874*
Y239456D02*
X385155D01*
X381874Y238661D02*
Y240252D01*
X382734Y192765D02*
X386016D01*
X382734D02*
Y193788D01*
X382734D02*
X382891Y194129D01*
X383047Y194242*
X383359Y194356*
X383359D02*
X383672D01*
X383984Y194242*
X383984D02*
X384141Y194129D01*
X384297Y193788*
Y192765*
Y193561D02*
X386016Y194356D01*
X382734Y195379D02*
X386016Y196970D01*
X382734D02*
X386016Y195379D01*
X382734Y197992D02*
X386016D01*
X382734Y199015D02*
X386016D01*
X382734D02*
X386016Y200606D01*
X382734D02*
X386016D01*
X443525Y916457D02*
X443369Y916684D01*
X442900Y917025*
X446181*
X442900Y918729D02*
X443056Y918389D01*
X443525Y918161*
X444306Y918048*
X444775*
X445556Y918161*
X446025Y918389*
X446181Y918729*
Y918957*
X446025Y919298*
X445556Y919525*
X444775Y919639*
X444306*
X443525Y919525*
X443056Y919298*
X442900Y918957*
Y918729*
Y920661D02*
X446181D01*
X442900D02*
X446181Y921570D01*
X442900Y922479D02*
X446181Y921570D01*
X442900Y922479D02*
X446181D01*
X453761Y916457D02*
X453605Y916684D01*
X453136Y917025*
X456417*
X453136Y918048D02*
X456417D01*
X453136D02*
X456417Y918957D01*
X453136Y919866D02*
X456417Y918957D01*
X453136Y919866D02*
X456417D01*
X245276Y1152774D02*
X245503Y1152931D01*
X245844Y1153399*
Y1150118*
X247548Y1153399D02*
X247207Y1153243D01*
X246980Y1152774*
X246866Y1151993*
X246866D02*
Y1151524D01*
X246866D02*
X246980Y1150743D01*
X247207Y1150274*
X247548Y1150118*
X247776*
X248116Y1150274*
X248116D02*
X248344Y1150743D01*
X248457Y1151524*
Y1151993*
X248344Y1152774*
X248116Y1153243*
X248116D02*
X247776Y1153399D01*
X247548*
X249480D02*
Y1150118D01*
Y1153399D02*
X250389Y1150118D01*
X251298Y1153399D02*
X250389Y1150118D01*
X251298Y1153399D02*
Y1150118D01*
X246220Y1142735D02*
X246448Y1142891D01*
X246789Y1143360*
Y1140079*
X247811Y1143360D02*
Y1140079D01*
Y1143360D02*
X248720Y1140079D01*
X249630Y1143360D02*
X248720Y1140079D01*
X249630Y1143360D02*
Y1140079D01*
X259921Y1131790D02*
X260149Y1131946D01*
X260489Y1132415*
Y1129134*
X261626Y1129446D02*
X261512Y1129290D01*
X261626Y1129134*
X261739Y1129290*
X261626Y1129446*
X264126Y1131946D02*
X264012Y1132259D01*
X263671Y1132415*
X263444*
X263103Y1132259*
X262876Y1131790*
X262762Y1131009*
Y1130228*
X262876Y1129603*
X263103Y1129290*
X263444Y1129134*
X263558*
X263899Y1129290*
X264126Y1129603*
X264239Y1130071*
Y1130228*
X264126Y1130696*
X263899Y1131009*
X263558Y1131165*
X263444*
X263103Y1131009*
X262876Y1130696*
X262762Y1130228*
X266739Y1132415D02*
X265603D01*
X265489Y1131009*
X265603Y1131165*
X265944Y1131321*
X266285*
X266626Y1131165*
X266853Y1130853*
X266967Y1130384*
X266853Y1130071*
X266739Y1129603*
X266512Y1129290*
X266171Y1129134*
X265830*
X265489Y1129290*
X265376Y1129446*
X265262Y1129759*
X267989Y1132415D02*
X268899Y1129134D01*
X269808Y1132415D02*
X268899Y1129134D01*
X275945Y1216987D02*
X276172Y1217143D01*
X276513Y1217612*
Y1214331*
X277536Y1217612D02*
Y1216518D01*
X279354D02*
X279127Y1216362D01*
X278899Y1216049*
X278786Y1215581*
Y1215268*
X278899Y1214799*
X279127Y1214487*
X279354Y1214331*
X279695*
X279922Y1214487*
X280149Y1214799*
X280263Y1215268*
Y1215581*
X280149Y1216049*
X279922Y1216362*
X279695Y1216518*
X279354*
X281286D02*
Y1214956D01*
X281399Y1214487*
X281627Y1214331*
X281968*
X282195Y1214487*
X282536Y1214956*
Y1216518D02*
Y1214331D01*
X283899Y1217612D02*
Y1214956D01*
X284013Y1214487*
X284240Y1214331*
X284468*
X283559Y1216518D02*
X284354D01*
X199223Y347752D02*
Y351033D01*
X200018Y347752D02*
X198427D01*
X197405D02*
X195814Y351033D01*
Y347752D02*
X197405Y351033D01*
X151514Y348263D02*
Y351545D01*
Y348263D02*
X150492D01*
X150151Y348420*
X150037Y348576*
X149924Y348888*
Y349201*
X150037Y349513*
X150151Y349670*
X150492Y349826*
X151514*
X150719D02*
X149924Y351545D01*
X148901Y348263D02*
X147310Y351545D01*
Y348263D02*
X148901Y351545D01*
G54D143*
X241433Y492123D02*
Y489761D01*
Y490942D02*
X242614Y489761D01*
Y492123*
X241433Y490942*
X233717Y644757D02*
X236079D01*
X234898D02*
X233717Y643576D01*
X236079*
X234898Y644757*
G54D148*
X284669Y843133D02*
X283094D01*
X284669Y841558*
Y843133*
X284895Y566151D02*
Y565364D01*
X285682Y566151*
X284895*
X260593Y238881D02*
Y240062D01*
X259412Y238881*
X260593*
X392017Y866925D02*
X390048D01*
X392017Y864956*
Y866925*
X391954Y995212D02*
X389985D01*
X391954Y993244*
Y995212*
X195906Y1195551D02*
Y1197520D01*
X193937Y1195551*
X195906*
X173247Y274694D02*
Y275482D01*
X172459Y274694*
X173247*
G54D245*
X459685Y1114921D02*
Y1118858D01*
X461654Y1116890*
X459685Y1114921*
X395795Y830255D02*
X399732D01*
X397764Y828286*
X395795Y830255*
X446577Y690122D02*
Y694059D01*
X448546Y692091*
X446577Y690122*
X110837Y1065264D02*
Y1069201D01*
X112806Y1067232*
X110837Y1065264*
X162503Y678234D02*
X166440Y682171D01*
Y674297*
X162503Y678234*
X152843Y574139D02*
Y570202D01*
X150874Y572171*
X152843Y574139*
X152846Y524264D02*
Y520327D01*
X150878Y522295*
X152846Y524264*
X459685Y1181535D02*
Y1185472D01*
X461654Y1183504*
X459685Y1181535*
X150315Y1179449D02*
Y1175512D01*
X148346Y1177480*
X150315Y1179449*
G54D246*
X107975Y695765D02*
Y624265D01*
X157975*
Y695765*
X107975*
G74*
X0Y0D02*
M02*
