*
*
G04 PADS 9.5 Build Number: 522968 generated Gerber (RS-274-X) file*
G04 PC Version=2.1*
*
%IN "Total_Board_ATIK_V1.0.p"*%
*
%MOIN*%
*
%FSLAX35Y35*%
*
*
*
*
G04 PC Standard Apertures*
*
*
G04 Thermal Relief Aperture macro.*
%AMTER*
1,1,$1,0,0*
1,0,$1-$2,0,0*
21,0,$3,$4,0,0,45*
21,0,$3,$4,0,0,135*
%
*
*
G04 Annular Aperture macro.*
%AMANN*
1,1,$1,0,0*
1,0,$2,0,0*
%
*
*
G04 Odd Aperture macro.*
%AMODD*
1,1,$1,0,0*
1,0,$1-0.005,0,0*
%
*
*
G04 PC Custom Aperture Macros*
*
*
*
*
*
*
G04 PC Aperture Table*
*
%ADD027C,0.001*%
%ADD247R,0.07X0.07*%
%ADD248R,0.04X0.048*%
%ADD249R,0.03362X0.03362*%
%ADD250R,0.03362X0.02575*%
%ADD251R,0.04543X0.04543*%
%ADD252C,0.04543*%
%ADD253C,0.07*%
%ADD254R,0.09465X0.0474*%
%ADD255R,0.09465X0.13795*%
%ADD256R,0.06906X0.02772*%
%ADD257R,0.06X0.07*%
%ADD258R,0.07X0.06*%
%ADD259R,0.048X0.04*%
%ADD260R,0.05724X0.05724*%
%ADD261C,0.05724*%
%ADD262R,0.11X0.11*%
%ADD263C,0.11*%
%ADD264C,0.08874*%
%ADD265R,0.08008X0.1478*%
%ADD266R,0.046X0.046*%
%ADD267R,0.06X0.046*%
%ADD268R,0.075X0.0956*%
%ADD269R,0.08756X0.03205*%
%ADD271R,0.06906X0.06906*%
%ADD272C,0.06906*%
%ADD273R,0.075X0.135*%
%ADD274R,0.03362X0.07102*%
%ADD275R,0.16X0.16*%
%ADD276C,0.16*%
%ADD277R,0.046X0.06*%
%ADD278R,0.05134X0.03165*%
%ADD279R,0.03756X0.03362*%
%ADD280R,0.10843X0.07693*%
%ADD281R,0.03201X0.08799*%
%ADD282R,0.03362X0.06118*%
%ADD283R,0.07102X0.03362*%
%ADD286C,0.08087*%
%ADD287R,0.14795X0.05*%
%ADD288R,0.33992X0.42299*%
*
*
*
*
G04 PC Circuitry*
G04 Layer Name Total_Board_ATIK_V1.0.p - circuitry*
%LPD*%
*
*
G04 PC Custom Flashes*
G04 Layer Name Total_Board_ATIK_V1.0.p - flashes*
%LPD*%
*
*
G04 PC Circuitry*
G04 Layer Name Total_Board_ATIK_V1.0.p - circuitry*
%LPD*%
*
G54D27*
G54D247*
G01X449557Y870845D03*
Y857345D03*
X437019Y870799D03*
Y857299D03*
X403555Y936894D03*
Y923394D03*
X305794Y532184D03*
Y545684D03*
X370253Y462184D03*
X356753D03*
X375149Y1013831D03*
Y1000331D03*
X306546Y501784D03*
Y515284D03*
X305743Y559867D03*
X319243D03*
X466262Y694059D03*
X231038Y580493D03*
Y566993D03*
X214685Y659234D03*
Y672734D03*
X410898Y147929D03*
X397398D03*
X410840Y162757D03*
X397340D03*
X454682Y896073D03*
X133157Y570202D03*
X133161Y520327D03*
X183244Y579127D03*
Y592627D03*
Y506888D03*
Y520388D03*
X382192Y652361D03*
X368692D03*
X215130Y629396D03*
Y642896D03*
X305635Y588100D03*
Y574600D03*
X410970Y263224D03*
X397470D03*
X410970Y277807D03*
X397470D03*
X206597Y578983D03*
Y592483D03*
X206722Y550489D03*
Y563989D03*
Y506888D03*
Y520388D03*
Y477734D03*
Y491234D03*
X356753Y476361D03*
X370253D03*
X320096Y501795D03*
Y515295D03*
X320074Y487073D03*
X306574D03*
X264178Y477484D03*
Y490984D03*
X403463Y963078D03*
Y949578D03*
X225984Y1142087D03*
X203876Y1140315D03*
X190376D03*
X203876Y1153346D03*
X190376D03*
X265372Y1183976D03*
X251872D03*
X317892Y1183819D03*
X304392D03*
X331474Y1147677D03*
X317974D03*
X331356Y1205945D03*
X317856D03*
X396947Y1197165D03*
X383447D03*
X396947Y1158031D03*
X383447D03*
X287262Y1108071D03*
X273762D03*
X264313Y1147795D03*
X277813D03*
X290927D03*
X304427D03*
X317892Y1170354D03*
X304392D03*
X157853Y258649D03*
Y245149D03*
X219388Y338964D03*
Y325464D03*
X410823Y185678D03*
X397323D03*
X410823Y200364D03*
X397323D03*
X410981Y245600D03*
X397481D03*
X410981Y231348D03*
X397481D03*
X307659Y668031D03*
X321159D03*
X269016Y660293D03*
Y646793D03*
X219428Y283771D03*
Y297271D03*
X171042Y338846D03*
Y325346D03*
X375155Y981814D03*
Y968314D03*
G54D248*
X298576Y880375D03*
Y886575D03*
X243726Y190341D03*
Y184141D03*
X324019Y254199D03*
Y247999D03*
X324018Y188414D03*
Y182214D03*
X243731Y232222D03*
Y226022D03*
X234997Y232222D03*
Y226022D03*
Y208778D03*
Y202578D03*
X243731Y202600D03*
Y208800D03*
X333142Y254199D03*
Y247999D03*
X342254Y254200D03*
Y248000D03*
X324019Y236092D03*
Y229892D03*
X324018Y204964D03*
Y198764D03*
X288881Y880375D03*
Y886575D03*
G54D249*
X232416Y184401D03*
Y190307D03*
X225329D03*
Y184401D03*
G54D250*
X232416Y187354D03*
X225329D03*
G54D251*
X123787Y221563D03*
X473039Y1116327D03*
X398327Y816050D03*
X124192Y1066669D03*
X473039Y1182941D03*
X136110Y1176917D03*
G54D252*
X123787Y211720D03*
Y201878D03*
Y192035D03*
X473039Y1106484D03*
X408169Y816050D03*
X418012D03*
X124192Y1056827D03*
X473039Y1173098D03*
X136110Y1167075D03*
Y1157232D03*
G54D253*
X195121Y578961D03*
X313914Y276189D03*
X382785Y936876D03*
X272882Y922978D03*
X282882D03*
X466262Y713744D03*
X198168Y328907D03*
Y338907D03*
X380646Y208035D03*
X380488Y221179D03*
X444682Y896073D03*
X454682Y906073D03*
X444682D03*
X133157Y550517D03*
X133161Y500642D03*
X183244Y550531D03*
Y560531D03*
Y477776D03*
Y487776D03*
X305735Y612328D03*
Y602328D03*
X289000Y815621D03*
X222812Y506903D03*
X328390Y574619D03*
X197087Y643858D03*
X316741Y869514D03*
X225984Y1152087D03*
X235984Y1142087D03*
Y1152087D03*
X280039Y1207283D03*
X264291Y1123819D03*
X150018Y328789D03*
Y338789D03*
G54D254*
X289000Y848644D03*
Y857699D03*
Y866755D03*
G54D255*
X266165Y857699D03*
G54D256*
X280564Y566938D03*
Y569497D03*
Y572056D03*
Y574615D03*
Y577175D03*
Y579734D03*
Y582293D03*
Y584852D03*
X257730D03*
Y582293D03*
Y579734D03*
Y577175D03*
Y574615D03*
Y572056D03*
Y569497D03*
Y566938D03*
X177577Y273907D03*
Y271348D03*
Y268789D03*
Y266230D03*
Y263671D03*
Y261112D03*
Y258552D03*
Y255993D03*
X200412D03*
Y258552D03*
Y261112D03*
Y263671D03*
Y266230D03*
Y268789D03*
Y271348D03*
Y273907D03*
G54D257*
X375433Y870776D03*
Y879776D03*
X416654Y936941D03*
Y927941D03*
X462045Y859595D03*
Y868595D03*
X422786Y998776D03*
Y1007776D03*
X362660Y1002581D03*
Y1011581D03*
X424263Y859549D03*
Y868549D03*
X365512Y1148083D03*
Y1139083D03*
X319409Y541154D03*
Y532154D03*
X231038Y605521D03*
Y596521D03*
X247772Y644563D03*
Y635563D03*
X280118Y1184028D03*
Y1175028D03*
X344921Y1145799D03*
Y1136799D03*
X219449Y271311D03*
Y262311D03*
X157853Y282344D03*
Y273344D03*
G54D258*
X282979Y903140D03*
X273979D03*
X210789Y815710D03*
X219789D03*
X130539Y815827D03*
X139539D03*
X204634Y1207441D03*
X213634D03*
X192626Y1127717D03*
X201626D03*
X192626Y1165906D03*
X201626D03*
X431711Y652122D03*
X440711D03*
X409461Y652165D03*
X400461D03*
X255469Y551745D03*
X246469D03*
X320224Y1135315D03*
X329224D03*
X320106Y1217992D03*
X329106D03*
X195996Y287047D03*
X186996D03*
X396980Y1184528D03*
X387980D03*
Y1171260D03*
X396980D03*
G54D259*
X265006Y833951D03*
X258806D03*
X358963Y221192D03*
X365163D03*
X237871Y165055D03*
X244071D03*
X136824Y827329D03*
X130624D03*
X359128Y208045D03*
X365328D03*
G54D260*
X166500Y815755D03*
G54D261*
X176500D03*
X186500D03*
G54D262*
X424293Y546113D03*
G54D263*
X444293Y539413D03*
X424293Y532713D03*
X444293Y526013D03*
X424293Y519313D03*
X444293Y512613D03*
X424293Y505913D03*
X444293Y499213D03*
X424293Y492513D03*
X444293Y485813D03*
X424293Y479113D03*
G54D264*
X399060Y703365D03*
X261265D03*
X264383Y420196D03*
X402178D03*
G54D265*
X157164Y1069879D03*
X177755D03*
G54D266*
X288774Y487085D03*
Y494585D03*
X354103Y618991D03*
X346603D03*
X344176Y483351D03*
Y490851D03*
X285155Y667963D03*
Y660463D03*
G54D267*
X280774Y490835D03*
X336176Y487101D03*
X293155Y664213D03*
G54D268*
X342180Y208045D03*
Y194625D03*
X342169Y221128D03*
Y234548D03*
G54D269*
X266105Y237306D03*
Y232306D03*
Y227306D03*
Y222306D03*
Y217306D03*
Y212306D03*
Y207306D03*
Y202306D03*
Y197306D03*
Y192306D03*
X303034D03*
Y197306D03*
Y202306D03*
Y207306D03*
Y212306D03*
Y217306D03*
Y222306D03*
Y227306D03*
Y232306D03*
Y237306D03*
G54D271*
X233827Y1017990D03*
G54D272*
X183827D03*
X136819D03*
Y856021D03*
X171819D03*
X183827D03*
X221819D03*
X233827D03*
X305748Y649921D03*
Y627874D03*
G54D273*
X265110Y815634D03*
X239610D03*
G54D274*
X393592Y872043D03*
X398592D03*
X403592D03*
X408592D03*
Y893303D03*
X403592D03*
X398592D03*
X393592D03*
X393529Y1000330D03*
X398529D03*
X403529D03*
X408529D03*
Y1021590D03*
X403529D03*
X398529D03*
X393529D03*
G54D275*
X132975Y676265D03*
G54D276*
Y643765D03*
G54D277*
X350353Y610991D03*
G54D278*
X236315Y490942D03*
X247339D03*
G54D279*
X234898Y646726D03*
Y641214D03*
G54D280*
X207070Y1066581D03*
X191322D03*
G54D281*
X336929Y1167323D03*
X341929D03*
X346929D03*
X351929D03*
Y1186724D03*
X346929D03*
X341929D03*
X336929D03*
G54D282*
X289173Y1123858D03*
X296654D03*
X292913Y1132126D03*
G54D283*
X201024Y1193976D03*
Y1188976D03*
Y1183976D03*
Y1178976D03*
X222283D03*
Y1183976D03*
Y1188976D03*
Y1193976D03*
G54D286*
X456974Y255389D03*
Y266295D03*
Y277200D03*
Y288106D03*
Y299011D03*
X468155Y260842D03*
Y271748D03*
Y282653D03*
Y293559D03*
X456974Y171825D03*
Y160920D03*
Y150014D03*
Y139109D03*
Y128203D03*
X468156Y166136D03*
Y155231D03*
Y144325D03*
Y133420D03*
G54D287*
X188071Y713622D03*
Y693622D03*
G54D288*
X228228Y703386D03*
X0Y0D02*
M02*
