*
*
G04 PADS 9.5 Build Number: 522968 generated Gerber (RS-274-X) file*
G04 PC Version=2.1*
*
%IN "Total_Board_ATIK_V1.0.p"*%
*
%MOIN*%
*
%FSLAX35Y35*%
*
*
*
*
G04 PC Standard Apertures*
*
*
G04 Thermal Relief Aperture macro.*
%AMTER*
1,1,$1,0,0*
1,0,$1-$2,0,0*
21,0,$3,$4,0,0,45*
21,0,$3,$4,0,0,135*
%
*
*
G04 Annular Aperture macro.*
%AMANN*
1,1,$1,0,0*
1,0,$2,0,0*
%
*
*
G04 Odd Aperture macro.*
%AMODD*
1,1,$1,0,0*
1,0,$1-0.005,0,0*
%
*
*
G04 PC Custom Aperture Macros*
*
*
*
*
*
*
G04 PC Aperture Table*
*
%ADD027C,0.001*%
%ADD247R,0.07X0.07*%
%ADD251R,0.04543X0.04543*%
%ADD252C,0.04543*%
%ADD253C,0.07*%
%ADD260R,0.05724X0.05724*%
%ADD261C,0.05724*%
%ADD262R,0.11X0.11*%
%ADD263C,0.11*%
%ADD264C,0.08874*%
%ADD271R,0.06906X0.06906*%
%ADD272C,0.06906*%
%ADD275R,0.16X0.16*%
%ADD276C,0.16*%
%ADD286C,0.08087*%
*
*
*
*
G04 PC Circuitry*
G04 Layer Name Total_Board_ATIK_V1.0.p - circuitry*
%LPD*%
*
*
G04 PC Custom Flashes*
G04 Layer Name Total_Board_ATIK_V1.0.p - flashes*
%LPD*%
*
*
G04 PC Circuitry*
G04 Layer Name Total_Board_ATIK_V1.0.p - circuitry*
%LPD*%
*
G54D27*
G54D247*
G01X466262Y694059D03*
X454682Y896073D03*
X133157Y570202D03*
X133161Y520327D03*
X225984Y1142087D03*
G54D251*
X123787Y221563D03*
X473039Y1116327D03*
X398327Y816050D03*
X124192Y1066669D03*
X473039Y1182941D03*
X136110Y1176917D03*
G54D252*
X123787Y211720D03*
Y201878D03*
Y192035D03*
X473039Y1106484D03*
X408169Y816050D03*
X418012D03*
X124192Y1056827D03*
X473039Y1173098D03*
X136110Y1167075D03*
Y1157232D03*
G54D253*
X195121Y578961D03*
X313914Y276189D03*
X382785Y936876D03*
X272882Y922978D03*
X282882D03*
X466262Y713744D03*
X198168Y328907D03*
Y338907D03*
X380646Y208035D03*
X380488Y221179D03*
X444682Y896073D03*
X454682Y906073D03*
X444682D03*
X133157Y550517D03*
X133161Y500642D03*
X183244Y550531D03*
Y560531D03*
Y477776D03*
Y487776D03*
X305735Y612328D03*
Y602328D03*
X289000Y815621D03*
X222812Y506903D03*
X328390Y574619D03*
X197087Y643858D03*
X316741Y869514D03*
X225984Y1152087D03*
X235984Y1142087D03*
Y1152087D03*
X280039Y1207283D03*
X264291Y1123819D03*
X150018Y328789D03*
Y338789D03*
G54D260*
X166500Y815755D03*
G54D261*
X176500D03*
X186500D03*
G54D262*
X424293Y546113D03*
G54D263*
X444293Y539413D03*
X424293Y532713D03*
X444293Y526013D03*
X424293Y519313D03*
X444293Y512613D03*
X424293Y505913D03*
X444293Y499213D03*
X424293Y492513D03*
X444293Y485813D03*
X424293Y479113D03*
G54D264*
X399060Y703365D03*
X261265D03*
X264383Y420196D03*
X402178D03*
G54D271*
X233827Y1017990D03*
G54D272*
X183827D03*
X136819D03*
Y856021D03*
X171819D03*
X183827D03*
X221819D03*
X233827D03*
X305748Y649921D03*
Y627874D03*
G54D275*
X132975Y676265D03*
G54D276*
Y643765D03*
G54D286*
X456974Y255389D03*
Y266295D03*
Y277200D03*
Y288106D03*
Y299011D03*
X468155Y260842D03*
Y271748D03*
Y282653D03*
Y293559D03*
X456974Y171825D03*
Y160920D03*
Y150014D03*
Y139109D03*
Y128203D03*
X468156Y166136D03*
Y155231D03*
Y144325D03*
Y133420D03*
X0Y0D02*
M02*
