*
*
G04 PADS 9.5 Build Number: 522968 generated Gerber (RS-274-X) file*
G04 PC Version=2.1*
*
%IN "Total_Board_ATIK_V1.0.p"*%
*
%MOIN*%
*
%FSLAX35Y35*%
*
*
*
*
G04 PC Standard Apertures*
*
*
G04 Thermal Relief Aperture macro.*
%AMTER*
1,1,$1,0,0*
1,0,$1-$2,0,0*
21,0,$3,$4,0,0,45*
21,0,$3,$4,0,0,135*
%
*
*
G04 Annular Aperture macro.*
%AMANN*
1,1,$1,0,0*
1,0,$2,0,0*
%
*
*
G04 Odd Aperture macro.*
%AMODD*
1,1,$1,0,0*
1,0,$1-0.005,0,0*
%
*
*
G04 PC Custom Aperture Macros*
*
*
*
*
*
*
G04 PC Aperture Table*
*
%ADD024C,0.01181*%
%ADD026C,0.01969*%
%ADD027C,0.001*%
%ADD040C,0.00394*%
*
*
*
*
G04 PC Circuitry*
G04 Layer Name Total_Board_ATIK_V1.0.p - circuitry*
%LPD*%
*
*
G04 PC Custom Flashes*
G04 Layer Name Total_Board_ATIK_V1.0.p - flashes*
%LPD*%
*
*
G04 PC Circuitry*
G04 Layer Name Total_Board_ATIK_V1.0.p - circuitry*
%LPD*%
*
G54D24*
G01X26671Y772347D02*
X30250Y759429D01*
X33829Y772347D02*
X30250Y759429D01*
X37855Y764966D02*
X45908D01*
X56646Y769272D02*
X56198Y770502D01*
X55303Y771732*
X54409Y772347*
X52619*
X51724Y771732*
X50830Y770502*
X50382Y769272*
X49935Y767426*
Y764350*
X50382Y762505*
X50830Y761275*
X51724Y760044*
X52619Y759429*
X54409*
X55303Y760044*
X56198Y761275*
X56646Y762505*
X60672Y768041D02*
Y761890D01*
X61119Y760044*
X62014Y759429*
X63356*
X64251Y760044*
X65593Y761890*
Y768041D02*
Y759429D01*
X70962Y772347D02*
Y761890D01*
X71409Y760044*
X72304Y759429*
X73199*
X69620Y768041D02*
X72751D01*
X27343Y367809D02*
X30922Y354891D01*
X34501Y367809D02*
X30922Y354891D01*
X38527Y360427D02*
X46580D01*
X57317Y364734D02*
X56870Y365964D01*
X55975Y367194*
X55081Y367809*
X53291*
X52396Y367194*
X51501Y365964*
X51054Y364734*
X50607Y362888*
Y359812*
X51054Y357967*
X51501Y356737*
X52396Y355506*
X53291Y354891*
X55081*
X55975Y355506*
X56870Y356737*
X57317Y357967*
X61344Y363503D02*
Y357352D01*
X61791Y355506*
X62686Y354891*
X64028*
X64923Y355506*
X66265Y357352*
Y363503D02*
Y354891D01*
X71634Y367809D02*
Y357352D01*
X72081Y355506*
X72976Y354891*
X73871*
X70292Y363503D02*
X73423D01*
G54D26*
X77041Y364331D02*
X84915D01*
X90816D02*
X90816D01*
X96718D02*
X104592D01*
X110494D02*
X110494D01*
X116396D02*
X124270D01*
X130171D02*
X130171D01*
X136073D02*
X143947D01*
X149849D02*
X149849D01*
X155751D02*
X163625D01*
X169527D02*
X169527D01*
X175428D02*
X183302D01*
X189204D02*
X189204D01*
X195106D02*
X202980D01*
X208882D02*
X208882D01*
X214783D02*
X222657D01*
X228559D02*
X228559D01*
X234461D02*
X242335D01*
X248237D02*
X248237D01*
X254138D02*
X262012D01*
X267914D02*
X267914D01*
X273816D02*
X281690D01*
X287592D02*
X287592D01*
X293493D02*
X301367D01*
X307269D02*
X307269D01*
X313171D02*
X321045D01*
X326947D02*
X326947D01*
X332848D02*
X340722D01*
X346624D02*
X346624D01*
X352526D02*
X360400D01*
X366302D02*
X366302D01*
X372203D02*
X380077D01*
X385979D02*
X385979D01*
X391881D02*
X399755D01*
X405657D02*
X405657D01*
X411558D02*
X419432D01*
X425334D02*
X425334D01*
X431236D02*
X439110D01*
X445012D02*
X445012D01*
X450913D02*
X458787D01*
X464689D02*
X464689D01*
X470591D02*
X478465D01*
X484367D02*
X484367D01*
X490269D02*
X498143D01*
X504044D02*
X504044D01*
X509946D02*
X517820D01*
X523722D02*
X523722D01*
X78266Y764177D02*
X86140D01*
X92042D02*
X92042D01*
X97944D02*
X105818D01*
X111720D02*
X111720D01*
X117621D02*
X125495D01*
X131397D02*
X131397D01*
X137299D02*
X145173D01*
X151075D02*
X151075D01*
X156976D02*
X164850D01*
X170752D02*
X170752D01*
X176654D02*
X184528D01*
X190430D02*
X190430D01*
X196331D02*
X204206D01*
X210107D02*
X210107D01*
X216009D02*
X223883D01*
X229785D02*
X229785D01*
X235687D02*
X243561D01*
X249462D02*
X249462D01*
X255364D02*
X263238D01*
X269140D02*
X269140D01*
X275042D02*
X282916D01*
X288817D02*
X288817D01*
X294719D02*
X302593D01*
X308495D02*
X308495D01*
X314397D02*
X322271D01*
X328172D02*
X328172D01*
X334074D02*
X341948D01*
X347850D02*
X347850D01*
X353752D02*
X361626D01*
X367527D02*
X367527D01*
X373429D02*
X381303D01*
X387205D02*
X387205D01*
X393107D02*
X400981D01*
X406882D02*
X406882D01*
X412784D02*
X420658D01*
X426560D02*
X426560D01*
X432462D02*
X440336D01*
X446237D02*
X446237D01*
X452139D02*
X460013D01*
X465915D02*
X465915D01*
X471817D02*
X479691D01*
X485592D02*
X485592D01*
X491494D02*
X499368D01*
X505270D02*
X505270D01*
X511172D02*
X519046D01*
X524948D02*
X524948D01*
G54D27*
G54D40*
X494567Y1266732D02*
X100000D01*
Y61575*
X494567*
Y1266732*
X468858Y100787D02*
G75*
G03X468858I-6299J0D01*
G01Y199173D02*
G03X468858I-6299J0D01*
G01X468898Y227992D02*
G03X468898I-6300J0D01*
G01Y326378D02*
G03X468898I-6300J0D01*
G01X439017Y570684D02*
G03X439017I-4724J0D01*
G01Y454542D02*
G03X439017I-4724J0D01*
G01X127297Y872058D02*
G03X127297I-2000J0D01*
G01X247297D02*
G03X247297I-2000J0D01*
G01X127297Y1002058D02*
G03X127297I-2000J0D01*
G01X247297D02*
G03X247297I-2000J0D01*
G01X123622Y77323D02*
G03X123622I-7874J0D01*
G01X486693D02*
G03X486693I-7874J0D01*
G01Y348583D02*
G03X486693I-7874J0D01*
G01Y380079D02*
G03X486693I-7874J0D01*
G01X123622D02*
G03X123622I-7874J0D01*
G01Y348583D02*
G03X123622I-7874J0D01*
G01Y748429D02*
G03X123622I-7874J0D01*
G01Y779925D02*
G03X123622I-7874J0D01*
G01X486693Y748429D02*
G03X486693I-7874J0D01*
G01Y779925D02*
G03X486693I-7874J0D01*
G01X123622Y1250984D02*
G03X123622I-7874J0D01*
G01X486693D02*
G03X486693I-7874J0D01*
G74*
G01X0Y0D02*
M02*
