*
*
G04 PADS VX.2.10 Build Number: 19222662 generated Gerber (RS-274-X) file*
G04 PC Version=2.1*
*
%IN "Reservoir_Module_Rev0.1"*%
*
%MOIN*%
*
%FSLAX35Y35*%
*
*
*
*
G04 PC Standard Apertures*
*
*
G04 Thermal Relief Aperture macro.*
%AMTER*
1,1,$1,0,0*
1,0,$1-$2,0,0*
21,0,$3,$4,0,0,45*
21,0,$3,$4,0,0,135*
%
*
*
G04 Annular Aperture macro.*
%AMANN*
1,1,$1,0,0*
1,0,$2,0,0*
%
*
*
G04 Odd Aperture macro.*
%AMODD*
1,1,$1,0,0*
1,0,$1-0.005,0,0*
%
*
*
G04 PC Custom Aperture Macros*
*
*
*
*
*
*
G04 PC Aperture Table*
*
%ADD011C,0.07087*%
%ADD014C,0.05906*%
%ADD023R,0.06299X0.06299*%
%ADD024C,0.01969*%
%ADD040C,0.06299*%
%ADD047R,0.07087X0.07087*%
%ADD062C,0.01575*%
%ADD064C,0.0315*%
%ADD065C,0.04331*%
%ADD072C,0.00394*%
%ADD075C,0.15748*%
%ADD134C,0.001*%
%ADD758C,0.16949*%
*
*
*
*
G04 PC Circuitry*
G04 Layer Name Reservoir_Module_Rev0.1 - circuitry*
%LPD*%
*
*
G04 PC Custom Flashes*
G04 Layer Name Reservoir_Module_Rev0.1 - flashes*
%LPD*%
*
*
G04 PC Circuitry*
G04 Layer Name Reservoir_Module_Rev0.1 - circuitry*
%LPD*%
*
G54D11*
G01X474409Y490157D03*
Y454724D03*
Y525591D03*
G54D14*
X448425D03*
G54D23*
X423228Y455146D03*
G54D24*
X441206Y479012D02*
X441847D01*
X446818D02*
X446177D01*
X451149Y476512D02*
X450508D01*
X451149Y481512D02*
X450508D01*
X448343Y484318D02*
Y483678D01*
X478593Y454724D02*
X477953D01*
X474409Y458908D02*
Y458268D01*
Y450541D02*
Y451181D01*
X470226Y454724D02*
X470866D01*
X478593Y525591D02*
X477953D01*
X474409Y529774D02*
Y529134D01*
Y521407D02*
Y522047D01*
X470226Y525591D02*
X470866D01*
X452019D02*
X451378D01*
X448425Y529184D02*
Y528543D01*
Y521997D02*
Y522638D01*
X444832Y525591D02*
X445472D01*
G54D40*
X413386Y455146D03*
X403543D03*
G54D47*
X474409Y480315D03*
Y444882D03*
Y515748D03*
G54D62*
X431890Y469094D02*
Y489370D01*
X434252Y491732*
X460630*
X443307Y464012D02*
X434019D01*
X434006Y464026*
X431890Y466142*
Y469094*
X444012Y464012D02*
X443307D01*
X438537Y474012D02*
X438189D01*
X435827Y476374*
Y480118*
X443308Y474012D02*
X438537D01*
X435827Y480118D02*
Y486299D01*
X438110Y488583*
X455118*
X444012Y474012D02*
X443308D01*
X474409Y480315D02*
X463386D01*
X455118Y488583*
X474409Y490157D02*
X462205D01*
X460630Y491732*
X397054Y397057D03*
X407054D03*
X417054D03*
X427054D03*
X437054D03*
X447054D03*
X457054D03*
X487054D03*
X494488Y400394D03*
X397054Y407057D03*
X407054D03*
X417054D03*
X427054D03*
X437054D03*
X447054D03*
X457054D03*
X494488Y410394D03*
X397054Y417057D03*
X407054D03*
X494488Y420394D03*
X397054Y427057D03*
X407054D03*
X433465Y429134D03*
X431102Y422835D03*
X425197Y428740D03*
X477165Y429528D03*
X487054Y427057D03*
X494488Y430394D03*
X397054Y437057D03*
X430709Y436220D03*
X424016Y435827D03*
X477054Y437057D03*
X487054D03*
X494488Y440394D03*
X436220Y449213D03*
X487054Y447057D03*
X494488Y450394D03*
X487054Y457057D03*
X494488Y460394D03*
X397054Y467057D03*
X407054D03*
X417054D03*
X427054D03*
X467054D03*
X477054D03*
X487054D03*
X494488Y470394D03*
X397054Y477057D03*
X407054D03*
X417054D03*
X427054D03*
X457054D03*
X467054D03*
X487054D03*
X494488Y480394D03*
X397054Y487057D03*
X407054D03*
X417054D03*
X427054D03*
X467054D03*
X487054D03*
X494488Y490394D03*
X397054Y497057D03*
X407054D03*
X417054D03*
X427054D03*
X467054D03*
X477054D03*
X487054D03*
X494488Y500394D03*
X397054Y507057D03*
X407054D03*
X414961Y503937D03*
X430315Y504724D03*
X457054Y507057D03*
X467054D03*
X477054D03*
X487054D03*
X494488Y510394D03*
X403150Y515354D03*
X397054Y517057D03*
X438189Y514961D03*
X447054Y517057D03*
X457054D03*
X487054D03*
X494488Y520394D03*
X397054Y527057D03*
X403937Y527165D03*
X438976Y525984D03*
X457054Y527057D03*
X467054D03*
X487054D03*
X493701Y528346D03*
X401181Y533858D03*
X407874D03*
X434646D03*
X441181D03*
X451181D03*
X461181D03*
X471181D03*
X481181D03*
X491181D03*
G54D64*
X445276Y442520D02*
X462205D01*
X464567Y444882*
X474409*
X445276Y442520D02*
X443701Y444094D01*
Y449012*
X444012*
G54D65*
X444012D03*
Y454012D03*
Y459012D03*
Y464012D03*
Y469012D03*
Y474012D03*
Y479012D03*
Y484012D03*
X448343Y451512D03*
Y456512D03*
Y461512D03*
Y466512D03*
Y471512D03*
Y476512D03*
Y481512D03*
G54D72*
X431299Y461105D02*
Y469094D01*
X433071*
Y466250*
G75*
G03X434006Y465315I935J-0D01*
G01X443307*
X445079Y463543D02*
G03X443307Y465315I-1772J0D01*
G01X445079Y463543D02*
Y459055D01*
X443307Y457283D02*
G03X445079Y459055I0J1772D01*
G01X443307Y457283D02*
X435121D01*
X431299Y461105*
X435236Y471741D02*
Y480118D01*
X437205*
Y476844*
G03X438537Y475511I1332J0*
G01Y475512D02*
X443308Y475510D01*
X445079Y473739D02*
G03X443308Y475510I-1772J-0D01*
G01X445079Y473739D02*
Y469370D01*
X443307Y467598D02*
G03X445079Y469370I0J1772D01*
G01X443307Y467598D02*
X439839D01*
X435236Y471741*
X431299Y463306D02*
X445079D01*
X431299Y462951D02*
X445079D01*
X431299Y462597D02*
X445079D01*
X431299Y462243D02*
X445079D01*
X431299Y461888D02*
X445079D01*
X431299Y461534D02*
X445079D01*
X431299Y461180D02*
X445079D01*
X431579Y460825D02*
X445079D01*
X431933Y460471D02*
X445079D01*
X432288Y460117D02*
X445079D01*
X432642Y459762D02*
X445079D01*
X432996Y459408D02*
X445079D01*
X433351Y459054D02*
X445079D01*
X431299Y463660D02*
X445075D01*
X433705Y458699D02*
X445043D01*
X431299Y464014D02*
X445015D01*
X434059Y458345D02*
X444930D01*
X431299Y464369D02*
X444875D01*
X434414Y457991D02*
X444723D01*
X431299Y464723D02*
X444629D01*
X434768Y457636D02*
X444368D01*
X431299Y465077D02*
X444193D01*
X431299Y465432D02*
X433553D01*
X431299Y465786D02*
X433194D01*
X431299Y466140D02*
X433077D01*
X431299Y468975D02*
X433071D01*
X431299Y468621D02*
X433071D01*
X431299Y468266D02*
X433071D01*
X431299Y467912D02*
X433071D01*
X431299Y467558D02*
X433071D01*
X431299Y467203D02*
X433071D01*
X431299Y466849D02*
X433071D01*
X431299Y466495D02*
X433071D01*
X435236Y473621D02*
X445079D01*
X435236Y473266D02*
X445079D01*
X435236Y472912D02*
X445079D01*
X435236Y472558D02*
X445079D01*
X435236Y472203D02*
X445079D01*
X435236Y471849D02*
X445079D01*
X435510Y471495D02*
X445079D01*
X435904Y471140D02*
X445079D01*
X436297Y470786D02*
X445079D01*
X436691Y470432D02*
X445079D01*
X437085Y470077D02*
X445079D01*
X437479Y469723D02*
X445079D01*
X437872Y469369D02*
X445079D01*
X435236Y473975D02*
X445063D01*
X438266Y469014D02*
X445043D01*
X435236Y474329D02*
X444977D01*
X438660Y468660D02*
X444930D01*
X435236Y474684D02*
X444806D01*
X439053Y468306D02*
X444723D01*
X435236Y475038D02*
X444511D01*
X439447Y467951D02*
X444368D01*
X435236Y475392D02*
X443942D01*
X435236Y475747D02*
X437781D01*
X435236Y476101D02*
X437431D01*
X435236Y476455D02*
X437263D01*
X435236Y476810D02*
X437205D01*
X435236Y479999D02*
X437205D01*
X435236Y479644D02*
X437205D01*
X435236Y479290D02*
X437205D01*
X435236Y478936D02*
X437205D01*
X435236Y478581D02*
X437205D01*
X435236Y478227D02*
X437205D01*
X435236Y477873D02*
X437205D01*
X435236Y477518D02*
X437205D01*
X435236Y477164D02*
X437205D01*
G54D75*
X474407Y411417D03*
X421257Y521654D03*
G54D134*
X478593Y525591D02*
G03X478593I-4184J0D01*
G01Y454724D02*
G03X478593I-4184J0D01*
G01X452019Y525591D02*
G03X452019I-3594J0D01*
G01X417176Y455146D02*
G03X417176I-3790J0D01*
G01X407333D02*
G03X407333I-3790J0D01*
G01X395717Y395769D02*
G03X395767Y395719I50J0D01*
G01X472172*
G03X472180Y395819I-0J50*
G01X477426D02*
G03X472180I-2623J15598D01*
G01X477426D02*
G03X477434Y395719I8J-50D01*
G01X497929*
G03X497979Y395769I-0J50*
G01Y537302*
G03X497929Y537352I-50J-0*
G01X423891*
G03X423883Y537252I0J-50*
G01X418637D02*
G03X423883I2623J-15598D01*
G01X418637D02*
G03X418629Y537352I-8J50D01*
G01X395767*
G03X395717Y537302I-0J-50*
G01Y395769*
X437845Y481425D02*
G03X437872Y481381I50J-0D01*
G01X438633Y480118D02*
G03X437872Y481381I-1428J0D01*
G01X438633Y480118D02*
Y476989D01*
G03X438683Y476939I50J0*
G01X441997Y476938*
G03X442047Y476988I-0J50*
X442032Y477024I-50J0*
G01X441206Y479012D02*
G03X442032Y477024I2806J0D01*
G01X442655Y481468D02*
G03X441206Y479012I1357J-2456D01*
G01X442655Y481468D02*
G03Y481556I-24J44D01*
G01X442659Y486470D02*
G03X442655Y481556I1353J-2458D01*
G01X442659Y486470D02*
G03X442635Y486564I-24J44D01*
G01X438967*
G03X438932Y486550I0J-50*
G01X437860Y485478*
G03X437845Y485442I35J-36*
G01Y481425*
X446817Y478958D02*
G03X446893Y478915I50J-0D01*
G01X446986Y478968D02*
G03X446893Y478915I1357J-2456D01*
G01X446986Y478968D02*
G03Y479056I-24J44D01*
G01X446893Y479110D02*
G03X446986Y479056I1450J2402D01*
G01X446893Y479110D02*
G03X446817Y479067I-26J-43D01*
G01Y479066*
X446818Y479012D02*
G03X446817Y479066I-2806J0D01*
G01X446818Y479012D02*
X446818D01*
X446817Y478958D02*
G03X446818Y479012I-2805J54D01*
G01X446817Y478958D02*
X446817D01*
X478593Y525591D02*
G03X478593I-4184J0D01*
G01X470226Y512205D02*
Y519291D01*
X470866Y519932D02*
G03X470226Y519291I0J-641D01*
G01X470866Y519932D02*
X477953D01*
X478593Y519291D02*
G03X477953Y519932I-640J0D01*
G01X478593Y519291D02*
Y512205D01*
X477953Y511564D02*
G03X478593Y512205I-0J641D01*
G01X477953Y511564D02*
X470866D01*
X470226Y512205D02*
G03X470866Y511564I640J-0D01*
G01X478593Y454724D02*
G03X478593I-4184J0D01*
G01X452019Y525591D02*
G03X452019I-3594J0D01*
G01X429871Y461105D02*
Y489370D01*
X430462Y490797D02*
G03X429871Y489370I1428J-1427D01*
G01X430462Y490797D02*
X432825Y493160D01*
X434252Y493751D02*
G03X432825Y493160I-0J-2019D01*
G01X434252Y493751D02*
X442846D01*
G03X442896Y493801I0J50*
X442864Y493847I-50J-0*
G01X437062Y502339D02*
G03X442864Y493847I9115J-0D01*
G01X455292Y502339D02*
G03X437062I-9115J-0D01*
G01X449490Y493847D02*
G03X455292Y502339I-3313J8492D01*
G01X449490Y493847D02*
G03X449458Y493801I18J-46D01*
X449508Y493751I50J-0*
G01X460630*
X462059Y493158D02*
G03X460630Y493751I-1429J-1426D01*
G01X462059Y493158D02*
X463026Y492191D01*
G03X463062Y492176I36J35*
G01X470715*
G03X470759Y492202I0J50*
G01X478593Y490157D02*
G03X470759Y492202I-4184J0D01*
G01Y488113D02*
G03X478593Y490157I3650J2044D01*
G01X470759Y488113D02*
G03X470715Y488139I-44J-24D01*
G01X462205*
X460777Y488730D02*
G03X462205Y488139I1428J1427D01*
G01X460777Y488730D02*
X459808Y489699D01*
G03X459773Y489714I-35J-35*
G01X456962*
G03X456912Y489664I0J-50*
X456927Y489628I50J-0*
G01X464207Y482348*
G03X464243Y482333I36J35*
G01X470176*
G03X470226Y482383I-0J50*
G01Y483858*
X470866Y484499D02*
G03X470226Y483858I0J-641D01*
G01X470866Y484499D02*
X477953D01*
X478593Y483858D02*
G03X477953Y484499I-640J0D01*
G01X478593Y483858D02*
Y476772D01*
X477953Y476131D02*
G03X478593Y476772I-0J641D01*
G01X477953Y476131D02*
X470866D01*
X470226Y476772D02*
G03X470866Y476131I640J-0D01*
G01X470226Y476772D02*
Y478246D01*
G03X470176Y478296I-50J0*
G01X463386*
X461959Y478888D02*
G03X463386Y478296I1427J1427D01*
G01X461959Y478888D02*
X454297Y486550D01*
G03X454261Y486564I-36J-36*
G01X445389*
G03X445339Y486514I0J-50*
X445365Y486470I50J0*
G01X446818Y484012D02*
G03X445365Y486470I-2806J0D01*
G01X446818Y484012D02*
X446818D01*
X446817Y483958D02*
G03X446818Y484012I-2805J54D01*
G01X446817Y483958D02*
X446817D01*
G03X446893Y483915I50J-0*
G01X451149Y481512D02*
G03X446893Y483915I-2806J0D01*
G01X449699Y479056D02*
G03X451149Y481512I-1356J2456D01*
G01X449699Y479056D02*
G03X449673Y479012I24J-44D01*
X449699Y478968I50J0*
G01X451149Y476512D02*
G03X449699Y478968I-2806J0D01*
G01Y474056D02*
G03X451149Y476512I-1356J2456D01*
G01X449699Y474056D02*
G03X449673Y474012I24J-44D01*
X449699Y473968I50J0*
G01X451149Y471512D02*
G03X449699Y473968I-2806J0D01*
G01Y469056D02*
G03X451149Y471512I-1356J2456D01*
G01X449699Y469056D02*
G03X449673Y469012I24J-44D01*
X449699Y468968I50J0*
G01X451149Y466512D02*
G03X449699Y468968I-2806J0D01*
G01Y464056D02*
G03X451149Y466512I-1356J2456D01*
G01X449699Y464056D02*
G03X449673Y464012I24J-44D01*
X449699Y463968I50J0*
G01X451149Y461512D02*
G03X449699Y463968I-2806J0D01*
G01Y459056D02*
G03X451149Y461512I-1356J2456D01*
G01X449699Y459056D02*
G03X449673Y459012I24J-44D01*
X449699Y458968I50J0*
G01X451149Y456512D02*
G03X449699Y458968I-2806J0D01*
G01Y454056D02*
G03X451149Y456512I-1356J2456D01*
G01X449699Y454056D02*
G03X449673Y454012I24J-44D01*
X449699Y453968I50J0*
G01X451149Y451512D02*
G03X449699Y453968I-2806J0D01*
G01X446893Y449110D02*
G03X451149Y451512I1450J2402D01*
G01X446893Y449110D02*
G03X446817Y449067I-26J-43D01*
G01Y449066*
X446818Y449012D02*
G03X446817Y449066I-2806J0D01*
G01X446818Y449012D02*
X446818D01*
X446512Y447739D02*
G03X446818Y449012I-2500J1273D01*
G01X446512Y447739D02*
G03X446507Y447716I45J-23D01*
G01Y445376*
G03X446557Y445326I50J-0*
G01X461022*
G03X461057Y445340I-0J50*
G01X462583Y446866*
X464567Y447688D02*
G03X462583Y446866I-0J-2806D01*
G01X464567Y447688D02*
X470176D01*
G03X470226Y447738I-0J50*
G01Y448425*
X470866Y449066D02*
G03X470226Y448425I0J-641D01*
G01X470866Y449066D02*
X477953D01*
X478593Y448425D02*
G03X477953Y449066I-640J0D01*
G01X478593Y448425D02*
Y441339D01*
X477953Y440698D02*
G03X478593Y441339I-0J641D01*
G01X477953Y440698D02*
X470866D01*
X470226Y441339D02*
G03X470866Y440698I640J-0D01*
G01X470226Y441339D02*
Y442026D01*
G03X470176Y442076I-50J-0*
G01X465750*
G03X465715Y442061I-0J-50*
G01X464189Y440536*
X462205Y439714D02*
G03X464189Y440536I-0J2806D01*
G01X462205Y439714D02*
X448017D01*
G03X447967Y439664I0J-50*
X448007Y439615I50J-0*
G01X455292Y430685D02*
G03X448007Y439615I-9115J0D01*
G01X437062Y430685D02*
G03X455292I9115J0D01*
G01X444686Y439678D02*
G03X437062Y430685I1491J-8993D01*
G01X444686Y439678D02*
G03X444728Y439727I-8J49D01*
X444689Y439776I-50J-0*
G01X443292Y440536D02*
G03X444689Y439776I1984J1984D01*
G01X443292Y440536D02*
X441717Y442110D01*
X440895Y444094D02*
G03X441717Y442110I2806J0D01*
G01X440895Y444094D02*
Y449012D01*
X442508Y451552D02*
G03X440895Y449012I1193J-2540D01*
G01X442508Y451552D02*
G03X442537Y451597I-21J45D01*
X442514Y451640I-50J0*
G01X441206Y454012D02*
G03X442514Y451640I2806J0D01*
G01X441828Y455774D02*
G03X441206Y454012I2184J-1762D01*
G01X441828Y455774D02*
G03X441839Y455806I-39J32D01*
X441789Y455856I-50J-0*
G01X435121*
X434111Y456274D02*
G03X435121Y455856I1010J1009D01*
G01X434111Y456274D02*
X430289Y460095D01*
X429871Y461105D02*
G03X430290Y460095I1428J0D01*
G01X419438Y451996D02*
Y458295D01*
X420079Y458936D02*
G03X419438Y458295I-0J-641D01*
G01X420079Y458936D02*
X426378D01*
X427019Y458295D02*
G03X426378Y458936I-641J0D01*
G01X427019Y458295D02*
Y451996D01*
X426378Y451356D02*
G03X427019Y451996I-0J640D01*
G01X426378Y451356D02*
X420079D01*
X419438Y451996D02*
G03X420079Y451356I641J0D01*
G01X417176Y455146D02*
G03X417176I-3790J0D01*
G01X407333D02*
G03X407333I-3790J0D01*
G01X423878Y537253D02*
X497979D01*
X424858Y537057D02*
X497979D01*
X425616Y536860D02*
X497979D01*
X426252Y536663D02*
X497979D01*
X426809Y536466D02*
X497979D01*
X427308Y536269D02*
X497979D01*
X427764Y536072D02*
X497979D01*
X428183Y535875D02*
X497979D01*
X428574Y535679D02*
X497979D01*
X428940Y535482D02*
X497979D01*
X429284Y535285D02*
X497979D01*
X429609Y535088D02*
X497979D01*
X429918Y534891D02*
X497979D01*
X430212Y534694D02*
X497979D01*
X430492Y534498D02*
X497979D01*
X430760Y534301D02*
X497979D01*
X431016Y534104D02*
X497979D01*
X431263Y533907D02*
X497979D01*
X431499Y533710D02*
X497979D01*
X431726Y533513D02*
X497979D01*
X431945Y533316D02*
X497979D01*
X432156Y533120D02*
X497979D01*
X432360Y532923D02*
X497979D01*
X432556Y532726D02*
X497979D01*
X432746Y532529D02*
X497979D01*
X432929Y532332D02*
X497979D01*
X433106Y532135D02*
X497979D01*
X433277Y531938D02*
X497979D01*
X433443Y531742D02*
X497979D01*
X433603Y531545D02*
X497979D01*
X433759Y531348D02*
X497979D01*
X433909Y531151D02*
X497979D01*
X434054Y530954D02*
X497979D01*
X434195Y530757D02*
X497979D01*
X434331Y530560D02*
X497979D01*
X434463Y530364D02*
X497979D01*
X434591Y530167D02*
X497979D01*
X434715Y529970D02*
X497979D01*
X474514Y529773D02*
X497979D01*
X475682Y529576D02*
X497979D01*
X476184Y529379D02*
X497979D01*
X476555Y529183D02*
X497979D01*
X476854Y528986D02*
X497979D01*
X477107Y528789D02*
X497979D01*
X477324Y528592D02*
X497979D01*
X477514Y528395D02*
X497979D01*
X477681Y528198D02*
X497979D01*
X477829Y528001D02*
X497979D01*
X477959Y527805D02*
X497979D01*
X478075Y527608D02*
X497979D01*
X478177Y527411D02*
X497979D01*
X478265Y527214D02*
X497979D01*
X478343Y527017D02*
X497979D01*
X478408Y526820D02*
X497979D01*
X478464Y526623D02*
X497979D01*
X478509Y526427D02*
X497979D01*
X478544Y526230D02*
X497979D01*
X478570Y526033D02*
X497979D01*
X478586Y525836D02*
X497979D01*
X478593Y525639D02*
X497979D01*
X478591Y525442D02*
X497979D01*
X478579Y525246D02*
X497979D01*
X478558Y525049D02*
X497979D01*
X478528Y524852D02*
X497979D01*
X478487Y524655D02*
X497979D01*
X478437Y524458D02*
X497979D01*
X478377Y524261D02*
X497979D01*
X478305Y524064D02*
X497979D01*
X478222Y523868D02*
X497979D01*
X478127Y523671D02*
X497979D01*
X478018Y523474D02*
X497979D01*
X477895Y523277D02*
X497979D01*
X477756Y523080D02*
X497979D01*
X477599Y522883D02*
X497979D01*
X477421Y522686D02*
X497979D01*
X477218Y522490D02*
X497979D01*
X476984Y522293D02*
X497979D01*
X476710Y522096D02*
X497979D01*
X476379Y521899D02*
X497979D01*
X475954Y521702D02*
X497979D01*
X475313Y521505D02*
X497979D01*
X437074Y521309D02*
X497979D01*
X437068Y521112D02*
X497979D01*
X437060Y520915D02*
X497979D01*
X437050Y520718D02*
X497979D01*
X437037Y520521D02*
X497979D01*
X437022Y520324D02*
X497979D01*
X437004Y520127D02*
X497979D01*
X477994Y519931D02*
X497979D01*
X478416Y519734D02*
X497979D01*
X478544Y519537D02*
X497979D01*
X478591Y519340D02*
X497979D01*
X478593Y519143D02*
X497979D01*
X478593Y518946D02*
X497979D01*
X478593Y518749D02*
X497979D01*
X478593Y518553D02*
X497979D01*
X478593Y518356D02*
X497979D01*
X478593Y518159D02*
X497979D01*
X478593Y517962D02*
X497979D01*
X478593Y517765D02*
X497979D01*
X478593Y517568D02*
X497979D01*
X478593Y517372D02*
X497979D01*
X478593Y517175D02*
X497979D01*
X478593Y516978D02*
X497979D01*
X478593Y516781D02*
X497979D01*
X478593Y516584D02*
X497979D01*
X478593Y516387D02*
X497979D01*
X478593Y516190D02*
X497979D01*
X478593Y515994D02*
X497979D01*
X478593Y515797D02*
X497979D01*
X478593Y515600D02*
X497979D01*
X478593Y515403D02*
X497979D01*
X478593Y515206D02*
X497979D01*
X478593Y515009D02*
X497979D01*
X478593Y514812D02*
X497979D01*
X478593Y514616D02*
X497979D01*
X478593Y514419D02*
X497979D01*
X478593Y514222D02*
X497979D01*
X478593Y514025D02*
X497979D01*
X478593Y513828D02*
X497979D01*
X478593Y513631D02*
X497979D01*
X478593Y513435D02*
X497979D01*
X478593Y513238D02*
X497979D01*
X478593Y513041D02*
X497979D01*
X478593Y512844D02*
X497979D01*
X478593Y512647D02*
X497979D01*
X478593Y512450D02*
X497979D01*
X478593Y512253D02*
X497979D01*
X478576Y512057D02*
X497979D01*
X478492Y511860D02*
X497979D01*
X478294Y511663D02*
X497979D01*
X433360Y511466D02*
X497979D01*
X448003Y511269D02*
X497979D01*
X448787Y511072D02*
X497979D01*
X449373Y510875D02*
X497979D01*
X449856Y510679D02*
X497979D01*
X450273Y510482D02*
X497979D01*
X450643Y510285D02*
X497979D01*
X450977Y510088D02*
X497979D01*
X451281Y509891D02*
X497979D01*
X451561Y509694D02*
X497979D01*
X451820Y509498D02*
X497979D01*
X452061Y509301D02*
X497979D01*
X452286Y509104D02*
X497979D01*
X452497Y508907D02*
X497979D01*
X452696Y508710D02*
X497979D01*
X452883Y508513D02*
X497979D01*
X453059Y508316D02*
X497979D01*
X453225Y508120D02*
X497979D01*
X453382Y507923D02*
X497979D01*
X453530Y507726D02*
X497979D01*
X453670Y507529D02*
X497979D01*
X453803Y507332D02*
X497979D01*
X453928Y507135D02*
X497979D01*
X454047Y506938D02*
X497979D01*
X454158Y506742D02*
X497979D01*
X454264Y506545D02*
X497979D01*
X454363Y506348D02*
X497979D01*
X454457Y506151D02*
X497979D01*
X454545Y505954D02*
X497979D01*
X454627Y505757D02*
X497979D01*
X454704Y505560D02*
X497979D01*
X454776Y505364D02*
X497979D01*
X454843Y505167D02*
X497979D01*
X454904Y504970D02*
X497979D01*
X454961Y504773D02*
X497979D01*
X455013Y504576D02*
X497979D01*
X455061Y504379D02*
X497979D01*
X455104Y504183D02*
X497979D01*
X455142Y503986D02*
X497979D01*
X455176Y503789D02*
X497979D01*
X455206Y503592D02*
X497979D01*
X455231Y503395D02*
X497979D01*
X455252Y503198D02*
X497979D01*
X455268Y503001D02*
X497979D01*
X455280Y502805D02*
X497979D01*
X455288Y502608D02*
X497979D01*
X455292Y502411D02*
X497979D01*
X455291Y502214D02*
X497979D01*
X455287Y502017D02*
X497979D01*
X455277Y501820D02*
X497979D01*
X455264Y501623D02*
X497979D01*
X455246Y501427D02*
X497979D01*
X455225Y501230D02*
X497979D01*
X455198Y501033D02*
X497979D01*
X455168Y500836D02*
X497979D01*
X455132Y500639D02*
X497979D01*
X455093Y500442D02*
X497979D01*
X455049Y500246D02*
X497979D01*
X455000Y500049D02*
X497979D01*
X454946Y499852D02*
X497979D01*
X454888Y499655D02*
X497979D01*
X454825Y499458D02*
X497979D01*
X454757Y499261D02*
X497979D01*
X454684Y499064D02*
X497979D01*
X454605Y498868D02*
X497979D01*
X454522Y498671D02*
X497979D01*
X454432Y498474D02*
X497979D01*
X454337Y498277D02*
X497979D01*
X454236Y498080D02*
X497979D01*
X454129Y497883D02*
X497979D01*
X454015Y497686D02*
X497979D01*
X453895Y497490D02*
X497979D01*
X453768Y497293D02*
X497979D01*
X453633Y497096D02*
X497979D01*
X453491Y496899D02*
X497979D01*
X453340Y496702D02*
X497979D01*
X453181Y496505D02*
X497979D01*
X453012Y496309D02*
X497979D01*
X452833Y496112D02*
X497979D01*
X452644Y495915D02*
X497979D01*
X452442Y495718D02*
X497979D01*
X452227Y495521D02*
X497979D01*
X451998Y495324D02*
X497979D01*
X451752Y495127D02*
X497979D01*
X451487Y494931D02*
X497979D01*
X451202Y494734D02*
X497979D01*
X450890Y494537D02*
X497979D01*
X474514Y494340D02*
X497979D01*
X475682Y494143D02*
X497979D01*
X476184Y493946D02*
X497979D01*
X476555Y493749D02*
X497979D01*
X476854Y493553D02*
X497979D01*
X477107Y493356D02*
X497979D01*
X477324Y493159D02*
X497979D01*
X477514Y492962D02*
X497979D01*
X477681Y492765D02*
X497979D01*
X477829Y492568D02*
X497979D01*
X477959Y492372D02*
X497979D01*
X478075Y492175D02*
X497979D01*
X478177Y491978D02*
X497979D01*
X478265Y491781D02*
X497979D01*
X478343Y491584D02*
X497979D01*
X478408Y491387D02*
X497979D01*
X478464Y491190D02*
X497979D01*
X478509Y490994D02*
X497979D01*
X478544Y490797D02*
X497979D01*
X478570Y490600D02*
X497979D01*
X478586Y490403D02*
X497979D01*
X478593Y490206D02*
X497979D01*
X478591Y490009D02*
X497979D01*
X478579Y489812D02*
X497979D01*
X478558Y489616D02*
X497979D01*
X478528Y489419D02*
X497979D01*
X478487Y489222D02*
X497979D01*
X478437Y489025D02*
X497979D01*
X478377Y488828D02*
X497979D01*
X478305Y488631D02*
X497979D01*
X478222Y488435D02*
X497979D01*
X478127Y488238D02*
X497979D01*
X478018Y488041D02*
X497979D01*
X477895Y487844D02*
X497979D01*
X477756Y487647D02*
X497979D01*
X477599Y487450D02*
X497979D01*
X477421Y487253D02*
X497979D01*
X477218Y487057D02*
X497979D01*
X476984Y486860D02*
X497979D01*
X476710Y486663D02*
X497979D01*
X476379Y486466D02*
X497979D01*
X475954Y486269D02*
X497979D01*
X475313Y486072D02*
X497979D01*
X460680Y485875D02*
X497979D01*
X460877Y485679D02*
X497979D01*
X461074Y485482D02*
X497979D01*
X461270Y485285D02*
X497979D01*
X461467Y485088D02*
X497979D01*
X461664Y484891D02*
X497979D01*
X461861Y484694D02*
X497979D01*
X477994Y484498D02*
X497979D01*
X478416Y484301D02*
X497979D01*
X478544Y484104D02*
X497979D01*
X478591Y483907D02*
X497979D01*
X478593Y483710D02*
X497979D01*
X478593Y483513D02*
X497979D01*
X478593Y483316D02*
X497979D01*
X478593Y483120D02*
X497979D01*
X478593Y482923D02*
X497979D01*
X478593Y482726D02*
X497979D01*
X478593Y482529D02*
X497979D01*
X478593Y482332D02*
X497979D01*
X478593Y482135D02*
X497979D01*
X478593Y481938D02*
X497979D01*
X478593Y481742D02*
X497979D01*
X478593Y481545D02*
X497979D01*
X478593Y481348D02*
X497979D01*
X478593Y481151D02*
X497979D01*
X478593Y480954D02*
X497979D01*
X478593Y480757D02*
X497979D01*
X478593Y480560D02*
X497979D01*
X478593Y480364D02*
X497979D01*
X478593Y480167D02*
X497979D01*
X478593Y479970D02*
X497979D01*
X478593Y479773D02*
X497979D01*
X478593Y479576D02*
X497979D01*
X478593Y479379D02*
X497979D01*
X478593Y479183D02*
X497979D01*
X478593Y478986D02*
X497979D01*
X478593Y478789D02*
X497979D01*
X478593Y478592D02*
X497979D01*
X478593Y478395D02*
X497979D01*
X478593Y478198D02*
X497979D01*
X478593Y478001D02*
X497979D01*
X478593Y477805D02*
X497979D01*
X478593Y477608D02*
X497979D01*
X478593Y477411D02*
X497979D01*
X478593Y477214D02*
X497979D01*
X478593Y477017D02*
X497979D01*
X478593Y476820D02*
X497979D01*
X478576Y476623D02*
X497979D01*
X478492Y476427D02*
X497979D01*
X478294Y476230D02*
X497979D01*
X451107Y476033D02*
X497979D01*
X451066Y475836D02*
X497979D01*
X451009Y475639D02*
X497979D01*
X450937Y475442D02*
X497979D01*
X450846Y475246D02*
X497979D01*
X450737Y475049D02*
X497979D01*
X450605Y474852D02*
X497979D01*
X450446Y474655D02*
X497979D01*
X450254Y474458D02*
X497979D01*
X450018Y474261D02*
X497979D01*
X449714Y474064D02*
X497979D01*
X449868Y473868D02*
X497979D01*
X450135Y473671D02*
X497979D01*
X450349Y473474D02*
X497979D01*
X450524Y473277D02*
X497979D01*
X450670Y473080D02*
X497979D01*
X450791Y472883D02*
X497979D01*
X450891Y472686D02*
X497979D01*
X450973Y472490D02*
X497979D01*
X451038Y472293D02*
X497979D01*
X451087Y472096D02*
X497979D01*
X451122Y471899D02*
X497979D01*
X451142Y471702D02*
X497979D01*
X451149Y471505D02*
X497979D01*
X451141Y471309D02*
X497979D01*
X451120Y471112D02*
X497979D01*
X451084Y470915D02*
X497979D01*
X451034Y470718D02*
X497979D01*
X450968Y470521D02*
X497979D01*
X450885Y470324D02*
X497979D01*
X450783Y470127D02*
X497979D01*
X450660Y469931D02*
X497979D01*
X450513Y469734D02*
X497979D01*
X450335Y469537D02*
X497979D01*
X450119Y469340D02*
X497979D01*
X449846Y469143D02*
X497979D01*
X449738Y468946D02*
X497979D01*
X450036Y468749D02*
X497979D01*
X450269Y468553D02*
X497979D01*
X450458Y468356D02*
X497979D01*
X450615Y468159D02*
X497979D01*
X450745Y467962D02*
X497979D01*
X450853Y467765D02*
X497979D01*
X450942Y467568D02*
X497979D01*
X451014Y467372D02*
X497979D01*
X451069Y467175D02*
X497979D01*
X451110Y466978D02*
X497979D01*
X451136Y466781D02*
X497979D01*
X451148Y466584D02*
X497979D01*
X451146Y466387D02*
X497979D01*
X451130Y466190D02*
X497979D01*
X451100Y465994D02*
X497979D01*
X451056Y465797D02*
X497979D01*
X450996Y465600D02*
X497979D01*
X450920Y465403D02*
X497979D01*
X450826Y465206D02*
X497979D01*
X450712Y465009D02*
X497979D01*
X450575Y464812D02*
X497979D01*
X450411Y464616D02*
X497979D01*
X450211Y464419D02*
X497979D01*
X449964Y464222D02*
X497979D01*
X449675Y464025D02*
X497979D01*
X449927Y463828D02*
X497979D01*
X450182Y463631D02*
X497979D01*
X450387Y463435D02*
X497979D01*
X450555Y463238D02*
X497979D01*
X450696Y463041D02*
X497979D01*
X450812Y462844D02*
X497979D01*
X450909Y462647D02*
X497979D01*
X450987Y462450D02*
X497979D01*
X451049Y462253D02*
X497979D01*
X451095Y462057D02*
X497979D01*
X451127Y461860D02*
X497979D01*
X451145Y461663D02*
X497979D01*
X451148Y461466D02*
X497979D01*
X451138Y461269D02*
X497979D01*
X451114Y461072D02*
X497979D01*
X451075Y460875D02*
X497979D01*
X451022Y460679D02*
X497979D01*
X450953Y460482D02*
X497979D01*
X450866Y460285D02*
X497979D01*
X450760Y460088D02*
X497979D01*
X450633Y459891D02*
X497979D01*
X450480Y459694D02*
X497979D01*
X450296Y459498D02*
X497979D01*
X450070Y459301D02*
X497979D01*
X449782Y459104D02*
X497979D01*
X474514Y458907D02*
X497979D01*
X475682Y458710D02*
X497979D01*
X476184Y458513D02*
X497979D01*
X476555Y458316D02*
X497979D01*
X476854Y458120D02*
X497979D01*
X477107Y457923D02*
X497979D01*
X477324Y457726D02*
X497979D01*
X477514Y457529D02*
X497979D01*
X477681Y457332D02*
X497979D01*
X477829Y457135D02*
X497979D01*
X477959Y456938D02*
X497979D01*
X478075Y456742D02*
X497979D01*
X478177Y456545D02*
X497979D01*
X478265Y456348D02*
X497979D01*
X478343Y456151D02*
X497979D01*
X478408Y455954D02*
X497979D01*
X478464Y455757D02*
X497979D01*
X478509Y455560D02*
X497979D01*
X478544Y455364D02*
X497979D01*
X478570Y455167D02*
X497979D01*
X478586Y454970D02*
X497979D01*
X478593Y454773D02*
X497979D01*
X478591Y454576D02*
X497979D01*
X478579Y454379D02*
X497979D01*
X478558Y454183D02*
X497979D01*
X478528Y453986D02*
X497979D01*
X478487Y453789D02*
X497979D01*
X478437Y453592D02*
X497979D01*
X478377Y453395D02*
X497979D01*
X478305Y453198D02*
X497979D01*
X478222Y453001D02*
X497979D01*
X478127Y452805D02*
X497979D01*
X478018Y452608D02*
X497979D01*
X477895Y452411D02*
X497979D01*
X477756Y452214D02*
X497979D01*
X477599Y452017D02*
X497979D01*
X477421Y451820D02*
X497979D01*
X477218Y451623D02*
X497979D01*
X476984Y451427D02*
X497979D01*
X476710Y451230D02*
X497979D01*
X476379Y451033D02*
X497979D01*
X475954Y450836D02*
X497979D01*
X475313Y450639D02*
X497979D01*
X450937Y450442D02*
X497979D01*
X450846Y450246D02*
X497979D01*
X450737Y450049D02*
X497979D01*
X450605Y449852D02*
X497979D01*
X450446Y449655D02*
X497979D01*
X450254Y449458D02*
X497979D01*
X450018Y449261D02*
X497979D01*
X477994Y449064D02*
X497979D01*
X478416Y448868D02*
X497979D01*
X478544Y448671D02*
X497979D01*
X478591Y448474D02*
X497979D01*
X478593Y448277D02*
X497979D01*
X478593Y448080D02*
X497979D01*
X478593Y447883D02*
X497979D01*
X478593Y447686D02*
X497979D01*
X478593Y447490D02*
X497979D01*
X478593Y447293D02*
X497979D01*
X478593Y447096D02*
X497979D01*
X478593Y446899D02*
X497979D01*
X478593Y446702D02*
X497979D01*
X478593Y446505D02*
X497979D01*
X478593Y446309D02*
X497979D01*
X478593Y446112D02*
X497979D01*
X478593Y445915D02*
X497979D01*
X478593Y445718D02*
X497979D01*
X478593Y445521D02*
X497979D01*
X478593Y445324D02*
X497979D01*
X478593Y445127D02*
X497979D01*
X478593Y444931D02*
X497979D01*
X478593Y444734D02*
X497979D01*
X478593Y444537D02*
X497979D01*
X478593Y444340D02*
X497979D01*
X478593Y444143D02*
X497979D01*
X478593Y443946D02*
X497979D01*
X478593Y443749D02*
X497979D01*
X478593Y443553D02*
X497979D01*
X478593Y443356D02*
X497979D01*
X478593Y443159D02*
X497979D01*
X478593Y442962D02*
X497979D01*
X478593Y442765D02*
X497979D01*
X478593Y442568D02*
X497979D01*
X478593Y442372D02*
X497979D01*
X478593Y442175D02*
X497979D01*
X478593Y441978D02*
X497979D01*
X478593Y441781D02*
X497979D01*
X478593Y441584D02*
X497979D01*
X478593Y441387D02*
X497979D01*
X478576Y441190D02*
X497979D01*
X478492Y440994D02*
X497979D01*
X478294Y440797D02*
X497979D01*
X464253Y440600D02*
X497979D01*
X464047Y440403D02*
X497979D01*
X463792Y440206D02*
X497979D01*
X463458Y440009D02*
X497979D01*
X462942Y439812D02*
X497979D01*
X448004Y439616D02*
X497979D01*
X448787Y439419D02*
X497979D01*
X449373Y439222D02*
X497979D01*
X449856Y439025D02*
X497979D01*
X450273Y438828D02*
X497979D01*
X450643Y438631D02*
X497979D01*
X450977Y438435D02*
X497979D01*
X451281Y438238D02*
X497979D01*
X451561Y438041D02*
X497979D01*
X451820Y437844D02*
X497979D01*
X452061Y437647D02*
X497979D01*
X452286Y437450D02*
X497979D01*
X452497Y437253D02*
X497979D01*
X452696Y437057D02*
X497979D01*
X452883Y436860D02*
X497979D01*
X453059Y436663D02*
X497979D01*
X453225Y436466D02*
X497979D01*
X453382Y436269D02*
X497979D01*
X453530Y436072D02*
X497979D01*
X453670Y435875D02*
X497979D01*
X453803Y435679D02*
X497979D01*
X453928Y435482D02*
X497979D01*
X454047Y435285D02*
X497979D01*
X454158Y435088D02*
X497979D01*
X454264Y434891D02*
X497979D01*
X454363Y434694D02*
X497979D01*
X454457Y434498D02*
X497979D01*
X454545Y434301D02*
X497979D01*
X454627Y434104D02*
X497979D01*
X454704Y433907D02*
X497979D01*
X454776Y433710D02*
X497979D01*
X454843Y433513D02*
X497979D01*
X454904Y433316D02*
X497979D01*
X454961Y433120D02*
X497979D01*
X455013Y432923D02*
X497979D01*
X455061Y432726D02*
X497979D01*
X455104Y432529D02*
X497979D01*
X455142Y432332D02*
X497979D01*
X455176Y432135D02*
X497979D01*
X455206Y431938D02*
X497979D01*
X455231Y431742D02*
X497979D01*
X455252Y431545D02*
X497979D01*
X455268Y431348D02*
X497979D01*
X455280Y431151D02*
X497979D01*
X455288Y430954D02*
X497979D01*
X455292Y430757D02*
X497979D01*
X455291Y430560D02*
X497979D01*
X455287Y430364D02*
X497979D01*
X455277Y430167D02*
X497979D01*
X455264Y429970D02*
X497979D01*
X455246Y429773D02*
X497979D01*
X455225Y429576D02*
X497979D01*
X455198Y429379D02*
X497979D01*
X455168Y429183D02*
X497979D01*
X455132Y428986D02*
X497979D01*
X455093Y428789D02*
X497979D01*
X455049Y428592D02*
X497979D01*
X455000Y428395D02*
X497979D01*
X454946Y428198D02*
X497979D01*
X454888Y428001D02*
X497979D01*
X454825Y427805D02*
X497979D01*
X454757Y427608D02*
X497979D01*
X454684Y427411D02*
X497979D01*
X475618Y427214D02*
X497979D01*
X477419Y427017D02*
X497979D01*
X478401Y426820D02*
X497979D01*
X479159Y426623D02*
X497979D01*
X479795Y426427D02*
X497979D01*
X480352Y426230D02*
X497979D01*
X480852Y426033D02*
X497979D01*
X481307Y425836D02*
X497979D01*
X481727Y425639D02*
X497979D01*
X482117Y425442D02*
X497979D01*
X482483Y425246D02*
X497979D01*
X482827Y425049D02*
X497979D01*
X483153Y424852D02*
X497979D01*
X483461Y424655D02*
X497979D01*
X483755Y424458D02*
X497979D01*
X484035Y424261D02*
X497979D01*
X484303Y424064D02*
X497979D01*
X484560Y423868D02*
X497979D01*
X484806Y423671D02*
X497979D01*
X485042Y423474D02*
X497979D01*
X485270Y423277D02*
X497979D01*
X485489Y423080D02*
X497979D01*
X485699Y422883D02*
X497979D01*
X485903Y422686D02*
X497979D01*
X486099Y422490D02*
X497979D01*
X486289Y422293D02*
X497979D01*
X486472Y422096D02*
X497979D01*
X486649Y421899D02*
X497979D01*
X486821Y421702D02*
X497979D01*
X486986Y421505D02*
X497979D01*
X487147Y421309D02*
X497979D01*
X487302Y421112D02*
X497979D01*
X487452Y420915D02*
X497979D01*
X487598Y420718D02*
X497979D01*
X487738Y420521D02*
X497979D01*
X487875Y420324D02*
X497979D01*
X488007Y420127D02*
X497979D01*
X488134Y419931D02*
X497979D01*
X488258Y419734D02*
X497979D01*
X488378Y419537D02*
X497979D01*
X488494Y419340D02*
X497979D01*
X488606Y419143D02*
X497979D01*
X488714Y418946D02*
X497979D01*
X488819Y418749D02*
X497979D01*
X488920Y418553D02*
X497979D01*
X489018Y418356D02*
X497979D01*
X489112Y418159D02*
X497979D01*
X489203Y417962D02*
X497979D01*
X489291Y417765D02*
X497979D01*
X489376Y417568D02*
X497979D01*
X489457Y417372D02*
X497979D01*
X489536Y417175D02*
X497979D01*
X489611Y416978D02*
X497979D01*
X489684Y416781D02*
X497979D01*
X489753Y416584D02*
X497979D01*
X489820Y416387D02*
X497979D01*
X489884Y416190D02*
X497979D01*
X489944Y415994D02*
X497979D01*
X490003Y415797D02*
X497979D01*
X490058Y415600D02*
X497979D01*
X490110Y415403D02*
X497979D01*
X490160Y415206D02*
X497979D01*
X490208Y415009D02*
X497979D01*
X490252Y414812D02*
X497979D01*
X490294Y414616D02*
X497979D01*
X490333Y414419D02*
X497979D01*
X490370Y414222D02*
X497979D01*
X490404Y414025D02*
X497979D01*
X490436Y413828D02*
X497979D01*
X490465Y413631D02*
X497979D01*
X490492Y413435D02*
X497979D01*
X490516Y413238D02*
X497979D01*
X490537Y413041D02*
X497979D01*
X490556Y412844D02*
X497979D01*
X490573Y412647D02*
X497979D01*
X490587Y412450D02*
X497979D01*
X490599Y412253D02*
X497979D01*
X490608Y412057D02*
X497979D01*
X490615Y411860D02*
X497979D01*
X490619Y411663D02*
X497979D01*
X490621Y411466D02*
X497979D01*
X490620Y411269D02*
X497979D01*
X490617Y411072D02*
X497979D01*
X490612Y410875D02*
X497979D01*
X490604Y410679D02*
X497979D01*
X490593Y410482D02*
X497979D01*
X490580Y410285D02*
X497979D01*
X490565Y410088D02*
X497979D01*
X490547Y409891D02*
X497979D01*
X490527Y409694D02*
X497979D01*
X490504Y409498D02*
X497979D01*
X490479Y409301D02*
X497979D01*
X490451Y409104D02*
X497979D01*
X490420Y408907D02*
X497979D01*
X490387Y408710D02*
X497979D01*
X490352Y408513D02*
X497979D01*
X490314Y408316D02*
X497979D01*
X490273Y408120D02*
X497979D01*
X490230Y407923D02*
X497979D01*
X490184Y407726D02*
X497979D01*
X490135Y407529D02*
X497979D01*
X490084Y407332D02*
X497979D01*
X490030Y407135D02*
X497979D01*
X489973Y406938D02*
X497979D01*
X489914Y406742D02*
X497979D01*
X489852Y406545D02*
X497979D01*
X489786Y406348D02*
X497979D01*
X489718Y406151D02*
X497979D01*
X489647Y405954D02*
X497979D01*
X489574Y405757D02*
X497979D01*
X489497Y405560D02*
X497979D01*
X489417Y405364D02*
X497979D01*
X489333Y405167D02*
X497979D01*
X489247Y404970D02*
X497979D01*
X489158Y404773D02*
X497979D01*
X489065Y404576D02*
X497979D01*
X488969Y404379D02*
X497979D01*
X488869Y404183D02*
X497979D01*
X488766Y403986D02*
X497979D01*
X488660Y403789D02*
X497979D01*
X488550Y403592D02*
X497979D01*
X488436Y403395D02*
X497979D01*
X488318Y403198D02*
X497979D01*
X488196Y403001D02*
X497979D01*
X488070Y402805D02*
X497979D01*
X487941Y402608D02*
X497979D01*
X487806Y402411D02*
X497979D01*
X487668Y402214D02*
X497979D01*
X487525Y402017D02*
X497979D01*
X487377Y401820D02*
X497979D01*
X487224Y401623D02*
X497979D01*
X487066Y401427D02*
X497979D01*
X486903Y401230D02*
X497979D01*
X486735Y401033D02*
X497979D01*
X486561Y400836D02*
X497979D01*
X486380Y400639D02*
X497979D01*
X486194Y400442D02*
X497979D01*
X486001Y400246D02*
X497979D01*
X485801Y400049D02*
X497979D01*
X485594Y399852D02*
X497979D01*
X485379Y399655D02*
X497979D01*
X485156Y399458D02*
X497979D01*
X484924Y399261D02*
X497979D01*
X484683Y399064D02*
X497979D01*
X484431Y398868D02*
X497979D01*
X484169Y398671D02*
X497979D01*
X483895Y398474D02*
X497979D01*
X483608Y398277D02*
X497979D01*
X483307Y398080D02*
X497979D01*
X482990Y397883D02*
X497979D01*
X482656Y397686D02*
X497979D01*
X482301Y397490D02*
X497979D01*
X481923Y397293D02*
X497979D01*
X481519Y397096D02*
X497979D01*
X481082Y396899D02*
X497979D01*
X480605Y396702D02*
X497979D01*
X480079Y396505D02*
X497979D01*
X479485Y396309D02*
X497979D01*
X478795Y396112D02*
X497979D01*
X477945Y395915D02*
X497979D01*
X434835Y529773D02*
X474305D01*
X450548Y494340D02*
X474305D01*
X449805Y458907D02*
X474305D01*
X454605Y427214D02*
X473989D01*
X437077Y521505D02*
X473506D01*
X460483Y486072D02*
X473506D01*
X451009Y450639D02*
X473506D01*
X434950Y529576D02*
X473137D01*
X450166Y494143D02*
X473137D01*
X450087Y458710D02*
X473137D01*
X437077Y521702D02*
X472865D01*
X460286Y486269D02*
X472865D01*
X451066Y450836D02*
X472865D01*
X435062Y529379D02*
X472635D01*
X449733Y493946D02*
X472635D01*
X450310Y458513D02*
X472635D01*
X437076Y521899D02*
X472440D01*
X460089Y486466D02*
X472440D01*
X451107Y451033D02*
X472440D01*
X448522Y529183D02*
X472264D01*
X460703Y493749D02*
X472264D01*
X450492Y458316D02*
X472264D01*
X454522Y427017D02*
X472187D01*
X449262Y522096D02*
X472109D01*
X459893Y486663D02*
X472109D01*
X451134Y451230D02*
X472109D01*
X449602Y528986D02*
X471965D01*
X461502Y493553D02*
X471965D01*
X450643Y458120D02*
X471965D01*
X449852Y522293D02*
X471835D01*
X459696Y486860D02*
X471835D01*
X451147Y451427D02*
X471835D01*
X450063Y528789D02*
X471712D01*
X461829Y493356D02*
X471712D01*
X450768Y457923D02*
X471712D01*
X395717Y395915D02*
X471661D01*
X450241Y522490D02*
X471601D01*
X459499Y487057D02*
X471601D01*
X451146Y451623D02*
X471601D01*
X450401Y528592D02*
X471495D01*
X462058Y493159D02*
X471495D01*
X450873Y457726D02*
X471495D01*
X450541Y522686D02*
X471398D01*
X459302Y487253D02*
X471398D01*
X451132Y451820D02*
X471398D01*
X450672Y528395D02*
X471305D01*
X462255Y492962D02*
X471305D01*
X450958Y457529D02*
X471305D01*
X450788Y522883D02*
X471220D01*
X459105Y487450D02*
X471220D01*
X451103Y452017D02*
X471220D01*
X454432Y426820D02*
X471205D01*
X450897Y528198D02*
X471138D01*
X462452Y492765D02*
X471138D01*
X451026Y457332D02*
X471138D01*
X450996Y523080D02*
X471062D01*
X458908Y487647D02*
X471062D01*
X451059Y452214D02*
X471062D01*
X451090Y528001D02*
X470990D01*
X462648Y492568D02*
X470990D01*
X451079Y457135D02*
X470990D01*
X451175Y523277D02*
X470923D01*
X458711Y487844D02*
X470923D01*
X451001Y452411D02*
X470923D01*
X451255Y527805D02*
X470859D01*
X462845Y492372D02*
X470859D01*
X451116Y456938D02*
X470859D01*
X436983Y519931D02*
X470825D01*
X462058Y484498D02*
X470825D01*
X449714Y449064D02*
X470825D01*
X395717Y396112D02*
X470811D01*
X451329Y523474D02*
X470801D01*
X458515Y488041D02*
X470801D01*
X450926Y452608D02*
X470801D01*
X451399Y527608D02*
X470744D01*
X451139Y456742D02*
X470744D01*
X451463Y523671D02*
X470692D01*
X450833Y452805D02*
X470692D01*
X451523Y527411D02*
X470642D01*
X451148Y456545D02*
X470642D01*
X451578Y523868D02*
X470597D01*
X450721Y453001D02*
X470597D01*
X451631Y527214D02*
X470553D01*
X451144Y456348D02*
X470553D01*
X433523Y511663D02*
X470525D01*
X451134Y476230D02*
X470525D01*
X464450Y440797D02*
X470525D01*
X451678Y524064D02*
X470514D01*
X450585Y453198D02*
X470514D01*
X451723Y527017D02*
X470476D01*
X451125Y456151D02*
X470476D01*
X454337Y426623D02*
X470447D01*
X451764Y524261D02*
X470442D01*
X450423Y453395D02*
X470442D01*
X451802Y526820D02*
X470410D01*
X451093Y455954D02*
X470410D01*
X436961Y519734D02*
X470403D01*
X462255Y484301D02*
X470403D01*
X449280Y448868D02*
X470403D01*
X451835Y524458D02*
X470382D01*
X450226Y453592D02*
X470382D01*
X451867Y526623D02*
X470355D01*
X451045Y455757D02*
X470355D01*
X451895Y524655D02*
X470332D01*
X449983Y453789D02*
X470332D01*
X433681Y511860D02*
X470326D01*
X451147Y476427D02*
X470326D01*
X464647Y440994D02*
X470326D01*
X451920Y526427D02*
X470310D01*
X450982Y455560D02*
X470310D01*
X451942Y524852D02*
X470291D01*
X449681Y453986D02*
X470291D01*
X451961Y526230D02*
X470275D01*
X450903Y455364D02*
X470275D01*
X436935Y519537D02*
X470275D01*
X462452Y484104D02*
X470275D01*
X446797Y448671D02*
X470275D01*
X451977Y525049D02*
X470261D01*
X449907Y454183D02*
X470261D01*
X451991Y526033D02*
X470249D01*
X450805Y455167D02*
X470249D01*
X433834Y512057D02*
X470243D01*
X451146Y476623D02*
X470243D01*
X464844Y441190D02*
X470243D01*
X452002Y525246D02*
X470240D01*
X450166Y454379D02*
X470240D01*
X452010Y525836D02*
X470233D01*
X450687Y454970D02*
X470233D01*
X452015Y525442D02*
X470228D01*
X450374Y454576D02*
X470228D01*
X436907Y519340D02*
X470227D01*
X462648Y483907D02*
X470227D01*
X446766Y448474D02*
X470227D01*
X452018Y525639D02*
X470226D01*
X450545Y454773D02*
X470226D01*
X436877Y519143D02*
X470226D01*
X436844Y518946D02*
X470226D01*
X436809Y518749D02*
X470226D01*
X436771Y518553D02*
X470226D01*
X436730Y518356D02*
X470226D01*
X436687Y518159D02*
X470226D01*
X436641Y517962D02*
X470226D01*
X436592Y517765D02*
X470226D01*
X436541Y517568D02*
X470226D01*
X436487Y517372D02*
X470226D01*
X436430Y517175D02*
X470226D01*
X436371Y516978D02*
X470226D01*
X436308Y516781D02*
X470226D01*
X436243Y516584D02*
X470226D01*
X436175Y516387D02*
X470226D01*
X436104Y516190D02*
X470226D01*
X436030Y515994D02*
X470226D01*
X435953Y515797D02*
X470226D01*
X435873Y515600D02*
X470226D01*
X435790Y515403D02*
X470226D01*
X435704Y515206D02*
X470226D01*
X435614Y515009D02*
X470226D01*
X435522Y514812D02*
X470226D01*
X435426Y514616D02*
X470226D01*
X435326Y514419D02*
X470226D01*
X435223Y514222D02*
X470226D01*
X435116Y514025D02*
X470226D01*
X435006Y513828D02*
X470226D01*
X434892Y513631D02*
X470226D01*
X434775Y513435D02*
X470226D01*
X434653Y513238D02*
X470226D01*
X434527Y513041D02*
X470226D01*
X434397Y512844D02*
X470226D01*
X434263Y512647D02*
X470226D01*
X434124Y512450D02*
X470226D01*
X433981Y512253D02*
X470226D01*
X462845Y483710D02*
X470226D01*
X463042Y483513D02*
X470226D01*
X463239Y483316D02*
X470226D01*
X463436Y483120D02*
X470226D01*
X463633Y482923D02*
X470226D01*
X463830Y482726D02*
X470226D01*
X464026Y482529D02*
X470226D01*
X450585Y478198D02*
X470226D01*
X450721Y478001D02*
X470226D01*
X450833Y477805D02*
X470226D01*
X450926Y477608D02*
X470226D01*
X451001Y477411D02*
X470226D01*
X451059Y477214D02*
X470226D01*
X451103Y477017D02*
X470226D01*
X451132Y476820D02*
X470226D01*
X446720Y448277D02*
X470226D01*
X446659Y448080D02*
X470226D01*
X446581Y447883D02*
X470226D01*
X465631Y441978D02*
X470226D01*
X465434Y441781D02*
X470226D01*
X465237Y441584D02*
X470226D01*
X465040Y441387D02*
X470226D01*
X395717Y396309D02*
X470121D01*
X454236Y426427D02*
X469811D01*
X395717Y396505D02*
X469527D01*
X454129Y426230D02*
X469254D01*
X395717Y396702D02*
X469001D01*
X454015Y426033D02*
X468755D01*
X395717Y396899D02*
X468525D01*
X453895Y425836D02*
X468299D01*
X395717Y397096D02*
X468088D01*
X453768Y425639D02*
X467880D01*
X395717Y397293D02*
X467683D01*
X453633Y425442D02*
X467489D01*
X395717Y397490D02*
X467305D01*
X453491Y425246D02*
X467123D01*
X395717Y397686D02*
X466951D01*
X453340Y425049D02*
X466779D01*
X395717Y397883D02*
X466616D01*
X453181Y424852D02*
X466454D01*
X395717Y398080D02*
X466299D01*
X453012Y424655D02*
X466145D01*
X395717Y398277D02*
X465998D01*
X452833Y424458D02*
X465851D01*
X395717Y398474D02*
X465711D01*
X452644Y424261D02*
X465571D01*
X395717Y398671D02*
X465437D01*
X452442Y424064D02*
X465303D01*
X395717Y398868D02*
X465175D01*
X452227Y423868D02*
X465047D01*
X395717Y399064D02*
X464924D01*
X451998Y423671D02*
X464800D01*
X395717Y399261D02*
X464682D01*
X451752Y423474D02*
X464564D01*
X446507Y447686D02*
X464481D01*
X395717Y399458D02*
X464450D01*
X451487Y423277D02*
X464337D01*
X395717Y399655D02*
X464227D01*
X451202Y423080D02*
X464118D01*
X395717Y399852D02*
X464012D01*
X450890Y422883D02*
X463907D01*
X395717Y400049D02*
X463805D01*
X450548Y422686D02*
X463703D01*
X395717Y400246D02*
X463605D01*
X446507Y447490D02*
X463531D01*
X450166Y422490D02*
X463507D01*
X395717Y400442D02*
X463412D01*
X449733Y422293D02*
X463317D01*
X395717Y400639D02*
X463226D01*
X449227Y422096D02*
X463134D01*
X446507Y447293D02*
X463131D01*
X395717Y400836D02*
X463046D01*
X448603Y421899D02*
X462957D01*
X395717Y401033D02*
X462871D01*
X446507Y447096D02*
X462843D01*
X447722Y421702D02*
X462786D01*
X450423Y478395D02*
X462762D01*
X395717Y401230D02*
X462703D01*
X395717Y421505D02*
X462620D01*
X446507Y446899D02*
X462617D01*
X395717Y401427D02*
X462540D01*
X395717Y421309D02*
X462460D01*
X446507Y446702D02*
X462419D01*
X395717Y401623D02*
X462382D01*
X450226Y478592D02*
X462334D01*
X395717Y421112D02*
X462304D01*
X395717Y401820D02*
X462229D01*
X446507Y446505D02*
X462222D01*
X395717Y420915D02*
X462154D01*
X395717Y402017D02*
X462082D01*
X449983Y478789D02*
X462065D01*
X446507Y446309D02*
X462025D01*
X395717Y420718D02*
X462009D01*
X395717Y402214D02*
X461938D01*
X395717Y420521D02*
X461868D01*
X449681Y478986D02*
X461860D01*
X446507Y446112D02*
X461829D01*
X395717Y402411D02*
X461800D01*
X395717Y420324D02*
X461732D01*
X395717Y402608D02*
X461666D01*
X449907Y479183D02*
X461664D01*
X446507Y445915D02*
X461632D01*
X395717Y420127D02*
X461600D01*
X458318Y488238D02*
X461581D01*
X395717Y402805D02*
X461536D01*
X395717Y419931D02*
X461472D01*
X450166Y479379D02*
X461467D01*
X446507Y445718D02*
X461435D01*
X395717Y403001D02*
X461410D01*
X395717Y419734D02*
X461348D01*
X395717Y403198D02*
X461288D01*
X450374Y479576D02*
X461270D01*
X446507Y445521D02*
X461238D01*
X395717Y419537D02*
X461228D01*
X395717Y403395D02*
X461171D01*
X458121Y488435D02*
X461153D01*
X395717Y419340D02*
X461113D01*
X450545Y479773D02*
X461073D01*
X395717Y403592D02*
X461057D01*
X395717Y419143D02*
X461001D01*
X395717Y403789D02*
X460947D01*
X395717Y418946D02*
X460892D01*
X457924Y488631D02*
X460884D01*
X450687Y479970D02*
X460876D01*
X395717Y403986D02*
X460840D01*
X395717Y418749D02*
X460787D01*
X395717Y404183D02*
X460737D01*
X395717Y418553D02*
X460686D01*
X457727Y488828D02*
X460679D01*
X450805Y480167D02*
X460679D01*
X395717Y404379D02*
X460637D01*
X395717Y418356D02*
X460588D01*
X395717Y404576D02*
X460541D01*
X395717Y418159D02*
X460494D01*
X457530Y489025D02*
X460483D01*
X450903Y480364D02*
X460483D01*
X395717Y404773D02*
X460449D01*
X395717Y417962D02*
X460403D01*
X395717Y404970D02*
X460359D01*
X395717Y417765D02*
X460315D01*
X450982Y480560D02*
X460286D01*
X457333Y489222D02*
X460286D01*
X395717Y405167D02*
X460273D01*
X395717Y417568D02*
X460230D01*
X395717Y405364D02*
X460190D01*
X395717Y417372D02*
X460149D01*
X395717Y405560D02*
X460110D01*
X451045Y480757D02*
X460089D01*
X457137Y489419D02*
X460089D01*
X395717Y417175D02*
X460070D01*
X395717Y405757D02*
X460033D01*
X395717Y416978D02*
X459995D01*
X395717Y405954D02*
X459959D01*
X395717Y416781D02*
X459923D01*
X451093Y480954D02*
X459892D01*
X456940Y489616D02*
X459892D01*
X395717Y406151D02*
X459888D01*
X395717Y416584D02*
X459853D01*
X395717Y406348D02*
X459820D01*
X395717Y416387D02*
X459787D01*
X395717Y406545D02*
X459755D01*
X395717Y416190D02*
X459723D01*
X451125Y481151D02*
X459695D01*
X395717Y406742D02*
X459692D01*
X395717Y415994D02*
X459662D01*
X395717Y406938D02*
X459633D01*
X395717Y415797D02*
X459604D01*
X395717Y407135D02*
X459576D01*
X395717Y415600D02*
X459548D01*
X395717Y407332D02*
X459522D01*
X451144Y481348D02*
X459498D01*
X395717Y415403D02*
X459496D01*
X395717Y407529D02*
X459471D01*
X395717Y415206D02*
X459446D01*
X395717Y407726D02*
X459422D01*
X395717Y415009D02*
X459399D01*
X395717Y407923D02*
X459376D01*
X395717Y414812D02*
X459354D01*
X395717Y408120D02*
X459333D01*
X395717Y414616D02*
X459312D01*
X451148Y481545D02*
X459301D01*
X395717Y408316D02*
X459292D01*
X395717Y414419D02*
X459273D01*
X395717Y408513D02*
X459254D01*
X395717Y414222D02*
X459236D01*
X395717Y408710D02*
X459219D01*
X395717Y414025D02*
X459202D01*
X395717Y408907D02*
X459186D01*
X395717Y413828D02*
X459170D01*
X395717Y409104D02*
X459156D01*
X395717Y413631D02*
X459141D01*
X395717Y409301D02*
X459128D01*
X395717Y413435D02*
X459115D01*
X451139Y481742D02*
X459105D01*
X395717Y409498D02*
X459102D01*
X395717Y413238D02*
X459091D01*
X395717Y409694D02*
X459080D01*
X395717Y413041D02*
X459069D01*
X395717Y409891D02*
X459059D01*
X395717Y412844D02*
X459050D01*
X395717Y410088D02*
X459041D01*
X395717Y412647D02*
X459033D01*
X395717Y410285D02*
X459026D01*
X395717Y412450D02*
X459019D01*
X395717Y410482D02*
X459013D01*
X395717Y412253D02*
X459008D01*
X395717Y410679D02*
X459003D01*
X395717Y412057D02*
X458998D01*
X395717Y410875D02*
X458995D01*
X395717Y411860D02*
X458992D01*
X395717Y411072D02*
X458989D01*
X395717Y411663D02*
X458987D01*
X395717Y411269D02*
X458986D01*
X395717Y411466D02*
X458986D01*
X451116Y481938D02*
X458908D01*
X451079Y482135D02*
X458711D01*
X451026Y482332D02*
X458514D01*
X450958Y482529D02*
X458317D01*
X450873Y482726D02*
X458120D01*
X450768Y482923D02*
X457923D01*
X450643Y483120D02*
X457727D01*
X450492Y483316D02*
X457530D01*
X450310Y483513D02*
X457333D01*
X450087Y483710D02*
X457136D01*
X449805Y483907D02*
X456939D01*
X449418Y484104D02*
X456742D01*
X448655Y484301D02*
X456546D01*
X446776Y484498D02*
X456349D01*
X446734Y484694D02*
X456152D01*
X446677Y484891D02*
X455955D01*
X446603Y485088D02*
X455758D01*
X446513Y485285D02*
X455561D01*
X446402Y485482D02*
X455364D01*
X446269Y485679D02*
X455168D01*
X446110Y485875D02*
X454971D01*
X445917Y486072D02*
X454774D01*
X445679Y486269D02*
X454577D01*
X445373Y486466D02*
X454380D01*
X435171Y529183D02*
X448328D01*
X446803Y484301D02*
X448030D01*
X437071Y522096D02*
X447589D01*
X446814Y448868D02*
X447405D01*
X446816Y484104D02*
X447267D01*
X435276Y528986D02*
X447248D01*
X437065Y522293D02*
X446998D01*
X446817Y449064D02*
X446971D01*
X435377Y528789D02*
X446787D01*
X437055Y522490D02*
X446610D01*
X435475Y528592D02*
X446450D01*
X437044Y522686D02*
X446309D01*
X435569Y528395D02*
X446179D01*
X437030Y522883D02*
X446062D01*
X435660Y528198D02*
X445953D01*
X437013Y523080D02*
X445854D01*
X435748Y528001D02*
X445761D01*
X436994Y523277D02*
X445676D01*
X435833Y527805D02*
X445595D01*
X436972Y523474D02*
X445521D01*
X435914Y527608D02*
X445452D01*
X436948Y523671D02*
X445388D01*
X435993Y527411D02*
X445327D01*
X436922Y523868D02*
X445272D01*
X436068Y527214D02*
X445220D01*
X436893Y524064D02*
X445172D01*
X436140Y527017D02*
X445127D01*
X436861Y524261D02*
X445087D01*
X436210Y526820D02*
X445049D01*
X436827Y524458D02*
X445015D01*
X436276Y526623D02*
X444984D01*
X436790Y524655D02*
X444956D01*
X436340Y526427D02*
X444931D01*
X436751Y524852D02*
X444909D01*
X436401Y526230D02*
X444889D01*
X436709Y525049D02*
X444873D01*
X436459Y526033D02*
X444859D01*
X436664Y525246D02*
X444848D01*
X436515Y525836D02*
X444840D01*
X436617Y525442D02*
X444835D01*
X436567Y525639D02*
X444832D01*
X395717Y421702D02*
X444633D01*
X395717Y439812D02*
X444538D01*
X433191Y511269D02*
X444351D01*
X395717Y439616D02*
X444351D01*
X395717Y440009D02*
X444022D01*
X395717Y421899D02*
X443752D01*
X395717Y440206D02*
X443688D01*
X433017Y511072D02*
X443567D01*
X395717Y439419D02*
X443567D01*
X395717Y440403D02*
X443434D01*
X395717Y440600D02*
X443227D01*
X395717Y422096D02*
X443127D01*
X395717Y440797D02*
X443030D01*
X432837Y510875D02*
X442982D01*
X395717Y439222D02*
X442982D01*
X395717Y440994D02*
X442834D01*
X395717Y441190D02*
X442637D01*
X395717Y493946D02*
X442621D01*
X395717Y422293D02*
X442621D01*
X426899Y451623D02*
X442530D01*
X432651Y510679D02*
X442499D01*
X395717Y439025D02*
X442499D01*
X395717Y441387D02*
X442440D01*
X426671Y451427D02*
X442271D01*
X426994Y451820D02*
X442260D01*
X395717Y441584D02*
X442243D01*
X395717Y494143D02*
X442188D01*
X395717Y422490D02*
X442188D01*
X432458Y510482D02*
X442081D01*
X395717Y438828D02*
X442081D01*
X395717Y441781D02*
X442046D01*
X427019Y452017D02*
X442039D01*
X395717Y451230D02*
X441982D01*
X427019Y452214D02*
X441858D01*
X395717Y441978D02*
X441849D01*
X427019Y455757D02*
X441815D01*
X395717Y494340D02*
X441807D01*
X395717Y422686D02*
X441807D01*
X395717Y451033D02*
X441754D01*
X432258Y510285D02*
X441711D01*
X395717Y438631D02*
X441711D01*
X427019Y452411D02*
X441708D01*
X427019Y455560D02*
X441672D01*
X395717Y442175D02*
X441654D01*
X427019Y452608D02*
X441583D01*
X395717Y450836D02*
X441569D01*
X427019Y455364D02*
X441553D01*
X395717Y442372D02*
X441486D01*
X427019Y452805D02*
X441479D01*
X395717Y494537D02*
X441465D01*
X395717Y422883D02*
X441465D01*
X427019Y455167D02*
X441455D01*
X395717Y450639D02*
X441415D01*
X427019Y453001D02*
X441394D01*
X432051Y510088D02*
X441378D01*
X395717Y438435D02*
X441378D01*
X427019Y454970D02*
X441375D01*
X395717Y442568D02*
X441346D01*
X427019Y453198D02*
X441327D01*
X427019Y454773D02*
X441311D01*
X395717Y450442D02*
X441287D01*
X427019Y453395D02*
X441275D01*
X427019Y454576D02*
X441263D01*
X427019Y453592D02*
X441238D01*
X427019Y454379D02*
X441230D01*
X395717Y442765D02*
X441230D01*
X427019Y453789D02*
X441215D01*
X427019Y454183D02*
X441211D01*
X427019Y453986D02*
X441206D01*
X395717Y450246D02*
X441180D01*
X395717Y494734D02*
X441153D01*
X395717Y423080D02*
X441153D01*
X395717Y442962D02*
X441134D01*
X395717Y450049D02*
X441093D01*
X431836Y509891D02*
X441074D01*
X395717Y438238D02*
X441074D01*
X395717Y443159D02*
X441055D01*
X395717Y449852D02*
X441023D01*
X395717Y443356D02*
X440994D01*
X395717Y449655D02*
X440969D01*
X395717Y443553D02*
X440948D01*
X395717Y449458D02*
X440931D01*
X395717Y443749D02*
X440916D01*
X395717Y449261D02*
X440906D01*
X395717Y443946D02*
X440899D01*
X395717Y449064D02*
X440895D01*
X395717Y448868D02*
X440895D01*
X395717Y448671D02*
X440895D01*
X395717Y448474D02*
X440895D01*
X395717Y448277D02*
X440895D01*
X395717Y448080D02*
X440895D01*
X395717Y447883D02*
X440895D01*
X395717Y447686D02*
X440895D01*
X395717Y447490D02*
X440895D01*
X395717Y447293D02*
X440895D01*
X395717Y447096D02*
X440895D01*
X395717Y446899D02*
X440895D01*
X395717Y446702D02*
X440895D01*
X395717Y446505D02*
X440895D01*
X395717Y446309D02*
X440895D01*
X395717Y446112D02*
X440895D01*
X395717Y445915D02*
X440895D01*
X395717Y445718D02*
X440895D01*
X395717Y445521D02*
X440895D01*
X395717Y445324D02*
X440895D01*
X395717Y445127D02*
X440895D01*
X395717Y444931D02*
X440895D01*
X395717Y444734D02*
X440895D01*
X395717Y444537D02*
X440895D01*
X395717Y444340D02*
X440895D01*
X395717Y444143D02*
X440895D01*
X395717Y494931D02*
X440867D01*
X395717Y423277D02*
X440867D01*
X431613Y509694D02*
X440794D01*
X395717Y438041D02*
X440794D01*
X395717Y495127D02*
X440603D01*
X395717Y423474D02*
X440603D01*
X431381Y509498D02*
X440535D01*
X395717Y437844D02*
X440535D01*
X395717Y495324D02*
X440357D01*
X395717Y423671D02*
X440357D01*
X431139Y509301D02*
X440294D01*
X395717Y437647D02*
X440294D01*
X395717Y495521D02*
X440128D01*
X395717Y423868D02*
X440128D01*
X430888Y509104D02*
X440068D01*
X395717Y437450D02*
X440068D01*
X395717Y495718D02*
X439913D01*
X395717Y424064D02*
X439913D01*
X430626Y508907D02*
X439857D01*
X395717Y437253D02*
X439857D01*
X395717Y495915D02*
X439711D01*
X395717Y424261D02*
X439711D01*
X430352Y508710D02*
X439659D01*
X395717Y437057D02*
X439659D01*
X395717Y496112D02*
X439521D01*
X395717Y424458D02*
X439521D01*
X430065Y508513D02*
X439472D01*
X395717Y436860D02*
X439472D01*
X395717Y496309D02*
X439342D01*
X395717Y424655D02*
X439342D01*
X429764Y508316D02*
X439296D01*
X395717Y436663D02*
X439296D01*
X395717Y496505D02*
X439174D01*
X395717Y424852D02*
X439174D01*
X429447Y508120D02*
X439130D01*
X395717Y436466D02*
X439130D01*
X395717Y496702D02*
X439014D01*
X395717Y425049D02*
X439014D01*
X429112Y507923D02*
X438973D01*
X395717Y436269D02*
X438973D01*
X395717Y496899D02*
X438864D01*
X395717Y425246D02*
X438864D01*
X428758Y507726D02*
X438824D01*
X395717Y436072D02*
X438824D01*
X395717Y497096D02*
X438721D01*
X395717Y425442D02*
X438721D01*
X428380Y507529D02*
X438684D01*
X395717Y435875D02*
X438684D01*
X395717Y497293D02*
X438587D01*
X395717Y425639D02*
X438587D01*
X427975Y507332D02*
X438552D01*
X395717Y435679D02*
X438552D01*
X395717Y497490D02*
X438459D01*
X395717Y425836D02*
X438459D01*
X427538Y507135D02*
X438426D01*
X395717Y435482D02*
X438426D01*
X395717Y497686D02*
X438339D01*
X395717Y426033D02*
X438339D01*
X427062Y506938D02*
X438308D01*
X395717Y435285D02*
X438308D01*
X395717Y497883D02*
X438226D01*
X395717Y426230D02*
X438226D01*
X426536Y506742D02*
X438196D01*
X395717Y435088D02*
X438196D01*
X395717Y498080D02*
X438118D01*
X395717Y426427D02*
X438118D01*
X425942Y506545D02*
X438091D01*
X395717Y434891D02*
X438091D01*
X395717Y498277D02*
X438017D01*
X395717Y426623D02*
X438017D01*
X425252Y506348D02*
X437991D01*
X395717Y434694D02*
X437991D01*
X395717Y498474D02*
X437922D01*
X395717Y426820D02*
X437922D01*
X424402Y506151D02*
X437898D01*
X395717Y434498D02*
X437898D01*
X395717Y498671D02*
X437833D01*
X395717Y427017D02*
X437833D01*
X423191Y505954D02*
X437810D01*
X395717Y434301D02*
X437810D01*
X395717Y498868D02*
X437749D01*
X395717Y427214D02*
X437749D01*
X395717Y505757D02*
X437728D01*
X395717Y434104D02*
X437728D01*
X395717Y499064D02*
X437671D01*
X395717Y427411D02*
X437671D01*
X395717Y505560D02*
X437651D01*
X395717Y433907D02*
X437651D01*
X395717Y499261D02*
X437598D01*
X395717Y427608D02*
X437598D01*
X395717Y505364D02*
X437579D01*
X395717Y433710D02*
X437579D01*
X395717Y499458D02*
X437530D01*
X395717Y427805D02*
X437530D01*
X395717Y505167D02*
X437512D01*
X395717Y433513D02*
X437512D01*
X395717Y499655D02*
X437466D01*
X395717Y428001D02*
X437466D01*
X395717Y504970D02*
X437450D01*
X395717Y433316D02*
X437450D01*
X395717Y499852D02*
X437408D01*
X395717Y428198D02*
X437408D01*
X395717Y504773D02*
X437393D01*
X395717Y433120D02*
X437393D01*
X395717Y500049D02*
X437355D01*
X395717Y428395D02*
X437355D01*
X395717Y504576D02*
X437341D01*
X395717Y432923D02*
X437341D01*
X395717Y500246D02*
X437306D01*
X395717Y428592D02*
X437306D01*
X395717Y504379D02*
X437294D01*
X395717Y432726D02*
X437294D01*
X395717Y500442D02*
X437262D01*
X395717Y428789D02*
X437262D01*
X395717Y504183D02*
X437251D01*
X395717Y432529D02*
X437251D01*
X395717Y500639D02*
X437222D01*
X395717Y428986D02*
X437222D01*
X395717Y503986D02*
X437212D01*
X395717Y432332D02*
X437212D01*
X395717Y500836D02*
X437187D01*
X395717Y429183D02*
X437187D01*
X395717Y503789D02*
X437178D01*
X395717Y432135D02*
X437178D01*
X395717Y501033D02*
X437156D01*
X395717Y429379D02*
X437156D01*
X395717Y503592D02*
X437149D01*
X395717Y431938D02*
X437149D01*
X395717Y501230D02*
X437130D01*
X395717Y429576D02*
X437130D01*
X395717Y503395D02*
X437124D01*
X395717Y431742D02*
X437124D01*
X395717Y501427D02*
X437108D01*
X395717Y429773D02*
X437108D01*
X395717Y503198D02*
X437103D01*
X395717Y431545D02*
X437103D01*
X395717Y501623D02*
X437090D01*
X395717Y429970D02*
X437090D01*
X395717Y503001D02*
X437086D01*
X395717Y431348D02*
X437086D01*
X395717Y501820D02*
X437077D01*
X395717Y430167D02*
X437077D01*
X395717Y502805D02*
X437074D01*
X395717Y431151D02*
X437074D01*
X395717Y502017D02*
X437068D01*
X395717Y430364D02*
X437068D01*
X395717Y502608D02*
X437066D01*
X395717Y430954D02*
X437066D01*
X395717Y502214D02*
X437063D01*
X395717Y430560D02*
X437063D01*
X395717Y502411D02*
X437063D01*
X395717Y430757D02*
X437063D01*
X427019Y455954D02*
X434599D01*
X427019Y456151D02*
X434251D01*
X395717Y493749D02*
X434179D01*
X427019Y456348D02*
X434037D01*
X427019Y456545D02*
X433840D01*
X427019Y456742D02*
X433643D01*
X427019Y456938D02*
X433446D01*
X395717Y493553D02*
X433380D01*
X427019Y457135D02*
X433250D01*
X427019Y457332D02*
X433053D01*
X395717Y493356D02*
X433053D01*
X427019Y457529D02*
X432856D01*
X395717Y493159D02*
X432824D01*
X427019Y457726D02*
X432659D01*
X395717Y492962D02*
X432627D01*
X427019Y457923D02*
X432462D01*
X395717Y492765D02*
X432430D01*
X427019Y458120D02*
X432265D01*
X395717Y492568D02*
X432233D01*
X427018Y458316D02*
X432069D01*
X395717Y492372D02*
X432037D01*
X426980Y458513D02*
X431872D01*
X395717Y492175D02*
X431840D01*
X426866Y458710D02*
X431675D01*
X395717Y491978D02*
X431643D01*
X426568Y458907D02*
X431478D01*
X395717Y491781D02*
X431446D01*
X395717Y459104D02*
X431281D01*
X395717Y491584D02*
X431249D01*
X395717Y459301D02*
X431084D01*
X395717Y491387D02*
X431052D01*
X395717Y459498D02*
X430887D01*
X395717Y491190D02*
X430856D01*
X395717Y459694D02*
X430691D01*
X395717Y490994D02*
X430659D01*
X395717Y459891D02*
X430494D01*
X395717Y490797D02*
X430462D01*
X395717Y460088D02*
X430297D01*
X395717Y490600D02*
X430289D01*
X395717Y490403D02*
X430156D01*
X395717Y460285D02*
X430130D01*
X395717Y490206D02*
X430053D01*
X395717Y460482D02*
X430015D01*
X395717Y490009D02*
X429975D01*
X395717Y460679D02*
X429936D01*
X395717Y489812D02*
X429920D01*
X395717Y460875D02*
X429890D01*
X395717Y489616D02*
X429886D01*
X395717Y489419D02*
X429872D01*
X395717Y461072D02*
X429872D01*
X395717Y489222D02*
X429871D01*
X395717Y489025D02*
X429871D01*
X395717Y488828D02*
X429871D01*
X395717Y488631D02*
X429871D01*
X395717Y488435D02*
X429871D01*
X395717Y488238D02*
X429871D01*
X395717Y488041D02*
X429871D01*
X395717Y487844D02*
X429871D01*
X395717Y487647D02*
X429871D01*
X395717Y487450D02*
X429871D01*
X395717Y487253D02*
X429871D01*
X395717Y487057D02*
X429871D01*
X395717Y486860D02*
X429871D01*
X395717Y486663D02*
X429871D01*
X395717Y486466D02*
X429871D01*
X395717Y486269D02*
X429871D01*
X395717Y486072D02*
X429871D01*
X395717Y485875D02*
X429871D01*
X395717Y485679D02*
X429871D01*
X395717Y485482D02*
X429871D01*
X395717Y485285D02*
X429871D01*
X395717Y485088D02*
X429871D01*
X395717Y484891D02*
X429871D01*
X395717Y484694D02*
X429871D01*
X395717Y484498D02*
X429871D01*
X395717Y484301D02*
X429871D01*
X395717Y484104D02*
X429871D01*
X395717Y483907D02*
X429871D01*
X395717Y483710D02*
X429871D01*
X395717Y483513D02*
X429871D01*
X395717Y483316D02*
X429871D01*
X395717Y483120D02*
X429871D01*
X395717Y482923D02*
X429871D01*
X395717Y482726D02*
X429871D01*
X395717Y482529D02*
X429871D01*
X395717Y482332D02*
X429871D01*
X395717Y482135D02*
X429871D01*
X395717Y481938D02*
X429871D01*
X395717Y481742D02*
X429871D01*
X395717Y481545D02*
X429871D01*
X395717Y481348D02*
X429871D01*
X395717Y481151D02*
X429871D01*
X395717Y480954D02*
X429871D01*
X395717Y480757D02*
X429871D01*
X395717Y480560D02*
X429871D01*
X395717Y480364D02*
X429871D01*
X395717Y480167D02*
X429871D01*
X395717Y479970D02*
X429871D01*
X395717Y479773D02*
X429871D01*
X395717Y479576D02*
X429871D01*
X395717Y479379D02*
X429871D01*
X395717Y479183D02*
X429871D01*
X395717Y478986D02*
X429871D01*
X395717Y478789D02*
X429871D01*
X395717Y478592D02*
X429871D01*
X395717Y478395D02*
X429871D01*
X395717Y478198D02*
X429871D01*
X395717Y478001D02*
X429871D01*
X395717Y477805D02*
X429871D01*
X395717Y477608D02*
X429871D01*
X395717Y477411D02*
X429871D01*
X395717Y477214D02*
X429871D01*
X395717Y477017D02*
X429871D01*
X395717Y476820D02*
X429871D01*
X395717Y476623D02*
X429871D01*
X395717Y476427D02*
X429871D01*
X395717Y476230D02*
X429871D01*
X395717Y476033D02*
X429871D01*
X395717Y475836D02*
X429871D01*
X395717Y475639D02*
X429871D01*
X395717Y475442D02*
X429871D01*
X395717Y475246D02*
X429871D01*
X395717Y475049D02*
X429871D01*
X395717Y474852D02*
X429871D01*
X395717Y474655D02*
X429871D01*
X395717Y474458D02*
X429871D01*
X395717Y474261D02*
X429871D01*
X395717Y474064D02*
X429871D01*
X395717Y473868D02*
X429871D01*
X395717Y473671D02*
X429871D01*
X395717Y473474D02*
X429871D01*
X395717Y473277D02*
X429871D01*
X395717Y473080D02*
X429871D01*
X395717Y472883D02*
X429871D01*
X395717Y472686D02*
X429871D01*
X395717Y472490D02*
X429871D01*
X395717Y472293D02*
X429871D01*
X395717Y472096D02*
X429871D01*
X395717Y471899D02*
X429871D01*
X395717Y471702D02*
X429871D01*
X395717Y471505D02*
X429871D01*
X395717Y471309D02*
X429871D01*
X395717Y471112D02*
X429871D01*
X395717Y470915D02*
X429871D01*
X395717Y470718D02*
X429871D01*
X395717Y470521D02*
X429871D01*
X395717Y470324D02*
X429871D01*
X395717Y470127D02*
X429871D01*
X395717Y469931D02*
X429871D01*
X395717Y469734D02*
X429871D01*
X395717Y469537D02*
X429871D01*
X395717Y469340D02*
X429871D01*
X395717Y469143D02*
X429871D01*
X395717Y468946D02*
X429871D01*
X395717Y468749D02*
X429871D01*
X395717Y468553D02*
X429871D01*
X395717Y468356D02*
X429871D01*
X395717Y468159D02*
X429871D01*
X395717Y467962D02*
X429871D01*
X395717Y467765D02*
X429871D01*
X395717Y467568D02*
X429871D01*
X395717Y467372D02*
X429871D01*
X395717Y467175D02*
X429871D01*
X395717Y466978D02*
X429871D01*
X395717Y466781D02*
X429871D01*
X395717Y466584D02*
X429871D01*
X395717Y466387D02*
X429871D01*
X395717Y466190D02*
X429871D01*
X395717Y465994D02*
X429871D01*
X395717Y465797D02*
X429871D01*
X395717Y465600D02*
X429871D01*
X395717Y465403D02*
X429871D01*
X395717Y465206D02*
X429871D01*
X395717Y465009D02*
X429871D01*
X395717Y464812D02*
X429871D01*
X395717Y464616D02*
X429871D01*
X395717Y464419D02*
X429871D01*
X395717Y464222D02*
X429871D01*
X395717Y464025D02*
X429871D01*
X395717Y463828D02*
X429871D01*
X395717Y463631D02*
X429871D01*
X395717Y463435D02*
X429871D01*
X395717Y463238D02*
X429871D01*
X395717Y463041D02*
X429871D01*
X395717Y462844D02*
X429871D01*
X395717Y462647D02*
X429871D01*
X395717Y462450D02*
X429871D01*
X395717Y462253D02*
X429871D01*
X395717Y462057D02*
X429871D01*
X395717Y461860D02*
X429871D01*
X395717Y461663D02*
X429871D01*
X395717Y461466D02*
X429871D01*
X395717Y461269D02*
X429871D01*
X413853Y458907D02*
X419889D01*
X414117Y451427D02*
X419785D01*
X414674Y458710D02*
X419591D01*
X414786Y451623D02*
X419558D01*
X415125Y458513D02*
X419476D01*
X415204Y451820D02*
X419463D01*
X415462Y458316D02*
X419439D01*
X415736Y458120D02*
X419438D01*
X415965Y457923D02*
X419438D01*
X416162Y457726D02*
X419438D01*
X416333Y457529D02*
X419438D01*
X416482Y457332D02*
X419438D01*
X416612Y457135D02*
X419438D01*
X416725Y456938D02*
X419438D01*
X416824Y456742D02*
X419438D01*
X416908Y456545D02*
X419438D01*
X416980Y456348D02*
X419438D01*
X417040Y456151D02*
X419438D01*
X417089Y455954D02*
X419438D01*
X417126Y455757D02*
X419438D01*
X417153Y455560D02*
X419438D01*
X417170Y455364D02*
X419438D01*
X417176Y455167D02*
X419438D01*
X417172Y454970D02*
X419438D01*
X417158Y454773D02*
X419438D01*
X417133Y454576D02*
X419438D01*
X417098Y454379D02*
X419438D01*
X417052Y454183D02*
X419438D01*
X416994Y453986D02*
X419438D01*
X416925Y453789D02*
X419438D01*
X416843Y453592D02*
X419438D01*
X416748Y453395D02*
X419438D01*
X416637Y453198D02*
X419438D01*
X416511Y453001D02*
X419438D01*
X416367Y452805D02*
X419438D01*
X416201Y452608D02*
X419438D01*
X416010Y452411D02*
X419438D01*
X415788Y452214D02*
X419438D01*
X415525Y452017D02*
X419438D01*
X395717Y505954D02*
X419328D01*
X395717Y537253D02*
X418642D01*
X395717Y506151D02*
X418118D01*
X395717Y537057D02*
X417662D01*
X395717Y506348D02*
X417268D01*
X395717Y536860D02*
X416904D01*
X395717Y506545D02*
X416578D01*
X395717Y536663D02*
X416268D01*
X395717Y506742D02*
X415984D01*
X395717Y536466D02*
X415711D01*
X395717Y506938D02*
X415458D01*
X395717Y536269D02*
X415211D01*
X395717Y507135D02*
X414981D01*
X395717Y536072D02*
X414756D01*
X395717Y507332D02*
X414544D01*
X395717Y535875D02*
X414336D01*
X395717Y507529D02*
X414140D01*
X395717Y535679D02*
X413946D01*
X395717Y507726D02*
X413762D01*
X395717Y535482D02*
X413580D01*
X395717Y507923D02*
X413407D01*
X395717Y535285D02*
X413236D01*
X395717Y508120D02*
X413073D01*
X404010Y458907D02*
X412919D01*
X395717Y535088D02*
X412910D01*
X395717Y508316D02*
X412756D01*
X404274Y451427D02*
X412655D01*
X395717Y534891D02*
X412602D01*
X395717Y508513D02*
X412455D01*
X395717Y534694D02*
X412308D01*
X395717Y508710D02*
X412168D01*
X404832Y458710D02*
X412097D01*
X395717Y534498D02*
X412028D01*
X404943Y451623D02*
X411986D01*
X395717Y508907D02*
X411894D01*
X395717Y534301D02*
X411760D01*
X405282Y458513D02*
X411647D01*
X395717Y509104D02*
X411632D01*
X405362Y451820D02*
X411567D01*
X395717Y534104D02*
X411503D01*
X395717Y509301D02*
X411380D01*
X405620Y458316D02*
X411309D01*
X395717Y533907D02*
X411257D01*
X405683Y452017D02*
X411246D01*
X395717Y509498D02*
X411139D01*
X405893Y458120D02*
X411036D01*
X395717Y533710D02*
X411021D01*
X405946Y452214D02*
X410984D01*
X395717Y509694D02*
X410907D01*
X406123Y457923D02*
X410806D01*
X395717Y533513D02*
X410793D01*
X406167Y452411D02*
X410762D01*
X395717Y509891D02*
X410684D01*
X406320Y457726D02*
X410610D01*
X395717Y533316D02*
X410574D01*
X406358Y452608D02*
X410571D01*
X395717Y510088D02*
X410469D01*
X406490Y457529D02*
X410439D01*
X406524Y452805D02*
X410405D01*
X395717Y533120D02*
X410363D01*
X406639Y457332D02*
X410290D01*
X395717Y510285D02*
X410262D01*
X406669Y453001D02*
X410261D01*
X395717Y532923D02*
X410160D01*
X406769Y457135D02*
X410160D01*
X406795Y453198D02*
X410134D01*
X395717Y510482D02*
X410062D01*
X406883Y456938D02*
X410046D01*
X406905Y453395D02*
X410024D01*
X395717Y532726D02*
X409964D01*
X406981Y456742D02*
X409948D01*
X407000Y453592D02*
X409929D01*
X395717Y510679D02*
X409869D01*
X407066Y456545D02*
X409863D01*
X407082Y453789D02*
X409847D01*
X407138Y456348D02*
X409791D01*
X407152Y453986D02*
X409778D01*
X395717Y532529D02*
X409774D01*
X407198Y456151D02*
X409731D01*
X407209Y454183D02*
X409720D01*
X407246Y455954D02*
X409683D01*
X395717Y510875D02*
X409683D01*
X407255Y454379D02*
X409674D01*
X407284Y455757D02*
X409645D01*
X407290Y454576D02*
X409639D01*
X407311Y455560D02*
X409618D01*
X407315Y454773D02*
X409614D01*
X407327Y455364D02*
X409602D01*
X407329Y454970D02*
X409600D01*
X407333Y455167D02*
X409596D01*
X395717Y532332D02*
X409591D01*
X395717Y511072D02*
X409502D01*
X395717Y532135D02*
X409414D01*
X395717Y511269D02*
X409328D01*
X395717Y531938D02*
X409242D01*
X395717Y511466D02*
X409160D01*
X395717Y531742D02*
X409077D01*
X395717Y511663D02*
X408997D01*
X395717Y531545D02*
X408916D01*
X395717Y511860D02*
X408839D01*
X395717Y531348D02*
X408761D01*
X395717Y512057D02*
X408686D01*
X395717Y531151D02*
X408611D01*
X395717Y512253D02*
X408538D01*
X395717Y530954D02*
X408465D01*
X395717Y512450D02*
X408395D01*
X395717Y530757D02*
X408325D01*
X395717Y512647D02*
X408257D01*
X395717Y530560D02*
X408188D01*
X395717Y512844D02*
X408122D01*
X395717Y530364D02*
X408056D01*
X395717Y513041D02*
X407993D01*
X395717Y530167D02*
X407929D01*
X395717Y513238D02*
X407867D01*
X395717Y529970D02*
X407805D01*
X395717Y513435D02*
X407745D01*
X395717Y529773D02*
X407685D01*
X395717Y513631D02*
X407627D01*
X395717Y529576D02*
X407569D01*
X395717Y513828D02*
X407513D01*
X395717Y529379D02*
X407457D01*
X395717Y514025D02*
X407403D01*
X395717Y529183D02*
X407349D01*
X395717Y514222D02*
X407297D01*
X395717Y528986D02*
X407244D01*
X395717Y514419D02*
X407194D01*
X395717Y528789D02*
X407143D01*
X395717Y514616D02*
X407094D01*
X395717Y528592D02*
X407045D01*
X395717Y514812D02*
X406998D01*
X395717Y528395D02*
X406951D01*
X395717Y515009D02*
X406905D01*
X395717Y528198D02*
X406860D01*
X395717Y515206D02*
X406816D01*
X395717Y528001D02*
X406772D01*
X395717Y515403D02*
X406730D01*
X395717Y527805D02*
X406687D01*
X395717Y515600D02*
X406646D01*
X395717Y527608D02*
X406606D01*
X395717Y515797D02*
X406566D01*
X395717Y527411D02*
X406527D01*
X395717Y515994D02*
X406489D01*
X395717Y527214D02*
X406452D01*
X395717Y516190D02*
X406416D01*
X395717Y527017D02*
X406379D01*
X395717Y516387D02*
X406345D01*
X395717Y526820D02*
X406310D01*
X395717Y516584D02*
X406276D01*
X395717Y526623D02*
X406243D01*
X395717Y516781D02*
X406211D01*
X395717Y526427D02*
X406179D01*
X395717Y516978D02*
X406149D01*
X395717Y526230D02*
X406119D01*
X395717Y517175D02*
X406089D01*
X395717Y526033D02*
X406060D01*
X395717Y517372D02*
X406033D01*
X395717Y525836D02*
X406005D01*
X395717Y517568D02*
X405979D01*
X395717Y525639D02*
X405953D01*
X395717Y517765D02*
X405928D01*
X395717Y525442D02*
X405903D01*
X395717Y517962D02*
X405879D01*
X395717Y525246D02*
X405855D01*
X395717Y518159D02*
X405833D01*
X395717Y525049D02*
X405811D01*
X395717Y518356D02*
X405790D01*
X395717Y524852D02*
X405769D01*
X395717Y518553D02*
X405749D01*
X395717Y524655D02*
X405730D01*
X395717Y518749D02*
X405711D01*
X395717Y524458D02*
X405693D01*
X395717Y518946D02*
X405676D01*
X395717Y524261D02*
X405659D01*
X395717Y519143D02*
X405643D01*
X395717Y524064D02*
X405627D01*
X395717Y519340D02*
X405612D01*
X395717Y523868D02*
X405598D01*
X395717Y519537D02*
X405584D01*
X395717Y523671D02*
X405571D01*
X395717Y519734D02*
X405559D01*
X395717Y523474D02*
X405547D01*
X395717Y519931D02*
X405536D01*
X395717Y523277D02*
X405526D01*
X395717Y520127D02*
X405516D01*
X395717Y523080D02*
X405507D01*
X395717Y520324D02*
X405498D01*
X395717Y522883D02*
X405490D01*
X395717Y520521D02*
X405483D01*
X395717Y522686D02*
X405476D01*
X395717Y520718D02*
X405470D01*
X395717Y522490D02*
X405464D01*
X395717Y520915D02*
X405459D01*
X395717Y522293D02*
X405455D01*
X395717Y521112D02*
X405451D01*
X395717Y522096D02*
X405448D01*
X395717Y521309D02*
X405446D01*
X395717Y521899D02*
X405444D01*
X395717Y521505D02*
X405443D01*
X395717Y521702D02*
X405442D01*
X395717Y458907D02*
X403076D01*
X395717Y451427D02*
X402812D01*
X395717Y458710D02*
X402255D01*
X395717Y451623D02*
X402143D01*
X395717Y458513D02*
X401804D01*
X395717Y451820D02*
X401725D01*
X395717Y458316D02*
X401467D01*
X395717Y452017D02*
X401404D01*
X395717Y458120D02*
X401194D01*
X395717Y452214D02*
X401141D01*
X395717Y457923D02*
X400964D01*
X395717Y452411D02*
X400919D01*
X395717Y457726D02*
X400767D01*
X395717Y452608D02*
X400728D01*
X395717Y457529D02*
X400596D01*
X395717Y452805D02*
X400563D01*
X395717Y457332D02*
X400447D01*
X395717Y453001D02*
X400418D01*
X395717Y457135D02*
X400317D01*
X395717Y453198D02*
X400292D01*
X395717Y456938D02*
X400204D01*
X395717Y453395D02*
X400182D01*
X395717Y456742D02*
X400106D01*
X395717Y453592D02*
X400086D01*
X395717Y456545D02*
X400021D01*
X395717Y453789D02*
X400004D01*
X395717Y456348D02*
X399949D01*
X395717Y453986D02*
X399935D01*
X395717Y456151D02*
X399889D01*
X395717Y454183D02*
X399878D01*
X395717Y455954D02*
X399840D01*
X395717Y454379D02*
X399831D01*
X395717Y455757D02*
X399803D01*
X395717Y454576D02*
X399796D01*
X395717Y455560D02*
X399776D01*
X395717Y454773D02*
X399772D01*
X395717Y455364D02*
X399759D01*
X395717Y454970D02*
X399757D01*
X395717Y455167D02*
X399753D01*
X437845Y481545D02*
X442669D01*
X438848Y486466D02*
X442651D01*
X437930Y481348D02*
X442457D01*
X437845Y481742D02*
X442363D01*
X438651Y486269D02*
X442345D01*
X438191Y481151D02*
X442196D01*
X437845Y481938D02*
X442122D01*
X438454Y486072D02*
X442107D01*
X438633Y477017D02*
X442038D01*
X438362Y480954D02*
X441987D01*
X437845Y482135D02*
X441926D01*
X438258Y485875D02*
X441914D01*
X438633Y477214D02*
X441858D01*
X438482Y480757D02*
X441815D01*
X437845Y482332D02*
X441765D01*
X438061Y485679D02*
X441754D01*
X438633Y477411D02*
X441708D01*
X438562Y480560D02*
X441672D01*
X437845Y482529D02*
X441630D01*
X437864Y485482D02*
X441622D01*
X438633Y477608D02*
X441583D01*
X438611Y480364D02*
X441553D01*
X437845Y482726D02*
X441518D01*
X437845Y485285D02*
X441511D01*
X438633Y477805D02*
X441479D01*
X438632Y480167D02*
X441455D01*
X437845Y482923D02*
X441426D01*
X437845Y485088D02*
X441420D01*
X438633Y478001D02*
X441394D01*
X438633Y479970D02*
X441375D01*
X437845Y483120D02*
X441352D01*
X437845Y484891D02*
X441347D01*
X438633Y478198D02*
X441327D01*
X438633Y479773D02*
X441311D01*
X437845Y483316D02*
X441294D01*
X437845Y484694D02*
X441290D01*
X438633Y478395D02*
X441275D01*
X438633Y479576D02*
X441263D01*
X437845Y483513D02*
X441251D01*
X437845Y484498D02*
X441248D01*
X438633Y478592D02*
X441238D01*
X438633Y479379D02*
X441230D01*
X437845Y483710D02*
X441222D01*
X437845Y484301D02*
X441221D01*
X438633Y478789D02*
X441215D01*
X438633Y479183D02*
X441211D01*
X437845Y483907D02*
X441208D01*
X437845Y484104D02*
X441208D01*
X438633Y478986D02*
X441206D01*
X446818D02*
X447004D01*
X497885Y395719D02*
Y537352D01*
X497688Y395719D02*
Y537352D01*
X497491Y395719D02*
Y537352D01*
X497294Y395719D02*
Y537352D01*
X497097Y395719D02*
Y537352D01*
X496900Y395719D02*
Y537352D01*
X496704Y395719D02*
Y537352D01*
X496507Y395719D02*
Y537352D01*
X496310Y395719D02*
Y537352D01*
X496113Y395719D02*
Y537352D01*
X495916Y395719D02*
Y537352D01*
X495719Y395719D02*
Y537352D01*
X495522Y395719D02*
Y537352D01*
X495326Y395719D02*
Y537352D01*
X495129Y395719D02*
Y537352D01*
X494932Y395719D02*
Y537352D01*
X494735Y395719D02*
Y537352D01*
X494538Y395719D02*
Y537352D01*
X494341Y395719D02*
Y537352D01*
X494144Y395719D02*
Y537352D01*
X493948Y395719D02*
Y537352D01*
X493751Y395719D02*
Y537352D01*
X493554Y395719D02*
Y537352D01*
X493357Y395719D02*
Y537352D01*
X493160Y395719D02*
Y537352D01*
X492963Y395719D02*
Y537352D01*
X492767Y395719D02*
Y537352D01*
X492570Y395719D02*
Y537352D01*
X492373Y395719D02*
Y537352D01*
X492176Y395719D02*
Y537352D01*
X491979Y395719D02*
Y537352D01*
X491782Y395719D02*
Y537352D01*
X491585Y395719D02*
Y537352D01*
X491389Y395719D02*
Y537352D01*
X491192Y395719D02*
Y537352D01*
X490995Y395719D02*
Y537352D01*
X490798Y395719D02*
Y537352D01*
X490601Y412206D02*
Y537352D01*
Y395719D02*
Y410629D01*
X490404Y414026D02*
Y537352D01*
Y395719D02*
Y408809D01*
X490207Y415010D02*
Y537352D01*
Y395719D02*
Y407825D01*
X490011Y415768D02*
Y537352D01*
Y395719D02*
Y407066D01*
X489814Y416405D02*
Y537352D01*
Y395719D02*
Y406429D01*
X489617Y416963D02*
Y537352D01*
Y395719D02*
Y405872D01*
X489420Y417463D02*
Y537352D01*
Y395719D02*
Y405372D01*
X489223Y417918D02*
Y537352D01*
Y395719D02*
Y404916D01*
X489026Y418338D02*
Y537352D01*
Y395719D02*
Y404496D01*
X488830Y418729D02*
Y537352D01*
Y395719D02*
Y404106D01*
X488633Y419095D02*
Y537352D01*
Y395719D02*
Y403740D01*
X488436Y419439D02*
Y537352D01*
Y395719D02*
Y403395D01*
X488239Y419765D02*
Y537352D01*
Y395719D02*
Y403070D01*
X488042Y420073D02*
Y537352D01*
Y395719D02*
Y402761D01*
X487845Y420367D02*
Y537352D01*
Y395719D02*
Y402467D01*
X487648Y420648D02*
Y537352D01*
Y395719D02*
Y402187D01*
X487452Y420916D02*
Y537352D01*
Y395719D02*
Y401919D01*
X487255Y421172D02*
Y537352D01*
Y395719D02*
Y401662D01*
X487058Y421418D02*
Y537352D01*
Y395719D02*
Y401416D01*
X486861Y421655D02*
Y537352D01*
Y395719D02*
Y401180D01*
X486664Y421882D02*
Y537352D01*
Y395719D02*
Y400952D01*
X486467Y422101D02*
Y537352D01*
Y395719D02*
Y400733D01*
X486270Y422312D02*
Y537352D01*
Y395719D02*
Y400522D01*
X486074Y422516D02*
Y537352D01*
Y395719D02*
Y400319D01*
X485877Y422712D02*
Y537352D01*
Y395719D02*
Y400122D01*
X485680Y422902D02*
Y537352D01*
Y395719D02*
Y399933D01*
X485483Y423085D02*
Y537352D01*
Y395719D02*
Y399749D01*
X485286Y423262D02*
Y537352D01*
Y395719D02*
Y399572D01*
X485089Y423434D02*
Y537352D01*
Y395719D02*
Y399401D01*
X484893Y423599D02*
Y537352D01*
Y395719D02*
Y399235D01*
X484696Y423760D02*
Y537352D01*
Y395719D02*
Y399075D01*
X484499Y423915D02*
Y537352D01*
Y395719D02*
Y398920D01*
X484302Y424065D02*
Y537352D01*
Y395719D02*
Y398769D01*
X484105Y424211D02*
Y537352D01*
Y395719D02*
Y398624D01*
X483908Y424352D02*
Y537352D01*
Y395719D02*
Y398483D01*
X483711Y424488D02*
Y537352D01*
Y395719D02*
Y398347D01*
X483515Y424620D02*
Y537352D01*
Y395719D02*
Y398215D01*
X483318Y424748D02*
Y537352D01*
Y395719D02*
Y398087D01*
X483121Y424872D02*
Y537352D01*
Y395719D02*
Y397963D01*
X482924Y424991D02*
Y537352D01*
Y395719D02*
Y397843D01*
X482727Y425107D02*
Y537352D01*
Y395719D02*
Y397728D01*
X482530Y425219D02*
Y537352D01*
Y395719D02*
Y397615D01*
X482333Y425328D02*
Y537352D01*
Y395719D02*
Y397507D01*
X482137Y425432D02*
Y537352D01*
Y395719D02*
Y397402D01*
X481940Y425534D02*
Y537352D01*
Y395719D02*
Y397301D01*
X481743Y425631D02*
Y537352D01*
Y395719D02*
Y397203D01*
X481546Y425726D02*
Y537352D01*
Y395719D02*
Y397109D01*
X481349Y425817D02*
Y537352D01*
Y395719D02*
Y397018D01*
X481152Y425905D02*
Y537352D01*
Y395719D02*
Y396930D01*
X480956Y425989D02*
Y537352D01*
Y395719D02*
Y396845D01*
X480759Y426071D02*
Y537352D01*
Y395719D02*
Y396764D01*
X480562Y426150D02*
Y537352D01*
Y395719D02*
Y396685D01*
X480365Y426225D02*
Y537352D01*
Y395719D02*
Y396610D01*
X480168Y426297D02*
Y537352D01*
Y395719D02*
Y396537D01*
X479971Y426367D02*
Y537352D01*
Y395719D02*
Y396468D01*
X479774Y426434D02*
Y537352D01*
Y395719D02*
Y396401D01*
X479578Y426497D02*
Y537352D01*
Y395719D02*
Y396337D01*
X479381Y426558D02*
Y537352D01*
Y395719D02*
Y396276D01*
X479184Y426616D02*
Y537352D01*
Y395719D02*
Y396218D01*
X478987Y426672D02*
Y537352D01*
Y395719D02*
Y396163D01*
X478790Y426724D02*
Y537352D01*
Y395719D02*
Y396110D01*
X478593Y519291D02*
Y537352D01*
Y483858D02*
Y512205D01*
Y448425D02*
Y476772D01*
Y426774D02*
Y441339D01*
Y395719D02*
Y396060D01*
X478396Y526859D02*
Y537352D01*
Y519753D02*
Y524322D01*
Y491426D02*
Y511743D01*
Y484320D02*
Y488889D01*
Y455993D02*
Y476310D01*
Y448887D02*
Y453456D01*
Y426821D02*
Y440877D01*
Y395719D02*
Y396013D01*
X478200Y527362D02*
Y537352D01*
Y519882D02*
Y523819D01*
Y491929D02*
Y511614D01*
Y484449D02*
Y488386D01*
Y456496D02*
Y476181D01*
Y449016D02*
Y452953D01*
Y426866D02*
Y440748D01*
Y395719D02*
Y395969D01*
X478003Y527734D02*
Y537352D01*
Y519930D02*
Y523447D01*
Y492301D02*
Y511566D01*
Y484497D02*
Y488014D01*
Y456867D02*
Y476133D01*
Y449064D02*
Y452581D01*
Y426908D02*
Y440700D01*
Y395719D02*
Y395927D01*
X477806Y528034D02*
Y537352D01*
Y519932D02*
Y523147D01*
Y492601D02*
Y511564D01*
Y484499D02*
Y487714D01*
Y457168D02*
Y476131D01*
Y449066D02*
Y452281D01*
Y426947D02*
Y440698D01*
Y395719D02*
Y395887D01*
X477609Y528286D02*
Y537352D01*
Y519932D02*
Y522895D01*
Y492853D02*
Y511564D01*
Y484499D02*
Y487462D01*
Y457420D02*
Y476131D01*
Y449066D02*
Y452029D01*
Y426984D02*
Y440698D01*
Y395719D02*
Y395850D01*
X477412Y528504D02*
Y537352D01*
Y519932D02*
Y522677D01*
Y493071D02*
Y511564D01*
Y484499D02*
Y487244D01*
Y457638D02*
Y476131D01*
Y449066D02*
Y451811D01*
Y427018D02*
Y440698D01*
Y395724D02*
Y395814D01*
X477215Y528694D02*
Y537352D01*
Y519932D02*
Y522487D01*
Y493261D02*
Y511564D01*
Y484499D02*
Y487054D01*
Y457828D02*
Y476131D01*
Y449066D02*
Y451621D01*
Y427050D02*
Y440698D01*
X477019Y528861D02*
Y537352D01*
Y519932D02*
Y522320D01*
Y493428D02*
Y511564D01*
Y484499D02*
Y486887D01*
Y457995D02*
Y476131D01*
Y449066D02*
Y451454D01*
Y427079D02*
Y440698D01*
X476822Y529009D02*
Y537352D01*
Y519932D02*
Y522172D01*
Y493576D02*
Y511564D01*
Y484499D02*
Y486739D01*
Y458143D02*
Y476131D01*
Y449066D02*
Y451306D01*
Y427106D02*
Y440698D01*
X476625Y529140D02*
Y537352D01*
Y519932D02*
Y522041D01*
Y493707D02*
Y511564D01*
Y484499D02*
Y486608D01*
Y458274D02*
Y476131D01*
Y449066D02*
Y451175D01*
Y427130D02*
Y440698D01*
X476428Y529255D02*
Y537352D01*
Y519932D02*
Y521926D01*
Y493822D02*
Y511564D01*
Y484499D02*
Y486493D01*
Y458389D02*
Y476131D01*
Y449066D02*
Y451060D01*
Y427151D02*
Y440698D01*
X476231Y529357D02*
Y537352D01*
Y519932D02*
Y521824D01*
Y493924D02*
Y511564D01*
Y484499D02*
Y486391D01*
Y458491D02*
Y476131D01*
Y449066D02*
Y450958D01*
Y427170D02*
Y440698D01*
X476034Y529446D02*
Y537352D01*
Y519932D02*
Y521735D01*
Y494013D02*
Y511564D01*
Y484499D02*
Y486302D01*
Y458580D02*
Y476131D01*
Y449066D02*
Y450869D01*
Y427187D02*
Y440698D01*
X475837Y529523D02*
Y537352D01*
Y519932D02*
Y521658D01*
Y494090D02*
Y511564D01*
Y484499D02*
Y486225D01*
Y458657D02*
Y476131D01*
Y449066D02*
Y450792D01*
Y427201D02*
Y440698D01*
X475641Y529589D02*
Y537352D01*
Y519932D02*
Y521592D01*
Y494156D02*
Y511564D01*
Y484499D02*
Y486159D01*
Y458723D02*
Y476131D01*
Y449066D02*
Y450726D01*
Y427213D02*
Y440698D01*
X475444Y529645D02*
Y537352D01*
Y519932D02*
Y521537D01*
Y494211D02*
Y511564D01*
Y484499D02*
Y486103D01*
Y458778D02*
Y476131D01*
Y449066D02*
Y450670D01*
Y427222D02*
Y440698D01*
X475247Y529690D02*
Y537352D01*
Y519932D02*
Y521491D01*
Y494257D02*
Y511564D01*
Y484499D02*
Y486058D01*
Y458824D02*
Y476131D01*
Y449066D02*
Y450625D01*
Y427229D02*
Y440698D01*
X475050Y529725D02*
Y537352D01*
Y519932D02*
Y521456D01*
Y494292D02*
Y511564D01*
Y484499D02*
Y486023D01*
Y458859D02*
Y476131D01*
Y449066D02*
Y450590D01*
Y427233D02*
Y440698D01*
X474853Y529751D02*
Y537352D01*
Y519932D02*
Y521430D01*
Y494318D02*
Y511564D01*
Y484499D02*
Y485997D01*
Y458885D02*
Y476131D01*
Y449066D02*
Y450564D01*
Y427235D02*
Y440698D01*
X474656Y529767D02*
Y537352D01*
Y519932D02*
Y521414D01*
Y494334D02*
Y511564D01*
Y484499D02*
Y485981D01*
Y458901D02*
Y476131D01*
Y449066D02*
Y450548D01*
Y427234D02*
Y440698D01*
X474459Y529774D02*
Y537352D01*
Y519932D02*
Y521407D01*
Y494341D02*
Y511564D01*
Y484499D02*
Y485974D01*
Y458908D02*
Y476131D01*
Y449066D02*
Y450541D01*
Y427231D02*
Y440698D01*
X474263Y529772D02*
Y537352D01*
Y519932D02*
Y521409D01*
Y494339D02*
Y511564D01*
Y484499D02*
Y485976D01*
Y458906D02*
Y476131D01*
Y449066D02*
Y450543D01*
Y427226D02*
Y440698D01*
X474066Y529760D02*
Y537352D01*
Y519932D02*
Y521421D01*
Y494327D02*
Y511564D01*
Y484499D02*
Y485988D01*
Y458894D02*
Y476131D01*
Y449066D02*
Y450555D01*
Y427218D02*
Y440698D01*
X473869Y529739D02*
Y537352D01*
Y519932D02*
Y521442D01*
Y494306D02*
Y511564D01*
Y484499D02*
Y486009D01*
Y458873D02*
Y476131D01*
Y449066D02*
Y450576D01*
Y427207D02*
Y440698D01*
X473672Y529709D02*
Y537352D01*
Y519932D02*
Y521472D01*
Y494276D02*
Y511564D01*
Y484499D02*
Y486039D01*
Y458843D02*
Y476131D01*
Y449066D02*
Y450606D01*
Y427195D02*
Y440698D01*
X473475Y529669D02*
Y537352D01*
Y519932D02*
Y521512D01*
Y494236D02*
Y511564D01*
Y484499D02*
Y486079D01*
Y458803D02*
Y476131D01*
Y449066D02*
Y450646D01*
Y427179D02*
Y440698D01*
X473278Y529619D02*
Y537352D01*
Y519932D02*
Y521562D01*
Y494186D02*
Y511564D01*
Y484499D02*
Y486129D01*
Y458752D02*
Y476131D01*
Y449066D02*
Y450696D01*
Y427161D02*
Y440698D01*
X473081Y529558D02*
Y537352D01*
Y519932D02*
Y521623D01*
Y494125D02*
Y511564D01*
Y484499D02*
Y486190D01*
Y458692D02*
Y476131D01*
Y449066D02*
Y450757D01*
Y427141D02*
Y440698D01*
X472885Y529487D02*
Y537352D01*
Y519932D02*
Y521694D01*
Y494054D02*
Y511564D01*
Y484499D02*
Y486261D01*
Y458621D02*
Y476131D01*
Y449066D02*
Y450828D01*
Y427118D02*
Y440698D01*
X472688Y529404D02*
Y537352D01*
Y519932D02*
Y521777D01*
Y493971D02*
Y511564D01*
Y484499D02*
Y486344D01*
Y458538D02*
Y476131D01*
Y449066D02*
Y450911D01*
Y427093D02*
Y440698D01*
X472491Y529309D02*
Y537352D01*
Y519932D02*
Y521872D01*
Y493876D02*
Y511564D01*
Y484499D02*
Y486439D01*
Y458442D02*
Y476131D01*
Y449066D02*
Y451006D01*
Y427065D02*
Y440698D01*
X472294Y529200D02*
Y537352D01*
Y519932D02*
Y521981D01*
Y493767D02*
Y511564D01*
Y484499D02*
Y486548D01*
Y458334D02*
Y476131D01*
Y449066D02*
Y451115D01*
Y427035D02*
Y440698D01*
X472097Y529077D02*
Y537352D01*
Y519932D02*
Y522104D01*
Y493644D02*
Y511564D01*
Y484499D02*
Y486671D01*
Y458211D02*
Y476131D01*
Y449066D02*
Y451238D01*
Y427002D02*
Y440698D01*
Y395719D02*
Y395833D01*
X471900Y528939D02*
Y537352D01*
Y519932D02*
Y522243D01*
Y493506D02*
Y511564D01*
Y484499D02*
Y486809D01*
Y458072D02*
Y476131D01*
Y449066D02*
Y451376D01*
Y426966D02*
Y440698D01*
Y395719D02*
Y395868D01*
X471704Y528782D02*
Y537352D01*
Y519932D02*
Y522400D01*
Y493349D02*
Y511564D01*
Y484499D02*
Y486966D01*
Y457915D02*
Y476131D01*
Y449066D02*
Y451533D01*
Y426928D02*
Y440698D01*
Y395719D02*
Y395906D01*
X471507Y528604D02*
Y537352D01*
Y519932D02*
Y522577D01*
Y493171D02*
Y511564D01*
Y484499D02*
Y487144D01*
Y457737D02*
Y476131D01*
Y449066D02*
Y451711D01*
Y426888D02*
Y440698D01*
Y395719D02*
Y395947D01*
X471310Y528401D02*
Y537352D01*
Y519932D02*
Y522780D01*
Y492968D02*
Y511564D01*
Y484499D02*
Y487347D01*
Y457535D02*
Y476131D01*
Y449066D02*
Y451914D01*
Y426844D02*
Y440698D01*
Y395719D02*
Y395990D01*
X471113Y528167D02*
Y537352D01*
Y519932D02*
Y523014D01*
Y492734D02*
Y511564D01*
Y484499D02*
Y487581D01*
Y457301D02*
Y476131D01*
Y449066D02*
Y452148D01*
Y426799D02*
Y440698D01*
Y395719D02*
Y396036D01*
X470916Y527893D02*
Y537352D01*
Y519932D02*
Y523288D01*
Y492460D02*
Y511564D01*
Y484499D02*
Y487855D01*
Y457027D02*
Y476131D01*
Y449066D02*
Y452422D01*
Y426750D02*
Y440698D01*
Y395719D02*
Y396085D01*
X470719Y527562D02*
Y537352D01*
Y519915D02*
Y523619D01*
Y492176D02*
Y511581D01*
Y484482D02*
Y488139D01*
Y456696D02*
Y476148D01*
Y449049D02*
Y452753D01*
Y426699D02*
Y440715D01*
Y395719D02*
Y396136D01*
X470522Y527138D02*
Y537352D01*
Y519832D02*
Y524043D01*
Y492176D02*
Y511664D01*
Y484399D02*
Y488139D01*
Y456272D02*
Y476231D01*
Y448966D02*
Y453177D01*
Y426645D02*
Y440798D01*
Y395719D02*
Y396190D01*
X470326Y526500D02*
Y537352D01*
Y519635D02*
Y524681D01*
Y492176D02*
Y511861D01*
Y484202D02*
Y488139D01*
Y455634D02*
Y476428D01*
Y448769D02*
Y453815D01*
Y426588D02*
Y440995D01*
Y395719D02*
Y396247D01*
X470129Y492176D02*
Y537352D01*
Y482333D02*
Y488139D01*
Y447688D02*
Y478296D01*
Y426529D02*
Y442076D01*
Y395719D02*
Y396306D01*
X469932Y492176D02*
Y537352D01*
Y482333D02*
Y488139D01*
Y447688D02*
Y478296D01*
Y426466D02*
Y442076D01*
Y395719D02*
Y396368D01*
X469735Y492176D02*
Y537352D01*
Y482333D02*
Y488139D01*
Y447688D02*
Y478296D01*
Y426401D02*
Y442076D01*
Y395719D02*
Y396434D01*
X469538Y492176D02*
Y537352D01*
Y482333D02*
Y488139D01*
Y447688D02*
Y478296D01*
Y426333D02*
Y442076D01*
Y395719D02*
Y396502D01*
X469341Y492176D02*
Y537352D01*
Y482333D02*
Y488139D01*
Y447688D02*
Y478296D01*
Y426262D02*
Y442076D01*
Y395719D02*
Y396573D01*
X469144Y492176D02*
Y537352D01*
Y482333D02*
Y488139D01*
Y447688D02*
Y478296D01*
Y426188D02*
Y442076D01*
Y395719D02*
Y396646D01*
X468948Y492176D02*
Y537352D01*
Y482333D02*
Y488139D01*
Y447688D02*
Y478296D01*
Y426111D02*
Y442076D01*
Y395719D02*
Y396723D01*
X468751Y492176D02*
Y537352D01*
Y482333D02*
Y488139D01*
Y447688D02*
Y478296D01*
Y426031D02*
Y442076D01*
Y395719D02*
Y396803D01*
X468554Y492176D02*
Y537352D01*
Y482333D02*
Y488139D01*
Y447688D02*
Y478296D01*
Y425948D02*
Y442076D01*
Y395719D02*
Y396886D01*
X468357Y492176D02*
Y537352D01*
Y482333D02*
Y488139D01*
Y447688D02*
Y478296D01*
Y425862D02*
Y442076D01*
Y395719D02*
Y396973D01*
X468160Y492176D02*
Y537352D01*
Y482333D02*
Y488139D01*
Y447688D02*
Y478296D01*
Y425773D02*
Y442076D01*
Y395719D02*
Y397062D01*
X467963Y492176D02*
Y537352D01*
Y482333D02*
Y488139D01*
Y447688D02*
Y478296D01*
Y425680D02*
Y442076D01*
Y395719D02*
Y397155D01*
X467767Y492176D02*
Y537352D01*
Y482333D02*
Y488139D01*
Y447688D02*
Y478296D01*
Y425584D02*
Y442076D01*
Y395719D02*
Y397251D01*
X467570Y492176D02*
Y537352D01*
Y482333D02*
Y488139D01*
Y447688D02*
Y478296D01*
Y425484D02*
Y442076D01*
Y395719D02*
Y397350D01*
X467373Y492176D02*
Y537352D01*
Y482333D02*
Y488139D01*
Y447688D02*
Y478296D01*
Y425381D02*
Y442076D01*
Y395719D02*
Y397453D01*
X467176Y492176D02*
Y537352D01*
Y482333D02*
Y488139D01*
Y447688D02*
Y478296D01*
Y425275D02*
Y442076D01*
Y395719D02*
Y397560D01*
X466979Y492176D02*
Y537352D01*
Y482333D02*
Y488139D01*
Y447688D02*
Y478296D01*
Y425164D02*
Y442076D01*
Y395719D02*
Y397670D01*
X466782Y492176D02*
Y537352D01*
Y482333D02*
Y488139D01*
Y447688D02*
Y478296D01*
Y425051D02*
Y442076D01*
Y395719D02*
Y397784D01*
X466585Y492176D02*
Y537352D01*
Y482333D02*
Y488139D01*
Y447688D02*
Y478296D01*
Y424933D02*
Y442076D01*
Y395719D02*
Y397902D01*
X466389Y492176D02*
Y537352D01*
Y482333D02*
Y488139D01*
Y447688D02*
Y478296D01*
Y424811D02*
Y442076D01*
Y395719D02*
Y398023D01*
X466192Y492176D02*
Y537352D01*
Y482333D02*
Y488139D01*
Y447688D02*
Y478296D01*
Y424685D02*
Y442076D01*
Y395719D02*
Y398149D01*
X465995Y492176D02*
Y537352D01*
Y482333D02*
Y488139D01*
Y447688D02*
Y478296D01*
Y424556D02*
Y442076D01*
Y395719D02*
Y398279D01*
X465798Y492176D02*
Y537352D01*
Y482333D02*
Y488139D01*
Y447688D02*
Y478296D01*
Y424421D02*
Y442076D01*
Y395719D02*
Y398413D01*
X465601Y492176D02*
Y537352D01*
Y482333D02*
Y488139D01*
Y447688D02*
Y478296D01*
Y424283D02*
Y441948D01*
Y395719D02*
Y398552D01*
X465404Y492176D02*
Y537352D01*
Y482333D02*
Y488139D01*
Y447688D02*
Y478296D01*
Y424140D02*
Y441751D01*
Y395719D02*
Y398695D01*
X465207Y492176D02*
Y537352D01*
Y482333D02*
Y488139D01*
Y447688D02*
Y478296D01*
Y423992D02*
Y441554D01*
Y395719D02*
Y398843D01*
X465011Y492176D02*
Y537352D01*
Y482333D02*
Y488139D01*
Y447688D02*
Y478296D01*
Y423839D02*
Y441357D01*
Y395719D02*
Y398995D01*
X464814Y492176D02*
Y537352D01*
Y482333D02*
Y488139D01*
Y447688D02*
Y478296D01*
Y423682D02*
Y441161D01*
Y395719D02*
Y399153D01*
X464617Y492176D02*
Y537352D01*
Y482333D02*
Y488139D01*
Y447688D02*
Y478296D01*
Y423519D02*
Y440964D01*
Y395719D02*
Y399316D01*
X464420Y492176D02*
Y537352D01*
Y482333D02*
Y488139D01*
Y447684D02*
Y478296D01*
Y423350D02*
Y440767D01*
Y395719D02*
Y399485D01*
X464223Y492176D02*
Y537352D01*
Y482337D02*
Y488139D01*
Y447667D02*
Y478296D01*
Y423176D02*
Y440570D01*
Y395719D02*
Y399659D01*
X464026Y492176D02*
Y537352D01*
Y482529D02*
Y488139D01*
Y447635D02*
Y478296D01*
Y422996D02*
Y440386D01*
Y395719D02*
Y399839D01*
X463830Y492176D02*
Y537352D01*
Y482726D02*
Y488139D01*
Y447589D02*
Y478296D01*
Y422809D02*
Y440232D01*
Y395719D02*
Y400025D01*
X463633Y492176D02*
Y537352D01*
Y482923D02*
Y488139D01*
Y447528D02*
Y478296D01*
Y422616D02*
Y440104D01*
Y395719D02*
Y400218D01*
X463436Y492176D02*
Y537352D01*
Y483120D02*
Y488139D01*
Y447450D02*
Y478296D01*
Y422417D02*
Y439998D01*
Y395719D02*
Y400418D01*
X463239Y492176D02*
Y537352D01*
Y483316D02*
Y488139D01*
Y447354D02*
Y478302D01*
Y422209D02*
Y439911D01*
Y395719D02*
Y400625D01*
X463042Y492180D02*
Y537352D01*
Y483513D02*
Y488139D01*
Y447237D02*
Y478326D01*
Y421995D02*
Y439842D01*
Y395719D02*
Y400840D01*
X462845Y492372D02*
Y537352D01*
Y483710D02*
Y488139D01*
Y447098D02*
Y478370D01*
Y421772D02*
Y439788D01*
Y395719D02*
Y401063D01*
X462648Y492568D02*
Y537352D01*
Y483907D02*
Y488139D01*
Y446929D02*
Y478436D01*
Y421540D02*
Y439749D01*
Y395719D02*
Y401295D01*
X462452Y492765D02*
Y537352D01*
Y484104D02*
Y488139D01*
Y446735D02*
Y478526D01*
Y421299D02*
Y439725D01*
Y395719D02*
Y401536D01*
X462255Y492962D02*
Y537352D01*
Y484301D02*
Y488139D01*
Y446538D02*
Y478643D01*
Y421047D02*
Y439714D01*
Y395719D02*
Y401787D01*
X462058Y493159D02*
Y537352D01*
Y484498D02*
Y488144D01*
Y446341D02*
Y478795D01*
Y420785D02*
Y439714D01*
Y395719D02*
Y402049D01*
X461861Y493332D02*
Y537352D01*
Y484694D02*
Y488168D01*
Y446144D02*
Y478985D01*
Y420511D02*
Y439714D01*
Y395719D02*
Y402323D01*
X461664Y493466D02*
Y537352D01*
Y484891D02*
Y488213D01*
Y445947D02*
Y479182D01*
Y420225D02*
Y439714D01*
Y395719D02*
Y402610D01*
X461467Y493569D02*
Y537352D01*
Y485088D02*
Y488278D01*
Y445750D02*
Y479379D01*
Y419924D02*
Y439714D01*
Y395719D02*
Y402911D01*
X461270Y493646D02*
Y537352D01*
Y485285D02*
Y488368D01*
Y445554D02*
Y479576D01*
Y419607D02*
Y439714D01*
Y395719D02*
Y403228D01*
X461074Y493701D02*
Y537352D01*
Y485482D02*
Y488486D01*
Y445357D02*
Y479773D01*
Y419272D02*
Y439714D01*
Y395719D02*
Y403562D01*
X460877Y493736D02*
Y537352D01*
Y485679D02*
Y488637D01*
Y445326D02*
Y479969D01*
Y418918D02*
Y439714D01*
Y395719D02*
Y403917D01*
X460680Y493750D02*
Y537352D01*
Y485875D02*
Y488828D01*
Y445326D02*
Y480166D01*
Y418540D02*
Y439714D01*
Y395719D02*
Y404295D01*
X460483Y493751D02*
Y537352D01*
Y486072D02*
Y489025D01*
Y445326D02*
Y480363D01*
Y418136D02*
Y439714D01*
Y395719D02*
Y404699D01*
X460286Y493751D02*
Y537352D01*
Y486269D02*
Y489221D01*
Y445326D02*
Y480560D01*
Y417699D02*
Y439714D01*
Y395719D02*
Y405136D01*
X460089Y493751D02*
Y537352D01*
Y486466D02*
Y489418D01*
Y445326D02*
Y480757D01*
Y417223D02*
Y439714D01*
Y395719D02*
Y405612D01*
X459893Y493751D02*
Y537352D01*
Y486663D02*
Y489615D01*
Y445326D02*
Y480954D01*
Y416697D02*
Y439714D01*
Y395719D02*
Y406138D01*
X459696Y493751D02*
Y537352D01*
Y486860D02*
Y489714D01*
Y445326D02*
Y481151D01*
Y416104D02*
Y439714D01*
Y395719D02*
Y406731D01*
X459499Y493751D02*
Y537352D01*
Y487057D02*
Y489714D01*
Y445326D02*
Y481347D01*
Y415414D02*
Y439714D01*
Y395719D02*
Y407420D01*
X459302Y493751D02*
Y537352D01*
Y487253D02*
Y489714D01*
Y445326D02*
Y481544D01*
Y414566D02*
Y439714D01*
Y395719D02*
Y408269D01*
X459105Y493751D02*
Y537352D01*
Y487450D02*
Y489714D01*
Y445326D02*
Y481741D01*
Y413359D02*
Y439714D01*
Y395719D02*
Y409475D01*
X458908Y493751D02*
Y537352D01*
Y487647D02*
Y489714D01*
Y445326D02*
Y481938D01*
Y395719D02*
Y439714D01*
X458711Y493751D02*
Y537352D01*
Y487844D02*
Y489714D01*
Y445326D02*
Y482135D01*
Y395719D02*
Y439714D01*
X458515Y493751D02*
Y537352D01*
Y488041D02*
Y489714D01*
Y445326D02*
Y482332D01*
Y395719D02*
Y439714D01*
X458318Y493751D02*
Y537352D01*
Y488238D02*
Y489714D01*
Y445326D02*
Y482528D01*
Y395719D02*
Y439714D01*
X458121Y493751D02*
Y537352D01*
Y488435D02*
Y489714D01*
Y445326D02*
Y482725D01*
Y395719D02*
Y439714D01*
X457924Y493751D02*
Y537352D01*
Y488631D02*
Y489714D01*
Y445326D02*
Y482922D01*
Y395719D02*
Y439714D01*
X457727Y493751D02*
Y537352D01*
Y488828D02*
Y489714D01*
Y445326D02*
Y483119D01*
Y395719D02*
Y439714D01*
X457530Y493751D02*
Y537352D01*
Y489025D02*
Y489714D01*
Y445326D02*
Y483316D01*
Y395719D02*
Y439714D01*
X457333Y493751D02*
Y537352D01*
Y489222D02*
Y489714D01*
Y445326D02*
Y483513D01*
Y395719D02*
Y439714D01*
X457137Y493751D02*
Y537352D01*
Y489419D02*
Y489714D01*
Y445326D02*
Y483710D01*
Y395719D02*
Y439714D01*
X456940Y493751D02*
Y537352D01*
Y489616D02*
Y489708D01*
Y445326D02*
Y483906D01*
Y395719D02*
Y439714D01*
X456743Y493751D02*
Y537352D01*
Y445326D02*
Y484103D01*
Y395719D02*
Y439714D01*
X456546Y493751D02*
Y537352D01*
Y445326D02*
Y484300D01*
Y395719D02*
Y439714D01*
X456349Y493751D02*
Y537352D01*
Y445326D02*
Y484497D01*
Y395719D02*
Y439714D01*
X456152Y493751D02*
Y537352D01*
Y445326D02*
Y484694D01*
Y395719D02*
Y439714D01*
X455956Y493751D02*
Y537352D01*
Y445326D02*
Y484891D01*
Y395719D02*
Y439714D01*
X455759Y493751D02*
Y537352D01*
Y445326D02*
Y485088D01*
Y395719D02*
Y439714D01*
X455562Y493751D02*
Y537352D01*
Y445326D02*
Y485284D01*
Y395719D02*
Y439714D01*
X455365Y493751D02*
Y537352D01*
Y445326D02*
Y485481D01*
Y395719D02*
Y439714D01*
X455168Y503838D02*
Y537352D01*
Y493751D02*
Y500840D01*
Y445326D02*
Y485678D01*
Y432185D02*
Y439714D01*
Y395719D02*
Y429186D01*
X454971Y504737D02*
Y537352D01*
Y493751D02*
Y499941D01*
Y445326D02*
Y485875D01*
Y433083D02*
Y439714D01*
Y395719D02*
Y428288D01*
X454774Y505368D02*
Y537352D01*
Y493751D02*
Y499310D01*
Y445326D02*
Y486072D01*
Y433714D02*
Y439714D01*
Y395719D02*
Y427657D01*
X454578Y505877D02*
Y537352D01*
Y493751D02*
Y498801D01*
Y445326D02*
Y486269D01*
Y434224D02*
Y439714D01*
Y395719D02*
Y427147D01*
X454381Y506312D02*
Y537352D01*
Y493751D02*
Y498366D01*
Y445326D02*
Y486465D01*
Y434659D02*
Y439714D01*
Y395719D02*
Y426712D01*
X454184Y506695D02*
Y537352D01*
Y493751D02*
Y497983D01*
Y445326D02*
Y486564D01*
Y435042D02*
Y439714D01*
Y395719D02*
Y426329D01*
X453987Y507039D02*
Y537352D01*
Y493751D02*
Y497639D01*
Y445326D02*
Y486564D01*
Y435386D02*
Y439714D01*
Y395719D02*
Y425985D01*
X453790Y507352D02*
Y537352D01*
Y493751D02*
Y497326D01*
Y445326D02*
Y486564D01*
Y435698D02*
Y439714D01*
Y395719D02*
Y425673D01*
X453593Y507639D02*
Y537352D01*
Y493751D02*
Y497039D01*
Y445326D02*
Y486564D01*
Y435985D02*
Y439714D01*
Y395719D02*
Y425386D01*
X453396Y507904D02*
Y537352D01*
Y493751D02*
Y496774D01*
Y445326D02*
Y486564D01*
Y436250D02*
Y439714D01*
Y395719D02*
Y425121D01*
X453200Y508150D02*
Y537352D01*
Y493751D02*
Y496528D01*
Y445326D02*
Y486564D01*
Y436497D02*
Y439714D01*
Y395719D02*
Y424874D01*
X453003Y508380D02*
Y537352D01*
Y493751D02*
Y496298D01*
Y445326D02*
Y486564D01*
Y436727D02*
Y439714D01*
Y395719D02*
Y424644D01*
X452806Y508596D02*
Y537352D01*
Y493751D02*
Y496082D01*
Y445326D02*
Y486564D01*
Y436942D02*
Y439714D01*
Y395719D02*
Y424429D01*
X452609Y508798D02*
Y537352D01*
Y493751D02*
Y495880D01*
Y445326D02*
Y486564D01*
Y437144D02*
Y439714D01*
Y395719D02*
Y424227D01*
X452412Y508988D02*
Y537352D01*
Y493751D02*
Y495690D01*
Y445326D02*
Y486564D01*
Y437334D02*
Y439714D01*
Y395719D02*
Y424036D01*
X452215Y509167D02*
Y537352D01*
Y493751D02*
Y495511D01*
Y445326D02*
Y486564D01*
Y437514D02*
Y439714D01*
Y395719D02*
Y423857D01*
X452019Y509336D02*
Y537352D01*
Y493751D02*
Y495342D01*
Y445326D02*
Y486564D01*
Y437683D02*
Y439714D01*
Y395719D02*
Y423688D01*
X451822Y526764D02*
Y537352D01*
Y509496D02*
Y524418D01*
Y493751D02*
Y495182D01*
Y445326D02*
Y486564D01*
Y437843D02*
Y439714D01*
Y395719D02*
Y423528D01*
X451625Y527226D02*
Y537352D01*
Y509647D02*
Y523955D01*
Y493751D02*
Y495031D01*
Y445326D02*
Y486564D01*
Y437993D02*
Y439714D01*
Y395719D02*
Y423377D01*
X451428Y527564D02*
Y537352D01*
Y509790D02*
Y523617D01*
Y493751D02*
Y494888D01*
Y445326D02*
Y486564D01*
Y438136D02*
Y439714D01*
Y395719D02*
Y423235D01*
X451231Y527835D02*
Y537352D01*
Y509925D02*
Y523346D01*
Y493751D02*
Y494753D01*
Y445326D02*
Y486564D01*
Y438271D02*
Y439714D01*
Y395719D02*
Y423100D01*
X451034Y528061D02*
Y537352D01*
Y510052D02*
Y523120D01*
Y493751D02*
Y494626D01*
Y482305D02*
Y486564D01*
Y477305D02*
Y480719D01*
Y472305D02*
Y475719D01*
Y467305D02*
Y470719D01*
Y462305D02*
Y465719D01*
Y457305D02*
Y460719D01*
Y452305D02*
Y455719D01*
Y445326D02*
Y450719D01*
Y438399D02*
Y439714D01*
Y395719D02*
Y422972D01*
X450837Y528254D02*
Y537352D01*
Y510173D02*
Y522927D01*
Y493751D02*
Y494505D01*
Y482796D02*
Y486564D01*
Y477796D02*
Y480228D01*
Y472796D02*
Y475228D01*
Y467796D02*
Y470228D01*
Y462796D02*
Y465228D01*
Y457796D02*
Y460228D01*
Y452796D02*
Y455228D01*
Y445326D02*
Y450228D01*
Y438519D02*
Y439714D01*
Y395719D02*
Y422852D01*
X450641Y528420D02*
Y537352D01*
Y510286D02*
Y522761D01*
Y493751D02*
Y494392D01*
Y483122D02*
Y486564D01*
Y478122D02*
Y479902D01*
Y473122D02*
Y474902D01*
Y468122D02*
Y469902D01*
Y463122D02*
Y464902D01*
Y458122D02*
Y459902D01*
Y453122D02*
Y454902D01*
Y445326D02*
Y449902D01*
Y438633D02*
Y439714D01*
Y395719D02*
Y422738D01*
X450444Y528563D02*
Y537352D01*
Y510394D02*
Y522618D01*
Y493751D02*
Y494284D01*
Y483372D02*
Y486564D01*
Y478372D02*
Y479652D01*
Y473372D02*
Y474652D01*
Y468372D02*
Y469652D01*
Y463372D02*
Y464652D01*
Y458372D02*
Y459652D01*
Y453372D02*
Y454652D01*
Y445326D02*
Y449652D01*
Y438740D02*
Y439714D01*
Y395719D02*
Y422631D01*
X450247Y528688D02*
Y537352D01*
Y510495D02*
Y522493D01*
Y493751D02*
Y494183D01*
Y483573D02*
Y486564D01*
Y478573D02*
Y479451D01*
Y473573D02*
Y474451D01*
Y468573D02*
Y469451D01*
Y463573D02*
Y464451D01*
Y458573D02*
Y459451D01*
Y453573D02*
Y454451D01*
Y445326D02*
Y449451D01*
Y438841D02*
Y439714D01*
Y395719D02*
Y422529D01*
X450050Y528796D02*
Y537352D01*
Y510590D02*
Y522386D01*
Y493751D02*
Y494088D01*
Y483739D02*
Y486564D01*
Y478739D02*
Y479286D01*
Y473739D02*
Y474286D01*
Y468739D02*
Y469286D01*
Y463739D02*
Y464286D01*
Y458739D02*
Y459286D01*
Y453739D02*
Y454286D01*
Y445326D02*
Y449286D01*
Y438937D02*
Y439714D01*
Y395719D02*
Y422434D01*
X449853Y528888D02*
Y537352D01*
Y510680D02*
Y522293D01*
Y493751D02*
Y493998D01*
Y483877D02*
Y486564D01*
Y478877D02*
Y479148D01*
Y473877D02*
Y474148D01*
Y468877D02*
Y469148D01*
Y463877D02*
Y464148D01*
Y458877D02*
Y459148D01*
Y453877D02*
Y454148D01*
Y445326D02*
Y449148D01*
Y439026D02*
Y439714D01*
Y395719D02*
Y422345D01*
X449656Y528966D02*
Y537352D01*
Y510764D02*
Y522215D01*
Y493751D02*
Y493914D01*
Y483992D02*
Y486564D01*
Y445326D02*
Y449033D01*
Y439110D02*
Y439714D01*
Y395719D02*
Y422261D01*
X449459Y529032D02*
Y537352D01*
Y510843D02*
Y522149D01*
Y493790D02*
Y493811D01*
Y484086D02*
Y486564D01*
Y445326D02*
Y448938D01*
Y439189D02*
Y439714D01*
Y395719D02*
Y422182D01*
X449263Y529085D02*
Y537352D01*
Y510916D02*
Y522096D01*
Y484163D02*
Y486564D01*
Y445326D02*
Y448861D01*
Y439262D02*
Y439714D01*
Y395719D02*
Y422109D01*
X449066Y529126D02*
Y537352D01*
Y510984D02*
Y522055D01*
Y484223D02*
Y486564D01*
Y445326D02*
Y448801D01*
Y439331D02*
Y439714D01*
Y395719D02*
Y422040D01*
X448869Y529156D02*
Y537352D01*
Y511047D02*
Y522025D01*
Y484268D02*
Y486564D01*
Y445326D02*
Y448756D01*
Y439394D02*
Y439714D01*
Y395719D02*
Y421977D01*
X448672Y529175D02*
Y537352D01*
Y511106D02*
Y522006D01*
Y484299D02*
Y486564D01*
Y445326D02*
Y448726D01*
Y439452D02*
Y439714D01*
Y395719D02*
Y421919D01*
X448475Y529184D02*
Y537352D01*
Y511160D02*
Y521998D01*
Y484315D02*
Y486564D01*
Y445326D02*
Y448709D01*
Y439506D02*
Y439714D01*
Y395719D02*
Y421865D01*
X448278Y529181D02*
Y537352D01*
Y511208D02*
Y522000D01*
Y484317D02*
Y486564D01*
Y445326D02*
Y448707D01*
Y439555D02*
Y439714D01*
Y395719D02*
Y421816D01*
X448081Y529167D02*
Y537352D01*
Y511253D02*
Y522014D01*
Y484306D02*
Y486564D01*
Y445326D02*
Y448718D01*
Y439599D02*
Y439714D01*
Y395719D02*
Y421772D01*
X447885Y529143D02*
Y537352D01*
Y511293D02*
Y522038D01*
Y484280D02*
Y486564D01*
Y445326D02*
Y448744D01*
Y395719D02*
Y421732D01*
X447688Y529107D02*
Y537352D01*
Y511328D02*
Y522074D01*
Y484241D02*
Y486564D01*
Y445326D02*
Y448784D01*
Y395719D02*
Y421697D01*
X447491Y529060D02*
Y537352D01*
Y511359D02*
Y522121D01*
Y484186D02*
Y486564D01*
Y445326D02*
Y448839D01*
Y395719D02*
Y421666D01*
X447294Y529001D02*
Y537352D01*
Y511385D02*
Y522180D01*
Y484115D02*
Y486564D01*
Y445326D02*
Y448910D01*
Y395719D02*
Y421639D01*
X447097Y528929D02*
Y537352D01*
Y511407D02*
Y522252D01*
Y484027D02*
Y486564D01*
Y445326D02*
Y448998D01*
Y395719D02*
Y421617D01*
X446900Y528844D02*
Y537352D01*
Y511425D02*
Y522337D01*
Y483919D02*
Y486564D01*
Y445326D02*
Y449105D01*
Y395719D02*
Y421599D01*
X446704Y528745D02*
Y537352D01*
Y511439D02*
Y522437D01*
Y484805D02*
Y486564D01*
Y445326D02*
Y448219D01*
Y395719D02*
Y421586D01*
X446507Y528629D02*
Y537352D01*
Y511448D02*
Y522552D01*
Y485296D02*
Y486564D01*
Y395719D02*
Y421576D01*
X446310Y528495D02*
Y537352D01*
Y511453D02*
Y522686D01*
Y485622D02*
Y486564D01*
Y395719D02*
Y421571D01*
X446113Y528341D02*
Y537352D01*
Y511454D02*
Y522840D01*
Y485872D02*
Y486564D01*
Y395719D02*
Y421571D01*
X445916Y528163D02*
Y537352D01*
Y511450D02*
Y523018D01*
Y486073D02*
Y486564D01*
Y395719D02*
Y421574D01*
X445719Y527955D02*
Y537352D01*
Y511442D02*
Y523226D01*
Y486239D02*
Y486564D01*
Y395719D02*
Y421582D01*
X445522Y527709D02*
Y537352D01*
Y511430D02*
Y523473D01*
Y486377D02*
Y486564D01*
Y395719D02*
Y421594D01*
X445326Y527408D02*
Y537352D01*
Y511414D02*
Y523773D01*
Y395719D02*
Y421610D01*
X445129Y527021D02*
Y537352D01*
Y511393D02*
Y524160D01*
Y395719D02*
Y421631D01*
X444932Y526432D02*
Y537352D01*
Y511368D02*
Y524749D01*
Y395719D02*
Y421656D01*
X444735Y511339D02*
Y537352D01*
Y395719D02*
Y421685D01*
X444538Y511305D02*
Y537352D01*
Y439652D02*
Y439812D01*
Y395719D02*
Y421719D01*
X444341Y511267D02*
Y537352D01*
Y439614D02*
Y439874D01*
Y395719D02*
Y421757D01*
X444144Y511224D02*
Y537352D01*
Y439571D02*
Y439952D01*
Y395719D02*
Y421800D01*
X443948Y511177D02*
Y537352D01*
Y439523D02*
Y440048D01*
Y395719D02*
Y421847D01*
X443751Y511125D02*
Y537352D01*
Y439471D02*
Y440164D01*
Y395719D02*
Y421899D01*
X443554Y511068D02*
Y537352D01*
Y439415D02*
Y440304D01*
Y395719D02*
Y421956D01*
X443357Y511007D02*
Y537352D01*
Y439353D02*
Y440472D01*
Y395719D02*
Y422018D01*
X443160Y510940D02*
Y537352D01*
Y439287D02*
Y440667D01*
Y395719D02*
Y422084D01*
X442963Y510869D02*
Y537352D01*
Y439215D02*
Y440864D01*
Y395719D02*
Y422156D01*
X442767Y510792D02*
Y537352D01*
Y493751D02*
Y493886D01*
Y439138D02*
Y441061D01*
Y395719D02*
Y422233D01*
X442570Y510710D02*
Y537352D01*
Y493751D02*
Y493968D01*
Y439056D02*
Y441257D01*
Y395719D02*
Y422315D01*
X442373Y510622D02*
Y537352D01*
Y493751D02*
Y494056D01*
Y451484D02*
Y451735D01*
Y438968D02*
Y441454D01*
Y395719D02*
Y422402D01*
X442176Y510529D02*
Y537352D01*
Y493751D02*
Y494149D01*
Y451368D02*
Y451890D01*
Y438875D02*
Y441651D01*
Y395719D02*
Y422496D01*
X441979Y510430D02*
Y537352D01*
Y493751D02*
Y494248D01*
Y451228D02*
Y452078D01*
Y438776D02*
Y441848D01*
Y395719D02*
Y422595D01*
X441782Y510324D02*
Y537352D01*
Y493751D02*
Y494354D01*
Y455716D02*
Y455856D01*
Y451060D02*
Y452309D01*
Y438671D02*
Y442045D01*
Y395719D02*
Y422700D01*
X441585Y510213D02*
Y537352D01*
Y493751D02*
Y494465D01*
Y455421D02*
Y455856D01*
Y450856D02*
Y452603D01*
Y438559D02*
Y442251D01*
Y395719D02*
Y422812D01*
X441389Y510095D02*
Y537352D01*
Y493751D02*
Y494583D01*
Y455008D02*
Y455856D01*
Y450602D02*
Y453017D01*
Y438441D02*
Y442505D01*
Y395719D02*
Y422930D01*
X441192Y509970D02*
Y537352D01*
Y493751D02*
Y494708D01*
Y450268D02*
Y455856D01*
Y438316D02*
Y442838D01*
Y395719D02*
Y423055D01*
X440995Y509837D02*
Y537352D01*
Y493751D02*
Y494841D01*
Y449755D02*
Y455856D01*
Y438184D02*
Y443352D01*
Y395719D02*
Y423187D01*
X440798Y509697D02*
Y537352D01*
Y493751D02*
Y494981D01*
Y438044D02*
Y455856D01*
Y395719D02*
Y423327D01*
X440601Y509549D02*
Y537352D01*
Y493751D02*
Y495129D01*
Y437896D02*
Y455856D01*
Y395719D02*
Y423475D01*
X440404Y509393D02*
Y537352D01*
Y493751D02*
Y495285D01*
Y437739D02*
Y455856D01*
Y395719D02*
Y423632D01*
X440207Y509227D02*
Y537352D01*
Y493751D02*
Y495451D01*
Y437573D02*
Y455856D01*
Y395719D02*
Y423797D01*
X440011Y509051D02*
Y537352D01*
Y493751D02*
Y495627D01*
Y437398D02*
Y455856D01*
Y395719D02*
Y423973D01*
X439814Y508865D02*
Y537352D01*
Y493751D02*
Y495813D01*
Y437211D02*
Y455856D01*
Y395719D02*
Y424159D01*
X439617Y508667D02*
Y537352D01*
Y493751D02*
Y496011D01*
Y437013D02*
Y455856D01*
Y395719D02*
Y424357D01*
X439420Y508456D02*
Y537352D01*
Y493751D02*
Y496222D01*
Y436803D02*
Y455856D01*
Y395719D02*
Y424568D01*
X439223Y508232D02*
Y537352D01*
Y493751D02*
Y496446D01*
Y436578D02*
Y455856D01*
Y395719D02*
Y424793D01*
X439026Y507991D02*
Y537352D01*
Y493751D02*
Y496687D01*
Y436338D02*
Y455856D01*
Y395719D02*
Y425033D01*
X438830Y507733D02*
Y537352D01*
Y493751D02*
Y496945D01*
Y436079D02*
Y455856D01*
Y395719D02*
Y425292D01*
X438633Y507454D02*
Y537352D01*
Y493751D02*
Y497224D01*
Y435800D02*
Y455856D01*
Y395719D02*
Y425571D01*
X438436Y507151D02*
Y537352D01*
Y493751D02*
Y497527D01*
Y435497D02*
Y455856D01*
Y395719D02*
Y425874D01*
X438239Y506818D02*
Y537352D01*
Y493751D02*
Y497860D01*
Y435165D02*
Y455856D01*
Y395719D02*
Y426206D01*
X438042Y506450D02*
Y537352D01*
Y493751D02*
Y498228D01*
Y434797D02*
Y455856D01*
Y395719D02*
Y426574D01*
X437845Y506035D02*
Y537352D01*
Y493751D02*
Y498643D01*
Y434381D02*
Y455856D01*
Y395719D02*
Y426990D01*
X437648Y505555D02*
Y537352D01*
Y493751D02*
Y499123D01*
Y433901D02*
Y455856D01*
Y395719D02*
Y427470D01*
X437452Y504974D02*
Y537352D01*
Y493751D02*
Y499704D01*
Y433321D02*
Y455856D01*
Y395719D02*
Y428050D01*
X437255Y504202D02*
Y537352D01*
Y493751D02*
Y500476D01*
Y432548D02*
Y455856D01*
Y395719D02*
Y428823D01*
X437058Y522442D02*
Y537352D01*
Y493751D02*
Y520865D01*
Y395719D02*
Y455856D01*
X436861Y524262D02*
Y537352D01*
Y493751D02*
Y519045D01*
Y395719D02*
Y455856D01*
X436664Y525246D02*
Y537352D01*
Y493751D02*
Y518061D01*
Y395719D02*
Y455856D01*
X436467Y526005D02*
Y537352D01*
Y493751D02*
Y517302D01*
Y395719D02*
Y455856D01*
X436270Y526642D02*
Y537352D01*
Y493751D02*
Y516665D01*
Y395719D02*
Y455856D01*
X436074Y527199D02*
Y537352D01*
Y493751D02*
Y516108D01*
Y395719D02*
Y455856D01*
X435877Y527699D02*
Y537352D01*
Y493751D02*
Y515608D01*
Y395719D02*
Y455856D01*
X435680Y528154D02*
Y537352D01*
Y493751D02*
Y515153D01*
Y395719D02*
Y455856D01*
X435483Y528574D02*
Y537352D01*
Y493751D02*
Y514733D01*
Y395719D02*
Y455856D01*
X435286Y528965D02*
Y537352D01*
Y493751D02*
Y514342D01*
Y395719D02*
Y455856D01*
X435089Y529331D02*
Y537352D01*
Y493751D02*
Y513976D01*
Y395719D02*
Y455856D01*
X434893Y529675D02*
Y537352D01*
Y493751D02*
Y513632D01*
Y395719D02*
Y455874D01*
X434696Y530001D02*
Y537352D01*
Y493751D02*
Y513306D01*
Y395719D02*
Y455920D01*
X434499Y530310D02*
Y537352D01*
Y493751D02*
Y512997D01*
Y395719D02*
Y455998D01*
X434302Y530604D02*
Y537352D01*
Y493751D02*
Y512704D01*
Y395719D02*
Y456114D01*
X434105Y530884D02*
Y537352D01*
Y493745D02*
Y512423D01*
Y395719D02*
Y456280D01*
X433908Y531152D02*
Y537352D01*
Y493721D02*
Y512155D01*
Y395719D02*
Y456477D01*
X433711Y531408D02*
Y537352D01*
Y493677D02*
Y511899D01*
Y395719D02*
Y456674D01*
X433515Y531655D02*
Y537352D01*
Y493611D02*
Y511652D01*
Y395719D02*
Y456870D01*
X433318Y531891D02*
Y537352D01*
Y493522D02*
Y511416D01*
Y395719D02*
Y457067D01*
X433121Y532119D02*
Y537352D01*
Y493404D02*
Y511189D01*
Y395719D02*
Y457264D01*
X432924Y532337D02*
Y537352D01*
Y493252D02*
Y510970D01*
Y395719D02*
Y457461D01*
X432727Y532549D02*
Y537352D01*
Y493062D02*
Y510759D01*
Y395719D02*
Y457658D01*
X432530Y532752D02*
Y537352D01*
Y492865D02*
Y510555D01*
Y395719D02*
Y457855D01*
X432333Y532948D02*
Y537352D01*
Y492668D02*
Y510359D01*
Y395719D02*
Y458051D01*
X432137Y533138D02*
Y537352D01*
Y492472D02*
Y510169D01*
Y395719D02*
Y458248D01*
X431940Y533321D02*
Y537352D01*
Y492275D02*
Y509986D01*
Y395719D02*
Y458445D01*
X431743Y533499D02*
Y537352D01*
Y492078D02*
Y509809D01*
Y395719D02*
Y458642D01*
X431546Y533670D02*
Y537352D01*
Y491881D02*
Y509637D01*
Y395719D02*
Y458839D01*
X431349Y533836D02*
Y537352D01*
Y491684D02*
Y509471D01*
Y395719D02*
Y459036D01*
X431152Y533996D02*
Y537352D01*
Y491487D02*
Y509311D01*
Y395719D02*
Y459233D01*
X430956Y534151D02*
Y537352D01*
Y491290D02*
Y509156D01*
Y395719D02*
Y459429D01*
X430759Y534302D02*
Y537352D01*
Y491094D02*
Y509006D01*
Y395719D02*
Y459626D01*
X430562Y534447D02*
Y537352D01*
Y490897D02*
Y508860D01*
Y395719D02*
Y459823D01*
X430365Y534588D02*
Y537352D01*
Y490693D02*
Y508719D01*
Y395719D02*
Y460020D01*
X430168Y534724D02*
Y537352D01*
Y490424D02*
Y508583D01*
Y395719D02*
Y460234D01*
X429971Y534856D02*
Y537352D01*
Y489998D02*
Y508451D01*
Y395719D02*
Y460580D01*
X429774Y534984D02*
Y537352D01*
Y395719D02*
Y508323D01*
X429578Y535108D02*
Y537352D01*
Y395719D02*
Y508199D01*
X429381Y535227D02*
Y537352D01*
Y395719D02*
Y508080D01*
X429184Y535343D02*
Y537352D01*
Y395719D02*
Y507964D01*
X428987Y535455D02*
Y537352D01*
Y395719D02*
Y507852D01*
X428790Y535564D02*
Y537352D01*
Y395719D02*
Y507743D01*
X428593Y535669D02*
Y537352D01*
Y395719D02*
Y507639D01*
X428396Y535770D02*
Y537352D01*
Y395719D02*
Y507537D01*
X428200Y535868D02*
Y537352D01*
Y395719D02*
Y507439D01*
X428003Y535962D02*
Y537352D01*
Y395719D02*
Y507345D01*
X427806Y536053D02*
Y537352D01*
Y395719D02*
Y507254D01*
X427609Y536141D02*
Y537352D01*
Y395719D02*
Y507166D01*
X427412Y536226D02*
Y537352D01*
Y395719D02*
Y507081D01*
X427215Y536307D02*
Y537352D01*
Y395719D02*
Y507000D01*
X427019Y536386D02*
Y537352D01*
Y458295D02*
Y506921D01*
Y395719D02*
Y451996D01*
X426822Y536461D02*
Y537352D01*
Y458757D02*
Y506846D01*
Y395719D02*
Y451534D01*
X426625Y536534D02*
Y537352D01*
Y458886D02*
Y506773D01*
Y395719D02*
Y451405D01*
X426428Y536603D02*
Y537352D01*
Y458934D02*
Y506704D01*
Y395719D02*
Y451357D01*
X426231Y536670D02*
Y537352D01*
Y458936D02*
Y506637D01*
Y395719D02*
Y451356D01*
X426034Y536733D02*
Y537352D01*
Y458936D02*
Y506574D01*
Y395719D02*
Y451356D01*
X425837Y536794D02*
Y537352D01*
Y458936D02*
Y506513D01*
Y395719D02*
Y451356D01*
X425641Y536853D02*
Y537352D01*
Y458936D02*
Y506455D01*
Y395719D02*
Y451356D01*
X425444Y536908D02*
Y537352D01*
Y458936D02*
Y506399D01*
Y395719D02*
Y451356D01*
X425247Y536961D02*
Y537352D01*
Y458936D02*
Y506347D01*
Y395719D02*
Y451356D01*
X425050Y537010D02*
Y537352D01*
Y458936D02*
Y506297D01*
Y395719D02*
Y451356D01*
X424853Y537058D02*
Y537352D01*
Y458936D02*
Y506249D01*
Y395719D02*
Y451356D01*
X424656Y537102D02*
Y537352D01*
Y458936D02*
Y506205D01*
Y395719D02*
Y451356D01*
X424459Y537144D02*
Y537352D01*
Y458936D02*
Y506163D01*
Y395719D02*
Y451356D01*
X424263Y537184D02*
Y537352D01*
Y458936D02*
Y506123D01*
Y395719D02*
Y451356D01*
X424066Y537220D02*
Y537352D01*
Y458936D02*
Y506087D01*
Y395719D02*
Y451356D01*
X423869Y537257D02*
Y537346D01*
Y458936D02*
Y506052D01*
Y395719D02*
Y451356D01*
X423672Y458936D02*
Y506021D01*
Y395719D02*
Y451356D01*
X423475Y458936D02*
Y505992D01*
Y395719D02*
Y451356D01*
X423278Y458936D02*
Y505965D01*
Y395719D02*
Y451356D01*
X423081Y458936D02*
Y505941D01*
Y395719D02*
Y451356D01*
X422885Y458936D02*
Y505920D01*
Y395719D02*
Y451356D01*
X422688Y458936D02*
Y505900D01*
Y395719D02*
Y451356D01*
X422491Y458936D02*
Y505884D01*
Y395719D02*
Y451356D01*
X422294Y458936D02*
Y505870D01*
Y395719D02*
Y451356D01*
X422097Y458936D02*
Y505858D01*
Y395719D02*
Y451356D01*
X421900Y458936D02*
Y505849D01*
Y395719D02*
Y451356D01*
X421704Y458936D02*
Y505842D01*
Y395719D02*
Y451356D01*
X421507Y458936D02*
Y505838D01*
Y395719D02*
Y451356D01*
X421310Y458936D02*
Y505836D01*
Y395719D02*
Y451356D01*
X421113Y458936D02*
Y505837D01*
Y395719D02*
Y451356D01*
X420916Y458936D02*
Y505840D01*
Y395719D02*
Y451356D01*
X420719Y458936D02*
Y505845D01*
Y395719D02*
Y451356D01*
X420522Y458936D02*
Y505853D01*
Y395719D02*
Y451356D01*
X420326Y458936D02*
Y505863D01*
Y395719D02*
Y451356D01*
X420129Y458936D02*
Y505876D01*
Y395719D02*
Y451356D01*
X419932Y458919D02*
Y505892D01*
Y395719D02*
Y451373D01*
X419735Y458836D02*
Y505910D01*
Y395719D02*
Y451456D01*
X419538Y458639D02*
Y505930D01*
Y395719D02*
Y451652D01*
X419341Y395719D02*
Y505953D01*
X419144Y395719D02*
Y505978D01*
X418948Y395719D02*
Y506006D01*
X418751Y395719D02*
Y506036D01*
X418554Y537238D02*
Y537352D01*
Y395719D02*
Y506069D01*
X418357Y537203D02*
Y537352D01*
Y395719D02*
Y506104D01*
X418160Y537165D02*
Y537352D01*
Y395719D02*
Y506143D01*
X417963Y537124D02*
Y537352D01*
Y395719D02*
Y506183D01*
X417767Y537081D02*
Y537352D01*
Y395719D02*
Y506226D01*
X417570Y537035D02*
Y537352D01*
Y395719D02*
Y506272D01*
X417373Y536986D02*
Y537352D01*
Y395719D02*
Y506321D01*
X417176Y536935D02*
Y537352D01*
Y395719D02*
Y506372D01*
X416979Y536881D02*
Y537352D01*
Y456351D02*
Y506426D01*
Y395719D02*
Y453940D01*
X416782Y536824D02*
Y537352D01*
Y456828D02*
Y506483D01*
Y395719D02*
Y453464D01*
X416585Y536765D02*
Y537352D01*
Y457177D02*
Y506542D01*
Y395719D02*
Y453114D01*
X416389Y536702D02*
Y537352D01*
Y457458D02*
Y506605D01*
Y395719D02*
Y452833D01*
X416192Y536637D02*
Y537352D01*
Y457694D02*
Y506670D01*
Y395719D02*
Y452598D01*
X415995Y536569D02*
Y537352D01*
Y457895D02*
Y506738D01*
Y395719D02*
Y452396D01*
X415798Y536498D02*
Y537352D01*
Y458069D02*
Y506809D01*
Y395719D02*
Y452222D01*
X415601Y536424D02*
Y537352D01*
Y458221D02*
Y506883D01*
Y395719D02*
Y452070D01*
X415404Y536348D02*
Y537352D01*
Y458354D02*
Y506960D01*
Y395719D02*
Y451938D01*
X415207Y536268D02*
Y537352D01*
Y458469D02*
Y507040D01*
Y395719D02*
Y451822D01*
X415011Y536184D02*
Y537352D01*
Y458570D02*
Y507123D01*
Y395719D02*
Y451721D01*
X414814Y536098D02*
Y537352D01*
Y458657D02*
Y507209D01*
Y395719D02*
Y451635D01*
X414617Y536009D02*
Y537352D01*
Y458730D02*
Y507298D01*
Y395719D02*
Y451561D01*
X414420Y535916D02*
Y537352D01*
Y458792D02*
Y507391D01*
Y395719D02*
Y451499D01*
X414223Y535820D02*
Y537352D01*
Y458842D02*
Y507487D01*
Y395719D02*
Y451449D01*
X414026Y535720D02*
Y537352D01*
Y458881D02*
Y507587D01*
Y395719D02*
Y451410D01*
X413830Y535617D02*
Y537352D01*
Y458910D02*
Y507690D01*
Y395719D02*
Y451382D01*
X413633Y535511D02*
Y537352D01*
Y458928D02*
Y507796D01*
Y395719D02*
Y451364D01*
X413436Y535401D02*
Y537352D01*
Y458935D02*
Y507906D01*
Y395719D02*
Y451356D01*
X413239Y535287D02*
Y537352D01*
Y458933D02*
Y508020D01*
Y395719D02*
Y451358D01*
X413042Y535169D02*
Y537352D01*
Y458920D02*
Y508138D01*
Y395719D02*
Y451371D01*
X412845Y535047D02*
Y537352D01*
Y458897D02*
Y508260D01*
Y395719D02*
Y451394D01*
X412648Y534922D02*
Y537352D01*
Y458863D02*
Y508385D01*
Y395719D02*
Y451428D01*
X412452Y534792D02*
Y537352D01*
Y458819D02*
Y508515D01*
Y395719D02*
Y451472D01*
X412255Y534658D02*
Y537352D01*
Y458763D02*
Y508649D01*
Y395719D02*
Y451528D01*
X412058Y534519D02*
Y537352D01*
Y458696D02*
Y508788D01*
Y395719D02*
Y451596D01*
X411861Y534376D02*
Y537352D01*
Y458616D02*
Y508931D01*
Y395719D02*
Y451676D01*
X411664Y534228D02*
Y537352D01*
Y458522D02*
Y509079D01*
Y395719D02*
Y451769D01*
X411467Y534076D02*
Y537352D01*
Y458414D02*
Y509232D01*
Y395719D02*
Y451877D01*
X411270Y533918D02*
Y537352D01*
Y458291D02*
Y509389D01*
Y395719D02*
Y452001D01*
X411074Y533755D02*
Y537352D01*
Y458149D02*
Y509552D01*
Y395719D02*
Y452143D01*
X410877Y533586D02*
Y537352D01*
Y457986D02*
Y509721D01*
Y395719D02*
Y452305D01*
X410680Y533412D02*
Y537352D01*
Y457800D02*
Y509895D01*
Y395719D02*
Y452492D01*
X410483Y533232D02*
Y537352D01*
Y457583D02*
Y510075D01*
Y395719D02*
Y452709D01*
X410286Y533046D02*
Y537352D01*
Y457327D02*
Y510261D01*
Y395719D02*
Y452964D01*
X410089Y532853D02*
Y537352D01*
Y457016D02*
Y510454D01*
Y395719D02*
Y453275D01*
X409893Y532653D02*
Y537352D01*
Y456616D02*
Y510654D01*
Y395719D02*
Y453675D01*
X409696Y532446D02*
Y537352D01*
Y456011D02*
Y510861D01*
Y395719D02*
Y454281D01*
X409499Y532231D02*
Y537352D01*
Y395719D02*
Y511076D01*
X409302Y532008D02*
Y537352D01*
Y395719D02*
Y511299D01*
X409105Y531776D02*
Y537352D01*
Y395719D02*
Y511531D01*
X408908Y531535D02*
Y537352D01*
Y395719D02*
Y511772D01*
X408711Y531284D02*
Y537352D01*
Y395719D02*
Y512024D01*
X408515Y531021D02*
Y537352D01*
Y395719D02*
Y512286D01*
X408318Y530748D02*
Y537352D01*
Y395719D02*
Y512560D01*
X408121Y530461D02*
Y537352D01*
Y395719D02*
Y512846D01*
X407924Y530160D02*
Y537352D01*
Y395719D02*
Y513147D01*
X407727Y529843D02*
Y537352D01*
Y395719D02*
Y513464D01*
X407530Y529508D02*
Y537352D01*
Y395719D02*
Y513799D01*
X407333Y529154D02*
Y537352D01*
Y395719D02*
Y514153D01*
X407137Y528776D02*
Y537352D01*
Y456351D02*
Y514531D01*
Y395719D02*
Y453940D01*
X406940Y528372D02*
Y537352D01*
Y456828D02*
Y514935D01*
Y395719D02*
Y453464D01*
X406743Y527935D02*
Y537352D01*
Y457177D02*
Y515372D01*
Y395719D02*
Y453114D01*
X406546Y527459D02*
Y537352D01*
Y457458D02*
Y515848D01*
Y395719D02*
Y452833D01*
X406349Y526933D02*
Y537352D01*
Y457694D02*
Y516374D01*
Y395719D02*
Y452598D01*
X406152Y526340D02*
Y537352D01*
Y457895D02*
Y516967D01*
Y395719D02*
Y452396D01*
X405956Y525651D02*
Y537352D01*
Y458069D02*
Y517656D01*
Y395719D02*
Y452222D01*
X405759Y524802D02*
Y537352D01*
Y458221D02*
Y518505D01*
Y395719D02*
Y452070D01*
X405562Y523596D02*
Y537352D01*
Y458354D02*
Y519711D01*
Y395719D02*
Y451938D01*
X405365Y458469D02*
Y537352D01*
Y395719D02*
Y451822D01*
X405168Y458570D02*
Y537352D01*
Y395719D02*
Y451721D01*
X404971Y458657D02*
Y537352D01*
Y395719D02*
Y451635D01*
X404774Y458730D02*
Y537352D01*
Y395719D02*
Y451561D01*
X404578Y458792D02*
Y537352D01*
Y395719D02*
Y451499D01*
X404381Y458842D02*
Y537352D01*
Y395719D02*
Y451449D01*
X404184Y458881D02*
Y537352D01*
Y395719D02*
Y451410D01*
X403987Y458910D02*
Y537352D01*
Y395719D02*
Y451382D01*
X403790Y458928D02*
Y537352D01*
Y395719D02*
Y451364D01*
X403593Y458935D02*
Y537352D01*
Y395719D02*
Y451356D01*
X403396Y458933D02*
Y537352D01*
Y395719D02*
Y451358D01*
X403200Y458920D02*
Y537352D01*
Y395719D02*
Y451371D01*
X403003Y458897D02*
Y537352D01*
Y395719D02*
Y451394D01*
X402806Y458863D02*
Y537352D01*
Y395719D02*
Y451428D01*
X402609Y458819D02*
Y537352D01*
Y395719D02*
Y451472D01*
X402412Y458763D02*
Y537352D01*
Y395719D02*
Y451528D01*
X402215Y458696D02*
Y537352D01*
Y395719D02*
Y451596D01*
X402019Y458616D02*
Y537352D01*
Y395719D02*
Y451676D01*
X401822Y458522D02*
Y537352D01*
Y395719D02*
Y451769D01*
X401625Y458414D02*
Y537352D01*
Y395719D02*
Y451877D01*
X401428Y458291D02*
Y537352D01*
Y395719D02*
Y452001D01*
X401231Y458149D02*
Y537352D01*
Y395719D02*
Y452143D01*
X401034Y457986D02*
Y537352D01*
Y395719D02*
Y452305D01*
X400837Y457800D02*
Y537352D01*
Y395719D02*
Y452492D01*
X400641Y457583D02*
Y537352D01*
Y395719D02*
Y452709D01*
X400444Y457327D02*
Y537352D01*
Y395719D02*
Y452964D01*
X400247Y457016D02*
Y537352D01*
Y395719D02*
Y453275D01*
X400050Y456616D02*
Y537352D01*
Y395719D02*
Y453675D01*
X399853Y456011D02*
Y537352D01*
Y395719D02*
Y454281D01*
X399656Y395719D02*
Y537352D01*
X399459Y395719D02*
Y537352D01*
X399263Y395719D02*
Y537352D01*
X399066Y395719D02*
Y537352D01*
X398869Y395719D02*
Y537352D01*
X398672Y395719D02*
Y537352D01*
X398475Y395719D02*
Y537352D01*
X398278Y395719D02*
Y537352D01*
X398081Y395719D02*
Y537352D01*
X397885Y395719D02*
Y537352D01*
X397688Y395719D02*
Y537352D01*
X397491Y395719D02*
Y537352D01*
X397294Y395719D02*
Y537352D01*
X397097Y395719D02*
Y537352D01*
X396900Y395719D02*
Y537352D01*
X396704Y395719D02*
Y537352D01*
X396507Y395719D02*
Y537352D01*
X396310Y395719D02*
Y537352D01*
X396113Y395719D02*
Y537352D01*
X395916Y395719D02*
Y537352D01*
X395719Y395753D02*
Y537318D01*
X442570Y486419D02*
Y486564D01*
Y481419D02*
Y481605D01*
X442373Y486290D02*
Y486564D01*
Y481290D02*
Y481735D01*
X442176Y486134D02*
Y486564D01*
Y481134D02*
Y481890D01*
X441979Y485946D02*
Y486564D01*
Y480946D02*
Y482078D01*
Y476938D02*
Y477078D01*
X441782Y485716D02*
Y486564D01*
Y480716D02*
Y482309D01*
Y476939D02*
Y477309D01*
X441585Y485421D02*
Y486564D01*
Y480421D02*
Y482603D01*
Y476939D02*
Y477603D01*
X441389Y485008D02*
Y486564D01*
Y480008D02*
Y483017D01*
Y476939D02*
Y478017D01*
X441192Y476939D02*
Y486564D01*
X440995Y476939D02*
Y486564D01*
X440798Y476939D02*
Y486564D01*
X440601Y476939D02*
Y486564D01*
X440404Y476939D02*
Y486564D01*
X440207Y476939D02*
Y486564D01*
X440011Y476939D02*
Y486564D01*
X439814Y476939D02*
Y486564D01*
X439617Y476939D02*
Y486564D01*
X439420Y476939D02*
Y486564D01*
X439223Y476939D02*
Y486564D01*
X439026Y476939D02*
Y486564D01*
X438830Y476939D02*
Y486447D01*
X438633Y480118D02*
Y486251D01*
X438436Y480842D02*
Y486054D01*
X438239Y481103D02*
Y485857D01*
X438042Y481275D02*
Y485660D01*
X446900Y478919D02*
Y479105D01*
G54D758*
X446177Y430685D03*
Y502339D03*
G74*
X0Y0D02*
M02*
