*
*
G04 PADS VX.2.10 Build Number: 19222662 generated Gerber (RS-274-X) file*
G04 PC Version=2.1*
*
%IN "Reservoir_Module_Rev0.1"*%
*
%MOIN*%
*
%FSLAX35Y35*%
*
*
*
*
G04 PC Standard Apertures*
*
*
G04 Thermal Relief Aperture macro.*
%AMTER*
1,1,$1,0,0*
1,0,$1-$2,0,0*
21,0,$3,$4,0,0,45*
21,0,$3,$4,0,0,135*
%
*
*
G04 Annular Aperture macro.*
%AMANN*
1,1,$1,0,0*
1,0,$2,0,0*
%
*
*
G04 Odd Aperture macro.*
%AMODD*
1,1,$1,0,0*
1,0,$1-0.005,0,0*
%
*
*
G04 PC Custom Aperture Macros*
*
*
*
*
*
*
G04 PC Aperture Table*
*
%ADD060C,0.00492*%
%ADD070C,0.005*%
%ADD072C,0.00394*%
%ADD134C,0.001*%
*
*
*
*
G04 PC Circuitry*
G04 Layer Name Reservoir_Module_Rev0.1 - circuitry*
%LPD*%
*
*
G04 PC Custom Flashes*
G04 Layer Name Reservoir_Module_Rev0.1 - flashes*
%LPD*%
*
*
G04 PC Circuitry*
G04 Layer Name Reservoir_Module_Rev0.1 - circuitry*
%LPD*%
*
G54D60*
G01X423228Y458689D02*
X424409Y460815D01*
X422047*
X423228Y458689*
Y459398D02*
X423832Y460484D01*
X422625*
X423228Y459398*
Y459870D02*
X423753Y460815D01*
X422703*
X423228Y459870*
G54D70*
X426772Y453177D02*
X433071D01*
Y425618*
X393701*
Y453177*
X399606*
X489513Y481841D02*
X489728Y481693D01*
X489943Y481398*
X490050Y481102*
X490157Y480659*
Y479921*
X490050Y479478*
X489943Y479183*
X489728Y478888*
X489513Y478740*
X489084*
X488869Y478888*
X488654Y479183*
X488547Y479478*
X488440Y479921*
Y480659*
X488547Y481102*
X488654Y481398*
X488869Y481693*
X489084Y481841*
X489513*
X487473D02*
Y479626D01*
X487366Y479183*
X487151Y478888*
X486829Y478740*
X486614*
X486292Y478888*
X486077Y479183*
X485970Y479626*
Y481841*
X484252D02*
Y478740D01*
X485004Y481841D02*
X483500D01*
X481675D02*
X482534Y478740D01*
X481675Y481841D02*
X480816Y478740D01*
X482212Y479774D02*
X481138D01*
X483536Y517224D02*
X483751Y517520D01*
X484073Y517667*
X484503*
X484825Y517520*
X485039Y517224*
Y516929*
X484932Y516634*
X484825Y516486*
X484610Y516339*
X483966Y516043*
X483751Y515896*
X483644Y515748*
X483536Y515453*
Y515010*
X483751Y514715*
X484073Y514567*
X484503*
X484825Y514715*
X485039Y515010*
X481603Y517224D02*
Y514567D01*
X482570Y515896D02*
X480637D01*
X485791Y526378D02*
X485898Y526673D01*
X486113Y526969*
X486328Y527116*
X486757*
X486972Y526969*
X487187Y526673*
X487294Y526378*
X487402Y525935*
Y525197*
X487294Y524754*
X487187Y524459*
X486972Y524163*
X486757Y524016*
X486328*
X486113Y524163*
X485898Y524459*
X485791Y524754*
Y525197*
X486328D02*
X485791D01*
X484825Y527116D02*
Y524016D01*
Y527116D02*
X483321Y524016D01*
Y527116D02*
Y524016D01*
X482355Y527116D02*
Y524016D01*
Y527116D02*
X481603D01*
X481281Y526969*
X481067Y526673*
X480959Y526378*
X480852Y525935*
Y525197*
X480959Y524754*
X481067Y524459*
X481281Y524163*
X481603Y524016*
X482355*
X489513Y492077D02*
X489728Y491929D01*
X489943Y491634*
X490050Y491339*
X490157Y490896*
Y490157*
X490050Y489715*
X489943Y489419*
X489728Y489124*
X489513Y488976*
X489084*
X488869Y489124*
X488654Y489419*
X488547Y489715*
X488440Y490157*
Y490896*
X488547Y491339*
X488654Y491634*
X488869Y491929*
X489084Y492077*
X489513*
X487473D02*
Y489862D01*
X487366Y489419*
X487151Y489124*
X486829Y488976*
X486614*
X486292Y489124*
X486077Y489419*
X485970Y489862*
Y492077*
X484252D02*
Y488976D01*
X485004Y492077D02*
X483500D01*
X482534D02*
Y488976D01*
Y492077D02*
X481568D01*
X481246Y491929*
X481138Y491781*
X481031Y491486*
Y491191*
X481138Y490896*
X481246Y490748*
X481568Y490600*
X482534D02*
X481568D01*
X481246Y490453*
X481138Y490305*
X481031Y490010*
Y489567*
X481138Y489272*
X481246Y489124*
X481568Y488976*
X482534*
X493701Y446407D02*
Y443307D01*
X492412*
X491446Y446407D02*
Y443307D01*
Y446407D02*
X490694D01*
X490372Y446260*
X490157Y445965*
X490050Y445669*
X489943Y445226*
Y444488*
X490050Y444045*
X490157Y443750*
X490372Y443455*
X490694Y443307*
X491446*
X488976Y442717D02*
X486722D01*
X486077Y446407D02*
X485218Y443307D01*
X484359Y446407D02*
X485218Y443307D01*
X483393Y446407D02*
Y443307D01*
X482427Y446407D02*
Y443307D01*
Y446407D02*
X480923Y443307D01*
Y446407D02*
Y443307D01*
X485397Y455512D02*
X485505Y455807D01*
X485719Y456102*
X485934Y456250*
X486364*
X486578Y456102*
X486793Y455807*
X486901Y455512*
X486901D02*
X487008Y455069D01*
Y454331*
X486901Y453888*
X486901D02*
X486793Y453593D01*
X486578Y453297*
X486364Y453150*
X485934*
X485719Y453297*
X485505Y453593*
X485397Y453888*
Y454331*
X485934D02*
X485397D01*
X484431Y456250D02*
Y453150D01*
Y456250D02*
X482928Y453150D01*
Y456250D02*
Y453150D01*
X481961Y456250D02*
Y453150D01*
Y456250D02*
X481210D01*
X480888Y456102*
X480673Y455807*
X480565Y455512*
X480565D02*
X480458Y455069D01*
Y454331*
X480565Y453888*
X480565D02*
X480673Y453593D01*
X480888Y453297*
X481210Y453150*
X481961*
X407802Y462549D02*
X408661Y459449D01*
X407802Y462549D02*
X406943Y459449D01*
X408339Y460482D02*
X407266D01*
X405977Y462549D02*
Y459449D01*
Y462549D02*
X404474Y459449D01*
Y462549D02*
Y459449D01*
X401897Y461811D02*
X402004Y462106D01*
X402219Y462402*
X402434Y462549*
X402863*
X403078Y462402*
X403293Y462106*
X403400Y461811*
X403508Y461368*
Y460630*
X403400Y460187*
X403293Y459892*
X403078Y459596*
X402863Y459449*
X402434*
X402219Y459596*
X402004Y459892*
X401897Y460187*
Y460630*
X402434D02*
X401897D01*
X400931Y462549D02*
Y459449D01*
Y462549D02*
X400179D01*
X399857Y462402*
X399642Y462106*
X399535Y461811*
X399427Y461368*
Y460630*
X399535Y460187*
X399642Y459892*
X399857Y459596*
X400179Y459449*
X400931*
X416213Y462106D02*
X416428Y462402D01*
X416750Y462549*
X417180*
X417502Y462402*
X417717Y462106*
Y461811*
X417609Y461516*
X417502Y461368*
X417287Y461220*
X416643Y460925*
X416428Y460778*
X416321Y460630*
X416213Y460335*
Y459892*
X416428Y459596*
X416750Y459449*
X417180*
X417502Y459596*
X417717Y459892*
X415247Y462549D02*
Y459449D01*
X412670Y461811D02*
X412777Y462106D01*
X412992Y462402*
X413207Y462549*
X413636*
X413851Y462402*
X414066Y462106*
X414173Y461811*
X414281Y461368*
Y460630*
X414173Y460187*
X414066Y459892*
X413851Y459596*
X413636Y459449*
X413207*
X412992Y459596*
X412777Y459892*
X412670Y460187*
Y460630*
X413207D02*
X412670D01*
X430709Y465305D02*
Y462205D01*
Y465305D02*
X429742D01*
X429420Y465157*
X429313Y465010*
X429205Y464715*
Y464272*
X429313Y463976*
X429420Y463829*
X429742Y463681*
X430709*
X426843Y465305D02*
X427917D01*
X428024Y463976*
X427917Y464124*
X427595Y464272*
X427273*
X426951Y464124*
X426736Y463829*
X426628Y463386*
X426736Y463091*
X426843Y462648*
X427058Y462352*
X427380Y462205*
X427702*
X428024Y462352*
X428132Y462500*
X428239Y462795*
X425662Y465305D02*
X424803Y462205D01*
X423944Y465305D02*
X424803Y462205D01*
X422119Y465305D02*
X422978Y462205D01*
X422119Y465305D02*
X421260Y462205D01*
X422656Y463238D02*
X421582D01*
G54D72*
X420830Y424339D02*
X420938Y424609D01*
X421152Y424880*
X421367Y425015*
X421797*
X422011Y424880*
X422226Y424609*
X422334Y424339*
X422441Y423933*
Y423256*
X422334Y422850*
X422226Y422579*
X422011Y422309*
X421797Y422173*
X421367*
X421152Y422309*
X420938Y422579*
X420830Y422850*
X419864Y425015D02*
Y422173D01*
Y425015D02*
X418361Y422173D01*
Y425015D02*
Y422173D01*
X417394Y424474D02*
X417180Y424609D01*
X416858Y425015*
Y422173*
X427953Y456044D02*
X427774Y456155D01*
X427505Y456487*
Y454161*
X409359Y455933D02*
Y456044D01*
X409270Y456265*
X409180Y456376*
X409001Y456487*
X408644*
X408465Y456376*
X408375Y456265*
X408286Y456044*
Y455822*
X408375Y455601*
X408554Y455269*
X409449Y454161*
X408196*
X399034Y456487D02*
X398049D01*
X398586Y455601*
X398318*
X398139Y455490*
X398049Y455379*
X397960Y455047*
Y454826*
X398049Y454494*
X398228Y454272*
X398497Y454161*
X398765*
X399034Y454272*
X399123Y454383*
X399213Y454604*
G54D134*
X393698Y395669D02*
G75*
G03X395667Y393701I1969J0D01*
G01X498029*
G03X499997Y395669I-0J1968*
G01Y537402*
G03X498029Y539370I-1968J-0*
G01X395667*
G03X393698Y537402I-0J-1968*
G01Y395669*
G74*
X0Y0D02*
M02*
