*
*
G04 PADS VX.2.10 Build Number: 19222662 generated Gerber (RS-274-X) file*
G04 PC Version=2.1*
*
%IN "Reservoir_Module_Rev0.1"*%
*
%MOIN*%
*
%FSLAX35Y35*%
*
*
*
*
G04 PC Standard Apertures*
*
*
G04 Thermal Relief Aperture macro.*
%AMTER*
1,1,$1,0,0*
1,0,$1-$2,0,0*
21,0,$3,$4,0,0,45*
21,0,$3,$4,0,0,135*
%
*
*
G04 Annular Aperture macro.*
%AMANN*
1,1,$1,0,0*
1,0,$2,0,0*
%
*
*
G04 Odd Aperture macro.*
%AMODD*
1,1,$1,0,0*
1,0,$1-0.005,0,0*
%
*
*
G04 PC Custom Aperture Macros*
*
*
*
*
*
*
G04 PC Aperture Table*
*
%ADD021C,0.01181*%
%ADD084C,0.01*%
%ADD134C,0.001*%
%ADD264C,0.00039*%
*
*
*
*
G04 PC Circuitry*
G04 Layer Name Reservoir_Module_Rev0.1 - circuitry*
%LPD*%
*
*
G04 PC Custom Flashes*
G04 Layer Name Reservoir_Module_Rev0.1 - flashes*
%LPD*%
*
*
G04 PC Circuitry*
G04 Layer Name Reservoir_Module_Rev0.1 - circuitry*
%LPD*%
*
G54D21*
G01X590551Y582677D02*
X903543D01*
X590551Y559055D02*
X903543D01*
X590551Y535433D02*
X903543D01*
X590551Y511811D02*
X903543D01*
X590551Y488189D02*
X903543D01*
X590551Y464567D02*
X903543D01*
X590551Y440945D02*
X903543D01*
X590551Y417323D02*
X903543D01*
X590551Y393701D02*
X903543D01*
X590551Y582677D02*
Y393701D01*
X673228Y582677D02*
Y393701D01*
X708661Y582677D02*
Y393701D01*
X744094Y582677D02*
Y393701D01*
X797244Y582677D02*
Y393701D01*
X856299Y582677D02*
Y393701D01*
X903543Y582677D02*
Y393701D01*
G54D84*
X426280Y568179D02*
Y568492D01*
X426507Y569117*
X426734Y569429*
X427189Y569742*
X428098*
X428552Y569429*
X428780Y569117*
X429007Y568492*
Y567867*
X428780Y567242*
X428325Y566304*
X426052Y563179*
X429234*
X434461Y569742D02*
X432189Y563179D01*
X431280Y569742D02*
X434461D01*
X436734Y563804D02*
X436507Y563492D01*
X436734Y563179*
X436961Y563492*
X436734Y563804*
X440370Y569742D02*
X439689Y569429D01*
X439234Y568492*
X439007Y566929*
Y565992*
X439234Y564429*
X439689Y563492*
X440370Y563179*
X440825*
X441507Y563492*
X441961Y564429*
X442189Y565992*
Y566929*
X441961Y568492*
X441507Y569429*
X440825Y569742*
X440370*
X445598D02*
X444916Y569429D01*
X444461Y568492*
X444234Y566929*
Y565992*
X444461Y564429*
X444916Y563492*
X445598Y563179*
X446052*
X446734Y563492*
X447189Y564429*
X447416Y565992*
Y566929*
X447189Y568492*
X446734Y569429*
X446052Y569742*
X445598*
X450825D02*
X450143Y569429D01*
X449689Y568492*
X449461Y566929*
Y565992*
X449689Y564429*
X450143Y563492*
X450825Y563179*
X451280*
X451961Y563492*
X452416Y564429*
X452643Y565992*
Y566929*
X452416Y568492*
X451961Y569429*
X451280Y569742*
X450825*
X454689Y567554D02*
Y563179D01*
Y566304D02*
X455370Y567242D01*
X455825Y567554*
X456507*
X456961Y567242*
X457189Y566304*
Y563179*
Y566304D02*
X457870Y567242D01*
X458325Y567554*
X459007*
X459461Y567242*
X459689Y566304*
Y563179*
X461734Y567554D02*
Y563179D01*
Y566304D02*
X462416Y567242D01*
X462870Y567554*
X463552*
X464007Y567242*
X464234Y566304*
Y563179*
Y566304D02*
X464916Y567242D01*
X465370Y567554*
X466052*
X466507Y567242*
X466734Y566304*
Y563179*
X333987Y469348D02*
X336487D01*
X335124Y466848*
X335805*
X336260Y466535*
X336487Y466223*
X336714Y465285*
Y464660*
X336487Y463723*
X336033Y463098*
X335351Y462785*
X334669*
X333987Y463098*
X333760Y463410*
X333533Y464035*
X341942Y469348D02*
X339669Y462785D01*
X338760Y469348D02*
X341942D01*
X344214Y463410D02*
X343987Y463098D01*
X344214Y462785*
X344442Y463098*
X344214Y463410*
X347851Y469348D02*
X347169Y469035D01*
X346714Y468098*
X346487Y466535*
Y465598*
X346714Y464035*
X347169Y463098*
X347851Y462785*
X348305*
X348987Y463098*
X349442Y464035*
X349669Y465598*
Y466535*
X349442Y468098*
X348987Y469035*
X348305Y469348*
X347851*
X353078D02*
X352396Y469035D01*
X351942Y468098*
X351714Y466535*
Y465598*
X351942Y464035*
X352396Y463098*
X353078Y462785*
X353533*
X354214Y463098*
X354669Y464035*
X354896Y465598*
Y466535*
X354669Y468098*
X354214Y469035*
X353533Y469348*
X353078*
X358305D02*
X357624Y469035D01*
X357169Y468098*
X356942Y466535*
Y465598*
X357169Y464035*
X357624Y463098*
X358305Y462785*
X358760*
X359442Y463098*
X359896Y464035*
X360124Y465598*
Y466535*
X359896Y468098*
X359442Y469035*
X358760Y469348*
X358305*
X362169Y467160D02*
Y462785D01*
Y465910D02*
X362851Y466848D01*
X363305Y467160*
X363987*
X364442Y466848*
X364669Y465910*
Y462785*
Y465910D02*
X365351Y466848D01*
X365805Y467160*
X366487*
X366942Y466848*
X367169Y465910*
Y462785*
X369214Y467160D02*
Y462785D01*
Y465910D02*
X369896Y466848D01*
X370351Y467160*
X371033*
X371487Y466848*
X371714Y465910*
Y462785*
Y465910D02*
X372396Y466848D01*
X372851Y467160*
X373533*
X373987Y466848*
X374214Y465910*
Y462785*
X499997Y566929D02*
X470643D01*
X499997D02*
X489997Y564429D01*
Y569429*
X499997Y566929*
X393698D02*
X423052D01*
X393698D02*
X403698Y569429D01*
Y564429*
X393698Y566929*
X499997Y544370D02*
Y571929D01*
X393698Y544370D02*
Y571929D01*
X354328Y393701D02*
Y459785D01*
Y393701D02*
X351828Y403701D01*
X356828*
X354328Y393701*
Y539370D02*
Y473285D01*
Y539370D02*
X356828Y529370D01*
X351828*
X354328Y539370*
X388698Y393701D02*
X349328D01*
X388698Y539370D02*
X349328D01*
G54D134*
X393698Y395669D02*
G75*
G03X395667Y393701I1969J0D01*
G01X498029*
G03X499997Y395669I-0J1968*
G01Y537402*
G03X498029Y539370I-1968J-0*
G01X395667*
G03X393698Y537402I-0J-1968*
G01Y395669*
X451677Y430685D02*
G03X451677I-5500J0D01*
G01Y502385D02*
G03X451677I-5500J0D01*
G01X480706Y411417D02*
G03X480706I-6299J0D01*
G01X427556Y521654D02*
G03X427556I-6299J0D01*
G01X427828Y510737D02*
Y422796D01*
X462679Y520914D02*
Y412017D01*
X427828Y422796*
Y510737D02*
X462679Y520914D01*
X499997Y539370D02*
X500000D01*
X393698D02*
X393701D01*
X393698Y393701D02*
X393701D01*
X393698Y539370D02*
X393701D01*
G54D264*
X443028Y449012D02*
X444996D01*
X444012Y448028D02*
Y449996D01*
X444951Y450796D02*
Y449812D01*
X444907Y449627*
X444862Y449566*
X444773Y449504*
X444683*
X444594Y449566*
X444549Y449627*
X444504Y449812*
Y449935*
X443028Y454012D02*
X444996D01*
X444012Y453028D02*
Y454996D01*
X444951Y455796D02*
Y454812D01*
X444907Y454627*
X444862Y454566*
X444773Y454504*
X444683*
X444594Y454566*
X444549Y454627*
X444504Y454812*
Y454935*
X443028Y459012D02*
X444996D01*
X444012Y458028D02*
Y459996D01*
X444951Y460796D02*
Y459812D01*
X444907Y459627*
X444862Y459566*
X444773Y459504*
X444683*
X444594Y459566*
X444549Y459627*
X444504Y459812*
Y459935*
X443028Y464012D02*
X444996D01*
X444012Y463028D02*
Y464996D01*
X444951Y465796D02*
Y464812D01*
X444907Y464627*
X444862Y464566*
X444773Y464504*
X444683*
X444594Y464566*
X444549Y464627*
X444504Y464812*
Y464935*
X443028Y469012D02*
X444996D01*
X444012Y468028D02*
Y469996D01*
X444951Y470796D02*
Y469812D01*
X444907Y469627*
X444862Y469566*
X444773Y469504*
X444683*
X444594Y469566*
X444549Y469627*
X444504Y469812*
Y469935*
X443028Y474012D02*
X444996D01*
X444012Y473028D02*
Y474996D01*
X444951Y475796D02*
Y474812D01*
X444907Y474627*
X444862Y474566*
X444773Y474504*
X444683*
X444594Y474566*
X444549Y474627*
X444504Y474812*
Y474935*
X443028Y479012D02*
X444996D01*
X444012Y478028D02*
Y479996D01*
X444951Y480796D02*
Y479812D01*
X444907Y479627*
X444862Y479566*
X444773Y479504*
X444683*
X444594Y479566*
X444549Y479627*
X444504Y479812*
Y479935*
X443028Y484012D02*
X444996D01*
X444012Y483028D02*
Y484996D01*
X444951Y485796D02*
Y484812D01*
X444907Y484627*
X444862Y484566*
X444773Y484504*
X444683*
X444594Y484566*
X444549Y484627*
X444504Y484812*
Y484935*
X447358Y451512D02*
X449327D01*
X448343Y450528D02*
Y452496D01*
X449282Y453296D02*
Y452312D01*
X449237Y452127*
X449193Y452066*
X449103Y452004*
X449014*
X448924Y452066*
X448880Y452127*
X448835Y452312*
Y452435*
X447358Y456512D02*
X449327D01*
X448343Y455528D02*
Y457496D01*
X449282Y458296D02*
Y457312D01*
X449237Y457127*
X449193Y457066*
X449103Y457004*
X449014*
X448924Y457066*
X448880Y457127*
X448835Y457312*
Y457435*
X447358Y461512D02*
X449327D01*
X448343Y460528D02*
Y462496D01*
X449282Y463296D02*
Y462312D01*
X449237Y462127*
X449193Y462066*
X449103Y462004*
X449014*
X448924Y462066*
X448880Y462127*
X448835Y462312*
Y462435*
X447358Y466512D02*
X449327D01*
X448343Y465528D02*
Y467496D01*
X449282Y468296D02*
Y467312D01*
X449237Y467127*
X449193Y467066*
X449103Y467004*
X449014*
X448924Y467066*
X448880Y467127*
X448835Y467312*
Y467435*
X447358Y471512D02*
X449327D01*
X448343Y470528D02*
Y472496D01*
X449282Y473296D02*
Y472312D01*
X449237Y472127*
X449193Y472066*
X449103Y472004*
X449014*
X448924Y472066*
X448880Y472127*
X448835Y472312*
Y472435*
X447358Y476512D02*
X449327D01*
X448343Y475528D02*
Y477496D01*
X449282Y478296D02*
Y477312D01*
X449237Y477127*
X449193Y477066*
X449103Y477004*
X449014*
X448924Y477066*
X448880Y477127*
X448835Y477312*
Y477435*
X447358Y481512D02*
X449327D01*
X448343Y480528D02*
Y482496D01*
X449282Y483296D02*
Y482312D01*
X449237Y482127*
X449193Y482066*
X449103Y482004*
X449014*
X448924Y482066*
X448880Y482127*
X448835Y482312*
Y482435*
X445193Y430685D02*
X447162D01*
X446177Y429701D02*
Y431670D01*
X446669Y432469D02*
Y431178D01*
X445193Y502339D02*
X447162D01*
X446177Y501355D02*
Y503323D01*
X446669Y504123D02*
Y502831D01*
X473425Y479331D02*
X475394Y481299D01*
Y479331*
X473425Y481299*
Y479331*
Y489173D02*
X475394Y491142D01*
Y489173*
X473425Y491142*
Y489173*
Y443898D02*
X475394Y445866D01*
Y443898*
X473425Y445866*
Y443898*
Y453740D02*
X475394Y455709D01*
Y453740*
X473425Y455709*
Y453740*
Y514764D02*
X475394Y516732D01*
Y514764*
X473425Y516732*
Y514764*
Y524606D02*
X475394Y526575D01*
Y524606*
X473425Y526575*
Y524606*
X447441D02*
X449409Y526575D01*
X447441D02*
X449409Y524606D01*
X422244Y454161D02*
X424213D01*
X422244Y456130*
X424213*
X422244Y454161*
X412402D02*
X414370D01*
X412402Y456130*
X414370*
X412402Y454161*
X402559D02*
X404528D01*
X402559Y456130*
X404528*
X402559Y454161*
X473423Y411417D02*
X475391D01*
X474407Y410433D02*
Y412402D01*
X474899Y413201D02*
Y411909D01*
Y413201D02*
X475302D01*
X475436Y413140*
X475481Y413078*
X475525Y412955*
Y412832*
X475481Y412709*
X475436Y412648*
X475302Y412586*
X474899D02*
X475302D01*
X475436Y412525*
X475481Y412463*
X475525Y412340*
Y412156*
X475481Y412032*
X475436Y411971*
X475302Y411909*
X474899*
X420273Y521654D02*
X422241D01*
X421257Y520669D02*
Y522638D01*
X421749Y523438D02*
Y522146D01*
Y523438D02*
X422152D01*
X422152D02*
X422286Y523376D01*
X422331Y523314*
X422376Y523191*
Y523068*
X422331Y522945*
X422286Y522884*
X422152Y522822*
X421749D02*
X422152D01*
X422286Y522761*
X422331Y522699*
X422376Y522576*
Y522392*
X422331Y522269*
X422286Y522207*
X422152Y522146*
X421749*
X396070Y397057D02*
X398038D01*
X397054Y396072D02*
Y398041D01*
X397546Y398841D02*
Y397549D01*
Y398841D02*
X397859D01*
X397994Y398779*
X398083Y398656*
X398128Y398533*
X398173Y398349*
Y398041*
X398128Y397856*
X398083Y397733*
X397994Y397610*
X397859Y397549*
X397546*
X406070Y397057D02*
X408038D01*
X407054Y396072D02*
Y398041D01*
X407546Y398841D02*
Y397549D01*
Y398841D02*
X407859D01*
X407994Y398779*
X408083Y398656*
X408128Y398533*
X408173Y398349*
Y398041*
X408128Y397856*
X408083Y397733*
X407994Y397610*
X407859Y397549*
X407546*
X416070Y397057D02*
X418038D01*
X417054Y396072D02*
Y398041D01*
X417546Y398841D02*
Y397549D01*
Y398841D02*
X417859D01*
X417994Y398779*
X418083Y398656*
X418128Y398533*
X418173Y398349*
Y398041*
X418128Y397856*
X418083Y397733*
X417994Y397610*
X417859Y397549*
X417546*
X426070Y397057D02*
X428038D01*
X427054Y396072D02*
Y398041D01*
X427546Y398841D02*
Y397549D01*
Y398841D02*
X427859D01*
X427994Y398779*
X428083Y398656*
X428128Y398533*
X428173Y398349*
Y398041*
X428128Y397856*
X428083Y397733*
X427994Y397610*
X427859Y397549*
X427546*
X436070Y397057D02*
X438038D01*
X437054Y396072D02*
Y398041D01*
X437546Y398841D02*
Y397549D01*
Y398841D02*
X437859D01*
X437994Y398779*
X438083Y398656*
X438128Y398533*
X438173Y398349*
Y398041*
X438128Y397856*
X438083Y397733*
X437994Y397610*
X437859Y397549*
X437546*
X446070Y397057D02*
X448038D01*
X447054Y396072D02*
Y398041D01*
X447546Y398841D02*
Y397549D01*
Y398841D02*
X447859D01*
X447994Y398779*
X448083Y398656*
X448128Y398533*
X448173Y398349*
Y398041*
X448128Y397856*
X448083Y397733*
X447994Y397610*
X447859Y397549*
X447546*
X456070Y397057D02*
X458038D01*
X457054Y396072D02*
Y398041D01*
X457546Y398841D02*
Y397549D01*
Y398841D02*
X457859D01*
X457994Y398779*
X458083Y398656*
X458128Y398533*
X458173Y398349*
Y398041*
X458128Y397856*
X458083Y397733*
X457994Y397610*
X457859Y397549*
X457546*
X486070Y397057D02*
X488038D01*
X487054Y396072D02*
Y398041D01*
X487546Y398841D02*
Y397549D01*
Y398841D02*
X487859D01*
X487994Y398779*
X488083Y398656*
X488128Y398533*
X488173Y398349*
Y398041*
X488128Y397856*
X488083Y397733*
X487994Y397610*
X487859Y397549*
X487546*
X493504Y400394D02*
X495472D01*
X494488Y399409D02*
Y401378D01*
X494980Y402178D02*
Y400886D01*
Y402178D02*
X495293D01*
X495428Y402116*
X495517Y401993*
X495562Y401870*
X495607Y401686*
Y401378*
X495562Y401193*
X495517Y401070*
X495428Y400947*
X495293Y400886*
X494980*
X396070Y407057D02*
X398038D01*
X397054Y406072D02*
Y408041D01*
X397546Y408841D02*
Y407549D01*
Y408841D02*
X397859D01*
X397994Y408779*
X398083Y408656*
X398128Y408533*
X398173Y408349*
Y408041*
X398128Y407856*
X398083Y407733*
X397994Y407610*
X397859Y407549*
X397546*
X406070Y407057D02*
X408038D01*
X407054Y406072D02*
Y408041D01*
X407546Y408841D02*
Y407549D01*
Y408841D02*
X407859D01*
X407994Y408779*
X408083Y408656*
X408128Y408533*
X408173Y408349*
Y408041*
X408128Y407856*
X408083Y407733*
X407994Y407610*
X407859Y407549*
X407546*
X416070Y407057D02*
X418038D01*
X417054Y406072D02*
Y408041D01*
X417546Y408841D02*
Y407549D01*
Y408841D02*
X417859D01*
X417994Y408779*
X418083Y408656*
X418128Y408533*
X418173Y408349*
Y408041*
X418128Y407856*
X418083Y407733*
X417994Y407610*
X417859Y407549*
X417546*
X426070Y407057D02*
X428038D01*
X427054Y406072D02*
Y408041D01*
X427546Y408841D02*
Y407549D01*
Y408841D02*
X427859D01*
X427994Y408779*
X428083Y408656*
X428128Y408533*
X428173Y408349*
Y408041*
X428128Y407856*
X428083Y407733*
X427994Y407610*
X427859Y407549*
X427546*
X436070Y407057D02*
X438038D01*
X437054Y406072D02*
Y408041D01*
X437546Y408841D02*
Y407549D01*
Y408841D02*
X437859D01*
X437994Y408779*
X438083Y408656*
X438128Y408533*
X438173Y408349*
Y408041*
X438128Y407856*
X438083Y407733*
X437994Y407610*
X437859Y407549*
X437546*
X446070Y407057D02*
X448038D01*
X447054Y406072D02*
Y408041D01*
X447546Y408841D02*
Y407549D01*
Y408841D02*
X447859D01*
X447994Y408779*
X448083Y408656*
X448128Y408533*
X448173Y408349*
Y408041*
X448128Y407856*
X448083Y407733*
X447994Y407610*
X447859Y407549*
X447546*
X456070Y407057D02*
X458038D01*
X457054Y406072D02*
Y408041D01*
X457546Y408841D02*
Y407549D01*
Y408841D02*
X457859D01*
X457994Y408779*
X458083Y408656*
X458128Y408533*
X458173Y408349*
Y408041*
X458128Y407856*
X458083Y407733*
X457994Y407610*
X457859Y407549*
X457546*
X493504Y410394D02*
X495472D01*
X494488Y409409D02*
Y411378D01*
X494980Y412178D02*
Y410886D01*
Y412178D02*
X495293D01*
X495428Y412116*
X495517Y411993*
X495562Y411870*
X495607Y411686*
Y411378*
X495562Y411193*
X495517Y411070*
X495428Y410947*
X495293Y410886*
X494980*
X396070Y417057D02*
X398038D01*
X397054Y416072D02*
Y418041D01*
X397546Y418841D02*
Y417549D01*
Y418841D02*
X397859D01*
X397994Y418779*
X398083Y418656*
X398128Y418533*
X398173Y418349*
Y418041*
X398128Y417856*
X398083Y417733*
X397994Y417610*
X397859Y417549*
X397546*
X406070Y417057D02*
X408038D01*
X407054Y416072D02*
Y418041D01*
X407546Y418841D02*
Y417549D01*
Y418841D02*
X407859D01*
X407994Y418779*
X408083Y418656*
X408128Y418533*
X408173Y418349*
Y418041*
X408128Y417856*
X408083Y417733*
X407994Y417610*
X407859Y417549*
X407546*
X493504Y420394D02*
X495472D01*
X494488Y419409D02*
Y421378D01*
X494980Y422178D02*
Y420886D01*
Y422178D02*
X495293D01*
X495428Y422116*
X495517Y421993*
X495562Y421870*
X495607Y421686*
Y421378*
X495562Y421193*
X495517Y421070*
X495428Y420947*
X495293Y420886*
X494980*
X396070Y427057D02*
X398038D01*
X397054Y426072D02*
Y428041D01*
X397546Y428841D02*
Y427549D01*
Y428841D02*
X397859D01*
X397994Y428779*
X398083Y428656*
X398128Y428533*
X398173Y428349*
Y428041*
X398128Y427856*
X398083Y427733*
X397994Y427610*
X397859Y427549*
X397546*
X406070Y427057D02*
X408038D01*
X407054Y426072D02*
Y428041D01*
X407546Y428841D02*
Y427549D01*
Y428841D02*
X407859D01*
X407994Y428779*
X408083Y428656*
X408128Y428533*
X408173Y428349*
Y428041*
X408128Y427856*
X408083Y427733*
X407994Y427610*
X407859Y427549*
X407546*
X432480Y429134D02*
X434449D01*
X433465Y428150D02*
Y430118D01*
X433957Y430918D02*
Y429626D01*
Y430918D02*
X434270D01*
X434404Y430856*
X434494Y430733*
X434538Y430610*
X434583Y430426*
Y430118*
X434538Y429934*
X434494Y429811*
X434404Y429688*
X434404D02*
X434270Y429626D01*
X433957*
X430118Y422835D02*
X432087D01*
X431102Y421850D02*
Y423819D01*
X431594Y424619D02*
Y423327D01*
Y424619D02*
X431908D01*
X432042Y424557*
X432131Y424434*
X432176Y424311*
X432221Y424126*
Y423819*
X432176Y423634*
X432131Y423511*
X432042Y423388*
X431908Y423327*
X431594*
X424213Y428740D02*
X426181D01*
X425197Y427756D02*
Y429724D01*
X425689Y430524D02*
Y429232D01*
Y430524D02*
X426002D01*
X426136Y430463*
X426226Y430340*
X426271Y430217*
X426315Y430032*
Y429724*
X426271Y429540*
X426226Y429417*
X426136Y429294*
X426002Y429232*
X425689*
X476181Y429528D02*
X478150D01*
X477165Y428543D02*
Y430512D01*
X477657Y431312D02*
Y430020D01*
Y431312D02*
X477971D01*
X478105Y431250*
X478194Y431127*
X478239Y431004*
X478284Y430819*
Y430512*
X478239Y430327*
X478194Y430204*
X478105Y430081*
X477971Y430020*
X477657*
X486070Y427057D02*
X488038D01*
X487054Y426072D02*
Y428041D01*
X487546Y428841D02*
Y427549D01*
Y428841D02*
X487859D01*
X487994Y428779*
X488083Y428656*
X488128Y428533*
X488173Y428349*
Y428041*
X488128Y427856*
X488083Y427733*
X487994Y427610*
X487859Y427549*
X487546*
X493504Y430394D02*
X495472D01*
X494488Y429409D02*
Y431378D01*
X494980Y432178D02*
Y430886D01*
Y432178D02*
X495293D01*
X495428Y432116*
X495517Y431993*
X495562Y431870*
X495607Y431686*
Y431378*
X495562Y431193*
X495517Y431070*
X495428Y430947*
X495293Y430886*
X494980*
X396070Y437057D02*
X398038D01*
X397054Y436072D02*
Y438041D01*
X397546Y438841D02*
Y437549D01*
Y438841D02*
X397859D01*
X397994Y438779*
X398083Y438656*
X398128Y438533*
X398173Y438349*
Y438041*
X398128Y437856*
X398083Y437733*
X397994Y437610*
X397859Y437549*
X397546*
X429724Y436220D02*
X431693D01*
X430709Y435236D02*
Y437205D01*
X431201Y438004D02*
Y436713D01*
Y438004D02*
X431514D01*
X431648Y437943*
X431738Y437820*
X431782Y437697*
X431827Y437512*
Y437205*
X431782Y437020*
X431738Y436897*
X431648Y436774*
X431514Y436713*
X431201*
X423031Y435827D02*
X425000D01*
X424016Y434843D02*
Y436811D01*
X424508Y437611D02*
Y436319D01*
Y437611D02*
X424821D01*
X424955Y437549*
X425045Y437426*
X425089Y437303*
X425134Y437119*
Y436811*
X425089Y436626*
X425045Y436503*
X424955Y436380*
X424821Y436319*
X424508*
X476070Y437057D02*
X478038D01*
X477054Y436072D02*
Y438041D01*
X477546Y438841D02*
Y437549D01*
Y438841D02*
X477859D01*
X477994Y438779*
X478083Y438656*
X478128Y438533*
X478173Y438349*
Y438041*
X478128Y437856*
X478083Y437733*
X477994Y437610*
X477859Y437549*
X477546*
X486070Y437057D02*
X488038D01*
X487054Y436072D02*
Y438041D01*
X487546Y438841D02*
Y437549D01*
Y438841D02*
X487859D01*
X487994Y438779*
X488083Y438656*
X488128Y438533*
X488173Y438349*
Y438041*
X488128Y437856*
X488083Y437733*
X487994Y437610*
X487859Y437549*
X487546*
X493504Y440394D02*
X495472D01*
X494488Y439409D02*
Y441378D01*
X494980Y442178D02*
Y440886D01*
Y442178D02*
X495293D01*
X495428Y442116*
X495517Y441993*
X495562Y441870*
X495607Y441686*
Y441378*
X495562Y441193*
X495517Y441070*
X495428Y440947*
X495293Y440886*
X494980*
X435236Y449213D02*
X437205D01*
X436220Y448228D02*
Y450197D01*
X436713Y450997D02*
Y449705D01*
Y450997D02*
X437026D01*
X437160Y450935*
X437249Y450812*
X437294Y450689*
X437339Y450504*
Y450197*
X437294Y450012*
X437249Y449889*
X437160Y449766*
X437026Y449705*
X436713*
X486070Y447057D02*
X488038D01*
X487054Y446072D02*
Y448041D01*
X487546Y448841D02*
Y447549D01*
Y448841D02*
X487859D01*
X487994Y448779*
X488083Y448656*
X488128Y448533*
X488173Y448349*
Y448041*
X488128Y447856*
X488083Y447733*
X487994Y447610*
X487859Y447549*
X487546*
X493504Y450394D02*
X495472D01*
X494488Y449409D02*
Y451378D01*
X494980Y452178D02*
Y450886D01*
Y452178D02*
X495293D01*
X495428Y452116*
X495517Y451993*
X495562Y451870*
X495607Y451686*
Y451378*
X495562Y451193*
X495517Y451070*
X495428Y450947*
X495293Y450886*
X494980*
X486070Y457057D02*
X488038D01*
X487054Y456072D02*
Y458041D01*
X487546Y458841D02*
Y457549D01*
Y458841D02*
X487859D01*
X487994Y458779*
X488083Y458656*
X488128Y458533*
X488173Y458349*
Y458041*
X488128Y457856*
X488083Y457733*
X487994Y457610*
X487859Y457549*
X487546*
X493504Y460394D02*
X495472D01*
X494488Y459409D02*
Y461378D01*
X494980Y462178D02*
Y460886D01*
Y462178D02*
X495293D01*
X495428Y462116*
X495517Y461993*
X495562Y461870*
X495607Y461686*
Y461378*
X495562Y461193*
X495517Y461070*
X495428Y460947*
X495293Y460886*
X494980*
X396070Y467057D02*
X398038D01*
X397054Y466072D02*
Y468041D01*
X397546Y468841D02*
Y467549D01*
Y468841D02*
X397859D01*
X397994Y468779*
X398083Y468656*
X398128Y468533*
X398173Y468349*
Y468041*
X398128Y467856*
X398083Y467733*
X397994Y467610*
X397859Y467549*
X397546*
X406070Y467057D02*
X408038D01*
X407054Y466072D02*
Y468041D01*
X407546Y468841D02*
Y467549D01*
Y468841D02*
X407859D01*
X407994Y468779*
X408083Y468656*
X408128Y468533*
X408173Y468349*
Y468041*
X408128Y467856*
X408083Y467733*
X407994Y467610*
X407859Y467549*
X407546*
X416070Y467057D02*
X418038D01*
X417054Y466072D02*
Y468041D01*
X417546Y468841D02*
Y467549D01*
Y468841D02*
X417859D01*
X417994Y468779*
X418083Y468656*
X418128Y468533*
X418173Y468349*
Y468041*
X418128Y467856*
X418083Y467733*
X417994Y467610*
X417859Y467549*
X417546*
X426070Y467057D02*
X428038D01*
X427054Y466072D02*
Y468041D01*
X427546Y468841D02*
Y467549D01*
Y468841D02*
X427859D01*
X427994Y468779*
X428083Y468656*
X428128Y468533*
X428173Y468349*
Y468041*
X428128Y467856*
X428083Y467733*
X427994Y467610*
X427859Y467549*
X427546*
X466070Y467057D02*
X468038D01*
X467054Y466072D02*
Y468041D01*
X467546Y468841D02*
Y467549D01*
Y468841D02*
X467859D01*
X467994Y468779*
X468083Y468656*
X468128Y468533*
X468173Y468349*
Y468041*
X468128Y467856*
X468083Y467733*
X467994Y467610*
X467859Y467549*
X467546*
X476070Y467057D02*
X478038D01*
X477054Y466072D02*
Y468041D01*
X477546Y468841D02*
Y467549D01*
Y468841D02*
X477859D01*
X477994Y468779*
X478083Y468656*
X478128Y468533*
X478173Y468349*
Y468041*
X478128Y467856*
X478083Y467733*
X477994Y467610*
X477859Y467549*
X477546*
X486070Y467057D02*
X488038D01*
X487054Y466072D02*
Y468041D01*
X487546Y468841D02*
Y467549D01*
Y468841D02*
X487859D01*
X487994Y468779*
X488083Y468656*
X488128Y468533*
X488173Y468349*
Y468041*
X488128Y467856*
X488083Y467733*
X487994Y467610*
X487859Y467549*
X487546*
X493504Y470394D02*
X495472D01*
X494488Y469409D02*
Y471378D01*
X494980Y472178D02*
Y470886D01*
Y472178D02*
X495293D01*
X495428Y472116*
X495517Y471993*
X495562Y471870*
X495607Y471686*
Y471378*
X495562Y471193*
X495517Y471070*
X495428Y470947*
X495293Y470886*
X494980*
X396070Y477057D02*
X398038D01*
X397054Y476072D02*
Y478041D01*
X397546Y478841D02*
Y477549D01*
Y478841D02*
X397859D01*
X397994Y478779*
X398083Y478656*
X398128Y478533*
X398173Y478349*
Y478041*
X398128Y477856*
X398083Y477733*
X397994Y477610*
X397859Y477549*
X397546*
X406070Y477057D02*
X408038D01*
X407054Y476072D02*
Y478041D01*
X407546Y478841D02*
Y477549D01*
Y478841D02*
X407859D01*
X407994Y478779*
X408083Y478656*
X408128Y478533*
X408173Y478349*
Y478041*
X408128Y477856*
X408083Y477733*
X407994Y477610*
X407859Y477549*
X407546*
X416070Y477057D02*
X418038D01*
X417054Y476072D02*
Y478041D01*
X417546Y478841D02*
Y477549D01*
Y478841D02*
X417859D01*
X417994Y478779*
X418083Y478656*
X418128Y478533*
X418173Y478349*
Y478041*
X418128Y477856*
X418083Y477733*
X417994Y477610*
X417859Y477549*
X417546*
X426070Y477057D02*
X428038D01*
X427054Y476072D02*
Y478041D01*
X427546Y478841D02*
Y477549D01*
Y478841D02*
X427859D01*
X427994Y478779*
X428083Y478656*
X428128Y478533*
X428173Y478349*
Y478041*
X428128Y477856*
X428083Y477733*
X427994Y477610*
X427859Y477549*
X427546*
X456070Y477057D02*
X458038D01*
X457054Y476072D02*
Y478041D01*
X457546Y478841D02*
Y477549D01*
Y478841D02*
X457859D01*
X457994Y478779*
X458083Y478656*
X458128Y478533*
X458173Y478349*
Y478041*
X458128Y477856*
X458083Y477733*
X457994Y477610*
X457859Y477549*
X457546*
X466070Y477057D02*
X468038D01*
X467054Y476072D02*
Y478041D01*
X467546Y478841D02*
Y477549D01*
Y478841D02*
X467859D01*
X467994Y478779*
X468083Y478656*
X468128Y478533*
X468173Y478349*
Y478041*
X468128Y477856*
X468083Y477733*
X467994Y477610*
X467859Y477549*
X467546*
X486070Y477057D02*
X488038D01*
X487054Y476072D02*
Y478041D01*
X487546Y478841D02*
Y477549D01*
Y478841D02*
X487859D01*
X487994Y478779*
X488083Y478656*
X488128Y478533*
X488173Y478349*
Y478041*
X488128Y477856*
X488083Y477733*
X487994Y477610*
X487859Y477549*
X487546*
X493504Y480394D02*
X495472D01*
X494488Y479409D02*
Y481378D01*
X494980Y482178D02*
Y480886D01*
Y482178D02*
X495293D01*
X495428Y482116*
X495517Y481993*
X495562Y481870*
X495607Y481686*
Y481378*
X495562Y481193*
X495517Y481070*
X495428Y480947*
X495293Y480886*
X494980*
X396070Y487057D02*
X398038D01*
X397054Y486072D02*
Y488041D01*
X397546Y488841D02*
Y487549D01*
Y488841D02*
X397859D01*
X397994Y488779*
X398083Y488656*
X398128Y488533*
X398173Y488349*
Y488041*
X398128Y487856*
X398083Y487733*
X397994Y487610*
X397859Y487549*
X397546*
X406070Y487057D02*
X408038D01*
X407054Y486072D02*
Y488041D01*
X407546Y488841D02*
Y487549D01*
Y488841D02*
X407859D01*
X407994Y488779*
X408083Y488656*
X408128Y488533*
X408173Y488349*
Y488041*
X408128Y487856*
X408083Y487733*
X407994Y487610*
X407859Y487549*
X407546*
X416070Y487057D02*
X418038D01*
X417054Y486072D02*
Y488041D01*
X417546Y488841D02*
Y487549D01*
Y488841D02*
X417859D01*
X417994Y488779*
X418083Y488656*
X418128Y488533*
X418173Y488349*
Y488041*
X418128Y487856*
X418083Y487733*
X417994Y487610*
X417859Y487549*
X417546*
X426070Y487057D02*
X428038D01*
X427054Y486072D02*
Y488041D01*
X427546Y488841D02*
Y487549D01*
Y488841D02*
X427859D01*
X427994Y488779*
X428083Y488656*
X428128Y488533*
X428173Y488349*
Y488041*
X428128Y487856*
X428083Y487733*
X427994Y487610*
X427859Y487549*
X427546*
X466070Y487057D02*
X468038D01*
X467054Y486072D02*
Y488041D01*
X467546Y488841D02*
Y487549D01*
Y488841D02*
X467859D01*
X467994Y488779*
X468083Y488656*
X468128Y488533*
X468173Y488349*
Y488041*
X468128Y487856*
X468083Y487733*
X467994Y487610*
X467859Y487549*
X467546*
X486070Y487057D02*
X488038D01*
X487054Y486072D02*
Y488041D01*
X487546Y488841D02*
Y487549D01*
Y488841D02*
X487859D01*
X487994Y488779*
X488083Y488656*
X488128Y488533*
X488173Y488349*
Y488041*
X488128Y487856*
X488083Y487733*
X487994Y487610*
X487859Y487549*
X487546*
X493504Y490394D02*
X495472D01*
X494488Y489409D02*
Y491378D01*
X494980Y492178D02*
Y490886D01*
Y492178D02*
X495293D01*
X495428Y492116*
X495517Y491993*
X495562Y491870*
X495607Y491686*
Y491378*
X495562Y491193*
X495517Y491070*
X495428Y490947*
X495293Y490886*
X494980*
X396070Y497057D02*
X398038D01*
X397054Y496072D02*
Y498041D01*
X397546Y498841D02*
Y497549D01*
Y498841D02*
X397859D01*
X397994Y498779*
X398083Y498656*
X398128Y498533*
X398173Y498349*
Y498041*
X398128Y497856*
X398083Y497733*
X397994Y497610*
X397859Y497549*
X397546*
X406070Y497057D02*
X408038D01*
X407054Y496072D02*
Y498041D01*
X407546Y498841D02*
Y497549D01*
Y498841D02*
X407859D01*
X407994Y498779*
X408083Y498656*
X408128Y498533*
X408173Y498349*
Y498041*
X408128Y497856*
X408083Y497733*
X407994Y497610*
X407859Y497549*
X407546*
X416070Y497057D02*
X418038D01*
X417054Y496072D02*
Y498041D01*
X417546Y498841D02*
Y497549D01*
Y498841D02*
X417859D01*
X417994Y498779*
X418083Y498656*
X418128Y498533*
X418173Y498349*
Y498041*
X418128Y497856*
X418083Y497733*
X417994Y497610*
X417859Y497549*
X417546*
X426070Y497057D02*
X428038D01*
X427054Y496072D02*
Y498041D01*
X427546Y498841D02*
Y497549D01*
Y498841D02*
X427859D01*
X427994Y498779*
X428083Y498656*
X428128Y498533*
X428173Y498349*
Y498041*
X428128Y497856*
X428083Y497733*
X427994Y497610*
X427859Y497549*
X427546*
X466070Y497057D02*
X468038D01*
X467054Y496072D02*
Y498041D01*
X467546Y498841D02*
Y497549D01*
Y498841D02*
X467859D01*
X467994Y498779*
X468083Y498656*
X468128Y498533*
X468173Y498349*
Y498041*
X468128Y497856*
X468083Y497733*
X467994Y497610*
X467859Y497549*
X467546*
X476070Y497057D02*
X478038D01*
X477054Y496072D02*
Y498041D01*
X477546Y498841D02*
Y497549D01*
Y498841D02*
X477859D01*
X477994Y498779*
X478083Y498656*
X478128Y498533*
X478173Y498349*
Y498041*
X478128Y497856*
X478083Y497733*
X477994Y497610*
X477859Y497549*
X477546*
X486070Y497057D02*
X488038D01*
X487054Y496072D02*
Y498041D01*
X487546Y498841D02*
Y497549D01*
Y498841D02*
X487859D01*
X487994Y498779*
X488083Y498656*
X488128Y498533*
X488173Y498349*
Y498041*
X488128Y497856*
X488083Y497733*
X487994Y497610*
X487859Y497549*
X487546*
X493504Y500394D02*
X495472D01*
X494488Y499409D02*
Y501378D01*
X494980Y502178D02*
Y500886D01*
Y502178D02*
X495293D01*
X495428Y502116*
X495517Y501993*
X495562Y501870*
X495607Y501686*
Y501378*
X495562Y501193*
X495517Y501070*
X495428Y500947*
X495293Y500886*
X494980*
X396070Y507057D02*
X398038D01*
X397054Y506072D02*
Y508041D01*
X397546Y508841D02*
Y507549D01*
Y508841D02*
X397859D01*
X397994Y508779*
X398083Y508656*
X398128Y508533*
X398173Y508349*
Y508041*
X398128Y507856*
X398083Y507733*
X397994Y507610*
X397859Y507549*
X397546*
X406070Y507057D02*
X408038D01*
X407054Y506072D02*
Y508041D01*
X407546Y508841D02*
Y507549D01*
Y508841D02*
X407859D01*
X407994Y508779*
X408083Y508656*
X408128Y508533*
X408173Y508349*
Y508041*
X408128Y507856*
X408083Y507733*
X407994Y507610*
X407859Y507549*
X407546*
X413976Y503937D02*
X415945D01*
X414961Y502953D02*
Y504921D01*
X415453Y505721D02*
Y504429D01*
Y505721D02*
X415766D01*
X415900Y505659*
X415990Y505536*
X416034Y505413*
X416079Y505229*
Y504921*
X416034Y504737*
X415990Y504614*
X415900Y504491*
X415766Y504429*
X415453*
X429331Y504724D02*
X431299D01*
X430315Y503740D02*
Y505709D01*
X430807Y506508D02*
Y505217D01*
Y506508D02*
X431120D01*
X431254Y506447*
X431344Y506324*
X431389Y506201*
X431433Y506016*
Y505709*
X431389Y505524*
X431344Y505401*
X431254Y505278*
X431120Y505217*
X430807*
X456070Y507057D02*
X458038D01*
X457054Y506072D02*
Y508041D01*
X457546Y508841D02*
Y507549D01*
Y508841D02*
X457859D01*
X457994Y508779*
X458083Y508656*
X458128Y508533*
X458173Y508349*
Y508041*
X458128Y507856*
X458083Y507733*
X457994Y507610*
X457859Y507549*
X457546*
X466070Y507057D02*
X468038D01*
X467054Y506072D02*
Y508041D01*
X467546Y508841D02*
Y507549D01*
Y508841D02*
X467859D01*
X467994Y508779*
X468083Y508656*
X468128Y508533*
X468173Y508349*
Y508041*
X468128Y507856*
X468083Y507733*
X467994Y507610*
X467859Y507549*
X467546*
X476070Y507057D02*
X478038D01*
X477054Y506072D02*
Y508041D01*
X477546Y508841D02*
Y507549D01*
Y508841D02*
X477859D01*
X477994Y508779*
X478083Y508656*
X478128Y508533*
X478173Y508349*
Y508041*
X478128Y507856*
X478083Y507733*
X477994Y507610*
X477859Y507549*
X477546*
X486070Y507057D02*
X488038D01*
X487054Y506072D02*
Y508041D01*
X487546Y508841D02*
Y507549D01*
Y508841D02*
X487859D01*
X487994Y508779*
X488083Y508656*
X488128Y508533*
X488173Y508349*
Y508041*
X488128Y507856*
X488083Y507733*
X487994Y507610*
X487859Y507549*
X487546*
X493504Y510394D02*
X495472D01*
X494488Y509409D02*
Y511378D01*
X494980Y512178D02*
Y510886D01*
Y512178D02*
X495293D01*
X495428Y512116*
X495517Y511993*
X495562Y511870*
X495607Y511686*
Y511378*
X495562Y511193*
X495517Y511070*
X495428Y510947*
X495293Y510886*
X494980*
X402165Y515354D02*
X404134D01*
X403150Y514370D02*
Y516339D01*
X403642Y517138D02*
Y515846D01*
Y517138D02*
X403955D01*
X404089Y517077*
X404179Y516954*
X404223Y516831*
X404268Y516646*
Y516339*
X404223Y516154*
X404179Y516031*
X404089Y515908*
X403955Y515846*
X403642*
X396070Y517057D02*
X398038D01*
X397054Y516072D02*
Y518041D01*
X397546Y518841D02*
Y517549D01*
Y518841D02*
X397859D01*
X397994Y518779*
X398083Y518656*
X398128Y518533*
X398173Y518349*
Y518041*
X398128Y517856*
X398083Y517733*
X397994Y517610*
X397859Y517549*
X397546*
X437205Y514961D02*
X439173D01*
X438189Y513976D02*
Y515945D01*
X438681Y516745D02*
Y515453D01*
Y516745D02*
X438994D01*
X439128Y516683*
X439218Y516560*
X439263Y516437*
X439307Y516252*
Y515945*
X439263Y515760*
X439218Y515637*
X439128Y515514*
X438994Y515453*
X438681*
X446070Y517057D02*
X448038D01*
X447054Y516072D02*
Y518041D01*
X447546Y518841D02*
Y517549D01*
Y518841D02*
X447859D01*
X447994Y518779*
X448083Y518656*
X448128Y518533*
X448173Y518349*
Y518041*
X448128Y517856*
X448083Y517733*
X447994Y517610*
X447859Y517549*
X447546*
X456070Y517057D02*
X458038D01*
X457054Y516072D02*
Y518041D01*
X457546Y518841D02*
Y517549D01*
Y518841D02*
X457859D01*
X457994Y518779*
X458083Y518656*
X458128Y518533*
X458173Y518349*
Y518041*
X458128Y517856*
X458083Y517733*
X457994Y517610*
X457859Y517549*
X457546*
X486070Y517057D02*
X488038D01*
X487054Y516072D02*
Y518041D01*
X487546Y518841D02*
Y517549D01*
Y518841D02*
X487859D01*
X487994Y518779*
X488083Y518656*
X488128Y518533*
X488173Y518349*
Y518041*
X488128Y517856*
X488083Y517733*
X487994Y517610*
X487859Y517549*
X487546*
X493504Y520394D02*
X495472D01*
X494488Y519409D02*
Y521378D01*
X494980Y522178D02*
Y520886D01*
Y522178D02*
X495293D01*
X495428Y522116*
X495517Y521993*
X495562Y521870*
X495607Y521686*
Y521378*
X495562Y521193*
X495517Y521070*
X495428Y520947*
X495293Y520886*
X494980*
X396070Y527057D02*
X398038D01*
X397054Y526072D02*
Y528041D01*
X397546Y528841D02*
Y527549D01*
Y528841D02*
X397859D01*
X397994Y528779*
X398083Y528656*
X398128Y528533*
X398173Y528349*
Y528041*
X398128Y527856*
X398083Y527733*
X397994Y527610*
X397859Y527549*
X397546*
X402953Y527165D02*
X404921D01*
X403937Y526181D02*
Y528150D01*
X404429Y528949D02*
Y527657D01*
Y528949D02*
X404742D01*
X404877Y528888*
X404966Y528765*
X405011Y528642*
X405055Y528457*
Y528150*
X405011Y527965*
X404966Y527842*
X404877Y527719*
X404742Y527657*
X404429*
X437992Y525984D02*
X439961D01*
X438976Y525000D02*
Y526969D01*
X439469Y527768D02*
Y526476D01*
Y527768D02*
X439782D01*
X439916Y527707*
X440005Y527584*
X440050Y527461*
X440095Y527276*
Y526969*
X440050Y526784*
X440005Y526661*
X439916Y526538*
X439782Y526476*
X439469*
X456070Y527057D02*
X458038D01*
X457054Y526072D02*
Y528041D01*
X457546Y528841D02*
Y527549D01*
Y528841D02*
X457859D01*
X457994Y528779*
X458083Y528656*
X458128Y528533*
X458173Y528349*
Y528041*
X458128Y527856*
X458083Y527733*
X457994Y527610*
X457859Y527549*
X457546*
X466070Y527057D02*
X468038D01*
X467054Y526072D02*
Y528041D01*
X467546Y528841D02*
Y527549D01*
Y528841D02*
X467859D01*
X467994Y528779*
X468083Y528656*
X468128Y528533*
X468173Y528349*
Y528041*
X468128Y527856*
X468083Y527733*
X467994Y527610*
X467859Y527549*
X467546*
X486070Y527057D02*
X488038D01*
X487054Y526072D02*
Y528041D01*
X487546Y528841D02*
Y527549D01*
Y528841D02*
X487859D01*
X487994Y528779*
X488083Y528656*
X488128Y528533*
X488173Y528349*
Y528041*
X488128Y527856*
X488083Y527733*
X487994Y527610*
X487859Y527549*
X487546*
X492717Y528346D02*
X494685D01*
X493701Y527362D02*
Y529331D01*
X494193Y530130D02*
Y528839D01*
Y530130D02*
X494506D01*
X494640Y530069*
X494730Y529946*
X494775Y529823*
X494819Y529638*
Y529331*
X494775Y529146*
X494730Y529023*
X494640Y528900*
X494506Y528839*
X494193*
X400197Y533858D02*
X402165D01*
X401181Y532874D02*
Y534843D01*
X401673Y535642D02*
Y534350D01*
Y535642D02*
X401986D01*
X402121Y535581*
X402210Y535458*
X402255Y535335*
X402300Y535150*
Y534843*
X402255Y534658*
X402210Y534535*
X402121Y534412*
X401986Y534350*
X401673*
X406890Y533858D02*
X408858D01*
X407874Y532874D02*
Y534843D01*
X408366Y535642D02*
Y534350D01*
Y535642D02*
X408679D01*
X408814Y535581*
X408903Y535458*
X408948Y535335*
X408992Y535150*
Y534843*
X408948Y534658*
X408903Y534535*
X408814Y534412*
X408679Y534350*
X408366*
X433661Y533858D02*
X435630D01*
X434646Y532874D02*
Y534843D01*
X435138Y535642D02*
Y534350D01*
Y535642D02*
X435451D01*
X435585Y535581*
X435675Y535458*
X435719Y535335*
X435764Y535150*
Y534843*
X435719Y534658*
X435675Y534535*
X435585Y534412*
X435451Y534350*
X435138*
X440197Y533858D02*
X442165D01*
X441181Y532874D02*
Y534843D01*
X441673Y535642D02*
Y534350D01*
Y535642D02*
X441986D01*
X442121Y535581*
X442210Y535458*
X442255Y535335*
X442300Y535150*
Y534843*
X442255Y534658*
X442210Y534535*
X442121Y534412*
X441986Y534350*
X441673*
X450197Y533858D02*
X452165D01*
X451181Y532874D02*
Y534843D01*
X451673Y535642D02*
Y534350D01*
Y535642D02*
X451986D01*
X452121Y535581*
X452210Y535458*
X452255Y535335*
X452300Y535150*
Y534843*
X452255Y534658*
X452210Y534535*
X452121Y534412*
X451986Y534350*
X451673*
X460197Y533858D02*
X462165D01*
X461181Y532874D02*
Y534843D01*
X461673Y535642D02*
Y534350D01*
Y535642D02*
X461986D01*
X462121Y535581*
X462210Y535458*
X462255Y535335*
X462300Y535150*
Y534843*
X462255Y534658*
X462210Y534535*
X462121Y534412*
X461986Y534350*
X461673*
X470197Y533858D02*
X472165D01*
X471181Y532874D02*
Y534843D01*
X471673Y535642D02*
Y534350D01*
Y535642D02*
X471986D01*
X472121Y535581*
X472210Y535458*
X472255Y535335*
X472300Y535150*
Y534843*
X472255Y534658*
X472210Y534535*
X472121Y534412*
X471986Y534350*
X471673*
X480197Y533858D02*
X482165D01*
X481181Y532874D02*
Y534843D01*
X481673Y535642D02*
Y534350D01*
Y535642D02*
X481986D01*
X482121Y535581*
X482210Y535458*
X482255Y535335*
X482300Y535150*
Y534843*
X482255Y534658*
X482210Y534535*
X482121Y534412*
X481986Y534350*
X481673*
X490197Y533858D02*
X492165D01*
X491181Y532874D02*
Y534843D01*
X491673Y535642D02*
Y534350D01*
Y535642D02*
X491986D01*
X492121Y535581*
X492210Y535458*
X492255Y535335*
X492300Y535150*
Y534843*
X492255Y534658*
X492210Y534535*
X492121Y534412*
X491986Y534350*
X491673*
X625965Y571604D02*
X625428Y572343D01*
X624622Y572712*
X623549*
X622743Y572343*
X622207Y571604*
Y570866*
X622475Y570128*
X622743Y569759*
X623280Y569390*
X624891Y568652*
X625428Y568282*
X625696Y567913*
X625965Y567175*
Y566068*
X625428Y565330*
X624622Y564961*
X623549*
X622743Y565330*
X622207Y566068*
X628380Y572712D02*
Y564961D01*
X634554Y572712D02*
X630796Y564961D01*
Y572712D02*
X634554D01*
X630796Y564961D02*
X634554D01*
X636970Y572712D02*
Y564961D01*
Y572712D02*
X640460D01*
X636970Y569021D02*
X639118D01*
X636970Y564961D02*
X640460D01*
X683409Y572712D02*
X682872Y572343D01*
X682335Y571604*
X682067Y570866*
X681798Y569759*
X681798D02*
Y567913D01*
X681798D02*
X682067Y566806D01*
X682335Y566068*
X682872Y565330*
X683409Y564961*
X684483*
X685020Y565330*
X685557Y566068*
X685825Y566806*
X686093Y567913*
Y569759*
X685825Y570866*
X685557Y571604*
X685020Y572343*
X684483Y572712*
X683409*
X684214Y566437D02*
X685825Y564222D01*
X690388Y572712D02*
Y564961D01*
X688509Y572712D02*
X692267D01*
X694683D02*
X696831Y569021D01*
Y564961*
X698978Y572712D02*
X696831Y569021D01*
X720990Y571604D02*
X720453Y572343D01*
X719647Y572712*
X718574*
X717768Y572343*
X717232Y571604*
Y570866*
X717500Y570128*
X717768Y569759*
X718305Y569390*
X719916Y568652*
X720453Y568282*
X720721Y567913*
X720990Y567175*
Y566068*
X720453Y565330*
X719647Y564961*
X718574*
X717768Y565330*
X717232Y566068*
X723406Y572712D02*
X725553Y569021D01*
Y564961*
X727700Y572712D02*
X725553Y569021D01*
X730116Y572712D02*
Y564961D01*
Y572712D02*
X732264Y564961D01*
X734411Y572712D02*
X732264Y564961D01*
X734411Y572712D02*
Y564961D01*
X755886Y572712D02*
Y564961D01*
Y572712D02*
X758302D01*
X759107Y572343*
X759375Y571973*
X759644Y571235*
Y570128*
X759375Y569390*
X759107Y569021*
X758302Y568652*
X755886*
X762060Y572712D02*
Y564961D01*
X765281*
X769844Y572712D02*
X767697Y564961D01*
X769844Y572712D02*
X771992Y564961D01*
X768502Y567544D02*
X771186D01*
X776287Y572712D02*
Y564961D01*
X774408Y572712D02*
X778166D01*
X780582D02*
Y564961D01*
Y572712D02*
X784071D01*
X780582Y569021D02*
X782729D01*
X780582Y564961D02*
X784071D01*
X786487Y572712D02*
Y564961D01*
Y572712D02*
X788366D01*
X789171Y572343*
X789708Y571604*
X789977Y570866*
X790245Y569759*
Y567913*
X789977Y566806*
X789708Y566068*
X789171Y565330*
X788366Y564961*
X786487*
X804338Y572712D02*
Y564961D01*
X802459Y572712D02*
X806217D01*
X808633D02*
Y564961D01*
X812391Y572712D02*
Y564961D01*
X808633Y569021D02*
X812391D01*
X814807Y572712D02*
Y564961D01*
Y572712D02*
X817223D01*
X818028Y572343*
X818296Y571973*
X818565Y571235*
Y570497*
X818296Y569759*
X818028Y569390*
X817223Y569021*
X814807*
X816686D02*
X818565Y564961D01*
X825812Y574188D02*
X820981Y562377D01*
X828228Y572712D02*
Y564961D01*
Y572712D02*
X830644D01*
X831450Y572343*
X831718Y571973*
X831986Y571235*
Y570128*
X831718Y569390*
X831450Y569021*
X830644Y568652*
X828228*
X834402Y572712D02*
Y564961D01*
Y572712D02*
X836818D01*
X837623Y572343*
X837892Y571973*
X838160Y571235*
Y570497*
X837892Y569759*
X837623Y569390*
X836818Y569021*
X834402*
X836281D02*
X838160Y564961D01*
X842455Y572712D02*
Y564961D01*
X840576Y572712D02*
X844334D01*
X846750D02*
Y564961D01*
X849971*
X873191Y572712D02*
Y564961D01*
X871312Y572712D02*
X875070D01*
X879096D02*
X878559Y572343D01*
X878023Y571604*
X877754Y570866*
X877486Y569759*
Y567913*
X877754Y566806*
X878023Y566068*
X878559Y565330*
X879096Y564961*
X880170*
X880707Y565330*
X881244Y566068*
X881512Y566806*
X881781Y567913*
Y569759*
X881512Y570866*
X881244Y571604*
X880707Y572343*
X880170Y572712*
X879096*
X884196D02*
Y564961D01*
X887418*
X596457Y547613D02*
X596994Y547982D01*
X597799Y549090*
Y541339*
X689717Y547613D02*
X690254Y547982D01*
X691059Y549090*
Y541339*
X720472D02*
X732283Y553150D01*
X720472D02*
X732283Y541339D01*
X753067Y549090D02*
X755215Y545399D01*
Y541339*
X757362Y549090D02*
X755215Y545399D01*
X759778Y549090D02*
Y541339D01*
Y549090D02*
X763268D01*
X759778Y545399D02*
X761926D01*
X759778Y541339D02*
X763268D01*
X769442Y547982D02*
X768905Y548720D01*
X768100Y549090*
X768100D02*
X767026D01*
X766220Y548720*
X765684Y547982*
Y547244*
X765952Y546506*
X766220Y546137*
X766757Y545768*
X768368Y545030*
X768905Y544660*
X769173Y544291*
X769442Y543553*
Y542446*
X768905Y541708*
X768100Y541339*
X768100D02*
X767026D01*
X766220Y541708*
X765684Y542446*
X808230Y549090D02*
Y541339D01*
X806351Y549090D02*
X810109D01*
X812525D02*
Y541339D01*
X816283Y549090D02*
Y541339D01*
X812525Y545399D02*
X816283D01*
X818699Y549090D02*
Y541339D01*
Y549090D02*
X821115D01*
X821920Y548720*
X822189Y548351*
X822457Y547613*
Y546875*
X822189Y546137*
X821920Y545768*
X821115Y545399*
X818699*
X820578D02*
X822457Y541339D01*
X864467Y547982D02*
Y541339D01*
X862051Y544660D02*
X866883D01*
X874130Y550566D02*
X869298Y538755D01*
X876546Y544660D02*
X881378D01*
X885404Y549090D02*
X884599Y548720D01*
X884062Y547613*
X883794Y545768*
Y544660*
X884062Y542815*
X884599Y541708*
X885404Y541339*
X885941*
X886747Y541708*
X887283Y542815*
X887552Y544660*
Y545768*
X887283Y547613*
X886747Y548720*
X885941Y549090*
X885404*
X890236Y542077D02*
X889968Y541708D01*
X890236Y541339*
X890505Y541708*
X890236Y542077*
X894531Y549090D02*
X893726Y548720D01*
X893189Y547613*
X892921Y545768*
Y544660*
X893189Y542815*
X893726Y541708*
X894531Y541339*
X895068*
X895873Y541708*
X896410Y542815*
X896679Y544660*
Y545768*
X896410Y547613*
X895873Y548720*
X895068Y549090*
X894531*
X598067Y525468D02*
X597262Y525098D01*
X596725Y523991*
X596457Y522146*
Y521038*
X596725Y519193*
X597262Y518086*
X598067Y517717*
X598604*
X599409Y518086*
X599946Y519193*
X600215Y521038*
Y522146*
X599946Y523991*
X599409Y525098*
X598604Y525468*
X598067*
X602899Y518455D02*
X602631Y518086D01*
X602899Y517717*
X603168Y518086*
X603168D02*
X602899Y518455D01*
X609073Y522884D02*
X608805Y521777D01*
X608268Y521038*
X607462Y520669*
X607194*
X606389Y521038*
X605852Y521777*
X605583Y522884*
Y523253*
X605852Y524360*
X606389Y525098*
X607194Y525468*
X607462*
X608268Y525098*
X608805Y524360*
X609073Y522884*
Y521038*
X608805Y519193*
X608268Y518086*
X607462Y517717*
X606926*
X606120Y518086*
X605852Y518824*
X689046Y525468D02*
X691999D01*
X690388Y522515*
X691194*
X691730Y522146*
X691999Y521777*
X692267Y520669*
Y519931*
X691999Y518824*
X691462Y518086*
X690657Y517717*
X689851*
X689046Y518086*
X688778Y518455*
X688509Y519193*
X720472Y517717D02*
X732283D01*
X720472Y529528*
X732283*
X720472Y517717*
X753067Y525468D02*
X755215Y521777D01*
Y517717*
X757362Y525468D02*
X755215Y521777D01*
X759778Y525468D02*
Y517717D01*
Y525468D02*
X763268D01*
X759778Y521777D02*
X761926D01*
X759778Y517717D02*
X763268D01*
X769442Y524360D02*
X768905Y525098D01*
X768100Y525468*
X768100D02*
X767026D01*
X766220Y525098*
X765684Y524360*
Y523622*
X765952Y522884*
X766220Y522515*
X766757Y522146*
X768368Y521407*
X768905Y521038*
X769173Y520669*
X769442Y519931*
Y518824*
X768905Y518086*
X768100Y517717*
X768100D02*
X767026D01*
X766220Y518086*
X765684Y518824*
X808230Y525468D02*
Y517717D01*
X806351Y525468D02*
X810109D01*
X812525D02*
Y517717D01*
X816283Y525468D02*
Y517717D01*
X812525Y521777D02*
X816283D01*
X818699Y525468D02*
Y517717D01*
Y525468D02*
X821115D01*
X821920Y525098*
X822189Y524729*
X822457Y523991*
Y523253*
X822189Y522515*
X821920Y522146*
X821115Y521777*
X818699*
X820578D02*
X822457Y517717D01*
X864467Y524360D02*
Y517717D01*
X862051Y521038D02*
X866883D01*
X874130Y526944D02*
X869298Y515133D01*
X876546Y521038D02*
X881378D01*
X885404Y525468D02*
X884599Y525098D01*
X884062Y523991*
X883794Y522146*
Y521038*
X884062Y519193*
X884599Y518086*
X885404Y517717*
X885941*
X886747Y518086*
X887283Y519193*
X887552Y521038*
Y522146*
X887283Y523991*
X886747Y525098*
X885941Y525468*
X885404*
X890236Y518455D02*
X889968Y518086D01*
X890236Y517717*
X890505Y518086*
X890236Y518455*
X894531Y525468D02*
X893726Y525098D01*
X893189Y523991*
X892921Y522146*
Y521038*
X893189Y519193*
X893726Y518086*
X894531Y517717*
X895068*
X895873Y518086*
X896410Y519193*
X896679Y521038*
Y522146*
X896410Y523991*
X895873Y525098*
X895068Y525468*
X894531*
X596457Y500369D02*
X596994Y500738D01*
X597799Y501845*
Y494094*
X600483Y494833D02*
X600215Y494464D01*
X600483Y494094*
X600752Y494464*
X600483Y494833*
X603436Y500000D02*
Y500369D01*
X603704Y501107*
X603973Y501476*
X604510Y501845*
X605583*
X606120Y501476*
X606389Y501107*
X606657Y500369*
Y499631*
X606389Y498893*
X605852Y497785*
X603168Y494094*
X603168D02*
X606926D01*
X691865Y500738D02*
X691596Y501476D01*
X690791Y501845*
X690254*
X689449Y501476*
X688912Y500369*
X688644Y498524*
Y496678*
X688912Y495202*
X689449Y494464*
X690254Y494094*
X690523*
X691328Y494464*
X691865Y495202*
X692133Y496309*
Y496678*
X691865Y497785*
X691328Y498524*
X690523Y498893*
X690254*
X689449Y498524*
X688912Y497785*
X688644Y496678*
X720472Y494094D02*
X732283Y505906D01*
Y494094*
X720472Y505906*
Y494094*
X753067Y501845D02*
X755215Y498155D01*
Y494094*
X757362Y501845D02*
X755215Y498155D01*
X759778Y501845D02*
Y494094D01*
Y501845D02*
X763268D01*
X759778Y498155D02*
X761926D01*
X759778Y494094D02*
X763268D01*
X769442Y500738D02*
X768905Y501476D01*
X768100Y501845*
X768100D02*
X767026D01*
X766220Y501476*
X765684Y500738*
Y500000*
X765952Y499262*
X766220Y498893*
X766757Y498524*
X768368Y497785*
X768905Y497416*
X769173Y497047*
X769442Y496309*
Y495202*
X768905Y494464*
X768100Y494094*
X768100D02*
X767026D01*
X766220Y494464*
X765684Y495202*
X808230Y501845D02*
Y494094D01*
X806351Y501845D02*
X810109D01*
X812525D02*
Y494094D01*
X816283Y501845D02*
Y494094D01*
X812525Y498155D02*
X816283D01*
X818699Y501845D02*
Y494094D01*
Y501845D02*
X821115D01*
X821920Y501476*
X822189Y501107*
X822457Y500369*
Y499631*
X822189Y498893*
X821920Y498524*
X821115Y498155*
X818699*
X820578D02*
X822457Y494094D01*
X864467Y500738D02*
Y494094D01*
X862051Y497416D02*
X866883D01*
X874130Y503322D02*
X869298Y491511D01*
X876546Y497416D02*
X881378D01*
X885404Y501845D02*
X884599Y501476D01*
X884062Y500369*
X883794Y498524*
Y497416*
X884062Y495571*
X884599Y494464*
X885404Y494094*
X885941*
X886747Y494464*
X887283Y495571*
X887552Y497416*
Y498524*
X887283Y500369*
X886747Y501476*
X885941Y501845*
X885404*
X890236Y494833D02*
X889968Y494464D01*
X890236Y494094*
X890505Y494464*
X890236Y494833*
X894531Y501845D02*
X893726Y501476D01*
X893189Y500369*
X892921Y498524*
Y497416*
X893189Y495571*
X893726Y494464*
X894531Y494094*
X895068*
X895873Y494464*
X896410Y495571*
X896679Y497416*
Y498524*
X896410Y500369*
X895873Y501476*
X895068Y501845*
X894531*
X599141Y478223D02*
X596457Y473056D01*
X600483*
X599141Y478223D02*
Y470472D01*
X688778Y476378D02*
Y476747D01*
X689046Y477485*
X689315Y477854*
X689851Y478223*
X690925*
X691462Y477854*
X691730Y477485*
X691999Y476747*
Y476009*
X691730Y475271*
X691194Y474163*
X688509Y470472*
X692267*
X720472Y476378D02*
X732283D01*
X726378Y470472D02*
Y482283D01*
X729331Y485531D02*
Y479331D01*
Y485531D02*
X731263D01*
X731908Y485236*
X732122Y484941*
X732337Y484350*
Y483760*
X732122Y483169*
X731908Y482874*
X731263Y482579*
X729331D02*
X731263D01*
X731908Y482283*
X732122Y481988*
X732337Y481398*
Y480512*
X732122Y479921*
X731908Y479626*
X731263Y479331*
X729331*
X756020Y478223D02*
Y470472D01*
Y478223D02*
X759778Y470472D01*
Y478223D02*
Y470472D01*
X763805Y478223D02*
X763268Y477854D01*
X762731Y477116*
X762462Y476378*
X762194Y475271*
Y473425*
X762462Y472318*
X762731Y471580*
X763268Y470842*
X763805Y470472*
X764878*
X765415Y470842*
X765952Y471580*
X766220Y472318*
X766489Y473425*
Y475271*
X766220Y476378*
X765952Y477116*
X765415Y477854*
X764878Y478223*
X763805*
X808230D02*
Y470472D01*
X806351Y478223D02*
X810109D01*
X812525D02*
Y470472D01*
X816283Y478223D02*
Y470472D01*
X812525Y474532D02*
X816283D01*
X818699Y478223D02*
Y470472D01*
Y478223D02*
X821115D01*
X821920Y477854*
X822189Y477485*
X822457Y476747*
Y476009*
X822189Y475271*
X821920Y474902*
X821115Y474532*
X818699*
X820578D02*
X822457Y470472D01*
X864467Y477116D02*
Y470472D01*
X862051Y473794D02*
X866883D01*
X874130Y479700D02*
X869298Y467889D01*
X876546Y473794D02*
X881378D01*
X885404Y478223D02*
X884599Y477854D01*
X884062Y476747*
X883794Y474902*
Y473794*
X884062Y471949*
X884599Y470842*
X885404Y470472*
X885941*
X886747Y470842*
X887283Y471949*
X887552Y473794*
Y474902*
X887283Y476747*
X886747Y477854*
X885941Y478223*
X885404*
X890236Y471211D02*
X889968Y470842D01*
X890236Y470472*
X890505Y470842*
X890236Y471211*
X894531Y478223D02*
X893726Y477854D01*
X893189Y476747*
X892921Y474902*
Y473794*
X893189Y471949*
X893726Y470842*
X894531Y470472*
X895068*
X895873Y470842*
X896410Y471949*
X896679Y473794*
Y474902*
X896410Y476747*
X895873Y477854*
X895068Y478223*
X894531*
X598067Y454601D02*
X597262Y454232D01*
X596725Y453125*
X596457Y451280*
Y450172*
X596725Y448327*
X597262Y447219*
X598067Y446850*
X598604*
X599409Y447219*
X599946Y448327*
X600215Y450172*
Y451280*
X599946Y453125*
X599409Y454232*
X598604Y454601*
X598067*
X602899Y447589D02*
X602631Y447219D01*
X602899Y446850*
X603168Y447219*
X603168D02*
X602899Y447589D01*
X605852Y452756D02*
Y453125D01*
X606120Y453863*
X606389Y454232*
X606926Y454601*
X607999*
X608536Y454232*
X608805Y453863*
X609073Y453125*
Y452387*
X608805Y451649*
X608268Y450541*
X605583Y446850*
X609341*
X683543Y453125D02*
X684080Y453494D01*
X684885Y454601*
Y446850*
X688912Y454601D02*
X688107Y454232D01*
X687570Y453125*
X687301Y451280*
Y450172*
X687570Y448327*
X688107Y447219*
X688912Y446850*
X689449*
X690254Y447219*
X690791Y448327*
X691059Y450172*
Y451280*
X690791Y453125*
X690254Y454232*
X689449Y454601*
X688912*
X693744Y452756D02*
Y453125D01*
X694012Y453863*
X694281Y454232*
X694817Y454601*
X695891*
X696428Y454232*
X696696Y453863*
X696965Y453125*
Y452387*
X696696Y451649*
X696160Y450541*
X693475Y446850*
X697233*
X720472Y452756D02*
X732283D01*
X726378Y446850D02*
Y458661D01*
X729331Y461909D02*
Y455709D01*
Y461909D02*
X730834D01*
X731478Y461614*
X731908Y461024*
X732122Y460433*
X732337Y459547*
Y458071*
X732122Y457185*
X731908Y456594*
X731478Y456004*
X730834Y455709*
X729331*
X753067Y454601D02*
X755215Y450910D01*
Y446850*
X757362Y454601D02*
X755215Y450910D01*
X759778Y454601D02*
Y446850D01*
Y454601D02*
X763268D01*
X759778Y450910D02*
X761926D01*
X759778Y446850D02*
X763268D01*
X769442Y453494D02*
X768905Y454232D01*
X768100Y454601*
X768100D02*
X767026D01*
X766220Y454232*
X765684Y453494*
Y452756*
X765952Y452018*
X766220Y451649*
X766757Y451280*
X768368Y450541*
X768905Y450172*
X769173Y449803*
X769442Y449065*
Y447958*
X768905Y447219*
X768100Y446850*
X768100D02*
X767026D01*
X766220Y447219*
X765684Y447958*
X808230Y454601D02*
Y446850D01*
X806351Y454601D02*
X810109D01*
X812525D02*
Y446850D01*
X816283Y454601D02*
Y446850D01*
X812525Y450910D02*
X816283D01*
X818699Y454601D02*
Y446850D01*
Y454601D02*
X821115D01*
X821920Y454232*
X822189Y453863*
X822457Y453125*
Y452387*
X822189Y451649*
X821920Y451280*
X821115Y450910*
X818699*
X820578D02*
X822457Y446850D01*
X864467Y453494D02*
Y446850D01*
X862051Y450172D02*
X866883D01*
X874130Y456078D02*
X869298Y444267D01*
X876546Y450172D02*
X881378D01*
X885404Y454601D02*
X884599Y454232D01*
X884062Y453125*
X883794Y451280*
Y450172*
X884062Y448327*
X884599Y447219*
X885404Y446850*
X885941*
X886747Y447219*
X887283Y448327*
X887552Y450172*
Y451280*
X887283Y453125*
X886747Y454232*
X885941Y454601*
X885404*
X890236Y447589D02*
X889968Y447219D01*
X890236Y446850*
X890505Y447219*
X890236Y447589*
X894531Y454601D02*
X893726Y454232D01*
X893189Y453125*
X892921Y451280*
Y450172*
X893189Y448327*
X893726Y447219*
X894531Y446850*
X895068*
X895873Y447219*
X896410Y448327*
X896679Y450172*
Y451280*
X896410Y453125*
X895873Y454232*
X895068Y454601*
X894531*
X596725Y429134D02*
Y429503D01*
X596994Y430241*
X597262Y430610*
X597799Y430979*
X598873*
X599409Y430610*
X599678Y430241*
X599946Y429503*
Y428765*
X599678Y428027*
X599141Y426919*
X596457Y423228*
X600215*
X602899Y423967D02*
X602631Y423597D01*
X602899Y423228*
X603168Y423597*
X603168D02*
X602899Y423967D01*
X606926Y430979D02*
X606120Y430610D01*
X605852Y429872*
Y429134*
X606120Y428396*
X606657Y428027*
X607731Y427657*
X608536Y427288*
X609073Y426550*
X609341Y425812*
Y424705*
X609073Y423967*
X608805Y423597*
X607999Y423228*
X606926*
X606120Y423597*
X605852Y423967*
X605583Y424705*
Y425812*
X605852Y426550*
X606389Y427288*
X607194Y427657*
X608268Y428027*
X608805Y428396*
X609073Y429134*
Y429872*
X608805Y430610*
X607999Y430979*
X606926*
X615515D02*
X612831Y423228D01*
X611757Y430979D02*
X615515D01*
X688778Y429134D02*
Y429503D01*
X689046Y430241*
X689315Y430610*
X689851Y430979*
X690925*
X691462Y430610*
X691730Y430241*
X691999Y429503*
Y428765*
X691730Y428027*
X691194Y426919*
X688509Y423228*
X692267*
X720472Y429134D02*
X732283D01*
X726378Y423228D02*
Y435039D01*
X729331Y438287D02*
Y432087D01*
X753067Y430979D02*
X755215Y427288D01*
Y423228*
X757362Y430979D02*
X755215Y427288D01*
X759778Y430979D02*
Y423228D01*
Y430979D02*
X763268D01*
X759778Y427288D02*
X761926D01*
X759778Y423228D02*
X763268D01*
X769442Y429872D02*
X768905Y430610D01*
X768100Y430979*
X768100D02*
X767026D01*
X766220Y430610*
X765684Y429872*
Y429134*
X765952Y428396*
X766220Y428027*
X766757Y427657*
X768368Y426919*
X768905Y426550*
X769173Y426181*
X769442Y425443*
Y424336*
X768905Y423597*
X768100Y423228*
X768100D02*
X767026D01*
X766220Y423597*
X765684Y424336*
X808230Y430979D02*
Y423228D01*
X806351Y430979D02*
X810109D01*
X812525D02*
Y423228D01*
X816283Y430979D02*
Y423228D01*
X812525Y427288D02*
X816283D01*
X818699Y430979D02*
Y423228D01*
Y430979D02*
X821115D01*
X821920Y430610*
X822189Y430241*
X822457Y429503*
Y428765*
X822189Y428027*
X821920Y427657*
X821115Y427288*
X818699*
X820578D02*
X822457Y423228D01*
X864467Y429872D02*
Y423228D01*
X862051Y426550D02*
X866883D01*
X874130Y432456D02*
X869298Y420645D01*
X876546Y426550D02*
X881378D01*
X885404Y430979D02*
X884599Y430610D01*
X884062Y429503*
X883794Y427657*
Y426550*
X884062Y424705*
X884599Y423597*
X885404Y423228*
X885941*
X886747Y423597*
X887283Y424705*
X887552Y426550*
Y427657*
X887283Y429503*
X886747Y430610*
X885941Y430979*
X885404*
X890236Y423967D02*
X889968Y423597D01*
X890236Y423228*
X890505Y423597*
X890236Y423967*
X894531Y430979D02*
X893726Y430610D01*
X893189Y429503*
X892921Y427657*
Y426550*
X893189Y424705*
X893726Y423597*
X894531Y423228*
X895068*
X895873Y423597*
X896410Y424705*
X896679Y426550*
Y427657*
X896410Y429503*
X895873Y430610*
X895068Y430979*
X894531*
X598067Y407357D02*
X597262Y406988D01*
X596725Y405881*
X596457Y404035*
Y402928*
X596725Y401083*
X597262Y399975*
X598067Y399606*
X598604*
X599409Y399975*
X599946Y401083*
X600215Y402928*
Y404035*
X599946Y405881*
X599409Y406988*
X598604Y407357*
X598067*
X602899Y400344D02*
X602631Y399975D01*
X602899Y399606*
X603168Y399975*
X603168D02*
X602899Y400344D01*
X609341Y407357D02*
X606657Y399606D01*
X605583Y407357D02*
X609341D01*
X686496Y405881D02*
X687033Y406250D01*
X687838Y407357*
Y399606*
X693744Y407357D02*
X691059D01*
X690791Y404035*
X691059Y404405*
X691865Y404774*
X692670*
X693475Y404405*
X694012Y403666*
X694281Y402559*
X694012Y401821*
X693744Y400714*
X693207Y399975*
X692402Y399606*
X691596*
X690791Y399975*
X690523Y400344*
X690254Y401083*
X720472Y405512D02*
X732283D01*
X726378Y399606D02*
Y411417D01*
X731478Y414665D02*
Y409941D01*
X731263Y409055*
X731049Y408760*
X730619Y408465*
X730190*
X729760Y408760*
X729545Y409055*
X729331Y409941*
Y410531*
X753067Y407357D02*
X755215Y403666D01*
Y399606*
X757362Y407357D02*
X755215Y403666D01*
X759778Y407357D02*
Y399606D01*
Y407357D02*
X763268D01*
X759778Y403666D02*
X761926D01*
X759778Y399606D02*
X763268D01*
X769442Y406250D02*
X768905Y406988D01*
X768100Y407357*
X768100D02*
X767026D01*
X766220Y406988*
X765684Y406250*
Y405512*
X765952Y404774*
X766220Y404405*
X766757Y404035*
X768368Y403297*
X768905Y402928*
X769173Y402559*
X769442Y401821*
Y400714*
X768905Y399975*
X768100Y399606*
X768100D02*
X767026D01*
X766220Y399975*
X765684Y400714*
X808230Y407357D02*
Y399606D01*
X806351Y407357D02*
X810109D01*
X812525D02*
Y399606D01*
X816283Y407357D02*
Y399606D01*
X812525Y403666D02*
X816283D01*
X818699Y407357D02*
Y399606D01*
Y407357D02*
X821115D01*
X821920Y406988*
X822189Y406619*
X822457Y405881*
Y405143*
X822189Y404405*
X821920Y404035*
X821115Y403666*
X818699*
X820578D02*
X822457Y399606D01*
X864467Y406250D02*
Y399606D01*
X862051Y402928D02*
X866883D01*
X874130Y408834D02*
X869298Y397023D01*
X876546Y402928D02*
X881378D01*
X885404Y407357D02*
X884599Y406988D01*
X884062Y405881*
X883794Y404035*
Y402928*
X884062Y401083*
X884599Y399975*
X885404Y399606*
X885941*
X886747Y399975*
X887283Y401083*
X887552Y402928*
Y404035*
X887283Y405881*
X886747Y406988*
X885941Y407357*
X885404*
X890236Y400344D02*
X889968Y399975D01*
X890236Y399606*
X890505Y399975*
X890236Y400344*
X894531Y407357D02*
X893726Y406988D01*
X893189Y405881*
X892921Y404035*
Y402928*
X893189Y401083*
X893726Y399975*
X894531Y399606*
X895068*
X895873Y399975*
X896410Y401083*
X896679Y402928*
Y404035*
X896410Y405881*
X895873Y406988*
X895068Y407357*
X894531*
G74*
X0Y0D02*
M02*
