M48
;FILE_FORMAT=2:4
INCH,LZ
FMAT,2
ICI,OFF
;TYPE=PLATED
T1C.00787
T2C.02756
T3C.03543
T4C.03937
T5C.04724
T6C.11299
;TYPE=NON_PLATED
T7C.15748
%
M72
G90
G93X0Y0
T1C.00787F0S0
X039705Y039706
X039705Y040706
X039705Y041706
X040705Y039706
X040705Y040706
X040705Y041706
X041705Y040706
X041705Y039706
X042705Y039706
X042705Y040706
X043705Y039706
X043705Y040706
X044705Y040706
X044705Y039706
X045705Y040706
X045705Y039706
X048705Y039706
X049449Y041039
X049449Y040039
X049449Y042039
X049449Y043039
X049449Y044039
X048705Y042706
X048705Y043706
X047717Y042953
X047705Y043706
X043346Y042913
X04311Y042283
X043071Y043622
X04252Y042874
X042402Y043583
X040705Y042706
X039705Y042706
X039705Y043706
X039705Y046706
X040705Y046706
X041705Y046706
X042705Y046706
X043622Y044921
X046705Y046706
X047705Y046706
X048705Y045706
X048705Y044706
X048705Y046706
X049449Y045039
X049449Y046039
X049449Y047039
X049449Y048039
X049449Y049039
X048705Y047706
X048705Y048706
X046705Y047706
X046705Y048706
X045705Y047706
X042705Y048706
X042705Y047706
X041705Y048706
X041705Y047706
X040705Y048706
X040705Y047706
X039705Y048706
X039705Y047706
X039705Y049706
X039705Y050706
X039705Y051706
X040315Y051535
X040705Y049706
X040705Y050706
X041496Y050394
X041705Y049706
X042705Y049706
X043031Y050472
X043819Y051496
X044705Y051706
X045705Y050706
X045705Y051706
X046705Y049706
X046705Y050706
X047705Y050706
X047705Y049706
X048705Y049706
X048705Y050706
X048705Y051706
X049449Y050039
X049449Y051039
X049449Y052039
X04937Y052835
X049118Y053386
X048705Y052706
X048118Y053386
X047118Y053386
X046705Y052706
X046118Y053386
X045705Y052706
X045118Y053386
X044118Y053386
X043898Y052598
X043465Y053386
X040787Y053386
X040394Y052717
X040118Y053386
X039705Y052706
T2C.02756F197S55
X044401Y044901
X044401Y045401
X044401Y045901
X044401Y046401
X044401Y046901
X044834Y045151
X044834Y045651
X044834Y046151
X044834Y046651
X044834Y047151
X044834Y047651
X044834Y048151
X044401Y047901
X044401Y048401
X044401Y047401
T3C.03543F197S55
X040354Y045515
X041339Y045515
X042323Y045515
T4C.03937F197S55
X044843Y052559
T5C.04724F139S55
X047441Y044488
X047441Y045472
X047441Y048031
X047441Y049016
X047441Y051575
X047441Y052559
T6C.11299F069S658
X044618Y043069
X044618Y050234
T7C.15748F035S9
X047441Y041142
X042126Y052165
M30
