  0
SECTION
  2
HEADER
  9
$ACADVER
  1
AC1014
  9
$INSBASE
 10
0.000000
 20
0.000000
  9
$LIMMIN
 10
-200.000000
 20
-200.000000
  9
$LIMMAX
 10
800.000000
 20
800.000000
  9
$EXTMIN
 10
-200.000000
 20
-200.000000
  9
$EXTMAX
 10
800.000000
 20
800.000000
  9
$ATTMODE
 70
0
  9
$LUNITS
 70
2
  9
$LUPREC
 70
4
  9
$THICKNESS
 40
1.198880
  9
$MEASUREMENT
 70
1
  9
$HANDSEED
  5
34f
  0
ENDSEC
  0
SECTION
  2
TABLES
  0
TABLE
  2
LTYPE
  5
4
100
AcDbSymbolTable
 70
3
  0
LTYPE
  5
1
100
AcDbSymbolTableRecord
100
AcDbLinetypeTableRecord
  3

  2
BYBLOCK
 70
0
 72
65
 73
0
 40
0.000000
  0
LTYPE
  5
2
100
AcDbSymbolTableRecord
100
AcDbLinetypeTableRecord
  3

  2
BYLAYER
 70
0
 72
65
 73
0
 40
0.000000
  0
LTYPE
  5
3
100
AcDbSymbolTableRecord
100
AcDbLinetypeTableRecord
  3
Solid Line
  2
CONTINUOUS
 70
0
 72
65
 73
0
 40
0.000000
  0
ENDTAB
  0
TABLE
  2
LAYER
  5
c
100
AcDbSymbolTable
 70
7
  0
LAYER
  5
5
100
AcDbSymbolTableRecord
100
AcDbLayerTableRecord
  2
0
 70
0
 62
7
  6
CONTINUOUS
  0
LAYER
  5
6
100
AcDbSymbolTableRecord
100
AcDbLayerTableRecord
  2
BG_SOLDERMASK_BOTTOM
 70
0
 62
231
  6
CONTINUOUS
  0
LAYER
  5
7
100
AcDbSymbolTableRecord
100
AcDbLayerTableRecord
  2
BG_SILKSCREEN_BOTTOM
 70
0
 62
254
  6
CONTINUOUS
  0
LAYER
  5
8
100
AcDbSymbolTableRecord
100
AcDbLayerTableRecord
  2
BG_OUTLINE
 70
0
 62
7
  6
CONTINUOUS
  0
LAYER
  5
9
100
AcDbSymbolTableRecord
100
AcDbLayerTableRecord
  2
PG_SILKSCREEN_BOTTOM
 70
0
 62
254
  6
CONTINUOUS
  0
LAYER
  5
a
100
AcDbSymbolTableRecord
100
AcDbLayerTableRecord
  2
PIN_BOTTOM
 70
0
 62
1
  6
CONTINUOUS
  0
LAYER
  5
b
100
AcDbSymbolTableRecord
100
AcDbLayerTableRecord
  2
RD_SILKSCREEN_BOTTOM
 70
0
 62
254
  6
CONTINUOUS
  0
ENDTAB
  0
TABLE
  2
STYLE
  5
e
100
AcDbSymbolTable
 70
1
  0
STYLE
  5
d
100
AcDbSymbolTableRecord
100
AcDbTextStyleTableRecord
  2
STANDARD
 70
0
 40
0.000000
 41
1.000000
 50
0.000000
 71
0
 42
0.200000
  3
txt
  0
ENDTAB
  0
TABLE
  2
VPORT
  5
f
100
AcDbSymbolTable
 70
1
  0
ENDTAB
  0
TABLE
  2
VIEW
  5
10
100
AcDbSymbolTable
 70
1
  0
ENDTAB
  0
TABLE
  2
APPID
  5
12
100
AcDbSymbolTable
 70
1
  0
APPID
  5
11
100
AcDbSymbolTableRecord
100
AcDbRegAppTableRecord
  2
ACAD
 70
0
  0
ENDTAB
  0
TABLE
  2
UCS
  5
13
100
AcDbSymbolTable
 70
1
  0
ENDTAB
  0
TABLE
  2
BLOCK_RECORD
  5
14
100
AcDbSymbolTable
 70
10
  0
BLOCK_RECORD
  5
70
100
AcDbSymbolTableRecord
100
AcDbBlockTableRecord
  2
FIGURE_DIAMOND
  0
BLOCK_RECORD
  5
67
100
AcDbSymbolTableRecord
100
AcDbBlockTableRecord
  2
FIGURE_CROSS
  0
BLOCK_RECORD
  5
5c
100
AcDbSymbolTableRecord
100
AcDbBlockTableRecord
  2
FIGURE_TRI
  0
BLOCK_RECORD
  5
54
100
AcDbSymbolTableRecord
100
AcDbBlockTableRecord
  2
FIGURE_OBLONG
  0
BLOCK_RECORD
  5
43
100
AcDbSymbolTableRecord
100
AcDbBlockTableRecord
  2
FIGURE_OCT
  0
BLOCK_RECORD
  5
36
100
AcDbSymbolTableRecord
100
AcDbBlockTableRecord
  2
FIGURE_HEX
  0
BLOCK_RECORD
  5
2b
100
AcDbSymbolTableRecord
100
AcDbBlockTableRecord
  2
FIGURE_SQUARE
  0
BLOCK_RECORD
  5
22
100
AcDbSymbolTableRecord
100
AcDbBlockTableRecord
  2
FIGURE_CIRCLE
  0
BLOCK_RECORD
  5
1e
100
AcDbSymbolTableRecord
100
AcDbBlockTableRecord
  2
*PAPER_SPACE
  0
BLOCK_RECORD
  5
1b
100
AcDbSymbolTableRecord
100
AcDbBlockTableRecord
  2
*MODEL_SPACE
  0
ENDTAB
  0
TABLE
  2
DIMSTYLE
  5
15
100
AcDbSymbolTable
 70
1
  0
ENDTAB
  0
ENDSEC
  0
SECTION
  2
BLOCKS
  0
BLOCK
  5
19
100
AcDbEntity
  8
0
100
AcDbBlockBegin
  2
*MODEL_SPACE
 70
0
 10
0.000000
 20
0.000000
  3
*MODEL_SPACE
  0
ENDBLK
  5
1a
100
AcDbEntity
  8
0
100
AcDbBlockEnd
  0
BLOCK
  5
1c
100
AcDbEntity
  8
0
100
AcDbBlockBegin
  2
*PAPER_SPACE
 70
0
 10
0.000000
 20
0.000000
  3
*PAPER_SPACE
  0
ENDBLK
  5
1d
100
AcDbEntity
  8
0
100
AcDbBlockEnd
  0
BLOCK
  5
1f
100
AcDbEntity
  8
0
100
AcDbBlockBegin
  2
FIGURE_CIRCLE
 70
0
 10
0.000000
 20
0.000000
  3
FIGURE_CIRCLE
  0
CIRCLE
  5
21
100
AcDbEntity
  8
0
100
AcDbCircle
 10
0.000000
 20
0.000000
 40
0.500000
  0
ENDBLK
  5
20
100
AcDbEntity
  8
0
100
AcDbBlockEnd
  0
BLOCK
  5
23
100
AcDbEntity
  8
0
100
AcDbBlockBegin
  2
FIGURE_SQUARE
 70
0
 10
0.000000
 20
0.000000
  3
FIGURE_SQUARE
  0
POLYLINE
  5
25
100
AcDbEntity
  8
0
100
AcDb2dPolyline
 66
1
 70
1
 40
0.000000
 41
0.000000
 39
0.000000
  0
VERTEX
  5
27
100
AcDbEntity
  8
0
100
AcDbVertex
100
AcDb2dVertex
 10
-0.500000
 20
-0.500000
 40
0.000000
 41
0.000000
 42
0.000000
  0
VERTEX
  5
28
100
AcDbEntity
  8
0
100
AcDbVertex
100
AcDb2dVertex
 10
-0.500000
 20
0.500000
 40
0.000000
 41
0.000000
 42
0.000000
  0
VERTEX
  5
29
100
AcDbEntity
  8
0
100
AcDbVertex
100
AcDb2dVertex
 10
0.500000
 20
0.500000
 40
0.000000
 41
0.000000
 42
0.000000
  0
VERTEX
  5
2a
100
AcDbEntity
  8
0
100
AcDbVertex
100
AcDb2dVertex
 10
0.500000
 20
-0.500000
 40
0.000000
 41
0.000000
 42
0.000000
  0
SEQEND
  5
26
100
AcDbEntity
  0
ENDBLK
  5
24
100
AcDbEntity
  8
0
100
AcDbBlockEnd
  0
BLOCK
  5
2c
100
AcDbEntity
  8
0
100
AcDbBlockBegin
  2
FIGURE_HEX
 70
0
 10
0.000000
 20
0.000000
  3
FIGURE_HEX
  0
POLYLINE
  5
2e
100
AcDbEntity
  8
0
100
AcDb2dPolyline
 66
1
 70
1
 40
0.000000
 41
0.000000
 39
0.000000
  0
VERTEX
  5
30
100
AcDbEntity
  8
0
100
AcDbVertex
100
AcDb2dVertex
 10
-0.500000
 20
0.000000
 40
0.000000
 41
0.000000
 42
0.000000
  0
VERTEX
  5
31
100
AcDbEntity
  8
0
100
AcDbVertex
100
AcDb2dVertex
 10
-0.250000
 20
0.500000
 40
0.000000
 41
0.000000
 42
0.000000
  0
VERTEX
  5
32
100
AcDbEntity
  8
0
100
AcDbVertex
100
AcDb2dVertex
 10
0.250000
 20
0.500000
 40
0.000000
 41
0.000000
 42
0.000000
  0
VERTEX
  5
33
100
AcDbEntity
  8
0
100
AcDbVertex
100
AcDb2dVertex
 10
0.500000
 20
0.000000
 40
0.000000
 41
0.000000
 42
0.000000
  0
VERTEX
  5
34
100
AcDbEntity
  8
0
100
AcDbVertex
100
AcDb2dVertex
 10
0.250000
 20
-0.500000
 40
0.000000
 41
0.000000
 42
0.000000
  0
VERTEX
  5
35
100
AcDbEntity
  8
0
100
AcDbVertex
100
AcDb2dVertex
 10
-0.250000
 20
-0.500000
 40
0.000000
 41
0.000000
 42
0.000000
  0
SEQEND
  5
2f
100
AcDbEntity
  0
ENDBLK
  5
2d
100
AcDbEntity
  8
0
100
AcDbBlockEnd
  0
BLOCK
  5
37
100
AcDbEntity
  8
0
100
AcDbBlockBegin
  2
FIGURE_OCT
 70
0
 10
0.000000
 20
0.000000
  3
FIGURE_OCT
  0
POLYLINE
  5
39
100
AcDbEntity
  8
0
100
AcDb2dPolyline
 66
1
 70
1
 40
0.000000
 41
0.000000
 39
0.000000
  0
VERTEX
  5
3b
100
AcDbEntity
  8
0
100
AcDbVertex
100
AcDb2dVertex
 10
-0.500000
 20
-0.207100
 40
0.000000
 41
0.000000
 42
0.000000
  0
VERTEX
  5
3c
100
AcDbEntity
  8
0
100
AcDbVertex
100
AcDb2dVertex
 10
-0.500000
 20
0.207100
 40
0.000000
 41
0.000000
 42
0.000000
  0
VERTEX
  5
3d
100
AcDbEntity
  8
0
100
AcDbVertex
100
AcDb2dVertex
 10
-0.207100
 20
0.500000
 40
0.000000
 41
0.000000
 42
0.000000
  0
VERTEX
  5
3e
100
AcDbEntity
  8
0
100
AcDbVertex
100
AcDb2dVertex
 10
0.207100
 20
0.500000
 40
0.000000
 41
0.000000
 42
0.000000
  0
VERTEX
  5
3f
100
AcDbEntity
  8
0
100
AcDbVertex
100
AcDb2dVertex
 10
0.500000
 20
0.207100
 40
0.000000
 41
0.000000
 42
0.000000
  0
VERTEX
  5
40
100
AcDbEntity
  8
0
100
AcDbVertex
100
AcDb2dVertex
 10
0.500000
 20
-0.207100
 40
0.000000
 41
0.000000
 42
0.000000
  0
VERTEX
  5
41
100
AcDbEntity
  8
0
100
AcDbVertex
100
AcDb2dVertex
 10
0.207100
 20
-0.500000
 40
0.000000
 41
0.000000
 42
0.000000
  0
VERTEX
  5
42
100
AcDbEntity
  8
0
100
AcDbVertex
100
AcDb2dVertex
 10
-0.207100
 20
-0.500000
 40
0.000000
 41
0.000000
 42
0.000000
  0
SEQEND
  5
3a
100
AcDbEntity
  0
ENDBLK
  5
38
100
AcDbEntity
  8
0
100
AcDbBlockEnd
  0
BLOCK
  5
44
100
AcDbEntity
  8
0
100
AcDbBlockBegin
  2
FIGURE_OBLONG
 70
0
 10
0.000000
 20
0.000000
  3
FIGURE_OBLONG
  0
POLYLINE
  5
46
100
AcDbEntity
  8
0
100
AcDb2dPolyline
 66
1
 70
1
 40
0.000000
 41
0.000000
 39
0.000000
  0
VERTEX
  5
48
100
AcDbEntity
  8
0
100
AcDbVertex
100
AcDb2dVertex
 10
-0.500000
 20
-0.125000
 40
0.000000
 41
0.000000
 42
0.000000
  0
VERTEX
  5
49
100
AcDbEntity
  8
0
100
AcDbVertex
100
AcDb2dVertex
 10
-0.500000
 20
0.125000
 40
0.000000
 41
0.000000
 42
0.000000
  0
VERTEX
  5
4a
100
AcDbEntity
  8
0
100
AcDbVertex
100
AcDb2dVertex
 10
-0.416000
 20
0.375000
 40
0.000000
 41
0.000000
 42
0.000000
  0
VERTEX
  5
4b
100
AcDbEntity
  8
0
100
AcDbVertex
100
AcDb2dVertex
 10
-0.250000
 20
0.500000
 40
0.000000
 41
0.000000
 42
0.000000
  0
VERTEX
  5
4c
100
AcDbEntity
  8
0
100
AcDbVertex
100
AcDb2dVertex
 10
0.250000
 20
0.500000
 40
0.000000
 41
0.000000
 42
0.000000
  0
VERTEX
  5
4d
100
AcDbEntity
  8
0
100
AcDbVertex
100
AcDb2dVertex
 10
0.416000
 20
0.375000
 40
0.000000
 41
0.000000
 42
0.000000
  0
VERTEX
  5
4e
100
AcDbEntity
  8
0
100
AcDbVertex
100
AcDb2dVertex
 10
0.500000
 20
0.125000
 40
0.000000
 41
0.000000
 42
0.000000
  0
VERTEX
  5
4f
100
AcDbEntity
  8
0
100
AcDbVertex
100
AcDb2dVertex
 10
0.500000
 20
-0.125000
 40
0.000000
 41
0.000000
 42
0.000000
  0
VERTEX
  5
50
100
AcDbEntity
  8
0
100
AcDbVertex
100
AcDb2dVertex
 10
0.416000
 20
-0.375000
 40
0.000000
 41
0.000000
 42
0.000000
  0
VERTEX
  5
51
100
AcDbEntity
  8
0
100
AcDbVertex
100
AcDb2dVertex
 10
0.250000
 20
-0.500000
 40
0.000000
 41
0.000000
 42
0.000000
  0
VERTEX
  5
52
100
AcDbEntity
  8
0
100
AcDbVertex
100
AcDb2dVertex
 10
-0.250000
 20
-0.500000
 40
0.000000
 41
0.000000
 42
0.000000
  0
VERTEX
  5
53
100
AcDbEntity
  8
0
100
AcDbVertex
100
AcDb2dVertex
 10
-0.416000
 20
-0.375000
 40
0.000000
 41
0.000000
 42
0.000000
  0
SEQEND
  5
47
100
AcDbEntity
  0
ENDBLK
  5
45
100
AcDbEntity
  8
0
100
AcDbBlockEnd
  0
BLOCK
  5
55
100
AcDbEntity
  8
0
100
AcDbBlockBegin
  2
FIGURE_TRI
 70
0
 10
0.000000
 20
0.000000
  3
FIGURE_TRI
  0
POLYLINE
  5
57
100
AcDbEntity
  8
0
100
AcDb2dPolyline
 66
1
 70
1
 40
0.000000
 41
0.000000
 39
0.000000
  0
VERTEX
  5
59
100
AcDbEntity
  8
0
100
AcDbVertex
100
AcDb2dVertex
 10
-0.500000
 20
-0.500000
 40
0.000000
 41
0.000000
 42
0.000000
  0
VERTEX
  5
5a
100
AcDbEntity
  8
0
100
AcDbVertex
100
AcDb2dVertex
 10
0.000000
 20
0.500000
 40
0.000000
 41
0.000000
 42
0.000000
  0
VERTEX
  5
5b
100
AcDbEntity
  8
0
100
AcDbVertex
100
AcDb2dVertex
 10
0.500000
 20
-0.500000
 40
0.000000
 41
0.000000
 42
0.000000
  0
SEQEND
  5
58
100
AcDbEntity
  0
ENDBLK
  5
56
100
AcDbEntity
  8
0
100
AcDbBlockEnd
  0
BLOCK
  5
5d
100
AcDbEntity
  8
0
100
AcDbBlockBegin
  2
FIGURE_CROSS
 70
0
 10
0.000000
 20
0.000000
  3
FIGURE_CROSS
  0
POLYLINE
  5
5f
100
AcDbEntity
  8
0
100
AcDb2dPolyline
 66
1
 70
0
 40
0.000000
 41
0.000000
 39
0.000000
  0
VERTEX
  5
63
100
AcDbEntity
  8
0
100
AcDbVertex
100
AcDb2dVertex
 10
-0.500000
 20
0.000000
 40
0.000000
 41
0.000000
 42
0.000000
  0
VERTEX
  5
64
100
AcDbEntity
  8
0
100
AcDbVertex
100
AcDb2dVertex
 10
0.500000
 20
0.000000
 40
0.000000
 41
0.000000
 42
0.000000
  0
SEQEND
  5
60
100
AcDbEntity
  0
POLYLINE
  5
61
100
AcDbEntity
  8
0
100
AcDb2dPolyline
 66
1
 70
0
 40
0.000000
 41
0.000000
 39
0.000000
  0
VERTEX
  5
65
100
AcDbEntity
  8
0
100
AcDbVertex
100
AcDb2dVertex
 10
0.000000
 20
0.500000
 40
0.000000
 41
0.000000
 42
0.000000
  0
VERTEX
  5
66
100
AcDbEntity
  8
0
100
AcDbVertex
100
AcDb2dVertex
 10
0.000000
 20
-0.500000
 40
0.000000
 41
0.000000
 42
0.000000
  0
SEQEND
  5
62
100
AcDbEntity
  0
ENDBLK
  5
5e
100
AcDbEntity
  8
0
100
AcDbBlockEnd
  0
BLOCK
  5
68
100
AcDbEntity
  8
0
100
AcDbBlockBegin
  2
FIGURE_DIAMOND
 70
0
 10
0.000000
 20
0.000000
  3
FIGURE_DIAMOND
  0
POLYLINE
  5
6a
100
AcDbEntity
  8
0
100
AcDb2dPolyline
 66
1
 70
1
 40
0.000000
 41
0.000000
 39
0.000000
  0
VERTEX
  5
6c
100
AcDbEntity
  8
0
100
AcDbVertex
100
AcDb2dVertex
 10
-0.500000
 20
0.000000
 40
0.000000
 41
0.000000
 42
0.000000
  0
VERTEX
  5
6d
100
AcDbEntity
  8
0
100
AcDbVertex
100
AcDb2dVertex
 10
0.000000
 20
0.500000
 40
0.000000
 41
0.000000
 42
0.000000
  0
VERTEX
  5
6e
100
AcDbEntity
  8
0
100
AcDbVertex
100
AcDb2dVertex
 10
0.500000
 20
0.000000
 40
0.000000
 41
0.000000
 42
0.000000
  0
VERTEX
  5
6f
100
AcDbEntity
  8
0
100
AcDbVertex
100
AcDb2dVertex
 10
0.000000
 20
-0.500000
 40
0.000000
 41
0.000000
 42
0.000000
  0
SEQEND
  5
6b
100
AcDbEntity
  0
ENDBLK
  5
69
100
AcDbEntity
  8
0
100
AcDbBlockEnd
  0
ENDSEC
  0
SECTION
  2
ENTITIES
  0
HATCH
  5
74
100
AcDbEntity
  8
PIN_BOTTOM
100
AcDbHatch
 10
0.000000
 20
0.000000
 30
0.000000
210
0.000000
220
0.000000
230
1.000000
  2
SOLID
 70
1
 71
0
 91
1
 92
2
 72
1
 73
1
 93
2
 10
162.470000
 20
35.420000
 42
1.000000
 10
160.970000
 20
35.420000
 42
1.000000
 97
0
 75
0
 76
1
 98
1
 10
0.000000
 20
0.000000
  0
HATCH
  5
78
100
AcDbEntity
  8
PIN_BOTTOM
100
AcDbHatch
 10
0.000000
 20
0.000000
 30
0.000000
210
0.000000
220
0.000000
230
1.000000
  2
SOLID
 70
1
 71
0
 91
1
 92
2
 72
1
 73
1
 93
2
 10
162.470000
 20
32.880000
 42
1.000000
 10
160.970000
 20
32.880000
 42
1.000000
 97
0
 75
0
 76
1
 98
1
 10
0.000000
 20
0.000000
  0
HATCH
  5
7c
100
AcDbEntity
  8
PIN_BOTTOM
100
AcDbHatch
 10
0.000000
 20
0.000000
 30
0.000000
210
0.000000
220
0.000000
230
1.000000
  2
SOLID
 70
1
 71
0
 91
1
 92
2
 72
1
 73
1
 93
2
 10
159.930000
 20
35.420000
 42
1.000000
 10
158.430000
 20
35.420000
 42
1.000000
 97
0
 75
0
 76
1
 98
1
 10
0.000000
 20
0.000000
  0
HATCH
  5
80
100
AcDbEntity
  8
PIN_BOTTOM
100
AcDbHatch
 10
0.000000
 20
0.000000
 30
0.000000
210
0.000000
220
0.000000
230
1.000000
  2
SOLID
 70
1
 71
0
 91
1
 92
2
 72
1
 73
1
 93
2
 10
159.930000
 20
32.880000
 42
1.000000
 10
158.430000
 20
32.880000
 42
1.000000
 97
0
 75
0
 76
1
 98
1
 10
0.000000
 20
0.000000
  0
HATCH
  5
84
100
AcDbEntity
  8
PIN_BOTTOM
100
AcDbHatch
 10
0.000000
 20
0.000000
 30
0.000000
210
0.000000
220
0.000000
230
1.000000
  2
SOLID
 70
1
 71
0
 91
1
 92
2
 72
1
 73
1
 93
2
 10
10.500000
 20
155.000000
 42
1.000000
 10
9.500000
 20
155.000000
 42
1.000000
 97
0
 75
0
 76
1
 98
1
 10
0.000000
 20
0.000000
  0
HATCH
  5
88
100
AcDbEntity
  8
PIN_BOTTOM
100
AcDbHatch
 10
0.000000
 20
0.000000
 30
0.000000
210
0.000000
220
0.000000
230
1.000000
  2
SOLID
 70
1
 71
0
 91
1
 92
2
 72
1
 73
1
 93
2
 10
170.500000
 20
155.000000
 42
1.000000
 10
169.500000
 20
155.000000
 42
1.000000
 97
0
 75
0
 76
1
 98
1
 10
0.000000
 20
0.000000
  0
HATCH
  5
8c
100
AcDbEntity
  8
PIN_BOTTOM
100
AcDbHatch
 10
0.000000
 20
0.000000
 30
0.000000
210
0.000000
220
0.000000
230
1.000000
  2
SOLID
 70
1
 71
0
 91
1
 92
2
 72
1
 73
1
 93
2
 10
10.500000
 20
-5.000000
 42
1.000000
 10
9.500000
 20
-5.000000
 42
1.000000
 97
0
 75
0
 76
1
 98
1
 10
0.000000
 20
0.000000
  0
HATCH
  5
90
100
AcDbEntity
  8
PIN_BOTTOM
100
AcDbHatch
 10
0.000000
 20
0.000000
 30
0.000000
210
0.000000
220
0.000000
230
1.000000
  2
SOLID
 70
1
 71
0
 91
1
 92
2
 72
1
 73
1
 93
2
 10
7.005000
 20
155.000000
 42
1.000000
 10
2.995000
 20
155.000000
 42
1.000000
 97
0
 75
0
 76
1
 98
1
 10
0.000000
 20
0.000000
  0
HATCH
  5
94
100
AcDbEntity
  8
PIN_BOTTOM
100
AcDbHatch
 10
0.000000
 20
0.000000
 30
0.000000
210
0.000000
220
0.000000
230
1.000000
  2
SOLID
 70
1
 71
0
 91
1
 92
2
 72
1
 73
1
 93
2
 10
177.005000
 20
155.000000
 42
1.000000
 10
172.995000
 20
155.000000
 42
1.000000
 97
0
 75
0
 76
1
 98
1
 10
0.000000
 20
0.000000
  0
HATCH
  5
98
100
AcDbEntity
  8
PIN_BOTTOM
100
AcDbHatch
 10
0.000000
 20
0.000000
 30
0.000000
210
0.000000
220
0.000000
230
1.000000
  2
SOLID
 70
1
 71
0
 91
1
 92
2
 72
1
 73
1
 93
2
 10
7.005000
 20
-5.000000
 42
1.000000
 10
2.995000
 20
-5.000000
 42
1.000000
 97
0
 75
0
 76
1
 98
1
 10
0.000000
 20
0.000000
  0
HATCH
  5
9c
100
AcDbEntity
  8
PIN_BOTTOM
100
AcDbHatch
 10
0.000000
 20
0.000000
 30
0.000000
210
0.000000
220
0.000000
230
1.000000
  2
SOLID
 70
1
 71
0
 91
1
 92
2
 72
1
 73
1
 93
2
 10
177.005000
 20
-5.000000
 42
1.000000
 10
172.995000
 20
-5.000000
 42
1.000000
 97
0
 75
0
 76
1
 98
1
 10
0.000000
 20
0.000000
  0
HATCH
  5
a0
100
AcDbEntity
  8
PIN_BOTTOM
100
AcDbHatch
 10
0.000000
 20
0.000000
 30
0.000000
210
0.000000
220
0.000000
230
1.000000
  2
SOLID
 70
1
 71
0
 91
1
 92
2
 72
1
 73
1
 93
2
 10
176.500000
 20
65.150000
 42
1.000000
 10
175.000000
 20
65.150000
 42
1.000000
 97
0
 75
0
 76
1
 98
1
 10
0.000000
 20
0.000000
  0
HATCH
  5
a4
100
AcDbEntity
  8
PIN_BOTTOM
100
AcDbHatch
 10
0.000000
 20
0.000000
 30
0.000000
210
0.000000
220
0.000000
230
1.000000
  2
SOLID
 70
1
 71
0
 91
1
 92
2
 72
1
 73
1
 93
2
 10
176.500000
 20
62.650000
 42
1.000000
 10
175.000000
 20
62.650000
 42
1.000000
 97
0
 75
0
 76
1
 98
1
 10
0.000000
 20
0.000000
  0
HATCH
  5
a8
100
AcDbEntity
  8
PIN_BOTTOM
100
AcDbHatch
 10
0.000000
 20
0.000000
 30
0.000000
210
0.000000
220
0.000000
230
1.000000
  2
SOLID
 70
1
 71
0
 91
1
 92
2
 72
1
 73
1
 93
2
 10
174.150100
 20
58.550000
 42
1.000000
 10
172.949900
 20
58.550000
 42
1.000000
 97
0
 75
0
 76
1
 98
1
 10
0.000000
 20
0.000000
  0
HATCH
  5
ac
100
AcDbEntity
  8
PIN_BOTTOM
100
AcDbHatch
 10
0.000000
 20
0.000000
 30
0.000000
210
0.000000
220
0.000000
230
1.000000
  2
SOLID
 70
1
 71
0
 91
1
 92
2
 72
1
 73
1
 93
2
 10
176.500000
 20
60.150000
 42
1.000000
 10
175.000000
 20
60.150000
 42
1.000000
 97
0
 75
0
 76
1
 98
1
 10
0.000000
 20
0.000000
  0
HATCH
  5
b0
100
AcDbEntity
  8
PIN_BOTTOM
100
AcDbHatch
 10
0.000000
 20
0.000000
 30
0.000000
210
0.000000
220
0.000000
230
1.000000
  2
SOLID
 70
1
 71
0
 91
1
 92
2
 72
1
 73
1
 93
2
 10
176.550000
 20
98.750000
 42
1.000000
 10
175.050000
 20
98.750000
 42
1.000000
 97
0
 75
0
 76
1
 98
1
 10
0.000000
 20
0.000000
  0
HATCH
  5
b4
100
AcDbEntity
  8
PIN_BOTTOM
100
AcDbHatch
 10
0.000000
 20
0.000000
 30
0.000000
210
0.000000
220
0.000000
230
1.000000
  2
SOLID
 70
1
 71
0
 91
1
 92
2
 72
1
 73
1
 93
2
 10
176.550000
 20
96.250000
 42
1.000000
 10
175.050000
 20
96.250000
 42
1.000000
 97
0
 75
0
 76
1
 98
1
 10
0.000000
 20
0.000000
  0
HATCH
  5
b8
100
AcDbEntity
  8
PIN_BOTTOM
100
AcDbHatch
 10
0.000000
 20
0.000000
 30
0.000000
210
0.000000
220
0.000000
230
1.000000
  2
SOLID
 70
1
 71
0
 91
1
 92
2
 72
1
 73
1
 93
2
 10
174.200100
 20
92.150000
 42
1.000000
 10
172.999900
 20
92.150000
 42
1.000000
 97
0
 75
0
 76
1
 98
1
 10
0.000000
 20
0.000000
  0
HATCH
  5
bc
100
AcDbEntity
  8
PIN_BOTTOM
100
AcDbHatch
 10
0.000000
 20
0.000000
 30
0.000000
210
0.000000
220
0.000000
230
1.000000
  2
SOLID
 70
1
 71
0
 91
1
 92
2
 72
1
 73
1
 93
2
 10
176.550000
 20
93.750000
 42
1.000000
 10
175.050000
 20
93.750000
 42
1.000000
 97
0
 75
0
 76
1
 98
1
 10
0.000000
 20
0.000000
  0
HATCH
  5
c0
100
AcDbEntity
  8
PIN_BOTTOM
100
AcDbHatch
 10
0.000000
 20
0.000000
 30
0.000000
210
0.000000
220
0.000000
230
1.000000
  2
SOLID
 70
1
 71
0
 91
1
 92
2
 72
1
 73
1
 93
2
 10
176.350000
 20
36.700000
 42
1.000000
 10
174.850000
 20
36.700000
 42
1.000000
 97
0
 75
0
 76
1
 98
1
 10
0.000000
 20
0.000000
  0
HATCH
  5
c4
100
AcDbEntity
  8
PIN_BOTTOM
100
AcDbHatch
 10
0.000000
 20
0.000000
 30
0.000000
210
0.000000
220
0.000000
230
1.000000
  2
SOLID
 70
1
 71
0
 91
1
 92
2
 72
1
 73
1
 93
2
 10
176.350000
 20
34.200000
 42
1.000000
 10
174.850000
 20
34.200000
 42
1.000000
 97
0
 75
0
 76
1
 98
1
 10
0.000000
 20
0.000000
  0
HATCH
  5
c8
100
AcDbEntity
  8
PIN_BOTTOM
100
AcDbHatch
 10
0.000000
 20
0.000000
 30
0.000000
210
0.000000
220
0.000000
230
1.000000
  2
SOLID
 70
1
 71
0
 91
1
 92
2
 72
1
 73
1
 93
2
 10
174.000100
 20
30.100000
 42
1.000000
 10
172.799900
 20
30.100000
 42
1.000000
 97
0
 75
0
 76
1
 98
1
 10
0.000000
 20
0.000000
  0
HATCH
  5
cc
100
AcDbEntity
  8
PIN_BOTTOM
100
AcDbHatch
 10
0.000000
 20
0.000000
 30
0.000000
210
0.000000
220
0.000000
230
1.000000
  2
SOLID
 70
1
 71
0
 91
1
 92
2
 72
1
 73
1
 93
2
 10
176.350000
 20
31.700000
 42
1.000000
 10
174.850000
 20
31.700000
 42
1.000000
 97
0
 75
0
 76
1
 98
1
 10
0.000000
 20
0.000000
  0
HATCH
  5
d0
100
AcDbEntity
  8
PIN_BOTTOM
100
AcDbHatch
 10
0.000000
 20
0.000000
 30
0.000000
210
0.000000
220
0.000000
230
1.000000
  2
SOLID
 70
1
 71
0
 91
1
 92
2
 72
1
 73
1
 93
2
 10
160.070000
 20
8.450000
 42
1.000000
 10
158.570000
 20
8.450000
 42
1.000000
 97
0
 75
0
 76
1
 98
1
 10
0.000000
 20
0.000000
  0
HATCH
  5
d4
100
AcDbEntity
  8
PIN_BOTTOM
100
AcDbHatch
 10
0.000000
 20
0.000000
 30
0.000000
210
0.000000
220
0.000000
230
1.000000
  2
SOLID
 70
1
 71
0
 91
1
 92
2
 72
1
 73
1
 93
2
 10
160.070000
 20
5.950000
 42
1.000000
 10
158.570000
 20
5.950000
 42
1.000000
 97
0
 75
0
 76
1
 98
1
 10
0.000000
 20
0.000000
  0
HATCH
  5
d8
100
AcDbEntity
  8
PIN_BOTTOM
100
AcDbHatch
 10
0.000000
 20
0.000000
 30
0.000000
210
0.000000
220
0.000000
230
1.000000
  2
SOLID
 70
1
 71
0
 91
1
 92
2
 72
1
 73
1
 93
2
 10
157.720100
 20
1.850000
 42
1.000000
 10
156.519900
 20
1.850000
 42
1.000000
 97
0
 75
0
 76
1
 98
1
 10
0.000000
 20
0.000000
  0
HATCH
  5
dc
100
AcDbEntity
  8
PIN_BOTTOM
100
AcDbHatch
 10
0.000000
 20
0.000000
 30
0.000000
210
0.000000
220
0.000000
230
1.000000
  2
SOLID
 70
1
 71
0
 91
1
 92
2
 72
1
 73
1
 93
2
 10
160.070000
 20
3.450000
 42
1.000000
 10
158.570000
 20
3.450000
 42
1.000000
 97
0
 75
0
 76
1
 98
1
 10
0.000000
 20
0.000000
  0
HATCH
  5
e0
100
AcDbEntity
  8
PIN_BOTTOM
100
AcDbHatch
 10
0.000000
 20
0.000000
 30
0.000000
210
0.000000
220
0.000000
230
1.000000
  2
SOLID
 70
1
 71
0
 91
1
 92
2
 72
1
 73
1
 93
2
 10
158.050000
 20
145.800000
 42
1.000000
 10
156.250000
 20
145.800000
 42
1.000000
 97
0
 75
0
 76
1
 98
1
 10
0.000000
 20
0.000000
  0
HATCH
  5
e4
100
AcDbEntity
  8
PIN_BOTTOM
100
AcDbHatch
 10
0.000000
 20
0.000000
 30
0.000000
210
0.000000
220
0.000000
230
1.000000
  2
SOLID
 70
1
 71
0
 91
1
 92
2
 72
1
 73
1
 93
2
 10
154.550000
 20
145.800000
 42
1.000000
 10
152.750000
 20
145.800000
 42
1.000000
 97
0
 75
0
 76
1
 98
1
 10
0.000000
 20
0.000000
  0
HATCH
  5
e8
100
AcDbEntity
  8
PIN_BOTTOM
100
AcDbHatch
 10
0.000000
 20
0.000000
 30
0.000000
210
0.000000
220
0.000000
230
1.000000
  2
SOLID
 70
1
 71
0
 91
1
 92
2
 72
1
 73
1
 93
2
 10
151.050000
 20
145.800000
 42
1.000000
 10
149.250000
 20
145.800000
 42
1.000000
 97
0
 75
0
 76
1
 98
1
 10
0.000000
 20
0.000000
  0
HATCH
  5
ec
100
AcDbEntity
  8
PIN_BOTTOM
100
AcDbHatch
 10
0.000000
 20
0.000000
 30
0.000000
210
0.000000
220
0.000000
230
1.000000
  2
SOLID
 70
1
 71
0
 91
1
 92
2
 72
1
 73
1
 93
2
 10
147.550000
 20
145.800000
 42
1.000000
 10
145.750000
 20
145.800000
 42
1.000000
 97
0
 75
0
 76
1
 98
1
 10
0.000000
 20
0.000000
  0
HATCH
  5
f0
100
AcDbEntity
  8
PIN_BOTTOM
100
AcDbHatch
 10
0.000000
 20
0.000000
 30
0.000000
210
0.000000
220
0.000000
230
1.000000
  2
SOLID
 70
1
 71
0
 91
1
 92
2
 72
1
 73
1
 93
2
 10
144.050000
 20
145.800000
 42
1.000000
 10
142.250000
 20
145.800000
 42
1.000000
 97
0
 75
0
 76
1
 98
1
 10
0.000000
 20
0.000000
  0
HATCH
  5
f4
100
AcDbEntity
  8
PIN_BOTTOM
100
AcDbHatch
 10
0.000000
 20
0.000000
 30
0.000000
210
0.000000
220
0.000000
230
1.000000
  2
SOLID
 70
1
 71
0
 91
1
 92
2
 72
1
 73
1
 93
2
 10
140.550000
 20
145.800000
 42
1.000000
 10
138.750000
 20
145.800000
 42
1.000000
 97
0
 75
0
 76
1
 98
1
 10
0.000000
 20
0.000000
  0
HATCH
  5
f8
100
AcDbEntity
  8
PIN_BOTTOM
100
AcDbHatch
 10
0.000000
 20
0.000000
 30
0.000000
210
0.000000
220
0.000000
230
1.000000
  2
SOLID
 70
1
 71
0
 91
1
 92
2
 72
1
 73
1
 93
2
 10
137.050000
 20
145.800000
 42
1.000000
 10
135.250000
 20
145.800000
 42
1.000000
 97
0
 75
0
 76
1
 98
1
 10
0.000000
 20
0.000000
  0
HATCH
  5
fc
100
AcDbEntity
  8
PIN_BOTTOM
100
AcDbHatch
 10
0.000000
 20
0.000000
 30
0.000000
210
0.000000
220
0.000000
230
1.000000
  2
SOLID
 70
1
 71
0
 91
1
 92
2
 72
1
 73
1
 93
2
 10
133.550000
 20
145.800000
 42
1.000000
 10
131.750000
 20
145.800000
 42
1.000000
 97
0
 75
0
 76
1
 98
1
 10
0.000000
 20
0.000000
  0
HATCH
  5
100
100
AcDbEntity
  8
PIN_BOTTOM
100
AcDbHatch
 10
0.000000
 20
0.000000
 30
0.000000
210
0.000000
220
0.000000
230
1.000000
  2
SOLID
 70
1
 71
0
 91
1
 92
2
 72
1
 73
1
 93
2
 10
130.050000
 20
145.800000
 42
1.000000
 10
128.250000
 20
145.800000
 42
1.000000
 97
0
 75
0
 76
1
 98
1
 10
0.000000
 20
0.000000
  0
HATCH
  5
104
100
AcDbEntity
  8
PIN_BOTTOM
100
AcDbHatch
 10
0.000000
 20
0.000000
 30
0.000000
210
0.000000
220
0.000000
230
1.000000
  2
SOLID
 70
1
 71
0
 91
1
 92
2
 72
1
 73
1
 93
2
 10
126.550000
 20
145.800000
 42
1.000000
 10
124.750000
 20
145.800000
 42
1.000000
 97
0
 75
0
 76
1
 98
1
 10
0.000000
 20
0.000000
  0
HATCH
  5
108
100
AcDbEntity
  8
PIN_BOTTOM
100
AcDbHatch
 10
0.000000
 20
0.000000
 30
0.000000
210
0.000000
220
0.000000
230
1.000000
  2
SOLID
 70
1
 71
0
 91
1
 92
2
 72
1
 73
1
 93
2
 10
123.050000
 20
145.800000
 42
1.000000
 10
121.250000
 20
145.800000
 42
1.000000
 97
0
 75
0
 76
1
 98
1
 10
0.000000
 20
0.000000
  0
HATCH
  5
10c
100
AcDbEntity
  8
PIN_BOTTOM
100
AcDbHatch
 10
0.000000
 20
0.000000
 30
0.000000
210
0.000000
220
0.000000
230
1.000000
  2
SOLID
 70
1
 71
0
 91
1
 92
2
 72
1
 73
1
 93
2
 10
119.550000
 20
145.800000
 42
1.000000
 10
117.750000
 20
145.800000
 42
1.000000
 97
0
 75
0
 76
1
 98
1
 10
0.000000
 20
0.000000
  0
HATCH
  5
110
100
AcDbEntity
  8
PIN_BOTTOM
100
AcDbHatch
 10
0.000000
 20
0.000000
 30
0.000000
210
0.000000
220
0.000000
230
1.000000
  2
SOLID
 70
1
 71
0
 91
1
 92
2
 72
1
 73
1
 93
2
 10
116.050000
 20
145.800000
 42
1.000000
 10
114.250000
 20
145.800000
 42
1.000000
 97
0
 75
0
 76
1
 98
1
 10
0.000000
 20
0.000000
  0
HATCH
  5
114
100
AcDbEntity
  8
PIN_BOTTOM
100
AcDbHatch
 10
0.000000
 20
0.000000
 30
0.000000
210
0.000000
220
0.000000
230
1.000000
  2
SOLID
 70
1
 71
0
 91
1
 92
2
 72
1
 73
1
 93
2
 10
112.550000
 20
145.800000
 42
1.000000
 10
110.750000
 20
145.800000
 42
1.000000
 97
0
 75
0
 76
1
 98
1
 10
0.000000
 20
0.000000
  0
HATCH
  5
118
100
AcDbEntity
  8
PIN_BOTTOM
100
AcDbHatch
 10
0.000000
 20
0.000000
 30
0.000000
210
0.000000
220
0.000000
230
1.000000
  2
SOLID
 70
1
 71
0
 91
1
 92
2
 72
1
 73
1
 93
2
 10
109.050000
 20
145.800000
 42
1.000000
 10
107.250000
 20
145.800000
 42
1.000000
 97
0
 75
0
 76
1
 98
1
 10
0.000000
 20
0.000000
  0
HATCH
  5
11c
100
AcDbEntity
  8
PIN_BOTTOM
100
AcDbHatch
 10
0.000000
 20
0.000000
 30
0.000000
210
0.000000
220
0.000000
230
1.000000
  2
SOLID
 70
1
 71
0
 91
1
 92
2
 72
1
 73
1
 93
2
 10
105.550000
 20
145.800000
 42
1.000000
 10
103.750000
 20
145.800000
 42
1.000000
 97
0
 75
0
 76
1
 98
1
 10
0.000000
 20
0.000000
  0
HATCH
  5
120
100
AcDbEntity
  8
PIN_BOTTOM
100
AcDbHatch
 10
0.000000
 20
0.000000
 30
0.000000
210
0.000000
220
0.000000
230
1.000000
  2
SOLID
 70
1
 71
0
 91
1
 92
2
 72
1
 73
1
 93
2
 10
14.750000
 20
132.850000
 42
1.000000
 10
13.550000
 20
132.850000
 42
1.000000
 97
0
 75
0
 76
1
 98
1
 10
0.000000
 20
0.000000
  0
HATCH
  5
124
100
AcDbEntity
  8
PIN_BOTTOM
100
AcDbHatch
 10
0.000000
 20
0.000000
 30
0.000000
210
0.000000
220
0.000000
230
1.000000
  2
SOLID
 70
1
 71
0
 91
1
 92
2
 72
1
 73
1
 93
2
 10
4.750000
 20
132.850000
 42
1.000000
 10
3.550000
 20
132.850000
 42
1.000000
 97
0
 75
0
 76
1
 98
1
 10
0.000000
 20
0.000000
  0
HATCH
  5
128
100
AcDbEntity
  8
PIN_BOTTOM
100
AcDbHatch
 10
0.000000
 20
0.000000
 30
0.000000
210
0.000000
220
0.000000
230
1.000000
  2
SOLID
 70
1
 71
0
 91
1
 92
2
 72
1
 73
1
 93
2
 10
74.000000
 20
4.100000
 42
1.000000
 10
72.700000
 20
4.100000
 42
1.000000
 97
0
 75
0
 76
1
 98
1
 10
0.000000
 20
0.000000
  0
HATCH
  5
12c
100
AcDbEntity
  8
PIN_BOTTOM
100
AcDbHatch
 10
0.000000
 20
0.000000
 30
0.000000
210
0.000000
220
0.000000
230
1.000000
  2
SOLID
 70
1
 71
0
 91
1
 92
2
 72
1
 73
1
 93
2
 10
71.500000
 20
4.100000
 42
1.000000
 10
70.200000
 20
4.100000
 42
1.000000
 97
0
 75
0
 76
1
 98
1
 10
0.000000
 20
0.000000
  0
HATCH
  5
130
100
AcDbEntity
  8
PIN_BOTTOM
100
AcDbHatch
 10
0.000000
 20
0.000000
 30
0.000000
210
0.000000
220
0.000000
230
1.000000
  2
SOLID
 70
1
 71
0
 91
1
 92
2
 72
1
 73
1
 93
2
 10
69.000000
 20
4.100000
 42
1.000000
 10
67.700000
 20
4.100000
 42
1.000000
 97
0
 75
0
 76
1
 98
1
 10
0.000000
 20
0.000000
  0
HATCH
  5
134
100
AcDbEntity
  8
PIN_BOTTOM
100
AcDbHatch
 10
0.000000
 20
0.000000
 30
0.000000
210
0.000000
220
0.000000
230
1.000000
  2
SOLID
 70
1
 71
0
 91
1
 92
2
 72
1
 73
1
 93
2
 10
66.500000
 20
4.100000
 42
1.000000
 10
65.200000
 20
4.100000
 42
1.000000
 97
0
 75
0
 76
1
 98
1
 10
0.000000
 20
0.000000
  0
HATCH
  5
138
100
AcDbEntity
  8
PIN_BOTTOM
100
AcDbHatch
 10
0.000000
 20
0.000000
 30
0.000000
210
0.000000
220
0.000000
230
1.000000
  2
SOLID
 70
1
 71
0
 91
1
 92
2
 72
1
 73
1
 93
2
 10
64.000000
 20
4.100000
 42
1.000000
 10
62.700000
 20
4.100000
 42
1.000000
 97
0
 75
0
 76
1
 98
1
 10
0.000000
 20
0.000000
  0
HATCH
  5
13c
100
AcDbEntity
  8
PIN_BOTTOM
100
AcDbHatch
 10
0.000000
 20
0.000000
 30
0.000000
210
0.000000
220
0.000000
230
1.000000
  2
SOLID
 70
1
 71
0
 91
1
 92
2
 72
1
 73
1
 93
2
 10
76.500000
 20
4.100000
 42
1.000000
 10
75.200000
 20
4.100000
 42
1.000000
 97
0
 75
0
 76
1
 98
1
 10
0.000000
 20
0.000000
  0
HATCH
  5
140
100
AcDbEntity
  8
PIN_BOTTOM
100
AcDbHatch
 10
0.000000
 20
0.000000
 30
0.000000
210
0.000000
220
0.000000
230
1.000000
  2
SOLID
 70
1
 71
0
 91
1
 92
2
 72
1
 73
1
 93
2
 10
53.100000
 20
4.100000
 42
1.000000
 10
51.800000
 20
4.100000
 42
1.000000
 97
0
 75
0
 76
1
 98
1
 10
0.000000
 20
0.000000
  0
HATCH
  5
144
100
AcDbEntity
  8
PIN_BOTTOM
100
AcDbHatch
 10
0.000000
 20
0.000000
 30
0.000000
210
0.000000
220
0.000000
230
1.000000
  2
SOLID
 70
1
 71
0
 91
1
 92
2
 72
1
 73
1
 93
2
 10
50.600000
 20
4.100000
 42
1.000000
 10
49.300000
 20
4.100000
 42
1.000000
 97
0
 75
0
 76
1
 98
1
 10
0.000000
 20
0.000000
  0
HATCH
  5
148
100
AcDbEntity
  8
PIN_BOTTOM
100
AcDbHatch
 10
0.000000
 20
0.000000
 30
0.000000
210
0.000000
220
0.000000
230
1.000000
  2
SOLID
 70
1
 71
0
 91
1
 92
2
 72
1
 73
1
 93
2
 10
48.100000
 20
4.100000
 42
1.000000
 10
46.800000
 20
4.100000
 42
1.000000
 97
0
 75
0
 76
1
 98
1
 10
0.000000
 20
0.000000
  0
HATCH
  5
14c
100
AcDbEntity
  8
PIN_BOTTOM
100
AcDbHatch
 10
0.000000
 20
0.000000
 30
0.000000
210
0.000000
220
0.000000
230
1.000000
  2
SOLID
 70
1
 71
0
 91
1
 92
2
 72
1
 73
1
 93
2
 10
45.600000
 20
4.100000
 42
1.000000
 10
44.300000
 20
4.100000
 42
1.000000
 97
0
 75
0
 76
1
 98
1
 10
0.000000
 20
0.000000
  0
HATCH
  5
150
100
AcDbEntity
  8
PIN_BOTTOM
100
AcDbHatch
 10
0.000000
 20
0.000000
 30
0.000000
210
0.000000
220
0.000000
230
1.000000
  2
SOLID
 70
1
 71
0
 91
1
 92
2
 72
1
 73
1
 93
2
 10
43.100000
 20
4.100000
 42
1.000000
 10
41.800000
 20
4.100000
 42
1.000000
 97
0
 75
0
 76
1
 98
1
 10
0.000000
 20
0.000000
  0
HATCH
  5
154
100
AcDbEntity
  8
PIN_BOTTOM
100
AcDbHatch
 10
0.000000
 20
0.000000
 30
0.000000
210
0.000000
220
0.000000
230
1.000000
  2
SOLID
 70
1
 71
0
 91
1
 92
2
 72
1
 73
1
 93
2
 10
55.600000
 20
4.100000
 42
1.000000
 10
54.300000
 20
4.100000
 42
1.000000
 97
0
 75
0
 76
1
 98
1
 10
0.000000
 20
0.000000
  0
HATCH
  5
158
100
AcDbEntity
  8
PIN_BOTTOM
100
AcDbHatch
 10
0.000000
 20
0.000000
 30
0.000000
210
0.000000
220
0.000000
230
1.000000
  2
SOLID
 70
1
 71
0
 91
1
 92
2
 72
1
 73
1
 93
2
 10
70.250000
 20
146.000000
 42
1.000000
 10
68.450000
 20
146.000000
 42
1.000000
 97
0
 75
0
 76
1
 98
1
 10
0.000000
 20
0.000000
  0
HATCH
  5
15c
100
AcDbEntity
  8
PIN_BOTTOM
100
AcDbHatch
 10
0.000000
 20
0.000000
 30
0.000000
210
0.000000
220
0.000000
230
1.000000
  2
SOLID
 70
1
 71
0
 91
1
 92
2
 72
1
 73
1
 93
2
 10
66.750000
 20
146.000000
 42
1.000000
 10
64.950000
 20
146.000000
 42
1.000000
 97
0
 75
0
 76
1
 98
1
 10
0.000000
 20
0.000000
  0
HATCH
  5
160
100
AcDbEntity
  8
PIN_BOTTOM
100
AcDbHatch
 10
0.000000
 20
0.000000
 30
0.000000
210
0.000000
220
0.000000
230
1.000000
  2
SOLID
 70
1
 71
0
 91
1
 92
2
 72
1
 73
1
 93
2
 10
63.250000
 20
146.000000
 42
1.000000
 10
61.450000
 20
146.000000
 42
1.000000
 97
0
 75
0
 76
1
 98
1
 10
0.000000
 20
0.000000
  0
HATCH
  5
164
100
AcDbEntity
  8
PIN_BOTTOM
100
AcDbHatch
 10
0.000000
 20
0.000000
 30
0.000000
210
0.000000
220
0.000000
230
1.000000
  2
SOLID
 70
1
 71
0
 91
1
 92
2
 72
1
 73
1
 93
2
 10
59.750000
 20
146.000000
 42
1.000000
 10
57.950000
 20
146.000000
 42
1.000000
 97
0
 75
0
 76
1
 98
1
 10
0.000000
 20
0.000000
  0
HATCH
  5
168
100
AcDbEntity
  8
PIN_BOTTOM
100
AcDbHatch
 10
0.000000
 20
0.000000
 30
0.000000
210
0.000000
220
0.000000
230
1.000000
  2
SOLID
 70
1
 71
0
 91
1
 92
2
 72
1
 73
1
 93
2
 10
56.250000
 20
146.000000
 42
1.000000
 10
54.450000
 20
146.000000
 42
1.000000
 97
0
 75
0
 76
1
 98
1
 10
0.000000
 20
0.000000
  0
HATCH
  5
16c
100
AcDbEntity
  8
PIN_BOTTOM
100
AcDbHatch
 10
0.000000
 20
0.000000
 30
0.000000
210
0.000000
220
0.000000
230
1.000000
  2
SOLID
 70
1
 71
0
 91
1
 92
2
 72
1
 73
1
 93
2
 10
52.750000
 20
146.000000
 42
1.000000
 10
50.950000
 20
146.000000
 42
1.000000
 97
0
 75
0
 76
1
 98
1
 10
0.000000
 20
0.000000
  0
HATCH
  5
170
100
AcDbEntity
  8
PIN_BOTTOM
100
AcDbHatch
 10
0.000000
 20
0.000000
 30
0.000000
210
0.000000
220
0.000000
230
1.000000
  2
SOLID
 70
1
 71
0
 91
1
 92
2
 72
1
 73
1
 93
2
 10
49.250000
 20
146.000000
 42
1.000000
 10
47.450000
 20
146.000000
 42
1.000000
 97
0
 75
0
 76
1
 98
1
 10
0.000000
 20
0.000000
  0
HATCH
  5
174
100
AcDbEntity
  8
PIN_BOTTOM
100
AcDbHatch
 10
0.000000
 20
0.000000
 30
0.000000
210
0.000000
220
0.000000
230
1.000000
  2
SOLID
 70
1
 71
0
 91
1
 92
2
 72
1
 73
1
 93
2
 10
45.750000
 20
146.000000
 42
1.000000
 10
43.950000
 20
146.000000
 42
1.000000
 97
0
 75
0
 76
1
 98
1
 10
0.000000
 20
0.000000
  0
HATCH
  5
178
100
AcDbEntity
  8
PIN_BOTTOM
100
AcDbHatch
 10
0.000000
 20
0.000000
 30
0.000000
210
0.000000
220
0.000000
230
1.000000
  2
SOLID
 70
1
 71
0
 91
1
 92
2
 72
1
 73
1
 93
2
 10
42.250000
 20
146.000000
 42
1.000000
 10
40.450000
 20
146.000000
 42
1.000000
 97
0
 75
0
 76
1
 98
1
 10
0.000000
 20
0.000000
  0
HATCH
  5
17c
100
AcDbEntity
  8
PIN_BOTTOM
100
AcDbHatch
 10
0.000000
 20
0.000000
 30
0.000000
210
0.000000
220
0.000000
230
1.000000
  2
SOLID
 70
1
 71
0
 91
1
 92
2
 72
1
 73
1
 93
2
 10
38.750000
 20
146.000000
 42
1.000000
 10
36.950000
 20
146.000000
 42
1.000000
 97
0
 75
0
 76
1
 98
1
 10
0.000000
 20
0.000000
  0
HATCH
  5
180
100
AcDbEntity
  8
PIN_BOTTOM
100
AcDbHatch
 10
0.000000
 20
0.000000
 30
0.000000
210
0.000000
220
0.000000
230
1.000000
  2
SOLID
 70
1
 71
0
 91
1
 92
2
 72
1
 73
1
 93
2
 10
35.250000
 20
146.000000
 42
1.000000
 10
33.450000
 20
146.000000
 42
1.000000
 97
0
 75
0
 76
1
 98
1
 10
0.000000
 20
0.000000
  0
HATCH
  5
184
100
AcDbEntity
  8
PIN_BOTTOM
100
AcDbHatch
 10
0.000000
 20
0.000000
 30
0.000000
210
0.000000
220
0.000000
230
1.000000
  2
SOLID
 70
1
 71
0
 91
1
 92
2
 72
1
 73
1
 93
2
 10
31.750000
 20
146.000000
 42
1.000000
 10
29.950000
 20
146.000000
 42
1.000000
 97
0
 75
0
 76
1
 98
1
 10
0.000000
 20
0.000000
  0
HATCH
  5
188
100
AcDbEntity
  8
PIN_BOTTOM
100
AcDbHatch
 10
0.000000
 20
0.000000
 30
0.000000
210
0.000000
220
0.000000
230
1.000000
  2
SOLID
 70
1
 71
0
 91
1
 92
2
 72
1
 73
1
 93
2
 10
20.550000
 20
67.050000
 42
1.000000
 10
19.250000
 20
67.050000
 42
1.000000
 97
0
 75
0
 76
1
 98
1
 10
0.000000
 20
0.000000
  0
HATCH
  5
18c
100
AcDbEntity
  8
PIN_BOTTOM
100
AcDbHatch
 10
0.000000
 20
0.000000
 30
0.000000
210
0.000000
220
0.000000
230
1.000000
  2
SOLID
 70
1
 71
0
 91
1
 92
2
 72
1
 73
1
 93
2
 10
20.550000
 20
69.550000
 42
1.000000
 10
19.250000
 20
69.550000
 42
1.000000
 97
0
 75
0
 76
1
 98
1
 10
0.000000
 20
0.000000
  0
HATCH
  5
190
100
AcDbEntity
  8
PIN_BOTTOM
100
AcDbHatch
 10
0.000000
 20
0.000000
 30
0.000000
210
0.000000
220
0.000000
230
1.000000
  2
SOLID
 70
1
 71
0
 91
1
 92
2
 72
1
 73
1
 93
2
 10
12.650000
 20
67.050000
 42
1.000000
 10
11.350000
 20
67.050000
 42
1.000000
 97
0
 75
0
 76
1
 98
1
 10
0.000000
 20
0.000000
  0
HATCH
  5
194
100
AcDbEntity
  8
PIN_BOTTOM
100
AcDbHatch
 10
0.000000
 20
0.000000
 30
0.000000
210
0.000000
220
0.000000
230
1.000000
  2
SOLID
 70
1
 71
0
 91
1
 92
2
 72
1
 73
1
 93
2
 10
12.650000
 20
69.550000
 42
1.000000
 10
11.350000
 20
69.550000
 42
1.000000
 97
0
 75
0
 76
1
 98
1
 10
0.000000
 20
0.000000
  0
HATCH
  5
198
100
AcDbEntity
  8
PIN_BOTTOM
100
AcDbHatch
 10
0.000000
 20
0.000000
 30
0.000000
210
0.000000
220
0.000000
230
1.000000
  2
SOLID
 70
1
 71
0
 91
1
 92
2
 72
1
 73
1
 93
2
 10
4.750000
 20
67.050000
 42
1.000000
 10
3.450000
 20
67.050000
 42
1.000000
 97
0
 75
0
 76
1
 98
1
 10
0.000000
 20
0.000000
  0
HATCH
  5
19c
100
AcDbEntity
  8
PIN_BOTTOM
100
AcDbHatch
 10
0.000000
 20
0.000000
 30
0.000000
210
0.000000
220
0.000000
230
1.000000
  2
SOLID
 70
1
 71
0
 91
1
 92
2
 72
1
 73
1
 93
2
 10
4.750000
 20
69.550000
 42
1.000000
 10
3.450000
 20
69.550000
 42
1.000000
 97
0
 75
0
 76
1
 98
1
 10
0.000000
 20
0.000000
  0
HATCH
  5
1a0
100
AcDbEntity
  8
PIN_BOTTOM
100
AcDbHatch
 10
0.000000
 20
0.000000
 30
0.000000
210
0.000000
220
0.000000
230
1.000000
  2
SOLID
 70
1
 71
0
 91
1
 92
2
 72
1
 73
1
 93
2
 10
28.450000
 20
67.050000
 42
1.000000
 10
27.150000
 20
67.050000
 42
1.000000
 97
0
 75
0
 76
1
 98
1
 10
0.000000
 20
0.000000
  0
HATCH
  5
1a4
100
AcDbEntity
  8
PIN_BOTTOM
100
AcDbHatch
 10
0.000000
 20
0.000000
 30
0.000000
210
0.000000
220
0.000000
230
1.000000
  2
SOLID
 70
1
 71
0
 91
1
 92
2
 72
1
 73
1
 93
2
 10
28.450000
 20
69.550000
 42
1.000000
 10
27.150000
 20
69.550000
 42
1.000000
 97
0
 75
0
 76
1
 98
1
 10
0.000000
 20
0.000000
  0
HATCH
  5
1a8
100
AcDbEntity
  8
PIN_BOTTOM
100
AcDbHatch
 10
0.000000
 20
0.000000
 30
0.000000
210
0.000000
220
0.000000
230
1.000000
  2
SOLID
 70
1
 71
0
 91
1
 92
2
 72
1
 73
1
 93
2
 10
4.750000
 20
124.650000
 42
1.000000
 10
3.450000
 20
124.650000
 42
1.000000
 97
0
 75
0
 76
1
 98
1
 10
0.000000
 20
0.000000
  0
HATCH
  5
1ac
100
AcDbEntity
  8
PIN_BOTTOM
100
AcDbHatch
 10
0.000000
 20
0.000000
 30
0.000000
210
0.000000
220
0.000000
230
1.000000
  2
SOLID
 70
1
 71
0
 91
1
 92
2
 72
1
 73
1
 93
2
 10
4.750000
 20
127.150000
 42
1.000000
 10
3.450000
 20
127.150000
 42
1.000000
 97
0
 75
0
 76
1
 98
1
 10
0.000000
 20
0.000000
  0
HATCH
  5
1b0
100
AcDbEntity
  8
PIN_BOTTOM
100
AcDbHatch
 10
0.000000
 20
0.000000
 30
0.000000
210
0.000000
220
0.000000
230
1.000000
  2
SOLID
 70
1
 71
0
 91
1
 92
2
 72
1
 73
1
 93
2
 10
4.750000
 20
29.050000
 42
1.000000
 10
3.450000
 20
29.050000
 42
1.000000
 97
0
 75
0
 76
1
 98
1
 10
0.000000
 20
0.000000
  0
HATCH
  5
1b4
100
AcDbEntity
  8
PIN_BOTTOM
100
AcDbHatch
 10
0.000000
 20
0.000000
 30
0.000000
210
0.000000
220
0.000000
230
1.000000
  2
SOLID
 70
1
 71
0
 91
1
 92
2
 72
1
 73
1
 93
2
 10
4.750000
 20
31.550000
 42
1.000000
 10
3.450000
 20
31.550000
 42
1.000000
 97
0
 75
0
 76
1
 98
1
 10
0.000000
 20
0.000000
  0
HATCH
  5
1b8
100
AcDbEntity
  8
PIN_BOTTOM
100
AcDbHatch
 10
0.000000
 20
0.000000
 30
0.000000
210
0.000000
220
0.000000
230
1.000000
  2
SOLID
 70
1
 71
0
 91
1
 92
2
 72
1
 73
1
 93
2
 10
103.800000
 20
60.450000
 42
1.000000
 10
102.300000
 20
60.450000
 42
1.000000
 97
0
 75
0
 76
1
 98
1
 10
0.000000
 20
0.000000
  0
HATCH
  5
1bc
100
AcDbEntity
  8
PIN_BOTTOM
100
AcDbHatch
 10
0.000000
 20
0.000000
 30
0.000000
210
0.000000
220
0.000000
230
1.000000
  2
SOLID
 70
1
 71
0
 91
1
 92
2
 72
1
 73
1
 93
2
 10
103.800000
 20
55.450000
 42
1.000000
 10
102.300000
 20
55.450000
 42
1.000000
 97
0
 75
0
 76
1
 98
1
 10
0.000000
 20
0.000000
  0
HATCH
  5
1c0
100
AcDbEntity
  8
PIN_BOTTOM
100
AcDbHatch
 10
0.000000
 20
0.000000
 30
0.000000
210
0.000000
220
0.000000
230
1.000000
  2
SOLID
 70
1
 71
0
 91
1
 92
2
 72
1
 73
1
 93
2
 10
100.800000
 20
55.450000
 42
1.000000
 10
99.300000
 20
55.450000
 42
1.000000
 97
0
 75
0
 76
1
 98
1
 10
0.000000
 20
0.000000
  0
HATCH
  5
1c4
100
AcDbEntity
  8
PIN_BOTTOM
100
AcDbHatch
 10
0.000000
 20
0.000000
 30
0.000000
210
0.000000
220
0.000000
230
1.000000
  2
SOLID
 70
1
 71
0
 91
1
 92
2
 72
1
 73
1
 93
2
 10
100.800000
 20
60.450000
 42
1.000000
 10
99.300000
 20
60.450000
 42
1.000000
 97
0
 75
0
 76
1
 98
1
 10
0.000000
 20
0.000000
  0
HATCH
  5
1c8
100
AcDbEntity
  8
PIN_BOTTOM
100
AcDbHatch
 10
0.000000
 20
0.000000
 30
0.000000
210
0.000000
220
0.000000
230
1.000000
  2
SOLID
 70
1
 71
0
 91
1
 92
2
 72
1
 73
1
 93
2
 10
117.255000
 20
87.510000
 42
1.000000
 10
115.845000
 20
87.510000
 42
1.000000
 97
0
 75
0
 76
1
 98
1
 10
0.000000
 20
0.000000
  0
HATCH
  5
1cc
100
AcDbEntity
  8
PIN_BOTTOM
100
AcDbHatch
 10
0.000000
 20
0.000000
 30
0.000000
210
0.000000
220
0.000000
230
1.000000
  2
SOLID
 70
1
 71
0
 91
1
 92
2
 72
1
 73
1
 93
2
 10
117.150100
 20
79.990000
 42
1.000000
 10
115.949900
 20
79.990000
 42
1.000000
 97
0
 75
0
 76
1
 98
1
 10
0.000000
 20
0.000000
  0
HATCH
  5
1d0
100
AcDbEntity
  8
PIN_BOTTOM
100
AcDbHatch
 10
0.000000
 20
0.000000
 30
0.000000
210
0.000000
220
0.000000
230
1.000000
  2
SOLID
 70
1
 71
0
 91
1
 92
2
 72
1
 73
1
 93
2
 10
67.620000
 20
56.280000
 42
1.000000
 10
66.120000
 20
56.280000
 42
1.000000
 97
0
 75
0
 76
1
 98
1
 10
0.000000
 20
0.000000
  0
HATCH
  5
1d4
100
AcDbEntity
  8
PIN_BOTTOM
100
AcDbHatch
 10
0.000000
 20
0.000000
 30
0.000000
210
0.000000
220
0.000000
230
1.000000
  2
SOLID
 70
1
 71
0
 91
1
 92
2
 72
1
 73
1
 93
2
 10
70.160000
 20
56.280000
 42
1.000000
 10
68.660000
 20
56.280000
 42
1.000000
 97
0
 75
0
 76
1
 98
1
 10
0.000000
 20
0.000000
  0
HATCH
  5
1d8
100
AcDbEntity
  8
PIN_BOTTOM
100
AcDbHatch
 10
0.000000
 20
0.000000
 30
0.000000
210
0.000000
220
0.000000
230
1.000000
  2
SOLID
 70
1
 71
0
 91
1
 92
2
 72
1
 73
1
 93
2
 10
72.700000
 20
56.280000
 42
1.000000
 10
71.200000
 20
56.280000
 42
1.000000
 97
0
 75
0
 76
1
 98
1
 10
0.000000
 20
0.000000
  0
HATCH
  5
1dc
100
AcDbEntity
  8
PIN_BOTTOM
100
AcDbHatch
 10
0.000000
 20
0.000000
 30
0.000000
210
0.000000
220
0.000000
230
1.000000
  2
SOLID
 70
1
 71
0
 91
1
 92
2
 72
1
 73
1
 93
2
 10
75.240000
 20
56.280000
 42
1.000000
 10
73.740000
 20
56.280000
 42
1.000000
 97
0
 75
0
 76
1
 98
1
 10
0.000000
 20
0.000000
  0
HATCH
  5
1e0
100
AcDbEntity
  8
PIN_BOTTOM
100
AcDbHatch
 10
0.000000
 20
0.000000
 30
0.000000
210
0.000000
220
0.000000
230
1.000000
  2
SOLID
 70
1
 71
0
 91
1
 92
2
 72
1
 73
1
 93
2
 10
77.780000
 20
56.280000
 42
1.000000
 10
76.280000
 20
56.280000
 42
1.000000
 97
0
 75
0
 76
1
 98
1
 10
0.000000
 20
0.000000
  0
HATCH
  5
1e4
100
AcDbEntity
  8
PIN_BOTTOM
100
AcDbHatch
 10
0.000000
 20
0.000000
 30
0.000000
210
0.000000
220
0.000000
230
1.000000
  2
SOLID
 70
1
 71
0
 91
1
 92
2
 72
1
 73
1
 93
2
 10
67.620000
 20
58.820000
 42
1.000000
 10
66.120000
 20
58.820000
 42
1.000000
 97
0
 75
0
 76
1
 98
1
 10
0.000000
 20
0.000000
  0
HATCH
  5
1e8
100
AcDbEntity
  8
PIN_BOTTOM
100
AcDbHatch
 10
0.000000
 20
0.000000
 30
0.000000
210
0.000000
220
0.000000
230
1.000000
  2
SOLID
 70
1
 71
0
 91
1
 92
2
 72
1
 73
1
 93
2
 10
70.160000
 20
58.820000
 42
1.000000
 10
68.660000
 20
58.820000
 42
1.000000
 97
0
 75
0
 76
1
 98
1
 10
0.000000
 20
0.000000
  0
HATCH
  5
1ec
100
AcDbEntity
  8
PIN_BOTTOM
100
AcDbHatch
 10
0.000000
 20
0.000000
 30
0.000000
210
0.000000
220
0.000000
230
1.000000
  2
SOLID
 70
1
 71
0
 91
1
 92
2
 72
1
 73
1
 93
2
 10
72.700000
 20
58.820000
 42
1.000000
 10
71.200000
 20
58.820000
 42
1.000000
 97
0
 75
0
 76
1
 98
1
 10
0.000000
 20
0.000000
  0
HATCH
  5
1f0
100
AcDbEntity
  8
PIN_BOTTOM
100
AcDbHatch
 10
0.000000
 20
0.000000
 30
0.000000
210
0.000000
220
0.000000
230
1.000000
  2
SOLID
 70
1
 71
0
 91
1
 92
2
 72
1
 73
1
 93
2
 10
75.240000
 20
58.820000
 42
1.000000
 10
73.740000
 20
58.820000
 42
1.000000
 97
0
 75
0
 76
1
 98
1
 10
0.000000
 20
0.000000
  0
HATCH
  5
1f4
100
AcDbEntity
  8
PIN_BOTTOM
100
AcDbHatch
 10
0.000000
 20
0.000000
 30
0.000000
210
0.000000
220
0.000000
230
1.000000
  2
SOLID
 70
1
 71
0
 91
1
 92
2
 72
1
 73
1
 93
2
 10
77.780000
 20
58.820000
 42
1.000000
 10
76.280000
 20
58.820000
 42
1.000000
 97
0
 75
0
 76
1
 98
1
 10
0.000000
 20
0.000000
  0
HATCH
  5
1f8
100
AcDbEntity
  8
PIN_BOTTOM
100
AcDbHatch
 10
0.000000
 20
0.000000
 30
0.000000
210
0.000000
220
0.000000
230
1.000000
  2
SOLID
 70
1
 71
0
 91
1
 92
2
 72
1
 73
1
 93
2
 10
83.470000
 20
56.330000
 42
1.000000
 10
81.970000
 20
56.330000
 42
1.000000
 97
0
 75
0
 76
1
 98
1
 10
0.000000
 20
0.000000
  0
HATCH
  5
1fc
100
AcDbEntity
  8
PIN_BOTTOM
100
AcDbHatch
 10
0.000000
 20
0.000000
 30
0.000000
210
0.000000
220
0.000000
230
1.000000
  2
SOLID
 70
1
 71
0
 91
1
 92
2
 72
1
 73
1
 93
2
 10
86.010000
 20
56.330000
 42
1.000000
 10
84.510000
 20
56.330000
 42
1.000000
 97
0
 75
0
 76
1
 98
1
 10
0.000000
 20
0.000000
  0
HATCH
  5
200
100
AcDbEntity
  8
PIN_BOTTOM
100
AcDbHatch
 10
0.000000
 20
0.000000
 30
0.000000
210
0.000000
220
0.000000
230
1.000000
  2
SOLID
 70
1
 71
0
 91
1
 92
2
 72
1
 73
1
 93
2
 10
88.550000
 20
56.330000
 42
1.000000
 10
87.050000
 20
56.330000
 42
1.000000
 97
0
 75
0
 76
1
 98
1
 10
0.000000
 20
0.000000
  0
HATCH
  5
204
100
AcDbEntity
  8
PIN_BOTTOM
100
AcDbHatch
 10
0.000000
 20
0.000000
 30
0.000000
210
0.000000
220
0.000000
230
1.000000
  2
SOLID
 70
1
 71
0
 91
1
 92
2
 72
1
 73
1
 93
2
 10
91.090000
 20
56.330000
 42
1.000000
 10
89.590000
 20
56.330000
 42
1.000000
 97
0
 75
0
 76
1
 98
1
 10
0.000000
 20
0.000000
  0
HATCH
  5
208
100
AcDbEntity
  8
PIN_BOTTOM
100
AcDbHatch
 10
0.000000
 20
0.000000
 30
0.000000
210
0.000000
220
0.000000
230
1.000000
  2
SOLID
 70
1
 71
0
 91
1
 92
2
 72
1
 73
1
 93
2
 10
93.630000
 20
56.330000
 42
1.000000
 10
92.130000
 20
56.330000
 42
1.000000
 97
0
 75
0
 76
1
 98
1
 10
0.000000
 20
0.000000
  0
HATCH
  5
20c
100
AcDbEntity
  8
PIN_BOTTOM
100
AcDbHatch
 10
0.000000
 20
0.000000
 30
0.000000
210
0.000000
220
0.000000
230
1.000000
  2
SOLID
 70
1
 71
0
 91
1
 92
2
 72
1
 73
1
 93
2
 10
83.470000
 20
58.870000
 42
1.000000
 10
81.970000
 20
58.870000
 42
1.000000
 97
0
 75
0
 76
1
 98
1
 10
0.000000
 20
0.000000
  0
HATCH
  5
210
100
AcDbEntity
  8
PIN_BOTTOM
100
AcDbHatch
 10
0.000000
 20
0.000000
 30
0.000000
210
0.000000
220
0.000000
230
1.000000
  2
SOLID
 70
1
 71
0
 91
1
 92
2
 72
1
 73
1
 93
2
 10
86.010000
 20
58.870000
 42
1.000000
 10
84.510000
 20
58.870000
 42
1.000000
 97
0
 75
0
 76
1
 98
1
 10
0.000000
 20
0.000000
  0
HATCH
  5
214
100
AcDbEntity
  8
PIN_BOTTOM
100
AcDbHatch
 10
0.000000
 20
0.000000
 30
0.000000
210
0.000000
220
0.000000
230
1.000000
  2
SOLID
 70
1
 71
0
 91
1
 92
2
 72
1
 73
1
 93
2
 10
88.550000
 20
58.870000
 42
1.000000
 10
87.050000
 20
58.870000
 42
1.000000
 97
0
 75
0
 76
1
 98
1
 10
0.000000
 20
0.000000
  0
HATCH
  5
218
100
AcDbEntity
  8
PIN_BOTTOM
100
AcDbHatch
 10
0.000000
 20
0.000000
 30
0.000000
210
0.000000
220
0.000000
230
1.000000
  2
SOLID
 70
1
 71
0
 91
1
 92
2
 72
1
 73
1
 93
2
 10
91.090000
 20
58.870000
 42
1.000000
 10
89.590000
 20
58.870000
 42
1.000000
 97
0
 75
0
 76
1
 98
1
 10
0.000000
 20
0.000000
  0
HATCH
  5
21c
100
AcDbEntity
  8
PIN_BOTTOM
100
AcDbHatch
 10
0.000000
 20
0.000000
 30
0.000000
210
0.000000
220
0.000000
230
1.000000
  2
SOLID
 70
1
 71
0
 91
1
 92
2
 72
1
 73
1
 93
2
 10
93.630000
 20
58.870000
 42
1.000000
 10
92.130000
 20
58.870000
 42
1.000000
 97
0
 75
0
 76
1
 98
1
 10
0.000000
 20
0.000000
  0
HATCH
  5
220
100
AcDbEntity
  8
PIN_BOTTOM
100
AcDbHatch
 10
0.000000
 20
0.000000
 30
0.000000
210
0.000000
220
0.000000
230
1.000000
  2
SOLID
 70
1
 71
0
 91
1
 92
2
 72
1
 73
1
 93
2
 10
106.510100
 20
10.400000
 42
1.000000
 10
105.709900
 20
10.400000
 42
1.000000
 97
0
 75
0
 76
1
 98
1
 10
0.000000
 20
0.000000
  0
HATCH
  5
224
100
AcDbEntity
  8
PIN_BOTTOM
100
AcDbHatch
 10
0.000000
 20
0.000000
 30
0.000000
210
0.000000
220
0.000000
230
1.000000
  2
SOLID
 70
1
 71
0
 91
1
 92
2
 72
1
 73
1
 93
2
 10
114.060100
 20
10.400000
 42
1.000000
 10
113.259900
 20
10.400000
 42
1.000000
 97
0
 75
0
 76
1
 98
1
 10
0.000000
 20
0.000000
  0
HATCH
  5
228
100
AcDbEntity
  8
PIN_BOTTOM
100
AcDbHatch
 10
0.000000
 20
0.000000
 30
0.000000
210
0.000000
220
0.000000
230
1.000000
  2
SOLID
 70
1
 71
0
 91
1
 92
2
 72
1
 73
1
 93
2
 10
103.100000
 20
65.790000
 42
1.000000
 10
101.700000
 20
65.790000
 42
1.000000
 97
0
 75
0
 76
1
 98
1
 10
0.000000
 20
0.000000
  0
HATCH
  5
22c
100
AcDbEntity
  8
PIN_BOTTOM
100
AcDbHatch
 10
0.000000
 20
0.000000
 30
0.000000
210
0.000000
220
0.000000
230
1.000000
  2
SOLID
 70
1
 71
0
 91
1
 92
2
 72
1
 73
1
 93
2
 10
103.100000
 20
73.410000
 42
1.000000
 10
101.700000
 20
73.410000
 42
1.000000
 97
0
 75
0
 76
1
 98
1
 10
0.000000
 20
0.000000
  0
HATCH
  5
230
100
AcDbEntity
  8
PIN_BOTTOM
100
AcDbHatch
 10
0.000000
 20
0.000000
 30
0.000000
210
0.000000
220
0.000000
230
1.000000
  2
SOLID
 70
1
 71
0
 91
1
 92
2
 72
1
 73
1
 93
2
 10
4.750000
 20
83.550000
 42
1.000000
 10
3.450000
 20
83.550000
 42
1.000000
 97
0
 75
0
 76
1
 98
1
 10
0.000000
 20
0.000000
  0
HATCH
  5
234
100
AcDbEntity
  8
PIN_BOTTOM
100
AcDbHatch
 10
0.000000
 20
0.000000
 30
0.000000
210
0.000000
220
0.000000
230
1.000000
  2
SOLID
 70
1
 71
0
 91
1
 92
2
 72
1
 73
1
 93
2
 10
4.750000
 20
86.050000
 42
1.000000
 10
3.450000
 20
86.050000
 42
1.000000
 97
0
 75
0
 76
1
 98
1
 10
0.000000
 20
0.000000
  0
HATCH
  5
238
100
AcDbEntity
  8
PIN_BOTTOM
100
AcDbHatch
 10
0.000000
 20
0.000000
 30
0.000000
210
0.000000
220
0.000000
230
1.000000
  2
SOLID
 70
1
 71
0
 91
1
 92
2
 72
1
 73
1
 93
2
 10
4.750000
 20
88.550000
 42
1.000000
 10
3.450000
 20
88.550000
 42
1.000000
 97
0
 75
0
 76
1
 98
1
 10
0.000000
 20
0.000000
  0
HATCH
  5
23c
100
AcDbEntity
  8
PIN_BOTTOM
100
AcDbHatch
 10
0.000000
 20
0.000000
 30
0.000000
210
0.000000
220
0.000000
230
1.000000
  2
SOLID
 70
1
 71
0
 91
1
 92
2
 72
1
 73
1
 93
2
 10
55.600000
 20
17.800000
 42
1.000000
 10
54.300000
 20
17.800000
 42
1.000000
 97
0
 75
0
 76
1
 98
1
 10
0.000000
 20
0.000000
  0
HATCH
  5
240
100
AcDbEntity
  8
PIN_BOTTOM
100
AcDbHatch
 10
0.000000
 20
0.000000
 30
0.000000
210
0.000000
220
0.000000
230
1.000000
  2
SOLID
 70
1
 71
0
 91
1
 92
2
 72
1
 73
1
 93
2
 10
53.100000
 20
17.800000
 42
1.000000
 10
51.800000
 20
17.800000
 42
1.000000
 97
0
 75
0
 76
1
 98
1
 10
0.000000
 20
0.000000
  0
HATCH
  5
244
100
AcDbEntity
  8
PIN_BOTTOM
100
AcDbHatch
 10
0.000000
 20
0.000000
 30
0.000000
210
0.000000
220
0.000000
230
1.000000
  2
SOLID
 70
1
 71
0
 91
1
 92
2
 72
1
 73
1
 93
2
 10
50.600000
 20
17.800000
 42
1.000000
 10
49.300000
 20
17.800000
 42
1.000000
 97
0
 75
0
 76
1
 98
1
 10
0.000000
 20
0.000000
  0
HATCH
  5
248
100
AcDbEntity
  8
PIN_BOTTOM
100
AcDbHatch
 10
0.000000
 20
0.000000
 30
0.000000
210
0.000000
220
0.000000
230
1.000000
  2
SOLID
 70
1
 71
0
 91
1
 92
2
 72
1
 73
1
 93
2
 10
76.500000
 20
17.800000
 42
1.000000
 10
75.200000
 20
17.800000
 42
1.000000
 97
0
 75
0
 76
1
 98
1
 10
0.000000
 20
0.000000
  0
HATCH
  5
24c
100
AcDbEntity
  8
PIN_BOTTOM
100
AcDbHatch
 10
0.000000
 20
0.000000
 30
0.000000
210
0.000000
220
0.000000
230
1.000000
  2
SOLID
 70
1
 71
0
 91
1
 92
2
 72
1
 73
1
 93
2
 10
74.000000
 20
17.800000
 42
1.000000
 10
72.700000
 20
17.800000
 42
1.000000
 97
0
 75
0
 76
1
 98
1
 10
0.000000
 20
0.000000
  0
HATCH
  5
250
100
AcDbEntity
  8
PIN_BOTTOM
100
AcDbHatch
 10
0.000000
 20
0.000000
 30
0.000000
210
0.000000
220
0.000000
230
1.000000
  2
SOLID
 70
1
 71
0
 91
1
 92
2
 72
1
 73
1
 93
2
 10
71.500000
 20
17.800000
 42
1.000000
 10
70.200000
 20
17.800000
 42
1.000000
 97
0
 75
0
 76
1
 98
1
 10
0.000000
 20
0.000000
  0
HATCH
  5
254
100
AcDbEntity
  8
PIN_BOTTOM
100
AcDbHatch
 10
0.000000
 20
0.000000
 30
0.000000
210
0.000000
220
0.000000
230
1.000000
  2
SOLID
 70
1
 71
0
 91
1
 92
2
 72
1
 73
1
 93
2
 10
103.950000
 20
29.850000
 42
1.000000
 10
102.650000
 20
29.850000
 42
1.000000
 97
0
 75
0
 76
1
 98
1
 10
0.000000
 20
0.000000
  0
HATCH
  5
258
100
AcDbEntity
  8
PIN_BOTTOM
100
AcDbHatch
 10
0.000000
 20
0.000000
 30
0.000000
210
0.000000
220
0.000000
230
1.000000
  2
SOLID
 70
1
 71
0
 91
1
 92
2
 72
1
 73
1
 93
2
 10
103.950000
 20
32.350000
 42
1.000000
 10
102.650000
 20
32.350000
 42
1.000000
 97
0
 75
0
 76
1
 98
1
 10
0.000000
 20
0.000000
  0
HATCH
  5
25c
100
AcDbEntity
  8
PIN_BOTTOM
100
AcDbHatch
 10
0.000000
 20
0.000000
 30
0.000000
210
0.000000
220
0.000000
230
1.000000
  2
SOLID
 70
1
 71
0
 91
1
 92
2
 72
1
 73
1
 93
2
 10
103.950000
 20
34.850000
 42
1.000000
 10
102.650000
 20
34.850000
 42
1.000000
 97
0
 75
0
 76
1
 98
1
 10
0.000000
 20
0.000000
  0
HATCH
  5
260
100
AcDbEntity
  8
PIN_BOTTOM
100
AcDbHatch
 10
0.000000
 20
0.000000
 30
0.000000
210
0.000000
220
0.000000
230
1.000000
  2
SOLID
 70
1
 71
0
 91
1
 92
2
 72
1
 73
1
 93
2
 10
111.850000
 20
29.850000
 42
1.000000
 10
110.550000
 20
29.850000
 42
1.000000
 97
0
 75
0
 76
1
 98
1
 10
0.000000
 20
0.000000
  0
HATCH
  5
264
100
AcDbEntity
  8
PIN_BOTTOM
100
AcDbHatch
 10
0.000000
 20
0.000000
 30
0.000000
210
0.000000
220
0.000000
230
1.000000
  2
SOLID
 70
1
 71
0
 91
1
 92
2
 72
1
 73
1
 93
2
 10
111.850000
 20
32.350000
 42
1.000000
 10
110.550000
 20
32.350000
 42
1.000000
 97
0
 75
0
 76
1
 98
1
 10
0.000000
 20
0.000000
  0
HATCH
  5
268
100
AcDbEntity
  8
PIN_BOTTOM
100
AcDbHatch
 10
0.000000
 20
0.000000
 30
0.000000
210
0.000000
220
0.000000
230
1.000000
  2
SOLID
 70
1
 71
0
 91
1
 92
2
 72
1
 73
1
 93
2
 10
111.850000
 20
34.850000
 42
1.000000
 10
110.550000
 20
34.850000
 42
1.000000
 97
0
 75
0
 76
1
 98
1
 10
0.000000
 20
0.000000
  0
HATCH
  5
26c
100
AcDbEntity
  8
PIN_BOTTOM
100
AcDbHatch
 10
0.000000
 20
0.000000
 30
0.000000
210
0.000000
220
0.000000
230
1.000000
  2
SOLID
 70
1
 71
0
 91
1
 92
2
 72
1
 73
1
 93
2
 10
88.150000
 20
29.850000
 42
1.000000
 10
86.850000
 20
29.850000
 42
1.000000
 97
0
 75
0
 76
1
 98
1
 10
0.000000
 20
0.000000
  0
HATCH
  5
270
100
AcDbEntity
  8
PIN_BOTTOM
100
AcDbHatch
 10
0.000000
 20
0.000000
 30
0.000000
210
0.000000
220
0.000000
230
1.000000
  2
SOLID
 70
1
 71
0
 91
1
 92
2
 72
1
 73
1
 93
2
 10
88.150000
 20
32.350000
 42
1.000000
 10
86.850000
 20
32.350000
 42
1.000000
 97
0
 75
0
 76
1
 98
1
 10
0.000000
 20
0.000000
  0
HATCH
  5
274
100
AcDbEntity
  8
PIN_BOTTOM
100
AcDbHatch
 10
0.000000
 20
0.000000
 30
0.000000
210
0.000000
220
0.000000
230
1.000000
  2
SOLID
 70
1
 71
0
 91
1
 92
2
 72
1
 73
1
 93
2
 10
88.150000
 20
34.850000
 42
1.000000
 10
86.850000
 20
34.850000
 42
1.000000
 97
0
 75
0
 76
1
 98
1
 10
0.000000
 20
0.000000
  0
HATCH
  5
278
100
AcDbEntity
  8
PIN_BOTTOM
100
AcDbHatch
 10
0.000000
 20
0.000000
 30
0.000000
210
0.000000
220
0.000000
230
1.000000
  2
SOLID
 70
1
 71
0
 91
1
 92
2
 72
1
 73
1
 93
2
 10
96.050000
 20
29.850000
 42
1.000000
 10
94.750000
 20
29.850000
 42
1.000000
 97
0
 75
0
 76
1
 98
1
 10
0.000000
 20
0.000000
  0
HATCH
  5
27c
100
AcDbEntity
  8
PIN_BOTTOM
100
AcDbHatch
 10
0.000000
 20
0.000000
 30
0.000000
210
0.000000
220
0.000000
230
1.000000
  2
SOLID
 70
1
 71
0
 91
1
 92
2
 72
1
 73
1
 93
2
 10
96.050000
 20
32.350000
 42
1.000000
 10
94.750000
 20
32.350000
 42
1.000000
 97
0
 75
0
 76
1
 98
1
 10
0.000000
 20
0.000000
  0
HATCH
  5
280
100
AcDbEntity
  8
PIN_BOTTOM
100
AcDbHatch
 10
0.000000
 20
0.000000
 30
0.000000
210
0.000000
220
0.000000
230
1.000000
  2
SOLID
 70
1
 71
0
 91
1
 92
2
 72
1
 73
1
 93
2
 10
96.050000
 20
34.850000
 42
1.000000
 10
94.750000
 20
34.850000
 42
1.000000
 97
0
 75
0
 76
1
 98
1
 10
0.000000
 20
0.000000
  0
HATCH
  5
284
100
AcDbEntity
  8
PIN_BOTTOM
100
AcDbHatch
 10
0.000000
 20
0.000000
 30
0.000000
210
0.000000
220
0.000000
230
1.000000
  2
SOLID
 70
1
 71
0
 91
1
 92
2
 72
1
 73
1
 93
2
 10
131.350000
 20
4.100000
 42
1.000000
 10
130.050000
 20
4.100000
 42
1.000000
 97
0
 75
0
 76
1
 98
1
 10
0.000000
 20
0.000000
  0
HATCH
  5
288
100
AcDbEntity
  8
PIN_BOTTOM
100
AcDbHatch
 10
0.000000
 20
0.000000
 30
0.000000
210
0.000000
220
0.000000
230
1.000000
  2
SOLID
 70
1
 71
0
 91
1
 92
2
 72
1
 73
1
 93
2
 10
128.850000
 20
4.100000
 42
1.000000
 10
127.550000
 20
4.100000
 42
1.000000
 97
0
 75
0
 76
1
 98
1
 10
0.000000
 20
0.000000
  0
HATCH
  5
28c
100
AcDbEntity
  8
PIN_BOTTOM
100
AcDbHatch
 10
0.000000
 20
0.000000
 30
0.000000
210
0.000000
220
0.000000
230
1.000000
  2
SOLID
 70
1
 71
0
 91
1
 92
2
 72
1
 73
1
 93
2
 10
126.350000
 20
4.100000
 42
1.000000
 10
125.050000
 20
4.100000
 42
1.000000
 97
0
 75
0
 76
1
 98
1
 10
0.000000
 20
0.000000
  0
HATCH
  5
290
100
AcDbEntity
  8
PIN_BOTTOM
100
AcDbHatch
 10
0.000000
 20
0.000000
 30
0.000000
210
0.000000
220
0.000000
230
1.000000
  2
SOLID
 70
1
 71
0
 91
1
 92
2
 72
1
 73
1
 93
2
 10
123.850000
 20
4.100000
 42
1.000000
 10
122.550000
 20
4.100000
 42
1.000000
 97
0
 75
0
 76
1
 98
1
 10
0.000000
 20
0.000000
  0
HATCH
  5
294
100
AcDbEntity
  8
PIN_BOTTOM
100
AcDbHatch
 10
0.000000
 20
0.000000
 30
0.000000
210
0.000000
220
0.000000
230
1.000000
  2
SOLID
 70
1
 71
0
 91
1
 92
2
 72
1
 73
1
 93
2
 10
4.750000
 20
45.550000
 42
1.000000
 10
3.450000
 20
45.550000
 42
1.000000
 97
0
 75
0
 76
1
 98
1
 10
0.000000
 20
0.000000
  0
HATCH
  5
298
100
AcDbEntity
  8
PIN_BOTTOM
100
AcDbHatch
 10
0.000000
 20
0.000000
 30
0.000000
210
0.000000
220
0.000000
230
1.000000
  2
SOLID
 70
1
 71
0
 91
1
 92
2
 72
1
 73
1
 93
2
 10
4.750000
 20
48.050000
 42
1.000000
 10
3.450000
 20
48.050000
 42
1.000000
 97
0
 75
0
 76
1
 98
1
 10
0.000000
 20
0.000000
  0
HATCH
  5
29c
100
AcDbEntity
  8
PIN_BOTTOM
100
AcDbHatch
 10
0.000000
 20
0.000000
 30
0.000000
210
0.000000
220
0.000000
230
1.000000
  2
SOLID
 70
1
 71
0
 91
1
 92
2
 72
1
 73
1
 93
2
 10
4.750000
 20
50.550000
 42
1.000000
 10
3.450000
 20
50.550000
 42
1.000000
 97
0
 75
0
 76
1
 98
1
 10
0.000000
 20
0.000000
  0
HATCH
  5
2a0
100
AcDbEntity
  8
PIN_BOTTOM
100
AcDbHatch
 10
0.000000
 20
0.000000
 30
0.000000
210
0.000000
220
0.000000
230
1.000000
  2
SOLID
 70
1
 71
0
 91
1
 92
2
 72
1
 73
1
 93
2
 10
4.750000
 20
53.050000
 42
1.000000
 10
3.450000
 20
53.050000
 42
1.000000
 97
0
 75
0
 76
1
 98
1
 10
0.000000
 20
0.000000
  0
HATCH
  5
2a4
100
AcDbEntity
  8
PIN_BOTTOM
100
AcDbHatch
 10
0.000000
 20
0.000000
 30
0.000000
210
0.000000
220
0.000000
230
1.000000
  2
SOLID
 70
1
 71
0
 91
1
 92
2
 72
1
 73
1
 93
2
 10
55.600000
 20
32.050000
 42
1.000000
 10
54.300000
 20
32.050000
 42
1.000000
 97
0
 75
0
 76
1
 98
1
 10
0.000000
 20
0.000000
  0
HATCH
  5
2a8
100
AcDbEntity
  8
PIN_BOTTOM
100
AcDbHatch
 10
0.000000
 20
0.000000
 30
0.000000
210
0.000000
220
0.000000
230
1.000000
  2
SOLID
 70
1
 71
0
 91
1
 92
2
 72
1
 73
1
 93
2
 10
53.100000
 20
32.050000
 42
1.000000
 10
51.800000
 20
32.050000
 42
1.000000
 97
0
 75
0
 76
1
 98
1
 10
0.000000
 20
0.000000
  0
HATCH
  5
2ac
100
AcDbEntity
  8
PIN_BOTTOM
100
AcDbHatch
 10
0.000000
 20
0.000000
 30
0.000000
210
0.000000
220
0.000000
230
1.000000
  2
SOLID
 70
1
 71
0
 91
1
 92
2
 72
1
 73
1
 93
2
 10
50.600000
 20
32.050000
 42
1.000000
 10
49.300000
 20
32.050000
 42
1.000000
 97
0
 75
0
 76
1
 98
1
 10
0.000000
 20
0.000000
  0
HATCH
  5
2b0
100
AcDbEntity
  8
PIN_BOTTOM
100
AcDbHatch
 10
0.000000
 20
0.000000
 30
0.000000
210
0.000000
220
0.000000
230
1.000000
  2
SOLID
 70
1
 71
0
 91
1
 92
2
 72
1
 73
1
 93
2
 10
48.100000
 20
32.050000
 42
1.000000
 10
46.800000
 20
32.050000
 42
1.000000
 97
0
 75
0
 76
1
 98
1
 10
0.000000
 20
0.000000
  0
HATCH
  5
2b4
100
AcDbEntity
  8
PIN_BOTTOM
100
AcDbHatch
 10
0.000000
 20
0.000000
 30
0.000000
210
0.000000
220
0.000000
230
1.000000
  2
SOLID
 70
1
 71
0
 91
1
 92
2
 72
1
 73
1
 93
2
 10
45.600000
 20
32.050000
 42
1.000000
 10
44.300000
 20
32.050000
 42
1.000000
 97
0
 75
0
 76
1
 98
1
 10
0.000000
 20
0.000000
  0
HATCH
  5
2b8
100
AcDbEntity
  8
PIN_BOTTOM
100
AcDbHatch
 10
0.000000
 20
0.000000
 30
0.000000
210
0.000000
220
0.000000
230
1.000000
  2
SOLID
 70
1
 71
0
 91
1
 92
2
 72
1
 73
1
 93
2
 10
76.500000
 20
32.050000
 42
1.000000
 10
75.200000
 20
32.050000
 42
1.000000
 97
0
 75
0
 76
1
 98
1
 10
0.000000
 20
0.000000
  0
HATCH
  5
2bc
100
AcDbEntity
  8
PIN_BOTTOM
100
AcDbHatch
 10
0.000000
 20
0.000000
 30
0.000000
210
0.000000
220
0.000000
230
1.000000
  2
SOLID
 70
1
 71
0
 91
1
 92
2
 72
1
 73
1
 93
2
 10
74.000000
 20
32.050000
 42
1.000000
 10
72.700000
 20
32.050000
 42
1.000000
 97
0
 75
0
 76
1
 98
1
 10
0.000000
 20
0.000000
  0
HATCH
  5
2c0
100
AcDbEntity
  8
PIN_BOTTOM
100
AcDbHatch
 10
0.000000
 20
0.000000
 30
0.000000
210
0.000000
220
0.000000
230
1.000000
  2
SOLID
 70
1
 71
0
 91
1
 92
2
 72
1
 73
1
 93
2
 10
71.500000
 20
32.050000
 42
1.000000
 10
70.200000
 20
32.050000
 42
1.000000
 97
0
 75
0
 76
1
 98
1
 10
0.000000
 20
0.000000
  0
HATCH
  5
2c4
100
AcDbEntity
  8
PIN_BOTTOM
100
AcDbHatch
 10
0.000000
 20
0.000000
 30
0.000000
210
0.000000
220
0.000000
230
1.000000
  2
SOLID
 70
1
 71
0
 91
1
 92
2
 72
1
 73
1
 93
2
 10
69.000000
 20
32.050000
 42
1.000000
 10
67.700000
 20
32.050000
 42
1.000000
 97
0
 75
0
 76
1
 98
1
 10
0.000000
 20
0.000000
  0
HATCH
  5
2c8
100
AcDbEntity
  8
PIN_BOTTOM
100
AcDbHatch
 10
0.000000
 20
0.000000
 30
0.000000
210
0.000000
220
0.000000
230
1.000000
  2
SOLID
 70
1
 71
0
 91
1
 92
2
 72
1
 73
1
 93
2
 10
66.500000
 20
32.050000
 42
1.000000
 10
65.200000
 20
32.050000
 42
1.000000
 97
0
 75
0
 76
1
 98
1
 10
0.000000
 20
0.000000
  0
HATCH
  5
2cc
100
AcDbEntity
  8
PIN_BOTTOM
100
AcDbHatch
 10
0.000000
 20
0.000000
 30
0.000000
210
0.000000
220
0.000000
230
1.000000
  2
SOLID
 70
1
 71
0
 91
1
 92
2
 72
1
 73
1
 93
2
 10
29.675000
 20
4.100000
 42
1.000000
 10
28.375000
 20
4.100000
 42
1.000000
 97
0
 75
0
 76
1
 98
1
 10
0.000000
 20
0.000000
  0
HATCH
  5
2d0
100
AcDbEntity
  8
PIN_BOTTOM
100
AcDbHatch
 10
0.000000
 20
0.000000
 30
0.000000
210
0.000000
220
0.000000
230
1.000000
  2
SOLID
 70
1
 71
0
 91
1
 92
2
 72
1
 73
1
 93
2
 10
27.175000
 20
4.100000
 42
1.000000
 10
25.875000
 20
4.100000
 42
1.000000
 97
0
 75
0
 76
1
 98
1
 10
0.000000
 20
0.000000
  0
HATCH
  5
2d4
100
AcDbEntity
  8
PIN_BOTTOM
100
AcDbHatch
 10
0.000000
 20
0.000000
 30
0.000000
210
0.000000
220
0.000000
230
1.000000
  2
SOLID
 70
1
 71
0
 91
1
 92
2
 72
1
 73
1
 93
2
 10
24.675000
 20
4.100000
 42
1.000000
 10
23.375000
 20
4.100000
 42
1.000000
 97
0
 75
0
 76
1
 98
1
 10
0.000000
 20
0.000000
  0
HATCH
  5
2d8
100
AcDbEntity
  8
PIN_BOTTOM
100
AcDbHatch
 10
0.000000
 20
0.000000
 30
0.000000
210
0.000000
220
0.000000
230
1.000000
  2
SOLID
 70
1
 71
0
 91
1
 92
2
 72
1
 73
1
 93
2
 10
22.175000
 20
4.100000
 42
1.000000
 10
20.875000
 20
4.100000
 42
1.000000
 97
0
 75
0
 76
1
 98
1
 10
0.000000
 20
0.000000
  0
HATCH
  5
2dc
100
AcDbEntity
  8
PIN_BOTTOM
100
AcDbHatch
 10
0.000000
 20
0.000000
 30
0.000000
210
0.000000
220
0.000000
230
1.000000
  2
SOLID
 70
1
 71
0
 91
1
 92
2
 72
1
 73
1
 93
2
 10
19.675000
 20
4.100000
 42
1.000000
 10
18.375000
 20
4.100000
 42
1.000000
 97
0
 75
0
 76
1
 98
1
 10
0.000000
 20
0.000000
  0
HATCH
  5
2e0
100
AcDbEntity
  8
PIN_BOTTOM
100
AcDbHatch
 10
0.000000
 20
0.000000
 30
0.000000
210
0.000000
220
0.000000
230
1.000000
  2
SOLID
 70
1
 71
0
 91
1
 92
2
 72
1
 73
1
 93
2
 10
32.175000
 20
4.100000
 42
1.000000
 10
30.875000
 20
4.100000
 42
1.000000
 97
0
 75
0
 76
1
 98
1
 10
0.000000
 20
0.000000
  0
HATCH
  5
2e4
100
AcDbEntity
  8
PIN_BOTTOM
100
AcDbHatch
 10
0.000000
 20
0.000000
 30
0.000000
210
0.000000
220
0.000000
230
1.000000
  2
SOLID
 70
1
 71
0
 91
1
 92
2
 72
1
 73
1
 93
2
 10
34.675000
 20
4.100000
 42
1.000000
 10
33.375000
 20
4.100000
 42
1.000000
 97
0
 75
0
 76
1
 98
1
 10
0.000000
 20
0.000000
  0
HATCH
  5
2e8
100
AcDbEntity
  8
PIN_BOTTOM
100
AcDbHatch
 10
0.000000
 20
0.000000
 30
0.000000
210
0.000000
220
0.000000
230
1.000000
  2
SOLID
 70
1
 71
0
 91
1
 92
2
 72
1
 73
1
 93
2
 10
8.500000
 20
5.000000
 42
1.000000
 10
1.500000
 20
5.000000
 42
1.000000
 97
0
 75
0
 76
1
 98
1
 10
0.000000
 20
0.000000
  0
HATCH
  5
2ec
100
AcDbEntity
  8
PIN_BOTTOM
100
AcDbHatch
 10
0.000000
 20
0.000000
 30
0.000000
210
0.000000
220
0.000000
230
1.000000
  2
SOLID
 70
1
 71
0
 91
1
 92
2
 72
1
 73
1
 93
2
 10
8.500000
 20
145.000000
 42
1.000000
 10
1.500000
 20
145.000000
 42
1.000000
 97
0
 75
0
 76
1
 98
1
 10
0.000000
 20
0.000000
  0
HATCH
  5
2f0
100
AcDbEntity
  8
PIN_BOTTOM
100
AcDbHatch
 10
0.000000
 20
0.000000
 30
0.000000
210
0.000000
220
0.000000
230
1.000000
  2
SOLID
 70
1
 71
0
 91
1
 92
2
 72
1
 73
1
 93
2
 10
178.500000
 20
145.000000
 42
1.000000
 10
171.500000
 20
145.000000
 42
1.000000
 97
0
 75
0
 76
1
 98
1
 10
0.000000
 20
0.000000
  0
HATCH
  5
2f4
100
AcDbEntity
  8
PIN_BOTTOM
100
AcDbHatch
 10
0.000000
 20
0.000000
 30
0.000000
210
0.000000
220
0.000000
230
1.000000
  2
SOLID
 70
1
 71
0
 91
1
 92
2
 72
1
 73
1
 93
2
 10
178.500000
 20
5.000000
 42
1.000000
 10
171.500000
 20
5.000000
 42
1.000000
 97
0
 75
0
 76
1
 98
1
 10
0.000000
 20
0.000000
  0
HATCH
  5
2f8
100
AcDbEntity
  8
PIN_BOTTOM
100
AcDbHatch
 10
0.000000
 20
0.000000
 30
0.000000
210
0.000000
220
0.000000
230
1.000000
  2
SOLID
 70
1
 71
0
 91
1
 92
2
 72
1
 73
1
 93
2
 10
93.500000
 20
145.000000
 42
1.000000
 10
86.500000
 20
145.000000
 42
1.000000
 97
0
 75
0
 76
1
 98
1
 10
0.000000
 20
0.000000
  0
HATCH
  5
2fc
100
AcDbEntity
  8
PIN_BOTTOM
100
AcDbHatch
 10
0.000000
 20
0.000000
 30
0.000000
210
0.000000
220
0.000000
230
1.000000
  2
SOLID
 70
1
 71
0
 91
1
 92
2
 72
1
 73
1
 93
2
 10
93.500000
 20
5.000000
 42
1.000000
 10
86.500000
 20
5.000000
 42
1.000000
 97
0
 75
0
 76
1
 98
1
 10
0.000000
 20
0.000000
  0
HATCH
  5
300
100
AcDbEntity
  8
PIN_BOTTOM
100
AcDbHatch
 10
0.000000
 20
0.000000
 30
0.000000
210
0.000000
220
0.000000
230
1.000000
  2
SOLID
 70
1
 71
0
 91
1
 92
2
 72
1
 73
1
 93
2
 10
91.950000
 20
113.950000
 42
1.000000
 10
90.650000
 20
113.950000
 42
1.000000
 97
0
 75
0
 76
1
 98
1
 10
0.000000
 20
0.000000
  0
HATCH
  5
304
100
AcDbEntity
  8
PIN_BOTTOM
100
AcDbHatch
 10
0.000000
 20
0.000000
 30
0.000000
210
0.000000
220
0.000000
230
1.000000
  2
SOLID
 70
1
 71
0
 91
1
 92
2
 72
1
 73
1
 93
2
 10
89.450000
 20
113.950000
 42
1.000000
 10
88.150000
 20
113.950000
 42
1.000000
 97
0
 75
0
 76
1
 98
1
 10
0.000000
 20
0.000000
  0
HATCH
  5
308
100
AcDbEntity
  8
PIN_BOTTOM
100
AcDbHatch
 10
0.000000
 20
0.000000
 30
0.000000
210
0.000000
220
0.000000
230
1.000000
  2
SOLID
 70
1
 71
0
 91
1
 92
2
 72
1
 73
1
 93
2
 10
86.950000
 20
113.950000
 42
1.000000
 10
85.650000
 20
113.950000
 42
1.000000
 97
0
 75
0
 76
1
 98
1
 10
0.000000
 20
0.000000
  0
HATCH
  5
30c
100
AcDbEntity
  8
PIN_BOTTOM
100
AcDbHatch
 10
0.000000
 20
0.000000
 30
0.000000
210
0.000000
220
0.000000
230
1.000000
  2
SOLID
 70
1
 71
0
 91
1
 92
2
 72
1
 73
1
 93
2
 10
84.450000
 20
113.950000
 42
1.000000
 10
83.150000
 20
113.950000
 42
1.000000
 97
0
 75
0
 76
1
 98
1
 10
0.000000
 20
0.000000
  0
HATCH
  5
310
100
AcDbEntity
  8
PIN_BOTTOM
100
AcDbHatch
 10
0.000000
 20
0.000000
 30
0.000000
210
0.000000
220
0.000000
230
1.000000
  2
SOLID
 70
1
 71
0
 91
1
 92
2
 72
1
 73
1
 93
2
 10
81.950000
 20
113.950000
 42
1.000000
 10
80.650000
 20
113.950000
 42
1.000000
 97
0
 75
0
 76
1
 98
1
 10
0.000000
 20
0.000000
  0
HATCH
  5
314
100
AcDbEntity
  8
PIN_BOTTOM
100
AcDbHatch
 10
0.000000
 20
0.000000
 30
0.000000
210
0.000000
220
0.000000
230
1.000000
  2
SOLID
 70
1
 71
0
 91
1
 92
2
 72
1
 73
1
 93
2
 10
79.450000
 20
113.950000
 42
1.000000
 10
78.150000
 20
113.950000
 42
1.000000
 97
0
 75
0
 76
1
 98
1
 10
0.000000
 20
0.000000
  0
HATCH
  5
318
100
AcDbEntity
  8
PIN_BOTTOM
100
AcDbHatch
 10
0.000000
 20
0.000000
 30
0.000000
210
0.000000
220
0.000000
230
1.000000
  2
SOLID
 70
1
 71
0
 91
1
 92
2
 72
1
 73
1
 93
2
 10
94.450000
 20
113.950000
 42
1.000000
 10
93.150000
 20
113.950000
 42
1.000000
 97
0
 75
0
 76
1
 98
1
 10
0.000000
 20
0.000000
  0
HATCH
  5
31c
100
AcDbEntity
  8
PIN_BOTTOM
100
AcDbHatch
 10
0.000000
 20
0.000000
 30
0.000000
210
0.000000
220
0.000000
230
1.000000
  2
SOLID
 70
1
 71
0
 91
1
 92
2
 72
1
 73
1
 93
2
 10
96.950000
 20
113.950000
 42
1.000000
 10
95.650000
 20
113.950000
 42
1.000000
 97
0
 75
0
 76
1
 98
1
 10
0.000000
 20
0.000000
  0
POLYLINE
  5
31d
100
AcDbEntity
  8
BG_OUTLINE
100
AcDb2dPolyline
 66
1
 70
0
 40
0.000000
 41
0.000000
 39
0.000000
  0
VERTEX
  5
31f
100
AcDbEntity
  8
BG_OUTLINE
100
AcDbVertex
100
AcDb2dVertex
 10
-2.400000
 20
150.000000
 40
0.000000
 41
0.000000
 42
0.000000
  0
VERTEX
  5
320
100
AcDbEntity
  8
BG_OUTLINE
100
AcDbVertex
100
AcDb2dVertex
 10
-12.000000
 20
150.000000
 40
0.000000
 41
0.000000
 42
0.000000
  0
SEQEND
  5
31e
100
AcDbEntity
  0
POLYLINE
  5
321
100
AcDbEntity
  8
BG_OUTLINE
100
AcDb2dPolyline
 66
1
 70
0
 40
0.000000
 41
0.000000
 39
0.000000
  0
VERTEX
  5
323
100
AcDbEntity
  8
BG_OUTLINE
100
AcDbVertex
100
AcDb2dVertex
 10
0.000000
 20
150.000000
 40
0.000000
 41
0.000000
 42
0.000000
  0
VERTEX
  5
324
100
AcDbEntity
  8
BG_OUTLINE
100
AcDbVertex
100
AcDb2dVertex
 10
-3.000000
 20
151.000000
 40
0.000000
 41
0.000000
 42
0.000000
  0
VERTEX
  5
325
100
AcDbEntity
  8
BG_OUTLINE
100
AcDbVertex
100
AcDb2dVertex
 10
-2.400000
 20
150.000000
 40
0.000000
 41
0.000000
 42
0.000000
  0
VERTEX
  5
326
100
AcDbEntity
  8
BG_OUTLINE
100
AcDbVertex
100
AcDb2dVertex
 10
-3.000000
 20
149.000000
 40
0.000000
 41
0.000000
 42
0.000000
  0
VERTEX
  5
327
100
AcDbEntity
  8
BG_OUTLINE
100
AcDbVertex
100
AcDb2dVertex
 10
0.000000
 20
150.000000
 40
0.000000
 41
0.000000
 42
0.000000
  0
SEQEND
  5
322
100
AcDbEntity
  0
TEXT
  5
328
100
AcDbEntity
  8
BG_OUTLINE
100
AcDbText
 10
-11.200000
 20
150.100000
 11
0.000000
 21
0.000000
 40
1.500000
 41
1.000000
 50
0.000000
  7
STANDARD
 71
0
 72
0
  1
V-CUT
100
AcDbText
 73
0
  0
POLYLINE
  5
329
100
AcDbEntity
  8
BG_OUTLINE
100
AcDb2dPolyline
 66
1
 70
0
 40
0.000000
 41
0.000000
 39
0.000000
  0
VERTEX
  5
32b
100
AcDbEntity
  8
BG_OUTLINE
100
AcDbVertex
100
AcDb2dVertex
 10
0.000000
 20
0.000000
 40
0.000000
 41
0.000000
 42
0.000000
  0
VERTEX
  5
32c
100
AcDbEntity
  8
BG_OUTLINE
100
AcDbVertex
100
AcDb2dVertex
 10
-3.000000
 20
1.000000
 40
0.000000
 41
0.000000
 42
0.000000
  0
VERTEX
  5
32d
100
AcDbEntity
  8
BG_OUTLINE
100
AcDbVertex
100
AcDb2dVertex
 10
-2.400000
 20
0.000000
 40
0.000000
 41
0.000000
 42
0.000000
  0
VERTEX
  5
32e
100
AcDbEntity
  8
BG_OUTLINE
100
AcDbVertex
100
AcDb2dVertex
 10
-3.000000
 20
-1.000000
 40
0.000000
 41
0.000000
 42
0.000000
  0
VERTEX
  5
32f
100
AcDbEntity
  8
BG_OUTLINE
100
AcDbVertex
100
AcDb2dVertex
 10
0.000000
 20
0.000000
 40
0.000000
 41
0.000000
 42
0.000000
  0
SEQEND
  5
32a
100
AcDbEntity
  0
POLYLINE
  5
330
100
AcDbEntity
  8
BG_OUTLINE
100
AcDb2dPolyline
 66
1
 70
0
 40
0.000000
 41
0.000000
 39
0.000000
  0
VERTEX
  5
332
100
AcDbEntity
  8
BG_OUTLINE
100
AcDbVertex
100
AcDb2dVertex
 10
-2.400000
 20
0.000000
 40
0.000000
 41
0.000000
 42
0.000000
  0
VERTEX
  5
333
100
AcDbEntity
  8
BG_OUTLINE
100
AcDbVertex
100
AcDb2dVertex
 10
-12.000000
 20
0.000000
 40
0.000000
 41
0.000000
 42
0.000000
  0
SEQEND
  5
331
100
AcDbEntity
  0
TEXT
  5
334
100
AcDbEntity
  8
BG_OUTLINE
100
AcDbText
 10
-11.200000
 20
0.100000
 11
0.000000
 21
0.000000
 40
1.500000
 41
1.000000
 50
0.000000
  7
STANDARD
 71
0
 72
0
  1
V-CUT
100
AcDbText
 73
0
  0
POLYLINE
  5
335
100
AcDbEntity
  8
BG_OUTLINE
100
AcDb2dPolyline
 66
1
 70
0
 40
0.000000
 41
0.000000
 39
0.000000
  0
VERTEX
  5
337
100
AcDbEntity
  8
BG_OUTLINE
100
AcDbVertex
100
AcDb2dVertex
 10
180.000000
 20
0.000000
 40
0.000000
 41
0.000000
 42
0.000000
  0
VERTEX
  5
338
100
AcDbEntity
  8
BG_OUTLINE
100
AcDbVertex
100
AcDb2dVertex
 10
180.000000
 20
-10.000000
 40
0.000000
 41
0.000000
 42
0.000000
  0
VERTEX
  5
339
100
AcDbEntity
  8
BG_OUTLINE
100
AcDbVertex
100
AcDb2dVertex
 10
0.000000
 20
-10.000000
 40
0.000000
 41
0.000000
 42
0.000000
  0
VERTEX
  5
33a
100
AcDbEntity
  8
BG_OUTLINE
100
AcDbVertex
100
AcDb2dVertex
 10
0.000000
 20
0.000000
 40
0.000000
 41
0.000000
 42
0.000000
  0
VERTEX
  5
33b
100
AcDbEntity
  8
BG_OUTLINE
100
AcDbVertex
100
AcDb2dVertex
 10
180.000000
 20
0.000000
 40
0.000000
 41
0.000000
 42
0.000000
  0
SEQEND
  5
336
100
AcDbEntity
  0
POLYLINE
  5
33c
100
AcDbEntity
  8
BG_OUTLINE
100
AcDb2dPolyline
 66
1
 70
0
 40
0.000000
 41
0.000000
 39
0.000000
  0
VERTEX
  5
33e
100
AcDbEntity
  8
BG_OUTLINE
100
AcDbVertex
100
AcDb2dVertex
 10
0.000000
 20
150.000000
 40
0.000000
 41
0.000000
 42
0.000000
  0
VERTEX
  5
33f
100
AcDbEntity
  8
BG_OUTLINE
100
AcDbVertex
100
AcDb2dVertex
 10
0.000000
 20
160.000000
 40
0.000000
 41
0.000000
 42
0.000000
  0
VERTEX
  5
340
100
AcDbEntity
  8
BG_OUTLINE
100
AcDbVertex
100
AcDb2dVertex
 10
180.000000
 20
160.000000
 40
0.000000
 41
0.000000
 42
0.000000
  0
VERTEX
  5
341
100
AcDbEntity
  8
BG_OUTLINE
100
AcDbVertex
100
AcDb2dVertex
 10
180.000000
 20
150.000000
 40
0.000000
 41
0.000000
 42
0.000000
  0
VERTEX
  5
342
100
AcDbEntity
  8
BG_OUTLINE
100
AcDbVertex
100
AcDb2dVertex
 10
0.000000
 20
150.000000
 40
0.000000
 41
0.000000
 42
0.000000
  0
SEQEND
  5
33d
100
AcDbEntity
  0
POLYLINE
  5
343
100
AcDbEntity
  8
BG_OUTLINE
100
AcDb2dPolyline
 66
1
 70
0
 40
0.000000
 41
0.000000
 39
0.000000
  0
VERTEX
  5
345
100
AcDbEntity
  8
BG_OUTLINE
100
AcDbVertex
100
AcDb2dVertex
 10
180.000000
 20
15.000000
 40
0.000000
 41
0.000000
 42
0.000000
  0
VERTEX
  5
346
100
AcDbEntity
  8
BG_OUTLINE
100
AcDbVertex
100
AcDb2dVertex
 10
180.000000
 20
149.000000
 40
0.000000
 41
0.000000
 42
0.414214
  0
VERTEX
  5
347
100
AcDbEntity
  8
BG_OUTLINE
100
AcDbVertex
100
AcDb2dVertex
 10
179.000000
 20
150.000000
 40
0.000000
 41
0.000000
 42
0.000000
  0
VERTEX
  5
348
100
AcDbEntity
  8
BG_OUTLINE
100
AcDbVertex
100
AcDb2dVertex
 10
1.000000
 20
150.000000
 40
0.000000
 41
0.000000
 42
0.414214
  0
VERTEX
  5
349
100
AcDbEntity
  8
BG_OUTLINE
100
AcDbVertex
100
AcDb2dVertex
 10
0.000000
 20
149.000000
 40
0.000000
 41
0.000000
 42
0.000000
  0
VERTEX
  5
34a
100
AcDbEntity
  8
BG_OUTLINE
100
AcDbVertex
100
AcDb2dVertex
 10
0.000000
 20
1.000000
 40
0.000000
 41
0.000000
 42
0.414214
  0
VERTEX
  5
34b
100
AcDbEntity
  8
BG_OUTLINE
100
AcDbVertex
100
AcDb2dVertex
 10
1.000000
 20
0.000000
 40
0.000000
 41
0.000000
 42
0.000000
  0
VERTEX
  5
34c
100
AcDbEntity
  8
BG_OUTLINE
100
AcDbVertex
100
AcDb2dVertex
 10
179.000000
 20
0.000000
 40
0.000000
 41
0.000000
 42
0.414214
  0
VERTEX
  5
34d
100
AcDbEntity
  8
BG_OUTLINE
100
AcDbVertex
100
AcDb2dVertex
 10
180.000000
 20
1.000000
 40
0.000000
 41
0.000000
 42
0.000000
  0
VERTEX
  5
34e
100
AcDbEntity
  8
BG_OUTLINE
100
AcDbVertex
100
AcDb2dVertex
 10
180.000000
 20
149.000000
 40
0.000000
 41
0.000000
 42
0.000000
  0
SEQEND
  5
344
100
AcDbEntity
  0
ENDSEC
  0
SECTION
  2
OBJECTS
  0
DICTIONARY
  5
16
100
AcDbDictionary
  3
ACAD_GROUP
350
17
  3
ACAD_MLINESTYLE
350
18
  0
DICTIONARY
  5
17
100
AcDbDictionary
  0
DICTIONARY
  5
18
100
AcDbDictionary
  0
ENDSEC
  0
EOF
