0
SECTION
2
HEADER
999
*** POWERPCB  HEADER ***
9
$EXTMIN
10
-267.622
20
-47.4775093333
9
$EXTMAX
10
-158.255
20
-1.067048
9
$FILLMODE
70
0
9
$GRIDMODE
70
1
9
$GRIDUNIT
10
1
20
1
9
$INSBASE
10
-226.7119726667
20
-248.474928
9
$LIMCHECK
70
0
9
$PLINEWID
40
0.025
9
$SNAPMODE
70
1
9
$SNAPUNIT
10
0.01
20
0.01
9
$TEXTSIZE
40
1
9
$TEXTSTYLE
7
W0$1
9
$USERI1
70
101
9
$USERI2
70
1
9
$USERI5
70
150
9
$VIEWCTR
10
-228.714558
20
-28.5669353333
0
ENDSEC
0
SECTION
2
TABLES
999
*** POWERPCB  LTYPE ***
0
TABLE
2
LTYPE
70
64
0
LTYPE
2
CONTINUOUS
70
64
3
---
72
65
73
0
40
0
0
LTYPE
2
SIG_2
70
64
3
-3.3V_IR:=2 0 0
72
65
73
2
40
2
49
1
49
1
0
LTYPE
2
CON_56
70
64
3
2 44 1 35 1
72
65
73
2
40
2
49
1
49
1
0
LTYPE
2
CON_57
70
64
3
2 32 5 44 1
72
65
73
2
40
2
49
1
49
1
0
LTYPE
2
SIG_3
70
64
3
SDA_IR:=2 0 0
72
65
73
2
40
2
49
1
49
1
0
LTYPE
2
CON_77
70
64
3
3 40 1 38 1
72
65
73
2
40
2
49
1
49
1
0
LTYPE
2
CON_80
70
64
3
3 22 9 40 1
72
65
73
2
40
2
49
1
49
1
0
LTYPE
2
CON_95
70
64
3
3 40 1 46 5
72
65
73
2
40
2
49
1
49
1
0
LTYPE
2
SIG_6
70
64
3
$$$14427:=2 0 0
72
65
73
2
40
2
49
1
49
1
0
LTYPE
2
CON_24
70
64
3
6 24 2 23 2
72
65
73
2
40
2
49
1
49
1
0
LTYPE
2
CON_25
70
64
3
6 24 2 31 1
72
65
73
2
40
2
49
1
49
1
0
LTYPE
2
CON_26
70
64
3
6 34 2 33 2
72
65
73
2
40
2
49
1
49
1
0
LTYPE
2
CON_27
70
64
3
6 23 2 34 2
72
65
73
2
40
2
49
1
49
1
0
LTYPE
2
SIG_7
70
64
3
$$$14428:=2 0 0
72
65
73
2
40
2
49
1
49
1
0
LTYPE
2
CON_28
70
64
3
7 23 1 34 1
72
65
73
2
40
2
49
1
49
1
0
LTYPE
2
CON_29
70
64
3
7 33 6 35 2
72
65
73
2
40
2
49
1
49
1
0
LTYPE
2
CON_30
70
64
3
7 33 6 34 1
72
65
73
2
40
2
49
1
49
1
0
LTYPE
2
CON_31
70
64
3
7 22 4 35 2
72
65
73
2
40
2
49
1
49
1
0
LTYPE
2
SIG_8
70
64
3
$$$14431:=2 0 0
72
65
73
2
40
2
49
1
49
1
0
LTYPE
2
CON_32
70
64
3
8 31 2 42 2
72
65
73
2
40
2
49
1
49
1
0
LTYPE
2
SIG_9
70
64
3
$$$14723:=2 0 0
72
65
73
2
40
2
49
1
49
1
0
LTYPE
2
CON_33
70
64
3
9 43 1 32 2
72
65
73
2
40
2
49
1
49
1
0
LTYPE
2
SIG_10
70
64
3
$$$14724:=2 0 0
72
65
73
2
40
2
49
1
49
1
0
LTYPE
2
CON_34
70
64
3
10 43 2 32 4
72
65
73
2
40
2
49
1
49
1
0
LTYPE
2
SIG_11
70
64
3
$$$14725:=2 0 0
72
65
73
2
40
2
49
1
49
1
0
LTYPE
2
CON_35
70
64
3
11 22 1 36 2
72
65
73
2
40
2
49
1
49
1
0
LTYPE
2
CON_36
70
64
3
11 36 2 37 2
72
65
73
2
40
2
49
1
49
1
0
LTYPE
2
CON_37
70
64
3
11 38 2 37 2
72
65
73
2
40
2
49
1
49
1
0
LTYPE
2
CON_38
70
64
3
11 38 2 39 2
72
65
73
2
40
2
49
1
49
1
0
LTYPE
2
SIG_15
70
64
3
+3.3V_IR:=2 0 0
72
65
73
2
40
2
49
1
49
1
0
LTYPE
2
CON_47
70
64
3
15 28 2 25 2
72
65
73
2
40
2
49
1
49
1
0
LTYPE
2
CON_48
70
64
3
15 25 2 26 2
72
65
73
2
40
2
49
1
49
1
0
LTYPE
2
CON_49
70
64
3
15 27 2 22 8
72
65
73
2
40
2
49
1
49
1
0
LTYPE
2
CON_50
70
64
3
15 27 2 28 2
72
65
73
2
40
2
49
1
49
1
0
LTYPE
2
CON_51
70
64
3
15 46 1 29 2
72
65
73
2
40
2
49
1
49
1
0
LTYPE
2
CON_52
70
64
3
15 29 2 30 2
72
65
73
2
40
2
49
1
49
1
0
LTYPE
2
CON_85
70
64
3
15 28 2 37 1
72
65
73
2
40
2
49
1
49
1
0
LTYPE
2
CON_53
70
64
3
15 30 2 32 8
72
65
73
2
40
2
49
1
49
1
0
LTYPE
2
CON_86
70
64
3
15 40 2 28 2
72
65
73
2
40
2
49
1
49
1
0
LTYPE
2
CON_54
70
64
3
15 26 2 33 7
72
65
73
2
40
2
49
1
49
1
0
LTYPE
2
CON_87
70
64
3
15 28 2 41 2
72
65
73
2
40
2
49
1
49
1
0
LTYPE
2
CON_96
70
64
3
15 28 2 46 1
72
65
73
2
40
2
49
1
49
1
0
LTYPE
2
SIG_18
70
64
3
GND_IR:=2 0 0
72
65
73
2
40
2
49
1
49
1
0
LTYPE
2
CON_60
70
64
3
18 31 3 24 1
72
65
73
2
40
2
49
1
49
1
0
LTYPE
2
CON_61
70
64
3
18 25 1 26 1
72
65
73
2
40
2
49
1
49
1
0
LTYPE
2
CON_62
70
64
3
18 22 3 26 1
72
65
73
2
40
2
49
1
49
1
0
LTYPE
2
CON_63
70
64
3
18 29 1 27 1
72
65
73
2
40
2
49
1
49
1
0
LTYPE
2
CON_91
70
64
3
18 25 1 36 1
72
65
73
2
40
2
49
1
49
1
0
LTYPE
2
CON_64
70
64
3
18 29 1 28 1
72
65
73
2
40
2
49
1
49
1
0
LTYPE
2
CON_65
70
64
3
18 30 1 29 1
72
65
73
2
40
2
49
1
49
1
0
LTYPE
2
CON_66
70
64
3
18 22 3 30 1
72
65
73
2
40
2
49
1
49
1
0
LTYPE
2
CON_67
70
64
3
18 30 1 31 3
72
65
73
2
40
2
49
1
49
1
0
LTYPE
2
CON_68
70
64
3
18 30 1 32 3
72
65
73
2
40
2
49
1
49
1
0
LTYPE
2
CON_69
70
64
3
18 32 6 30 1
72
65
73
2
40
2
49
1
49
1
0
LTYPE
2
CON_70
70
64
3
18 33 3 33 4
72
65
73
2
40
2
49
1
49
1
0
LTYPE
2
CON_71
70
64
3
18 31 3 33 4
72
65
73
2
40
2
49
1
49
1
0
LTYPE
2
CON_92
70
64
3
18 31 3 42 1
72
65
73
2
40
2
49
1
49
1
0
LTYPE
2
CON_93
70
64
3
18 30 1 44 2
72
65
73
2
40
2
49
1
49
1
0
LTYPE
2
CON_98
70
64
3
18 22 3 46 2
72
65
73
2
40
2
49
1
49
1
0
LTYPE
2
CON_99
70
64
3
18 46 3 46 2
72
65
73
2
40
2
49
1
49
1
0
LTYPE
2
SIG_19
70
64
3
SCL_IR:=2 0 0
72
65
73
2
40
2
49
1
49
1
0
LTYPE
2
CON_73
70
64
3
19 46 4 39 1
72
65
73
2
40
2
49
1
49
1
0
LTYPE
2
CON_75
70
64
3
19 41 1 22 10
72
65
73
2
40
2
49
1
49
1
0
LTYPE
2
CON_94
70
64
3
19 41 1 46 4
72
65
73
2
40
2
49
1
49
1
0
LTYPE
2
PADS_DOT_300000
70
64
3
PADS DOTTED LINE STYLE
72
65
73
2
40
0.8
49
0.2
49
-0.6
0
ENDTAB
999
*** POWERPCB  LAYER ***
0
TABLE
2
LAYER
70
38
0
LAYER
2
DBLAYERS
70
1
62
-255
6
CONTINUOUS
0
LAYER
2
BOARD_OUTLINE_00
70
0
62
255
6
CONTINUOUS
0
LAYER
2
BOARD_CUTOUT_00
70
0
62
255
6
CONTINUOUS
0
LAYER
2
2D_LINE_01
70
0
62
4
6
CONTINUOUS
0
LAYER
2
LABEL_INFO
70
1
62
-255
6
CONTINUOUS
0
LAYER
2
LABEL_ATTRIBUTE
70
1
62
-255
6
CONTINUOUS
0
LAYER
2
PART_TYPE_01
70
1
62
-2
6
CONTINUOUS
0
LAYER
2
PART_NAME_01
70
0
62
255
6
CONTINUOUS
0
LAYER
2
PART_INFO
70
1
62
-255
6
CONTINUOUS
0
LAYER
2
PART_PTS
70
1
62
-255
6
CONTINUOUS
0
LAYER
2
PART_NAME_127
70
1
62
-250
6
CONTINUOUS
0
LAYER
2
ATTRIBUTE_00
70
1
62
-150
6
CONTINUOUS
0
LAYER
2
PART_NAME_126
70
1
62
-250
6
CONTINUOUS
0
LAYER
2
TRACE_02
70
0
62
6
6
CONTINUOUS
0
LAYER
2
TRACE_01
70
0
62
4
6
CONTINUOUS
0
LAYER
2
SYM_NAME
70
1
62
-255
6
CONTINUOUS
0
LAYER
2
SYM_PART_NAME_01
70
1
62
-255
6
CONTINUOUS
0
LAYER
2
SYM_PART_TYPE_01
70
1
62
-255
6
CONTINUOUS
0
LAYER
2
SYM_TERMINAL
70
1
62
-255
6
CONTINUOUS
0
LAYER
2
PKG_INFO
70
1
62
-255
6
CONTINUOUS
0
LAYER
2
SYM_PART_NAME_127
70
1
62
-255
6
CONTINUOUS
0
LAYER
2
SYM_ATTRIBUTE_00
70
1
62
-255
6
CONTINUOUS
0
LAYER
2
SYM_PART_NAME_126
70
1
62
-255
6
CONTINUOUS
0
LAYER
2
VIAPTS
70
0
62
4
6
CONTINUOUS
0
LAYER
2
PART_TOP_2DLINE_126
70
0
62
255
6
CONTINUOUS
0
LAYER
2
PART_TOP_2DLINE_127
70
1
62
-250
6
CONTINUOUS
0
LAYER
2
PART_TOP_2DLINE_120
70
1
62
-250
6
CONTINUOUS
0
LAYER
2
DRIL_PLTE_THRU_01
70
0
62
4
6
CONTINUOUS
0
LAYER
2
DRIL_PLTE_THRU_02
70
0
62
216
6
CONTINUOUS
0
LAYER
2
PADS_INNER
70
0
62
136
6
CONTINUOUS
0
LAYER
2
PADS_BOT
70
0
62
6
6
CONTINUOUS
0
LAYER
2
PADS_XR_121
70
1
62
-250
6
CONTINUOUS
0
LAYER
2
PADS_XR_123
70
1
62
-250
6
CONTINUOUS
0
LAYER
2
PADS_TOP
70
0
62
136
6
CONTINUOUS
0
LAYER
2
PART_TOP_2DLINE_125
70
1
62
-250
6
CONTINUOUS
0
LAYER
2
PADS_XR_128
70
1
62
-250
6
CONTINUOUS
0
LAYER
2
PCB_PARAMS
70
1
62
-255
6
CONTINUOUS
0
LAYER
2
DRIL_SYMBOL
70
0
62
255
6
CONTINUOUS
0
ENDTAB
999
*** POWERPCB  TEXT STYLE ***
0
TABLE
2
STYLE
70
14
0
STYLE
2
W0$127
70
64
40
0
41
0.75
42
0
50
0
71
0
3
simplex
0
STYLE
2
W0$1
70
64
40
0
41
0.75
42
0
50
0
71
0
3
simplex
0
STYLE
2
W0$05
70
64
40
0
41
0.75
42
0
50
0
71
0
3
simplex
0
STYLE
2
W0$0381
70
64
40
0
41
0.75
42
0
50
0
71
0
3
simplex
0
STYLE
2
W0$1016
70
64
40
0
41
0.75
42
0
50
0
71
0
3
simplex
0
STYLE
2
W0$076
70
64
40
0
41
0.75
42
0
50
0
71
0
3
simplex
0
STYLE
2
W0$025
70
64
40
0
41
0.75
42
0
50
0
71
0
3
simplex
0
STYLE
2
W0$127R1
70
64
40
0
41
0.75
42
0
50
0
71
0
3
simplex
0
STYLE
2
W0$05R1
70
64
40
0
41
0.75
42
0
50
0
71
0
3
simplex
0
STYLE
2
W0$0381R0
70
64
40
0
41
0.75
42
0
50
0
71
0
3
simplex
0
STYLE
2
W0$1016R1
70
64
40
0
41
0.75
42
0
50
0
71
0
3
simplex
0
STYLE
2
W0$05R0
70
64
40
0
41
0.75
42
0
50
0
71
0
3
simplex
0
STYLE
2
W0$076R0
70
64
40
0
41
0.75
42
0
50
0
71
0
3
simplex
0
STYLE
2
W0$025R0
70
64
40
0
41
0.75
42
0
50
0
71
0
3
simplex
0
ENDTAB
0
ENDSEC
0
SECTION
2
BLOCKS
999
*** POWERPCB  DBLAYER ***
0
BLOCK
2
DBLAYERS
8
0
10
0
20
0
3
DBLAYERS
70
64
0
TEXT
8
DBLAYERS
10
0
20
-3.048
40
1.778
1
__It__Is__Job__Name__:=ATS8754_P_H-SENSOR_MAIN_BOARD_REV1_0-230508.pcb
999
 *  1.Number             2.Type                  3.RouteColor
999
 *  4.ViaColor           5.PadColor              6.CopperColor
999
 *  7.2DLineColor        8.TextColor             9.ErrorColor
999
 * 10.TopComponentColor 11.BottomComponentColor 12.RoutingDirection
999
 * 13.LayerThickness    14.CopperThickness      15.Dielectric
999
 * 16.IsRouteable       17.IsVisible            18.IsSelectable
999
 * 19.IsPrepreg         20.AssSilkScreen        21.AssPasteMask
999
 * 22.AssSolderMask     23.AssAssembly
0
TEXT
8
DBLAYERS
10
0
20
-6.096
40
1.778
1
Top:=1 1 11 11 3 11 11 11 11 15 0 0 90000 64500 4.3000001907 1 1 1 0 126 123 121 127 0 0 1 15 14 25 3 
0
TEXT
8
DBLAYERS
10
0
20
-9.144
40
1.778
1
Bottom:=2 1 13 13 13 13 13 13 13 0 0 1 0 52500 3.2999999523 1 1 1 0 129 122 128 130 0 0 1 0 0 0 0 
0
ENDBLK
999
*** POWERPCB  BOARD ***
0
BLOCK
2
BOARD_11
8
0
10
0
20
0
3
BOARD_11
70
64
0
POLYLINE
8
BOARD_OUTLINE_00
66
1
40
0.09
41
0.09
70
1
0
VERTEX
8
BOARD_OUTLINE_00
10
0
20
0
0
VERTEX
8
BOARD_OUTLINE_00
10
0
20
-34
0
VERTEX
8
BOARD_OUTLINE_00
10
65
20
-34
0
VERTEX
8
BOARD_OUTLINE_00
10
65
20
0
0
SEQEND
0
INSERT
2
SMOOTH_0$09
8
BOARD_OUTLINE_00
10
0
20
0
0
INSERT
2
SMOOTH_0$09
8
BOARD_OUTLINE_00
10
0
20
-34
0
INSERT
2
SMOOTH_0$09
8
BOARD_OUTLINE_00
10
65
20
-34
0
INSERT
2
SMOOTH_0$09
8
BOARD_OUTLINE_00
10
65
20
0
0
POLYLINE
8
BOARD_CUTOUT_00
66
1
40
0.09
41
0.09
70
1
0
VERTEX
8
BOARD_CUTOUT_00
10
3.4
20
-4.5
42
1
0
VERTEX
8
BOARD_CUTOUT_00
10
5.6
20
-4.5
42
1
0
SEQEND
0
POLYLINE
8
BOARD_CUTOUT_00
66
1
40
0.09
41
0.09
70
1
0
VERTEX
8
BOARD_CUTOUT_00
10
26.9
20
-4.5
42
1
0
VERTEX
8
BOARD_CUTOUT_00
10
29.1
20
-4.5
42
1
0
SEQEND
0
POLYLINE
8
BOARD_CUTOUT_00
66
1
40
0.09
41
0.09
70
1
0
VERTEX
8
BOARD_CUTOUT_00
10
35.9
20
-4.5
42
1
0
VERTEX
8
BOARD_CUTOUT_00
10
38.1
20
-4.5
42
1
0
SEQEND
0
POLYLINE
8
BOARD_CUTOUT_00
66
1
40
0.09
41
0.09
70
1
0
VERTEX
8
BOARD_CUTOUT_00
10
59.4
20
-4.5
42
1
0
VERTEX
8
BOARD_CUTOUT_00
10
61.6
20
-4.5
42
1
0
SEQEND
0
POLYLINE
8
BOARD_CUTOUT_00
66
1
40
0.09
41
0.09
70
1
0
VERTEX
8
BOARD_CUTOUT_00
10
3.4
20
-29.5
42
1
0
VERTEX
8
BOARD_CUTOUT_00
10
5.6
20
-29.5
42
1
0
SEQEND
0
POLYLINE
8
BOARD_CUTOUT_00
66
1
40
0.09
41
0.09
70
1
0
VERTEX
8
BOARD_CUTOUT_00
10
26.9
20
-29.5
42
1
0
VERTEX
8
BOARD_CUTOUT_00
10
29.1
20
-29.5
42
1
0
SEQEND
0
POLYLINE
8
BOARD_CUTOUT_00
66
1
40
0.09
41
0.09
70
1
0
VERTEX
8
BOARD_CUTOUT_00
10
35.9
20
-29.5
42
1
0
VERTEX
8
BOARD_CUTOUT_00
10
38.1
20
-29.5
42
1
0
SEQEND
0
POLYLINE
8
BOARD_CUTOUT_00
66
1
40
0.09
41
0.09
70
1
0
VERTEX
8
BOARD_CUTOUT_00
10
59.4
20
-29.5
42
1
0
VERTEX
8
BOARD_CUTOUT_00
10
61.6
20
-29.5
42
1
0
SEQEND
0
ENDBLK
999
*** POWERPCB  2DLINE ***
0
BLOCK
2
DRAWING_13
8
0
10
0
20
0
3
DRAWING_13
70
64
0
POLYLINE
8
2D_LINE_01
66
1
40
0.0254
41
0.0254
0
VERTEX
8
2D_LINE_01
10
-47.5000006667
20
5.4
0
VERTEX
8
2D_LINE_01
10
-47.5000006667
20
-28.6
0
SEQEND
0
INSERT
2
SMOOTH_0$0254
8
2D_LINE_01
10
-47.5000006667
20
5.4
0
INSERT
2
SMOOTH_0$0254
8
2D_LINE_01
10
-47.5000006667
20
-28.6
0
POLYLINE
8
2D_LINE_01
66
1
40
0.0254
41
0.0254
0
VERTEX
8
2D_LINE_01
10
-38.7000006667
20
7.4
0
VERTEX
8
2D_LINE_01
10
-23.8000006667
20
7.4
0
SEQEND
0
INSERT
2
SMOOTH_0$0254
8
2D_LINE_01
10
-38.7000006667
20
7.4
0
INSERT
2
SMOOTH_0$0254
8
2D_LINE_01
10
-23.8000006667
20
7.4
0
POLYLINE
8
2D_LINE_01
66
1
40
0.0254
41
0.0254
0
VERTEX
8
2D_LINE_01
10
-38.7000006667
20
7.4
0
VERTEX
8
2D_LINE_01
10
-38.7000006667
20
-0.5
0
SEQEND
0
INSERT
2
SMOOTH_0$0254
8
2D_LINE_01
10
-38.7000006667
20
7.4
0
INSERT
2
SMOOTH_0$0254
8
2D_LINE_01
10
-38.7000006667
20
-0.5
0
POLYLINE
8
2D_LINE_01
66
1
40
0.0254
41
0.0254
0
VERTEX
8
2D_LINE_01
10
-38.0000006667
20
1.5
0
VERTEX
8
2D_LINE_01
10
-38.0000006667
20
2.5
0
SEQEND
0
INSERT
2
SMOOTH_0$0254
8
2D_LINE_01
10
-38.0000006667
20
1.5
0
INSERT
2
SMOOTH_0$0254
8
2D_LINE_01
10
-38.0000006667
20
2.5
0
POLYLINE
8
2D_LINE_01
66
1
40
0.0254
41
0.0254
0
VERTEX
8
2D_LINE_01
10
-36.6100006667
20
0.35
0
VERTEX
8
2D_LINE_01
10
-36.8750006667
20
-0.5
0
SEQEND
0
INSERT
2
SMOOTH_0$0254
8
2D_LINE_01
10
-36.6100006667
20
0.35
0
INSERT
2
SMOOTH_0$0254
8
2D_LINE_01
10
-36.8750006667
20
-0.5
0
POLYLINE
8
2D_LINE_01
66
1
40
0.0254
41
0.0254
0
VERTEX
8
2D_LINE_01
10
-15.0000006667
20
5.4
0
VERTEX
8
2D_LINE_01
10
-23.8000006667
20
5.4
0
SEQEND
0
INSERT
2
SMOOTH_0$0254
8
2D_LINE_01
10
-15.0000006667
20
5.4
0
INSERT
2
SMOOTH_0$0254
8
2D_LINE_01
10
-23.8000006667
20
5.4
0
POLYLINE
8
2D_LINE_01
66
1
40
0.0254
41
0.0254
0
VERTEX
8
2D_LINE_01
10
-38.7000006667
20
5.4
0
VERTEX
8
2D_LINE_01
10
-47.5000006667
20
5.4
0
SEQEND
0
INSERT
2
SMOOTH_0$0254
8
2D_LINE_01
10
-38.7000006667
20
5.4
0
INSERT
2
SMOOTH_0$0254
8
2D_LINE_01
10
-47.5000006667
20
5.4
0
POLYLINE
8
2D_LINE_01
66
1
40
0.0254
41
0.0254
0
VERTEX
8
2D_LINE_01
10
-36.6100006667
20
1.5
0
VERTEX
8
2D_LINE_01
10
-36.6100006667
20
0.35
0
SEQEND
0
INSERT
2
SMOOTH_0$0254
8
2D_LINE_01
10
-36.6100006667
20
1.5
0
INSERT
2
SMOOTH_0$0254
8
2D_LINE_01
10
-36.6100006667
20
0.35
0
POLYLINE
8
2D_LINE_01
66
1
40
0.0254
41
0.0254
0
VERTEX
8
2D_LINE_01
10
-36.6000006667
20
1.5
0
VERTEX
8
2D_LINE_01
10
-36.6000006667
20
0.8
0
SEQEND
0
INSERT
2
SMOOTH_0$0254
8
2D_LINE_01
10
-36.6000006667
20
1.5
0
INSERT
2
SMOOTH_0$0254
8
2D_LINE_01
10
-36.6000006667
20
0.8
0
POLYLINE
8
2D_LINE_01
66
1
40
0.0254
41
0.0254
0
VERTEX
8
2D_LINE_01
10
-35.9000006667
20
1.5
0
VERTEX
8
2D_LINE_01
10
-35.9000006667
20
0.8
0
SEQEND
0
INSERT
2
SMOOTH_0$0254
8
2D_LINE_01
10
-35.9000006667
20
1.5
0
INSERT
2
SMOOTH_0$0254
8
2D_LINE_01
10
-35.9000006667
20
0.8
0
POLYLINE
8
2D_LINE_01
66
1
40
0.0254
41
0.0254
0
VERTEX
8
2D_LINE_01
10
-35.8900006667
20
0.35
0
VERTEX
8
2D_LINE_01
10
-35.8900006667
20
1.5
0
SEQEND
0
INSERT
2
SMOOTH_0$0254
8
2D_LINE_01
10
-35.8900006667
20
0.35
0
INSERT
2
SMOOTH_0$0254
8
2D_LINE_01
10
-35.8900006667
20
1.5
0
POLYLINE
8
2D_LINE_01
66
1
40
0.0254
41
0.0254
0
VERTEX
8
2D_LINE_01
10
-34.1100006667
20
0.35
0
VERTEX
8
2D_LINE_01
10
-34.3750006667
20
-0.5
0
SEQEND
0
INSERT
2
SMOOTH_0$0254
8
2D_LINE_01
10
-34.1100006667
20
0.35
0
INSERT
2
SMOOTH_0$0254
8
2D_LINE_01
10
-34.3750006667
20
-0.5
0
POLYLINE
8
2D_LINE_01
66
1
40
0.0254
41
0.0254
0
VERTEX
8
2D_LINE_01
10
-23.8000006667
20
2.5
0
VERTEX
8
2D_LINE_01
10
-38.7000006667
20
2.5
0
SEQEND
0
INSERT
2
SMOOTH_0$0254
8
2D_LINE_01
10
-23.8000006667
20
2.5
0
INSERT
2
SMOOTH_0$0254
8
2D_LINE_01
10
-38.7000006667
20
2.5
0
POLYLINE
8
2D_LINE_01
66
1
40
0.0254
41
0.0254
0
VERTEX
8
2D_LINE_01
10
-34.1100006667
20
1.5
0
VERTEX
8
2D_LINE_01
10
-34.1100006667
20
0.35
0
SEQEND
0
INSERT
2
SMOOTH_0$0254
8
2D_LINE_01
10
-34.1100006667
20
1.5
0
INSERT
2
SMOOTH_0$0254
8
2D_LINE_01
10
-34.1100006667
20
0.35
0
POLYLINE
8
2D_LINE_01
66
1
40
0.0254
41
0.0254
0
VERTEX
8
2D_LINE_01
10
-34.1000006667
20
1.5
0
VERTEX
8
2D_LINE_01
10
-34.1000006667
20
0.8
0
SEQEND
0
INSERT
2
SMOOTH_0$0254
8
2D_LINE_01
10
-34.1000006667
20
1.5
0
INSERT
2
SMOOTH_0$0254
8
2D_LINE_01
10
-34.1000006667
20
0.8
0
POLYLINE
8
2D_LINE_01
66
1
40
0.0254
41
0.0254
0
VERTEX
8
2D_LINE_01
10
-33.4000006667
20
1.5
0
VERTEX
8
2D_LINE_01
10
-33.4000006667
20
0.8
0
SEQEND
0
INSERT
2
SMOOTH_0$0254
8
2D_LINE_01
10
-33.4000006667
20
1.5
0
INSERT
2
SMOOTH_0$0254
8
2D_LINE_01
10
-33.4000006667
20
0.8
0
POLYLINE
8
2D_LINE_01
66
1
40
0.0254
41
0.0254
0
VERTEX
8
2D_LINE_01
10
-33.3900006667
20
0.35
0
VERTEX
8
2D_LINE_01
10
-33.3900006667
20
1.5
0
SEQEND
0
INSERT
2
SMOOTH_0$0254
8
2D_LINE_01
10
-33.3900006667
20
0.35
0
INSERT
2
SMOOTH_0$0254
8
2D_LINE_01
10
-33.3900006667
20
1.5
0
POLYLINE
8
2D_LINE_01
66
1
40
0.0254
41
0.0254
0
VERTEX
8
2D_LINE_01
10
-31.6100006667
20
0.35
0
VERTEX
8
2D_LINE_01
10
-31.8750006667
20
-0.5
0
SEQEND
0
INSERT
2
SMOOTH_0$0254
8
2D_LINE_01
10
-31.6100006667
20
0.35
0
INSERT
2
SMOOTH_0$0254
8
2D_LINE_01
10
-31.8750006667
20
-0.5
0
POLYLINE
8
2D_LINE_01
66
1
40
0.0254
41
0.0254
0
VERTEX
8
2D_LINE_01
10
-23.8000006667
20
1.5
0
VERTEX
8
2D_LINE_01
10
-38.7000006667
20
1.5
0
SEQEND
0
INSERT
2
SMOOTH_0$0254
8
2D_LINE_01
10
-23.8000006667
20
1.5
0
INSERT
2
SMOOTH_0$0254
8
2D_LINE_01
10
-38.7000006667
20
1.5
0
POLYLINE
8
2D_LINE_01
66
1
40
0.0254
41
0.0254
0
VERTEX
8
2D_LINE_01
10
-25.9000006667
20
1.15
0
VERTEX
8
2D_LINE_01
10
-26.6000006667
20
1.15
0
SEQEND
0
INSERT
2
SMOOTH_0$0254
8
2D_LINE_01
10
-25.9000006667
20
1.15
0
INSERT
2
SMOOTH_0$0254
8
2D_LINE_01
10
-26.6000006667
20
1.15
0
POLYLINE
8
2D_LINE_01
66
1
40
0.0254
41
0.0254
0
VERTEX
8
2D_LINE_01
10
-28.4000006667
20
1.15
0
VERTEX
8
2D_LINE_01
10
-29.1000006667
20
1.15
0
SEQEND
0
INSERT
2
SMOOTH_0$0254
8
2D_LINE_01
10
-28.4000006667
20
1.15
0
INSERT
2
SMOOTH_0$0254
8
2D_LINE_01
10
-29.1000006667
20
1.15
0
POLYLINE
8
2D_LINE_01
66
1
40
0.0254
41
0.0254
0
VERTEX
8
2D_LINE_01
10
-30.9000006667
20
1.15
0
VERTEX
8
2D_LINE_01
10
-31.6000006667
20
1.15
0
SEQEND
0
INSERT
2
SMOOTH_0$0254
8
2D_LINE_01
10
-30.9000006667
20
1.15
0
INSERT
2
SMOOTH_0$0254
8
2D_LINE_01
10
-31.6000006667
20
1.15
0
POLYLINE
8
2D_LINE_01
66
1
40
0.0254
41
0.0254
0
VERTEX
8
2D_LINE_01
10
-33.4000006667
20
1.15
0
VERTEX
8
2D_LINE_01
10
-34.1000006667
20
1.15
0
SEQEND
0
INSERT
2
SMOOTH_0$0254
8
2D_LINE_01
10
-33.4000006667
20
1.15
0
INSERT
2
SMOOTH_0$0254
8
2D_LINE_01
10
-34.1000006667
20
1.15
0
POLYLINE
8
2D_LINE_01
66
1
40
0.0254
41
0.0254
0
VERTEX
8
2D_LINE_01
10
-35.9000006667
20
1.15
0
VERTEX
8
2D_LINE_01
10
-36.6000006667
20
1.15
0
SEQEND
0
INSERT
2
SMOOTH_0$0254
8
2D_LINE_01
10
-35.9000006667
20
1.15
0
INSERT
2
SMOOTH_0$0254
8
2D_LINE_01
10
-36.6000006667
20
1.15
0
POLYLINE
8
2D_LINE_01
66
1
40
0.0254
41
0.0254
0
VERTEX
8
2D_LINE_01
10
-26.719118
20
0
0
VERTEX
8
2D_LINE_01
10
-28.2808826667
20
0
0
SEQEND
0
INSERT
2
SMOOTH_0$0254
8
2D_LINE_01
10
-26.719118
20
0
0
INSERT
2
SMOOTH_0$0254
8
2D_LINE_01
10
-28.2808826667
20
0
0
POLYLINE
8
2D_LINE_01
66
1
40
0.0254
41
0.0254
0
VERTEX
8
2D_LINE_01
10
-29.219118
20
0
0
VERTEX
8
2D_LINE_01
10
-30.7808826667
20
0
0
SEQEND
0
INSERT
2
SMOOTH_0$0254
8
2D_LINE_01
10
-29.219118
20
0
0
INSERT
2
SMOOTH_0$0254
8
2D_LINE_01
10
-30.7808826667
20
0
0
POLYLINE
8
2D_LINE_01
66
1
40
0.0254
41
0.0254
0
VERTEX
8
2D_LINE_01
10
-31.719118
20
0
0
VERTEX
8
2D_LINE_01
10
-33.2808826667
20
0
0
SEQEND
0
INSERT
2
SMOOTH_0$0254
8
2D_LINE_01
10
-31.719118
20
0
0
INSERT
2
SMOOTH_0$0254
8
2D_LINE_01
10
-33.2808826667
20
0
0
POLYLINE
8
2D_LINE_01
66
1
40
0.0254
41
0.0254
0
VERTEX
8
2D_LINE_01
10
-34.219118
20
0
0
VERTEX
8
2D_LINE_01
10
-35.7808826667
20
0
0
SEQEND
0
INSERT
2
SMOOTH_0$0254
8
2D_LINE_01
10
-34.219118
20
0
0
INSERT
2
SMOOTH_0$0254
8
2D_LINE_01
10
-35.7808826667
20
0
0
POLYLINE
8
2D_LINE_01
66
1
40
0.0254
41
0.0254
0
VERTEX
8
2D_LINE_01
10
-38.7000006667
20
0
0
VERTEX
8
2D_LINE_01
10
-36.719118
20
0
0
SEQEND
0
INSERT
2
SMOOTH_0$0254
8
2D_LINE_01
10
-38.7000006667
20
0
0
INSERT
2
SMOOTH_0$0254
8
2D_LINE_01
10
-36.719118
20
0
0
POLYLINE
8
2D_LINE_01
66
1
40
0.0254
41
0.0254
0
VERTEX
8
2D_LINE_01
10
-25.7808826667
20
0
0
VERTEX
8
2D_LINE_01
10
-23.8000006667
20
0
0
SEQEND
0
INSERT
2
SMOOTH_0$0254
8
2D_LINE_01
10
-25.7808826667
20
0
0
INSERT
2
SMOOTH_0$0254
8
2D_LINE_01
10
-23.8000006667
20
0
0
POLYLINE
8
2D_LINE_01
66
1
40
0.0254
41
0.0254
0
VERTEX
8
2D_LINE_01
10
-31.6100006667
20
1.5
0
VERTEX
8
2D_LINE_01
10
-31.6100006667
20
0.35
0
SEQEND
0
INSERT
2
SMOOTH_0$0254
8
2D_LINE_01
10
-31.6100006667
20
1.5
0
INSERT
2
SMOOTH_0$0254
8
2D_LINE_01
10
-31.6100006667
20
0.35
0
POLYLINE
8
2D_LINE_01
66
1
40
0.0254
41
0.0254
0
VERTEX
8
2D_LINE_01
10
-31.6000006667
20
1.5
0
VERTEX
8
2D_LINE_01
10
-31.6000006667
20
0.8
0
SEQEND
0
INSERT
2
SMOOTH_0$0254
8
2D_LINE_01
10
-31.6000006667
20
1.5
0
INSERT
2
SMOOTH_0$0254
8
2D_LINE_01
10
-31.6000006667
20
0.8
0
POLYLINE
8
2D_LINE_01
66
1
40
0.0254
41
0.0254
0
VERTEX
8
2D_LINE_01
10
-29.1100006667
20
0.35
0
VERTEX
8
2D_LINE_01
10
-29.3750006667
20
-0.5
0
SEQEND
0
INSERT
2
SMOOTH_0$0254
8
2D_LINE_01
10
-29.1100006667
20
0.35
0
INSERT
2
SMOOTH_0$0254
8
2D_LINE_01
10
-29.3750006667
20
-0.5
0
POLYLINE
8
2D_LINE_01
66
1
40
0.0254
41
0.0254
0
VERTEX
8
2D_LINE_01
10
-38.7000006667
20
-0.5
0
VERTEX
8
2D_LINE_01
10
-36.8750006667
20
-0.5
0
SEQEND
0
INSERT
2
SMOOTH_0$0254
8
2D_LINE_01
10
-38.7000006667
20
-0.5
0
INSERT
2
SMOOTH_0$0254
8
2D_LINE_01
10
-36.8750006667
20
-0.5
0
POLYLINE
8
2D_LINE_01
66
1
40
0.0254
41
0.0254
0
VERTEX
8
2D_LINE_01
10
-35.6250006667
20
-0.5
0
VERTEX
8
2D_LINE_01
10
-34.3750006667
20
-0.5
0
SEQEND
0
INSERT
2
SMOOTH_0$0254
8
2D_LINE_01
10
-35.6250006667
20
-0.5
0
INSERT
2
SMOOTH_0$0254
8
2D_LINE_01
10
-34.3750006667
20
-0.5
0
POLYLINE
8
2D_LINE_01
66
1
40
0.0254
41
0.0254
0
VERTEX
8
2D_LINE_01
10
-33.1250006667
20
-0.5
0
VERTEX
8
2D_LINE_01
10
-31.8750006667
20
-0.5
0
SEQEND
0
INSERT
2
SMOOTH_0$0254
8
2D_LINE_01
10
-33.1250006667
20
-0.5
0
INSERT
2
SMOOTH_0$0254
8
2D_LINE_01
10
-31.8750006667
20
-0.5
0
POLYLINE
8
2D_LINE_01
66
1
40
0.0254
41
0.0254
0
VERTEX
8
2D_LINE_01
10
-30.6250006667
20
-0.5
0
VERTEX
8
2D_LINE_01
10
-29.3750006667
20
-0.5
0
SEQEND
0
INSERT
2
SMOOTH_0$0254
8
2D_LINE_01
10
-30.6250006667
20
-0.5
0
INSERT
2
SMOOTH_0$0254
8
2D_LINE_01
10
-29.3750006667
20
-0.5
0
POLYLINE
8
2D_LINE_01
66
1
40
0.0254
41
0.0254
0
VERTEX
8
2D_LINE_01
10
-28.1250006667
20
-0.5
0
VERTEX
8
2D_LINE_01
10
-26.8750006667
20
-0.5
0
SEQEND
0
INSERT
2
SMOOTH_0$0254
8
2D_LINE_01
10
-28.1250006667
20
-0.5
0
INSERT
2
SMOOTH_0$0254
8
2D_LINE_01
10
-26.8750006667
20
-0.5
0
POLYLINE
8
2D_LINE_01
66
1
40
0.0254
41
0.0254
0
VERTEX
8
2D_LINE_01
10
-25.6250006667
20
-0.5
0
VERTEX
8
2D_LINE_01
10
-23.8000006667
20
-0.5
0
SEQEND
0
INSERT
2
SMOOTH_0$0254
8
2D_LINE_01
10
-25.6250006667
20
-0.5
0
INSERT
2
SMOOTH_0$0254
8
2D_LINE_01
10
-23.8000006667
20
-0.5
0
POLYLINE
8
2D_LINE_01
66
1
40
0.0254
41
0.0254
0
VERTEX
8
2D_LINE_01
10
-30.9000006667
20
1.5
0
VERTEX
8
2D_LINE_01
10
-30.9000006667
20
0.8
0
SEQEND
0
INSERT
2
SMOOTH_0$0254
8
2D_LINE_01
10
-30.9000006667
20
1.5
0
INSERT
2
SMOOTH_0$0254
8
2D_LINE_01
10
-30.9000006667
20
0.8
0
POLYLINE
8
2D_LINE_01
66
1
40
0.0254
41
0.0254
0
VERTEX
8
2D_LINE_01
10
-30.8900006667
20
0.35
0
VERTEX
8
2D_LINE_01
10
-30.8900006667
20
1.5
0
SEQEND
0
INSERT
2
SMOOTH_0$0254
8
2D_LINE_01
10
-30.8900006667
20
0.35
0
INSERT
2
SMOOTH_0$0254
8
2D_LINE_01
10
-30.8900006667
20
1.5
0
POLYLINE
8
2D_LINE_01
66
1
40
0.0254
41
0.0254
0
VERTEX
8
2D_LINE_01
10
-29.1100006667
20
1.5
0
VERTEX
8
2D_LINE_01
10
-29.1100006667
20
0.35
0
SEQEND
0
INSERT
2
SMOOTH_0$0254
8
2D_LINE_01
10
-29.1100006667
20
1.5
0
INSERT
2
SMOOTH_0$0254
8
2D_LINE_01
10
-29.1100006667
20
0.35
0
POLYLINE
8
2D_LINE_01
66
1
40
0.0254
41
0.0254
0
VERTEX
8
2D_LINE_01
10
-29.1000006667
20
1.5
0
VERTEX
8
2D_LINE_01
10
-29.1000006667
20
0.8
0
SEQEND
0
INSERT
2
SMOOTH_0$0254
8
2D_LINE_01
10
-29.1000006667
20
1.5
0
INSERT
2
SMOOTH_0$0254
8
2D_LINE_01
10
-29.1000006667
20
0.8
0
POLYLINE
8
2D_LINE_01
66
1
40
0.0254
41
0.0254
0
VERTEX
8
2D_LINE_01
10
-26.6100006667
20
0.35
0
VERTEX
8
2D_LINE_01
10
-26.8750006667
20
-0.5
0
SEQEND
0
INSERT
2
SMOOTH_0$0254
8
2D_LINE_01
10
-26.6100006667
20
0.35
0
INSERT
2
SMOOTH_0$0254
8
2D_LINE_01
10
-26.8750006667
20
-0.5
0
POLYLINE
8
2D_LINE_01
66
1
40
0.0254
41
0.0254
0
VERTEX
8
2D_LINE_01
10
-28.4000006667
20
1.5
0
VERTEX
8
2D_LINE_01
10
-28.4000006667
20
0.8
0
SEQEND
0
INSERT
2
SMOOTH_0$0254
8
2D_LINE_01
10
-28.4000006667
20
1.5
0
INSERT
2
SMOOTH_0$0254
8
2D_LINE_01
10
-28.4000006667
20
0.8
0
POLYLINE
8
2D_LINE_01
66
1
40
0.0254
41
0.0254
0
VERTEX
8
2D_LINE_01
10
-28.3900006667
20
0.35
0
VERTEX
8
2D_LINE_01
10
-28.3900006667
20
1.5
0
SEQEND
0
INSERT
2
SMOOTH_0$0254
8
2D_LINE_01
10
-28.3900006667
20
0.35
0
INSERT
2
SMOOTH_0$0254
8
2D_LINE_01
10
-28.3900006667
20
1.5
0
POLYLINE
8
2D_LINE_01
66
1
40
0.0254
41
0.0254
0
VERTEX
8
2D_LINE_01
10
-26.6100006667
20
1.5
0
VERTEX
8
2D_LINE_01
10
-26.6100006667
20
0.35
0
SEQEND
0
INSERT
2
SMOOTH_0$0254
8
2D_LINE_01
10
-26.6100006667
20
1.5
0
INSERT
2
SMOOTH_0$0254
8
2D_LINE_01
10
-26.6100006667
20
0.35
0
POLYLINE
8
2D_LINE_01
66
1
40
0.0254
41
0.0254
0
VERTEX
8
2D_LINE_01
10
-26.6000006667
20
1.5
0
VERTEX
8
2D_LINE_01
10
-26.6000006667
20
0.8
0
SEQEND
0
INSERT
2
SMOOTH_0$0254
8
2D_LINE_01
10
-26.6000006667
20
1.5
0
INSERT
2
SMOOTH_0$0254
8
2D_LINE_01
10
-26.6000006667
20
0.8
0
POLYLINE
8
2D_LINE_01
66
1
40
0.0254
41
0.0254
0
VERTEX
8
2D_LINE_01
10
-25.9000006667
20
1.5
0
VERTEX
8
2D_LINE_01
10
-25.9000006667
20
0.8
0
SEQEND
0
INSERT
2
SMOOTH_0$0254
8
2D_LINE_01
10
-25.9000006667
20
1.5
0
INSERT
2
SMOOTH_0$0254
8
2D_LINE_01
10
-25.9000006667
20
0.8
0
POLYLINE
8
2D_LINE_01
66
1
40
0.0254
41
0.0254
0
VERTEX
8
2D_LINE_01
10
-25.8900006667
20
0.35
0
VERTEX
8
2D_LINE_01
10
-25.8900006667
20
1.5
0
SEQEND
0
INSERT
2
SMOOTH_0$0254
8
2D_LINE_01
10
-25.8900006667
20
0.35
0
INSERT
2
SMOOTH_0$0254
8
2D_LINE_01
10
-25.8900006667
20
1.5
0
POLYLINE
8
2D_LINE_01
66
1
40
0.0254
41
0.0254
0
VERTEX
8
2D_LINE_01
10
-24.5000006667
20
2.5
0
VERTEX
8
2D_LINE_01
10
-24.5000006667
20
1.5
0
SEQEND
0
INSERT
2
SMOOTH_0$0254
8
2D_LINE_01
10
-24.5000006667
20
2.5
0
INSERT
2
SMOOTH_0$0254
8
2D_LINE_01
10
-24.5000006667
20
1.5
0
POLYLINE
8
2D_LINE_01
66
1
40
0.0254
41
0.0254
0
VERTEX
8
2D_LINE_01
10
-23.8000006667
20
7.4
0
VERTEX
8
2D_LINE_01
10
-23.8000006667
20
-0.5
0
SEQEND
0
INSERT
2
SMOOTH_0$0254
8
2D_LINE_01
10
-23.8000006667
20
7.4
0
INSERT
2
SMOOTH_0$0254
8
2D_LINE_01
10
-23.8000006667
20
-0.5
0
POLYLINE
8
2D_LINE_01
66
1
40
0.0254
41
0.0254
0
VERTEX
8
2D_LINE_01
10
-25.8900006667
20
0.35
0
VERTEX
8
2D_LINE_01
10
-25.6250006667
20
-0.5
0
SEQEND
0
INSERT
2
SMOOTH_0$0254
8
2D_LINE_01
10
-25.8900006667
20
0.35
0
INSERT
2
SMOOTH_0$0254
8
2D_LINE_01
10
-25.6250006667
20
-0.5
0
POLYLINE
8
2D_LINE_01
66
1
40
0.0254
41
0.0254
0
VERTEX
8
2D_LINE_01
10
-28.3900006667
20
0.35
0
VERTEX
8
2D_LINE_01
10
-28.1250006667
20
-0.5
0
SEQEND
0
INSERT
2
SMOOTH_0$0254
8
2D_LINE_01
10
-28.3900006667
20
0.35
0
INSERT
2
SMOOTH_0$0254
8
2D_LINE_01
10
-28.1250006667
20
-0.5
0
POLYLINE
8
2D_LINE_01
66
1
40
0.0254
41
0.0254
0
VERTEX
8
2D_LINE_01
10
-30.8900006667
20
0.35
0
VERTEX
8
2D_LINE_01
10
-30.6250006667
20
-0.5
0
SEQEND
0
INSERT
2
SMOOTH_0$0254
8
2D_LINE_01
10
-30.8900006667
20
0.35
0
INSERT
2
SMOOTH_0$0254
8
2D_LINE_01
10
-30.6250006667
20
-0.5
0
POLYLINE
8
2D_LINE_01
66
1
40
0.0254
41
0.0254
0
VERTEX
8
2D_LINE_01
10
-33.3900006667
20
0.35
0
VERTEX
8
2D_LINE_01
10
-33.1250006667
20
-0.5
0
SEQEND
0
INSERT
2
SMOOTH_0$0254
8
2D_LINE_01
10
-33.3900006667
20
0.35
0
INSERT
2
SMOOTH_0$0254
8
2D_LINE_01
10
-33.1250006667
20
-0.5
0
POLYLINE
8
2D_LINE_01
66
1
40
0.0254
41
0.0254
0
VERTEX
8
2D_LINE_01
10
-35.8900006667
20
0.35
0
VERTEX
8
2D_LINE_01
10
-35.6250006667
20
-0.5
0
SEQEND
0
INSERT
2
SMOOTH_0$0254
8
2D_LINE_01
10
-35.8900006667
20
0.35
0
INSERT
2
SMOOTH_0$0254
8
2D_LINE_01
10
-35.6250006667
20
-0.5
0
POLYLINE
8
2D_LINE_01
66
1
40
0.0254
41
0.0254
0
VERTEX
8
2D_LINE_01
10
-47.5000006667
20
-28.6
0
VERTEX
8
2D_LINE_01
10
-15.0000006667
20
-28.6
0
SEQEND
0
INSERT
2
SMOOTH_0$0254
8
2D_LINE_01
10
-47.5000006667
20
-28.6
0
INSERT
2
SMOOTH_0$0254
8
2D_LINE_01
10
-15.0000006667
20
-28.6
0
POLYLINE
8
2D_LINE_01
66
1
40
0.0254
41
0.0254
70
1
0
VERTEX
8
2D_LINE_01
10
-44.1000006667
20
0.9
42
1
0
VERTEX
8
2D_LINE_01
10
-41.9000006667
20
0.9
42
1
0
SEQEND
0
POLYLINE
8
2D_LINE_01
66
1
40
0.0254
41
0.0254
70
1
0
VERTEX
8
2D_LINE_01
10
-28.8999753333
20
-14.3299873333
42
1
0
VERTEX
8
2D_LINE_01
10
-28.0999753333
20
-14.3299873333
42
1
0
SEQEND
0
POLYLINE
8
2D_LINE_01
66
1
40
0.0254
41
0.0254
0
VERTEX
8
2D_LINE_01
10
-31.6000006667
20
0.8
42
1
0
VERTEX
8
2D_LINE_01
10
-30.9000006667
20
0.8
0
SEQEND
0
INSERT
2
SMOOTH_0$0254
8
2D_LINE_01
10
-31.6000006667
20
0.8
0
INSERT
2
SMOOTH_0$0254
8
2D_LINE_01
10
-30.9000006667
20
0.8
0
POLYLINE
8
2D_LINE_01
66
1
40
0.0254
41
0.0254
0
VERTEX
8
2D_LINE_01
10
-29.1000006667
20
0.8
42
1
0
VERTEX
8
2D_LINE_01
10
-28.4000006667
20
0.8
0
SEQEND
0
INSERT
2
SMOOTH_0$0254
8
2D_LINE_01
10
-29.1000006667
20
0.8
0
INSERT
2
SMOOTH_0$0254
8
2D_LINE_01
10
-28.4000006667
20
0.8
0
POLYLINE
8
2D_LINE_01
66
1
40
0.0254
41
0.0254
0
VERTEX
8
2D_LINE_01
10
-34.1000006667
20
0.8
42
1
0
VERTEX
8
2D_LINE_01
10
-33.4000006667
20
0.8
0
SEQEND
0
INSERT
2
SMOOTH_0$0254
8
2D_LINE_01
10
-34.1000006667
20
0.8
0
INSERT
2
SMOOTH_0$0254
8
2D_LINE_01
10
-33.4000006667
20
0.8
0
POLYLINE
8
2D_LINE_01
66
1
40
0.0254
41
0.0254
0
VERTEX
8
2D_LINE_01
10
-36.6000006667
20
0.8
42
1
0
VERTEX
8
2D_LINE_01
10
-35.9000006667
20
0.8
0
SEQEND
0
INSERT
2
SMOOTH_0$0254
8
2D_LINE_01
10
-36.6000006667
20
0.8
0
INSERT
2
SMOOTH_0$0254
8
2D_LINE_01
10
-35.9000006667
20
0.8
0
POLYLINE
8
2D_LINE_01
66
1
40
0.0254
41
0.0254
0
VERTEX
8
2D_LINE_01
10
-26.6000006667
20
0.8
42
1
0
VERTEX
8
2D_LINE_01
10
-25.9000006667
20
0.8
0
SEQEND
0
INSERT
2
SMOOTH_0$0254
8
2D_LINE_01
10
-26.6000006667
20
0.8
0
INSERT
2
SMOOTH_0$0254
8
2D_LINE_01
10
-25.9000006667
20
0.8
0
POLYLINE
8
2D_LINE_01
66
1
40
0.0254
41
0.0254
70
1
0
VERTEX
8
2D_LINE_01
10
-28.7249753333
20
-14.3299873333
42
1
0
VERTEX
8
2D_LINE_01
10
-28.2749753333
20
-14.3299873333
42
1
0
SEQEND
0
POLYLINE
8
2D_LINE_01
66
1
40
0.0254
41
0.0254
70
1
0
VERTEX
8
2D_LINE_01
10
-20.6000006667
20
0.9
42
1
0
VERTEX
8
2D_LINE_01
10
-18.4000006667
20
0.9
42
1
0
SEQEND
0
POLYLINE
8
2D_LINE_01
66
1
40
0.0254
41
0.0254
70
1
0
VERTEX
8
2D_LINE_01
10
-44.1000006667
20
-24.1
42
1
0
VERTEX
8
2D_LINE_01
10
-41.9000006667
20
-24.1
42
1
0
SEQEND
0
POLYLINE
8
2D_LINE_01
66
1
40
0.0254
41
0.0254
70
1
0
VERTEX
8
2D_LINE_01
10
-30.1699753333
20
-15.5999873333
42
1
0
VERTEX
8
2D_LINE_01
10
-29.3699753333
20
-15.5999873333
42
1
0
SEQEND
0
POLYLINE
8
2D_LINE_01
66
1
40
0.0254
41
0.0254
70
1
0
VERTEX
8
2D_LINE_01
10
-28.8999753333
20
-16.8699873333
42
1
0
VERTEX
8
2D_LINE_01
10
-28.0999753333
20
-16.8699873333
42
1
0
SEQEND
0
POLYLINE
8
2D_LINE_01
66
1
40
0.0254
41
0.0254
70
1
0
VERTEX
8
2D_LINE_01
10
-29.9949753333
20
-15.5999873333
42
1
0
VERTEX
8
2D_LINE_01
10
-29.5449753333
20
-15.5999873333
42
1
0
SEQEND
0
POLYLINE
8
2D_LINE_01
66
1
40
0.0254
41
0.0254
70
1
0
VERTEX
8
2D_LINE_01
10
-28.7249753333
20
-16.8699873333
42
1
0
VERTEX
8
2D_LINE_01
10
-28.2749753333
20
-16.8699873333
42
1
0
SEQEND
0
POLYLINE
8
2D_LINE_01
66
1
40
0.0254
41
0.0254
70
1
0
VERTEX
8
2D_LINE_01
10
-20.6000006667
20
-24.1
42
1
0
VERTEX
8
2D_LINE_01
10
-18.4000006667
20
-24.1
42
1
0
SEQEND
0
POLYLINE
8
2D_LINE_01
66
1
40
0.0254
41
0.0254
0
VERTEX
8
2D_LINE_01
10
-15.4042006667
20
5.4
0
VERTEX
8
2D_LINE_01
10
-15.4042006667
20
-28.6
0
SEQEND
0
INSERT
2
SMOOTH_0$0254
8
2D_LINE_01
10
-15.4042006667
20
5.4
0
INSERT
2
SMOOTH_0$0254
8
2D_LINE_01
10
-15.4042006667
20
-28.6
0
POLYLINE
8
2D_LINE_01
66
1
40
0.0254
41
0.0254
0
VERTEX
8
2D_LINE_01
10
-6.2000006667
20
7.4
0
VERTEX
8
2D_LINE_01
10
8.6999993333
20
7.4
0
SEQEND
0
INSERT
2
SMOOTH_0$0254
8
2D_LINE_01
10
-6.2000006667
20
7.4
0
INSERT
2
SMOOTH_0$0254
8
2D_LINE_01
10
8.6999993333
20
7.4
0
POLYLINE
8
2D_LINE_01
66
1
40
0.0254
41
0.0254
0
VERTEX
8
2D_LINE_01
10
-6.2000006667
20
7.4
0
VERTEX
8
2D_LINE_01
10
-6.2000006667
20
-0.5
0
SEQEND
0
INSERT
2
SMOOTH_0$0254
8
2D_LINE_01
10
-6.2000006667
20
7.4
0
INSERT
2
SMOOTH_0$0254
8
2D_LINE_01
10
-6.2000006667
20
-0.5
0
POLYLINE
8
2D_LINE_01
66
1
40
0.0254
41
0.0254
0
VERTEX
8
2D_LINE_01
10
-5.5000006667
20
1.5
0
VERTEX
8
2D_LINE_01
10
-5.5000006667
20
2.5
0
SEQEND
0
INSERT
2
SMOOTH_0$0254
8
2D_LINE_01
10
-5.5000006667
20
1.5
0
INSERT
2
SMOOTH_0$0254
8
2D_LINE_01
10
-5.5000006667
20
2.5
0
POLYLINE
8
2D_LINE_01
66
1
40
0.0254
41
0.0254
0
VERTEX
8
2D_LINE_01
10
-4.1100006667
20
0.35
0
VERTEX
8
2D_LINE_01
10
-4.3750006667
20
-0.5
0
SEQEND
0
INSERT
2
SMOOTH_0$0254
8
2D_LINE_01
10
-4.1100006667
20
0.35
0
INSERT
2
SMOOTH_0$0254
8
2D_LINE_01
10
-4.3750006667
20
-0.5
0
POLYLINE
8
2D_LINE_01
66
1
40
0.0254
41
0.0254
0
VERTEX
8
2D_LINE_01
10
17.4999993333
20
5.4
0
VERTEX
8
2D_LINE_01
10
8.6999993333
20
5.4
0
SEQEND
0
INSERT
2
SMOOTH_0$0254
8
2D_LINE_01
10
17.4999993333
20
5.4
0
INSERT
2
SMOOTH_0$0254
8
2D_LINE_01
10
8.6999993333
20
5.4
0
POLYLINE
8
2D_LINE_01
66
1
40
0.0254
41
0.0254
0
VERTEX
8
2D_LINE_01
10
-6.2000006667
20
5.4
0
VERTEX
8
2D_LINE_01
10
-15.0000006667
20
5.4
0
SEQEND
0
INSERT
2
SMOOTH_0$0254
8
2D_LINE_01
10
-6.2000006667
20
5.4
0
INSERT
2
SMOOTH_0$0254
8
2D_LINE_01
10
-15.0000006667
20
5.4
0
POLYLINE
8
2D_LINE_01
66
1
40
0.0254
41
0.0254
0
VERTEX
8
2D_LINE_01
10
-4.1100006667
20
1.5
0
VERTEX
8
2D_LINE_01
10
-4.1100006667
20
0.35
0
SEQEND
0
INSERT
2
SMOOTH_0$0254
8
2D_LINE_01
10
-4.1100006667
20
1.5
0
INSERT
2
SMOOTH_0$0254
8
2D_LINE_01
10
-4.1100006667
20
0.35
0
POLYLINE
8
2D_LINE_01
66
1
40
0.0254
41
0.0254
0
VERTEX
8
2D_LINE_01
10
-4.1000006667
20
1.5
0
VERTEX
8
2D_LINE_01
10
-4.1000006667
20
0.8
0
SEQEND
0
INSERT
2
SMOOTH_0$0254
8
2D_LINE_01
10
-4.1000006667
20
1.5
0
INSERT
2
SMOOTH_0$0254
8
2D_LINE_01
10
-4.1000006667
20
0.8
0
POLYLINE
8
2D_LINE_01
66
1
40
0.0254
41
0.0254
0
VERTEX
8
2D_LINE_01
10
-3.4000006667
20
1.5
0
VERTEX
8
2D_LINE_01
10
-3.4000006667
20
0.8
0
SEQEND
0
INSERT
2
SMOOTH_0$0254
8
2D_LINE_01
10
-3.4000006667
20
1.5
0
INSERT
2
SMOOTH_0$0254
8
2D_LINE_01
10
-3.4000006667
20
0.8
0
POLYLINE
8
2D_LINE_01
66
1
40
0.0254
41
0.0254
0
VERTEX
8
2D_LINE_01
10
-3.3900006667
20
0.35
0
VERTEX
8
2D_LINE_01
10
-3.3900006667
20
1.5
0
SEQEND
0
INSERT
2
SMOOTH_0$0254
8
2D_LINE_01
10
-3.3900006667
20
0.35
0
INSERT
2
SMOOTH_0$0254
8
2D_LINE_01
10
-3.3900006667
20
1.5
0
POLYLINE
8
2D_LINE_01
66
1
40
0.0254
41
0.0254
0
VERTEX
8
2D_LINE_01
10
-1.6100006667
20
0.35
0
VERTEX
8
2D_LINE_01
10
-1.8750006667
20
-0.5
0
SEQEND
0
INSERT
2
SMOOTH_0$0254
8
2D_LINE_01
10
-1.6100006667
20
0.35
0
INSERT
2
SMOOTH_0$0254
8
2D_LINE_01
10
-1.8750006667
20
-0.5
0
POLYLINE
8
2D_LINE_01
66
1
40
0.0254
41
0.0254
0
VERTEX
8
2D_LINE_01
10
8.6999993333
20
2.5
0
VERTEX
8
2D_LINE_01
10
-6.2000006667
20
2.5
0
SEQEND
0
INSERT
2
SMOOTH_0$0254
8
2D_LINE_01
10
8.6999993333
20
2.5
0
INSERT
2
SMOOTH_0$0254
8
2D_LINE_01
10
-6.2000006667
20
2.5
0
POLYLINE
8
2D_LINE_01
66
1
40
0.0254
41
0.0254
0
VERTEX
8
2D_LINE_01
10
-1.6100006667
20
1.5
0
VERTEX
8
2D_LINE_01
10
-1.6100006667
20
0.35
0
SEQEND
0
INSERT
2
SMOOTH_0$0254
8
2D_LINE_01
10
-1.6100006667
20
1.5
0
INSERT
2
SMOOTH_0$0254
8
2D_LINE_01
10
-1.6100006667
20
0.35
0
POLYLINE
8
2D_LINE_01
66
1
40
0.0254
41
0.0254
0
VERTEX
8
2D_LINE_01
10
-1.6000006667
20
1.5
0
VERTEX
8
2D_LINE_01
10
-1.6000006667
20
0.8
0
SEQEND
0
INSERT
2
SMOOTH_0$0254
8
2D_LINE_01
10
-1.6000006667
20
1.5
0
INSERT
2
SMOOTH_0$0254
8
2D_LINE_01
10
-1.6000006667
20
0.8
0
POLYLINE
8
2D_LINE_01
66
1
40
0.0254
41
0.0254
0
VERTEX
8
2D_LINE_01
10
-0.9000006667
20
1.5
0
VERTEX
8
2D_LINE_01
10
-0.9000006667
20
0.8
0
SEQEND
0
INSERT
2
SMOOTH_0$0254
8
2D_LINE_01
10
-0.9000006667
20
1.5
0
INSERT
2
SMOOTH_0$0254
8
2D_LINE_01
10
-0.9000006667
20
0.8
0
POLYLINE
8
2D_LINE_01
66
1
40
0.0254
41
0.0254
0
VERTEX
8
2D_LINE_01
10
-0.8900006667
20
0.35
0
VERTEX
8
2D_LINE_01
10
-0.8900006667
20
1.5
0
SEQEND
0
INSERT
2
SMOOTH_0$0254
8
2D_LINE_01
10
-0.8900006667
20
0.35
0
INSERT
2
SMOOTH_0$0254
8
2D_LINE_01
10
-0.8900006667
20
1.5
0
POLYLINE
8
2D_LINE_01
66
1
40
0.0254
41
0.0254
0
VERTEX
8
2D_LINE_01
10
0.8899993333
20
0.35
0
VERTEX
8
2D_LINE_01
10
0.6249993333
20
-0.5
0
SEQEND
0
INSERT
2
SMOOTH_0$0254
8
2D_LINE_01
10
0.8899993333
20
0.35
0
INSERT
2
SMOOTH_0$0254
8
2D_LINE_01
10
0.6249993333
20
-0.5
0
POLYLINE
8
2D_LINE_01
66
1
40
0.0254
41
0.0254
0
VERTEX
8
2D_LINE_01
10
8.6999993333
20
1.5
0
VERTEX
8
2D_LINE_01
10
-6.2000006667
20
1.5
0
SEQEND
0
INSERT
2
SMOOTH_0$0254
8
2D_LINE_01
10
8.6999993333
20
1.5
0
INSERT
2
SMOOTH_0$0254
8
2D_LINE_01
10
-6.2000006667
20
1.5
0
POLYLINE
8
2D_LINE_01
66
1
40
0.0254
41
0.0254
0
VERTEX
8
2D_LINE_01
10
6.5999993333
20
1.15
0
VERTEX
8
2D_LINE_01
10
5.8999993333
20
1.15
0
SEQEND
0
INSERT
2
SMOOTH_0$0254
8
2D_LINE_01
10
6.5999993333
20
1.15
0
INSERT
2
SMOOTH_0$0254
8
2D_LINE_01
10
5.8999993333
20
1.15
0
POLYLINE
8
2D_LINE_01
66
1
40
0.0254
41
0.0254
0
VERTEX
8
2D_LINE_01
10
4.0999993333
20
1.15
0
VERTEX
8
2D_LINE_01
10
3.3999993333
20
1.15
0
SEQEND
0
INSERT
2
SMOOTH_0$0254
8
2D_LINE_01
10
4.0999993333
20
1.15
0
INSERT
2
SMOOTH_0$0254
8
2D_LINE_01
10
3.3999993333
20
1.15
0
POLYLINE
8
2D_LINE_01
66
1
40
0.0254
41
0.0254
0
VERTEX
8
2D_LINE_01
10
1.5999993333
20
1.15
0
VERTEX
8
2D_LINE_01
10
0.8999993333
20
1.15
0
SEQEND
0
INSERT
2
SMOOTH_0$0254
8
2D_LINE_01
10
1.5999993333
20
1.15
0
INSERT
2
SMOOTH_0$0254
8
2D_LINE_01
10
0.8999993333
20
1.15
0
POLYLINE
8
2D_LINE_01
66
1
40
0.0254
41
0.0254
0
VERTEX
8
2D_LINE_01
10
-0.9000006667
20
1.15
0
VERTEX
8
2D_LINE_01
10
-1.6000006667
20
1.15
0
SEQEND
0
INSERT
2
SMOOTH_0$0254
8
2D_LINE_01
10
-0.9000006667
20
1.15
0
INSERT
2
SMOOTH_0$0254
8
2D_LINE_01
10
-1.6000006667
20
1.15
0
POLYLINE
8
2D_LINE_01
66
1
40
0.0254
41
0.0254
0
VERTEX
8
2D_LINE_01
10
-3.4000006667
20
1.15
0
VERTEX
8
2D_LINE_01
10
-4.1000006667
20
1.15
0
SEQEND
0
INSERT
2
SMOOTH_0$0254
8
2D_LINE_01
10
-3.4000006667
20
1.15
0
INSERT
2
SMOOTH_0$0254
8
2D_LINE_01
10
-4.1000006667
20
1.15
0
POLYLINE
8
2D_LINE_01
66
1
40
0.0254
41
0.0254
0
VERTEX
8
2D_LINE_01
10
5.780882
20
0
0
VERTEX
8
2D_LINE_01
10
4.2191173333
20
0
0
SEQEND
0
INSERT
2
SMOOTH_0$0254
8
2D_LINE_01
10
5.780882
20
0
0
INSERT
2
SMOOTH_0$0254
8
2D_LINE_01
10
4.2191173333
20
0
0
POLYLINE
8
2D_LINE_01
66
1
40
0.0254
41
0.0254
0
VERTEX
8
2D_LINE_01
10
3.280882
20
0
0
VERTEX
8
2D_LINE_01
10
1.7191173333
20
0
0
SEQEND
0
INSERT
2
SMOOTH_0$0254
8
2D_LINE_01
10
3.280882
20
0
0
INSERT
2
SMOOTH_0$0254
8
2D_LINE_01
10
1.7191173333
20
0
0
POLYLINE
8
2D_LINE_01
66
1
40
0.0254
41
0.0254
0
VERTEX
8
2D_LINE_01
10
0.780882
20
0
0
VERTEX
8
2D_LINE_01
10
-0.7808826667
20
0
0
SEQEND
0
INSERT
2
SMOOTH_0$0254
8
2D_LINE_01
10
0.780882
20
0
0
INSERT
2
SMOOTH_0$0254
8
2D_LINE_01
10
-0.7808826667
20
0
0
POLYLINE
8
2D_LINE_01
66
1
40
0.0254
41
0.0254
0
VERTEX
8
2D_LINE_01
10
-1.719118
20
0
0
VERTEX
8
2D_LINE_01
10
-3.2808826667
20
0
0
SEQEND
0
INSERT
2
SMOOTH_0$0254
8
2D_LINE_01
10
-1.719118
20
0
0
INSERT
2
SMOOTH_0$0254
8
2D_LINE_01
10
-3.2808826667
20
0
0
POLYLINE
8
2D_LINE_01
66
1
40
0.0254
41
0.0254
0
VERTEX
8
2D_LINE_01
10
-6.2000006667
20
0
0
VERTEX
8
2D_LINE_01
10
-4.219118
20
0
0
SEQEND
0
INSERT
2
SMOOTH_0$0254
8
2D_LINE_01
10
-6.2000006667
20
0
0
INSERT
2
SMOOTH_0$0254
8
2D_LINE_01
10
-4.219118
20
0
0
POLYLINE
8
2D_LINE_01
66
1
40
0.0254
41
0.0254
0
VERTEX
8
2D_LINE_01
10
6.7191173333
20
0
0
VERTEX
8
2D_LINE_01
10
8.6999993333
20
0
0
SEQEND
0
INSERT
2
SMOOTH_0$0254
8
2D_LINE_01
10
6.7191173333
20
0
0
INSERT
2
SMOOTH_0$0254
8
2D_LINE_01
10
8.6999993333
20
0
0
POLYLINE
8
2D_LINE_01
66
1
40
0.0254
41
0.0254
0
VERTEX
8
2D_LINE_01
10
0.8899993333
20
1.5
0
VERTEX
8
2D_LINE_01
10
0.8899993333
20
0.35
0
SEQEND
0
INSERT
2
SMOOTH_0$0254
8
2D_LINE_01
10
0.8899993333
20
1.5
0
INSERT
2
SMOOTH_0$0254
8
2D_LINE_01
10
0.8899993333
20
0.35
0
POLYLINE
8
2D_LINE_01
66
1
40
0.0254
41
0.0254
0
VERTEX
8
2D_LINE_01
10
0.8999993333
20
1.5
0
VERTEX
8
2D_LINE_01
10
0.8999993333
20
0.8
0
SEQEND
0
INSERT
2
SMOOTH_0$0254
8
2D_LINE_01
10
0.8999993333
20
1.5
0
INSERT
2
SMOOTH_0$0254
8
2D_LINE_01
10
0.8999993333
20
0.8
0
POLYLINE
8
2D_LINE_01
66
1
40
0.0254
41
0.0254
0
VERTEX
8
2D_LINE_01
10
3.3899993333
20
0.35
0
VERTEX
8
2D_LINE_01
10
3.1249993333
20
-0.5
0
SEQEND
0
INSERT
2
SMOOTH_0$0254
8
2D_LINE_01
10
3.3899993333
20
0.35
0
INSERT
2
SMOOTH_0$0254
8
2D_LINE_01
10
3.1249993333
20
-0.5
0
POLYLINE
8
2D_LINE_01
66
1
40
0.0254
41
0.0254
0
VERTEX
8
2D_LINE_01
10
-6.2000006667
20
-0.5
0
VERTEX
8
2D_LINE_01
10
-4.3750006667
20
-0.5
0
SEQEND
0
INSERT
2
SMOOTH_0$0254
8
2D_LINE_01
10
-6.2000006667
20
-0.5
0
INSERT
2
SMOOTH_0$0254
8
2D_LINE_01
10
-4.3750006667
20
-0.5
0
POLYLINE
8
2D_LINE_01
66
1
40
0.0254
41
0.0254
0
VERTEX
8
2D_LINE_01
10
-3.1250006667
20
-0.5
0
VERTEX
8
2D_LINE_01
10
-1.8750006667
20
-0.5
0
SEQEND
0
INSERT
2
SMOOTH_0$0254
8
2D_LINE_01
10
-3.1250006667
20
-0.5
0
INSERT
2
SMOOTH_0$0254
8
2D_LINE_01
10
-1.8750006667
20
-0.5
0
POLYLINE
8
2D_LINE_01
66
1
40
0.0254
41
0.0254
0
VERTEX
8
2D_LINE_01
10
-0.6250006667
20
-0.5
0
VERTEX
8
2D_LINE_01
10
0.6249993333
20
-0.5
0
SEQEND
0
INSERT
2
SMOOTH_0$0254
8
2D_LINE_01
10
-0.6250006667
20
-0.5
0
INSERT
2
SMOOTH_0$0254
8
2D_LINE_01
10
0.6249993333
20
-0.5
0
POLYLINE
8
2D_LINE_01
66
1
40
0.0254
41
0.0254
0
VERTEX
8
2D_LINE_01
10
1.8749993333
20
-0.5
0
VERTEX
8
2D_LINE_01
10
3.1249993333
20
-0.5
0
SEQEND
0
INSERT
2
SMOOTH_0$0254
8
2D_LINE_01
10
1.8749993333
20
-0.5
0
INSERT
2
SMOOTH_0$0254
8
2D_LINE_01
10
3.1249993333
20
-0.5
0
POLYLINE
8
2D_LINE_01
66
1
40
0.0254
41
0.0254
0
VERTEX
8
2D_LINE_01
10
4.3749993333
20
-0.5
0
VERTEX
8
2D_LINE_01
10
5.6249993333
20
-0.5
0
SEQEND
0
INSERT
2
SMOOTH_0$0254
8
2D_LINE_01
10
4.3749993333
20
-0.5
0
INSERT
2
SMOOTH_0$0254
8
2D_LINE_01
10
5.6249993333
20
-0.5
0
POLYLINE
8
2D_LINE_01
66
1
40
0.0254
41
0.0254
0
VERTEX
8
2D_LINE_01
10
6.8749993333
20
-0.5
0
VERTEX
8
2D_LINE_01
10
8.6999993333
20
-0.5
0
SEQEND
0
INSERT
2
SMOOTH_0$0254
8
2D_LINE_01
10
6.8749993333
20
-0.5
0
INSERT
2
SMOOTH_0$0254
8
2D_LINE_01
10
8.6999993333
20
-0.5
0
POLYLINE
8
2D_LINE_01
66
1
40
0.0254
41
0.0254
0
VERTEX
8
2D_LINE_01
10
1.5999993333
20
1.5
0
VERTEX
8
2D_LINE_01
10
1.5999993333
20
0.8
0
SEQEND
0
INSERT
2
SMOOTH_0$0254
8
2D_LINE_01
10
1.5999993333
20
1.5
0
INSERT
2
SMOOTH_0$0254
8
2D_LINE_01
10
1.5999993333
20
0.8
0
POLYLINE
8
2D_LINE_01
66
1
40
0.0254
41
0.0254
0
VERTEX
8
2D_LINE_01
10
1.6099993333
20
0.35
0
VERTEX
8
2D_LINE_01
10
1.6099993333
20
1.5
0
SEQEND
0
INSERT
2
SMOOTH_0$0254
8
2D_LINE_01
10
1.6099993333
20
0.35
0
INSERT
2
SMOOTH_0$0254
8
2D_LINE_01
10
1.6099993333
20
1.5
0
POLYLINE
8
2D_LINE_01
66
1
40
0.0254
41
0.0254
0
VERTEX
8
2D_LINE_01
10
3.3899993333
20
1.5
0
VERTEX
8
2D_LINE_01
10
3.3899993333
20
0.35
0
SEQEND
0
INSERT
2
SMOOTH_0$0254
8
2D_LINE_01
10
3.3899993333
20
1.5
0
INSERT
2
SMOOTH_0$0254
8
2D_LINE_01
10
3.3899993333
20
0.35
0
POLYLINE
8
2D_LINE_01
66
1
40
0.0254
41
0.0254
0
VERTEX
8
2D_LINE_01
10
3.3999993333
20
1.5
0
VERTEX
8
2D_LINE_01
10
3.3999993333
20
0.8
0
SEQEND
0
INSERT
2
SMOOTH_0$0254
8
2D_LINE_01
10
3.3999993333
20
1.5
0
INSERT
2
SMOOTH_0$0254
8
2D_LINE_01
10
3.3999993333
20
0.8
0
POLYLINE
8
2D_LINE_01
66
1
40
0.0254
41
0.0254
0
VERTEX
8
2D_LINE_01
10
5.8899993333
20
0.35
0
VERTEX
8
2D_LINE_01
10
5.6249993333
20
-0.5
0
SEQEND
0
INSERT
2
SMOOTH_0$0254
8
2D_LINE_01
10
5.8899993333
20
0.35
0
INSERT
2
SMOOTH_0$0254
8
2D_LINE_01
10
5.6249993333
20
-0.5
0
POLYLINE
8
2D_LINE_01
66
1
40
0.0254
41
0.0254
0
VERTEX
8
2D_LINE_01
10
4.0999993333
20
1.5
0
VERTEX
8
2D_LINE_01
10
4.0999993333
20
0.8
0
SEQEND
0
INSERT
2
SMOOTH_0$0254
8
2D_LINE_01
10
4.0999993333
20
1.5
0
INSERT
2
SMOOTH_0$0254
8
2D_LINE_01
10
4.0999993333
20
0.8
0
POLYLINE
8
2D_LINE_01
66
1
40
0.0254
41
0.0254
0
VERTEX
8
2D_LINE_01
10
4.1099993333
20
0.35
0
VERTEX
8
2D_LINE_01
10
4.1099993333
20
1.5
0
SEQEND
0
INSERT
2
SMOOTH_0$0254
8
2D_LINE_01
10
4.1099993333
20
0.35
0
INSERT
2
SMOOTH_0$0254
8
2D_LINE_01
10
4.1099993333
20
1.5
0
POLYLINE
8
2D_LINE_01
66
1
40
0.0254
41
0.0254
0
VERTEX
8
2D_LINE_01
10
5.8899993333
20
1.5
0
VERTEX
8
2D_LINE_01
10
5.8899993333
20
0.35
0
SEQEND
0
INSERT
2
SMOOTH_0$0254
8
2D_LINE_01
10
5.8899993333
20
1.5
0
INSERT
2
SMOOTH_0$0254
8
2D_LINE_01
10
5.8899993333
20
0.35
0
POLYLINE
8
2D_LINE_01
66
1
40
0.0254
41
0.0254
0
VERTEX
8
2D_LINE_01
10
5.8999993333
20
1.5
0
VERTEX
8
2D_LINE_01
10
5.8999993333
20
0.8
0
SEQEND
0
INSERT
2
SMOOTH_0$0254
8
2D_LINE_01
10
5.8999993333
20
1.5
0
INSERT
2
SMOOTH_0$0254
8
2D_LINE_01
10
5.8999993333
20
0.8
0
POLYLINE
8
2D_LINE_01
66
1
40
0.0254
41
0.0254
0
VERTEX
8
2D_LINE_01
10
6.5999993333
20
1.5
0
VERTEX
8
2D_LINE_01
10
6.5999993333
20
0.8
0
SEQEND
0
INSERT
2
SMOOTH_0$0254
8
2D_LINE_01
10
6.5999993333
20
1.5
0
INSERT
2
SMOOTH_0$0254
8
2D_LINE_01
10
6.5999993333
20
0.8
0
POLYLINE
8
2D_LINE_01
66
1
40
0.0254
41
0.0254
0
VERTEX
8
2D_LINE_01
10
6.6099993333
20
0.35
0
VERTEX
8
2D_LINE_01
10
6.6099993333
20
1.5
0
SEQEND
0
INSERT
2
SMOOTH_0$0254
8
2D_LINE_01
10
6.6099993333
20
0.35
0
INSERT
2
SMOOTH_0$0254
8
2D_LINE_01
10
6.6099993333
20
1.5
0
POLYLINE
8
2D_LINE_01
66
1
40
0.0254
41
0.0254
0
VERTEX
8
2D_LINE_01
10
7.9999993333
20
2.5
0
VERTEX
8
2D_LINE_01
10
7.9999993333
20
1.5
0
SEQEND
0
INSERT
2
SMOOTH_0$0254
8
2D_LINE_01
10
7.9999993333
20
2.5
0
INSERT
2
SMOOTH_0$0254
8
2D_LINE_01
10
7.9999993333
20
1.5
0
POLYLINE
8
2D_LINE_01
66
1
40
0.0254
41
0.0254
0
VERTEX
8
2D_LINE_01
10
8.6999993333
20
7.4
0
VERTEX
8
2D_LINE_01
10
8.6999993333
20
-0.5
0
SEQEND
0
INSERT
2
SMOOTH_0$0254
8
2D_LINE_01
10
8.6999993333
20
7.4
0
INSERT
2
SMOOTH_0$0254
8
2D_LINE_01
10
8.6999993333
20
-0.5
0
POLYLINE
8
2D_LINE_01
66
1
40
0.0254
41
0.0254
0
VERTEX
8
2D_LINE_01
10
6.6099993333
20
0.35
0
VERTEX
8
2D_LINE_01
10
6.8749993333
20
-0.5
0
SEQEND
0
INSERT
2
SMOOTH_0$0254
8
2D_LINE_01
10
6.6099993333
20
0.35
0
INSERT
2
SMOOTH_0$0254
8
2D_LINE_01
10
6.8749993333
20
-0.5
0
POLYLINE
8
2D_LINE_01
66
1
40
0.0254
41
0.0254
0
VERTEX
8
2D_LINE_01
10
4.1099993333
20
0.35
0
VERTEX
8
2D_LINE_01
10
4.3749993333
20
-0.5
0
SEQEND
0
INSERT
2
SMOOTH_0$0254
8
2D_LINE_01
10
4.1099993333
20
0.35
0
INSERT
2
SMOOTH_0$0254
8
2D_LINE_01
10
4.3749993333
20
-0.5
0
POLYLINE
8
2D_LINE_01
66
1
40
0.0254
41
0.0254
0
VERTEX
8
2D_LINE_01
10
1.6099993333
20
0.35
0
VERTEX
8
2D_LINE_01
10
1.8749993333
20
-0.5
0
SEQEND
0
INSERT
2
SMOOTH_0$0254
8
2D_LINE_01
10
1.6099993333
20
0.35
0
INSERT
2
SMOOTH_0$0254
8
2D_LINE_01
10
1.8749993333
20
-0.5
0
POLYLINE
8
2D_LINE_01
66
1
40
0.0254
41
0.0254
0
VERTEX
8
2D_LINE_01
10
-0.8900006667
20
0.35
0
VERTEX
8
2D_LINE_01
10
-0.6250006667
20
-0.5
0
SEQEND
0
INSERT
2
SMOOTH_0$0254
8
2D_LINE_01
10
-0.8900006667
20
0.35
0
INSERT
2
SMOOTH_0$0254
8
2D_LINE_01
10
-0.6250006667
20
-0.5
0
POLYLINE
8
2D_LINE_01
66
1
40
0.0254
41
0.0254
0
VERTEX
8
2D_LINE_01
10
-3.3900006667
20
0.35
0
VERTEX
8
2D_LINE_01
10
-3.1250006667
20
-0.5
0
SEQEND
0
INSERT
2
SMOOTH_0$0254
8
2D_LINE_01
10
-3.3900006667
20
0.35
0
INSERT
2
SMOOTH_0$0254
8
2D_LINE_01
10
-3.1250006667
20
-0.5
0
POLYLINE
8
2D_LINE_01
66
1
40
0.0254
41
0.0254
0
VERTEX
8
2D_LINE_01
10
-15.0000006667
20
-28.6
0
VERTEX
8
2D_LINE_01
10
17.4999993333
20
-28.6
0
SEQEND
0
INSERT
2
SMOOTH_0$0254
8
2D_LINE_01
10
-15.0000006667
20
-28.6
0
INSERT
2
SMOOTH_0$0254
8
2D_LINE_01
10
17.4999993333
20
-28.6
0
POLYLINE
8
2D_LINE_01
66
1
40
0.0254
41
0.0254
0
VERTEX
8
2D_LINE_01
10
17.4999993333
20
-26.1
0
VERTEX
8
2D_LINE_01
10
17.4999993333
20
5.4
0
SEQEND
0
INSERT
2
SMOOTH_0$0254
8
2D_LINE_01
10
17.4999993333
20
-26.1
0
INSERT
2
SMOOTH_0$0254
8
2D_LINE_01
10
17.4999993333
20
5.4
0
POLYLINE
8
2D_LINE_01
66
1
40
0.0254
41
0.0254
70
1
0
VERTEX
8
2D_LINE_01
10
-11.6000006667
20
0.9
42
1
0
VERTEX
8
2D_LINE_01
10
-9.4000006667
20
0.9
42
1
0
SEQEND
0
POLYLINE
8
2D_LINE_01
66
1
40
0.0254
41
0.0254
0
VERTEX
8
2D_LINE_01
10
0.8999993333
20
0.8
42
1
0
VERTEX
8
2D_LINE_01
10
1.5999993333
20
0.8
0
SEQEND
0
INSERT
2
SMOOTH_0$0254
8
2D_LINE_01
10
0.8999993333
20
0.8
0
INSERT
2
SMOOTH_0$0254
8
2D_LINE_01
10
1.5999993333
20
0.8
0
POLYLINE
8
2D_LINE_01
66
1
40
0.0254
41
0.0254
0
VERTEX
8
2D_LINE_01
10
3.3999993333
20
0.8
42
1
0
VERTEX
8
2D_LINE_01
10
4.0999993333
20
0.8
0
SEQEND
0
INSERT
2
SMOOTH_0$0254
8
2D_LINE_01
10
3.3999993333
20
0.8
0
INSERT
2
SMOOTH_0$0254
8
2D_LINE_01
10
4.0999993333
20
0.8
0
POLYLINE
8
2D_LINE_01
66
1
40
0.0254
41
0.0254
0
VERTEX
8
2D_LINE_01
10
-1.6000006667
20
0.8
42
1
0
VERTEX
8
2D_LINE_01
10
-0.9000006667
20
0.8
0
SEQEND
0
INSERT
2
SMOOTH_0$0254
8
2D_LINE_01
10
-1.6000006667
20
0.8
0
INSERT
2
SMOOTH_0$0254
8
2D_LINE_01
10
-0.9000006667
20
0.8
0
POLYLINE
8
2D_LINE_01
66
1
40
0.0254
41
0.0254
0
VERTEX
8
2D_LINE_01
10
-4.1000006667
20
0.8
42
1
0
VERTEX
8
2D_LINE_01
10
-3.4000006667
20
0.8
0
SEQEND
0
INSERT
2
SMOOTH_0$0254
8
2D_LINE_01
10
-4.1000006667
20
0.8
0
INSERT
2
SMOOTH_0$0254
8
2D_LINE_01
10
-3.4000006667
20
0.8
0
POLYLINE
8
2D_LINE_01
66
1
40
0.0254
41
0.0254
0
VERTEX
8
2D_LINE_01
10
5.8999993333
20
0.8
42
1
0
VERTEX
8
2D_LINE_01
10
6.5999993333
20
0.8
0
SEQEND
0
INSERT
2
SMOOTH_0$0254
8
2D_LINE_01
10
5.8999993333
20
0.8
0
INSERT
2
SMOOTH_0$0254
8
2D_LINE_01
10
6.5999993333
20
0.8
0
POLYLINE
8
2D_LINE_01
66
1
40
0.0254
41
0.0254
70
1
0
VERTEX
8
2D_LINE_01
10
11.8999993333
20
0.9
42
1
0
VERTEX
8
2D_LINE_01
10
14.0999993333
20
0.9
42
1
0
SEQEND
0
POLYLINE
8
2D_LINE_01
66
1
40
0.0254
41
0.0254
70
1
0
VERTEX
8
2D_LINE_01
10
-11.6000006667
20
-24.1
42
1
0
VERTEX
8
2D_LINE_01
10
-9.4000006667
20
-24.1
42
1
0
SEQEND
0
POLYLINE
8
2D_LINE_01
66
1
40
0.0254
41
0.0254
70
1
0
VERTEX
8
2D_LINE_01
10
11.8999993333
20
-24.1
42
1
0
VERTEX
8
2D_LINE_01
10
14.0999993333
20
-24.1
42
1
0
SEQEND
0
POLYLINE
8
2D_LINE_01
66
1
40
0.0254
41
0.0254
70
1
0
VERTEX
8
2D_LINE_01
10
3.6000246667
20
-18.1399873333
42
1
0
VERTEX
8
2D_LINE_01
10
4.4000246667
20
-18.1399873333
42
1
0
SEQEND
0
POLYLINE
8
2D_LINE_01
66
1
40
0.0254
41
0.0254
70
1
0
VERTEX
8
2D_LINE_01
10
3.6000246667
20
-13.0599873333
42
1
0
VERTEX
8
2D_LINE_01
10
4.4000246667
20
-13.0599873333
42
1
0
SEQEND
0
POLYLINE
8
2D_LINE_01
66
1
40
0.0254
41
0.0254
70
1
0
VERTEX
8
2D_LINE_01
10
3.7750246667
20
-18.1399873333
42
1
0
VERTEX
8
2D_LINE_01
10
4.2250246667
20
-18.1399873333
42
1
0
SEQEND
0
POLYLINE
8
2D_LINE_01
66
1
40
0.0254
41
0.0254
70
1
0
VERTEX
8
2D_LINE_01
10
3.7750246667
20
-13.0599873333
42
1
0
VERTEX
8
2D_LINE_01
10
4.2250246667
20
-13.0599873333
42
1
0
SEQEND
0
POLYLINE
8
2D_LINE_01
66
1
40
0.0254
41
0.0254
0
VERTEX
8
2D_LINE_01
10
17.4999993333
20
5.4
0
VERTEX
8
2D_LINE_01
10
17.4999993333
20
-28.6
0
SEQEND
0
INSERT
2
SMOOTH_0$0254
8
2D_LINE_01
10
17.4999993333
20
5.4
0
INSERT
2
SMOOTH_0$0254
8
2D_LINE_01
10
17.4999993333
20
-28.6
0
POLYLINE
8
2D_LINE_01
66
1
40
0.0254
41
0.0254
0
VERTEX
8
2D_LINE_01
10
-30.904138
20
-12.70085
0
VERTEX
8
2D_LINE_01
10
-31.3991126667
20
-13.1958246667
0
SEQEND
0
INSERT
2
SMOOTH_0$0254
8
2D_LINE_01
10
-30.904138
20
-12.70085
0
INSERT
2
SMOOTH_0$0254
8
2D_LINE_01
10
-31.3991126667
20
-13.1958246667
0
POLYLINE
8
2D_LINE_01
66
1
40
0.0254
41
0.0254
0
VERTEX
8
2D_LINE_01
10
-30.8581473333
20
-14.0903433333
0
VERTEX
8
2D_LINE_01
10
-34.210542
20
-10.7379486667
0
SEQEND
0
INSERT
2
SMOOTH_0$0254
8
2D_LINE_01
10
-30.8581473333
20
-14.0903433333
0
INSERT
2
SMOOTH_0$0254
8
2D_LINE_01
10
-34.210542
20
-10.7379486667
0
POLYLINE
8
2D_LINE_01
66
1
40
0.0254
41
0.0254
0
VERTEX
8
2D_LINE_01
10
-31.3991126667
20
-13.4079566667
0
VERTEX
8
2D_LINE_01
10
-30.7656606667
20
-14.0414086667
0
SEQEND
0
INSERT
2
SMOOTH_0$0254
8
2D_LINE_01
10
-31.3991126667
20
-13.4079566667
0
INSERT
2
SMOOTH_0$0254
8
2D_LINE_01
10
-30.7656606667
20
-14.0414086667
0
POLYLINE
8
2D_LINE_01
66
1
40
0.0254
41
0.0254
0
VERTEX
8
2D_LINE_01
10
-30.058554
20
-13.334302
0
VERTEX
8
2D_LINE_01
10
-30.692006
20
-12.70085
0
SEQEND
0
INSERT
2
SMOOTH_0$0254
8
2D_LINE_01
10
-30.058554
20
-13.334302
0
INSERT
2
SMOOTH_0$0254
8
2D_LINE_01
10
-30.692006
20
-12.70085
0
POLYLINE
8
2D_LINE_01
66
1
40
0.0254
41
0.0254
0
VERTEX
8
2D_LINE_01
10
-33.362014
20
-9.8894206667
0
VERTEX
8
2D_LINE_01
10
-30.0096193333
20
-13.2418153333
0
SEQEND
0
INSERT
2
SMOOTH_0$0254
8
2D_LINE_01
10
-33.362014
20
-9.8894206667
0
INSERT
2
SMOOTH_0$0254
8
2D_LINE_01
10
-30.0096193333
20
-13.2418153333
0
POLYLINE
8
2D_LINE_01
66
1
40
0.0254
41
0.0254
0
VERTEX
8
2D_LINE_01
10
-31.3991126667
20
-13.1958246667
42
0.4142135624
0
VERTEX
8
2D_LINE_01
10
-31.3991126667
20
-13.4079566667
0
SEQEND
0
INSERT
2
SMOOTH_0$0254
8
2D_LINE_01
10
-31.3991126667
20
-13.1958246667
0
INSERT
2
SMOOTH_0$0254
8
2D_LINE_01
10
-31.3991126667
20
-13.4079566667
0
POLYLINE
8
2D_LINE_01
66
1
40
0.0254
41
0.0254
0
VERTEX
8
2D_LINE_01
10
-30.692006
20
-12.70085
42
0.4142135624
0
VERTEX
8
2D_LINE_01
10
-30.904138
20
-12.70085
0
SEQEND
0
INSERT
2
SMOOTH_0$0254
8
2D_LINE_01
10
-30.692006
20
-12.70085
0
INSERT
2
SMOOTH_0$0254
8
2D_LINE_01
10
-30.904138
20
-12.70085
0
POLYLINE
8
2D_LINE_01
66
1
40
0.0254
41
0.0254
70
1
0
VERTEX
8
2D_LINE_01
10
-35.9999753333
20
-15.5999873333
42
1
0
VERTEX
8
2D_LINE_01
10
-20.9999753333
20
-15.5999873333
42
1
0
SEQEND
0
POLYLINE
8
2D_LINE_01
66
1
40
0.0254
41
0.0254
0
VERTEX
8
2D_LINE_01
10
-33.9976993333
20
-10.9507913333
42
23.8592771962
0
VERTEX
8
2D_LINE_01
10
-33.1491713333
20
-10.1022633333
0
SEQEND
0
INSERT
2
SMOOTH_0$0254
8
2D_LINE_01
10
-33.9976993333
20
-10.9507913333
0
INSERT
2
SMOOTH_0$0254
8
2D_LINE_01
10
-33.1491713333
20
-10.1022633333
0
POLYLINE
8
2D_LINE_01
66
1
40
0.0254
41
0.0254
0
VERTEX
8
2D_LINE_01
10
-30.8581473333
20
-14.090344
42
9.2427162042
0
VERTEX
8
2D_LINE_01
10
-30.0096186667
20
-13.2418153333
0
SEQEND
0
INSERT
2
SMOOTH_0$0254
8
2D_LINE_01
10
-30.8581473333
20
-14.090344
0
INSERT
2
SMOOTH_0$0254
8
2D_LINE_01
10
-30.0096186667
20
-13.2418153333
0
POLYLINE
8
2D_LINE_01
66
1
40
0.0254
41
0.0254
0
VERTEX
8
2D_LINE_01
10
-30.7656606667
20
-14.0414086667
42
10.8829214403
0
VERTEX
8
2D_LINE_01
10
-30.058554
20
-13.334302
0
SEQEND
0
INSERT
2
SMOOTH_0$0254
8
2D_LINE_01
10
-30.7656606667
20
-14.0414086667
0
INSERT
2
SMOOTH_0$0254
8
2D_LINE_01
10
-30.058554
20
-13.334302
0
POLYLINE
8
2D_LINE_01
66
1
40
0.0254
41
0.0254
70
1
0
VERTEX
8
2D_LINE_01
10
-30.8749753333
20
-15.5999873333
42
1
0
VERTEX
8
2D_LINE_01
10
-26.1249753333
20
-15.5999873333
42
1
0
SEQEND
0
POLYLINE
8
2D_LINE_01
66
1
40
0.0254
41
0.0254
70
1
0
VERTEX
8
2D_LINE_01
10
-30.6749753333
20
-15.5999873333
42
1
0
VERTEX
8
2D_LINE_01
10
-26.3249753333
20
-15.5999873333
42
1
0
SEQEND
0
POLYLINE
8
2D_LINE_01
66
1
40
0.0254
41
0.0254
70
1
0
VERTEX
8
2D_LINE_01
10
-30.1999753333
20
-15.5999873333
42
1
0
VERTEX
8
2D_LINE_01
10
-26.7999753333
20
-15.5999873333
42
1
0
SEQEND
0
POLYLINE
8
2D_LINE_01
66
1
40
0.0254
41
0.0254
70
1
0
VERTEX
8
2D_LINE_01
10
-29.9999753333
20
-15.5999873333
42
1
0
VERTEX
8
2D_LINE_01
10
-26.9999753333
20
-15.5999873333
42
1
0
SEQEND
0
POLYLINE
8
2D_LINE_01
66
1
40
0.0254
41
0.0254
70
1
0
VERTEX
8
2D_LINE_01
10
-28.9999753333
20
-15.5999873333
42
1
0
VERTEX
8
2D_LINE_01
10
-27.9999753333
20
-15.5999873333
42
1
0
SEQEND
0
POLYLINE
8
2D_LINE_01
66
1
40
0.0254
41
0.0254
0
VERTEX
8
2D_LINE_01
10
0.3761026667
20
-11.5871566667
0
VERTEX
8
2D_LINE_01
10
-0.012806
20
-11.9760653333
0
SEQEND
0
INSERT
2
SMOOTH_0$0254
8
2D_LINE_01
10
0.3761026667
20
-11.5871566667
0
INSERT
2
SMOOTH_0$0254
8
2D_LINE_01
10
-0.012806
20
-11.9760653333
0
POLYLINE
8
2D_LINE_01
66
1
40
0.0254
41
0.0254
0
VERTEX
8
2D_LINE_01
10
2.8000246667
20
-16.7999873333
0
VERTEX
8
2D_LINE_01
10
2.8000246667
20
-14.3999873333
0
SEQEND
0
INSERT
2
SMOOTH_0$0254
8
2D_LINE_01
10
2.8000246667
20
-16.7999873333
0
INSERT
2
SMOOTH_0$0254
8
2D_LINE_01
10
2.8000246667
20
-14.3999873333
0
POLYLINE
8
2D_LINE_01
66
1
40
0.0254
41
0.0254
0
VERTEX
8
2D_LINE_01
10
5.2000246667
20
-16.7999873333
0
VERTEX
8
2D_LINE_01
10
2.8000246667
20
-16.7999873333
0
SEQEND
0
INSERT
2
SMOOTH_0$0254
8
2D_LINE_01
10
5.2000246667
20
-16.7999873333
0
INSERT
2
SMOOTH_0$0254
8
2D_LINE_01
10
2.8000246667
20
-16.7999873333
0
POLYLINE
8
2D_LINE_01
66
1
40
0.0254
41
0.0254
0
VERTEX
8
2D_LINE_01
10
0.3774886667
20
-12.684558
0
VERTEX
8
2D_LINE_01
10
-1.6450313333
20
-10.662038
0
SEQEND
0
INSERT
2
SMOOTH_0$0254
8
2D_LINE_01
10
0.3774886667
20
-12.684558
0
INSERT
2
SMOOTH_0$0254
8
2D_LINE_01
10
-1.6450313333
20
-10.662038
0
POLYLINE
8
2D_LINE_01
66
1
40
0.0254
41
0.0254
0
VERTEX
8
2D_LINE_01
10
-0.012806
20
-12.1881973333
0
VERTEX
8
2D_LINE_01
10
0.460726
20
-12.6617293333
0
SEQEND
0
INSERT
2
SMOOTH_0$0254
8
2D_LINE_01
10
-0.012806
20
-12.1881973333
0
INSERT
2
SMOOTH_0$0254
8
2D_LINE_01
10
0.460726
20
-12.6617293333
0
POLYLINE
8
2D_LINE_01
66
1
40
0.0254
41
0.0254
0
VERTEX
8
2D_LINE_01
10
5.2000246667
20
-14.3999873333
0
VERTEX
8
2D_LINE_01
10
5.2000246667
20
-16.7999873333
0
SEQEND
0
INSERT
2
SMOOTH_0$0254
8
2D_LINE_01
10
5.2000246667
20
-14.3999873333
0
INSERT
2
SMOOTH_0$0254
8
2D_LINE_01
10
5.2000246667
20
-16.7999873333
0
POLYLINE
8
2D_LINE_01
66
1
40
0.0254
41
0.0254
0
VERTEX
8
2D_LINE_01
10
2.8000246667
20
-14.3999873333
0
VERTEX
8
2D_LINE_01
10
5.2000246667
20
-14.3999873333
0
SEQEND
0
INSERT
2
SMOOTH_0$0254
8
2D_LINE_01
10
2.8000246667
20
-14.3999873333
0
INSERT
2
SMOOTH_0$0254
8
2D_LINE_01
10
5.2000246667
20
-14.3999873333
0
POLYLINE
8
2D_LINE_01
66
1
40
0.0254
41
0.0254
0
VERTEX
8
2D_LINE_01
10
1.0617666667
20
-12.0606886667
0
VERTEX
8
2D_LINE_01
10
0.5882346667
20
-11.5871566667
0
SEQEND
0
INSERT
2
SMOOTH_0$0254
8
2D_LINE_01
10
1.0617666667
20
-12.0606886667
0
INSERT
2
SMOOTH_0$0254
8
2D_LINE_01
10
0.5882346667
20
-11.5871566667
0
POLYLINE
8
2D_LINE_01
66
1
40
0.0254
41
0.0254
0
VERTEX
8
2D_LINE_01
10
-0.9379246667
20
-9.9549313333
0
VERTEX
8
2D_LINE_01
10
1.0845953333
20
-11.9774513333
0
SEQEND
0
INSERT
2
SMOOTH_0$0254
8
2D_LINE_01
10
-0.9379246667
20
-9.9549313333
0
INSERT
2
SMOOTH_0$0254
8
2D_LINE_01
10
1.0845953333
20
-11.9774513333
0
POLYLINE
8
2D_LINE_01
66
1
40
0.0254
41
0.0254
0
VERTEX
8
2D_LINE_01
10
-0.012806
20
-11.9760653333
42
0.4142135624
0
VERTEX
8
2D_LINE_01
10
-0.012806
20
-12.1881973333
0
SEQEND
0
INSERT
2
SMOOTH_0$0254
8
2D_LINE_01
10
-0.012806
20
-11.9760653333
0
INSERT
2
SMOOTH_0$0254
8
2D_LINE_01
10
-0.012806
20
-12.1881973333
0
POLYLINE
8
2D_LINE_01
66
1
40
0.0254
41
0.0254
0
VERTEX
8
2D_LINE_01
10
0.5882346667
20
-11.5871566667
42
0.4142135624
0
VERTEX
8
2D_LINE_01
10
0.3761026667
20
-11.5871566667
0
SEQEND
0
INSERT
2
SMOOTH_0$0254
8
2D_LINE_01
10
0.5882346667
20
-11.5871566667
0
INSERT
2
SMOOTH_0$0254
8
2D_LINE_01
10
0.3761026667
20
-11.5871566667
0
POLYLINE
8
2D_LINE_01
66
1
40
0.0254
41
0.0254
70
1
0
VERTEX
8
2D_LINE_01
10
-3.4999753333
20
-15.5999873333
42
1
0
VERTEX
8
2D_LINE_01
10
11.5000246667
20
-15.5999873333
42
1
0
SEQEND
0
POLYLINE
8
2D_LINE_01
66
1
40
0.0254
41
0.0254
0
VERTEX
8
2D_LINE_01
10
-1.432406
20
-10.8746633333
42
28.6362532829
0
VERTEX
8
2D_LINE_01
10
-0.7252993333
20
-10.1675566667
0
SEQEND
0
INSERT
2
SMOOTH_0$0254
8
2D_LINE_01
10
-1.432406
20
-10.8746633333
0
INSERT
2
SMOOTH_0$0254
8
2D_LINE_01
10
-0.7252993333
20
-10.1675566667
0
POLYLINE
8
2D_LINE_01
66
1
40
0.0254
41
0.0254
0
VERTEX
8
2D_LINE_01
10
0.3774886667
20
-12.684558
42
18.6148807644
0
VERTEX
8
2D_LINE_01
10
1.0845953333
20
-11.9774513333
0
SEQEND
0
INSERT
2
SMOOTH_0$0254
8
2D_LINE_01
10
0.3774886667
20
-12.684558
0
INSERT
2
SMOOTH_0$0254
8
2D_LINE_01
10
1.0845953333
20
-11.9774513333
0
POLYLINE
8
2D_LINE_01
66
1
40
0.0254
41
0.0254
0
VERTEX
8
2D_LINE_01
10
0.460726
20
-12.6617293333
42
21.6056295987
0
VERTEX
8
2D_LINE_01
10
1.0617666667
20
-12.0606886667
0
SEQEND
0
INSERT
2
SMOOTH_0$0254
8
2D_LINE_01
10
0.460726
20
-12.6617293333
0
INSERT
2
SMOOTH_0$0254
8
2D_LINE_01
10
1.0617666667
20
-12.0606886667
0
POLYLINE
8
2D_LINE_01
66
1
40
0.0254
41
0.0254
70
1
0
VERTEX
8
2D_LINE_01
10
-0.0499753333
20
-15.5999873333
42
1
0
VERTEX
8
2D_LINE_01
10
8.0500246667
20
-15.5999873333
42
1
0
SEQEND
0
POLYLINE
8
2D_LINE_01
66
1
40
0.0254
41
0.0254
70
1
0
VERTEX
8
2D_LINE_01
10
0.1500246667
20
-15.5999873333
42
1
0
VERTEX
8
2D_LINE_01
10
7.8500246667
20
-15.5999873333
42
1
0
SEQEND
0
POLYLINE
8
2D_LINE_01
66
1
40
0.0254
41
0.0254
70
1
0
VERTEX
8
2D_LINE_01
10
0.8500246667
20
-15.5999873333
42
1
0
VERTEX
8
2D_LINE_01
10
7.1500246667
20
-15.5999873333
42
1
0
SEQEND
0
POLYLINE
8
2D_LINE_01
66
1
40
0.0254
41
0.0254
70
1
0
VERTEX
8
2D_LINE_01
10
1.0500246667
20
-15.5999873333
42
1
0
VERTEX
8
2D_LINE_01
10
6.9500246667
20
-15.5999873333
42
1
0
SEQEND
0
POLYLINE
8
2D_LINE_01
66
1
40
0.0254
41
0.0254
70
1
0
VERTEX
8
2D_LINE_01
10
-47.0000006667
20
0.9
42
1
0
VERTEX
8
2D_LINE_01
10
-39.0000006667
20
0.9
42
1
0
SEQEND
0
POLYLINE
8
2D_LINE_01
66
1
40
0.0254
41
0.0254
70
1
0
VERTEX
8
2D_LINE_01
10
-47.0000006667
20
-24.1
42
1
0
VERTEX
8
2D_LINE_01
10
-39.0000006667
20
-24.1
42
1
0
SEQEND
0
POLYLINE
8
2D_LINE_01
66
1
40
0.0254
41
0.0254
70
1
0
VERTEX
8
2D_LINE_01
10
-23.5000006667
20
-24.1
42
1
0
VERTEX
8
2D_LINE_01
10
-15.5000006667
20
-24.1
42
1
0
SEQEND
0
POLYLINE
8
2D_LINE_01
66
1
40
0.0254
41
0.0254
70
1
0
VERTEX
8
2D_LINE_01
10
-23.5000006667
20
0.9
42
1
0
VERTEX
8
2D_LINE_01
10
-15.5000006667
20
0.9
42
1
0
SEQEND
0
POLYLINE
8
2D_LINE_01
66
1
40
0.0254
41
0.0254
70
1
0
VERTEX
8
2D_LINE_01
10
-14.5000006667
20
0.9
42
1
0
VERTEX
8
2D_LINE_01
10
-6.5000006667
20
0.9
42
1
0
SEQEND
0
POLYLINE
8
2D_LINE_01
66
1
40
0.0254
41
0.0254
70
1
0
VERTEX
8
2D_LINE_01
10
8.9999993333
20
0.9
42
1
0
VERTEX
8
2D_LINE_01
10
16.9999993333
20
0.9
42
1
0
SEQEND
0
POLYLINE
8
2D_LINE_01
66
1
40
0.0254
41
0.0254
70
1
0
VERTEX
8
2D_LINE_01
10
8.9999993333
20
-24.1
42
1
0
VERTEX
8
2D_LINE_01
10
16.9999993333
20
-24.1
42
1
0
SEQEND
0
POLYLINE
8
2D_LINE_01
66
1
40
0.0254
41
0.0254
70
1
0
VERTEX
8
2D_LINE_01
10
-14.5000006667
20
-24.1
42
1
0
VERTEX
8
2D_LINE_01
10
-6.5000006667
20
-24.1
42
1
0
SEQEND
0
ENDBLK
999
*** POWERPCB  COPPER ***
999
*** POWERPCB  COPPER PLANE ***
999
*** POWERPCB  COMPONENT ***
0
BLOCK
2
PART_TOP_0
8
0
10
0
20
0
3
PART_TOP_0
70
64
0
INSERT
2
SYM_TOP_5
8
0
10
0
20
0
0
INSERT
2
PKG_0
8
0
10
0
20
0
0
TEXT
8
LABEL_INFO
10
-3.9699946667
20
-2.6969973333
40
0.889
1
1 0 0 2 1 1
73
2
11
-3.9699946667
21
-2.6969973333
41
0.75
7
W0$127
0
TEXT
8
LABEL_ATTRIBUTE
10
-3.9699946667
20
-2.6969973333
40
0.889
1
PartType
73
2
11
-3.9699946667
21
-2.6969973333
41
0.75
7
W0$127
0
TEXT
8
PART_TYPE_01
10
-3.9699946667
20
-2.6969973333
40
0.889
1
Part Type=ICL7660CSA
73
3
11
-3.9699946667
21
-2.6969973333
41
0.75
7
W0$127
0
TEXT
8
LABEL_INFO
10
-3.9699946667
20
2.6969973333
40
0.7
1
1 0 0 0 0 1
41
0.75
7
W0$1
0
TEXT
8
LABEL_ATTRIBUTE
10
-3.9699946667
20
2.6969973333
40
0.7
1
Ref.Des.
41
0.75
7
W0$1
0
TEXT
8
PART_NAME_01
10
-3.9699946667
20
2.6969973333
40
0.7
1
U4
41
0.75
7
W0$1
0
TEXT
8
PART_INFO
10
-3.9699946667
20
1.6969973333
40
0.7
1
000000
41
0.75
7
W0$1
0
TEXT
8
PART_PTS
10
-3.9699946667
20
0.6969973333
40
0.7
1
2 3 4 5 6 8 
41
0.75
7
W0$1
0
ENDBLK
0
BLOCK
2
PART_TOP_1
8
0
10
0
20
0
3
PART_TOP_1
70
64
0
INSERT
2
SYM_TOP_6
8
0
10
0
20
0
0
INSERT
2
PKG_1
8
0
10
0
20
0
0
TEXT
8
LABEL_INFO
10
-3.559988
20
-2.9020006667
40
0.889
1
1 0 0 2 1 1
73
2
11
-3.559988
21
-2.9020006667
41
0.75
7
W0$127
0
TEXT
8
LABEL_ATTRIBUTE
10
-3.559988
20
-2.9020006667
40
0.889
1
PartType
73
2
11
-3.559988
21
-2.9020006667
41
0.75
7
W0$127
0
TEXT
8
PART_TYPE_01
10
-3.559988
20
-2.9020006667
40
0.889
1
Part Type=OPA380AID
72
2
11
-3.559988
21
-2.9020006667
50
-180
41
0.75
7
W0$127
0
TEXT
8
LABEL_INFO
10
-3.559988
20
2.9020006667
40
0.7
1
1 0 0 0 0 1
41
0.75
7
W0$1
0
TEXT
8
LABEL_ATTRIBUTE
10
-3.559988
20
2.9020006667
40
0.7
1
Ref.Des.
41
0.75
7
W0$1
0
TEXT
8
PART_NAME_01
10
-3.559988
20
2.9020006667
40
0.7
1
U1
72
2
73
3
11
-3.559988
21
2.9020006667
50
-180
41
0.75
7
W0$1
0
TEXT
8
PART_INFO
10
-3.559988
20
1.9020006667
40
0.7
1
000000
72
2
73
3
11
-3.559988
21
1.9020006667
50
-180
41
0.75
7
W0$1
0
TEXT
8
PART_PTS
10
-3.559988
20
0.9020006667
40
0.7
1
3 4 6 7 
72
2
73
3
11
-3.559988
21
0.9020006667
50
-180
41
0.75
7
W0$1
0
ENDBLK
0
BLOCK
2
PART_TOP_2
8
0
10
0
20
0
3
PART_TOP_2
70
64
0
INSERT
2
SYM_TOP_7
8
0
10
0
20
0
0
INSERT
2
PKG_2
8
0
10
0
20
0
0
TEXT
8
LABEL_INFO
10
-2.999994
20
1.4999993333
40
0.7
1
1 0 0 0 0 1
41
0.75
7
W0$1
0
TEXT
8
LABEL_ATTRIBUTE
10
-2.999994
20
1.4999993333
40
0.7
1
Ref.Des.
41
0.75
7
W0$1
0
TEXT
8
PART_NAME_01
10
-2.999994
20
1.4999993333
40
0.7
1
C5
72
2
73
3
11
-2.999994
21
1.4999993333
50
-180
41
0.75
7
W0$1
0
TEXT
8
LABEL_INFO
10
-2.999994
20
-1.4999993333
40
0.889
1
1 0 0 2 1 1
73
2
11
-2.999994
21
-1.4999993333
41
0.75
7
W0$127
0
TEXT
8
LABEL_ATTRIBUTE
10
-2.999994
20
-1.4999993333
40
0.889
1
PartType
73
2
11
-2.999994
21
-1.4999993333
41
0.75
7
W0$127
0
TEXT
8
PART_TYPE_01
10
-2.999994
20
-1.4999993333
40
0.889
1
Part Type=T491A106M016AT4803
72
2
11
-2.999994
21
-1.4999993333
50
-180
41
0.75
7
W0$127
0
TEXT
8
PART_INFO
10
-2.999994
20
-2.7699993333
40
0.889
1
000000
72
2
11
-2.999994
21
-2.7699993333
50
-180
41
0.75
7
W0$127
0
TEXT
8
PART_PTS
10
-2.999994
20
-4.0399993333
40
0.889
1
1 2 
72
2
11
-2.999994
21
-4.0399993333
50
-180
41
0.75
7
W0$127
0
ENDBLK
0
BLOCK
2
PART_TOP_3
8
0
10
0
20
0
3
PART_TOP_3
70
64
0
INSERT
2
SYM_TOP_7
8
0
10
0
20
0
0
INSERT
2
PKG_2
8
0
10
0
20
0
0
TEXT
8
LABEL_INFO
10
-2.999994
20
1.4999993333
40
0.7
1
1 0 0 0 0 1
41
0.75
7
W0$1
0
TEXT
8
LABEL_ATTRIBUTE
10
-2.999994
20
1.4999993333
40
0.7
1
Ref.Des.
41
0.75
7
W0$1
0
TEXT
8
PART_NAME_01
10
-2.999994
20
1.4999993333
40
0.7
1
C6
72
2
73
3
11
-2.999994
21
1.4999993333
50
-180
41
0.75
7
W0$1
0
TEXT
8
LABEL_INFO
10
-2.999994
20
-1.4999993333
40
0.889
1
1 0 0 2 1 1
73
2
11
-2.999994
21
-1.4999993333
41
0.75
7
W0$127
0
TEXT
8
LABEL_ATTRIBUTE
10
-2.999994
20
-1.4999993333
40
0.889
1
PartType
73
2
11
-2.999994
21
-1.4999993333
41
0.75
7
W0$127
0
TEXT
8
PART_TYPE_01
10
-2.999994
20
-1.4999993333
40
0.889
1
Part Type=T491A106M016AT4803
72
2
11
-2.999994
21
-1.4999993333
50
-180
41
0.75
7
W0$127
0
TEXT
8
PART_INFO
10
-2.999994
20
-2.7699993333
40
0.889
1
000000
72
2
11
-2.999994
21
-2.7699993333
50
-180
41
0.75
7
W0$127
0
TEXT
8
PART_PTS
10
-2.999994
20
-4.0399993333
40
0.889
1
1 2 
72
2
11
-2.999994
21
-4.0399993333
50
-180
41
0.75
7
W0$127
0
ENDBLK
0
BLOCK
2
PART_TOP_4
8
0
10
0
20
0
3
PART_TOP_4
70
64
0
INSERT
2
SYM_TOP_8
8
0
10
0
20
0
0
INSERT
2
PKG_3
8
0
10
0
20
0
0
TEXT
8
LABEL_INFO
10
-1.4599993333
20
-0.8000006667
40
0.3499995333
1
1 0 0 2 1 1
73
2
11
-1.4599993333
21
-0.8000006667
41
0.75
7
W0$05
0
TEXT
8
LABEL_ATTRIBUTE
10
-1.4599993333
20
-0.8000006667
40
0.3499995333
1
PartType
73
2
11
-1.4599993333
21
-0.8000006667
41
0.75
7
W0$05
0
TEXT
8
PART_TYPE_01
10
-1.4599993333
20
-0.8000006667
40
0.3499995333
1
Part Type=C1608
73
3
11
-1.4599993333
21
-0.8000006667
41
0.75
7
W0$05
0
TEXT
8
LABEL_INFO
10
-1.4599993333
20
0.8000006667
40
0.7
1
1 0 0 0 0 1
41
0.75
7
W0$1
0
TEXT
8
LABEL_ATTRIBUTE
10
-1.4599993333
20
0.8000006667
40
0.7
1
Ref.Des.
41
0.75
7
W0$1
0
TEXT
8
PART_NAME_01
10
-1.4599993333
20
0.8000006667
40
0.7
1
C1
41
0.75
7
W0$1
0
TEXT
8
PART_INFO
10
-1.4599993333
20
-0.1999993333
40
0.7
1
000000
41
0.75
7
W0$1
0
TEXT
8
PART_PTS
10
-1.4599993333
20
-1.1999993333
40
0.7
1
1 2 
41
0.75
7
W0$1
0
ENDBLK
0
BLOCK
2
PART_TOP_5
8
0
10
0
20
0
3
PART_TOP_5
70
64
0
INSERT
2
SYM_TOP_8
8
0
10
0
20
0
0
INSERT
2
PKG_3
8
0
10
0
20
0
0
TEXT
8
LABEL_INFO
10
-1.4599993333
20
-0.8000006667
40
0.3499995333
1
1 0 0 2 1 1
73
2
11
-1.4599993333
21
-0.8000006667
41
0.75
7
W0$05
0
TEXT
8
LABEL_ATTRIBUTE
10
-1.4599993333
20
-0.8000006667
40
0.3499995333
1
PartType
73
2
11
-1.4599993333
21
-0.8000006667
41
0.75
7
W0$05
0
TEXT
8
PART_TYPE_01
10
-1.4599993333
20
-0.8000006667
40
0.3499995333
1
Part Type=C1608
73
3
11
-1.4599993333
21
-0.8000006667
41
0.75
7
W0$05
0
TEXT
8
LABEL_INFO
10
-1.4599993333
20
0.8000006667
40
0.7
1
1 0 0 0 0 1
41
0.75
7
W0$1
0
TEXT
8
LABEL_ATTRIBUTE
10
-1.4599993333
20
0.8000006667
40
0.7
1
Ref.Des.
41
0.75
7
W0$1
0
TEXT
8
PART_NAME_01
10
-1.4599993333
20
0.8000006667
40
0.7
1
C10
41
0.75
7
W0$1
0
TEXT
8
PART_INFO
10
-1.4599993333
20
-0.1999993333
40
0.7
1
000000
41
0.75
7
W0$1
0
TEXT
8
PART_PTS
10
-1.4599993333
20
-1.1999993333
40
0.7
1
1 2 
41
0.75
7
W0$1
0
ENDBLK
0
BLOCK
2
PART_TOP_6
8
0
10
0
20
0
3
PART_TOP_6
70
64
0
INSERT
2
SYM_TOP_8
8
0
10
0
20
0
0
INSERT
2
PKG_3
8
0
10
0
20
0
0
TEXT
8
LABEL_INFO
10
-1.4599993333
20
-0.8000006667
40
0.3499995333
1
1 0 0 2 1 1
73
2
11
-1.4599993333
21
-0.8000006667
41
0.75
7
W0$05
0
TEXT
8
LABEL_ATTRIBUTE
10
-1.4599993333
20
-0.8000006667
40
0.3499995333
1
PartType
73
2
11
-1.4599993333
21
-0.8000006667
41
0.75
7
W0$05
0
TEXT
8
PART_TYPE_01
10
-1.4599993333
20
-0.8000006667
40
0.3499995333
1
Part Type=C1608
73
3
11
-1.4599993333
21
-0.8000006667
41
0.75
7
W0$05
0
TEXT
8
LABEL_INFO
10
-1.4599993333
20
0.8000006667
40
0.7
1
1 0 0 0 0 1
41
0.75
7
W0$1
0
TEXT
8
LABEL_ATTRIBUTE
10
-1.4599993333
20
0.8000006667
40
0.7
1
Ref.Des.
41
0.75
7
W0$1
0
TEXT
8
PART_NAME_01
10
-1.4599993333
20
0.8000006667
40
0.7
1
C11
41
0.75
7
W0$1
0
TEXT
8
PART_INFO
10
-1.4599993333
20
-0.1999993333
40
0.7
1
000000
41
0.75
7
W0$1
0
TEXT
8
PART_PTS
10
-1.4599993333
20
-1.1999993333
40
0.7
1
1 2 
41
0.75
7
W0$1
0
ENDBLK
0
BLOCK
2
PART_TOP_7
8
0
10
0
20
0
3
PART_TOP_7
70
64
0
INSERT
2
SYM_TOP_8
8
0
10
0
20
0
0
INSERT
2
PKG_3
8
0
10
0
20
0
0
TEXT
8
LABEL_INFO
10
-1.4599993333
20
-0.8000006667
40
0.3499995333
1
1 0 0 2 1 1
73
2
11
-1.4599993333
21
-0.8000006667
41
0.75
7
W0$05
0
TEXT
8
LABEL_ATTRIBUTE
10
-1.4599993333
20
-0.8000006667
40
0.3499995333
1
PartType
73
2
11
-1.4599993333
21
-0.8000006667
41
0.75
7
W0$05
0
TEXT
8
PART_TYPE_01
10
-1.4599993333
20
-0.8000006667
40
0.3499995333
1
Part Type=C1608
73
3
11
-1.4599993333
21
-0.8000006667
41
0.75
7
W0$05
0
TEXT
8
LABEL_INFO
10
-1.4599993333
20
0.8000006667
40
0.7
1
1 0 0 0 0 1
41
0.75
7
W0$1
0
TEXT
8
LABEL_ATTRIBUTE
10
-1.4599993333
20
0.8000006667
40
0.7
1
Ref.Des.
41
0.75
7
W0$1
0
TEXT
8
PART_NAME_01
10
-1.4599993333
20
0.8000006667
40
0.7
1
C12
41
0.75
7
W0$1
0
TEXT
8
PART_INFO
10
-1.4599993333
20
-0.1999993333
40
0.7
1
000000
41
0.75
7
W0$1
0
TEXT
8
PART_PTS
10
-1.4599993333
20
-1.1999993333
40
0.7
1
1 2 
41
0.75
7
W0$1
0
ENDBLK
0
BLOCK
2
PART_TOP_8
8
0
10
0
20
0
3
PART_TOP_8
70
64
0
INSERT
2
SYM_TOP_8
8
0
10
0
20
0
0
INSERT
2
PKG_3
8
0
10
0
20
0
0
TEXT
8
LABEL_INFO
10
-1.4599993333
20
-0.8000006667
40
0.3499995333
1
1 0 0 2 1 1
73
2
11
-1.4599993333
21
-0.8000006667
41
0.75
7
W0$05
0
TEXT
8
LABEL_ATTRIBUTE
10
-1.4599993333
20
-0.8000006667
40
0.3499995333
1
PartType
73
2
11
-1.4599993333
21
-0.8000006667
41
0.75
7
W0$05
0
TEXT
8
PART_TYPE_01
10
-1.4599993333
20
-0.8000006667
40
0.3499995333
1
Part Type=C1608
73
3
11
-1.4599993333
21
-0.8000006667
41
0.75
7
W0$05
0
TEXT
8
LABEL_INFO
10
-1.4599993333
20
0.8000006667
40
0.7
1
1 0 0 0 0 1
41
0.75
7
W0$1
0
TEXT
8
LABEL_ATTRIBUTE
10
-1.4599993333
20
0.8000006667
40
0.7
1
Ref.Des.
41
0.75
7
W0$1
0
TEXT
8
PART_NAME_01
10
-1.4599993333
20
0.8000006667
40
0.7
1
C2
41
0.75
7
W0$1
0
TEXT
8
PART_INFO
10
-1.4599993333
20
-0.1999993333
40
0.7
1
000000
41
0.75
7
W0$1
0
TEXT
8
PART_PTS
10
-1.4599993333
20
-1.1999993333
40
0.7
1
1 2 
41
0.75
7
W0$1
0
ENDBLK
0
BLOCK
2
PART_TOP_9
8
0
10
0
20
0
3
PART_TOP_9
70
64
0
INSERT
2
SYM_TOP_8
8
0
10
0
20
0
0
INSERT
2
PKG_3
8
0
10
0
20
0
0
TEXT
8
LABEL_INFO
10
-1.4599993333
20
-0.8000006667
40
0.3499995333
1
1 0 0 2 1 1
73
2
11
-1.4599993333
21
-0.8000006667
41
0.75
7
W0$05
0
TEXT
8
LABEL_ATTRIBUTE
10
-1.4599993333
20
-0.8000006667
40
0.3499995333
1
PartType
73
2
11
-1.4599993333
21
-0.8000006667
41
0.75
7
W0$05
0
TEXT
8
PART_TYPE_01
10
-1.4599993333
20
-0.8000006667
40
0.3499995333
1
Part Type=C1608
73
3
11
-1.4599993333
21
-0.8000006667
41
0.75
7
W0$05
0
TEXT
8
LABEL_INFO
10
-1.4599993333
20
0.8000006667
40
0.7
1
1 0 0 0 0 1
41
0.75
7
W0$1
0
TEXT
8
LABEL_ATTRIBUTE
10
-1.4599993333
20
0.8000006667
40
0.7
1
Ref.Des.
41
0.75
7
W0$1
0
TEXT
8
PART_NAME_01
10
-1.4599993333
20
0.8000006667
40
0.7
1
C7
41
0.75
7
W0$1
0
TEXT
8
PART_INFO
10
-1.4599993333
20
-0.1999993333
40
0.7
1
000000
41
0.75
7
W0$1
0
TEXT
8
PART_PTS
10
-1.4599993333
20
-1.1999993333
40
0.7
1
1 2 
41
0.75
7
W0$1
0
ENDBLK
0
BLOCK
2
PART_TOP_10
8
0
10
0
20
0
3
PART_TOP_10
70
64
0
INSERT
2
SYM_TOP_8
8
0
10
0
20
0
0
INSERT
2
PKG_3
8
0
10
0
20
0
0
TEXT
8
LABEL_INFO
10
-1.4599993333
20
-0.8000006667
40
0.3499995333
1
1 0 0 2 1 1
73
2
11
-1.4599993333
21
-0.8000006667
41
0.75
7
W0$05
0
TEXT
8
LABEL_ATTRIBUTE
10
-1.4599993333
20
-0.8000006667
40
0.3499995333
1
PartType
73
2
11
-1.4599993333
21
-0.8000006667
41
0.75
7
W0$05
0
TEXT
8
PART_TYPE_01
10
-1.4599993333
20
-0.8000006667
40
0.3499995333
1
Part Type=C1608
73
3
11
-1.4599993333
21
-0.8000006667
41
0.75
7
W0$05
0
TEXT
8
LABEL_INFO
10
-1.4599993333
20
0.8000006667
40
0.7
1
1 0 0 0 0 1
41
0.75
7
W0$1
0
TEXT
8
LABEL_ATTRIBUTE
10
-1.4599993333
20
0.8000006667
40
0.7
1
Ref.Des.
41
0.75
7
W0$1
0
TEXT
8
PART_NAME_01
10
-1.4599993333
20
0.8000006667
40
0.7
1
C8
41
0.75
7
W0$1
0
TEXT
8
PART_INFO
10
-1.4599993333
20
-0.1999993333
40
0.7
1
000000
41
0.75
7
W0$1
0
TEXT
8
PART_PTS
10
-1.4599993333
20
-1.1999993333
40
0.7
1
1 2 
41
0.75
7
W0$1
0
ENDBLK
0
BLOCK
2
PART_TOP_11
8
0
10
0
20
0
3
PART_TOP_11
70
64
0
INSERT
2
SYM_TOP_8
8
0
10
0
20
0
0
INSERT
2
PKG_3
8
0
10
0
20
0
0
TEXT
8
LABEL_INFO
10
-1.4599993333
20
-0.8000006667
40
0.3499995333
1
1 0 0 2 1 1
73
2
11
-1.4599993333
21
-0.8000006667
41
0.75
7
W0$05
0
TEXT
8
LABEL_ATTRIBUTE
10
-1.4599993333
20
-0.8000006667
40
0.3499995333
1
PartType
73
2
11
-1.4599993333
21
-0.8000006667
41
0.75
7
W0$05
0
TEXT
8
PART_TYPE_01
10
-1.4599993333
20
-0.8000006667
40
0.3499995333
1
Part Type=C1608
73
3
11
-1.4599993333
21
-0.8000006667
41
0.75
7
W0$05
0
TEXT
8
LABEL_INFO
10
-1.4599993333
20
0.8000006667
40
0.7
1
1 0 0 0 0 1
41
0.75
7
W0$1
0
TEXT
8
LABEL_ATTRIBUTE
10
-1.4599993333
20
0.8000006667
40
0.7
1
Ref.Des.
41
0.75
7
W0$1
0
TEXT
8
PART_NAME_01
10
-1.4599993333
20
0.8000006667
40
0.7
1
C9
41
0.75
7
W0$1
0
TEXT
8
PART_INFO
10
-1.4599993333
20
-0.1999993333
40
0.7
1
000000
41
0.75
7
W0$1
0
TEXT
8
PART_PTS
10
-1.4599993333
20
-1.1999993333
40
0.7
1
1 2 
41
0.75
7
W0$1
0
ENDBLK
0
BLOCK
2
PART_TOP_12
8
0
10
0
20
0
3
PART_TOP_12
70
64
0
INSERT
2
SYM_TOP_10
8
0
10
0
20
0
0
INSERT
2
PKG_5
8
0
10
0
20
0
0
TEXT
8
LABEL_INFO
10
-1.4599993333
20
-0.8000006667
40
0.3499995333
1
1 0 0 2 1 1
73
2
11
-1.4599993333
21
-0.8000006667
41
0.75
7
W0$05
0
TEXT
8
LABEL_ATTRIBUTE
10
-1.4599993333
20
-0.8000006667
40
0.3499995333
1
PartType
73
2
11
-1.4599993333
21
-0.8000006667
41
0.75
7
W0$05
0
TEXT
8
PART_TYPE_01
10
-1.4599993333
20
-0.8000006667
40
0.3499995333
1
Part Type=R1608
73
3
11
-1.4599993333
21
-0.8000006667
41
0.75
7
W0$05
0
TEXT
8
LABEL_INFO
10
-1.4599993333
20
0.8000006667
40
0.7
1
1 0 0 0 0 1
41
0.75
7
W0$1
0
TEXT
8
LABEL_ATTRIBUTE
10
-1.4599993333
20
0.8000006667
40
0.7
1
Ref.Des.
41
0.75
7
W0$1
0
TEXT
8
PART_NAME_01
10
-1.4599993333
20
0.8000006667
40
0.7
1
R1
41
0.75
7
W0$1
0
TEXT
8
PART_INFO
10
-1.4599993333
20
-0.1999993333
40
0.7
1
000000
41
0.75
7
W0$1
0
TEXT
8
PART_PTS
10
-1.4599993333
20
-1.1999993333
40
0.7
1
1 2 
41
0.75
7
W0$1
0
ENDBLK
0
BLOCK
2
PART_TOP_13
8
0
10
0
20
0
3
PART_TOP_13
70
64
0
INSERT
2
SYM_TOP_10
8
0
10
0
20
0
0
INSERT
2
PKG_5
8
0
10
0
20
0
0
TEXT
8
LABEL_INFO
10
-1.4599993333
20
-0.8000006667
40
0.3499995333
1
1 0 0 2 1 1
73
2
11
-1.4599993333
21
-0.8000006667
41
0.75
7
W0$05
0
TEXT
8
LABEL_ATTRIBUTE
10
-1.4599993333
20
-0.8000006667
40
0.3499995333
1
PartType
73
2
11
-1.4599993333
21
-0.8000006667
41
0.75
7
W0$05
0
TEXT
8
PART_TYPE_01
10
-1.4599993333
20
-0.8000006667
40
0.3499995333
1
Part Type=R1608
72
2
11
-1.4599993333
21
-0.8000006667
50
-180
41
0.75
7
W0$05
0
TEXT
8
LABEL_INFO
10
-1.4599993333
20
0.8000006667
40
0.7
1
1 0 0 0 0 1
41
0.75
7
W0$1
0
TEXT
8
LABEL_ATTRIBUTE
10
-1.4599993333
20
0.8000006667
40
0.7
1
Ref.Des.
41
0.75
7
W0$1
0
TEXT
8
PART_NAME_01
10
-1.4599993333
20
0.8000006667
40
0.7
1
R10
72
2
73
3
11
-1.4599993333
21
0.8000006667
50
-180
41
0.75
7
W0$1
0
TEXT
8
PART_INFO
10
-1.4599993333
20
-0.1999993333
40
0.7
1
000000
72
2
73
3
11
-1.4599993333
21
-0.1999993333
50
-180
41
0.75
7
W0$1
0
TEXT
8
PART_PTS
10
-1.4599993333
20
-1.1999993333
40
0.7
1
1 2 
72
2
73
3
11
-1.4599993333
21
-1.1999993333
50
-180
41
0.75
7
W0$1
0
ENDBLK
0
BLOCK
2
PART_TOP_14
8
0
10
0
20
0
3
PART_TOP_14
70
64
0
INSERT
2
SYM_TOP_10
8
0
10
0
20
0
0
INSERT
2
PKG_5
8
0
10
0
20
0
0
TEXT
8
LABEL_INFO
10
-1.4599993333
20
-0.8000006667
40
0.3499995333
1
1 0 0 2 1 1
73
2
11
-1.4599993333
21
-0.8000006667
41
0.75
7
W0$05
0
TEXT
8
LABEL_ATTRIBUTE
10
-1.4599993333
20
-0.8000006667
40
0.3499995333
1
PartType
73
2
11
-1.4599993333
21
-0.8000006667
41
0.75
7
W0$05
0
TEXT
8
PART_TYPE_01
10
-1.4599993333
20
-0.8000006667
40
0.3499995333
1
Part Type=R1608
73
3
11
-1.4599993333
21
-0.8000006667
41
0.75
7
W0$05
0
TEXT
8
LABEL_INFO
10
-1.4599993333
20
0.8000006667
40
0.7
1
1 0 0 0 0 1
41
0.75
7
W0$1
0
TEXT
8
LABEL_ATTRIBUTE
10
-1.4599993333
20
0.8000006667
40
0.7
1
Ref.Des.
41
0.75
7
W0$1
0
TEXT
8
PART_NAME_01
10
-1.4599993333
20
0.8000006667
40
0.7
1
R2
41
0.75
7
W0$1
0
TEXT
8
PART_INFO
10
-1.4599993333
20
-0.1999993333
40
0.7
1
000000
41
0.75
7
W0$1
0
TEXT
8
PART_PTS
10
-1.4599993333
20
-1.1999993333
40
0.7
1
1 2 
41
0.75
7
W0$1
0
ENDBLK
0
BLOCK
2
PART_TOP_15
8
0
10
0
20
0
3
PART_TOP_15
70
64
0
INSERT
2
SYM_TOP_10
8
0
10
0
20
0
0
INSERT
2
PKG_5
8
0
10
0
20
0
0
TEXT
8
LABEL_INFO
10
-1.4599993333
20
-0.8000006667
40
0.3499995333
1
1 0 0 2 1 1
73
2
11
-1.4599993333
21
-0.8000006667
41
0.75
7
W0$05
0
TEXT
8
LABEL_ATTRIBUTE
10
-1.4599993333
20
-0.8000006667
40
0.3499995333
1
PartType
73
2
11
-1.4599993333
21
-0.8000006667
41
0.75
7
W0$05
0
TEXT
8
PART_TYPE_01
10
-1.4599993333
20
-0.8000006667
40
0.3499995333
1
Part Type=R1608
72
2
11
-1.4599993333
21
-0.8000006667
50
-180
41
0.75
7
W0$05
0
TEXT
8
LABEL_INFO
10
-1.4599993333
20
0.8000006667
40
0.7
1
1 0 0 0 0 1
41
0.75
7
W0$1
0
TEXT
8
LABEL_ATTRIBUTE
10
-1.4599993333
20
0.8000006667
40
0.7
1
Ref.Des.
41
0.75
7
W0$1
0
TEXT
8
PART_NAME_01
10
-1.4599993333
20
0.8000006667
40
0.7
1
R5
72
2
73
3
11
-1.4599993333
21
0.8000006667
50
-180
41
0.75
7
W0$1
0
TEXT
8
PART_INFO
10
-1.4599993333
20
-0.1999993333
40
0.7
1
000000
72
2
73
3
11
-1.4599993333
21
-0.1999993333
50
-180
41
0.75
7
W0$1
0
TEXT
8
PART_PTS
10
-1.4599993333
20
-1.1999993333
40
0.7
1
1 2 
72
2
73
3
11
-1.4599993333
21
-1.1999993333
50
-180
41
0.75
7
W0$1
0
ENDBLK
0
BLOCK
2
PART_TOP_16
8
0
10
0
20
0
3
PART_TOP_16
70
64
0
INSERT
2
SYM_TOP_10
8
0
10
0
20
0
0
INSERT
2
PKG_5
8
0
10
0
20
0
0
TEXT
8
LABEL_INFO
10
-1.4599993333
20
-0.8000006667
40
0.3499995333
1
1 0 0 2 1 1
73
2
11
-1.4599993333
21
-0.8000006667
41
0.75
7
W0$05
0
TEXT
8
LABEL_ATTRIBUTE
10
-1.4599993333
20
-0.8000006667
40
0.3499995333
1
PartType
73
2
11
-1.4599993333
21
-0.8000006667
41
0.75
7
W0$05
0
TEXT
8
PART_TYPE_01
10
-1.4599993333
20
-0.8000006667
40
0.3499995333
1
Part Type=R1608
72
2
11
-1.4599993333
21
-0.8000006667
50
-180
41
0.75
7
W0$05
0
TEXT
8
LABEL_INFO
10
-1.4599993333
20
0.8000006667
40
0.7
1
1 0 0 0 0 1
41
0.75
7
W0$1
0
TEXT
8
LABEL_ATTRIBUTE
10
-1.4599993333
20
0.8000006667
40
0.7
1
Ref.Des.
41
0.75
7
W0$1
0
TEXT
8
PART_NAME_01
10
-1.4599993333
20
0.8000006667
40
0.7
1
R6
72
2
73
3
11
-1.4599993333
21
0.8000006667
50
-180
41
0.75
7
W0$1
0
TEXT
8
PART_INFO
10
-1.4599993333
20
-0.1999993333
40
0.7
1
000000
72
2
73
3
11
-1.4599993333
21
-0.1999993333
50
-180
41
0.75
7
W0$1
0
TEXT
8
PART_PTS
10
-1.4599993333
20
-1.1999993333
40
0.7
1
1 2 
72
2
73
3
11
-1.4599993333
21
-1.1999993333
50
-180
41
0.75
7
W0$1
0
ENDBLK
0
BLOCK
2
PART_TOP_17
8
0
10
0
20
0
3
PART_TOP_17
70
64
0
INSERT
2
SYM_TOP_10
8
0
10
0
20
0
0
INSERT
2
PKG_5
8
0
10
0
20
0
0
TEXT
8
LABEL_INFO
10
-1.4599993333
20
-0.8000006667
40
0.3499995333
1
1 0 0 2 1 1
73
2
11
-1.4599993333
21
-0.8000006667
41
0.75
7
W0$05
0
TEXT
8
LABEL_ATTRIBUTE
10
-1.4599993333
20
-0.8000006667
40
0.3499995333
1
PartType
73
2
11
-1.4599993333
21
-0.8000006667
41
0.75
7
W0$05
0
TEXT
8
PART_TYPE_01
10
-1.4599993333
20
-0.8000006667
40
0.3499995333
1
Part Type=R1608
72
2
11
-1.4599993333
21
-0.8000006667
50
-180
41
0.75
7
W0$05
0
TEXT
8
LABEL_INFO
10
-1.4599993333
20
0.8000006667
40
0.7
1
1 0 0 0 0 1
41
0.75
7
W0$1
0
TEXT
8
LABEL_ATTRIBUTE
10
-1.4599993333
20
0.8000006667
40
0.7
1
Ref.Des.
41
0.75
7
W0$1
0
TEXT
8
PART_NAME_01
10
-1.4599993333
20
0.8000006667
40
0.7
1
R7
72
2
73
3
11
-1.4599993333
21
0.8000006667
50
-180
41
0.75
7
W0$1
0
TEXT
8
PART_INFO
10
-1.4599993333
20
-0.1999993333
40
0.7
1
000000
72
2
73
3
11
-1.4599993333
21
-0.1999993333
50
-180
41
0.75
7
W0$1
0
TEXT
8
PART_PTS
10
-1.4599993333
20
-1.1999993333
40
0.7
1
1 2 
72
2
73
3
11
-1.4599993333
21
-1.1999993333
50
-180
41
0.75
7
W0$1
0
ENDBLK
0
BLOCK
2
PART_TOP_18
8
0
10
0
20
0
3
PART_TOP_18
70
64
0
INSERT
2
SYM_TOP_10
8
0
10
0
20
0
0
INSERT
2
PKG_5
8
0
10
0
20
0
0
TEXT
8
LABEL_INFO
10
-1.4599993333
20
-0.8000006667
40
0.3499995333
1
1 0 0 2 1 1
73
2
11
-1.4599993333
21
-0.8000006667
41
0.75
7
W0$05
0
TEXT
8
LABEL_ATTRIBUTE
10
-1.4599993333
20
-0.8000006667
40
0.3499995333
1
PartType
73
2
11
-1.4599993333
21
-0.8000006667
41
0.75
7
W0$05
0
TEXT
8
PART_TYPE_01
10
-1.4599993333
20
-0.8000006667
40
0.3499995333
1
Part Type=R1608
72
2
11
-1.4599993333
21
-0.8000006667
50
-180
41
0.75
7
W0$05
0
TEXT
8
LABEL_INFO
10
-1.4599993333
20
0.8000006667
40
0.7
1
1 0 0 0 0 1
41
0.75
7
W0$1
0
TEXT
8
LABEL_ATTRIBUTE
10
-1.4599993333
20
0.8000006667
40
0.7
1
Ref.Des.
41
0.75
7
W0$1
0
TEXT
8
PART_NAME_01
10
-1.4599993333
20
0.8000006667
40
0.7
1
R8
72
2
73
3
11
-1.4599993333
21
0.8000006667
50
-180
41
0.75
7
W0$1
0
TEXT
8
PART_INFO
10
-1.4599993333
20
-0.1999993333
40
0.7
1
000000
72
2
73
3
11
-1.4599993333
21
-0.1999993333
50
-180
41
0.75
7
W0$1
0
TEXT
8
PART_PTS
10
-1.4599993333
20
-1.1999993333
40
0.7
1
1 2 
72
2
73
3
11
-1.4599993333
21
-1.1999993333
50
-180
41
0.75
7
W0$1
0
ENDBLK
0
BLOCK
2
PART_TOP_19
8
0
10
0
20
0
3
PART_TOP_19
70
64
0
INSERT
2
SYM_TOP_10
8
0
10
0
20
0
0
INSERT
2
PKG_5
8
0
10
0
20
0
0
TEXT
8
LABEL_INFO
10
-1.4599993333
20
-0.8000006667
40
0.3499995333
1
1 0 0 2 1 1
73
2
11
-1.4599993333
21
-0.8000006667
41
0.75
7
W0$05
0
TEXT
8
LABEL_ATTRIBUTE
10
-1.4599993333
20
-0.8000006667
40
0.3499995333
1
PartType
73
2
11
-1.4599993333
21
-0.8000006667
41
0.75
7
W0$05
0
TEXT
8
PART_TYPE_01
10
-1.4599993333
20
-0.8000006667
40
0.3499995333
1
Part Type=R1608
72
2
11
-1.4599993333
21
-0.8000006667
50
-180
41
0.75
7
W0$05
0
TEXT
8
LABEL_INFO
10
-1.4599993333
20
0.8000006667
40
0.7
1
1 0 0 0 0 1
41
0.75
7
W0$1
0
TEXT
8
LABEL_ATTRIBUTE
10
-1.4599993333
20
0.8000006667
40
0.7
1
Ref.Des.
41
0.75
7
W0$1
0
TEXT
8
PART_NAME_01
10
-1.4599993333
20
0.8000006667
40
0.7
1
R9
72
2
73
3
11
-1.4599993333
21
0.8000006667
50
-180
41
0.75
7
W0$1
0
TEXT
8
PART_INFO
10
-1.4599993333
20
-0.1999993333
40
0.7
1
000000
72
2
73
3
11
-1.4599993333
21
-0.1999993333
50
-180
41
0.75
7
W0$1
0
TEXT
8
PART_PTS
10
-1.4599993333
20
-1.1999993333
40
0.7
1
1 2 
72
2
73
3
11
-1.4599993333
21
-1.1999993333
50
-180
41
0.75
7
W0$1
0
ENDBLK
0
BLOCK
2
PART_TOP_20
8
0
10
0
20
0
3
PART_TOP_20
70
64
0
INSERT
2
SYM_TOP_11
8
0
10
0
20
0
0
INSERT
2
PKG_6
8
0
10
0
20
0
0
TEXT
8
LABEL_INFO
10
5.39
20
1.5
40
0.7
1
0 324000000 0 0 0 1
50
180
41
0.75
7
W0$1
0
TEXT
8
LABEL_ATTRIBUTE
10
5.39
20
1.5
40
0.7
1
Ref.Des.
50
180
41
0.75
7
W0$1
0
TEXT
8
PART_NAME_01
10
5.39
20
1.5
40
0.7
1
D1
50
180
41
0.75
7
W0$1
0
TEXT
8
LABEL_INFO
10
2.54
20
0
40
0.2667
1
0 0 0 2 0 1
73
2
11
2.54
21
0
41
0.75
7
W0$0381
0
TEXT
8
LABEL_ATTRIBUTE
10
2.54
20
0
40
0.2667
1
PartType
73
2
11
2.54
21
0
41
0.75
7
W0$0381
0
TEXT
8
PART_TYPE_01
10
2.54
20
0
40
0.2667
1
S12698-01
73
3
11
2.54
21
0
41
0.75
7
W0$0381
0
TEXT
8
PART_INFO
10
2.54
20
-0.381
40
0.2667
1
000000
73
3
11
2.54
21
-0.381
41
0.75
7
W0$0381
0
TEXT
8
PART_PTS
10
2.54
20
-0.762
40
0.2667
1
1 2 
73
3
11
2.54
21
-0.762
41
0.75
7
W0$0381
0
ENDBLK
0
BLOCK
2
PART_TOP_21
8
0
10
0
20
0
3
PART_TOP_21
70
64
0
INSERT
2
SYM_TOP_12
8
0
10
0
20
0
0
INSERT
2
PKG_7
8
0
10
0
20
0
0
TEXT
8
LABEL_INFO
10
-3.559988
20
2.9020006667
40
0.7
1
1 0 0 0 0 1
41
0.75
7
W0$1
0
TEXT
8
LABEL_ATTRIBUTE
10
-3.559988
20
2.9020006667
40
0.7
1
Ref.Des.
41
0.75
7
W0$1
0
TEXT
8
PART_NAME_01
10
-3.559988
20
2.9020006667
40
0.7
1
U3
41
0.75
7
W0$1
0
TEXT
8
LABEL_INFO
10
-3.559988
20
-2.9020006667
40
0.889
1
1 0 0 2 1 1
73
2
11
-3.559988
21
-2.9020006667
41
0.75
7
W0$127
0
TEXT
8
LABEL_ATTRIBUTE
10
-3.559988
20
-2.9020006667
40
0.889
1
PartType
73
2
11
-3.559988
21
-2.9020006667
41
0.75
7
W0$127
0
TEXT
8
PART_TYPE_01
10
-3.559988
20
-2.9020006667
40
0.889
1
Part Type=ADS1115IDGST
73
3
11
-3.559988
21
-2.9020006667
41
0.75
7
W0$127
0
TEXT
8
PART_INFO
10
-3.559988
20
-4.1720006667
40
0.889
1
000000
73
3
11
-3.559988
21
-4.1720006667
41
0.75
7
W0$127
0
TEXT
8
PART_PTS
10
-3.559988
20
-5.4420006667
40
0.889
1
1 2 3 4 5 6 7 8 9 10 
73
3
11
-3.559988
21
-5.4420006667
41
0.75
7
W0$127
0
ENDBLK
0
BLOCK
2
PART_TOP_22
8
0
10
0
20
0
3
PART_TOP_22
70
64
0
INSERT
2
SYM_TOP_12
8
0
10
0
20
0
0
INSERT
2
PKG_7
8
0
10
0
20
0
0
TEXT
8
LABEL_INFO
10
-2.999994
20
-2.0000013333
40
0.7112
1
1 0 0 2 1 1
73
2
11
-2.999994
21
-2.0000013333
41
0.75
7
W0$1016
0
TEXT
8
LABEL_ATTRIBUTE
10
-2.999994
20
-2.0000013333
40
0.7112
1
PartType
73
2
11
-2.999994
21
-2.0000013333
41
0.75
7
W0$1016
0
TEXT
8
PART_TYPE_01
10
-2.999994
20
-2.0000013333
40
0.7112
1
Part Type=ADS1115IDGST
73
3
11
-2.999994
21
-2.0000013333
41
0.75
7
W0$1016
0
TEXT
8
LABEL_INFO
10
1.978
20
-2.5563333333
40
0.7
1
1 0 0 0 0 1
41
0.75
7
W0$1
0
TEXT
8
LABEL_ATTRIBUTE
10
1.978
20
-2.5563333333
40
0.7
1
Ref.Des.
41
0.75
7
W0$1
0
TEXT
8
PART_NAME_01
10
1.978
20
-2.5563333333
40
0.7
1
U6
41
0.75
7
W0$1
0
TEXT
8
PART_INFO
10
1.978
20
-3.5563333333
40
0.7
1
000000
41
0.75
7
W0$1
0
TEXT
8
PART_PTS
10
1.978
20
-4.5563333333
40
0.7
1
1 2 3 4 5 6 7 8 9 10 
41
0.75
7
W0$1
0
ENDBLK
0
BLOCK
2
PART_TOP_23
8
0
10
0
20
0
3
PART_TOP_23
70
64
0
INSERT
2
SYM_TOP_8
8
0
10
0
20
0
0
INSERT
2
PKG_3
8
0
10
0
20
0
0
TEXT
8
LABEL_INFO
10
-1.4599993333
20
-0.8000006667
40
0.3499995333
1
1 0 0 2 1 1
73
2
11
-1.4599993333
21
-0.8000006667
41
0.75
7
W0$05
0
TEXT
8
LABEL_ATTRIBUTE
10
-1.4599993333
20
-0.8000006667
40
0.3499995333
1
PartType
73
2
11
-1.4599993333
21
-0.8000006667
41
0.75
7
W0$05
0
TEXT
8
PART_TYPE_01
10
-1.4599993333
20
-0.8000006667
40
0.3499995333
1
Part Type=C1608
72
2
11
-1.4599993333
21
-0.8000006667
50
-180
41
0.75
7
W0$05
0
TEXT
8
LABEL_INFO
10
1.75
20
-0.4999993333
40
0.7
1
1 0 0 0 0 1
41
0.75
7
W0$1
0
TEXT
8
LABEL_ATTRIBUTE
10
1.75
20
-0.4999993333
40
0.7
1
Ref.Des.
41
0.75
7
W0$1
0
TEXT
8
PART_NAME_01
10
1.75
20
-0.4999993333
40
0.7
1
C101
72
2
73
3
11
1.75
21
-0.4999993333
50
-180
41
0.75
7
W0$1
0
TEXT
8
PART_INFO
10
1.75
20
-1.4999993333
40
0.7
1
000000
72
2
73
3
11
1.75
21
-1.4999993333
50
-180
41
0.75
7
W0$1
0
TEXT
8
PART_PTS
10
1.75
20
-2.4999993333
40
0.7
1
1 2 
72
2
73
3
11
1.75
21
-2.4999993333
50
-180
41
0.75
7
W0$1
0
ENDBLK
0
BLOCK
2
PART_TOP_24
8
0
10
0
20
0
3
PART_TOP_24
70
64
0
INSERT
2
SYM_TOP_8
8
0
10
0
20
0
0
INSERT
2
PKG_3
8
0
10
0
20
0
0
TEXT
8
LABEL_INFO
10
-1.4599993333
20
-0.8000006667
40
0.3499995333
1
1 0 0 2 1 1
73
2
11
-1.4599993333
21
-0.8000006667
41
0.75
7
W0$05
0
TEXT
8
LABEL_ATTRIBUTE
10
-1.4599993333
20
-0.8000006667
40
0.3499995333
1
PartType
73
2
11
-1.4599993333
21
-0.8000006667
41
0.75
7
W0$05
0
TEXT
8
PART_TYPE_01
10
-1.4599993333
20
-0.8000006667
40
0.3499995333
1
Part Type=C1608
72
2
11
-1.4599993333
21
-0.8000006667
50
-180
41
0.75
7
W0$05
0
TEXT
8
LABEL_INFO
10
1.75
20
-0.4999993333
40
0.7
1
1 0 0 0 0 1
41
0.75
7
W0$1
0
TEXT
8
LABEL_ATTRIBUTE
10
1.75
20
-0.4999993333
40
0.7
1
Ref.Des.
41
0.75
7
W0$1
0
TEXT
8
PART_NAME_01
10
1.75
20
-0.4999993333
40
0.7
1
C102
72
2
73
3
11
1.75
21
-0.4999993333
50
-180
41
0.75
7
W0$1
0
TEXT
8
PART_INFO
10
1.75
20
-1.4999993333
40
0.7
1
000000
72
2
73
3
11
1.75
21
-1.4999993333
50
-180
41
0.75
7
W0$1
0
TEXT
8
PART_PTS
10
1.75
20
-2.4999993333
40
0.7
1
1 2 
72
2
73
3
11
1.75
21
-2.4999993333
50
-180
41
0.75
7
W0$1
0
ENDBLK
0
BLOCK
2
PART_TOP_25
8
0
10
0
20
0
3
PART_TOP_25
70
64
0
INSERT
2
SYM_TOP_8
8
0
10
0
20
0
0
INSERT
2
PKG_3
8
0
10
0
20
0
0
TEXT
8
LABEL_INFO
10
-1.4599993333
20
-0.8000006667
40
0.3499995333
1
1 0 0 2 1 1
73
2
11
-1.4599993333
21
-0.8000006667
41
0.75
7
W0$05
0
TEXT
8
LABEL_ATTRIBUTE
10
-1.4599993333
20
-0.8000006667
40
0.3499995333
1
PartType
73
2
11
-1.4599993333
21
-0.8000006667
41
0.75
7
W0$05
0
TEXT
8
PART_TYPE_01
10
-1.4599993333
20
-0.8000006667
40
0.3499995333
1
Part Type=C1608
73
3
11
-1.4599993333
21
-0.8000006667
41
0.75
7
W0$05
0
TEXT
8
LABEL_INFO
10
-3.5
20
-0.25
40
0.7
1
1 0 0 0 0 1
41
0.75
7
W0$1
0
TEXT
8
LABEL_ATTRIBUTE
10
-3.5
20
-0.25
40
0.7
1
Ref.Des.
41
0.75
7
W0$1
0
TEXT
8
PART_NAME_01
10
-3.5
20
-0.25
40
0.7
1
C107
41
0.75
7
W0$1
0
TEXT
8
PART_INFO
10
-3.5
20
-1.25
40
0.7
1
000000
41
0.75
7
W0$1
0
TEXT
8
PART_PTS
10
-3.5
20
-2.25
40
0.7
1
1 2 
41
0.75
7
W0$1
0
ENDBLK
0
BLOCK
2
PART_TOP_26
8
0
10
0
20
0
3
PART_TOP_26
70
64
0
INSERT
2
SYM_TOP_8
8
0
10
0
20
0
0
INSERT
2
PKG_3
8
0
10
0
20
0
0
TEXT
8
LABEL_INFO
10
-1.4599993333
20
-0.8000006667
40
0.3499995333
1
1 0 0 2 1 1
73
2
11
-1.4599993333
21
-0.8000006667
41
0.75
7
W0$05
0
TEXT
8
LABEL_ATTRIBUTE
10
-1.4599993333
20
-0.8000006667
40
0.3499995333
1
PartType
73
2
11
-1.4599993333
21
-0.8000006667
41
0.75
7
W0$05
0
TEXT
8
PART_TYPE_01
10
-1.4599993333
20
-0.8000006667
40
0.3499995333
1
Part Type=C1608
73
3
11
-1.4599993333
21
-0.8000006667
41
0.75
7
W0$05
0
TEXT
8
LABEL_INFO
10
-3.5
20
-0.25
40
0.7
1
1 0 0 0 0 1
41
0.75
7
W0$1
0
TEXT
8
LABEL_ATTRIBUTE
10
-3.5
20
-0.25
40
0.7
1
Ref.Des.
41
0.75
7
W0$1
0
TEXT
8
PART_NAME_01
10
-3.5
20
-0.25
40
0.7
1
C108
41
0.75
7
W0$1
0
TEXT
8
PART_INFO
10
-3.5
20
-1.25
40
0.7
1
000000
41
0.75
7
W0$1
0
TEXT
8
PART_PTS
10
-3.5
20
-2.25
40
0.7
1
1 2 
41
0.75
7
W0$1
0
ENDBLK
0
BLOCK
2
PART_TOP_27
8
0
10
0
20
0
3
PART_TOP_27
70
64
0
INSERT
2
SYM_TOP_8
8
0
10
0
20
0
0
INSERT
2
PKG_3
8
0
10
0
20
0
0
TEXT
8
LABEL_INFO
10
-1.4599993333
20
-0.8000006667
40
0.3499995333
1
1 0 0 2 1 1
73
2
11
-1.4599993333
21
-0.8000006667
41
0.75
7
W0$05
0
TEXT
8
LABEL_ATTRIBUTE
10
-1.4599993333
20
-0.8000006667
40
0.3499995333
1
PartType
73
2
11
-1.4599993333
21
-0.8000006667
41
0.75
7
W0$05
0
TEXT
8
PART_TYPE_01
10
-1.4599993333
20
-0.8000006667
40
0.3499995333
1
Part Type=C1608
72
2
11
-1.4599993333
21
-0.8000006667
50
-180
41
0.75
7
W0$05
0
TEXT
8
LABEL_INFO
10
-3.5
20
-0.5
40
0.7
1
1 0 0 0 0 1
41
0.75
7
W0$1
0
TEXT
8
LABEL_ATTRIBUTE
10
-3.5
20
-0.5
40
0.7
1
Ref.Des.
41
0.75
7
W0$1
0
TEXT
8
PART_NAME_01
10
-3.5
20
-0.5
40
0.7
1
C109
72
2
73
3
11
-3.5
21
-0.5
50
-180
41
0.75
7
W0$1
0
TEXT
8
PART_INFO
10
-3.5
20
-1.5
40
0.7
1
000000
72
2
73
3
11
-3.5
21
-1.5
50
-180
41
0.75
7
W0$1
0
TEXT
8
PART_PTS
10
-3.5
20
-2.5
40
0.7
1
1 2 
72
2
73
3
11
-3.5
21
-2.5
50
-180
41
0.75
7
W0$1
0
ENDBLK
0
BLOCK
2
PART_TOP_28
8
0
10
0
20
0
3
PART_TOP_28
70
64
0
INSERT
2
SYM_TOP_8
8
0
10
0
20
0
0
INSERT
2
PKG_3
8
0
10
0
20
0
0
TEXT
8
LABEL_INFO
10
-1.4599993333
20
-0.8000006667
40
0.3499995333
1
1 0 0 2 1 1
73
2
11
-1.4599993333
21
-0.8000006667
41
0.75
7
W0$05
0
TEXT
8
LABEL_ATTRIBUTE
10
-1.4599993333
20
-0.8000006667
40
0.3499995333
1
PartType
73
2
11
-1.4599993333
21
-0.8000006667
41
0.75
7
W0$05
0
TEXT
8
PART_TYPE_01
10
-1.4599993333
20
-0.8000006667
40
0.3499995333
1
Part Type=C1608
72
2
11
-1.4599993333
21
-0.8000006667
50
-180
41
0.75
7
W0$05
0
TEXT
8
LABEL_INFO
10
-3.5
20
-0.5
40
0.7
1
1 0 0 0 0 1
41
0.75
7
W0$1
0
TEXT
8
LABEL_ATTRIBUTE
10
-3.5
20
-0.5
40
0.7
1
Ref.Des.
41
0.75
7
W0$1
0
TEXT
8
PART_NAME_01
10
-3.5
20
-0.5
40
0.7
1
C110
72
2
73
3
11
-3.5
21
-0.5
50
-180
41
0.75
7
W0$1
0
TEXT
8
PART_INFO
10
-3.5
20
-1.5
40
0.7
1
000000
72
2
73
3
11
-3.5
21
-1.5
50
-180
41
0.75
7
W0$1
0
TEXT
8
PART_PTS
10
-3.5
20
-2.5
40
0.7
1
1 2 
72
2
73
3
11
-3.5
21
-2.5
50
-180
41
0.75
7
W0$1
0
ENDBLK
0
BLOCK
2
PART_TOP_29
8
0
10
0
20
0
3
PART_TOP_29
70
64
0
INSERT
2
SYM_TOP_8
8
0
10
0
20
0
0
INSERT
2
PKG_3
8
0
10
0
20
0
0
TEXT
8
LABEL_INFO
10
-1.4599993333
20
-0.8000006667
40
0.3499995333
1
1 0 0 2 1 1
73
2
11
-1.4599993333
21
-0.8000006667
41
0.75
7
W0$05
0
TEXT
8
LABEL_ATTRIBUTE
10
-1.4599993333
20
-0.8000006667
40
0.3499995333
1
PartType
73
2
11
-1.4599993333
21
-0.8000006667
41
0.75
7
W0$05
0
TEXT
8
PART_TYPE_01
10
-1.4599993333
20
-0.8000006667
40
0.3499995333
1
Part Type=C1608
73
3
11
-1.4599993333
21
-0.8000006667
41
0.75
7
W0$05
0
TEXT
8
LABEL_INFO
10
1.75
20
-0.25
40
0.7
1
1 0 0 0 0 1
41
0.75
7
W0$1
0
TEXT
8
LABEL_ATTRIBUTE
10
1.75
20
-0.25
40
0.7
1
Ref.Des.
41
0.75
7
W0$1
0
TEXT
8
PART_NAME_01
10
1.75
20
-0.25
40
0.7
1
C111
41
0.75
7
W0$1
0
TEXT
8
PART_INFO
10
1.75
20
-1.25
40
0.7
1
000000
41
0.75
7
W0$1
0
TEXT
8
PART_PTS
10
1.75
20
-2.25
40
0.7
1
1 2 
41
0.75
7
W0$1
0
ENDBLK
0
BLOCK
2
PART_TOP_30
8
0
10
0
20
0
3
PART_TOP_30
70
64
0
INSERT
2
SYM_TOP_8
8
0
10
0
20
0
0
INSERT
2
PKG_3
8
0
10
0
20
0
0
TEXT
8
LABEL_INFO
10
-1.4599993333
20
-0.8000006667
40
0.3499995333
1
1 0 0 2 1 1
73
2
11
-1.4599993333
21
-0.8000006667
41
0.75
7
W0$05
0
TEXT
8
LABEL_ATTRIBUTE
10
-1.4599993333
20
-0.8000006667
40
0.3499995333
1
PartType
73
2
11
-1.4599993333
21
-0.8000006667
41
0.75
7
W0$05
0
TEXT
8
PART_TYPE_01
10
-1.4599993333
20
-0.8000006667
40
0.3499995333
1
Part Type=C1608
73
3
11
-1.4599993333
21
-0.8000006667
41
0.75
7
W0$05
0
TEXT
8
LABEL_INFO
10
1.75
20
-0.25
40
0.7
1
1 0 0 0 0 1
41
0.75
7
W0$1
0
TEXT
8
LABEL_ATTRIBUTE
10
1.75
20
-0.25
40
0.7
1
Ref.Des.
41
0.75
7
W0$1
0
TEXT
8
PART_NAME_01
10
1.75
20
-0.25
40
0.7
1
C112
41
0.75
7
W0$1
0
TEXT
8
PART_INFO
10
1.75
20
-1.25
40
0.7
1
000000
41
0.75
7
W0$1
0
TEXT
8
PART_PTS
10
1.75
20
-2.25
40
0.7
1
1 2 
41
0.75
7
W0$1
0
ENDBLK
0
BLOCK
2
PART_TOP_31
8
0
10
0
20
0
3
PART_TOP_31
70
64
0
INSERT
2
SYM_TOP_9
8
0
10
0
20
0
0
INSERT
2
PKG_4
8
0
10
0
20
0
0
TEXT
8
LABEL_INFO
10
4.3940126667
20
1.0769746667
40
0.7
1
0 162000000 0 0 0 1
50
90
41
0.75
7
W0$1
0
TEXT
8
LABEL_ATTRIBUTE
10
4.3940126667
20
1.0769746667
40
0.7
1
Ref.Des.
50
90
41
0.75
7
W0$1
0
TEXT
8
PART_NAME_01
10
4.3940126667
20
1.0769746667
40
0.7
1
D101
50
90
41
0.75
7
W0$1
0
TEXT
8
LABEL_INFO
10
1.27
20
0
40
0.2667
1
0 0 0 2 0 1
73
2
11
1.27
21
0
41
0.75
7
W0$0381
0
TEXT
8
LABEL_ATTRIBUTE
10
1.27
20
0
40
0.2667
1
PartType
73
2
11
1.27
21
0
41
0.75
7
W0$0381
0
TEXT
8
PART_TYPE_01
10
1.27
20
0
40
0.2667
1
G12183-010K
73
3
11
1.27
21
0
41
0.75
7
W0$0381
0
TEXT
8
PART_INFO
10
1.27
20
-0.381
40
0.2667
1
000000
73
3
11
1.27
21
-0.381
41
0.75
7
W0$0381
0
TEXT
8
PART_PTS
10
1.27
20
-0.762
40
0.2667
1
1 2 3 
73
3
11
1.27
21
-0.762
41
0.75
7
W0$0381
0
ENDBLK
0
BLOCK
2
PART_TOP_32
8
0
10
0
20
0
3
PART_TOP_32
70
64
0
INSERT
2
SYM_TOP_5
8
0
10
0
20
0
0
INSERT
2
PKG_0
8
0
10
0
20
0
0
TEXT
8
LABEL_INFO
10
-3.9699946667
20
-2.6969973333
40
0.889
1
1 0 0 2 1 1
73
2
11
-3.9699946667
21
-2.6969973333
41
0.75
7
W0$127
0
TEXT
8
LABEL_ATTRIBUTE
10
-3.9699946667
20
-2.6969973333
40
0.889
1
PartType
73
2
11
-3.9699946667
21
-2.6969973333
41
0.75
7
W0$127
0
TEXT
8
PART_TYPE_01
10
-3.9699946667
20
-2.6969973333
40
0.889
1
Part Type=ICL7660CSA
73
3
11
-3.9699946667
21
-2.6969973333
41
0.75
7
W0$127
0
TEXT
8
LABEL_INFO
10
2.75
20
3
40
0.7
1
1 0 0 0 0 1
41
0.75
7
W0$1
0
TEXT
8
LABEL_ATTRIBUTE
10
2.75
20
3
40
0.7
1
Ref.Des.
41
0.75
7
W0$1
0
TEXT
8
PART_NAME_01
10
2.75
20
3
40
0.7
1
U7
41
0.75
7
W0$1
0
TEXT
8
PART_INFO
10
2.75
20
2
40
0.7
1
000000
41
0.75
7
W0$1
0
TEXT
8
PART_PTS
10
2.75
20
1
40
0.7
1
1 2 3 4 5 6 7 8 
41
0.75
7
W0$1
0
ENDBLK
0
BLOCK
2
PART_TOP_33
8
0
10
0
20
0
3
PART_TOP_33
70
64
0
INSERT
2
SYM_TOP_6
8
0
10
0
20
0
0
INSERT
2
PKG_1
8
0
10
0
20
0
0
TEXT
8
LABEL_INFO
10
-3.559988
20
-2.9020006667
40
0.889
1
1 0 0 2 1 1
73
2
11
-3.559988
21
-2.9020006667
41
0.75
7
W0$127
0
TEXT
8
LABEL_ATTRIBUTE
10
-3.559988
20
-2.9020006667
40
0.889
1
PartType
73
2
11
-3.559988
21
-2.9020006667
41
0.75
7
W0$127
0
TEXT
8
PART_TYPE_01
10
-3.559988
20
-2.9020006667
40
0.889
1
Part Type=OPA380AID
73
3
11
-3.559988
21
-2.9020006667
41
0.75
7
W0$127
0
TEXT
8
LABEL_INFO
10
3.2496666667
20
3.139
40
0.7
1
1 162000000 0 0 0 1
50
90
41
0.75
7
W0$1
0
TEXT
8
LABEL_ATTRIBUTE
10
3.2496666667
20
3.139
40
0.7
1
Ref.Des.
50
90
41
0.75
7
W0$1
0
TEXT
8
PART_NAME_01
10
3.2496666667
20
3.139
40
0.7
1
U101
72
2
73
3
11
3.2496666667
21
3.139
50
-90
41
0.75
7
W0$1
0
TEXT
8
PART_INFO
10
3.2496666667
20
2.139
40
0.7
1
000000
72
2
73
3
11
3.2496666667
21
2.139
50
-90
41
0.75
7
W0$1
0
TEXT
8
PART_PTS
10
3.2496666667
20
1.139
40
0.7
1
1 2 3 4 5 6 7 8 
72
2
73
3
11
3.2496666667
21
1.139
50
-90
41
0.75
7
W0$1
0
ENDBLK
0
BLOCK
2
PART_TOP_34
8
0
10
0
20
0
3
PART_TOP_34
70
64
0
INSERT
2
SYM_TOP_10
8
0
10
0
20
0
0
INSERT
2
PKG_5
8
0
10
0
20
0
0
TEXT
8
LABEL_INFO
10
-1.4599993333
20
-0.8000006667
40
0.3499995333
1
1 0 0 2 1 1
73
2
11
-1.4599993333
21
-0.8000006667
41
0.75
7
W0$05
0
TEXT
8
LABEL_ATTRIBUTE
10
-1.4599993333
20
-0.8000006667
40
0.3499995333
1
PartType
73
2
11
-1.4599993333
21
-0.8000006667
41
0.75
7
W0$05
0
TEXT
8
PART_TYPE_01
10
-1.4599993333
20
-0.8000006667
40
0.3499995333
1
Part Type=R1608
72
2
11
-1.4599993333
21
-0.8000006667
50
-180
41
0.75
7
W0$05
0
TEXT
8
LABEL_INFO
10
-3.25
20
-0.5
40
0.7
1
1 0 0 0 0 1
41
0.75
7
W0$1
0
TEXT
8
LABEL_ATTRIBUTE
10
-3.25
20
-0.5
40
0.7
1
Ref.Des.
41
0.75
7
W0$1
0
TEXT
8
PART_NAME_01
10
-3.25
20
-0.5
40
0.7
1
R101
72
2
73
3
11
-3.25
21
-0.5
50
-180
41
0.75
7
W0$1
0
TEXT
8
PART_INFO
10
-3.25
20
-1.5
40
0.7
1
000000
72
2
73
3
11
-3.25
21
-1.5
50
-180
41
0.75
7
W0$1
0
TEXT
8
PART_PTS
10
-3.25
20
-2.5
40
0.7
1
1 2 
72
2
73
3
11
-3.25
21
-2.5
50
-180
41
0.75
7
W0$1
0
ENDBLK
0
BLOCK
2
PART_TOP_35
8
0
10
0
20
0
3
PART_TOP_35
70
64
0
INSERT
2
SYM_TOP_10
8
0
10
0
20
0
0
INSERT
2
PKG_5
8
0
10
0
20
0
0
TEXT
8
LABEL_INFO
10
-1.4599993333
20
-0.8000006667
40
0.3499995333
1
1 0 0 2 1 1
73
2
11
-1.4599993333
21
-0.8000006667
41
0.75
7
W0$05
0
TEXT
8
LABEL_ATTRIBUTE
10
-1.4599993333
20
-0.8000006667
40
0.3499995333
1
PartType
73
2
11
-1.4599993333
21
-0.8000006667
41
0.75
7
W0$05
0
TEXT
8
PART_TYPE_01
10
-1.4599993333
20
-0.8000006667
40
0.3499995333
1
Part Type=R1608
72
2
11
-1.4599993333
21
-0.8000006667
50
-180
41
0.75
7
W0$05
0
TEXT
8
LABEL_INFO
10
-3.5
20
-0.5
40
0.7
1
1 0 0 0 0 1
41
0.75
7
W0$1
0
TEXT
8
LABEL_ATTRIBUTE
10
-3.5
20
-0.5
40
0.7
1
Ref.Des.
41
0.75
7
W0$1
0
TEXT
8
PART_NAME_01
10
-3.5
20
-0.5
40
0.7
1
R102
72
2
73
3
11
-3.5
21
-0.5
50
-180
41
0.75
7
W0$1
0
TEXT
8
PART_INFO
10
-3.5
20
-1.5
40
0.7
1
000000
72
2
73
3
11
-3.5
21
-1.5
50
-180
41
0.75
7
W0$1
0
TEXT
8
PART_PTS
10
-3.5
20
-2.5
40
0.7
1
1 2 
72
2
73
3
11
-3.5
21
-2.5
50
-180
41
0.75
7
W0$1
0
ENDBLK
0
BLOCK
2
PART_TOP_36
8
0
10
0
20
0
3
PART_TOP_36
70
64
0
INSERT
2
SYM_TOP_10
8
0
10
0
20
0
0
INSERT
2
PKG_5
8
0
10
0
20
0
0
TEXT
8
LABEL_INFO
10
-1.4599993333
20
-0.8000006667
40
0.3499995333
1
1 0 0 2 1 1
73
2
11
-1.4599993333
21
-0.8000006667
41
0.75
7
W0$05
0
TEXT
8
LABEL_ATTRIBUTE
10
-1.4599993333
20
-0.8000006667
40
0.3499995333
1
PartType
73
2
11
-1.4599993333
21
-0.8000006667
41
0.75
7
W0$05
0
TEXT
8
PART_TYPE_01
10
-1.4599993333
20
-0.8000006667
40
0.3499995333
1
Part Type=R1608
72
2
11
-1.4599993333
21
-0.8000006667
50
-180
41
0.75
7
W0$05
0
TEXT
8
LABEL_INFO
10
-3.75
20
-0.5
40
0.7
1
1 0 0 0 0 1
41
0.75
7
W0$1
0
TEXT
8
LABEL_ATTRIBUTE
10
-3.75
20
-0.5
40
0.7
1
Ref.Des.
41
0.75
7
W0$1
0
TEXT
8
PART_NAME_01
10
-3.75
20
-0.5
40
0.7
1
R105
72
2
73
3
11
-3.75
21
-0.5
50
-180
41
0.75
7
W0$1
0
TEXT
8
PART_INFO
10
-3.75
20
-1.5
40
0.7
1
000000
72
2
73
3
11
-3.75
21
-1.5
50
-180
41
0.75
7
W0$1
0
TEXT
8
PART_PTS
10
-3.75
20
-2.5
40
0.7
1
1 2 
72
2
73
3
11
-3.75
21
-2.5
50
-180
41
0.75
7
W0$1
0
ENDBLK
0
BLOCK
2
PART_TOP_37
8
0
10
0
20
0
3
PART_TOP_37
70
64
0
INSERT
2
SYM_TOP_10
8
0
10
0
20
0
0
INSERT
2
PKG_5
8
0
10
0
20
0
0
TEXT
8
LABEL_INFO
10
-1.4599993333
20
-0.8000006667
40
0.3499995333
1
1 0 0 2 1 1
73
2
11
-1.4599993333
21
-0.8000006667
41
0.75
7
W0$05
0
TEXT
8
LABEL_ATTRIBUTE
10
-1.4599993333
20
-0.8000006667
40
0.3499995333
1
PartType
73
2
11
-1.4599993333
21
-0.8000006667
41
0.75
7
W0$05
0
TEXT
8
PART_TYPE_01
10
-1.4599993333
20
-0.8000006667
40
0.3499995333
1
Part Type=R1608
72
2
11
-1.4599993333
21
-0.8000006667
50
-180
41
0.75
7
W0$05
0
TEXT
8
LABEL_INFO
10
-3.75
20
-0.5
40
0.7
1
1 0 0 0 0 1
41
0.75
7
W0$1
0
TEXT
8
LABEL_ATTRIBUTE
10
-3.75
20
-0.5
40
0.7
1
Ref.Des.
41
0.75
7
W0$1
0
TEXT
8
PART_NAME_01
10
-3.75
20
-0.5
40
0.7
1
R106
72
2
73
3
11
-3.75
21
-0.5
50
-180
41
0.75
7
W0$1
0
TEXT
8
PART_INFO
10
-3.75
20
-1.5
40
0.7
1
000000
72
2
73
3
11
-3.75
21
-1.5
50
-180
41
0.75
7
W0$1
0
TEXT
8
PART_PTS
10
-3.75
20
-2.5
40
0.7
1
1 2 
72
2
73
3
11
-3.75
21
-2.5
50
-180
41
0.75
7
W0$1
0
ENDBLK
0
BLOCK
2
PART_TOP_38
8
0
10
0
20
0
3
PART_TOP_38
70
64
0
INSERT
2
SYM_TOP_10
8
0
10
0
20
0
0
INSERT
2
PKG_5
8
0
10
0
20
0
0
TEXT
8
LABEL_INFO
10
-1.4599993333
20
-0.8000006667
40
0.3499995333
1
1 0 0 2 1 1
73
2
11
-1.4599993333
21
-0.8000006667
41
0.75
7
W0$05
0
TEXT
8
LABEL_ATTRIBUTE
10
-1.4599993333
20
-0.8000006667
40
0.3499995333
1
PartType
73
2
11
-1.4599993333
21
-0.8000006667
41
0.75
7
W0$05
0
TEXT
8
PART_TYPE_01
10
-1.4599993333
20
-0.8000006667
40
0.3499995333
1
Part Type=R1608
72
2
11
-1.4599993333
21
-0.8000006667
50
-180
41
0.75
7
W0$05
0
TEXT
8
LABEL_INFO
10
-3.75
20
-0.5
40
0.7
1
1 0 0 0 0 1
41
0.75
7
W0$1
0
TEXT
8
LABEL_ATTRIBUTE
10
-3.75
20
-0.5
40
0.7
1
Ref.Des.
41
0.75
7
W0$1
0
TEXT
8
PART_NAME_01
10
-3.75
20
-0.5
40
0.7
1
R107
72
2
73
3
11
-3.75
21
-0.5
50
-180
41
0.75
7
W0$1
0
TEXT
8
PART_INFO
10
-3.75
20
-1.5
40
0.7
1
000000
72
2
73
3
11
-3.75
21
-1.5
50
-180
41
0.75
7
W0$1
0
TEXT
8
PART_PTS
10
-3.75
20
-2.5
40
0.7
1
1 2 
72
2
73
3
11
-3.75
21
-2.5
50
-180
41
0.75
7
W0$1
0
ENDBLK
0
BLOCK
2
PART_TOP_39
8
0
10
0
20
0
3
PART_TOP_39
70
64
0
INSERT
2
SYM_TOP_10
8
0
10
0
20
0
0
INSERT
2
PKG_5
8
0
10
0
20
0
0
TEXT
8
LABEL_INFO
10
-1.4599993333
20
-0.8000006667
40
0.3499995333
1
1 0 0 2 1 1
73
2
11
-1.4599993333
21
-0.8000006667
41
0.75
7
W0$05
0
TEXT
8
LABEL_ATTRIBUTE
10
-1.4599993333
20
-0.8000006667
40
0.3499995333
1
PartType
73
2
11
-1.4599993333
21
-0.8000006667
41
0.75
7
W0$05
0
TEXT
8
PART_TYPE_01
10
-1.4599993333
20
-0.8000006667
40
0.3499995333
1
Part Type=R1608
72
2
11
-1.4599993333
21
-0.8000006667
50
-180
41
0.75
7
W0$05
0
TEXT
8
LABEL_INFO
10
-3.75
20
-0.5
40
0.7
1
1 0 0 0 0 1
41
0.75
7
W0$1
0
TEXT
8
LABEL_ATTRIBUTE
10
-3.75
20
-0.5
40
0.7
1
Ref.Des.
41
0.75
7
W0$1
0
TEXT
8
PART_NAME_01
10
-3.75
20
-0.5
40
0.7
1
R108
72
2
73
3
11
-3.75
21
-0.5
50
-180
41
0.75
7
W0$1
0
TEXT
8
PART_INFO
10
-3.75
20
-1.5
40
0.7
1
000000
72
2
73
3
11
-3.75
21
-1.5
50
-180
41
0.75
7
W0$1
0
TEXT
8
PART_PTS
10
-3.75
20
-2.5
40
0.7
1
1 2 
72
2
73
3
11
-3.75
21
-2.5
50
-180
41
0.75
7
W0$1
0
ENDBLK
0
BLOCK
2
PART_TOP_40
8
0
10
0
20
0
3
PART_TOP_40
70
64
0
INSERT
2
SYM_TOP_10
8
0
10
0
20
0
0
INSERT
2
PKG_5
8
0
10
0
20
0
0
TEXT
8
LABEL_INFO
10
-1.4599993333
20
-0.8000006667
40
0.3499995333
1
1 0 0 2 1 1
73
2
11
-1.4599993333
21
-0.8000006667
41
0.75
7
W0$05
0
TEXT
8
LABEL_ATTRIBUTE
10
-1.4599993333
20
-0.8000006667
40
0.3499995333
1
PartType
73
2
11
-1.4599993333
21
-0.8000006667
41
0.75
7
W0$05
0
TEXT
8
PART_TYPE_01
10
-1.4599993333
20
-0.8000006667
40
0.3499995333
1
Part Type=R1608
72
2
11
-1.4599993333
21
-0.8000006667
50
-180
41
0.75
7
W0$05
0
TEXT
8
LABEL_INFO
10
1.6483333333
20
-0.451666
40
0.7
1
1 0 0 0 0 1
41
0.75
7
W0$1
0
TEXT
8
LABEL_ATTRIBUTE
10
1.6483333333
20
-0.451666
40
0.7
1
Ref.Des.
41
0.75
7
W0$1
0
TEXT
8
PART_NAME_01
10
1.6483333333
20
-0.451666
40
0.7
1
R109
72
2
73
3
11
1.6483333333
21
-0.451666
50
-180
41
0.75
7
W0$1
0
TEXT
8
PART_INFO
10
1.6483333333
20
-1.451666
40
0.7
1
000000
72
2
73
3
11
1.6483333333
21
-1.451666
50
-180
41
0.75
7
W0$1
0
TEXT
8
PART_PTS
10
1.6483333333
20
-2.451666
40
0.7
1
1 2 
72
2
73
3
11
1.6483333333
21
-2.451666
50
-180
41
0.75
7
W0$1
0
ENDBLK
0
BLOCK
2
PART_TOP_41
8
0
10
0
20
0
3
PART_TOP_41
70
64
0
INSERT
2
SYM_TOP_10
8
0
10
0
20
0
0
INSERT
2
PKG_5
8
0
10
0
20
0
0
TEXT
8
LABEL_INFO
10
-1.4599993333
20
-0.8000006667
40
0.3499995333
1
1 0 0 2 1 1
73
2
11
-1.4599993333
21
-0.8000006667
41
0.75
7
W0$05
0
TEXT
8
LABEL_ATTRIBUTE
10
-1.4599993333
20
-0.8000006667
40
0.3499995333
1
PartType
73
2
11
-1.4599993333
21
-0.8000006667
41
0.75
7
W0$05
0
TEXT
8
PART_TYPE_01
10
-1.4599993333
20
-0.8000006667
40
0.3499995333
1
Part Type=R1608
73
3
11
-1.4599993333
21
-0.8000006667
41
0.75
7
W0$05
0
TEXT
8
LABEL_INFO
10
1.8013333333
20
-0.2983333333
40
0.7
1
1 0 0 0 0 1
41
0.75
7
W0$1
0
TEXT
8
LABEL_ATTRIBUTE
10
1.8013333333
20
-0.2983333333
40
0.7
1
Ref.Des.
41
0.75
7
W0$1
0
TEXT
8
PART_NAME_01
10
1.8013333333
20
-0.2983333333
40
0.7
1
R110
41
0.75
7
W0$1
0
TEXT
8
PART_INFO
10
1.8013333333
20
-1.2983333333
40
0.7
1
000000
41
0.75
7
W0$1
0
TEXT
8
PART_PTS
10
1.8013333333
20
-2.2983333333
40
0.7
1
1 2 
41
0.75
7
W0$1
0
ENDBLK
0
BLOCK
2
PART_TOP_42
8
0
10
0
20
0
3
PART_TOP_42
70
64
0
INSERT
2
SYM_TOP_10
8
0
10
0
20
0
0
INSERT
2
PKG_5
8
0
10
0
20
0
0
TEXT
8
LABEL_INFO
10
-1.4599993333
20
-0.8000006667
40
0.3499995333
1
1 0 0 2 1 1
73
2
11
-1.4599993333
21
-0.8000006667
41
0.75
7
W0$05
0
TEXT
8
LABEL_ATTRIBUTE
10
-1.4599993333
20
-0.8000006667
40
0.3499995333
1
PartType
73
2
11
-1.4599993333
21
-0.8000006667
41
0.75
7
W0$05
0
TEXT
8
PART_TYPE_01
10
-1.4599993333
20
-0.8000006667
40
0.3499995333
1
Part Type=R1608
72
2
11
-1.4599993333
21
-0.8000006667
50
-180
41
0.75
7
W0$05
0
TEXT
8
LABEL_INFO
10
-3
20
-0.5
40
0.7
1
1 0 0 0 0 1
41
0.75
7
W0$1
0
TEXT
8
LABEL_ATTRIBUTE
10
-3
20
-0.5
40
0.7
1
Ref.Des.
41
0.75
7
W0$1
0
TEXT
8
PART_NAME_01
10
-3
20
-0.5
40
0.7
1
R111
72
2
73
3
11
-3
21
-0.5
50
-180
41
0.75
7
W0$1
0
TEXT
8
PART_INFO
10
-3
20
-1.5
40
0.7
1
000000
72
2
73
3
11
-3
21
-1.5
50
-180
41
0.75
7
W0$1
0
TEXT
8
PART_PTS
10
-3
20
-2.5
40
0.7
1
1 2 
72
2
73
3
11
-3
21
-2.5
50
-180
41
0.75
7
W0$1
0
ENDBLK
0
BLOCK
2
PART_TOP_43
8
0
10
0
20
0
3
PART_TOP_43
70
64
0
INSERT
2
SYM_TOP_7
8
0
10
0
20
0
0
INSERT
2
PKG_2
8
0
10
0
20
0
0
TEXT
8
LABEL_INFO
10
0
20
-2.25
40
0.7
1
1 0 0 0 0 1
41
0.75
7
W0$1
0
TEXT
8
LABEL_ATTRIBUTE
10
0
20
-2.25
40
0.7
1
Ref.Des.
41
0.75
7
W0$1
0
TEXT
8
PART_NAME_01
10
0
20
-2.25
40
0.7
1
C105
72
2
73
3
11
0
21
-2.25
50
-180
41
0.75
7
W0$1
0
TEXT
8
LABEL_INFO
10
-2.999994
20
-1.4999993333
40
0.889
1
1 0 0 2 1 1
73
2
11
-2.999994
21
-1.4999993333
41
0.75
7
W0$127
0
TEXT
8
LABEL_ATTRIBUTE
10
-2.999994
20
-1.4999993333
40
0.889
1
PartType
73
2
11
-2.999994
21
-1.4999993333
41
0.75
7
W0$127
0
TEXT
8
PART_TYPE_01
10
-2.999994
20
-1.4999993333
40
0.889
1
Part Type=T491A106M016AT4803
72
2
11
-2.999994
21
-1.4999993333
50
-180
41
0.75
7
W0$127
0
TEXT
8
PART_INFO
10
-2.999994
20
-2.7699993333
40
0.889
1
000000
72
2
11
-2.999994
21
-2.7699993333
50
-180
41
0.75
7
W0$127
0
TEXT
8
PART_PTS
10
-2.999994
20
-4.0399993333
40
0.889
1
1 2 
72
2
11
-2.999994
21
-4.0399993333
50
-180
41
0.75
7
W0$127
0
ENDBLK
0
BLOCK
2
PART_TOP_44
8
0
10
0
20
0
3
PART_TOP_44
70
64
0
INSERT
2
SYM_TOP_7
8
0
10
0
20
0
0
INSERT
2
PKG_2
8
0
10
0
20
0
0
TEXT
8
LABEL_INFO
10
0.2499993333
20
1.5
40
0.7
1
1 0 0 0 0 1
41
0.75
7
W0$1
0
TEXT
8
LABEL_ATTRIBUTE
10
0.2499993333
20
1.5
40
0.7
1
Ref.Des.
41
0.75
7
W0$1
0
TEXT
8
PART_NAME_01
10
0.2499993333
20
1.5
40
0.7
1
C106
72
2
73
3
11
0.2499993333
21
1.5
50
-180
41
0.75
7
W0$1
0
TEXT
8
LABEL_INFO
10
-2.999994
20
-1.4999993333
40
0.889
1
1 0 0 2 1 1
73
2
11
-2.999994
21
-1.4999993333
41
0.75
7
W0$127
0
TEXT
8
LABEL_ATTRIBUTE
10
-2.999994
20
-1.4999993333
40
0.889
1
PartType
73
2
11
-2.999994
21
-1.4999993333
41
0.75
7
W0$127
0
TEXT
8
PART_TYPE_01
10
-2.999994
20
-1.4999993333
40
0.889
1
Part Type=T491A106M016AT4803
72
2
11
-2.999994
21
-1.4999993333
50
-180
41
0.75
7
W0$127
0
TEXT
8
PART_INFO
10
-2.999994
20
-2.7699993333
40
0.889
1
000000
72
2
11
-2.999994
21
-2.7699993333
50
-180
41
0.75
7
W0$127
0
TEXT
8
PART_PTS
10
-2.999994
20
-4.0399993333
40
0.889
1
1 2 
72
2
11
-2.999994
21
-4.0399993333
50
-180
41
0.75
7
W0$127
0
ENDBLK
0
BLOCK
2
PART_TOP_45
8
0
10
0
20
0
3
PART_TOP_45
70
64
0
INSERT
2
SYM_TOP_13
8
0
10
0
20
0
0
INSERT
2
PKG_8
8
0
10
0
20
0
0
TEXT
8
LABEL_INFO
10
-5
20
0
40
0.63
1
0 0 0 2 0 1
73
2
11
-5
21
0
41
0.75
7
W0$05
0
TEXT
8
LABEL_ATTRIBUTE
10
-5
20
0
40
0.63
1
PartType
73
2
11
-5
21
0
41
0.75
7
W0$05
0
TEXT
8
PART_TYPE_01
10
-5
20
0
40
0.63
1
22057055
73
3
11
-5
21
0
41
0.75
7
W0$05
0
TEXT
8
LABEL_INFO
10
0
20
5.08
40
0.889
1
0 0 1 1 0 1
72
1
73
1
11
0
21
5.08
41
0.75
7
W0$076
0
TEXT
8
LABEL_ATTRIBUTE
10
0
20
5.08
40
0.889
1
Ref.Des.
72
1
73
1
11
0
21
5.08
41
0.75
7
W0$076
0
TEXT
8
PART_NAME_127
10
0
20
5.08
40
0.889
1
J1
72
1
73
2
11
0
21
5.08
41
0.75
7
W0$076
0
TEXT
8
LABEL_INFO
10
-5
20
0
40
0.0175
1
0 0 1 1 0 0
72
1
73
1
11
-5
21
0
41
0.75
7
W0$025
0
TEXT
8
LABEL_ATTRIBUTE
10
-5
20
0
40
0.0175
1
C
72
1
73
1
11
-5
21
0
41
0.75
7
W0$025
0
TEXT
8
ATTRIBUTE_00
10
-5
20
0
40
0.0175
1
 
72
1
73
2
11
-5
21
0
41
0.75
7
W0$025
0
TEXT
8
LABEL_INFO
10
-8.8270006667
20
-3.976
40
0.7
1
0 0 0 0 0 1
41
0.75
7
W0$1
0
TEXT
8
LABEL_ATTRIBUTE
10
-8.8270006667
20
-3.976
40
0.7
1
Ref.Des.
41
0.75
7
W0$1
0
TEXT
8
PART_NAME_01
10
-8.8270006667
20
-3.976
40
0.7
1
J1
41
0.75
7
W0$1
0
TEXT
8
LABEL_INFO
10
0
20
5.08
40
0.889
1
0 0 1 1 0 1
72
1
73
1
11
0
21
5.08
41
0.75
7
W0$076
0
TEXT
8
LABEL_ATTRIBUTE
10
0
20
5.08
40
0.889
1
Ref.Des.
72
1
73
1
11
0
21
5.08
41
0.75
7
W0$076
0
TEXT
8
PART_NAME_126
10
0
20
5.08
40
0.889
1
J1
72
1
73
2
11
0
21
5.08
41
0.75
7
W0$076
0
TEXT
8
PART_INFO
10
0
20
3.81
40
0.889
1
000000
72
1
73
2
11
0
21
3.81
41
0.75
7
W0$076
0
TEXT
8
PART_PTS
10
0
20
2.54
40
0.889
1
1 2 3 4 5 
72
1
73
2
11
0
21
2.54
41
0.75
7
W0$076
0
ENDBLK
0
BLOCK
2
PART_TOP_46
8
0
10
0
20
0
3
PART_TOP_46
70
64
0
INSERT
2
SYM_TOP_13
8
0
10
0
20
0
0
INSERT
2
PKG_8
8
0
10
0
20
0
0
TEXT
8
LABEL_INFO
10
-5
20
0
40
0.63
1
0 0 0 2 0 1
73
2
11
-5
21
0
41
0.75
7
W0$05
0
TEXT
8
LABEL_ATTRIBUTE
10
-5
20
0
40
0.63
1
PartType
73
2
11
-5
21
0
41
0.75
7
W0$05
0
TEXT
8
PART_TYPE_01
10
-5
20
0
40
0.63
1
22057055
73
3
11
-5
21
0
41
0.75
7
W0$05
0
TEXT
8
LABEL_INFO
10
0
20
5.08
40
0.889
1
0 0 1 1 0 1
72
1
73
1
11
0
21
5.08
41
0.75
7
W0$076
0
TEXT
8
LABEL_ATTRIBUTE
10
0
20
5.08
40
0.889
1
Ref.Des.
72
1
73
1
11
0
21
5.08
41
0.75
7
W0$076
0
TEXT
8
PART_NAME_127
10
0
20
5.08
40
0.889
1
J101
72
1
73
2
11
0
21
5.08
41
0.75
7
W0$076
0
TEXT
8
LABEL_INFO
10
-5
20
0
40
0.0175
1
0 0 1 1 0 0
72
1
73
1
11
-5
21
0
41
0.75
7
W0$025
0
TEXT
8
LABEL_ATTRIBUTE
10
-5
20
0
40
0.0175
1
C
72
1
73
1
11
-5
21
0
41
0.75
7
W0$025
0
TEXT
8
ATTRIBUTE_00
10
-5
20
0
40
0.0175
1
 
72
1
73
2
11
-5
21
0
41
0.75
7
W0$025
0
TEXT
8
LABEL_INFO
10
-9.3269993333
20
-3.976
40
0.7
1
0 0 0 0 0 1
41
0.75
7
W0$1
0
TEXT
8
LABEL_ATTRIBUTE
10
-9.3269993333
20
-3.976
40
0.7
1
Ref.Des.
41
0.75
7
W0$1
0
TEXT
8
PART_NAME_01
10
-9.3269993333
20
-3.976
40
0.7
1
J101
41
0.75
7
W0$1
0
TEXT
8
LABEL_INFO
10
0
20
5.08
40
0.889
1
0 0 1 1 0 1
72
1
73
1
11
0
21
5.08
41
0.75
7
W0$076
0
TEXT
8
LABEL_ATTRIBUTE
10
0
20
5.08
40
0.889
1
Ref.Des.
72
1
73
1
11
0
21
5.08
41
0.75
7
W0$076
0
TEXT
8
PART_NAME_126
10
0
20
5.08
40
0.889
1
J101
72
1
73
2
11
0
21
5.08
41
0.75
7
W0$076
0
TEXT
8
PART_INFO
10
0
20
3.81
40
0.889
1
000000
72
1
73
2
11
0
21
3.81
41
0.75
7
W0$076
0
TEXT
8
PART_PTS
10
0
20
2.54
40
0.889
1
1 2 3 4 5 
72
1
73
2
11
0
21
2.54
41
0.75
7
W0$076
0
ENDBLK
0
BLOCK
2
SYM_TOP_5
8
0
10
0
20
0
3
SYM_TOP_5
70
64
0
TEXT
8
SYM_NAME
10
0
20
0
40
0.7
1
SOIC127P600X175-8N
41
0.75
0
TEXT
8
SYM_PART_NAME_01
10
-3.9699946667
20
2.6969973333
40
0.889
1
 
41
0.75
7
W0$127R1
0
TEXT
8
SYM_PART_TYPE_01
10
-3.9699946667
20
-2.6969973333
40
0.889
1
 
73
2
11
-3.9699946667
21
-2.6969973333
41
0.75
7
W0$127R1
0
INSERT
2
PART_BODY_TOP_2
8
0
10
0
20
0
0
INSERT
2
STK_TOP_104
8
0
10
-2.4749986667
20
1.905
0
TEXT
8
SYM_TERMINAL
10
0
20
-3.048
40
1.778
1
1
0
INSERT
2
STK_TOP_104
8
0
10
-2.4749986667
20
0.635
0
TEXT
8
SYM_TERMINAL
10
0
20
-6.096
40
1.778
1
2
0
INSERT
2
STK_TOP_104
8
0
10
-2.4749986667
20
-0.635
0
TEXT
8
SYM_TERMINAL
10
0
20
-9.144
40
1.778
1
3
0
INSERT
2
STK_TOP_104
8
0
10
-2.4749986667
20
-1.905
0
TEXT
8
SYM_TERMINAL
10
0
20
-12.192
40
1.778
1
4
0
INSERT
2
STK_TOP_104
8
0
10
2.4749986667
20
-1.905
0
TEXT
8
SYM_TERMINAL
10
0
20
-15.24
40
1.778
1
5
0
INSERT
2
STK_TOP_104
8
0
10
2.4749986667
20
-0.635
0
TEXT
8
SYM_TERMINAL
10
0
20
-18.288
40
1.778
1
6
0
INSERT
2
STK_TOP_104
8
0
10
2.4749986667
20
0.635
0
TEXT
8
SYM_TERMINAL
10
0
20
-21.336
40
1.778
1
7
0
INSERT
2
STK_TOP_104
8
0
10
2.4749986667
20
1.905
0
TEXT
8
SYM_TERMINAL
10
0
20
-24.384
40
1.778
1
8
0
ENDBLK
0
BLOCK
2
PKG_0
8
0
10
0
20
0
3
PKG_0
70
64
0
TEXT
8
PKG_INFO
10
0
20
0
40
1.778
1
*SYM:= 5
0
TEXT
8
PKG_INFO
10
0
20
-3.048
40
1.778
1
*PKG:= 0 ICL7660CSA ANA
0
TEXT
8
PKG_INFO
10
0
20
-6.096
40
1.778
1
*GATE:=0
0
TEXT
8
PKG_INFO
10
0
20
-9.144
40
1.778
1
*GATEPIN:= 0 1 2 CAP+
0
TEXT
8
PKG_INFO
10
0
20
-12.192
40
1.778
1
*GATEPIN:= 0 1 4 CAP-
0
TEXT
8
PKG_INFO
10
0
20
-15.24
40
1.778
1
*GATEPIN:= 0 8 3 GND
0
TEXT
8
PKG_INFO
10
0
20
-18.288
40
1.778
1
*GATEPIN:= 0 1 6 LV
0
TEXT
8
PKG_INFO
10
0
20
-21.336
40
1.778
1
*GATEPIN:= 0 1 1 NC
0
TEXT
8
PKG_INFO
10
0
20
-24.384
40
1.778
1
*GATEPIN:= 0 5 7 OSC
0
TEXT
8
PKG_INFO
10
0
20
-27.432
40
1.778
1
*GATEPIN:= 0 7 8 V+
0
TEXT
8
PKG_INFO
10
0
20
-30.48
40
1.778
1
*GATEPIN:= 0 5 5 VOUT
0
ENDBLK
0
BLOCK
2
SYM_TOP_6
8
0
10
0
20
0
3
SYM_TOP_6
70
64
0
TEXT
8
SYM_NAME
10
0
20
0
40
0.7
1
SOIC127P599X175-8N
41
0.75
0
TEXT
8
SYM_PART_NAME_01
10
-3.559988
20
2.9020006667
40
0.889
1
 
41
0.75
7
W0$127R1
0
TEXT
8
SYM_PART_TYPE_01
10
-3.559988
20
-2.9020006667
40
0.889
1
 
73
2
11
-3.559988
21
-2.9020006667
41
0.75
7
W0$127R1
0
INSERT
2
PART_BODY_TOP_3
8
0
10
0
20
0
0
INSERT
2
STK_TOP_105
8
0
10
-2.47
20
1.905
0
TEXT
8
SYM_TERMINAL
10
0
20
-3.048
40
1.778
1
1
0
INSERT
2
STK_TOP_105
8
0
10
-2.47
20
0.635
0
TEXT
8
SYM_TERMINAL
10
0
20
-6.096
40
1.778
1
2
0
INSERT
2
STK_TOP_105
8
0
10
-2.47
20
-0.635
0
TEXT
8
SYM_TERMINAL
10
0
20
-9.144
40
1.778
1
3
0
INSERT
2
STK_TOP_105
8
0
10
-2.47
20
-1.905
0
TEXT
8
SYM_TERMINAL
10
0
20
-12.192
40
1.778
1
4
0
INSERT
2
STK_TOP_105
8
0
10
2.47
20
-1.905
0
TEXT
8
SYM_TERMINAL
10
0
20
-15.24
40
1.778
1
5
0
INSERT
2
STK_TOP_105
8
0
10
2.47
20
-0.635
0
TEXT
8
SYM_TERMINAL
10
0
20
-18.288
40
1.778
1
6
0
INSERT
2
STK_TOP_105
8
0
10
2.47
20
0.635
0
TEXT
8
SYM_TERMINAL
10
0
20
-21.336
40
1.778
1
7
0
INSERT
2
STK_TOP_105
8
0
10
2.47
20
1.905
0
TEXT
8
SYM_TERMINAL
10
0
20
-24.384
40
1.778
1
8
0
ENDBLK
0
BLOCK
2
PKG_1
8
0
10
0
20
0
3
PKG_1
70
64
0
TEXT
8
PKG_INFO
10
0
20
0
40
1.778
1
*SYM:= 6
0
TEXT
8
PKG_INFO
10
0
20
-3.048
40
1.778
1
*PKG:= 0 OPA380AID ANA
0
TEXT
8
PKG_INFO
10
0
20
-6.096
40
1.778
1
*GATE:=0
0
TEXT
8
PKG_INFO
10
0
20
-9.144
40
1.778
1
*GATEPIN:= 0 0 3 +IN
0
TEXT
8
PKG_INFO
10
0
20
-12.192
40
1.778
1
*GATEPIN:= 0 0 2 -IN
0
TEXT
8
PKG_INFO
10
0
20
-15.24
40
1.778
1
*GATEPIN:= 0 5 6 OUT
0
TEXT
8
PKG_INFO
10
0
20
-18.288
40
1.778
1
*GATEPIN:= 0 7 7 V+
0
TEXT
8
PKG_INFO
10
0
20
-21.336
40
1.778
1
*GATEPIN:= 0 8 4 V-
0
ENDBLK
0
BLOCK
2
SYM_TOP_7
8
0
10
0
20
0
3
SYM_TOP_7
70
64
0
TEXT
8
SYM_NAME
10
0
20
0
40
0.7
1
CAPMP3216X180N
41
0.75
0
TEXT
8
SYM_PART_TYPE_01
10
-2.999994
20
-1.4999993333
40
0.889
1
 
73
2
11
-2.999994
21
-1.4999993333
41
0.75
7
W0$127R1
0
TEXT
8
SYM_PART_NAME_01
10
-2.999994
20
1.4999993333
40
0.889
1
 
41
0.75
7
W0$127R1
0
INSERT
2
PART_BODY_TOP_4
8
0
10
0
20
0
0
INSERT
2
STK_TOP_106
8
0
10
-1.35
20
0
0
TEXT
8
SYM_TERMINAL
10
0
20
-3.048
40
1.778
1
1
0
INSERT
2
STK_TOP_106
8
0
10
1.35
20
0
0
TEXT
8
SYM_TERMINAL
10
0
20
-6.096
40
1.778
1
2
0
ENDBLK
0
BLOCK
2
PKG_2
8
0
10
0
20
0
3
PKG_2
70
64
0
TEXT
8
PKG_INFO
10
0
20
0
40
1.778
1
*SYM:= 7
0
TEXT
8
PKG_INFO
10
0
20
-3.048
40
1.778
1
*PKG:= 0 T491A106M016AT4803 CAP
0
TEXT
8
PKG_INFO
10
0
20
-6.096
40
1.778
1
*GATE:=0
0
TEXT
8
PKG_INFO
10
0
20
-9.144
40
1.778
1
*GATEPIN:= 0 1 1 1
0
TEXT
8
PKG_INFO
10
0
20
-12.192
40
1.778
1
*GATEPIN:= 0 1 2 2
0
ENDBLK
0
BLOCK
2
SYM_TOP_8
8
0
10
0
20
0
3
SYM_TOP_8
70
64
0
TEXT
8
SYM_NAME
10
0
20
0
40
0.7
1
CAPC1608X90N
41
0.75
0
TEXT
8
SYM_PART_NAME_01
10
-1.4599993333
20
0.8000006667
40
0.3499995333
1
 
41
0.75
7
W0$05R1
0
TEXT
8
SYM_PART_TYPE_01
10
-1.4599993333
20
-0.8000006667
40
0.3499995333
1
 
73
2
11
-1.4599993333
21
-0.8000006667
41
0.75
7
W0$05R1
0
INSERT
2
PART_BODY_TOP_5
8
0
10
0
20
0
0
INSERT
2
STK_TOP_109
8
0
10
-0.7700013333
20
0
0
TEXT
8
SYM_TERMINAL
10
0
20
-3.048
40
1.778
1
1
0
INSERT
2
STK_TOP_109
8
0
10
0.7700013333
20
0
0
TEXT
8
SYM_TERMINAL
10
0
20
-6.096
40
1.778
1
2
0
ENDBLK
0
BLOCK
2
PKG_3
8
0
10
0
20
0
3
PKG_3
70
64
0
TEXT
8
PKG_INFO
10
0
20
0
40
1.778
1
*SYM:= 8
0
TEXT
8
PKG_INFO
10
0
20
-3.048
40
1.778
1
*PKG:= 0 C1608 CAP
0
TEXT
8
PKG_INFO
10
0
20
-6.096
40
1.778
1
*GATE:=0
0
TEXT
8
PKG_INFO
10
0
20
-9.144
40
1.778
1
*GATEPIN:= 0 1 1 1
0
TEXT
8
PKG_INFO
10
0
20
-12.192
40
1.778
1
*GATEPIN:= 0 1 2 2
0
ENDBLK
0
BLOCK
2
SYM_TOP_10
8
0
10
0
20
0
3
SYM_TOP_10
70
64
0
TEXT
8
SYM_NAME
10
0
20
0
40
0.7
1
RESC1608X55N
41
0.75
0
TEXT
8
SYM_PART_NAME_01
10
-1.4599993333
20
0.8000006667
40
0.3499995333
1
 
41
0.75
7
W0$05R1
0
TEXT
8
SYM_PART_TYPE_01
10
-1.4599993333
20
-0.8000006667
40
0.3499995333
1
 
73
2
11
-1.4599993333
21
-0.8000006667
41
0.75
7
W0$05R1
0
INSERT
2
PART_BODY_TOP_7
8
0
10
0
20
0
0
INSERT
2
STK_TOP_111
8
0
10
-0.7800006667
20
0
0
TEXT
8
SYM_TERMINAL
10
0
20
-3.048
40
1.778
1
1
0
INSERT
2
STK_TOP_111
8
0
10
0.7800006667
20
0
0
TEXT
8
SYM_TERMINAL
10
0
20
-6.096
40
1.778
1
2
0
ENDBLK
0
BLOCK
2
PKG_5
8
0
10
0
20
0
3
PKG_5
70
64
0
TEXT
8
PKG_INFO
10
0
20
0
40
1.778
1
*SYM:= 10
0
TEXT
8
PKG_INFO
10
0
20
-3.048
40
1.778
1
*PKG:= 0 R1608 RES
0
TEXT
8
PKG_INFO
10
0
20
-6.096
40
1.778
1
*GATE:=0
0
TEXT
8
PKG_INFO
10
0
20
-9.144
40
1.778
1
*GATEPIN:= 0 1 1 1
0
TEXT
8
PKG_INFO
10
0
20
-12.192
40
1.778
1
*GATEPIN:= 0 1 2 2
0
ENDBLK
0
BLOCK
2
SYM_TOP_11
8
0
10
0
20
0
3
SYM_TOP_11
70
64
0
TEXT
8
SYM_NAME
10
0
20
0
40
0.7
1
S12698-01
41
0.75
0
TEXT
8
SYM_PART_TYPE_01
10
2.54
20
0
40
0.2667
1
 
73
2
11
2.54
21
0
41
0.75
7
W0$0381R0
0
TEXT
8
SYM_PART_NAME_01
10
2.54
20
0
40
0.2667
1
 
41
0.75
7
W0$0381R0
0
INSERT
2
PART_BODY_TOP_8
8
0
10
0
20
0
0
INSERT
2
STK_TOP_110
8
0
10
5.08
20
0
0
TEXT
8
SYM_TERMINAL
10
0
20
-3.048
40
1.778
1
1
0
INSERT
2
STK_TOP_110
8
0
10
0
20
0
0
TEXT
8
SYM_TERMINAL
10
0
20
-6.096
40
1.778
1
2
0
ENDBLK
0
BLOCK
2
PKG_6
8
0
10
0
20
0
3
PKG_6
70
64
0
TEXT
8
PKG_INFO
10
0
20
0
40
1.778
1
*SYM:= 11
0
TEXT
8
PKG_INFO
10
0
20
-3.048
40
1.778
1
*PKG:= 0 S12698-01 UND
0
TEXT
8
PKG_INFO
10
0
20
-6.096
40
1.778
1
*GATE:=0
0
TEXT
8
PKG_INFO
10
0
20
-9.144
40
1.778
1
*GATEPIN:= 0 9 1 <>
0
TEXT
8
PKG_INFO
10
0
20
-12.192
40
1.778
1
*GATEPIN:= 0 9 2 <>
0
ENDBLK
0
BLOCK
2
SYM_TOP_12
8
0
10
0
20
0
3
SYM_TOP_12
70
64
0
TEXT
8
SYM_NAME
10
0
20
0
40
0.7
1
SOP50P490X110-10N
41
0.75
0
TEXT
8
SYM_PART_NAME_01
10
-2.999994
20
2.0000013333
40
0.7112
1
 
41
0.75
7
W0$1016R1
0
TEXT
8
SYM_PART_TYPE_01
10
-2.999994
20
-2.0000013333
40
0.7112
1
 
73
2
11
-2.999994
21
-2.0000013333
41
0.75
7
W0$1016R1
0
INSERT
2
PART_BODY_TOP_9
8
0
10
0
20
0
0
INSERT
2
STK_TOP_103
8
0
10
-2.1500006667
20
1.0000006667
0
TEXT
8
SYM_TERMINAL
10
0
20
-3.048
40
1.778
1
1
0
INSERT
2
STK_TOP_103
8
0
10
-2.1500006667
20
0.4999993333
0
TEXT
8
SYM_TERMINAL
10
0
20
-6.096
40
1.778
1
2
0
INSERT
2
STK_TOP_103
8
0
10
-2.1500006667
20
0
0
TEXT
8
SYM_TERMINAL
10
0
20
-9.144
40
1.778
1
3
0
INSERT
2
STK_TOP_103
8
0
10
-2.1500006667
20
-0.4999993333
0
TEXT
8
SYM_TERMINAL
10
0
20
-12.192
40
1.778
1
4
0
INSERT
2
STK_TOP_103
8
0
10
-2.1500006667
20
-1.0000006667
0
TEXT
8
SYM_TERMINAL
10
0
20
-15.24
40
1.778
1
5
0
INSERT
2
STK_TOP_103
8
0
10
2.1500006667
20
-1.0000006667
0
TEXT
8
SYM_TERMINAL
10
0
20
-18.288
40
1.778
1
6
0
INSERT
2
STK_TOP_103
8
0
10
2.1500006667
20
-0.4999993333
0
TEXT
8
SYM_TERMINAL
10
0
20
-21.336
40
1.778
1
7
0
INSERT
2
STK_TOP_103
8
0
10
2.1500006667
20
0
0
TEXT
8
SYM_TERMINAL
10
0
20
-24.384
40
1.778
1
8
0
INSERT
2
STK_TOP_103
8
0
10
2.1500006667
20
0.4999993333
0
TEXT
8
SYM_TERMINAL
10
0
20
-27.432
40
1.778
1
9
0
INSERT
2
STK_TOP_103
8
0
10
2.1500006667
20
1.0000006667
0
TEXT
8
SYM_TERMINAL
10
0
20
-30.48
40
1.778
1
10
0
ENDBLK
0
BLOCK
2
PKG_7
8
0
10
0
20
0
3
PKG_7
70
64
0
TEXT
8
PKG_INFO
10
0
20
0
40
1.778
1
*SYM:= 12
0
TEXT
8
PKG_INFO
10
0
20
-3.048
40
1.778
1
*PKG:= 0 ADS1115IDGST ANA
0
TEXT
8
PKG_INFO
10
0
20
-6.096
40
1.778
1
*GATE:=0
0
TEXT
8
PKG_INFO
10
0
20
-9.144
40
1.778
1
*GATEPIN:= 0 0 1 ADDR
0
TEXT
8
PKG_INFO
10
0
20
-12.192
40
1.778
1
*GATEPIN:= 0 0 4 AIN0
0
TEXT
8
PKG_INFO
10
0
20
-15.24
40
1.778
1
*GATEPIN:= 0 0 5 AIN1
0
TEXT
8
PKG_INFO
10
0
20
-18.288
40
1.778
1
*GATEPIN:= 0 0 6 AIN2
0
TEXT
8
PKG_INFO
10
0
20
-21.336
40
1.778
1
*GATEPIN:= 0 0 7 AIN3
0
TEXT
8
PKG_INFO
10
0
20
-24.384
40
1.778
1
*GATEPIN:= 0 0 2 ALERT/RDY
0
TEXT
8
PKG_INFO
10
0
20
-27.432
40
1.778
1
*GATEPIN:= 0 8 3 GND
0
TEXT
8
PKG_INFO
10
0
20
-30.48
40
1.778
1
*GATEPIN:= 0 0 10 SCL
0
TEXT
8
PKG_INFO
10
0
20
-33.528
40
1.778
1
*GATEPIN:= 0 1 9 SDA
0
TEXT
8
PKG_INFO
10
0
20
-36.576
40
1.778
1
*GATEPIN:= 0 7 8 VDD
0
ENDBLK
0
BLOCK
2
SYM_TOP_9
8
0
10
0
20
0
3
SYM_TOP_9
70
64
0
TEXT
8
SYM_NAME
10
0
20
0
40
0.7
1
G12183-010K
41
0.75
0
TEXT
8
SYM_PART_TYPE_01
10
1.27
20
0
40
0.2667
1
 
73
2
11
1.27
21
0
41
0.75
7
W0$0381R0
0
TEXT
8
SYM_PART_NAME_01
10
1.27
20
0
40
0.2667
1
 
41
0.75
7
W0$0381R0
0
INSERT
2
PART_BODY_TOP_6
8
0
10
0
20
0
0
INSERT
2
STK_TOP_110
8
0
10
2.54
20
0
0
TEXT
8
SYM_TERMINAL
10
0
20
-3.048
40
1.778
1
1
0
INSERT
2
STK_TOP_110
8
0
10
1.27
20
-1.27
0
TEXT
8
SYM_TERMINAL
10
0
20
-6.096
40
1.778
1
2
0
INSERT
2
STK_TOP_110
8
0
10
0
20
0
0
TEXT
8
SYM_TERMINAL
10
0
20
-9.144
40
1.778
1
3
0
ENDBLK
0
BLOCK
2
PKG_4
8
0
10
0
20
0
3
PKG_4
70
64
0
TEXT
8
PKG_INFO
10
0
20
0
40
1.778
1
*SYM:= 9
0
TEXT
8
PKG_INFO
10
0
20
-3.048
40
1.778
1
*PKG:= 0 G12183-010K UND
0
TEXT
8
PKG_INFO
10
0
20
-6.096
40
1.778
1
*GATE:=0
0
TEXT
8
PKG_INFO
10
0
20
-9.144
40
1.778
1
*GATEPIN:= 0 9 1 <>
0
TEXT
8
PKG_INFO
10
0
20
-12.192
40
1.778
1
*GATEPIN:= 0 9 2 <>
0
TEXT
8
PKG_INFO
10
0
20
-15.24
40
1.778
1
*GATEPIN:= 0 9 3 <>
0
ENDBLK
0
BLOCK
2
SYM_TOP_13
8
0
10
0
20
0
3
SYM_TOP_13
70
64
0
TEXT
8
SYM_NAME
10
0
20
0
40
0.7
1
CON_22057055_MOL
41
0.75
0
TEXT
8
SYM_PART_TYPE_01
10
-5
20
0
40
0.63
1
 
73
2
11
-5
21
0
41
0.75
7
W0$05R0
0
TEXT
8
SYM_PART_NAME_127
10
0
20
5.08
40
0.889
1
 
72
1
73
1
11
0
21
5.08
41
0.75
7
W0$076R0
0
TEXT
8
SYM_ATTRIBUTE_00
10
-5
20
0
40
0.0175
1
C
72
1
73
1
11
-5
21
0
41
0.75
7
W0$025R0
0
TEXT
8
SYM_PART_NAME_126
10
0
20
5.08
40
0.889
1
 
72
1
73
1
11
0
21
5.08
41
0.75
7
W0$076R0
0
INSERT
2
PART_BODY_TOP_12
8
0
10
0
20
0
0
INSERT
2
STK_TOP_102
8
0
10
-5
20
0
0
TEXT
8
SYM_TERMINAL
10
0
20
-3.048
40
1.778
1
1
0
INSERT
2
STK_TOP_101
8
0
10
-2.5
20
0
0
TEXT
8
SYM_TERMINAL
10
0
20
-6.096
40
1.778
1
2
0
INSERT
2
STK_TOP_101
8
0
10
0
20
0
0
TEXT
8
SYM_TERMINAL
10
0
20
-9.144
40
1.778
1
3
0
INSERT
2
STK_TOP_101
8
0
10
2.5
20
0
0
TEXT
8
SYM_TERMINAL
10
0
20
-12.192
40
1.778
1
4
0
INSERT
2
STK_TOP_101
8
0
10
5
20
0
0
TEXT
8
SYM_TERMINAL
10
0
20
-15.24
40
1.778
1
5
0
ENDBLK
0
BLOCK
2
PKG_8
8
0
10
0
20
0
3
PKG_8
70
64
0
TEXT
8
PKG_INFO
10
0
20
0
40
1.778
1
*SYM:= 13
0
TEXT
8
PKG_INFO
10
0
20
-3.048
40
1.778
1
*PKG:= 0 22057055 CON
0
TEXT
8
PKG_INFO
10
0
20
-6.096
40
1.778
1
*GATE:=0
0
TEXT
8
PKG_INFO
10
0
20
-9.144
40
1.778
1
*GATEPIN:= 0 9 1 1
0
TEXT
8
PKG_INFO
10
0
20
-12.192
40
1.778
1
*GATEPIN:= 0 9 2 2
0
TEXT
8
PKG_INFO
10
0
20
-15.24
40
1.778
1
*GATEPIN:= 0 9 3 3
0
TEXT
8
PKG_INFO
10
0
20
-18.288
40
1.778
1
*GATEPIN:= 0 9 4 4
0
TEXT
8
PKG_INFO
10
0
20
-21.336
40
1.778
1
*GATEPIN:= 0 9 5 5
0
ENDBLK
0
BLOCK
2
PART_BODY_TOP_2
8
0
10
0
20
0
3
PART_BODY_TOP_2
70
64
0
POLYLINE
8
PART_TOP_2DLINE_126
66
1
40
0.1999993333
41
0.1999993333
39
17.5
70
1
0
VERTEX
8
PART_TOP_2DLINE_126
10
-4.545
20
2.4949986667
42
1
0
VERTEX
8
PART_TOP_2DLINE_126
10
-4.345
20
2.4949986667
42
1
0
SEQEND
0
POLYLINE
8
PART_TOP_2DLINE_127
66
1
40
0.1999993333
41
0.1999993333
39
17.5
70
1
0
VERTEX
8
PART_TOP_2DLINE_127
10
-4.545
20
2.4949986667
42
1
0
VERTEX
8
PART_TOP_2DLINE_127
10
-4.345
20
2.4949986667
42
1
0
SEQEND
0
POLYLINE
8
PART_TOP_2DLINE_127
66
1
40
0.127
41
0.127
39
17.5
0
VERTEX
8
PART_TOP_2DLINE_127
10
-2.0000013333
20
2.5
0
VERTEX
8
PART_TOP_2DLINE_127
10
2.0000013333
20
2.5
0
SEQEND
0
INSERT
2
SMOOTH_0$127
8
PART_TOP_2DLINE_127
10
-2.0000013333
20
2.5
0
INSERT
2
SMOOTH_0$127
8
PART_TOP_2DLINE_127
10
2.0000013333
20
2.5
0
POLYLINE
8
PART_TOP_2DLINE_127
66
1
40
0.127
41
0.127
39
17.5
0
VERTEX
8
PART_TOP_2DLINE_127
10
-2.0000013333
20
-2.5
0
VERTEX
8
PART_TOP_2DLINE_127
10
2.0000013333
20
-2.5
0
SEQEND
0
INSERT
2
SMOOTH_0$127
8
PART_TOP_2DLINE_127
10
-2.0000013333
20
-2.5
0
INSERT
2
SMOOTH_0$127
8
PART_TOP_2DLINE_127
10
2.0000013333
20
-2.5
0
POLYLINE
8
PART_TOP_2DLINE_126
66
1
40
0.127
41
0.127
39
17.5
0
VERTEX
8
PART_TOP_2DLINE_126
10
-2.0000013333
20
2.52
0
VERTEX
8
PART_TOP_2DLINE_126
10
2.0000013333
20
2.52
0
SEQEND
0
INSERT
2
SMOOTH_0$127
8
PART_TOP_2DLINE_126
10
-2.0000013333
20
2.52
0
INSERT
2
SMOOTH_0$127
8
PART_TOP_2DLINE_126
10
2.0000013333
20
2.52
0
POLYLINE
8
PART_TOP_2DLINE_126
66
1
40
0.127
41
0.127
39
17.5
0
VERTEX
8
PART_TOP_2DLINE_126
10
-2.0000013333
20
-2.52
0
VERTEX
8
PART_TOP_2DLINE_126
10
2.0000013333
20
-2.52
0
SEQEND
0
INSERT
2
SMOOTH_0$127
8
PART_TOP_2DLINE_126
10
-2.0000013333
20
-2.52
0
INSERT
2
SMOOTH_0$127
8
PART_TOP_2DLINE_126
10
2.0000013333
20
-2.52
0
POLYLINE
8
PART_TOP_2DLINE_127
66
1
40
0.127
41
0.127
39
17.5
0
VERTEX
8
PART_TOP_2DLINE_127
10
-2.0000013333
20
2.5
0
VERTEX
8
PART_TOP_2DLINE_127
10
-2.0000013333
20
-2.5
0
SEQEND
0
INSERT
2
SMOOTH_0$127
8
PART_TOP_2DLINE_127
10
-2.0000013333
20
2.5
0
INSERT
2
SMOOTH_0$127
8
PART_TOP_2DLINE_127
10
-2.0000013333
20
-2.5
0
POLYLINE
8
PART_TOP_2DLINE_127
66
1
40
0.127
41
0.127
39
17.5
0
VERTEX
8
PART_TOP_2DLINE_127
10
2.0000013333
20
2.5
0
VERTEX
8
PART_TOP_2DLINE_127
10
2.0000013333
20
-2.5
0
SEQEND
0
INSERT
2
SMOOTH_0$127
8
PART_TOP_2DLINE_127
10
2.0000013333
20
2.5
0
INSERT
2
SMOOTH_0$127
8
PART_TOP_2DLINE_127
10
2.0000013333
20
-2.5
0
POLYLINE
8
PART_TOP_2DLINE_120
66
1
40
0.05
41
0.05
39
17.5
0
VERTEX
8
PART_TOP_2DLINE_120
10
-3.71
20
2.7500073333
0
VERTEX
8
PART_TOP_2DLINE_120
10
3.71
20
2.7500073333
0
SEQEND
0
INSERT
2
SMOOTH_0$05
8
PART_TOP_2DLINE_120
10
-3.71
20
2.7500073333
0
INSERT
2
SMOOTH_0$05
8
PART_TOP_2DLINE_120
10
3.71
20
2.7500073333
0
POLYLINE
8
PART_TOP_2DLINE_120
66
1
40
0.05
41
0.05
39
17.5
0
VERTEX
8
PART_TOP_2DLINE_120
10
-3.71
20
-2.7500073333
0
VERTEX
8
PART_TOP_2DLINE_120
10
3.71
20
-2.7500073333
0
SEQEND
0
INSERT
2
SMOOTH_0$05
8
PART_TOP_2DLINE_120
10
-3.71
20
-2.7500073333
0
INSERT
2
SMOOTH_0$05
8
PART_TOP_2DLINE_120
10
3.71
20
-2.7500073333
0
POLYLINE
8
PART_TOP_2DLINE_120
66
1
40
0.05
41
0.05
39
17.5
0
VERTEX
8
PART_TOP_2DLINE_120
10
-3.71
20
2.7500073333
0
VERTEX
8
PART_TOP_2DLINE_120
10
-3.71
20
-2.7500073333
0
SEQEND
0
INSERT
2
SMOOTH_0$05
8
PART_TOP_2DLINE_120
10
-3.71
20
2.7500073333
0
INSERT
2
SMOOTH_0$05
8
PART_TOP_2DLINE_120
10
-3.71
20
-2.7500073333
0
POLYLINE
8
PART_TOP_2DLINE_120
66
1
40
0.05
41
0.05
39
17.5
0
VERTEX
8
PART_TOP_2DLINE_120
10
3.71
20
2.7500073333
0
VERTEX
8
PART_TOP_2DLINE_120
10
3.71
20
-2.7500073333
0
SEQEND
0
INSERT
2
SMOOTH_0$05
8
PART_TOP_2DLINE_120
10
3.71
20
2.7500073333
0
INSERT
2
SMOOTH_0$05
8
PART_TOP_2DLINE_120
10
3.71
20
-2.7500073333
0
ENDBLK
0
BLOCK
2
STK_TOP_104
8
0
10
0
20
0
3
STK_TOP_104
70
64
0
INSERT
2
DRIL_HOLE_0
8
DRIL_PLTE_THRU_01
10
0
20
0
0
INSERT
2
DRIL_HOLE_0
8
DRIL_PLTE_THRU_02
10
0
20
0
0
INSERT
2
PAD_0
8
PADS_INNER
10
0
20
0
0
INSERT
2
PAD_0
8
PADS_BOT
10
0
20
0
0
INSERT
2
PAD_1
8
PADS_XR_121
10
0
20
0
0
INSERT
2
PAD_2
8
PADS_XR_123
10
0
20
0
0
INSERT
2
PAD_3
8
PADS_TOP
10
0
20
0
0
ENDBLK
0
BLOCK
2
PART_BODY_TOP_3
8
0
10
0
20
0
3
PART_BODY_TOP_3
70
64
0
POLYLINE
8
PART_TOP_2DLINE_126
66
1
40
0.1999993333
41
0.1999993333
39
17.5
70
1
0
VERTEX
8
PART_TOP_2DLINE_126
10
-4.1399966667
20
2.3049993333
42
1
0
VERTEX
8
PART_TOP_2DLINE_126
10
-3.9399973333
20
2.3049993333
42
1
0
SEQEND
0
POLYLINE
8
PART_TOP_2DLINE_127
66
1
40
0.1999993333
41
0.1999993333
39
17.5
70
1
0
VERTEX
8
PART_TOP_2DLINE_127
10
-4.1399966667
20
2.3049993333
42
1
0
VERTEX
8
PART_TOP_2DLINE_127
10
-3.9399973333
20
2.3049993333
42
1
0
SEQEND
0
POLYLINE
8
PART_TOP_2DLINE_127
66
1
40
0.127
41
0.127
39
17.5
0
VERTEX
8
PART_TOP_2DLINE_127
10
-1.9500013333
20
2.4524993333
0
VERTEX
8
PART_TOP_2DLINE_127
10
1.9500013333
20
2.4524993333
0
SEQEND
0
INSERT
2
SMOOTH_0$127
8
PART_TOP_2DLINE_127
10
-1.9500013333
20
2.4524993333
0
INSERT
2
SMOOTH_0$127
8
PART_TOP_2DLINE_127
10
1.9500013333
20
2.4524993333
0
POLYLINE
8
PART_TOP_2DLINE_127
66
1
40
0.127
41
0.127
39
17.5
0
VERTEX
8
PART_TOP_2DLINE_127
10
-1.9500013333
20
-2.4524993333
0
VERTEX
8
PART_TOP_2DLINE_127
10
1.9500013333
20
-2.4524993333
0
SEQEND
0
INSERT
2
SMOOTH_0$127
8
PART_TOP_2DLINE_127
10
-1.9500013333
20
-2.4524993333
0
INSERT
2
SMOOTH_0$127
8
PART_TOP_2DLINE_127
10
1.9500013333
20
-2.4524993333
0
POLYLINE
8
PART_TOP_2DLINE_126
66
1
40
0.127
41
0.127
39
17.5
0
VERTEX
8
PART_TOP_2DLINE_126
10
-1.9500013333
20
2.5249986667
0
VERTEX
8
PART_TOP_2DLINE_126
10
1.9500013333
20
2.5249986667
0
SEQEND
0
INSERT
2
SMOOTH_0$127
8
PART_TOP_2DLINE_126
10
-1.9500013333
20
2.5249986667
0
INSERT
2
SMOOTH_0$127
8
PART_TOP_2DLINE_126
10
1.9500013333
20
2.5249986667
0
POLYLINE
8
PART_TOP_2DLINE_126
66
1
40
0.127
41
0.127
39
17.5
0
VERTEX
8
PART_TOP_2DLINE_126
10
-1.9500013333
20
-2.5249986667
0
VERTEX
8
PART_TOP_2DLINE_126
10
1.9500013333
20
-2.5249986667
0
SEQEND
0
INSERT
2
SMOOTH_0$127
8
PART_TOP_2DLINE_126
10
-1.9500013333
20
-2.5249986667
0
INSERT
2
SMOOTH_0$127
8
PART_TOP_2DLINE_126
10
1.9500013333
20
-2.5249986667
0
POLYLINE
8
PART_TOP_2DLINE_127
66
1
40
0.127
41
0.127
39
17.5
0
VERTEX
8
PART_TOP_2DLINE_127
10
-1.9500013333
20
2.4524993333
0
VERTEX
8
PART_TOP_2DLINE_127
10
-1.9500013333
20
-2.4524993333
0
SEQEND
0
INSERT
2
SMOOTH_0$127
8
PART_TOP_2DLINE_127
10
-1.9500013333
20
2.4524993333
0
INSERT
2
SMOOTH_0$127
8
PART_TOP_2DLINE_127
10
-1.9500013333
20
-2.4524993333
0
POLYLINE
8
PART_TOP_2DLINE_127
66
1
40
0.127
41
0.127
39
17.5
0
VERTEX
8
PART_TOP_2DLINE_127
10
1.9500013333
20
2.4524993333
0
VERTEX
8
PART_TOP_2DLINE_127
10
1.9500013333
20
-2.4524993333
0
SEQEND
0
INSERT
2
SMOOTH_0$127
8
PART_TOP_2DLINE_127
10
1.9500013333
20
2.4524993333
0
INSERT
2
SMOOTH_0$127
8
PART_TOP_2DLINE_127
10
1.9500013333
20
-2.4524993333
0
POLYLINE
8
PART_TOP_2DLINE_120
66
1
40
0.05
41
0.05
39
17.5
0
VERTEX
8
PART_TOP_2DLINE_120
10
-3.7049966667
20
2.7025093333
0
VERTEX
8
PART_TOP_2DLINE_120
10
3.7049966667
20
2.7025093333
0
SEQEND
0
INSERT
2
SMOOTH_0$05
8
PART_TOP_2DLINE_120
10
-3.7049966667
20
2.7025093333
0
INSERT
2
SMOOTH_0$05
8
PART_TOP_2DLINE_120
10
3.7049966667
20
2.7025093333
0
POLYLINE
8
PART_TOP_2DLINE_120
66
1
40
0.05
41
0.05
39
17.5
0
VERTEX
8
PART_TOP_2DLINE_120
10
-3.7049966667
20
-2.7025093333
0
VERTEX
8
PART_TOP_2DLINE_120
10
3.7049966667
20
-2.7025093333
0
SEQEND
0
INSERT
2
SMOOTH_0$05
8
PART_TOP_2DLINE_120
10
-3.7049966667
20
-2.7025093333
0
INSERT
2
SMOOTH_0$05
8
PART_TOP_2DLINE_120
10
3.7049966667
20
-2.7025093333
0
POLYLINE
8
PART_TOP_2DLINE_120
66
1
40
0.05
41
0.05
39
17.5
0
VERTEX
8
PART_TOP_2DLINE_120
10
-3.7049966667
20
2.7025093333
0
VERTEX
8
PART_TOP_2DLINE_120
10
-3.7049966667
20
-2.7025093333
0
SEQEND
0
INSERT
2
SMOOTH_0$05
8
PART_TOP_2DLINE_120
10
-3.7049966667
20
2.7025093333
0
INSERT
2
SMOOTH_0$05
8
PART_TOP_2DLINE_120
10
-3.7049966667
20
-2.7025093333
0
POLYLINE
8
PART_TOP_2DLINE_120
66
1
40
0.05
41
0.05
39
17.5
0
VERTEX
8
PART_TOP_2DLINE_120
10
3.7049966667
20
2.7025093333
0
VERTEX
8
PART_TOP_2DLINE_120
10
3.7049966667
20
-2.7025093333
0
SEQEND
0
INSERT
2
SMOOTH_0$05
8
PART_TOP_2DLINE_120
10
3.7049966667
20
2.7025093333
0
INSERT
2
SMOOTH_0$05
8
PART_TOP_2DLINE_120
10
3.7049966667
20
-2.7025093333
0
ENDBLK
0
BLOCK
2
STK_TOP_105
8
0
10
0
20
0
3
STK_TOP_105
70
64
0
INSERT
2
DRIL_HOLE_0
8
DRIL_PLTE_THRU_01
10
0
20
0
0
INSERT
2
DRIL_HOLE_0
8
DRIL_PLTE_THRU_02
10
0
20
0
0
INSERT
2
PAD_0
8
PADS_INNER
10
0
20
0
0
INSERT
2
PAD_0
8
PADS_BOT
10
0
20
0
0
INSERT
2
PAD_4
8
PADS_XR_121
10
0
20
0
0
INSERT
2
PAD_5
8
PADS_XR_123
10
0
20
0
0
INSERT
2
PAD_6
8
PADS_TOP
10
0
20
0
0
ENDBLK
0
BLOCK
2
PART_BODY_TOP_4
8
0
10
0
20
0
3
PART_BODY_TOP_4
70
64
0
POLYLINE
8
PART_TOP_2DLINE_127
66
1
40
0.127
41
0.127
39
18
0
VERTEX
8
PART_TOP_2DLINE_127
10
-1.5999993333
20
0.8000006667
0
VERTEX
8
PART_TOP_2DLINE_127
10
1.5999993333
20
0.8000006667
0
SEQEND
0
INSERT
2
SMOOTH_0$127
8
PART_TOP_2DLINE_127
10
-1.5999993333
20
0.8000006667
0
INSERT
2
SMOOTH_0$127
8
PART_TOP_2DLINE_127
10
1.5999993333
20
0.8000006667
0
POLYLINE
8
PART_TOP_2DLINE_127
66
1
40
0.127
41
0.127
39
18
0
VERTEX
8
PART_TOP_2DLINE_127
10
1.5999993333
20
0.8000006667
0
VERTEX
8
PART_TOP_2DLINE_127
10
1.5999993333
20
-0.8000006667
0
SEQEND
0
INSERT
2
SMOOTH_0$127
8
PART_TOP_2DLINE_127
10
1.5999993333
20
0.8000006667
0
INSERT
2
SMOOTH_0$127
8
PART_TOP_2DLINE_127
10
1.5999993333
20
-0.8000006667
0
POLYLINE
8
PART_TOP_2DLINE_127
66
1
40
0.127
41
0.127
39
18
0
VERTEX
8
PART_TOP_2DLINE_127
10
1.5999993333
20
-0.8000006667
0
VERTEX
8
PART_TOP_2DLINE_127
10
-1.5999993333
20
-0.8000006667
0
SEQEND
0
INSERT
2
SMOOTH_0$127
8
PART_TOP_2DLINE_127
10
1.5999993333
20
-0.8000006667
0
INSERT
2
SMOOTH_0$127
8
PART_TOP_2DLINE_127
10
-1.5999993333
20
-0.8000006667
0
POLYLINE
8
PART_TOP_2DLINE_127
66
1
40
0.127
41
0.127
39
18
0
VERTEX
8
PART_TOP_2DLINE_127
10
-1.5999993333
20
-0.8000006667
0
VERTEX
8
PART_TOP_2DLINE_127
10
-1.5999993333
20
0.8000006667
0
SEQEND
0
INSERT
2
SMOOTH_0$127
8
PART_TOP_2DLINE_127
10
-1.5999993333
20
-0.8000006667
0
INSERT
2
SMOOTH_0$127
8
PART_TOP_2DLINE_127
10
-1.5999993333
20
0.8000006667
0
POLYLINE
8
PART_TOP_2DLINE_126
66
1
40
0.127
41
0.127
39
18
0
VERTEX
8
PART_TOP_2DLINE_126
10
-1.5999993333
20
0.9349993333
0
VERTEX
8
PART_TOP_2DLINE_126
10
1.5999993333
20
0.9349993333
0
SEQEND
0
INSERT
2
SMOOTH_0$127
8
PART_TOP_2DLINE_126
10
-1.5999993333
20
0.9349993333
0
INSERT
2
SMOOTH_0$127
8
PART_TOP_2DLINE_126
10
1.5999993333
20
0.9349993333
0
POLYLINE
8
PART_TOP_2DLINE_126
66
1
40
0.127
41
0.127
39
18
0
VERTEX
8
PART_TOP_2DLINE_126
10
-1.5999993333
20
-0.9349993333
0
VERTEX
8
PART_TOP_2DLINE_126
10
1.5999993333
20
-0.9349993333
0
SEQEND
0
INSERT
2
SMOOTH_0$127
8
PART_TOP_2DLINE_126
10
-1.5999993333
20
-0.9349993333
0
INSERT
2
SMOOTH_0$127
8
PART_TOP_2DLINE_126
10
1.5999993333
20
-0.9349993333
0
POLYLINE
8
PART_TOP_2DLINE_120
66
1
40
0.05
41
0.05
39
18
0
VERTEX
8
PART_TOP_2DLINE_120
10
-2.4549986667
20
1.0500006667
0
VERTEX
8
PART_TOP_2DLINE_120
10
2.4549986667
20
1.0500006667
0
SEQEND
0
INSERT
2
SMOOTH_0$05
8
PART_TOP_2DLINE_120
10
-2.4549986667
20
1.0500006667
0
INSERT
2
SMOOTH_0$05
8
PART_TOP_2DLINE_120
10
2.4549986667
20
1.0500006667
0
POLYLINE
8
PART_TOP_2DLINE_120
66
1
40
0.05
41
0.05
39
18
0
VERTEX
8
PART_TOP_2DLINE_120
10
2.4549986667
20
1.0500006667
0
VERTEX
8
PART_TOP_2DLINE_120
10
2.4549986667
20
-1.0500006667
0
SEQEND
0
INSERT
2
SMOOTH_0$05
8
PART_TOP_2DLINE_120
10
2.4549986667
20
1.0500006667
0
INSERT
2
SMOOTH_0$05
8
PART_TOP_2DLINE_120
10
2.4549986667
20
-1.0500006667
0
POLYLINE
8
PART_TOP_2DLINE_120
66
1
40
0.05
41
0.05
39
18
0
VERTEX
8
PART_TOP_2DLINE_120
10
2.4549986667
20
-1.0500006667
0
VERTEX
8
PART_TOP_2DLINE_120
10
-2.4549986667
20
-1.0500006667
0
SEQEND
0
INSERT
2
SMOOTH_0$05
8
PART_TOP_2DLINE_120
10
2.4549986667
20
-1.0500006667
0
INSERT
2
SMOOTH_0$05
8
PART_TOP_2DLINE_120
10
-2.4549986667
20
-1.0500006667
0
POLYLINE
8
PART_TOP_2DLINE_120
66
1
40
0.05
41
0.05
39
18
0
VERTEX
8
PART_TOP_2DLINE_120
10
-2.4549986667
20
-1.0500006667
0
VERTEX
8
PART_TOP_2DLINE_120
10
-2.4549986667
20
1.0500006667
0
SEQEND
0
INSERT
2
SMOOTH_0$05
8
PART_TOP_2DLINE_120
10
-2.4549986667
20
-1.0500006667
0
INSERT
2
SMOOTH_0$05
8
PART_TOP_2DLINE_120
10
-2.4549986667
20
1.0500006667
0
POLYLINE
8
PART_TOP_2DLINE_126
66
1
40
0.1999993333
41
0.1999993333
39
18
70
1
0
VERTEX
8
PART_TOP_2DLINE_126
10
-2.899994
20
0
42
1
0
VERTEX
8
PART_TOP_2DLINE_126
10
-2.6999946667
20
0
42
1
0
SEQEND
0
POLYLINE
8
PART_TOP_2DLINE_127
66
1
40
0.1999993333
41
0.1999993333
39
18
70
1
0
VERTEX
8
PART_TOP_2DLINE_127
10
-2.899994
20
0
42
1
0
VERTEX
8
PART_TOP_2DLINE_127
10
-2.6999946667
20
0
42
1
0
SEQEND
0
ENDBLK
0
BLOCK
2
STK_TOP_106
8
0
10
0
20
0
3
STK_TOP_106
70
64
0
INSERT
2
DRIL_HOLE_0
8
DRIL_PLTE_THRU_01
10
0
20
0
0
INSERT
2
DRIL_HOLE_0
8
DRIL_PLTE_THRU_02
10
0
20
0
0
INSERT
2
PAD_0
8
PADS_INNER
10
0
20
0
0
INSERT
2
PAD_0
8
PADS_BOT
10
0
20
0
0
INSERT
2
PAD_7
8
PADS_XR_121
10
0
20
0
0
INSERT
2
PAD_8
8
PADS_XR_123
10
0
20
0
0
INSERT
2
PAD_9
8
PADS_TOP
10
0
20
0
0
ENDBLK
0
BLOCK
2
PART_BODY_TOP_5
8
0
10
0
20
0
3
PART_BODY_TOP_5
70
64
0
POLYLINE
8
PART_TOP_2DLINE_127
66
1
40
0.127
41
0.127
39
9
0
VERTEX
8
PART_TOP_2DLINE_127
10
0.8500006667
20
-0.4499993333
0
VERTEX
8
PART_TOP_2DLINE_127
10
-0.8500006667
20
-0.4499993333
0
SEQEND
0
INSERT
2
SMOOTH_0$127
8
PART_TOP_2DLINE_127
10
0.8500006667
20
-0.4499993333
0
INSERT
2
SMOOTH_0$127
8
PART_TOP_2DLINE_127
10
-0.8500006667
20
-0.4499993333
0
POLYLINE
8
PART_TOP_2DLINE_127
66
1
40
0.127
41
0.127
39
9
0
VERTEX
8
PART_TOP_2DLINE_127
10
0.8500006667
20
0.4499993333
0
VERTEX
8
PART_TOP_2DLINE_127
10
-0.8500006667
20
0.4499993333
0
SEQEND
0
INSERT
2
SMOOTH_0$127
8
PART_TOP_2DLINE_127
10
0.8500006667
20
0.4499993333
0
INSERT
2
SMOOTH_0$127
8
PART_TOP_2DLINE_127
10
-0.8500006667
20
0.4499993333
0
POLYLINE
8
PART_TOP_2DLINE_127
66
1
40
0.127
41
0.127
39
9
0
VERTEX
8
PART_TOP_2DLINE_127
10
0.8500006667
20
-0.4499993333
0
VERTEX
8
PART_TOP_2DLINE_127
10
0.8500006667
20
0.4499993333
0
SEQEND
0
INSERT
2
SMOOTH_0$127
8
PART_TOP_2DLINE_127
10
0.8500006667
20
-0.4499993333
0
INSERT
2
SMOOTH_0$127
8
PART_TOP_2DLINE_127
10
0.8500006667
20
0.4499993333
0
POLYLINE
8
PART_TOP_2DLINE_127
66
1
40
0.127
41
0.127
39
9
0
VERTEX
8
PART_TOP_2DLINE_127
10
-0.8500006667
20
-0.4499993333
0
VERTEX
8
PART_TOP_2DLINE_127
10
-0.8500006667
20
0.4499993333
0
SEQEND
0
INSERT
2
SMOOTH_0$127
8
PART_TOP_2DLINE_127
10
-0.8500006667
20
-0.4499993333
0
INSERT
2
SMOOTH_0$127
8
PART_TOP_2DLINE_127
10
-0.8500006667
20
0.4499993333
0
POLYLINE
8
PART_TOP_2DLINE_120
66
1
40
0.05
41
0.05
39
9
0
VERTEX
8
PART_TOP_2DLINE_120
10
-1.4650006667
20
-0.715
0
VERTEX
8
PART_TOP_2DLINE_120
10
1.4650006667
20
-0.715
0
SEQEND
0
INSERT
2
SMOOTH_0$05
8
PART_TOP_2DLINE_120
10
-1.4650006667
20
-0.715
0
INSERT
2
SMOOTH_0$05
8
PART_TOP_2DLINE_120
10
1.4650006667
20
-0.715
0
POLYLINE
8
PART_TOP_2DLINE_120
66
1
40
0.05
41
0.05
39
9
0
VERTEX
8
PART_TOP_2DLINE_120
10
-1.4650006667
20
0.715
0
VERTEX
8
PART_TOP_2DLINE_120
10
1.4650006667
20
0.715
0
SEQEND
0
INSERT
2
SMOOTH_0$05
8
PART_TOP_2DLINE_120
10
-1.4650006667
20
0.715
0
INSERT
2
SMOOTH_0$05
8
PART_TOP_2DLINE_120
10
1.4650006667
20
0.715
0
POLYLINE
8
PART_TOP_2DLINE_120
66
1
40
0.05
41
0.05
39
9
0
VERTEX
8
PART_TOP_2DLINE_120
10
-1.4650006667
20
-0.715
0
VERTEX
8
PART_TOP_2DLINE_120
10
-1.4650006667
20
0.715
0
SEQEND
0
INSERT
2
SMOOTH_0$05
8
PART_TOP_2DLINE_120
10
-1.4650006667
20
-0.715
0
INSERT
2
SMOOTH_0$05
8
PART_TOP_2DLINE_120
10
-1.4650006667
20
0.715
0
POLYLINE
8
PART_TOP_2DLINE_120
66
1
40
0.05
41
0.05
39
9
0
VERTEX
8
PART_TOP_2DLINE_120
10
1.4650006667
20
-0.715
0
VERTEX
8
PART_TOP_2DLINE_120
10
1.4650006667
20
0.715
0
SEQEND
0
INSERT
2
SMOOTH_0$05
8
PART_TOP_2DLINE_120
10
1.4650006667
20
-0.715
0
INSERT
2
SMOOTH_0$05
8
PART_TOP_2DLINE_120
10
1.4650006667
20
0.715
0
ENDBLK
0
BLOCK
2
STK_TOP_109
8
0
10
0
20
0
3
STK_TOP_109
70
64
0
INSERT
2
DRIL_HOLE_0
8
DRIL_PLTE_THRU_01
10
0
20
0
0
INSERT
2
DRIL_HOLE_0
8
DRIL_PLTE_THRU_02
10
0
20
0
0
INSERT
2
PAD_0
8
PADS_INNER
10
0
20
0
0
INSERT
2
PAD_0
8
PADS_BOT
10
0
20
0
0
INSERT
2
PAD_10
8
PADS_XR_121
10
0
20
0
50
90
0
INSERT
2
PAD_11
8
PADS_XR_123
10
0
20
0
50
90
0
INSERT
2
PAD_11
8
PADS_TOP
10
0
20
0
50
90
0
ENDBLK
0
BLOCK
2
PART_BODY_TOP_7
8
0
10
0
20
0
3
PART_BODY_TOP_7
70
64
0
POLYLINE
8
PART_TOP_2DLINE_127
66
1
40
0.127
41
0.127
39
5.5
0
VERTEX
8
PART_TOP_2DLINE_127
10
0.8500006667
20
-0.4499993333
0
VERTEX
8
PART_TOP_2DLINE_127
10
-0.8500006667
20
-0.4499993333
0
SEQEND
0
INSERT
2
SMOOTH_0$127
8
PART_TOP_2DLINE_127
10
0.8500006667
20
-0.4499993333
0
INSERT
2
SMOOTH_0$127
8
PART_TOP_2DLINE_127
10
-0.8500006667
20
-0.4499993333
0
POLYLINE
8
PART_TOP_2DLINE_127
66
1
40
0.127
41
0.127
39
5.5
0
VERTEX
8
PART_TOP_2DLINE_127
10
0.8500006667
20
0.4499993333
0
VERTEX
8
PART_TOP_2DLINE_127
10
-0.8500006667
20
0.4499993333
0
SEQEND
0
INSERT
2
SMOOTH_0$127
8
PART_TOP_2DLINE_127
10
0.8500006667
20
0.4499993333
0
INSERT
2
SMOOTH_0$127
8
PART_TOP_2DLINE_127
10
-0.8500006667
20
0.4499993333
0
POLYLINE
8
PART_TOP_2DLINE_127
66
1
40
0.127
41
0.127
39
5.5
0
VERTEX
8
PART_TOP_2DLINE_127
10
0.8500006667
20
-0.4499993333
0
VERTEX
8
PART_TOP_2DLINE_127
10
0.8500006667
20
0.4499993333
0
SEQEND
0
INSERT
2
SMOOTH_0$127
8
PART_TOP_2DLINE_127
10
0.8500006667
20
-0.4499993333
0
INSERT
2
SMOOTH_0$127
8
PART_TOP_2DLINE_127
10
0.8500006667
20
0.4499993333
0
POLYLINE
8
PART_TOP_2DLINE_127
66
1
40
0.127
41
0.127
39
5.5
0
VERTEX
8
PART_TOP_2DLINE_127
10
-0.8500006667
20
-0.4499993333
0
VERTEX
8
PART_TOP_2DLINE_127
10
-0.8500006667
20
0.4499993333
0
SEQEND
0
INSERT
2
SMOOTH_0$127
8
PART_TOP_2DLINE_127
10
-0.8500006667
20
-0.4499993333
0
INSERT
2
SMOOTH_0$127
8
PART_TOP_2DLINE_127
10
-0.8500006667
20
0.4499993333
0
POLYLINE
8
PART_TOP_2DLINE_120
66
1
40
0.05
41
0.05
39
5.5
0
VERTEX
8
PART_TOP_2DLINE_120
10
-1.4650006667
20
-0.715
0
VERTEX
8
PART_TOP_2DLINE_120
10
1.4650006667
20
-0.715
0
SEQEND
0
INSERT
2
SMOOTH_0$05
8
PART_TOP_2DLINE_120
10
-1.4650006667
20
-0.715
0
INSERT
2
SMOOTH_0$05
8
PART_TOP_2DLINE_120
10
1.4650006667
20
-0.715
0
POLYLINE
8
PART_TOP_2DLINE_120
66
1
40
0.05
41
0.05
39
5.5
0
VERTEX
8
PART_TOP_2DLINE_120
10
-1.4650006667
20
0.715
0
VERTEX
8
PART_TOP_2DLINE_120
10
1.4650006667
20
0.715
0
SEQEND
0
INSERT
2
SMOOTH_0$05
8
PART_TOP_2DLINE_120
10
-1.4650006667
20
0.715
0
INSERT
2
SMOOTH_0$05
8
PART_TOP_2DLINE_120
10
1.4650006667
20
0.715
0
POLYLINE
8
PART_TOP_2DLINE_120
66
1
40
0.05
41
0.05
39
5.5
0
VERTEX
8
PART_TOP_2DLINE_120
10
-1.4650006667
20
-0.715
0
VERTEX
8
PART_TOP_2DLINE_120
10
-1.4650006667
20
0.715
0
SEQEND
0
INSERT
2
SMOOTH_0$05
8
PART_TOP_2DLINE_120
10
-1.4650006667
20
-0.715
0
INSERT
2
SMOOTH_0$05
8
PART_TOP_2DLINE_120
10
-1.4650006667
20
0.715
0
POLYLINE
8
PART_TOP_2DLINE_120
66
1
40
0.05
41
0.05
39
5.5
0
VERTEX
8
PART_TOP_2DLINE_120
10
1.4650006667
20
-0.715
0
VERTEX
8
PART_TOP_2DLINE_120
10
1.4650006667
20
0.715
0
SEQEND
0
INSERT
2
SMOOTH_0$05
8
PART_TOP_2DLINE_120
10
1.4650006667
20
-0.715
0
INSERT
2
SMOOTH_0$05
8
PART_TOP_2DLINE_120
10
1.4650006667
20
0.715
0
ENDBLK
0
BLOCK
2
STK_TOP_111
8
0
10
0
20
0
3
STK_TOP_111
70
64
0
INSERT
2
DRIL_HOLE_0
8
DRIL_PLTE_THRU_01
10
0
20
0
0
INSERT
2
DRIL_HOLE_0
8
DRIL_PLTE_THRU_02
10
0
20
0
0
INSERT
2
PAD_0
8
PADS_INNER
10
0
20
0
0
INSERT
2
PAD_0
8
PADS_BOT
10
0
20
0
0
INSERT
2
PAD_12
8
PADS_XR_121
10
0
20
0
50
90
0
INSERT
2
PAD_13
8
PADS_XR_123
10
0
20
0
50
90
0
INSERT
2
PAD_13
8
PADS_TOP
10
0
20
0
50
90
0
ENDBLK
0
BLOCK
2
PART_BODY_TOP_8
8
0
10
0
20
0
3
PART_BODY_TOP_8
70
64
0
ENDBLK
0
BLOCK
2
STK_TOP_110
8
0
10
0
20
0
3
STK_TOP_110
70
64
0
INSERT
2
DRIL_HOLE_0$75
8
DRIL_PLTE_THRU_01
10
0
20
0
0
INSERT
2
DRIL_HOLE_0$75
8
DRIL_PLTE_THRU_02
10
0
20
0
0
INSERT
2
PAD_14
8
PADS_INNER
10
0
20
0
0
INSERT
2
PAD_14
8
PADS_BOT
10
0
20
0
0
INSERT
2
PAD_14
8
PADS_TOP
10
0
20
0
0
ENDBLK
0
BLOCK
2
PART_BODY_TOP_9
8
0
10
0
20
0
3
PART_BODY_TOP_9
70
64
0
POLYLINE
8
PART_TOP_2DLINE_126
66
1
40
0.1999993333
41
0.1999993333
39
11
70
1
0
VERTEX
8
PART_TOP_2DLINE_126
10
-3.5999926667
20
1.25
42
1
0
VERTEX
8
PART_TOP_2DLINE_126
10
-3.3999933333
20
1.25
42
1
0
SEQEND
0
POLYLINE
8
PART_TOP_2DLINE_127
66
1
40
0.1999993333
41
0.1999993333
39
11
70
1
0
VERTEX
8
PART_TOP_2DLINE_127
10
-3.5999926667
20
1.25
42
1
0
VERTEX
8
PART_TOP_2DLINE_127
10
-3.3999933333
20
1.25
42
1
0
SEQEND
0
POLYLINE
8
PART_TOP_2DLINE_127
66
1
40
0.127
41
0.127
39
11
0
VERTEX
8
PART_TOP_2DLINE_127
10
-1.4999993333
20
1.4999993333
0
VERTEX
8
PART_TOP_2DLINE_127
10
1.4999993333
20
1.4999993333
0
SEQEND
0
INSERT
2
SMOOTH_0$127
8
PART_TOP_2DLINE_127
10
-1.4999993333
20
1.4999993333
0
INSERT
2
SMOOTH_0$127
8
PART_TOP_2DLINE_127
10
1.4999993333
20
1.4999993333
0
POLYLINE
8
PART_TOP_2DLINE_127
66
1
40
0.127
41
0.127
39
11
0
VERTEX
8
PART_TOP_2DLINE_127
10
-1.4999993333
20
-1.4999993333
0
VERTEX
8
PART_TOP_2DLINE_127
10
1.4999993333
20
-1.4999993333
0
SEQEND
0
INSERT
2
SMOOTH_0$127
8
PART_TOP_2DLINE_127
10
-1.4999993333
20
-1.4999993333
0
INSERT
2
SMOOTH_0$127
8
PART_TOP_2DLINE_127
10
1.4999993333
20
-1.4999993333
0
POLYLINE
8
PART_TOP_2DLINE_126
66
1
40
0.127
41
0.127
39
11
0
VERTEX
8
PART_TOP_2DLINE_126
10
-1.4999993333
20
1.4999993333
0
VERTEX
8
PART_TOP_2DLINE_126
10
1.4999993333
20
1.4999993333
0
SEQEND
0
INSERT
2
SMOOTH_0$127
8
PART_TOP_2DLINE_126
10
-1.4999993333
20
1.4999993333
0
INSERT
2
SMOOTH_0$127
8
PART_TOP_2DLINE_126
10
1.4999993333
20
1.4999993333
0
POLYLINE
8
PART_TOP_2DLINE_126
66
1
40
0.127
41
0.127
39
11
0
VERTEX
8
PART_TOP_2DLINE_126
10
-1.4999993333
20
-1.4999993333
0
VERTEX
8
PART_TOP_2DLINE_126
10
1.4999993333
20
-1.4999993333
0
SEQEND
0
INSERT
2
SMOOTH_0$127
8
PART_TOP_2DLINE_126
10
-1.4999993333
20
-1.4999993333
0
INSERT
2
SMOOTH_0$127
8
PART_TOP_2DLINE_126
10
1.4999993333
20
-1.4999993333
0
POLYLINE
8
PART_TOP_2DLINE_127
66
1
40
0.127
41
0.127
39
11
0
VERTEX
8
PART_TOP_2DLINE_127
10
-1.4999993333
20
1.4999993333
0
VERTEX
8
PART_TOP_2DLINE_127
10
-1.4999993333
20
-1.4999993333
0
SEQEND
0
INSERT
2
SMOOTH_0$127
8
PART_TOP_2DLINE_127
10
-1.4999993333
20
1.4999993333
0
INSERT
2
SMOOTH_0$127
8
PART_TOP_2DLINE_127
10
-1.4999993333
20
-1.4999993333
0
POLYLINE
8
PART_TOP_2DLINE_127
66
1
40
0.127
41
0.127
39
11
0
VERTEX
8
PART_TOP_2DLINE_127
10
1.4999993333
20
1.4999993333
0
VERTEX
8
PART_TOP_2DLINE_127
10
1.4999993333
20
-1.4999993333
0
SEQEND
0
INSERT
2
SMOOTH_0$127
8
PART_TOP_2DLINE_127
10
1.4999993333
20
1.4999993333
0
INSERT
2
SMOOTH_0$127
8
PART_TOP_2DLINE_127
10
1.4999993333
20
-1.4999993333
0
POLYLINE
8
PART_TOP_2DLINE_120
66
1
40
0.05
41
0.05
39
11
0
VERTEX
8
PART_TOP_2DLINE_120
10
-3.1349953333
20
1.7499993333
0
VERTEX
8
PART_TOP_2DLINE_120
10
3.1349953333
20
1.7499993333
0
SEQEND
0
INSERT
2
SMOOTH_0$05
8
PART_TOP_2DLINE_120
10
-3.1349953333
20
1.7499993333
0
INSERT
2
SMOOTH_0$05
8
PART_TOP_2DLINE_120
10
3.1349953333
20
1.7499993333
0
POLYLINE
8
PART_TOP_2DLINE_120
66
1
40
0.05
41
0.05
39
11
0
VERTEX
8
PART_TOP_2DLINE_120
10
-3.1349953333
20
-1.7499993333
0
VERTEX
8
PART_TOP_2DLINE_120
10
3.1349953333
20
-1.7499993333
0
SEQEND
0
INSERT
2
SMOOTH_0$05
8
PART_TOP_2DLINE_120
10
-3.1349953333
20
-1.7499993333
0
INSERT
2
SMOOTH_0$05
8
PART_TOP_2DLINE_120
10
3.1349953333
20
-1.7499993333
0
POLYLINE
8
PART_TOP_2DLINE_120
66
1
40
0.05
41
0.05
39
11
0
VERTEX
8
PART_TOP_2DLINE_120
10
-3.1349953333
20
1.7499993333
0
VERTEX
8
PART_TOP_2DLINE_120
10
-3.1349953333
20
-1.7499993333
0
SEQEND
0
INSERT
2
SMOOTH_0$05
8
PART_TOP_2DLINE_120
10
-3.1349953333
20
1.7499993333
0
INSERT
2
SMOOTH_0$05
8
PART_TOP_2DLINE_120
10
-3.1349953333
20
-1.7499993333
0
POLYLINE
8
PART_TOP_2DLINE_120
66
1
40
0.05
41
0.05
39
11
0
VERTEX
8
PART_TOP_2DLINE_120
10
3.1349953333
20
1.7499993333
0
VERTEX
8
PART_TOP_2DLINE_120
10
3.1349953333
20
-1.7499993333
0
SEQEND
0
INSERT
2
SMOOTH_0$05
8
PART_TOP_2DLINE_120
10
3.1349953333
20
1.7499993333
0
INSERT
2
SMOOTH_0$05
8
PART_TOP_2DLINE_120
10
3.1349953333
20
-1.7499993333
0
ENDBLK
0
BLOCK
2
STK_TOP_103
8
0
10
0
20
0
3
STK_TOP_103
70
64
0
INSERT
2
DRIL_HOLE_0
8
DRIL_PLTE_THRU_01
10
0
20
0
0
INSERT
2
DRIL_HOLE_0
8
DRIL_PLTE_THRU_02
10
0
20
0
0
INSERT
2
PAD_0
8
PADS_INNER
10
0
20
0
0
INSERT
2
PAD_0
8
PADS_BOT
10
0
20
0
0
INSERT
2
PAD_15
8
PADS_XR_121
10
0
20
0
0
INSERT
2
PAD_16
8
PADS_XR_123
10
0
20
0
0
INSERT
2
PAD_17
8
PADS_TOP
10
0
20
0
0
ENDBLK
0
BLOCK
2
PART_BODY_TOP_6
8
0
10
0
20
0
3
PART_BODY_TOP_6
70
64
0
ENDBLK
0
BLOCK
2
PART_BODY_TOP_12
8
0
10
0
20
0
3
PART_BODY_TOP_12
70
64
0
POLYLINE
8
PART_TOP_2DLINE_125
66
1
40
0.1
41
0.1
70
1
0
VERTEX
8
PART_TOP_2DLINE_125
10
-8.72
20
2.57
0
VERTEX
8
PART_TOP_2DLINE_125
10
-8.72
20
-7.87
0
VERTEX
8
PART_TOP_2DLINE_125
10
8.72
20
-7.87
0
VERTEX
8
PART_TOP_2DLINE_125
10
8.72
20
2.57
0
SEQEND
0
INSERT
2
SMOOTH_0$1
8
PART_TOP_2DLINE_125
10
-8.72
20
2.57
0
INSERT
2
SMOOTH_0$1
8
PART_TOP_2DLINE_125
10
-8.72
20
-7.87
0
INSERT
2
SMOOTH_0$1
8
PART_TOP_2DLINE_125
10
8.72
20
-7.87
0
INSERT
2
SMOOTH_0$1
8
PART_TOP_2DLINE_125
10
8.72
20
2.57
0
POLYLINE
8
PART_TOP_2DLINE_126
66
1
40
0.127
41
0.127
0
VERTEX
8
PART_TOP_2DLINE_126
10
-7.45
20
1.3
0
VERTEX
8
PART_TOP_2DLINE_126
10
-7.45
20
-6.6
0
SEQEND
0
INSERT
2
SMOOTH_0$127
8
PART_TOP_2DLINE_126
10
-7.45
20
1.3
0
INSERT
2
SMOOTH_0$127
8
PART_TOP_2DLINE_126
10
-7.45
20
-6.6
0
POLYLINE
8
PART_TOP_2DLINE_126
66
1
40
0.127
41
0.127
0
VERTEX
8
PART_TOP_2DLINE_126
10
-7.45
20
-6.6
0
VERTEX
8
PART_TOP_2DLINE_126
10
7.45
20
-6.6
0
SEQEND
0
INSERT
2
SMOOTH_0$127
8
PART_TOP_2DLINE_126
10
-7.45
20
-6.6
0
INSERT
2
SMOOTH_0$127
8
PART_TOP_2DLINE_126
10
7.45
20
-6.6
0
POLYLINE
8
PART_TOP_2DLINE_126
66
1
40
0.127
41
0.127
0
VERTEX
8
PART_TOP_2DLINE_126
10
7.45
20
-6.6
0
VERTEX
8
PART_TOP_2DLINE_126
10
7.45
20
1.3
0
SEQEND
0
INSERT
2
SMOOTH_0$127
8
PART_TOP_2DLINE_126
10
7.45
20
-6.6
0
INSERT
2
SMOOTH_0$127
8
PART_TOP_2DLINE_126
10
7.45
20
1.3
0
POLYLINE
8
PART_TOP_2DLINE_126
66
1
40
0.127
41
0.127
0
VERTEX
8
PART_TOP_2DLINE_126
10
7.45
20
1.3
0
VERTEX
8
PART_TOP_2DLINE_126
10
-7.45
20
1.3
0
SEQEND
0
INSERT
2
SMOOTH_0$127
8
PART_TOP_2DLINE_126
10
7.45
20
1.3
0
INSERT
2
SMOOTH_0$127
8
PART_TOP_2DLINE_126
10
-7.45
20
1.3
0
POLYLINE
8
PART_TOP_2DLINE_127
66
1
40
0.127
41
0.127
0
VERTEX
8
PART_TOP_2DLINE_127
10
-7.45
20
-6.6
0
VERTEX
8
PART_TOP_2DLINE_127
10
7.45
20
-6.6
0
SEQEND
0
INSERT
2
SMOOTH_0$127
8
PART_TOP_2DLINE_127
10
-7.45
20
-6.6
0
INSERT
2
SMOOTH_0$127
8
PART_TOP_2DLINE_127
10
7.45
20
-6.6
0
POLYLINE
8
PART_TOP_2DLINE_127
66
1
40
0.127
41
0.127
0
VERTEX
8
PART_TOP_2DLINE_127
10
7.45
20
-6.6
0
VERTEX
8
PART_TOP_2DLINE_127
10
7.45
20
1.3
0
SEQEND
0
INSERT
2
SMOOTH_0$127
8
PART_TOP_2DLINE_127
10
7.45
20
-6.6
0
INSERT
2
SMOOTH_0$127
8
PART_TOP_2DLINE_127
10
7.45
20
1.3
0
POLYLINE
8
PART_TOP_2DLINE_127
66
1
40
0.127
41
0.127
0
VERTEX
8
PART_TOP_2DLINE_127
10
7.45
20
1.3
0
VERTEX
8
PART_TOP_2DLINE_127
10
-7.45
20
1.3
0
SEQEND
0
INSERT
2
SMOOTH_0$127
8
PART_TOP_2DLINE_127
10
7.45
20
1.3
0
INSERT
2
SMOOTH_0$127
8
PART_TOP_2DLINE_127
10
-7.45
20
1.3
0
POLYLINE
8
PART_TOP_2DLINE_127
66
1
40
0.127
41
0.127
0
VERTEX
8
PART_TOP_2DLINE_127
10
-7.45
20
1.3
0
VERTEX
8
PART_TOP_2DLINE_127
10
-7.45
20
-6.6
0
SEQEND
0
INSERT
2
SMOOTH_0$127
8
PART_TOP_2DLINE_127
10
-7.45
20
1.3
0
INSERT
2
SMOOTH_0$127
8
PART_TOP_2DLINE_127
10
-7.45
20
-6.6
0
POLYLINE
8
PART_TOP_2DLINE_126
66
1
40
0.2
41
0.2
70
1
0
VERTEX
8
PART_TOP_2DLINE_126
10
-5.508
20
3.048
0
VERTEX
8
PART_TOP_2DLINE_126
10
-4.492
20
3.048
0
VERTEX
8
PART_TOP_2DLINE_126
10
-5
20
2.286
0
SEQEND
0
INSERT
2
SMOOTH_0$2
8
PART_TOP_2DLINE_126
10
-5.508
20
3.048
0
INSERT
2
SMOOTH_0$2
8
PART_TOP_2DLINE_126
10
-4.492
20
3.048
0
INSERT
2
SMOOTH_0$2
8
PART_TOP_2DLINE_126
10
-5
20
2.286
0
ENDBLK
0
BLOCK
2
STK_TOP_102
8
0
10
0
20
0
3
STK_TOP_102
70
64
0
INSERT
2
DRIL_HOLE_0$8
8
DRIL_PLTE_THRU_01
10
0
20
0
0
INSERT
2
DRIL_HOLE_0$8
8
DRIL_PLTE_THRU_02
10
0
20
0
0
INSERT
2
PAD_18
8
PADS_INNER
10
0
20
0
0
INSERT
2
PAD_18
8
PADS_BOT
10
0
20
0
0
INSERT
2
PAD_19
8
PADS_XR_121
10
0
20
0
0
INSERT
2
PAD_19
8
PADS_XR_128
10
0
20
0
0
INSERT
2
PAD_18
8
PADS_TOP
10
0
20
0
0
ENDBLK
0
BLOCK
2
STK_TOP_101
8
0
10
0
20
0
3
STK_TOP_101
70
64
0
INSERT
2
DRIL_HOLE_0$8
8
DRIL_PLTE_THRU_01
10
0
20
0
0
INSERT
2
DRIL_HOLE_0$8
8
DRIL_PLTE_THRU_02
10
0
20
0
0
INSERT
2
PAD_20
8
PADS_INNER
10
0
20
0
0
INSERT
2
PAD_20
8
PADS_BOT
10
0
20
0
0
INSERT
2
PAD_21
8
PADS_XR_121
10
0
20
0
0
INSERT
2
PAD_21
8
PADS_XR_128
10
0
20
0
0
INSERT
2
PAD_20
8
PADS_TOP
10
0
20
0
0
ENDBLK
0
BLOCK
2
SYM_TOP_1
8
0
10
0
20
0
3
SYM_TOP_1
70
64
0
TEXT
8
SYM_NAME
10
0
20
0
40
0.7
1
STANDARDVIA
41
0.75
0
INSERT
2
PART_BODY_TOP_0
8
0
10
0
20
0
0
INSERT
2
STK_TOP_66
8
0
10
0
20
0
0
TEXT
8
SYM_TERMINAL
10
0
20
-3.048
40
1.778
1
1
0
ENDBLK
0
BLOCK
2
PART_BODY_TOP_0
8
0
10
0
20
0
3
PART_BODY_TOP_0
70
64
0
ENDBLK
0
BLOCK
2
STK_TOP_66
8
0
10
0
20
0
3
STK_TOP_66
70
64
0
INSERT
2
DRIL_HOLE_0$2
8
DRIL_PLTE_THRU_01
10
0
20
0
0
INSERT
2
DRIL_HOLE_0$2
8
DRIL_PLTE_THRU_02
10
0
20
0
0
INSERT
2
PAD_22
8
PADS_INNER
10
0
20
0
0
INSERT
2
PAD_22
8
PADS_BOT
10
0
20
0
0
INSERT
2
PAD_22
8
PADS_TOP
10
0
20
0
0
ENDBLK
999
*** POWERPCB  PCB PARAMETER ***
0
BLOCK
2
PCB_PARAMS
8
0
10
0
20
0
3
PCB_PARAMS
70
64
999
 *  1.Job name           2.Backupfile name       3.CursorType
999
 *  4.TearDropFlag       5.HighlighNetsFlag      6.HatchDisplayFlag
999
 *  7.PadsFlag           8.TracksFlag            9.ViasFlag
999
 * 10.CopperFlag        11.LinesFlag            12.TextFlag
999
 * 13.TopComponentFlag  14.BottomComponentFlag  16.ObjectSnapFlags
0
TEXT
8
PCB_PARAMS
10
0
20
-3.048
40
1.778
1
A:=ATS8754_P_H-SENSOR_MAIN_BOARD_REV1_0-230508.pcb <> 3 0 1 1 1 1 1 1 1 1 1 1 32 511 0
999
 *  1.RefDesHeight       2.RefDesWidth           3.DefaultWidth
999
 *  4.VGX                5.VGY                   6.OVR
999
 *  7.HatchGrid          8.ObjectSnapRadius
0
TEXT
8
PCB_PARAMS
10
0
20
-6.096
40
1.778
1
B:=1 0.1 0.3 0.01 0.01 0.0762 0.05 0.5
999
 *  1.ScaleFactor        2.NetAttributeFlags     3.BackupInterval
999
 *  4.WorkingLevel       5.HatchMode             6.HatchDirection
999
 *  7.ConnectionColor    8.BackgroundColor       9.ForegroundColor
999
 * 10.BoardOutlineColor
0
TEXT
8
PCB_PARAMS
10
0
20
-9.144
40
1.778
1
C:=10.109796524 10002 1 2 0 0 2 0 15 15
999
 * MitreAngle0 - MitreAngle6
0
TEXT
8
PCB_PARAMS
10
0
20
-12.192
40
1.778
1
D:=324000000 324000000 324000000 324000000 324000000 324000000 162000000
999
 * Hatch & Keepout Parameters
0
TEXT
8
PCB_PARAMS
10
0
20
-15.24
40
1.778
1
E:=0.5 0 0 2.5 0.5 1
999
 * Fanout Parameters
0
TEXT
8
PCB_PARAMS
10
0
20
-18.288
40
1.778
1
F:=0.25 0.25 6.35 1 2 0 1 1 0 0 1 1 1 1
999
 * Pad Entry Parameters
0
TEXT
8
PCB_PARAMS
10
0
20
-21.336
40
1.778
1
P:= 1 1 1 1
999
 * DFF Parameters
0
TEXT
8
PCB_PARAMS
10
0
20
-24.384
40
1.778
1
Q:=89.9999 3967 114300 114300 114300 5 4 114300 114300 114300 114300 1 114300 1 114300 1 114300 0
0
ENDBLK
0
BLOCK
2
DRIL_SYMBOL_0
8
0
10
0
20
0
3
DRIL_SYMBOL_0
70
64
0
ENDBLK
0
BLOCK
2
DRIL_SYMBOL_0$75
8
0
10
0
20
0
3
DRIL_SYMBOL_0$75
70
64
0
POLYLINE
8
DRIL_SYMBOL
66
1
40
0.0508
41
0.0508
0
VERTEX
8
DRIL_SYMBOL
10
0
20
-0.254
0
VERTEX
8
DRIL_SYMBOL
10
0
20
0.254
0
SEQEND
0
POLYLINE
8
DRIL_SYMBOL
66
1
40
0.0508
41
0.0508
0
VERTEX
8
DRIL_SYMBOL
10
-0.254
20
0
0
VERTEX
8
DRIL_SYMBOL
10
0.254
20
0
0
SEQEND
0
ENDBLK
0
BLOCK
2
DRIL_SYMBOL_0$8
8
0
10
0
20
0
3
DRIL_SYMBOL_0$8
70
64
0
POLYLINE
8
DRIL_SYMBOL
66
1
40
0.0508
41
0.0508
0
VERTEX
8
DRIL_SYMBOL
10
0
20
-0.254
0
VERTEX
8
DRIL_SYMBOL
10
0
20
0.254
0
SEQEND
0
POLYLINE
8
DRIL_SYMBOL
66
1
40
0.0508
41
0.0508
0
VERTEX
8
DRIL_SYMBOL
10
-0.254
20
0
0
VERTEX
8
DRIL_SYMBOL
10
0.254
20
0
0
SEQEND
0
ENDBLK
0
BLOCK
2
DRIL_SYMBOL_0$2
8
0
10
0
20
0
3
DRIL_SYMBOL_0$2
70
64
0
POLYLINE
8
DRIL_SYMBOL
66
1
40
0.0508
41
0.0508
0
VERTEX
8
DRIL_SYMBOL
10
0
20
-0.254
0
VERTEX
8
DRIL_SYMBOL
10
0
20
0.254
0
SEQEND
0
POLYLINE
8
DRIL_SYMBOL
66
1
40
0.0508
41
0.0508
0
VERTEX
8
DRIL_SYMBOL
10
-0.254
20
0
0
VERTEX
8
DRIL_SYMBOL
10
0.254
20
0
0
SEQEND
0
ENDBLK
999
*** POWERPCB  SMOOTH CIRCLE ***
0
BLOCK
2
SMOOTH_0$09
8
0
10
0
20
0
3
SMOOTH_0$09
70
64
0
POLYLINE
8
0
66
1
40
0.045
41
0.045
70
1
0
VERTEX
8
0
10
-0.0225
20
0
42
1
0
VERTEX
8
0
10
0.0225
20
0
42
1
0
SEQEND
0
ENDBLK
0
BLOCK
2
SMOOTH_0$0254
8
0
10
0
20
0
3
SMOOTH_0$0254
70
64
0
POLYLINE
8
0
66
1
40
0.0127
41
0.0127
70
1
0
VERTEX
8
0
10
-0.00635
20
0
42
1
0
VERTEX
8
0
10
0.00635
20
0
42
1
0
SEQEND
0
ENDBLK
0
BLOCK
2
SMOOTH_0$6
8
0
10
0
20
0
3
SMOOTH_0$6
70
64
0
POLYLINE
8
0
66
1
40
0.3
41
0.3
70
1
0
VERTEX
8
0
10
-0.15
20
0
42
1
0
VERTEX
8
0
10
0.15
20
0
42
1
0
SEQEND
0
ENDBLK
0
BLOCK
2
SMOOTH_0$3
8
0
10
0
20
0
3
SMOOTH_0$3
70
64
0
POLYLINE
8
0
66
1
40
0.15
41
0.15
70
1
0
VERTEX
8
0
10
-0.075
20
0
42
1
0
VERTEX
8
0
10
0.075
20
0
42
1
0
SEQEND
0
ENDBLK
0
BLOCK
2
SMOOTH_0$85
8
0
10
0
20
0
3
SMOOTH_0$85
70
64
0
POLYLINE
8
0
66
1
40
0.425
41
0.425
70
1
0
VERTEX
8
0
10
-0.2125
20
0
42
1
0
VERTEX
8
0
10
0.2125
20
0
42
1
0
SEQEND
0
ENDBLK
0
BLOCK
2
SMOOTH_0$1524
8
0
10
0
20
0
3
SMOOTH_0$1524
70
64
0
POLYLINE
8
0
66
1
40
0.0762
41
0.0762
70
1
0
VERTEX
8
0
10
-0.0381
20
0
42
1
0
VERTEX
8
0
10
0.0381
20
0
42
1
0
SEQEND
0
ENDBLK
0
BLOCK
2
SMOOTH_0$127
8
0
10
0
20
0
3
SMOOTH_0$127
70
64
0
POLYLINE
8
0
66
1
40
0.0635
41
0.0635
70
1
0
VERTEX
8
0
10
-0.03175
20
0
42
1
0
VERTEX
8
0
10
0.03175
20
0
42
1
0
SEQEND
0
ENDBLK
0
BLOCK
2
SMOOTH_0$05
8
0
10
0
20
0
3
SMOOTH_0$05
70
64
0
POLYLINE
8
0
66
1
40
0.025
41
0.025
70
1
0
VERTEX
8
0
10
-0.0125
20
0
42
1
0
VERTEX
8
0
10
0.0125
20
0
42
1
0
SEQEND
0
ENDBLK
0
BLOCK
2
SMOOTH_0$1
8
0
10
0
20
0
3
SMOOTH_0$1
70
64
0
POLYLINE
8
0
66
1
40
0.05
41
0.05
70
1
0
VERTEX
8
0
10
-0.025
20
0
42
1
0
VERTEX
8
0
10
0.025
20
0
42
1
0
SEQEND
0
ENDBLK
0
BLOCK
2
SMOOTH_0$2
8
0
10
0
20
0
3
SMOOTH_0$2
70
64
0
POLYLINE
8
0
66
1
40
0.1
41
0.1
70
1
0
VERTEX
8
0
10
-0.05
20
0
42
1
0
VERTEX
8
0
10
0.05
20
0
42
1
0
SEQEND
0
ENDBLK
0
BLOCK
2
PAD_0
8
0
10
0
20
0
3
PAD_0
70
64
0
POLYLINE
8
0
70
1
66
1
0
VERTEX
8
0
10
0
20
0
42
1
0
VERTEX
8
0
10
0
20
0
42
1
0
SEQEND
0
ENDBLK
0
BLOCK
2
PAD_1
8
0
10
0
20
0
3
PAD_1
70
64
0
POLYLINE
8
0
70
1
66
1
0
VERTEX
8
0
10
-0.9884886667
20
-0.3979493333
0
VERTEX
8
0
10
0.9884886667
20
-0.3979493333
42
0.4142135624
0
VERTEX
8
0
10
1.0879506667
20
-0.2984873333
0
VERTEX
8
0
10
1.0879506667
20
0.2984873333
42
0.4142135624
0
VERTEX
8
0
10
0.9884886667
20
0.3979493333
0
VERTEX
8
0
10
-0.9884886667
20
0.3979493333
42
0.4142135624
0
VERTEX
8
0
10
-1.0879506667
20
0.2984873333
0
VERTEX
8
0
10
-1.0879506667
20
-0.2984873333
42
0.4142135624
0
SEQEND
0
ENDBLK
0
BLOCK
2
PAD_2
8
0
10
0
20
0
3
PAD_2
70
64
0
POLYLINE
8
0
70
1
66
1
0
VERTEX
8
0
10
-0.911276
20
-0.2949993333
0
VERTEX
8
0
10
0.911276
20
-0.2949993333
42
0.4142135624
0
VERTEX
8
0
10
0.9850006667
20
-0.2212746667
0
VERTEX
8
0
10
0.9850006667
20
0.2212746667
42
0.4142135624
0
VERTEX
8
0
10
0.911276
20
0.2949993333
0
VERTEX
8
0
10
-0.911276
20
0.2949993333
42
0.4142135624
0
VERTEX
8
0
10
-0.9850006667
20
0.2212746667
0
VERTEX
8
0
10
-0.9850006667
20
-0.2212746667
42
0.4142135624
0
SEQEND
0
ENDBLK
0
BLOCK
2
PAD_3
8
0
10
0
20
0
3
PAD_3
70
64
0
POLYLINE
8
0
70
1
66
1
0
VERTEX
8
0
10
-0.9113406667
20
-0.2949993333
0
VERTEX
8
0
10
0.9113406667
20
-0.2949993333
42
0.4142135624
0
VERTEX
8
0
10
0.9850006667
20
-0.2213393333
0
VERTEX
8
0
10
0.9850006667
20
0.2213393333
42
0.4142135624
0
VERTEX
8
0
10
0.9113406667
20
0.2949993333
0
VERTEX
8
0
10
-0.9113406667
20
0.2949993333
42
0.4142135624
0
VERTEX
8
0
10
-0.9850006667
20
0.2213393333
0
VERTEX
8
0
10
-0.9850006667
20
-0.2213393333
42
0.4142135624
0
SEQEND
0
ENDBLK
0
BLOCK
2
PAD_4
8
0
10
0
20
0
3
PAD_4
70
64
0
POLYLINE
8
0
70
1
66
1
0
VERTEX
8
0
10
-0.9872386667
20
-0.4029493333
0
VERTEX
8
0
10
0.9872386667
20
-0.4029493333
42
0.4142135624
0
VERTEX
8
0
10
1.0879506667
20
-0.3022373333
0
VERTEX
8
0
10
1.0879506667
20
0.3022373333
42
0.4142135624
0
VERTEX
8
0
10
0.9872386667
20
0.4029493333
0
VERTEX
8
0
10
-0.9872386667
20
0.4029493333
42
0.4142135624
0
VERTEX
8
0
10
-1.0879506667
20
0.3022373333
0
VERTEX
8
0
10
-1.0879506667
20
-0.3022373333
42
0.4142135624
0
SEQEND
0
ENDBLK
0
BLOCK
2
PAD_5
8
0
10
0
20
0
3
PAD_5
70
64
0
POLYLINE
8
0
70
1
66
1
0
VERTEX
8
0
10
-0.910026
20
-0.2999993333
0
VERTEX
8
0
10
0.910026
20
-0.2999993333
42
0.4142135624
0
VERTEX
8
0
10
0.9850006667
20
-0.2250246667
0
VERTEX
8
0
10
0.9850006667
20
0.2250246667
42
0.4142135624
0
VERTEX
8
0
10
0.910026
20
0.2999993333
0
VERTEX
8
0
10
-0.910026
20
0.2999993333
42
0.4142135624
0
VERTEX
8
0
10
-0.9850006667
20
0.2250246667
0
VERTEX
8
0
10
-0.9850006667
20
-0.2250246667
42
0.4142135624
0
SEQEND
0
ENDBLK
0
BLOCK
2
PAD_6
8
0
10
0
20
0
3
PAD_6
70
64
0
POLYLINE
8
0
70
1
66
1
0
VERTEX
8
0
10
-0.9100706667
20
-0.2999993333
0
VERTEX
8
0
10
0.9100706667
20
-0.2999993333
42
0.4142135624
0
VERTEX
8
0
10
0.9850006667
20
-0.2250693333
0
VERTEX
8
0
10
0.9850006667
20
0.2250693333
42
0.4142135624
0
VERTEX
8
0
10
0.9100706667
20
0.2999993333
0
VERTEX
8
0
10
-0.9100706667
20
0.2999993333
42
0.4142135624
0
VERTEX
8
0
10
-0.9850006667
20
0.2250693333
0
VERTEX
8
0
10
-0.9850006667
20
-0.2250693333
42
0.4142135624
0
SEQEND
0
ENDBLK
0
BLOCK
2
PAD_7
8
0
10
0
20
0
3
PAD_7
70
64
0
POLYLINE
8
0
70
1
66
1
0
VERTEX
8
0
10
-0.7784873333
20
-0.71795
0
VERTEX
8
0
10
0.7784873333
20
-0.71795
42
0.4142135624
0
VERTEX
8
0
10
0.9579493333
20
-0.538488
0
VERTEX
8
0
10
0.9579493333
20
0.538488
42
0.4142135624
0
VERTEX
8
0
10
0.7784873333
20
0.71795
0
VERTEX
8
0
10
-0.7784873333
20
0.71795
42
0.4142135624
0
VERTEX
8
0
10
-0.9579493333
20
0.538488
0
VERTEX
8
0
10
-0.9579493333
20
-0.538488
42
0.4142135624
0
SEQEND
0
ENDBLK
0
BLOCK
2
PAD_8
8
0
10
0
20
0
3
PAD_8
70
64
0
POLYLINE
8
0
70
1
66
1
0
VERTEX
8
0
10
-0.7012746667
20
-0.615
0
VERTEX
8
0
10
0.7012746667
20
-0.615
42
0.4142135624
0
VERTEX
8
0
10
0.8549993333
20
-0.4612753333
0
VERTEX
8
0
10
0.8549993333
20
0.4612753333
42
0.4142135624
0
VERTEX
8
0
10
0.7012746667
20
0.615
0
VERTEX
8
0
10
-0.7012746667
20
0.615
42
0.4142135624
0
VERTEX
8
0
10
-0.8549993333
20
0.4612753333
0
VERTEX
8
0
10
-0.8549993333
20
-0.4612753333
42
0.4142135624
0
SEQEND
0
ENDBLK
0
BLOCK
2
PAD_9
8
0
10
0
20
0
3
PAD_9
70
64
0
POLYLINE
8
0
70
1
66
1
0
VERTEX
8
0
10
-0.7013293333
20
-0.615
0
VERTEX
8
0
10
0.7013293333
20
-0.615
42
0.4142135624
0
VERTEX
8
0
10
0.8549993333
20
-0.46133
0
VERTEX
8
0
10
0.8549993333
20
0.46133
42
0.4142135624
0
VERTEX
8
0
10
0.7013293333
20
0.615
0
VERTEX
8
0
10
-0.7013293333
20
0.615
42
0.4142135624
0
VERTEX
8
0
10
-0.8549993333
20
0.46133
0
VERTEX
8
0
10
-0.8549993333
20
-0.46133
42
0.4142135624
0
SEQEND
0
ENDBLK
0
BLOCK
2
PAD_10
8
0
10
0
20
0
3
PAD_10
70
64
0
POLYLINE
8
0
66
1
40
1.0959006667
41
1.0959006667
0
VERTEX
8
0
10
-0.56795
20
0
0
VERTEX
8
0
10
0.56795
20
0
0
SEQEND
0
ENDBLK
0
BLOCK
2
PAD_11
8
0
10
0
20
0
3
PAD_11
70
64
0
POLYLINE
8
0
66
1
40
0.8900006667
41
0.8900006667
0
VERTEX
8
0
10
-0.465
20
0
0
VERTEX
8
0
10
0.465
20
0
0
SEQEND
0
ENDBLK
0
BLOCK
2
PAD_12
8
0
10
0
20
0
3
PAD_12
70
64
0
POLYLINE
8
0
66
1
40
1.0759006667
41
1.0759006667
0
VERTEX
8
0
10
-0.56795
20
0
0
VERTEX
8
0
10
0.56795
20
0
0
SEQEND
0
ENDBLK
0
BLOCK
2
PAD_13
8
0
10
0
20
0
3
PAD_13
70
64
0
POLYLINE
8
0
66
1
40
0.8700006667
41
0.8700006667
0
VERTEX
8
0
10
-0.465
20
0
0
VERTEX
8
0
10
0.465
20
0
0
SEQEND
0
ENDBLK
0
BLOCK
2
PAD_14
8
0
10
0
20
0
3
PAD_14
70
64
0
POLYLINE
8
0
70
1
66
1
40
0.629
41
0.629
0
VERTEX
8
0
10
0
20
-0.3145
42
1
0
VERTEX
8
0
10
0
20
0.3145
42
1
0
SEQEND
0
ENDBLK
0
BLOCK
2
PAD_15
8
0
10
0
20
0
3
PAD_15
70
64
0
POLYLINE
8
0
70
1
66
1
0
VERTEX
8
0
10
-0.7772373333
20
-0.2429493333
0
VERTEX
8
0
10
0.7772373333
20
-0.2429493333
42
0.4142135624
0
VERTEX
8
0
10
0.8379493333
20
-0.1822373333
0
VERTEX
8
0
10
0.8379493333
20
0.1822373333
42
0.4142135624
0
VERTEX
8
0
10
0.7772373333
20
0.2429493333
0
VERTEX
8
0
10
-0.7772373333
20
0.2429493333
42
0.4142135624
0
VERTEX
8
0
10
-0.8379493333
20
0.1822373333
0
VERTEX
8
0
10
-0.8379493333
20
-0.1822373333
42
0.4142135624
0
SEQEND
0
ENDBLK
0
BLOCK
2
PAD_16
8
0
10
0
20
0
3
PAD_16
70
64
0
POLYLINE
8
0
70
1
66
1
0
VERTEX
8
0
10
-0.7000246667
20
-0.1399993333
0
VERTEX
8
0
10
0.7000246667
20
-0.1399993333
42
0.4142135624
0
VERTEX
8
0
10
0.7349993333
20
-0.1050246667
0
VERTEX
8
0
10
0.7349993333
20
0.1050246667
42
0.4142135624
0
VERTEX
8
0
10
0.7000246667
20
0.1399993333
0
VERTEX
8
0
10
-0.7000246667
20
0.1399993333
42
0.4142135624
0
VERTEX
8
0
10
-0.7349993333
20
0.1050246667
0
VERTEX
8
0
10
-0.7349993333
20
-0.1050246667
42
0.4142135624
0
SEQEND
0
ENDBLK
0
BLOCK
2
PAD_17
8
0
10
0
20
0
3
PAD_17
70
64
0
POLYLINE
8
0
70
1
66
1
0
VERTEX
8
0
10
-0.6999473333
20
-0.1399993333
0
VERTEX
8
0
10
0.6999473333
20
-0.1399993333
42
0.4142135624
0
VERTEX
8
0
10
0.7349993333
20
-0.1049473333
0
VERTEX
8
0
10
0.7349993333
20
0.1049473333
42
0.4142135624
0
VERTEX
8
0
10
0.6999473333
20
0.1399993333
0
VERTEX
8
0
10
-0.6999473333
20
0.1399993333
42
0.4142135624
0
VERTEX
8
0
10
-0.7349993333
20
0.1049473333
0
VERTEX
8
0
10
-0.7349993333
20
-0.1049473333
42
0.4142135624
0
SEQEND
0
ENDBLK
0
BLOCK
2
PAD_18
8
0
10
0
20
0
3
PAD_18
70
64
0
POLYLINE
8
0
66
1
40
1.15
41
1.15
0
VERTEX
8
0
10
-0.575
20
0
0
VERTEX
8
0
10
0.575
20
0
0
SEQEND
0
ENDBLK
0
BLOCK
2
PAD_19
8
0
10
0
20
0
3
PAD_19
70
64
0
POLYLINE
8
0
66
1
40
1.302
41
1.302
0
VERTEX
8
0
10
-0.651
20
0
0
VERTEX
8
0
10
0.651
20
0
0
SEQEND
0
ENDBLK
0
BLOCK
2
PAD_20
8
0
10
0
20
0
3
PAD_20
70
64
0
POLYLINE
8
0
70
1
66
1
40
0.575
41
0.575
0
VERTEX
8
0
10
0
20
-0.2875
42
1
0
VERTEX
8
0
10
0
20
0.2875
42
1
0
SEQEND
0
ENDBLK
0
BLOCK
2
PAD_21
8
0
10
0
20
0
3
PAD_21
70
64
0
POLYLINE
8
0
70
1
66
1
40
0.651
41
0.651
0
VERTEX
8
0
10
0
20
-0.3255
42
1
0
VERTEX
8
0
10
0
20
0.3255
42
1
0
SEQEND
0
ENDBLK
0
BLOCK
2
PAD_22
8
0
10
0
20
0
3
PAD_22
70
64
0
POLYLINE
8
0
70
1
66
1
40
0.2
41
0.2
0
VERTEX
8
0
10
0
20
-0.1
42
1
0
VERTEX
8
0
10
0
20
0.1
42
1
0
SEQEND
0
ENDBLK
999
*** POWERPCB  DRILL HOLE ***
0
BLOCK
2
DRIL_HOLE_0
8
0
10
0
20
0
3
DRIL_HOLE_0
70
64
0
POLYLINE
8
0
66
1
70
1
0
VERTEX
8
0
10
0
20
0
42
1
0
VERTEX
8
0
10
0
20
0
42
1
0
SEQEND
0
INSERT
2
DRIL_SYMBOL_0
8
0
10
0
20
0
0
ENDBLK
0
BLOCK
2
DRIL_HOLE_0$75
8
0
10
0
20
0
3
DRIL_HOLE_0$75
70
64
0
POLYLINE
8
0
66
1
40
0.375
41
0.375
70
1
0
VERTEX
8
0
10
-0.1875
20
0
42
1
0
VERTEX
8
0
10
0.1875
20
0
42
1
0
SEQEND
0
INSERT
2
DRIL_SYMBOL_0$75
8
0
10
0
20
0
0
ENDBLK
0
BLOCK
2
DRIL_HOLE_0$8
8
0
10
0
20
0
3
DRIL_HOLE_0$8
70
64
0
POLYLINE
8
0
66
1
40
0.4
41
0.4
70
1
0
VERTEX
8
0
10
-0.2
20
0
42
1
0
VERTEX
8
0
10
0.2
20
0
42
1
0
SEQEND
0
INSERT
2
DRIL_SYMBOL_0$8
8
0
10
0
20
0
0
ENDBLK
0
BLOCK
2
DRIL_HOLE_0$2
8
0
10
0
20
0
3
DRIL_HOLE_0$2
70
64
0
POLYLINE
8
0
66
1
40
0.1
41
0.1
70
1
0
VERTEX
8
0
10
-0.05
20
0
42
1
0
VERTEX
8
0
10
0.05
20
0
42
1
0
SEQEND
0
INSERT
2
DRIL_SYMBOL_0$2
8
0
10
0
20
0
0
ENDBLK
0
ENDSEC
0
SECTION
2
ENTITIES
999
*** POWERPCB  DBLAYER ***
0
INSERT
2
DBLAYERS
8
0
10
0
20
0
999
*** POWERPCB  BOARD ***
0
INSERT
2
BOARD_11
8
0
10
-267.577
20
-9.376
999
*** POWERPCB  2DLINE ***
0
INSERT
2
DRAWING_13
8
0
10
-220.0769993333
20
-14.776
999
*** POWERPCB  COPPER ***
999
*** POWERPCB  FREE TEXT ***
999
*** POWERPCB  COPPER PLANE ***
999
*** POWERPCB  COMPONENT ***
0
INSERT
2
PART_TOP_0
8
0
10
-161.99
20
-35.0026666667
0
INSERT
2
PART_TOP_1
8
0
10
-184
20
-44.75
50
180
0
INSERT
2
PART_TOP_2
8
0
10
-168.7263333333
20
-35.5686666667
50
270
0
INSERT
2
PART_TOP_3
8
0
10
-159.5036666667
20
-41.9526666667
50
270
0
INSERT
2
PART_TOP_4
8
0
10
-160.53
20
-21.69
0
INSERT
2
PART_TOP_5
8
0
10
-172.53
20
-21.69
0
INSERT
2
PART_TOP_6
8
0
10
-172.53
20
-24.19
0
INSERT
2
PART_TOP_7
8
0
10
-172.53
20
-26.69
0
INSERT
2
PART_TOP_8
8
0
10
-176.6923333333
20
-34.011
0
INSERT
2
PART_TOP_9
8
0
10
-160.53
20
-24.19
0
INSERT
2
PART_TOP_10
8
0
10
-176.53
20
-21.69
0
INSERT
2
PART_TOP_11
8
0
10
-176.53
20
-24.19
0
INSERT
2
PART_TOP_12
8
0
10
-191.03
20
-20.34
0
INSERT
2
PART_TOP_13
8
0
10
-164.4769
20
-10.890778
50
180
0
INSERT
2
PART_TOP_14
8
0
10
-184.53
20
-24.19
0
INSERT
2
PART_TOP_15
8
0
10
-184.2233333333
20
-6.307
50
180
0
INSERT
2
PART_TOP_16
8
0
10
-184.2233013333
20
-4.807042
50
180
0
INSERT
2
PART_TOP_17
8
0
10
-184.2233013333
20
-3.306918
50
180
0
INSERT
2
PART_TOP_18
8
0
10
-184.2233013333
20
-1.807048
50
180
0
INSERT
2
PART_TOP_19
8
0
10
-164.477
20
-8.389
50
180
0
INSERT
2
PART_TOP_20
8
0
10
-216.0769746667
20
-27.8359873333
50
270
0
INSERT
2
PART_TOP_21
8
0
10
-188.6416666667
20
-12.1913333333
0
INSERT
2
PART_TOP_22
8
0
10
-255.978
20
-21.6936666667
0
INSERT
2
PART_TOP_23
8
0
10
-254.5
20
-32
50
270
0
INSERT
2
PART_TOP_24
8
0
10
-253
20
-32
50
270
0
INSERT
2
PART_TOP_25
8
0
10
-262.5
20
-25
0
INSERT
2
PART_TOP_26
8
0
10
-262.5
20
-26.5
0
INSERT
2
PART_TOP_27
8
0
10
-250.5
20
-21.5
50
180
0
INSERT
2
PART_TOP_28
8
0
10
-250.5
20
-20
50
180
0
INSERT
2
PART_TOP_29
8
0
10
-243.5
20
-19
0
INSERT
2
PART_TOP_30
8
0
10
-243.5
20
-20.5
0
INSERT
2
PART_TOP_31
8
0
10
-248.5769746667
20
-29.1059873333
50
270
0
INSERT
2
PART_TOP_32
8
0
10
-241.5
20
-25
0
INSERT
2
PART_TOP_33
8
0
10
-261.111
20
-31.2496666667
50
90
0
INSERT
2
PART_TOP_34
8
0
10
-256
20
-32
50
270
0
INSERT
2
PART_TOP_35
8
0
10
-259.5
20
-25
50
180
0
INSERT
2
PART_TOP_36
8
0
10
-264.5
20
-23.5
50
180
0
INSERT
2
PART_TOP_37
8
0
10
-264.5
20
-22
50
180
0
INSERT
2
PART_TOP_38
8
0
10
-264.5
20
-20.5
50
180
0
INSERT
2
PART_TOP_39
8
0
10
-264.5
20
-19
50
180
0
INSERT
2
PART_TOP_40
8
0
10
-255.8516666667
20
-17.2016666667
50
180
0
INSERT
2
PART_TOP_41
8
0
10
-251.8013333333
20
-17.2016666667
0
INSERT
2
PART_TOP_42
8
0
10
-253
20
-28.5
50
270
0
INSERT
2
PART_TOP_43
8
0
10
-247.5
20
-25
50
270
0
INSERT
2
PART_TOP_44
8
0
10
-240.5
20
-30
50
180
0
INSERT
2
PART_TOP_45
8
0
10
-218.8270006667
20
-13.976
50
180
0
INSERT
2
PART_TOP_46
8
0
10
-251.3269993333
20
-13.976
50
180
999
*** POWERPCB  LINK/TRACE ***
0
POLYLINE
8
TRACE_02
6
SIG_2
66
1
40
0.6
41
0.6
0
VERTEX
8
TRACE_02
10
-239.15
20
-32.483
0
VERTEX
8
TRACE_02
10
-239.15
20
-27.89
0
VERTEX
8
TRACE_02
10
-241.546
20
-25.494
0
VERTEX
8
TRACE_02
10
-242.05
20
-24.99
0
VERTEX
8
TRACE_02
10
-255.47
20
-24.99
0
SEQEND
0
INSERT
2
SMOOTH_0$6
8
TRACE_02
10
-239.15
20
-32.483
0
INSERT
2
SMOOTH_0$6
8
TRACE_02
10
-239.15
20
-27.89
0
INSERT
2
SMOOTH_0$6
8
TRACE_02
10
-241.546
20
-25.494
0
POLYLINE
8
TRACE_01
6
SIG_2
66
1
40
0.6
41
0.6
0
VERTEX
8
TRACE_01
10
-239.15
20
-32.483
0
VERTEX
8
TRACE_01
10
-239.15
20
-30
0
SEQEND
0
INSERT
2
SMOOTH_0$6
8
TRACE_01
10
-239.15
20
-32.483
0
INSERT
2
SMOOTH_0$6
8
TRACE_01
10
-239.15
20
-30
0
POLYLINE
8
TRACE_01
6
SIG_2
66
1
40
0.6
41
0.6
0
VERTEX
8
TRACE_01
10
-258.7199993333
20
-25
0
VERTEX
8
TRACE_01
10
-258.7099993333
20
-24.99
0
VERTEX
8
TRACE_01
10
-255.47
20
-24.99
0
SEQEND
0
INSERT
2
SMOOTH_0$6
8
TRACE_01
10
-258.7199993333
20
-25
0
INSERT
2
SMOOTH_0$6
8
TRACE_01
10
-258.7099993333
20
-24.99
0
INSERT
2
SMOOTH_0$6
8
TRACE_01
10
-255.47
20
-24.99
0
POLYLINE
8
TRACE_01
6
SIG_2
66
1
40
0.6
41
0.6
0
VERTEX
8
TRACE_01
10
-239.15
20
-30
0
VERTEX
8
TRACE_01
10
-239.15
20
-27.0299986667
0
VERTEX
8
TRACE_01
10
-239.0250013333
20
-26.905
0
SEQEND
0
INSERT
2
SMOOTH_0$6
8
TRACE_01
10
-239.15
20
-30
0
INSERT
2
SMOOTH_0$6
8
TRACE_01
10
-239.15
20
-27.0299986667
0
INSERT
2
SMOOTH_0$6
8
TRACE_01
10
-239.0250013333
20
-26.905
0
POLYLINE
8
TRACE_01
6
SIG_3
66
1
40
0.3
41
0.3
0
VERTEX
8
TRACE_01
10
-256.3269993333
20
-14.839
0
VERTEX
8
TRACE_01
10
-255.071666
20
-16.094
0
VERTEX
8
TRACE_01
10
-255.071666
20
-17.2016666667
0
SEQEND
0
INSERT
2
SMOOTH_0$3
8
TRACE_01
10
-256.3269993333
20
-14.839
0
INSERT
2
SMOOTH_0$3
8
TRACE_01
10
-255.071666
20
-16.094
0
INSERT
2
SMOOTH_0$3
8
TRACE_01
10
-255.071666
20
-17.2016666667
0
POLYLINE
8
TRACE_01
6
SIG_3
66
1
40
0.3
41
0.3
0
VERTEX
8
TRACE_01
10
-263.7199993333
20
-20.5
0
VERTEX
8
TRACE_01
10
-262
20
-20.5
0
VERTEX
8
TRACE_01
10
-256.339
20
-14.839
0
VERTEX
8
TRACE_01
10
-256.3269993333
20
-14.839
0
SEQEND
0
INSERT
2
SMOOTH_0$3
8
TRACE_01
10
-263.7199993333
20
-20.5
0
INSERT
2
SMOOTH_0$3
8
TRACE_01
10
-262
20
-20.5
0
INSERT
2
SMOOTH_0$3
8
TRACE_01
10
-256.339
20
-14.839
0
INSERT
2
SMOOTH_0$3
8
TRACE_01
10
-256.3269993333
20
-14.839
0
POLYLINE
8
TRACE_01
6
SIG_3
66
1
40
0.3
41
0.3
0
VERTEX
8
TRACE_01
10
-255.071666
20
-17.2016666667
0
VERTEX
8
TRACE_01
10
-255.069
20
-17.2043326667
0
VERTEX
8
TRACE_01
10
-255.069
20
-20.915
0
VERTEX
8
TRACE_01
10
-254.7903326667
20
-21.1936673333
0
VERTEX
8
TRACE_01
10
-253.8279993333
20
-21.1936673333
0
SEQEND
0
INSERT
2
SMOOTH_0$3
8
TRACE_01
10
-255.071666
20
-17.2016666667
0
INSERT
2
SMOOTH_0$3
8
TRACE_01
10
-255.069
20
-17.2043326667
0
INSERT
2
SMOOTH_0$3
8
TRACE_01
10
-255.069
20
-20.915
0
INSERT
2
SMOOTH_0$3
8
TRACE_01
10
-254.7903326667
20
-21.1936673333
0
INSERT
2
SMOOTH_0$3
8
TRACE_01
10
-253.8279993333
20
-21.1936673333
0
POLYLINE
8
TRACE_01
6
SIG_3
66
1
40
0.3
41
0.3
0
VERTEX
8
TRACE_01
10
-256.3269993333
20
-13.976
0
VERTEX
8
TRACE_01
10
-256.3269993333
20
-14.839
0
SEQEND
0
INSERT
2
SMOOTH_0$3
8
TRACE_01
10
-256.3269993333
20
-13.976
0
INSERT
2
SMOOTH_0$3
8
TRACE_01
10
-256.3269993333
20
-14.839
0
POLYLINE
8
TRACE_01
6
SIG_6
66
1
40
0.85
41
0.85
0
VERTEX
8
TRACE_01
10
-256
20
-32.7800006667
0
VERTEX
8
TRACE_01
10
-255.9900006667
20
-32.7700013333
0
VERTEX
8
TRACE_01
10
-254.5
20
-32.7700013333
0
SEQEND
0
INSERT
2
SMOOTH_0$85
8
TRACE_01
10
-256
20
-32.7800006667
0
INSERT
2
SMOOTH_0$85
8
TRACE_01
10
-255.9900006667
20
-32.7700013333
0
INSERT
2
SMOOTH_0$85
8
TRACE_01
10
-254.5
20
-32.7700013333
0
POLYLINE
8
TRACE_01
6
SIG_6
66
1
40
0.6
41
0.6
0
VERTEX
8
TRACE_01
10
-261.746
20
-33.7196666667
0
VERTEX
8
TRACE_01
10
-261.746
20
-35.273
0
VERTEX
8
TRACE_01
10
-260.565
20
-36.454
0
VERTEX
8
TRACE_01
10
-258.198
20
-36.454
0
VERTEX
8
TRACE_01
10
-256.018
20
-34.274
0
VERTEX
8
TRACE_01
10
-256.018
20
-32.7980006667
0
VERTEX
8
TRACE_01
10
-256
20
-32.7800006667
0
SEQEND
0
INSERT
2
SMOOTH_0$6
8
TRACE_01
10
-261.746
20
-33.7196666667
0
INSERT
2
SMOOTH_0$6
8
TRACE_01
10
-261.746
20
-35.273
0
INSERT
2
SMOOTH_0$6
8
TRACE_01
10
-260.565
20
-36.454
0
INSERT
2
SMOOTH_0$6
8
TRACE_01
10
-258.198
20
-36.454
0
INSERT
2
SMOOTH_0$6
8
TRACE_01
10
-256.018
20
-34.274
0
INSERT
2
SMOOTH_0$6
8
TRACE_01
10
-256.018
20
-32.7980006667
0
INSERT
2
SMOOTH_0$6
8
TRACE_01
10
-256
20
-32.7800006667
0
POLYLINE
8
TRACE_01
6
SIG_6
66
1
40
0.85
41
0.85
0
VERTEX
8
TRACE_01
10
-253
20
-32.7700013333
0
VERTEX
8
TRACE_01
10
-249.7009886667
20
-32.7700013333
0
VERTEX
8
TRACE_01
10
-248.5769746667
20
-31.6459873333
0
SEQEND
0
INSERT
2
SMOOTH_0$85
8
TRACE_01
10
-253
20
-32.7700013333
0
INSERT
2
SMOOTH_0$85
8
TRACE_01
10
-249.7009886667
20
-32.7700013333
0
INSERT
2
SMOOTH_0$85
8
TRACE_01
10
-248.5769746667
20
-31.6459873333
0
POLYLINE
8
TRACE_01
6
SIG_6
66
1
40
0.85
41
0.85
0
VERTEX
8
TRACE_01
10
-254.5
20
-32.7700013333
0
VERTEX
8
TRACE_01
10
-253
20
-32.7700013333
0
SEQEND
0
INSERT
2
SMOOTH_0$85
8
TRACE_01
10
-254.5
20
-32.7700013333
0
INSERT
2
SMOOTH_0$85
8
TRACE_01
10
-253
20
-32.7700013333
0
POLYLINE
8
TRACE_01
6
SIG_7
66
1
40
0.3
41
0.3
0
VERTEX
8
TRACE_01
10
-260.2800006667
20
-25
0
VERTEX
8
TRACE_01
10
-260.2800006667
20
-23.1700006667
0
VERTEX
8
TRACE_01
10
-259.303666
20
-22.193666
0
VERTEX
8
TRACE_01
10
-258.1280006667
20
-22.193666
0
SEQEND
0
INSERT
2
SMOOTH_0$3
8
TRACE_01
10
-260.2800006667
20
-25
0
INSERT
2
SMOOTH_0$3
8
TRACE_01
10
-260.2800006667
20
-23.1700006667
0
INSERT
2
SMOOTH_0$3
8
TRACE_01
10
-259.303666
20
-22.193666
0
INSERT
2
SMOOTH_0$3
8
TRACE_01
10
-258.1280006667
20
-22.193666
0
POLYLINE
8
TRACE_01
6
SIG_7
66
1
40
0.6
41
0.6
0
VERTEX
8
TRACE_01
10
-260.476
20
-28.7796666667
0
VERTEX
8
TRACE_01
10
-260.476
20
-26.9989993333
0
VERTEX
8
TRACE_01
10
-260.2800006667
20
-26.803
0
VERTEX
8
TRACE_01
10
-260.2800006667
20
-25
0
SEQEND
0
INSERT
2
SMOOTH_0$6
8
TRACE_01
10
-260.476
20
-28.7796666667
0
INSERT
2
SMOOTH_0$6
8
TRACE_01
10
-260.476
20
-26.9989993333
0
INSERT
2
SMOOTH_0$6
8
TRACE_01
10
-260.2800006667
20
-26.803
0
INSERT
2
SMOOTH_0$6
8
TRACE_01
10
-260.2800006667
20
-25
0
POLYLINE
8
TRACE_01
6
SIG_7
66
1
40
0.6
41
0.6
0
VERTEX
8
TRACE_01
10
-260.476
20
-28.7796666667
0
VERTEX
8
TRACE_01
10
-260.476
20
-30.0939993333
0
VERTEX
8
TRACE_01
10
-259.35
20
-31.2199993333
0
VERTEX
8
TRACE_01
10
-256
20
-31.2199993333
0
SEQEND
0
INSERT
2
SMOOTH_0$6
8
TRACE_01
10
-260.476
20
-28.7796666667
0
INSERT
2
SMOOTH_0$6
8
TRACE_01
10
-260.476
20
-30.0939993333
0
INSERT
2
SMOOTH_0$6
8
TRACE_01
10
-259.35
20
-31.2199993333
0
INSERT
2
SMOOTH_0$6
8
TRACE_01
10
-256
20
-31.2199993333
0
POLYLINE
8
TRACE_01
6
SIG_7
66
1
40
0.85
41
0.85
0
VERTEX
8
TRACE_01
10
-256
20
-31.2199993333
0
VERTEX
8
TRACE_01
10
-254.5099993333
20
-31.2199993333
0
VERTEX
8
TRACE_01
10
-254.5
20
-31.2299986667
0
SEQEND
0
INSERT
2
SMOOTH_0$85
8
TRACE_01
10
-256
20
-31.2199993333
0
INSERT
2
SMOOTH_0$85
8
TRACE_01
10
-254.5099993333
20
-31.2199993333
0
INSERT
2
SMOOTH_0$85
8
TRACE_01
10
-254.5
20
-31.2299986667
0
POLYLINE
8
TRACE_01
6
SIG_8
66
1
40
0.85
41
0.85
0
VERTEX
8
TRACE_01
10
-253
20
-29.2800006667
0
VERTEX
8
TRACE_01
10
-250.9429613333
20
-29.2800006667
0
VERTEX
8
TRACE_01
10
-249.8469746667
20
-30.3759873333
0
SEQEND
0
INSERT
2
SMOOTH_0$85
8
TRACE_01
10
-253
20
-29.2800006667
0
INSERT
2
SMOOTH_0$85
8
TRACE_01
10
-250.9429613333
20
-29.2800006667
0
INSERT
2
SMOOTH_0$85
8
TRACE_01
10
-249.8469746667
20
-30.3759873333
0
POLYLINE
8
TRACE_01
6
SIG_9
66
1
40
0.6
41
0.6
0
VERTEX
8
TRACE_01
10
-247.5
20
-23.65
0
VERTEX
8
TRACE_01
10
-247.5
20
-24.207
0
VERTEX
8
TRACE_01
10
-245.893
20
-24.207
0
VERTEX
8
TRACE_01
10
-245.735
20
-24.365
0
VERTEX
8
TRACE_01
10
-243.9749986667
20
-24.365
0
SEQEND
0
INSERT
2
SMOOTH_0$6
8
TRACE_01
10
-247.5
20
-23.65
0
INSERT
2
SMOOTH_0$6
8
TRACE_01
10
-247.5
20
-24.207
0
INSERT
2
SMOOTH_0$6
8
TRACE_01
10
-245.893
20
-24.207
0
INSERT
2
SMOOTH_0$6
8
TRACE_01
10
-245.735
20
-24.365
0
INSERT
2
SMOOTH_0$6
8
TRACE_01
10
-243.9749986667
20
-24.365
0
POLYLINE
8
TRACE_01
6
SIG_10
66
1
40
0.6
41
0.6
0
VERTEX
8
TRACE_01
10
-247.5
20
-26.35
0
VERTEX
8
TRACE_01
10
-247.5
20
-26.905
0
VERTEX
8
TRACE_01
10
-243.9749986667
20
-26.905
0
SEQEND
0
INSERT
2
SMOOTH_0$6
8
TRACE_01
10
-247.5
20
-26.35
0
INSERT
2
SMOOTH_0$6
8
TRACE_01
10
-247.5
20
-26.905
0
INSERT
2
SMOOTH_0$6
8
TRACE_01
10
-243.9749986667
20
-26.905
0
POLYLINE
8
TRACE_01
6
SIG_11
66
1
40
0.3
41
0.3
0
VERTEX
8
TRACE_01
10
-259.83
20
-19.99
0
VERTEX
8
TRACE_01
10
-259.13
20
-20.69
0
VERTEX
8
TRACE_01
10
-259.13
20
-20.693666
0
VERTEX
8
TRACE_01
10
-258.1280006667
20
-20.693666
0
SEQEND
0
INSERT
2
SMOOTH_0$3
8
TRACE_01
10
-259.83
20
-19.99
0
INSERT
2
SMOOTH_0$3
8
TRACE_01
10
-259.13
20
-20.69
0
INSERT
2
SMOOTH_0$3
8
TRACE_01
10
-259.13
20
-20.693666
0
INSERT
2
SMOOTH_0$3
8
TRACE_01
10
-258.1280006667
20
-20.693666
0
POLYLINE
8
TRACE_02
6
SIG_11
66
1
40
0.3
41
0.3
0
VERTEX
8
TRACE_02
10
-265.28
20
-25.44
0
VERTEX
8
TRACE_02
10
-259.83
20
-19.99
0
SEQEND
0
INSERT
2
SMOOTH_0$3
8
TRACE_02
10
-265.28
20
-25.44
0
INSERT
2
SMOOTH_0$3
8
TRACE_02
10
-259.83
20
-19.99
0
POLYLINE
8
TRACE_01
6
SIG_11
66
1
40
0.3
41
0.3
0
VERTEX
8
TRACE_01
10
-265.2800006667
20
-23.5
0
VERTEX
8
TRACE_01
10
-265.28
20
-25.44
0
SEQEND
0
INSERT
2
SMOOTH_0$3
8
TRACE_01
10
-265.2800006667
20
-23.5
0
INSERT
2
SMOOTH_0$3
8
TRACE_01
10
-265.28
20
-25.44
0
POLYLINE
8
TRACE_01
6
SIG_11
66
1
40
0.3
41
0.3
0
VERTEX
8
TRACE_01
10
-265.2800006667
20
-19
0
VERTEX
8
TRACE_01
10
-265.2800006667
20
-20.5
0
SEQEND
0
INSERT
2
SMOOTH_0$3
8
TRACE_01
10
-265.2800006667
20
-19
0
INSERT
2
SMOOTH_0$3
8
TRACE_01
10
-265.2800006667
20
-20.5
0
POLYLINE
8
TRACE_01
6
SIG_11
66
1
40
0.3
41
0.3
0
VERTEX
8
TRACE_01
10
-265.2800006667
20
-20.5
0
VERTEX
8
TRACE_01
10
-265.2800006667
20
-22
0
SEQEND
0
INSERT
2
SMOOTH_0$3
8
TRACE_01
10
-265.2800006667
20
-20.5
0
INSERT
2
SMOOTH_0$3
8
TRACE_01
10
-265.2800006667
20
-22
0
POLYLINE
8
TRACE_01
6
SIG_11
66
1
40
0.3
41
0.3
0
VERTEX
8
TRACE_01
10
-265.2800006667
20
-22
0
VERTEX
8
TRACE_01
10
-265.2800006667
20
-23.5
0
SEQEND
0
INSERT
2
SMOOTH_0$3
8
TRACE_01
10
-265.2800006667
20
-22
0
INSERT
2
SMOOTH_0$3
8
TRACE_01
10
-265.2800006667
20
-23.5
0
POLYLINE
8
TRACE_01
6
SIG_15
66
1
40
0.6
41
0.6
0
VERTEX
8
TRACE_01
10
-261.73
20
-23.52
0
VERTEX
8
TRACE_01
10
-261.73
20
-24.9999986667
0
VERTEX
8
TRACE_01
10
-261.7299986667
20
-25
0
SEQEND
0
INSERT
2
SMOOTH_0$6
8
TRACE_01
10
-261.73
20
-23.52
0
INSERT
2
SMOOTH_0$6
8
TRACE_01
10
-261.73
20
-24.9999986667
0
POLYLINE
8
TRACE_02
6
SIG_15
66
1
40
0.6
41
0.6
0
VERTEX
8
TRACE_02
10
-261.73
20
-23.52
0
VERTEX
8
TRACE_02
10
-261.7279993333
20
-23.52
0
VERTEX
8
TRACE_02
10
-256.75
20
-18.5420006667
0
SEQEND
0
INSERT
2
SMOOTH_0$6
8
TRACE_02
10
-261.73
20
-23.52
0
INSERT
2
SMOOTH_0$6
8
TRACE_02
10
-261.7279993333
20
-23.52
0
INSERT
2
SMOOTH_0$6
8
TRACE_02
10
-256.75
20
-18.5420006667
0
POLYLINE
8
TRACE_01
6
SIG_15
66
1
40
0.3
41
0.3
0
VERTEX
8
TRACE_01
10
-263.7199993333
20
-22
0
VERTEX
8
TRACE_01
10
-262.55
20
-22
0
VERTEX
8
TRACE_01
10
-261.73
20
-22.82
0
VERTEX
8
TRACE_01
10
-261.73
20
-23.52
0
SEQEND
0
INSERT
2
SMOOTH_0$3
8
TRACE_01
10
-263.7199993333
20
-22
0
INSERT
2
SMOOTH_0$3
8
TRACE_01
10
-262.55
20
-22
0
INSERT
2
SMOOTH_0$3
8
TRACE_01
10
-261.73
20
-22.82
0
INSERT
2
SMOOTH_0$3
8
TRACE_01
10
-261.73
20
-23.52
0
POLYLINE
8
TRACE_01
6
SIG_15
66
1
40
0.3
41
0.3
0
VERTEX
8
TRACE_01
10
-251.0213326667
20
-17.2016666667
0
VERTEX
8
TRACE_01
10
-248.311666
20
-17.2016666667
0
VERTEX
8
TRACE_01
10
-248.3108333333
20
-17.200834
0
SEQEND
0
INSERT
2
SMOOTH_0$3
8
TRACE_01
10
-251.0213326667
20
-17.2016666667
0
INSERT
2
SMOOTH_0$3
8
TRACE_01
10
-248.311666
20
-17.2016666667
0
INSERT
2
SMOOTH_0$3
8
TRACE_01
10
-248.3108333333
20
-17.200834
0
POLYLINE
8
TRACE_01
6
SIG_15
66
1
40
0.6
41
0.6
0
VERTEX
8
TRACE_01
10
-248.3108333333
20
-17.200834
0
VERTEX
8
TRACE_01
10
-246.3269993333
20
-15.217
0
VERTEX
8
TRACE_01
10
-246.3269993333
20
-13.976
0
SEQEND
0
INSERT
2
SMOOTH_0$6
8
TRACE_01
10
-248.3108333333
20
-17.200834
0
INSERT
2
SMOOTH_0$6
8
TRACE_01
10
-246.3269993333
20
-15.217
0
INSERT
2
SMOOTH_0$6
8
TRACE_01
10
-246.3269993333
20
-13.976
0
POLYLINE
8
TRACE_01
6
SIG_15
66
1
40
0.6
41
0.6
0
VERTEX
8
TRACE_01
10
-249.652
20
-18.5420006667
0
VERTEX
8
TRACE_01
10
-248.3108333333
20
-17.200834
0
SEQEND
0
INSERT
2
SMOOTH_0$6
8
TRACE_01
10
-249.652
20
-18.5420006667
0
INSERT
2
SMOOTH_0$6
8
TRACE_01
10
-248.3108333333
20
-17.200834
0
POLYLINE
8
TRACE_01
6
SIG_15
66
1
40
0.6
41
0.6
0
VERTEX
8
TRACE_01
10
-246.3269993333
20
-13.976
0
VERTEX
8
TRACE_01
10
-242.729
20
-17.5739993333
0
VERTEX
8
TRACE_01
10
-242.729
20
-18.9990013333
0
SEQEND
0
INSERT
2
SMOOTH_0$6
8
TRACE_01
10
-246.3269993333
20
-13.976
0
INSERT
2
SMOOTH_0$6
8
TRACE_01
10
-242.729
20
-17.5739993333
0
INSERT
2
SMOOTH_0$6
8
TRACE_01
10
-242.729
20
-18.9990013333
0
POLYLINE
8
TRACE_01
6
SIG_15
66
1
40
0.6
41
0.6
0
VERTEX
8
TRACE_01
10
-261.7299986667
20
-26.5
0
VERTEX
8
TRACE_01
10
-261.7299986667
20
-25
0
SEQEND
0
INSERT
2
SMOOTH_0$6
8
TRACE_01
10
-261.7299986667
20
-26.5
0
INSERT
2
SMOOTH_0$6
8
TRACE_01
10
-261.7299986667
20
-25
0
POLYLINE
8
TRACE_01
6
SIG_15
66
1
40
0.3
41
0.3
0
VERTEX
8
TRACE_01
10
-256.75
20
-18.5420006667
0
VERTEX
8
TRACE_01
10
-256.75
20
-17.3199993333
0
VERTEX
8
TRACE_01
10
-256.6316673333
20
-17.2016666667
0
SEQEND
0
INSERT
2
SMOOTH_0$3
8
TRACE_01
10
-256.75
20
-18.5420006667
0
INSERT
2
SMOOTH_0$3
8
TRACE_01
10
-256.75
20
-17.3199993333
0
INSERT
2
SMOOTH_0$3
8
TRACE_01
10
-256.6316673333
20
-17.2016666667
0
POLYLINE
8
TRACE_02
6
SIG_15
66
1
40
0.6
41
0.6
0
VERTEX
8
TRACE_02
10
-256.75
20
-18.5420006667
0
VERTEX
8
TRACE_02
10
-249.652
20
-18.5420006667
0
SEQEND
0
INSERT
2
SMOOTH_0$6
8
TRACE_02
10
-256.75
20
-18.5420006667
0
INSERT
2
SMOOTH_0$6
8
TRACE_02
10
-249.652
20
-18.5420006667
0
POLYLINE
8
TRACE_01
6
SIG_15
66
1
40
0.6
41
0.6
0
VERTEX
8
TRACE_01
10
-261.746
20
-28.7796666667
0
VERTEX
8
TRACE_01
10
-261.746
20
-26.5160013333
0
VERTEX
8
TRACE_01
10
-261.7299986667
20
-26.5
0
SEQEND
0
INSERT
2
SMOOTH_0$6
8
TRACE_01
10
-261.746
20
-28.7796666667
0
INSERT
2
SMOOTH_0$6
8
TRACE_01
10
-261.746
20
-26.5160013333
0
INSERT
2
SMOOTH_0$6
8
TRACE_01
10
-261.7299986667
20
-26.5
0
POLYLINE
8
TRACE_01
6
SIG_15
66
1
40
0.6
41
0.6
0
VERTEX
8
TRACE_01
10
-251.2700013333
20
-20
0
VERTEX
8
TRACE_01
10
-251.2700013333
20
-18.7700013333
0
VERTEX
8
TRACE_01
10
-251.0420006667
20
-18.5420006667
0
VERTEX
8
TRACE_01
10
-249.652
20
-18.5420006667
0
SEQEND
0
INSERT
2
SMOOTH_0$6
8
TRACE_01
10
-251.2700013333
20
-20
0
INSERT
2
SMOOTH_0$6
8
TRACE_01
10
-251.2700013333
20
-18.7700013333
0
INSERT
2
SMOOTH_0$6
8
TRACE_01
10
-251.0420006667
20
-18.5420006667
0
INSERT
2
SMOOTH_0$6
8
TRACE_01
10
-249.652
20
-18.5420006667
0
POLYLINE
8
TRACE_01
6
SIG_15
66
1
40
0.85
41
0.85
0
VERTEX
8
TRACE_01
10
-251.2700013333
20
-21.5
0
VERTEX
8
TRACE_01
10
-251.2700013333
20
-20
0
SEQEND
0
INSERT
2
SMOOTH_0$85
8
TRACE_01
10
-251.2700013333
20
-21.5
0
INSERT
2
SMOOTH_0$85
8
TRACE_01
10
-251.2700013333
20
-20
0
POLYLINE
8
TRACE_01
6
SIG_15
66
1
40
0.3
41
0.3
0
VERTEX
8
TRACE_01
10
-253.8279993333
20
-21.6936666667
0
VERTEX
8
TRACE_01
10
-251.302
20
-21.6936666667
0
VERTEX
8
TRACE_01
10
-251.302
20
-21.5319986667
0
VERTEX
8
TRACE_01
10
-251.2700013333
20
-21.5
0
SEQEND
0
INSERT
2
SMOOTH_0$3
8
TRACE_01
10
-253.8279993333
20
-21.6936666667
0
INSERT
2
SMOOTH_0$3
8
TRACE_01
10
-251.302
20
-21.6936666667
0
INSERT
2
SMOOTH_0$3
8
TRACE_01
10
-251.302
20
-21.5319986667
0
INSERT
2
SMOOTH_0$3
8
TRACE_01
10
-251.2700013333
20
-21.5
0
POLYLINE
8
TRACE_01
6
SIG_15
66
1
40
0.6
41
0.6
0
VERTEX
8
TRACE_01
10
-242.7299986667
20
-20.5
0
VERTEX
8
TRACE_01
10
-240.211
20
-20.5
0
VERTEX
8
TRACE_01
10
-239.0250013333
20
-21.6859986667
0
VERTEX
8
TRACE_01
10
-239.0250013333
20
-23.095
0
SEQEND
0
INSERT
2
SMOOTH_0$6
8
TRACE_01
10
-242.7299986667
20
-20.5
0
INSERT
2
SMOOTH_0$6
8
TRACE_01
10
-240.211
20
-20.5
0
INSERT
2
SMOOTH_0$6
8
TRACE_01
10
-239.0250013333
20
-21.6859986667
0
INSERT
2
SMOOTH_0$6
8
TRACE_01
10
-239.0250013333
20
-23.095
0
POLYLINE
8
TRACE_01
6
SIG_15
66
1
40
0.6
41
0.6
0
VERTEX
8
TRACE_01
10
-242.7299986667
20
-20.5
0
VERTEX
8
TRACE_01
10
-242.7299986667
20
-19
0
SEQEND
0
INSERT
2
SMOOTH_0$6
8
TRACE_01
10
-242.7299986667
20
-20.5
0
INSERT
2
SMOOTH_0$6
8
TRACE_01
10
-242.7299986667
20
-19
0
POLYLINE
8
TRACE_01
6
SIG_15
66
1
40
0.6
41
0.6
0
VERTEX
8
TRACE_01
10
-242.7299986667
20
-19
0
VERTEX
8
TRACE_01
10
-242.729
20
-18.9990013333
0
SEQEND
0
INSERT
2
SMOOTH_0$6
8
TRACE_01
10
-242.7299986667
20
-19
0
INSERT
2
SMOOTH_0$6
8
TRACE_01
10
-242.729
20
-18.9990013333
0
POLYLINE
8
TRACE_01
6
SIG_18
66
1
40
0.1524
41
0.1524
0
VERTEX
8
TRACE_01
10
-246.76
20
-20.49
0
VERTEX
8
TRACE_01
10
-244.2800013333
20
-20.49
0
VERTEX
8
TRACE_01
10
-244.2700013333
20
-20.5
0
SEQEND
0
INSERT
2
SMOOTH_0$1524
8
TRACE_01
10
-246.76
20
-20.49
0
INSERT
2
SMOOTH_0$1524
8
TRACE_01
10
-244.2800013333
20
-20.49
0
INSERT
2
SMOOTH_0$1524
8
TRACE_01
10
-244.2700013333
20
-20.5
0
POLYLINE
8
TRACE_02
6
SIG_18
66
1
40
0.1524
41
0.1524
0
VERTEX
8
TRACE_02
10
-246.76
20
-20.49
0
VERTEX
8
TRACE_02
10
-246.76
20
-17.76
0
VERTEX
8
TRACE_02
10
-248.8269993333
20
-15.6930006667
0
VERTEX
8
TRACE_02
10
-248.8269993333
20
-13.976
0
SEQEND
0
INSERT
2
SMOOTH_0$1524
8
TRACE_02
10
-246.76
20
-20.49
0
INSERT
2
SMOOTH_0$1524
8
TRACE_02
10
-246.76
20
-17.76
0
INSERT
2
SMOOTH_0$1524
8
TRACE_02
10
-248.8269993333
20
-15.6930006667
0
INSERT
2
SMOOTH_0$1524
8
TRACE_02
10
-248.8269993333
20
-13.976
0
POLYLINE
8
TRACE_02
6
SIG_18
66
1
40
0.1524
41
0.1524
0
VERTEX
8
TRACE_02
10
-255.94
20
-21.68
0
VERTEX
8
TRACE_02
10
-247.95
20
-21.68
0
VERTEX
8
TRACE_02
10
-246.76
20
-20.49
0
SEQEND
0
INSERT
2
SMOOTH_0$1524
8
TRACE_02
10
-255.94
20
-21.68
0
INSERT
2
SMOOTH_0$1524
8
TRACE_02
10
-247.95
20
-21.68
0
INSERT
2
SMOOTH_0$1524
8
TRACE_02
10
-246.76
20
-20.49
0
POLYLINE
8
TRACE_01
6
SIG_18
66
1
40
0.1524
41
0.1524
0
VERTEX
8
TRACE_01
10
-244.2700013333
20
-20.5
0
VERTEX
8
TRACE_01
10
-244.2700013333
20
-21.45
0
VERTEX
8
TRACE_01
10
-243.832
20
-21.8880013333
0
VERTEX
8
TRACE_01
10
-242.285
20
-21.8880013333
0
VERTEX
8
TRACE_01
10
-241.739
20
-22.4340013333
0
VERTEX
8
TRACE_01
10
-241.739
20
-25.635
0
SEQEND
0
INSERT
2
SMOOTH_0$1524
8
TRACE_01
10
-244.2700013333
20
-20.5
0
INSERT
2
SMOOTH_0$1524
8
TRACE_01
10
-244.2700013333
20
-21.45
0
INSERT
2
SMOOTH_0$1524
8
TRACE_01
10
-243.832
20
-21.8880013333
0
INSERT
2
SMOOTH_0$1524
8
TRACE_01
10
-242.285
20
-21.8880013333
0
INSERT
2
SMOOTH_0$1524
8
TRACE_01
10
-241.739
20
-22.4340013333
0
INSERT
2
SMOOTH_0$1524
8
TRACE_01
10
-241.739
20
-25.635
0
POLYLINE
8
TRACE_02
6
SIG_18
66
1
40
0.1524
41
0.1524
0
VERTEX
8
TRACE_02
10
-265.26
20
-27.51
0
VERTEX
8
TRACE_02
10
-260.87
20
-27.51
0
VERTEX
8
TRACE_02
10
-255.94
20
-22.58
0
VERTEX
8
TRACE_02
10
-255.94
20
-21.68
0
SEQEND
0
INSERT
2
SMOOTH_0$1524
8
TRACE_02
10
-265.26
20
-27.51
0
INSERT
2
SMOOTH_0$1524
8
TRACE_02
10
-260.87
20
-27.51
0
INSERT
2
SMOOTH_0$1524
8
TRACE_02
10
-255.94
20
-22.58
0
INSERT
2
SMOOTH_0$1524
8
TRACE_02
10
-255.94
20
-21.68
0
POLYLINE
8
TRACE_01
6
SIG_18
66
1
40
0.1524
41
0.1524
0
VERTEX
8
TRACE_01
10
-265.26
20
-27.51
0
VERTEX
8
TRACE_01
10
-264.25
20
-26.5
0
VERTEX
8
TRACE_01
10
-263.2700013333
20
-26.5
0
SEQEND
0
INSERT
2
SMOOTH_0$1524
8
TRACE_01
10
-265.26
20
-27.51
0
INSERT
2
SMOOTH_0$1524
8
TRACE_01
10
-264.25
20
-26.5
0
INSERT
2
SMOOTH_0$1524
8
TRACE_01
10
-263.2700013333
20
-26.5
0
POLYLINE
8
TRACE_01
6
SIG_18
66
1
40
0.1524
41
0.1524
0
VERTEX
8
TRACE_01
10
-258.1280006667
20
-21.6936666667
0
VERTEX
8
TRACE_01
10
-258.114334
20
-21.68
0
VERTEX
8
TRACE_01
10
-255.94
20
-21.68
0
SEQEND
0
INSERT
2
SMOOTH_0$1524
8
TRACE_01
10
-258.1280006667
20
-21.6936666667
0
INSERT
2
SMOOTH_0$1524
8
TRACE_01
10
-258.114334
20
-21.68
0
INSERT
2
SMOOTH_0$1524
8
TRACE_01
10
-255.94
20
-21.68
0
POLYLINE
8
TRACE_01
6
SIG_18
66
1
40
0.1524
41
0.1524
0
VERTEX
8
TRACE_01
10
-263.7199993333
20
-23.5
0
VERTEX
8
TRACE_01
10
-263.7199993333
20
-24.0200006667
0
VERTEX
8
TRACE_01
10
-263.26
20
-24.48
0
VERTEX
8
TRACE_01
10
-263.26
20
-25
0
SEQEND
0
INSERT
2
SMOOTH_0$1524
8
TRACE_01
10
-263.7199993333
20
-23.5
0
INSERT
2
SMOOTH_0$1524
8
TRACE_01
10
-263.7199993333
20
-24.0200006667
0
INSERT
2
SMOOTH_0$1524
8
TRACE_01
10
-263.26
20
-24.48
0
INSERT
2
SMOOTH_0$1524
8
TRACE_01
10
-263.26
20
-25
0
POLYLINE
8
TRACE_01
6
SIG_18
66
1
40
0.1524
41
0.1524
0
VERTEX
8
TRACE_01
10
-263.2700013333
20
-25
0
VERTEX
8
TRACE_01
10
-263.2700013333
20
-26.5
0
SEQEND
0
INSERT
2
SMOOTH_0$1524
8
TRACE_01
10
-263.2700013333
20
-25
0
INSERT
2
SMOOTH_0$1524
8
TRACE_01
10
-263.2700013333
20
-26.5
0
POLYLINE
8
TRACE_01
6
SIG_18
66
1
40
0.1524
41
0.1524
0
VERTEX
8
TRACE_01
10
-263.2700013333
20
-25
0
VERTEX
8
TRACE_01
10
-263.26
20
-25
0
SEQEND
0
INSERT
2
SMOOTH_0$1524
8
TRACE_01
10
-263.2700013333
20
-25
0
INSERT
2
SMOOTH_0$1524
8
TRACE_01
10
-263.26
20
-25
0
POLYLINE
8
TRACE_02
6
SIG_18
66
1
40
0.1524
41
0.1524
0
VERTEX
8
TRACE_02
10
-257.731
20
-33.72
0
VERTEX
8
TRACE_02
10
-257.731
20
-31.23
0
VERTEX
8
TRACE_02
10
-251.501
20
-31.23
0
SEQEND
0
INSERT
2
SMOOTH_0$1524
8
TRACE_02
10
-257.731
20
-33.72
0
INSERT
2
SMOOTH_0$1524
8
TRACE_02
10
-257.731
20
-31.23
0
INSERT
2
SMOOTH_0$1524
8
TRACE_02
10
-251.501
20
-31.23
0
POLYLINE
8
TRACE_02
6
SIG_18
66
1
40
0.1524
41
0.1524
0
VERTEX
8
TRACE_02
10
-251.501
20
-31.23
0
VERTEX
8
TRACE_02
10
-251.501
20
-29.616
0
VERTEX
8
TRACE_02
10
-250.9909873333
20
-29.1059873333
0
VERTEX
8
TRACE_02
10
-248.5769746667
20
-29.1059873333
0
SEQEND
0
INSERT
2
SMOOTH_0$1524
8
TRACE_02
10
-251.501
20
-31.23
0
INSERT
2
SMOOTH_0$1524
8
TRACE_02
10
-251.501
20
-29.616
0
INSERT
2
SMOOTH_0$1524
8
TRACE_02
10
-250.9909873333
20
-29.1059873333
0
INSERT
2
SMOOTH_0$1524
8
TRACE_02
10
-248.5769746667
20
-29.1059873333
0
POLYLINE
8
TRACE_01
6
SIG_18
66
1
40
0.1524
41
0.1524
0
VERTEX
8
TRACE_01
10
-241.739
20
-25.635
0
VERTEX
8
TRACE_01
10
-239.0250013333
20
-25.635
0
SEQEND
0
INSERT
2
SMOOTH_0$1524
8
TRACE_01
10
-241.739
20
-25.635
0
INSERT
2
SMOOTH_0$1524
8
TRACE_01
10
-239.0250013333
20
-25.635
0
POLYLINE
8
TRACE_01
6
SIG_18
66
1
40
0.1524
41
0.1524
0
VERTEX
8
TRACE_01
10
-249.7299986667
20
-21.5
0
VERTEX
8
TRACE_01
10
-249.7299986667
20
-20.002
0
SEQEND
0
INSERT
2
SMOOTH_0$1524
8
TRACE_01
10
-249.7299986667
20
-21.5
0
INSERT
2
SMOOTH_0$1524
8
TRACE_01
10
-249.7299986667
20
-20.002
0
POLYLINE
8
TRACE_01
6
SIG_18
66
1
40
0.1524
41
0.1524
0
VERTEX
8
TRACE_01
10
-249.7299986667
20
-20.002
0
VERTEX
8
TRACE_01
10
-249.7299986667
20
-20
0
SEQEND
0
INSERT
2
SMOOTH_0$1524
8
TRACE_01
10
-249.7299986667
20
-20.002
0
INSERT
2
SMOOTH_0$1524
8
TRACE_01
10
-249.7299986667
20
-20
0
POLYLINE
8
TRACE_01
6
SIG_18
66
1
40
0.1524
41
0.1524
0
VERTEX
8
TRACE_01
10
-249.7299986667
20
-20.002
0
VERTEX
8
TRACE_01
10
-248.351
20
-20.002
0
VERTEX
8
TRACE_01
10
-247.349
20
-19
0
VERTEX
8
TRACE_01
10
-244.2700013333
20
-19
0
SEQEND
0
INSERT
2
SMOOTH_0$1524
8
TRACE_01
10
-249.7299986667
20
-20.002
0
INSERT
2
SMOOTH_0$1524
8
TRACE_01
10
-248.351
20
-20.002
0
INSERT
2
SMOOTH_0$1524
8
TRACE_01
10
-247.349
20
-19
0
INSERT
2
SMOOTH_0$1524
8
TRACE_01
10
-244.2700013333
20
-19
0
POLYLINE
8
TRACE_01
6
SIG_18
66
1
40
0.1524
41
0.1524
0
VERTEX
8
TRACE_01
10
-259.206
20
-33.7196666667
0
VERTEX
8
TRACE_01
10
-257.7313333333
20
-33.7196666667
0
VERTEX
8
TRACE_01
10
-257.731
20
-33.72
0
SEQEND
0
INSERT
2
SMOOTH_0$1524
8
TRACE_01
10
-259.206
20
-33.7196666667
0
INSERT
2
SMOOTH_0$1524
8
TRACE_01
10
-257.7313333333
20
-33.7196666667
0
INSERT
2
SMOOTH_0$1524
8
TRACE_01
10
-257.731
20
-33.72
0
POLYLINE
8
TRACE_01
6
SIG_18
66
1
40
0.1524
41
0.1524
0
VERTEX
8
TRACE_01
10
-253
20
-27.7199993333
0
VERTEX
8
TRACE_01
10
-249.9629626667
20
-27.7199993333
0
VERTEX
8
TRACE_01
10
-248.5769746667
20
-29.1059873333
0
SEQEND
0
INSERT
2
SMOOTH_0$1524
8
TRACE_01
10
-253
20
-27.7199993333
0
INSERT
2
SMOOTH_0$1524
8
TRACE_01
10
-249.9629626667
20
-27.7199993333
0
INSERT
2
SMOOTH_0$1524
8
TRACE_01
10
-248.5769746667
20
-29.1059873333
0
POLYLINE
8
TRACE_01
6
SIG_18
66
1
40
0.1524
41
0.1524
0
VERTEX
8
TRACE_01
10
-248.5769746667
20
-29.1059873333
0
VERTEX
8
TRACE_01
10
-241.739
20
-29.1059873333
0
SEQEND
0
INSERT
2
SMOOTH_0$1524
8
TRACE_01
10
-248.5769746667
20
-29.1059873333
0
INSERT
2
SMOOTH_0$1524
8
TRACE_01
10
-241.739
20
-29.1059873333
0
POLYLINE
8
TRACE_01
6
SIG_18
66
1
40
0.1524
41
0.1524
0
VERTEX
8
TRACE_01
10
-241.739
20
-29.1059873333
0
VERTEX
8
TRACE_01
10
-241.739
20
-25.635
0
SEQEND
0
INSERT
2
SMOOTH_0$1524
8
TRACE_01
10
-241.739
20
-29.1059873333
0
INSERT
2
SMOOTH_0$1524
8
TRACE_01
10
-241.739
20
-25.635
0
POLYLINE
8
TRACE_01
6
SIG_18
66
1
40
0.1524
41
0.1524
0
VERTEX
8
TRACE_01
10
-253
20
-31.2299986667
0
VERTEX
8
TRACE_01
10
-251.5010013333
20
-31.2299986667
0
VERTEX
8
TRACE_01
10
-251.501
20
-31.23
0
SEQEND
0
INSERT
2
SMOOTH_0$1524
8
TRACE_01
10
-253
20
-31.2299986667
0
INSERT
2
SMOOTH_0$1524
8
TRACE_01
10
-251.5010013333
20
-31.2299986667
0
POLYLINE
8
TRACE_01
6
SIG_18
66
1
40
0.1524
41
0.1524
0
VERTEX
8
TRACE_01
10
-241.85
20
-30
0
VERTEX
8
TRACE_01
10
-241.739
20
-30
0
VERTEX
8
TRACE_01
10
-241.739
20
-29.1059873333
0
SEQEND
0
INSERT
2
SMOOTH_0$1524
8
TRACE_01
10
-241.85
20
-30
0
INSERT
2
SMOOTH_0$1524
8
TRACE_01
10
-241.739
20
-30
0
INSERT
2
SMOOTH_0$1524
8
TRACE_01
10
-241.739
20
-29.1059873333
0
POLYLINE
8
TRACE_01
6
SIG_18
66
1
40
0.1524
41
0.1524
0
VERTEX
8
TRACE_01
10
-243.9749986667
20
-25.635
0
VERTEX
8
TRACE_01
10
-241.739
20
-25.635
0
SEQEND
0
INSERT
2
SMOOTH_0$1524
8
TRACE_01
10
-243.9749986667
20
-25.635
0
INSERT
2
SMOOTH_0$1524
8
TRACE_01
10
-241.739
20
-25.635
0
POLYLINE
8
TRACE_01
6
SIG_18
66
1
40
0.1524
41
0.1524
0
VERTEX
8
TRACE_01
10
-244.2700013333
20
-19
0
VERTEX
8
TRACE_01
10
-244.2700013333
20
-20.5
0
SEQEND
0
INSERT
2
SMOOTH_0$1524
8
TRACE_01
10
-244.2700013333
20
-19
0
INSERT
2
SMOOTH_0$1524
8
TRACE_01
10
-244.2700013333
20
-20.5
0
POLYLINE
8
TRACE_01
6
SIG_18
66
1
40
0.6
41
0.6
0
VERTEX
8
TRACE_01
10
-260.476
20
-33.7196666667
0
VERTEX
8
TRACE_01
10
-259.206
20
-33.7196666667
0
SEQEND
0
INSERT
2
SMOOTH_0$6
8
TRACE_01
10
-260.476
20
-33.7196666667
0
INSERT
2
SMOOTH_0$6
8
TRACE_01
10
-259.206
20
-33.7196666667
0
POLYLINE
8
TRACE_01
6
SIG_18
66
1
40
0.1524
41
0.1524
0
VERTEX
8
TRACE_01
10
-251.3269993333
20
-13.976
0
VERTEX
8
TRACE_01
10
-248.8269993333
20
-13.976
0
SEQEND
0
INSERT
2
SMOOTH_0$1524
8
TRACE_01
10
-251.3269993333
20
-13.976
0
INSERT
2
SMOOTH_0$1524
8
TRACE_01
10
-248.8269993333
20
-13.976
0
POLYLINE
8
TRACE_01
6
SIG_19
66
1
40
0.3
41
0.3
0
VERTEX
8
TRACE_01
10
-263.7199993333
20
-19
0
VERTEX
8
TRACE_01
10
-262.37
20
-19
0
VERTEX
8
TRACE_01
10
-257.53
20
-14.16
0
VERTEX
8
TRACE_01
10
-257.53
20
-13.36
0
VERTEX
8
TRACE_01
10
-256.95
20
-12.78
0
VERTEX
8
TRACE_01
10
-255.0229993333
20
-12.78
0
VERTEX
8
TRACE_01
10
-253.8269993333
20
-13.976
0
SEQEND
0
INSERT
2
SMOOTH_0$3
8
TRACE_01
10
-263.7199993333
20
-19
0
INSERT
2
SMOOTH_0$3
8
TRACE_01
10
-262.37
20
-19
0
INSERT
2
SMOOTH_0$3
8
TRACE_01
10
-257.53
20
-14.16
0
INSERT
2
SMOOTH_0$3
8
TRACE_01
10
-257.53
20
-13.36
0
INSERT
2
SMOOTH_0$3
8
TRACE_01
10
-256.95
20
-12.78
0
INSERT
2
SMOOTH_0$3
8
TRACE_01
10
-255.0229993333
20
-12.78
0
INSERT
2
SMOOTH_0$3
8
TRACE_01
10
-253.8269993333
20
-13.976
0
POLYLINE
8
TRACE_01
6
SIG_19
66
1
40
0.3
41
0.3
0
VERTEX
8
TRACE_01
10
-253.8269993333
20
-13.976
0
VERTEX
8
TRACE_01
10
-253.8269993333
20
-14.867764
0
VERTEX
8
TRACE_01
10
-252.581334
20
-16.113764
0
VERTEX
8
TRACE_01
10
-252.581334
20
-17.2016666667
0
SEQEND
0
INSERT
2
SMOOTH_0$3
8
TRACE_01
10
-253.8269993333
20
-13.976
0
INSERT
2
SMOOTH_0$3
8
TRACE_01
10
-253.8269993333
20
-14.867764
0
INSERT
2
SMOOTH_0$3
8
TRACE_01
10
-252.581334
20
-16.113764
0
INSERT
2
SMOOTH_0$3
8
TRACE_01
10
-252.581334
20
-17.2016666667
0
POLYLINE
8
TRACE_01
6
SIG_19
66
1
40
0.3
41
0.3
0
VERTEX
8
TRACE_01
10
-253.8279993333
20
-20.693666
0
VERTEX
8
TRACE_01
10
-253.8279993333
20
-20.1659993333
0
VERTEX
8
TRACE_01
10
-252.581334
20
-18.919334
0
VERTEX
8
TRACE_01
10
-252.581334
20
-17.2016666667
0
SEQEND
0
INSERT
2
SMOOTH_0$3
8
TRACE_01
10
-253.8279993333
20
-20.693666
0
INSERT
2
SMOOTH_0$3
8
TRACE_01
10
-253.8279993333
20
-20.1659993333
0
INSERT
2
SMOOTH_0$3
8
TRACE_01
10
-252.581334
20
-18.919334
0
INSERT
2
SMOOTH_0$3
8
TRACE_01
10
-252.581334
20
-17.2016666667
0
INSERT
2
SYM_TOP_1
8
VIAPTS
10
-239.15
20
-32.483
6
SIG_2
0
INSERT
2
SYM_TOP_1
8
VIAPTS
10
-255.47
20
-24.99
6
SIG_2
0
INSERT
2
SYM_TOP_1
8
VIAPTS
10
-259.83
20
-19.99
6
SIG_11
0
INSERT
2
SYM_TOP_1
8
VIAPTS
10
-265.28
20
-25.44
6
SIG_11
0
INSERT
2
SYM_TOP_1
8
VIAPTS
10
-261.73
20
-23.52
6
SIG_15
0
INSERT
2
SYM_TOP_1
8
VIAPTS
10
-249.652
20
-18.5420006667
6
SIG_15
0
INSERT
2
SYM_TOP_1
8
VIAPTS
10
-256.75
20
-18.5420006667
6
SIG_15
0
INSERT
2
SYM_TOP_1
8
VIAPTS
10
-246.76
20
-20.49
6
SIG_18
0
INSERT
2
SYM_TOP_1
8
VIAPTS
10
-255.94
20
-21.68
6
SIG_18
0
INSERT
2
SYM_TOP_1
8
VIAPTS
10
-265.26
20
-27.51
6
SIG_18
0
INSERT
2
SYM_TOP_1
8
VIAPTS
10
-257.731
20
-33.72
6
SIG_18
0
INSERT
2
SYM_TOP_1
8
VIAPTS
10
-251.501
20
-31.23
6
SIG_18
999
*** POWERPCB  PCB PARAMETER ***
0
INSERT
2
PCB_PARAMS
8
0
10
0
20
0
0
ENDSEC
0
EOF
