*
*
G04 PADS VX.2.10 Build Number: 19222662 generated Gerber (RS-274-X) file*
G04 PC Version=2.1*
*
%IN "ATS7704_1_P_L_TITRATOR_"*%
*
%MOIN*%
*
%FSLAX35Y35*%
*
*
*
*
G04 PC Standard Apertures*
*
*
G04 Thermal Relief Aperture macro.*
%AMTER*
1,1,$1,0,0*
1,0,$1-$2,0,0*
21,0,$3,$4,0,0,45*
21,0,$3,$4,0,0,135*
%
*
*
G04 Annular Aperture macro.*
%AMANN*
1,1,$1,0,0*
1,0,$2,0,0*
%
*
*
G04 Odd Aperture macro.*
%AMODD*
1,1,$1,0,0*
1,0,$1-0.005,0,0*
%
*
*
G04 PC Custom Aperture Macros*
*
*
*
*
*
*
G04 PC Aperture Table*
*
%ADD010C,0.001*%
%ADD011C,0.01*%
%ADD013C,0.05906*%
%ADD015C,0.03937*%
%ADD017C,0.00787*%
%ADD019C,0.00394*%
%ADD051R,0.03937X0.0315*%
%ADD086C,0.07874*%
%ADD102C,0.07087*%
%ADD118C,0.12992*%
%ADD126C,0.09055*%
%ADD135R,0.0315X0.03937*%
%ADD138C,0.1378*%
%ADD139C,0.00787*%
%ADD143R,0.02913X0.10039*%
*
*
*
*
G04 PC Circuitry*
G04 Layer Name ATS7704_1_P_L_TITRATOR_ - circuitry*
%LPD*%
*
*
G04 PC Custom Flashes*
G04 Layer Name ATS7704_1_P_L_TITRATOR_ - flashes*
%LPD*%
*
*
G04 PC Circuitry*
G04 Layer Name ATS7704_1_P_L_TITRATOR_ - circuitry*
%LPD*%
*
G54D10*
G54D11*
G01X412425Y245834D02*
X408130Y230988D01*
X412425Y245834D02*
X416720Y230988D01*
X409741Y235937D02*
X415109D01*
X425310Y245834D02*
Y230988D01*
X421552Y245834D02*
X429068D01*
X441416Y243713D02*
X440342Y245127D01*
X438731Y245834*
X436584*
X434973Y245127*
X433899Y243713*
Y242299*
X434436Y240885*
X434973Y240178*
X436047Y239471*
X439268Y238058*
X440342Y237351*
X440879Y236644*
X441416Y235230*
Y233109*
X440342Y231695*
X438731Y230988*
X436584*
X434973Y231695*
X433899Y233109*
X446247Y245834D02*
Y230988D01*
Y245834D02*
X451079D01*
X452690Y245127*
X453227Y244420*
X453763Y243006*
Y241592*
X453227Y240178*
X452690Y239471*
X451079Y238765*
X446247*
X450005D02*
X453763Y230988D01*
X461816Y245834D02*
X460743Y245127D01*
X459669Y243713*
X459132Y242299*
X458595Y240178*
Y236644*
X459132Y234523*
X459669Y233109*
X460743Y231695*
X461816Y230988*
X463964*
X465038Y231695*
X466111Y233109*
X466648Y234523*
X467185Y236644*
Y240178*
X466648Y242299*
X466111Y243713*
X465038Y245127*
X463964Y245834*
X461816*
X513563Y254131D02*
Y244453D01*
Y254131D02*
X516426Y244453D01*
X519290Y254131D02*
X516426Y244453D01*
X519290Y254131D02*
Y244453D01*
X524658Y254131D02*
X523942Y253670D01*
X523227Y252749*
X522869Y251827*
X522511Y250444*
Y248140*
X522869Y246757*
X523227Y245835*
X523942Y244914*
X524658Y244453*
X526090*
X526806Y244914*
X527521Y245835*
X527879Y246757*
X528237Y248140*
Y250444*
X527879Y251827*
X527521Y252749*
X526806Y253670*
X526090Y254131*
X524658*
X531458D02*
Y244453D01*
Y254131D02*
X533964D01*
X535038Y253670*
X535753Y252749*
X536111Y251827*
X536469Y250444*
Y248140*
X536111Y246757*
X535753Y245835*
X535038Y244914*
X533964Y244453*
X531458*
X539690Y254131D02*
Y244453D01*
Y254131D02*
X544343D01*
X539690Y249522D02*
X542554D01*
X539690Y244453D02*
X544343D01*
X547564Y254131D02*
Y244453D01*
X551859*
X563312Y254131D02*
Y244453D01*
Y254131D02*
X568323Y244453D01*
Y254131D02*
Y244453D01*
X574408Y254131D02*
X571544Y244453D01*
X574408Y254131D02*
X577271Y244453D01*
X572618Y247679D02*
X576197D01*
X580492Y254131D02*
Y244453D01*
Y254131D02*
X583355Y244453D01*
X586219Y254131D02*
X583355Y244453D01*
X586219Y254131D02*
Y244453D01*
X589440Y254131D02*
Y244453D01*
Y254131D02*
X594093D01*
X589440Y249522D02*
X592303D01*
X589440Y244453D02*
X594093D01*
X623012Y253344D02*
Y243665D01*
X627307*
X633391Y253344D02*
X630528Y243665D01*
X633391Y253344D02*
X636254Y243665D01*
X631602Y246891D02*
X635181D01*
X639476Y253344D02*
X642339Y248735D01*
Y243665*
X645202Y253344D02*
X642339Y248735D01*
X648423Y253344D02*
Y243665D01*
Y253344D02*
X653076D01*
X648423Y248735D02*
X651287D01*
X648423Y243665D02*
X653076D01*
X656297Y253344D02*
Y243665D01*
Y253344D02*
X659519D01*
X660592Y252883*
X660950Y252422*
X661308Y251500*
Y250578*
X660950Y249657*
X660592Y249196*
X659519Y248735*
X656297*
X658803D02*
X661308Y243665D01*
X672761Y253344D02*
Y243665D01*
Y253344D02*
X677772Y243665D01*
Y253344D02*
Y243665D01*
X683856Y253344D02*
X680993Y243665D01*
X683856Y253344D02*
X686720Y243665D01*
X682067Y246891D02*
X685646D01*
X689941Y253344D02*
Y243665D01*
Y253344D02*
X692804Y243665D01*
X695668Y253344D02*
X692804Y243665D01*
X695668Y253344D02*
Y243665D01*
X698889Y253344D02*
Y243665D01*
Y253344D02*
X703542D01*
X698889Y248735D02*
X701752D01*
X698889Y243665D02*
X703542D01*
X728524Y253344D02*
Y243665D01*
Y253344D02*
X731029D01*
X732103Y252883*
X732819Y251961*
X733176Y251039*
X733534Y249657*
Y247352*
X733176Y245970*
X732819Y245048*
X732103Y244126*
X731029Y243665*
X728524*
X739619Y253344D02*
X736756Y243665D01*
X739619Y253344D02*
X742482Y243665D01*
X737829Y246891D02*
X741408D01*
X748209Y253344D02*
Y243665D01*
X745703Y253344D02*
X750714D01*
X753935D02*
Y243665D01*
Y253344D02*
X758588D01*
X753935Y248735D02*
X756798D01*
X753935Y243665D02*
X758588D01*
X387795Y284446D02*
X388250Y284759D01*
X388932Y285696*
Y279134*
X391204Y279759D02*
X390977Y279446D01*
X391204Y279134*
X391432Y279446*
X391204Y279759*
X393704Y284134D02*
Y284446D01*
X393932Y285071*
X394159Y285384*
X394613Y285696*
X395523*
X395977Y285384*
X396204Y285071*
X396432Y284446*
Y283821*
X396204Y283196*
X395750Y282259*
X393477Y279134*
X396659*
X400295Y285696D02*
Y279134D01*
X398704Y285696D02*
X401886D01*
X421886D02*
X419613Y281321D01*
X423023*
X421886Y285696D02*
Y279134D01*
X425068Y285696D02*
Y279134D01*
X427795*
X440295Y285696D02*
Y279134D01*
X443477Y285696D02*
Y279134D01*
X440295Y282571D02*
X443477D01*
X447341Y285696D02*
X445523Y279134D01*
X447341Y285696D02*
X449159Y279134D01*
X446204Y281321D02*
X448477D01*
X454386Y284759D02*
X453932Y285384D01*
X453250Y285696*
X452341*
X451659Y285384*
X451204Y284759*
Y284134*
X451432Y283509*
X451659Y283196*
X452113Y282884*
X453477Y282259*
X453932Y281946*
X454159Y281634*
X454386Y281009*
Y280071*
X453932Y279446*
X453250Y279134*
X452341*
X451659Y279446*
X451204Y280071*
X456432Y285696D02*
Y279134D01*
X459159*
X362205Y601051D02*
X364023Y594488D01*
X365841Y601051D02*
X364023Y594488D01*
X367887Y597301D02*
X371977D01*
X377432Y599488D02*
X377205Y600113D01*
X376750Y600738*
X376296Y601051*
X375387*
X374932Y600738*
X374477Y600113*
X374250Y599488*
X374023Y598551*
Y596988*
X374250Y596051*
X374477Y595426*
X374932Y594801*
X375387Y594488*
X376296*
X376750Y594801*
X377205Y595426*
X377432Y596051*
X379477Y601051D02*
Y596363D01*
X379705Y595426*
X380159Y594801*
X380841Y594488*
X381296*
X381977Y594801*
X382432Y595426*
X382659Y596363*
Y601051*
X386296D02*
Y594488D01*
X384705Y601051D02*
X387887D01*
X362205Y782153D02*
X364023Y775591D01*
X365841Y782153D02*
X364023Y775591D01*
X367887Y778403D02*
X371977D01*
X377432Y780591D02*
X377205Y781216D01*
X376750Y781841*
X376296Y782153*
X375387*
X374932Y781841*
X374477Y781216*
X374250Y780591*
X374023Y779653*
Y778091*
X374250Y777153*
X374477Y776528*
X374932Y775903*
X375387Y775591*
X376296*
X376750Y775903*
X377205Y776528*
X377432Y777153*
X379477Y782153D02*
Y777466D01*
X379705Y776528*
X380159Y775903*
X380841Y775591*
X381296*
X381977Y775903*
X382432Y776528*
X382659Y777466*
Y782153*
X386296D02*
Y775591D01*
X384705Y782153D02*
X387887D01*
X362205Y404200D02*
X364023Y397638D01*
X365841Y404200D02*
X364023Y397638D01*
X367887Y400450D02*
X371977D01*
X377432Y402638D02*
X377205Y403263D01*
X376750Y403888*
X376296Y404200*
X375387*
X374932Y403888*
X374477Y403263*
X374250Y402638*
X374023Y401700*
Y400138*
X374250Y399200*
X374477Y398575*
X374932Y397950*
X375387Y397638*
X376296*
X376750Y397950*
X377205Y398575*
X377432Y399200*
X379477Y404200D02*
Y399513D01*
X379705Y398575*
X380159Y397950*
X380841Y397638*
X381296*
X381977Y397950*
X382432Y398575*
X382659Y399513*
Y404200*
X386296D02*
Y397638D01*
X384705Y404200D02*
X387887D01*
G54D13*
X660433Y441949D03*
X650433Y446949D03*
X660433Y451949D03*
X650433Y456949D03*
X660433Y461949D03*
X650433Y466949D03*
X660433Y471949D03*
X650433Y476949D03*
X403661Y556614D03*
X413661D03*
X403661Y546614D03*
X413661D03*
X403661Y536614D03*
X413661D03*
X403661Y526614D03*
X413661D03*
X403661Y516614D03*
X413661D03*
X405512Y582677D03*
Y572835D03*
G54D15*
X425197Y803150D03*
X685039D03*
X425197Y377953D03*
X685039D03*
G54D17*
X628220Y232781D02*
X627952Y233470D01*
X627147Y233815*
X626341*
X625536Y233470*
X625268Y232781*
X625536Y232093*
X626073Y231748*
X627415Y231404*
X627952Y231059*
X628220Y230370*
Y230026*
X627952Y229337*
X627147Y228992*
X626341*
X625536Y229337*
X625268Y230026*
X630636Y236226D02*
X630905Y235882D01*
X631173Y236226*
X630905Y236571*
X630636Y236226*
X630905Y233815D02*
Y228992D01*
X633589Y236226D02*
Y228992D01*
X638958Y232781D02*
X638689Y233470D01*
X637884Y233815*
X637079*
X636273Y233470*
X636005Y232781*
X636273Y232093*
X636810Y231748*
X638152Y231404*
X638689Y231059*
X638958Y230370*
Y230026*
X638689Y229337*
X637884Y228992*
X637079*
X636273Y229337*
X636005Y230026*
X716875Y234110D02*
Y234455D01*
X717143Y235144*
X717412Y235488*
X717948Y235833*
X719022*
X719559Y235488*
X719827Y235144*
X720096Y234455*
Y233766*
X719827Y233077*
X719291Y232043*
X716606Y228598*
X720364*
X724391Y235833D02*
X723586Y235488D01*
X723049Y234455*
X722780Y232732*
Y231699*
X723049Y229976*
X723586Y228943*
X724391Y228598*
X724928*
X725733Y228943*
X726270Y229976*
X726538Y231699*
Y232732*
X726270Y234455*
X725733Y235488*
X724928Y235833*
X724391*
X729223Y234110D02*
Y234455D01*
X729491Y235144*
X729759Y235488*
X730296Y235833*
X731370*
X731907Y235488*
X732175Y235144*
X732444Y234455*
Y233766*
X732175Y233077*
X731639Y232043*
X728954Y228598*
X732712*
X735397Y234110D02*
Y234455D01*
X735665Y235144*
X735933Y235488*
X736470Y235833*
X737544*
X738081Y235488*
X738349Y235144*
X738618Y234455*
Y233766*
X738349Y233077*
X737812Y232043*
X735128Y228598*
X738886*
X741571Y229287D02*
X741302Y228943D01*
X741571Y228598*
X741839Y228943*
X741571Y229287*
X745865Y235833D02*
X745060Y235488D01*
X744523Y234455*
X744255Y232732*
Y231699*
X744523Y229976*
X745060Y228943*
X745865Y228598*
X746402*
X747208Y228943*
X747744Y229976*
X748013Y231699*
Y232732*
X747744Y234455*
X747208Y235488*
X746402Y235833*
X745865*
X753113D02*
X750429Y231010D01*
X754455*
X753113Y235833D02*
Y228598D01*
X757140Y229287D02*
X756871Y228943D01*
X757140Y228598*
X757408Y228943*
X757140Y229287*
X760092Y234110D02*
Y234455D01*
X760361Y235144*
X760629Y235488*
X761166Y235833*
X762240*
X762777Y235488*
X763045Y235144*
X763314Y234455*
Y233766*
X763045Y233077*
X762508Y232043*
X759824Y228598*
X763582*
X769756Y235833D02*
X767072Y228598D01*
X765998Y235833D02*
X769756D01*
X622906Y233421D02*
Y228598D01*
Y231354D02*
X623174Y232388D01*
X623711Y233077*
X624248Y233421*
X625053*
X627469Y231354D02*
X630690D01*
Y232043*
X630422Y232732*
X630153Y233077*
X629616Y233421*
X628811*
X628274Y233077*
X627737Y232388*
X627469Y231354*
Y230665*
X627737Y229632*
X628274Y228943*
X628811Y228598*
X629616*
X630153Y228943*
X630690Y229632*
X636059Y232388D02*
X635790Y233077D01*
X634985Y233421*
X634180*
X633374Y233077*
X633106Y232388*
X633374Y231699*
X633911Y231354*
X635253Y231010*
X635790Y230665*
X636059Y229976*
Y229632*
X635790Y228943*
X634985Y228598*
X634180*
X633374Y228943*
X633106Y229632*
X641427Y232388D02*
X641159Y233077D01*
X640354Y233421*
X639548*
X638743Y233077*
X638475Y232388*
X638743Y231699*
X639280Y231354*
X640622Y231010*
X641159Y230665*
X641427Y229976*
Y229632*
X641159Y228943*
X640354Y228598*
X639548*
X638743Y228943*
X638475Y229632*
G54D19*
X507087Y411811D02*
Y413386D01*
X508661*
X505512D02*
X507087D01*
Y414961*
X432677Y406693D02*
X431890D01*
Y420079*
X432677*
X581496Y406693D02*
X582283D01*
Y420079*
X581496*
X432283Y422835D02*
X429921Y420472D01*
Y425197*
X432283Y422835*
Y414961D02*
X437008D01*
Y422835*
X494173Y518779D02*
Y506181D01*
Y512480D02*
X499685D01*
Y518779D02*
Y506181D01*
X501378Y543110D02*
Y530512D01*
Y536811D02*
X506890D01*
Y543110D02*
Y530512D01*
X472047Y459055D02*
Y471653D01*
Y465354D02*
X466535D01*
Y459055D02*
Y471653D01*
X527067Y497146D02*
X514469D01*
X520768D02*
Y491634D01*
X527067D02*
X514469D01*
X484252Y459055D02*
Y471653D01*
Y465354D02*
X478740D01*
Y459055D02*
Y471653D01*
X480906Y515551D02*
Y528149D01*
Y521850D02*
X475394D01*
Y515551D02*
Y528149D01*
X478150Y459055D02*
Y471653D01*
Y465354D02*
X472638D01*
Y459055D02*
Y471653D01*
X471575Y482657D02*
X484173D01*
X477874D02*
Y488169D01*
X471575D02*
X484173D01*
X471575Y489153D02*
X484173D01*
X477874D02*
Y494665D01*
X471575D02*
X484173D01*
X489981Y495866D02*
X502579D01*
X496280D02*
Y501378D01*
X489981D02*
X502579D01*
X489981Y490669D02*
X502579D01*
X496280D02*
Y496181D01*
X489981D02*
X502579D01*
X515551Y451969D02*
Y464567D01*
Y458268D02*
X510039D01*
Y451969D02*
Y464567D01*
X477362Y450886D02*
X464764D01*
X471063D02*
Y445374D01*
X477362D02*
X464764D01*
X415748Y568898D02*
X428346D01*
X422047D02*
Y574410D01*
X415748D02*
X428346D01*
X415748Y575984D02*
X428346D01*
X422047D02*
Y581496D01*
X415748D02*
X428346D01*
X635433Y473228D02*
X622835D01*
X629134D02*
Y467716D01*
X635433D02*
X622835D01*
X415748Y411417D02*
X428346D01*
X422047D02*
Y416929D01*
X415748D02*
X428346D01*
X415748Y418504D02*
X428346D01*
X422047D02*
Y424016D01*
X415748D02*
X428346D01*
X624409Y491339D02*
X611811D01*
X618110D02*
Y485827D01*
X624409D02*
X611811D01*
X624409Y481496D02*
X611811D01*
X618110D02*
Y475984D01*
X624409D02*
X611811D01*
X587795Y497638D02*
Y485040D01*
Y491339D02*
X593307D01*
Y497638D02*
Y485040D01*
X600787D02*
Y497638D01*
Y491339D02*
X595275D01*
Y485040D02*
Y497638D01*
X637401Y486221D02*
X624803D01*
X631102D02*
Y480709D01*
X637401D02*
X624803D01*
X600393Y466536D02*
X587795D01*
X594094D02*
Y461024D01*
X600393D02*
X587795D01*
X488543Y518779D02*
Y506181D01*
Y512480D02*
X494055D01*
Y518779D02*
Y506181D01*
X527067Y503150D02*
X514469D01*
X520768D02*
Y497638D01*
X527067D02*
X514469D01*
X507087Y569291D02*
Y570866D01*
X508661*
X505512D02*
X507087D01*
Y572441*
X432677Y564173D02*
X431890D01*
Y577559*
X432677*
X581496Y564173D02*
X582283D01*
Y577559*
X581496*
X432283Y580315D02*
X429921Y577953D01*
Y582677*
X432283Y580315*
Y572441D02*
X437008D01*
Y580315*
X522953Y470197D02*
X535551D01*
Y475709*
X522953*
Y470197*
X535708Y489685D02*
X523110D01*
Y484173*
X535708*
Y489685*
X511063Y527441D02*
Y514843D01*
X516575*
Y527441*
X511063*
X505000D02*
Y514843D01*
X510512*
Y527441*
X505000*
X622835Y437795D02*
X635433D01*
Y443307*
X622835*
Y437795*
Y444094D02*
X635433D01*
Y449606*
X622835*
Y444094*
Y454331D02*
X635433D01*
Y459843*
X622835*
Y454331*
Y460630D02*
X635433D01*
Y466142*
X622835*
Y460630*
X429455Y803150D02*
G75*
G03X429455I-4258J0D01*
G01X689298D02*
G03X689298I-4259J0D01*
G01X429455Y377953D02*
G03X429455I-4258J0D01*
G01X689298D02*
G03X689298I-4259J0D01*
G01X589209Y412992D02*
X589298Y413238D01*
X589477Y413484*
X589656Y413607*
X590014*
X590193Y413484*
X590372Y413238*
X590462Y412992*
X590551Y412623*
Y412008*
X590462Y411639*
X590372Y411393*
X590193Y411147*
X590014Y411024*
X589656*
X589477Y411147*
X589298Y411393*
X589209Y411639*
X588404Y413607D02*
Y411024D01*
Y413607D02*
X587151Y411024D01*
Y413607D02*
Y411024D01*
X586346Y413115D02*
X586167Y413238D01*
X585898Y413607*
Y411024*
X503543Y509413D02*
X503765Y509324D01*
X503986Y509145*
X504097Y508966*
Y508608*
X503986Y508429*
X503765Y508250*
X503543Y508160*
X503211Y508071*
X502657*
X502325Y508160*
X502104Y508250*
X501882Y508429*
X501772Y508608*
Y508966*
X501882Y509145*
X502104Y509324*
X502325Y509413*
X503654Y510218D02*
X503765Y510397D01*
X504097Y510666*
X501772*
X503543Y511560D02*
X503654D01*
X503875Y511650*
X503986Y511739*
X504097Y511918*
Y512276*
X503986Y512455*
X503875Y512545*
X503654Y512634*
X503433*
X503211Y512545*
X502879Y512366*
X501772Y511471*
Y512724*
X499606Y537759D02*
X499828Y537670D01*
X500049Y537491*
X500160Y537312*
Y536954*
X500049Y536775*
X499828Y536596*
X499606Y536507*
X499274Y536417*
X498720*
X498388Y536507*
X498167Y536596*
X497945Y536775*
X497835Y536954*
Y537312*
X497945Y537491*
X498167Y537670*
X498388Y537759*
X499717Y538565D02*
X499828Y538744D01*
X500160Y539012*
X497835*
X500160Y539996D02*
Y540981D01*
X499274Y540444*
Y540712*
X499163Y540891*
X499053Y540981*
X498720Y541070*
X498499*
X498167Y540981*
X497945Y540802*
X497835Y540533*
Y540265*
X497945Y539996*
X498056Y539907*
X498278Y539817*
X468898Y454295D02*
X469119Y454205D01*
X469341Y454026*
X469451Y453848*
Y453490*
X469341Y453311*
X469119Y453132*
X468898Y453042*
X468565Y452953*
X468012*
X467680Y453042*
X467458Y453132*
X467237Y453311*
X467126Y453490*
Y453848*
X467237Y454026*
X467458Y454205*
X467680Y454295*
X469008Y455100D02*
X469119Y455279D01*
X469451Y455548*
X467126*
X469451Y457248D02*
X467901Y456353D01*
Y457695*
X469451Y457248D02*
X467126D01*
X531532Y495669D02*
X531621Y495891D01*
X531800Y496112*
X531979Y496223*
X532337*
X532516Y496112*
X532695Y495891*
X532785Y495669*
X532874Y495337*
Y494783*
X532785Y494451*
X532695Y494230*
X532516Y494008*
X532337Y493898*
X531979*
X531800Y494008*
X531621Y494230*
X531532Y494451*
X530727Y495780D02*
X530548Y495891D01*
X530279Y496223*
Y493898*
X528311Y496223D02*
X529205D01*
X529295Y495226*
X529205Y495337*
X528937Y495448*
X528669*
X528400Y495337*
X528221Y495116*
X528132Y494783*
X528221Y494562*
X528311Y494230*
X528490Y494008*
X528758Y493898*
X529026*
X529295Y494008*
X529384Y494119*
X529474Y494341*
X482283Y454295D02*
X482505Y454205D01*
X482726Y454026*
X482837Y453848*
Y453490*
X482726Y453311*
X482505Y453132*
X482283Y453042*
X481951Y452953*
X481398*
X481065Y453042*
X480844Y453132*
X480623Y453311*
X480512Y453490*
Y453848*
X480623Y454026*
X480844Y454205*
X481065Y454295*
X482394Y455100D02*
X482505Y455279D01*
X482837Y455548*
X480512*
X482505Y457427D02*
X482726Y457337D01*
X482837Y457069*
Y456890*
X482726Y456621*
X482394Y456442*
X481841Y456353*
X481287*
X480844Y456442*
X480623Y456621*
X480512Y456890*
Y456979*
X480623Y457248*
X480844Y457427*
X481176Y457516*
X481287*
X481619Y457427*
X481841Y457248*
X481951Y456979*
Y456890*
X481841Y456621*
X481619Y456442*
X481287Y456353*
X473622Y523586D02*
X473844Y523497D01*
X474065Y523318*
X474176Y523139*
Y522781*
X474065Y522602*
X473844Y522423*
X473622Y522334*
X473290Y522244*
X472736*
X472404Y522334*
X472183Y522423*
X471961Y522602*
X471850Y522781*
Y523139*
X471961Y523318*
X472183Y523497*
X472404Y523586*
X473733Y524392D02*
X473844Y524571D01*
X474176Y524839*
X471850*
X474176Y526092D02*
X474065Y525823D01*
X473844Y525734*
X473622*
X473401Y525823*
X473290Y526002*
X473179Y526360*
X473068Y526628*
X472847Y526807*
X472625Y526897*
X472293*
X472072Y526807*
X471961Y526718*
X471850Y526450*
Y526092*
X471961Y525823*
X472072Y525734*
X472293Y525644*
X472625*
X472847Y525734*
X473068Y525913*
X473179Y526181*
X473290Y526539*
X473401Y526718*
X473622Y526807*
X473844*
X474065Y526718*
X474176Y526450*
Y526092*
X472835Y454295D02*
X473056Y454205D01*
X473278Y454026*
X473388Y453848*
Y453490*
X473278Y453311*
X473056Y453132*
X472835Y453042*
X472502Y452953*
X471949*
X471617Y453042*
X471395Y453132*
X471174Y453311*
X471063Y453490*
Y453848*
X471174Y454026*
X471395Y454205*
X471617Y454295*
X472945Y455100D02*
X473056Y455279D01*
X473388Y455548*
X471063*
X472613Y457516D02*
X472281Y457427D01*
X472060Y457248*
X471949Y456979*
Y456890*
X472060Y456621*
X472281Y456442*
X472613Y456353*
X472724*
X473056Y456442*
X473278Y456621*
X473388Y456890*
Y456979*
X473278Y457248*
X473056Y457427*
X472613Y457516*
X472060*
X471506Y457427*
X471174Y457248*
X471063Y456979*
Y456800*
X471174Y456532*
X471395Y456442*
X476414Y480709D02*
X476503Y480930D01*
X476682Y481152*
X476861Y481262*
X477219*
X477398Y481152*
X477577Y480930*
X477666Y480709*
X477756Y480376*
Y479823*
X477666Y479491*
X477577Y479269*
X477398Y479048*
X477219Y478937*
X476861*
X476682Y479048*
X476503Y479269*
X476414Y479491*
X475519Y480709D02*
Y480819D01*
X475429Y481041*
X475340Y481152*
X475161Y481262*
X474803*
X474624Y481152*
X474535Y481041*
X474445Y480819*
Y480598*
X474535Y480376*
X474714Y480044*
X475608Y478937*
X474356*
X473014Y481262D02*
X473282Y481152D01*
X473461Y480819*
X473550Y480266*
Y479934*
X473461Y479380*
X473282Y479048*
X473014Y478937*
X472835*
X472566Y479048*
X472387Y479380*
X472298Y479934*
Y480266*
X472387Y480819*
X472566Y481152*
X472835Y481262*
X473014*
X475626Y498031D02*
X475716Y498253D01*
X475895Y498474*
X476074Y498585*
X476432*
X476611Y498474*
X476790Y498253*
X476879Y498031*
X476969Y497699*
Y497146*
X476879Y496813*
X476790Y496592*
X476611Y496371*
X476432Y496260*
X476074*
X475895Y496371*
X475716Y496592*
X475626Y496813*
X474732Y498031D02*
Y498142D01*
X474642Y498364*
X474553Y498474*
X474374Y498585*
X474016*
X473837Y498474*
X473747Y498364*
X473658Y498142*
Y497921*
X473747Y497699*
X473926Y497367*
X474821Y496260*
X473568*
X472763Y498142D02*
X472584Y498253D01*
X472316Y498585*
Y496260*
X488225Y498819D02*
X488314Y499040D01*
X488493Y499262*
X488672Y499373*
X489030*
X489209Y499262*
X489388Y499040*
X489477Y498819*
X489567Y498487*
Y497933*
X489477Y497601*
X489388Y497379*
X489209Y497158*
X489030Y497047*
X488672*
X488493Y497158*
X488314Y497379*
X488225Y497601*
X487330Y498819D02*
Y498930D01*
X487241Y499151*
X487151Y499262*
X486972Y499373*
X486614*
X486435Y499262*
X486346Y499151*
X486256Y498930*
Y498708*
X486346Y498487*
X486525Y498155*
X487419Y497047*
X486167*
X485272Y498819D02*
Y498930D01*
X485183Y499151*
X485093Y499262*
X484914Y499373*
X484556*
X484377Y499262*
X484288Y499151*
X484198Y498930*
Y498708*
X484288Y498487*
X484467Y498155*
X485361Y497047*
X484109*
X498461Y486220D02*
X498550Y486442D01*
X498729Y486663*
X498908Y486774*
X499266*
X499445Y486663*
X499624Y486442*
X499714Y486220*
X499803Y485888*
Y485335*
X499714Y485002*
X499624Y484781*
X499445Y484560*
X499266Y484449*
X498908*
X498729Y484560*
X498550Y484781*
X498461Y485002*
X497566Y486220D02*
Y486331D01*
X497477Y486553*
X497387Y486663*
X497208Y486774*
X496850*
X496671Y486663*
X496582Y486553*
X496492Y486331*
Y486110*
X496582Y485888*
X496761Y485556*
X497656Y484449*
X496403*
X495419Y486774D02*
X494434D01*
X494434D02*
X494971Y485888D01*
X494703*
X494524Y485778*
X494434Y485667*
X494434D02*
X494345Y485335D01*
Y485113*
X494434Y484781*
X494434D02*
X494613Y484560D01*
X494882Y484449*
X495150*
X495419Y484560*
X495508Y484670*
X495598Y484892*
X507480Y458232D02*
X507702Y458142D01*
X507923Y457963*
X508034Y457785*
Y457427*
X507923Y457248*
X507702Y457069*
X507480Y456979*
X507148Y456890*
X506594*
X506262Y456979*
X506041Y457069*
X505819Y457248*
X505709Y457427*
Y457785*
X505819Y457963*
X506041Y458142*
X506262Y458232*
X507480Y459127D02*
X507591D01*
X507813Y459216*
X507813D02*
X507923Y459306D01*
X508034Y459485*
Y459843*
X507923Y460021*
X507813Y460111*
X507813D02*
X507591Y460200D01*
X507370*
X507148Y460111*
X506816Y459932*
X505709Y459037*
Y460290*
X508034Y461990D02*
X506484Y461095D01*
Y462437*
X508034Y461990D02*
X505709D01*
X472477Y442126D02*
X472566Y442347D01*
X472745Y442569*
X472924Y442680*
X473282*
X473461Y442569*
X473640Y442347*
X473729Y442126*
X473819Y441794*
Y441240*
X473729Y440908*
X473640Y440687*
X473461Y440465*
X473282Y440354*
X472924*
X472745Y440465*
X472566Y440687*
X472477Y440908*
X471582Y442126D02*
Y442237D01*
X471492Y442458*
X471403Y442569*
X471224Y442680*
X470866*
X470687Y442569*
X470598Y442458*
X470508Y442237*
Y442015*
X470598Y441794*
X470777Y441462*
X471671Y440354*
X470419*
X468450Y442680D02*
X469345D01*
X469435Y441683*
X469435D02*
X469345Y441794D01*
X469077Y441905*
X468808*
X468540Y441794*
X468361Y441572*
X468271Y441240*
X468361Y441019*
X468450Y440687*
X468629Y440465*
X468898Y440354*
X469166*
X469435Y440465*
X469435D02*
X469524Y440576D01*
X469613Y440797*
X422870Y567323D02*
X422960Y567544D01*
X423139Y567766*
X423318Y567876*
X423676*
X423855Y567766*
X424034Y567544*
X424123Y567323*
X424213Y566991*
Y566437*
X424123Y566105*
X424034Y565883*
X423855Y565662*
X423676Y565551*
X423318*
X423139Y565662*
X422960Y565883*
X422870Y566105*
X421886Y567876D02*
X420902D01*
X421439Y566991*
X421170*
X420991Y566880*
X420902Y566769*
X420812Y566437*
Y566216*
X420902Y565883*
X421081Y565662*
X421349Y565551*
X421618*
X421886Y565662*
X421976Y565773*
X422065Y565994*
X419470Y567876D02*
X419739Y567766D01*
X419918Y567434*
X420007Y566880*
Y566548*
X419918Y565994*
X419739Y565662*
X419470Y565551*
X419291*
X419023Y565662*
X418844Y565994*
X418754Y566548*
Y566880*
X418844Y567434*
X419023Y567766*
X419291Y567876*
X419470*
X422083Y584646D02*
X422173Y584867D01*
X422351Y585089*
X422530Y585199*
X422888*
X423067Y585089*
X423246Y584867*
X423336Y584646*
X423425Y584313*
Y583760*
X423336Y583428*
X423246Y583206*
X423067Y582985*
X422888Y582874*
X422530*
X422351Y582985*
X422173Y583206*
X422083Y583428*
X421099Y585199D02*
X420115D01*
X420651Y584313*
X420383*
X420204Y584203*
X420115Y584092*
X420025Y583760*
Y583538*
X420115Y583206*
X420293Y582985*
X420562Y582874*
X420830*
X421099Y582985*
X421188Y583095*
X421278Y583317*
X419220Y584756D02*
X419041Y584867D01*
X418772Y585199*
Y582874*
X619721Y470472D02*
X619810Y470694D01*
X619989Y470915*
X620168Y471026*
X620526*
X620705Y470915*
X620884Y470694*
X620974Y470472*
X621063Y470140*
Y469587*
X620974Y469254*
X620884Y469033*
X620705Y468812*
X620526Y468701*
X620168*
X619989Y468812*
X619810Y469033*
X619721Y469254*
X618737Y471026D02*
X617752D01*
X618289Y470140*
X618021*
X617842Y470030*
X617752Y469919*
X617663Y469587*
Y469365*
X617752Y469033*
X617931Y468812*
X618200Y468701*
X618468*
X618737Y468812*
X618826Y468922*
X618916Y469144*
X616768Y470472D02*
Y470583D01*
X616679Y470805*
X616589Y470915*
X616410Y471026*
X616052*
X615873Y470915*
X615784Y470805*
X615694Y470583*
Y470362*
X615784Y470140*
X615963Y469808*
X616858Y468701*
X615605*
X409485Y414567D02*
X409574Y414788D01*
X409753Y415010*
X409932Y415121*
X410290*
X410469Y415010*
X410648Y414788*
X410737Y414567*
X410827Y414235*
Y413681*
X410737Y413349*
X410648Y413127*
X410469Y412906*
X410290Y412795*
X409932*
X409753Y412906*
X409574Y413127*
X409485Y413349*
X408500Y415121D02*
X407516D01*
X408053Y414235*
X407785*
X407606Y414124*
X407516Y414013*
X407427Y413681*
Y413460*
X407516Y413127*
X407695Y412906*
X407963Y412795*
X408232*
X408500Y412906*
X408590Y413017*
X408679Y413238*
X405727Y415121D02*
X406621Y413570D01*
X405279*
X405727Y415121D02*
Y412795D01*
X409485Y421654D02*
X409574Y421875D01*
X409753Y422096*
X409932Y422207*
X410290*
X410469Y422096*
X410648Y421875*
X410737Y421654*
X410827Y421321*
Y420768*
X410737Y420436*
X410648Y420214*
X410469Y419993*
X410290Y419882*
X409932*
X409753Y419993*
X409574Y420214*
X409485Y420436*
X408500Y422207D02*
X407516D01*
X408053Y421321*
X407785*
X407606Y421211*
X407516Y421100*
X407427Y420768*
Y420546*
X407516Y420214*
X407695Y419993*
X407963Y419882*
X408232*
X408500Y419993*
X408590Y420103*
X408679Y420325*
X405458Y422207D02*
X406353D01*
X406442Y421211*
X406353Y421321*
X406084Y421432*
X405816*
X405548Y421321*
X405369Y421100*
X405279Y420768*
X405369Y420546*
X405458Y420214*
X405637Y419993*
X405906Y419882*
X406174*
X406442Y419993*
X406532Y420103*
X406621Y420325*
X608697Y488583D02*
X608787Y488804D01*
X608966Y489026*
X609145Y489136*
X609503*
X609681Y489026*
X609860Y488804*
X609950Y488583*
X610039Y488250*
Y487697*
X609950Y487365*
X609860Y487143*
X609681Y486922*
X609503Y486811*
X609145*
X608966Y486922*
X608787Y487143*
X608697Y487365*
X607713Y489136D02*
X606729D01*
X607266Y488250*
X606997*
X606818Y488140*
X606729Y488029*
X606639Y487697*
Y487475*
X606729Y487143*
X606908Y486922*
X607176Y486811*
X607445*
X607713Y486922*
X607802Y487032*
X607892Y487254*
X604581Y489136D02*
X605476Y486811D01*
X605834Y489136D02*
X604581D01*
X608697Y482283D02*
X608787Y482505D01*
X608966Y482726*
X609145Y482837*
X609503*
X609681Y482726*
X609860Y482505*
X609950Y482283*
X610039Y481951*
Y481398*
X609950Y481065*
X609860Y480844*
X609681Y480623*
X609503Y480512*
X609145*
X608966Y480623*
X608787Y480844*
X608697Y481065*
X607713Y482837D02*
X606729D01*
X607266Y481951*
X606997*
X606818Y481841*
X606729Y481730*
X606639Y481398*
Y481176*
X606729Y480844*
X606908Y480623*
X607176Y480512*
X607445*
X607713Y480623*
X607802Y480733*
X607892Y480955*
X605387Y482837D02*
X605655Y482726D01*
X605744Y482505*
Y482283*
X605655Y482062*
X605476Y481951*
X605118Y481841*
X604850Y481730*
X604671Y481508*
X604581Y481287*
Y480955*
X604671Y480733*
X604760Y480623*
X605029Y480512*
X605387*
X605655Y480623*
X605744Y480733*
X605834Y480955*
Y481287*
X605744Y481508*
X605565Y481730*
X605565D02*
X605297Y481841D01*
X604939Y481951*
X604760Y482062*
X604671Y482283*
Y482505*
X604760Y482726*
X605029Y482837*
X605387*
X590945Y500752D02*
X591166Y500662D01*
X591388Y500483*
X591499Y500304*
Y499946*
X591388Y499767*
X591166Y499588*
X590945Y499499*
X590613Y499409*
X590059*
X589727Y499499*
X589505Y499588*
X589284Y499767*
X589173Y499946*
Y500304*
X589284Y500483*
X589505Y500662*
X589727Y500752*
X591499Y501736D02*
Y502720D01*
X590613Y502183*
Y502452*
X590502Y502631*
X590391Y502720*
X590059Y502810*
X589838*
X589505Y502720*
X589284Y502541*
X589173Y502273*
Y502004*
X589284Y501736*
X589395Y501646*
X589616Y501557*
X590723Y504778D02*
X590391Y504689D01*
X590170Y504510*
X590059Y504241*
Y504152*
X590170Y503883*
X590391Y503704*
X590723Y503615*
X590834*
X591166Y503704*
X591388Y503883*
X591499Y504152*
Y504241*
X591388Y504510*
X591166Y504689*
X590723Y504778*
X590170*
X589616Y504689*
X589284Y504510*
X589173Y504241*
Y504062*
X589284Y503794*
X589505Y503704*
X598819Y500752D02*
X599040Y500662D01*
X599262Y500483*
X599373Y500304*
Y499946*
X599262Y499767*
X599040Y499588*
X598819Y499499*
X598487Y499409*
X597933*
X597601Y499499*
X597379Y499588*
X597158Y499767*
X597047Y499946*
Y500304*
X597158Y500483*
X597379Y500662*
X597601Y500752*
X599373Y502452D02*
X597822Y501557D01*
Y502899*
X599373Y502452D02*
X597047D01*
X599373Y504241D02*
X599262Y503973D01*
X598930Y503794*
X598376Y503704*
X598044*
X597490Y503794*
X597158Y503973*
X597047Y504241*
Y504420*
X597158Y504689*
X597490Y504868*
X598044Y504957*
X598376*
X598930Y504868*
X599262Y504689*
X599373Y504420*
Y504241*
X631532Y489370D02*
X631621Y489592D01*
X631800Y489813*
X631979Y489924*
X632337*
X632516Y489813*
X632695Y489592*
X632785Y489370*
X632874Y489038*
Y488484*
X632785Y488152*
X632695Y487931*
X632516Y487709*
X632337Y487598*
X631979*
X631800Y487709*
X631621Y487931*
X631532Y488152*
X629832Y489924D02*
X630727Y488374D01*
X629384*
X629832Y489924D02*
Y487598D01*
X628579Y489481D02*
X628400Y489592D01*
X628132Y489924*
Y487598*
X596099Y458661D02*
X596188Y458883D01*
X596367Y459104*
X596546Y459215*
X596904*
X597083Y459104*
X597262Y458883*
X597351Y458661*
X597441Y458329*
Y457776*
X597351Y457443*
X597262Y457222*
X597083Y457000*
X596904Y456890*
X596546*
X596367Y457000*
X596188Y457222*
X596099Y457443*
X594399Y459215D02*
X595293Y457665D01*
X593951*
X594399Y459215D02*
Y456890D01*
X593057Y458661D02*
Y458772D01*
X592967Y458994*
X592878Y459104*
X592699Y459215*
X592341*
X592162Y459104*
X592072Y458994*
X591983Y458772*
Y458551*
X592072Y458329*
X592251Y457997*
X593146Y456890*
X591893*
X486220Y509413D02*
X486442Y509324D01*
X486663Y509145*
X486774Y508966*
Y508608*
X486663Y508429*
X486442Y508250*
X486220Y508160*
X485888Y508071*
X485335*
X485002Y508160*
X484781Y508250*
X484560Y508429*
X484449Y508608*
Y508966*
X484560Y509145*
X484781Y509324*
X485002Y509413*
X486774Y510666D02*
X486663Y510397D01*
X486442Y510308*
X486220*
X485999Y510397*
X485888Y510576*
X485778Y510934*
X485667Y511203*
X485445Y511382*
X485224Y511471*
X484892*
X484670Y511382*
X484560Y511292*
X484449Y511024*
Y510666*
X484560Y510397*
X484670Y510308*
X484892Y510218*
X485224*
X485445Y510308*
X485667Y510487*
X485778Y510755*
X485888Y511113*
X485999Y511292*
X486220Y511382*
X486442*
X486663Y511292*
X486774Y511024*
Y510666*
X531532Y500394D02*
X531621Y500615D01*
X531800Y500837*
X531979Y500947*
X532337*
X532516Y500837*
X532695Y500615*
X532785Y500394*
X532874Y500062*
Y499508*
X532785Y499176*
X532695Y498954*
X532516Y498733*
X532337Y498622*
X531979*
X531800Y498733*
X531621Y498954*
X531532Y499176*
X529563Y500172D02*
X529653Y499840D01*
X529832Y499619*
X530100Y499508*
X530190*
X530458Y499619*
X530637Y499840*
X530727Y500172*
Y500283*
X530637Y500615*
X530458Y500837*
X530190Y500947*
X530100*
X529832Y500837*
X529653Y500615*
X529563Y500172*
Y499619*
X529653Y499065*
X529832Y498733*
X530100Y498622*
X530279*
X530548Y498733*
X530637Y498954*
X589996Y570866D02*
X590086Y571112D01*
X590265Y571358*
X590444Y571481*
X590802*
X590981Y571358*
X591160Y571112*
X591249Y570866*
X591339Y570497*
Y569882*
X591249Y569513*
X591160Y569267*
X590981Y569021*
X590802Y568898*
X590444*
X590265Y569021*
X590086Y569267*
X589996Y569513*
X589191Y571481D02*
Y568898D01*
Y571481D02*
X587938Y568898D01*
Y571481D02*
Y568898D01*
X587044Y570866D02*
Y570989D01*
X586954Y571235*
X586865Y571358*
X586686Y571481*
X586328*
X586149Y571358*
X586059Y571235*
X585970Y570989*
Y570743*
X586059Y570497*
X586238Y570128*
X587133Y568898*
X585880*
X530512Y468664D02*
Y466339D01*
Y468664D02*
X529707D01*
X529438Y468553*
X529349Y468442*
X529259Y468221*
Y468000*
X529349Y467778*
X529438Y467667*
X529707Y467557*
X530512*
X529885D02*
X529259Y466339D01*
X528454Y468221D02*
X528275Y468332D01*
X528006Y468664*
Y466339*
X526306Y468664D02*
X527201Y467114D01*
X525859*
X526306Y468664D02*
Y466339D01*
X530512Y482837D02*
Y480512D01*
Y482837D02*
X529707D01*
X529438Y482726*
X529349Y482616*
X529259Y482394*
Y482173*
X529349Y481951*
X529438Y481841*
X529707Y481730*
X530512*
X529885D02*
X529259Y480512D01*
X528454Y482394D02*
X528275Y482505D01*
X528006Y482837*
Y480512*
X526038Y482837D02*
X526933D01*
X527022Y481841*
X526933Y481951*
X526664Y482062*
X526396*
X526127Y481951*
X525948Y481730*
X525859Y481398*
X525948Y481176*
X526038Y480844*
X526217Y480623*
X526485Y480512*
X526754*
X527022Y480623*
X527112Y480733*
X527201Y480955*
X515121Y508858D02*
X512795D01*
X515121D02*
Y509664D01*
X515010Y509932*
X514899Y510021*
X514678Y510111*
X514456*
X514235Y510021*
X514124Y509932*
X514013Y509664*
Y508858*
Y509485D02*
X512795Y510111D01*
X514678Y510916D02*
X514788Y511095D01*
X515121Y511364*
X512795*
X515121Y512616D02*
X515010Y512348D01*
X514788Y512258*
X514567*
X514345Y512348*
X514235Y512527*
X514124Y512885*
X514013Y513153*
X513792Y513332*
X513570Y513422*
X513238*
X513017Y513332*
X512906Y513243*
X512795Y512974*
Y512616*
X512906Y512348*
X513017Y512258*
X513238Y512169*
X513570*
X513792Y512258*
X514013Y512437*
X514124Y512706*
X514235Y513064*
X514345Y513243*
X514567Y513332*
X514788*
X515010Y513243*
X515121Y512974*
Y512616*
X511184Y508858D02*
X508858D01*
X511184D02*
Y509664D01*
X511073Y509932*
X510962Y510021*
X510741Y510111*
X510519*
X510298Y510021*
X510187Y509932*
X510076Y509664*
Y508858*
Y509485D02*
X508858Y510111D01*
X510741Y510916D02*
X510851Y511095D01*
X511184Y511364*
X508858*
X510408Y513332D02*
X510076Y513243D01*
X509855Y513064*
X509744Y512795*
Y512706*
X509855Y512437*
X510076Y512258*
X510408Y512169*
X510519*
X510851Y512258*
X511073Y512437*
X511184Y512706*
Y512795*
X511073Y513064*
X510851Y513243*
X510408Y513332*
X509855*
X509301Y513243*
X508969Y513064*
X508858Y512795*
Y512616*
X508969Y512348*
X509190Y512258*
X619488Y440317D02*
Y437992D01*
Y440317D02*
X618683D01*
X618414Y440207*
X618325Y440096*
X618236Y439875*
Y439653*
X618325Y439432*
X618414Y439321*
X618683Y439210*
X619488*
X618862D02*
X618236Y437992D01*
X617251Y440317D02*
X616267D01*
X616804Y439432*
X616535*
X616356Y439321*
X616267Y439210*
X616178Y438878*
Y438656*
X616178D02*
X616267Y438324D01*
X616446Y438103*
X616714Y437992*
X616983*
X617251Y438103*
X617341Y438214*
X617430Y438435*
X615372Y439875D02*
X615193Y439985D01*
X614925Y440317*
Y437992*
X619488Y445042D02*
Y442717D01*
Y445042D02*
X618683D01*
X618414Y444931*
X618325Y444820*
X618236Y444599*
Y444377*
X618325Y444156*
X618414Y444045*
X618683Y443935*
X619488*
X618862D02*
X618236Y442717D01*
X617251Y445042D02*
X616267D01*
X616804Y444156*
X616535*
X616356Y444045*
X616267Y443935*
X616178Y443602*
Y443381*
X616267Y443049*
X616446Y442827*
X616714Y442717*
X616983*
X617251Y442827*
X617341Y442938*
X617430Y443159*
X615283Y444488D02*
Y444599D01*
X615193Y444820*
X615104Y444931*
X614925Y445042*
X614567*
X614388Y444931*
X614298Y444820*
X614209Y444599*
Y444377*
X614298Y444156*
X614477Y443824*
X615372Y442717*
X614120*
X620276Y457640D02*
Y455315D01*
Y457640D02*
X619470D01*
X619202Y457530*
X619112Y457419*
X619023Y457197*
Y456976*
X619112Y456754*
X619202Y456644*
X619470Y456533*
X620276*
X619649D02*
X619023Y455315D01*
X618039Y457640D02*
X617054D01*
X617591Y456754*
X617323*
X617144Y456644*
X617054Y456533*
X616965Y456201*
Y455979*
X617054Y455647*
X617233Y455426*
X617502Y455315*
X617770*
X618039Y455426*
X618128Y455536*
X618218Y455758*
X615981Y457640D02*
X614996D01*
X615533Y456754*
X615265*
X615086Y456644*
X614996Y456533*
X614907Y456201*
Y455979*
X614996Y455647*
X615175Y455426*
X615444Y455315*
X615712*
X615981Y455426*
X616070Y455536*
X616160Y455758*
X620276Y464727D02*
Y462402D01*
Y464727D02*
X619470D01*
X619202Y464616*
X619112Y464505*
X619023Y464284*
Y464063*
X619112Y463841*
X619202Y463730*
X619470Y463620*
X620276*
X619649D02*
X619023Y462402D01*
X618039Y464727D02*
X617054D01*
X617591Y463841*
X617323*
X617144Y463730*
X617054Y463620*
X616965Y463287*
Y463066*
X617054Y462734*
X617233Y462512*
X617502Y462402*
X617770*
X618039Y462512*
X618128Y462623*
X618218Y462844*
X615265Y464727D02*
X616160Y463177D01*
X614817*
X615265Y464727D02*
Y462402D01*
X430011Y402756D02*
Y402633D01*
X430100Y402387*
X430190Y402264*
X430369Y402141*
X430727*
X430906Y402264*
X430995Y402387*
X431084Y402633*
Y402879*
X430995Y403125*
X430816Y403494*
X429921Y404724*
X431174*
X583751Y403297D02*
X583661Y403051D01*
X583393Y402928*
X583214*
X582946Y403051*
X582767Y403420*
X582677Y404035*
Y404651*
X582767Y405143*
X582946Y405389*
X583214Y405512*
X583304*
X583572Y405389*
X583751Y405143*
X583840Y404774*
Y404651*
X583751Y404281*
X583572Y404035*
X583304Y403912*
X583214*
X582946Y404035*
X582767Y404281*
X582677Y404651*
X585183Y402928D02*
X584914Y403051D01*
X584735Y403420*
X584646Y404035*
Y404405*
X584735Y405020*
X584914Y405389*
X585183Y405512*
X585361*
X585630Y405389*
X585809Y405020*
X585898Y404405*
Y404035*
X585809Y403420*
X585630Y403051*
X585361Y402928*
X585183*
X583840Y421826D02*
X582946D01*
X582856Y422933*
X582946Y422810*
X583214Y422687*
X583482*
X583751Y422810*
X583930Y423056*
X584019Y423425*
X583930Y423671*
X583840Y424040*
X583661Y424286*
X583393Y424409*
X583125*
X582856Y424286*
X582767Y424163*
X582677Y423917*
X585988Y422687D02*
X585898Y423056D01*
X585719Y423302*
X585451Y423425*
X585361*
X585093Y423302*
X584914Y423056*
X584825Y422687*
Y422564*
X584914Y422195*
X585093Y421949*
X585361Y421826*
X585451*
X585719Y421949*
X585898Y422195*
X585988Y422687*
Y423302*
X585898Y423917*
X585719Y424286*
X585451Y424409*
X585272*
X585004Y424286*
X584914Y424040*
X430011Y560236D02*
Y560113D01*
X430100Y559867*
X430190Y559744*
X430369Y559621*
X430727*
X430906Y559744*
X430995Y559867*
X431084Y560113*
Y560359*
X430995Y560605*
X430816Y560974*
X429921Y562205*
X431174*
X583751Y560778D02*
X583661Y560531D01*
X583393Y560408*
X583214*
X582946Y560531*
X582767Y560901*
X582677Y561516*
Y562131*
X582767Y562623*
X582946Y562869*
X583214Y562992*
X583304*
X583572Y562869*
X583751Y562623*
X583840Y562254*
Y562131*
X583751Y561762*
X583572Y561516*
X583304Y561393*
X583214*
X582946Y561516*
X582767Y561762*
X582677Y562131*
X585183Y560408D02*
X584914Y560531D01*
X584735Y560901*
X584646Y561516*
Y561885*
X584735Y562500*
X584914Y562869*
X585183Y562992*
X585361*
X585630Y562869*
X585809Y562500*
X585898Y561885*
Y561516*
X585809Y560901*
X585630Y560531*
X585361Y560408*
X585183*
X583840Y579306D02*
X582946D01*
X582856Y580413*
X582946Y580290*
X583214Y580167*
X583482*
X583751Y580290*
X583930Y580536*
X584019Y580906*
X583930Y581152*
X583840Y581521*
X583661Y581767*
X583393Y581890*
X583125*
X582856Y581767*
X582767Y581644*
X582677Y581398*
X585988Y580167D02*
X585898Y580536D01*
X585719Y580782*
X585451Y580906*
X585361*
X585093Y580782*
X584914Y580536*
X584825Y580167*
Y580044*
X584914Y579675*
X585093Y579429*
X585361Y579306*
X585451*
X585719Y579429*
X585898Y579675*
X585988Y580167*
Y580782*
X585898Y581398*
X585719Y581767*
X585451Y581890*
X585272*
X585004Y581767*
X584914Y581521*
X433465Y572480D02*
X581181D01*
Y569409*
X433465*
Y572480*
X436614Y581102D02*
X437598D01*
Y560630*
X436614*
Y581102*
X441535D02*
X442520D01*
Y560630*
X441535*
Y581102*
X451575D02*
X452559D01*
Y560630*
X451575*
Y581102*
X446654D02*
X447638D01*
Y560630*
X446654*
Y581102*
X456575D02*
X457559D01*
Y560630*
X456575*
Y581102*
X461575D02*
X462559D01*
Y560630*
X461575*
Y581102*
X466575D02*
X467559D01*
Y560630*
X466575*
Y581102*
X481575D02*
X482559D01*
Y560630*
X481575*
Y581102*
X476575D02*
X477559D01*
Y560630*
X476575*
Y581102*
X471575D02*
X472559D01*
Y560630*
X471575*
Y581102*
X496575D02*
X497559D01*
Y560630*
X496575*
Y581102*
X491575D02*
X492559D01*
Y560630*
X491575*
Y581102*
X486575D02*
X487559D01*
Y560630*
X486575*
Y581102*
X511575D02*
X512559D01*
Y560630*
X511575*
Y581102*
X506575D02*
X507559D01*
Y560630*
X506575*
Y581102*
X501575D02*
X502559D01*
Y560630*
X501575*
Y581102*
X526575D02*
X527559D01*
Y560630*
X526575*
Y581102*
X521575D02*
X522559D01*
Y560630*
X521575*
Y581102*
X516575D02*
X517559D01*
Y560630*
X516575*
Y581102*
X541575D02*
X542559D01*
Y560630*
X541575*
Y581102*
X536575D02*
X537559D01*
Y560630*
X536575*
Y581102*
X531575D02*
X532559D01*
Y560630*
X531575*
Y581102*
X556575D02*
X557559D01*
Y560630*
X556575*
Y581102*
X551575D02*
X552559D01*
Y560630*
X551575*
Y581102*
X546575D02*
X547559D01*
Y560630*
X546575*
Y581102*
X571575D02*
X572559D01*
Y560630*
X571575*
Y581102*
X566575D02*
X567559D01*
Y560630*
X566575*
Y581102*
X561575D02*
X562559D01*
Y560630*
X561575*
Y581102*
X576575D02*
X577559D01*
Y560630*
X576575*
Y581102*
X433465Y414980D02*
X581181D01*
Y411909*
X433465*
Y414980*
X436614Y423602D02*
X437598D01*
Y403130*
X436614*
Y423602*
X441535D02*
X442520D01*
Y403130*
X441535*
Y423602*
X451575D02*
X452559D01*
Y403130*
X451575*
Y423602*
X446654D02*
X447638D01*
Y403130*
X446654*
Y423602*
X456575D02*
X457559D01*
Y403130*
X456575*
Y423602*
X461575D02*
X462559D01*
Y403130*
X461575*
Y423602*
X466575D02*
X467559D01*
Y403130*
X466575*
Y423602*
X481575D02*
X482559D01*
Y403130*
X481575*
Y423602*
X476575D02*
X477559D01*
Y403130*
X476575*
Y423602*
X471575D02*
X472559D01*
Y403130*
X471575*
Y423602*
X496575D02*
X497559D01*
Y403130*
X496575*
Y423602*
X491575D02*
X492559D01*
Y403130*
X491575*
Y423602*
X486575D02*
X487559D01*
Y403130*
X486575*
Y423602*
X511575D02*
X512559D01*
Y403130*
X511575*
Y423602*
X506575D02*
X507559D01*
Y403130*
X506575*
Y423602*
X501575D02*
X502559D01*
Y403130*
X501575*
Y423602*
X526575D02*
X527559D01*
Y403130*
X526575*
Y423602*
X521575D02*
X522559D01*
Y403130*
X521575*
Y423602*
X516575D02*
X517559D01*
Y403130*
X516575*
Y423602*
X541575D02*
X542559D01*
Y403130*
X541575*
Y423602*
X536575D02*
X537559D01*
Y403130*
X536575*
Y423602*
X531575D02*
X532559D01*
Y403130*
X531575*
Y423602*
X556575D02*
X557559D01*
Y403130*
X556575*
Y423602*
X551575D02*
X552559D01*
Y403130*
X551575*
Y423602*
X546575D02*
X547559D01*
Y403130*
X546575*
Y423602*
X571575D02*
X572559D01*
Y403130*
X571575*
Y423602*
X566575D02*
X567559D01*
Y403130*
X566575*
Y423602*
X561575D02*
X562559D01*
Y403130*
X561575*
Y423602*
X576575D02*
X577559D01*
Y403130*
X576575*
Y423602*
X433465Y572243D02*
X581181D01*
X433465Y571888D02*
X581181D01*
X433465Y571534D02*
X581181D01*
X433465Y571180D02*
X581181D01*
X433465Y570825D02*
X581181D01*
X433465Y570471D02*
X581181D01*
X433465Y570117D02*
X581181D01*
X433465Y569762D02*
X581181D01*
X436614Y580825D02*
X437598D01*
X436614Y580471D02*
X437598D01*
X436614Y580117D02*
X437598D01*
X436614Y579762D02*
X437598D01*
X436614Y579408D02*
X437598D01*
X436614Y579054D02*
X437598D01*
X436614Y578699D02*
X437598D01*
X436614Y578345D02*
X437598D01*
X436614Y577991D02*
X437598D01*
X436614Y577636D02*
X437598D01*
X436614Y577282D02*
X437598D01*
X436614Y576928D02*
X437598D01*
X436614Y576573D02*
X437598D01*
X436614Y576219D02*
X437598D01*
X436614Y575865D02*
X437598D01*
X436614Y575510D02*
X437598D01*
X436614Y575156D02*
X437598D01*
X436614Y574802D02*
X437598D01*
X436614Y574448D02*
X437598D01*
X436614Y574093D02*
X437598D01*
X436614Y573739D02*
X437598D01*
X436614Y573385D02*
X437598D01*
X436614Y573030D02*
X437598D01*
X436614Y572676D02*
X437598D01*
X436614Y572322D02*
X437598D01*
X436614Y571967D02*
X437598D01*
X436614Y571613D02*
X437598D01*
X436614Y571259D02*
X437598D01*
X436614Y570904D02*
X437598D01*
X436614Y570550D02*
X437598D01*
X436614Y570196D02*
X437598D01*
X436614Y569841D02*
X437598D01*
X436614Y569487D02*
X437598D01*
X436614Y569133D02*
X437598D01*
X436614Y568778D02*
X437598D01*
X436614Y568424D02*
X437598D01*
X436614Y568070D02*
X437598D01*
X436614Y567715D02*
X437598D01*
X436614Y567361D02*
X437598D01*
X436614Y567007D02*
X437598D01*
X436614Y566652D02*
X437598D01*
X436614Y566298D02*
X437598D01*
X436614Y565944D02*
X437598D01*
X436614Y565589D02*
X437598D01*
X436614Y565235D02*
X437598D01*
X436614Y564881D02*
X437598D01*
X436614Y564526D02*
X437598D01*
X436614Y564172D02*
X437598D01*
X436614Y563818D02*
X437598D01*
X436614Y563463D02*
X437598D01*
X436614Y563109D02*
X437598D01*
X436614Y562755D02*
X437598D01*
X436614Y562400D02*
X437598D01*
X436614Y562046D02*
X437598D01*
X436614Y561692D02*
X437598D01*
X436614Y561337D02*
X437598D01*
X436614Y560983D02*
X437598D01*
X441535Y580825D02*
X442520D01*
X441535Y580471D02*
X442520D01*
X441535Y580117D02*
X442520D01*
X441535Y579762D02*
X442520D01*
X441535Y579408D02*
X442520D01*
X441535Y579054D02*
X442520D01*
X441535Y578699D02*
X442520D01*
X441535Y578345D02*
X442520D01*
X441535Y577991D02*
X442520D01*
X441535Y577636D02*
X442520D01*
X441535Y577282D02*
X442520D01*
X441535Y576928D02*
X442520D01*
X441535Y576573D02*
X442520D01*
X441535Y576219D02*
X442520D01*
X441535Y575865D02*
X442520D01*
X441535Y575510D02*
X442520D01*
X441535Y575156D02*
X442520D01*
X441535Y574802D02*
X442520D01*
X441535Y574448D02*
X442520D01*
X441535Y574093D02*
X442520D01*
X441535Y573739D02*
X442520D01*
X441535Y573385D02*
X442520D01*
X441535Y573030D02*
X442520D01*
X441535Y572676D02*
X442520D01*
X441535Y572322D02*
X442520D01*
X441535Y571967D02*
X442520D01*
X441535Y571613D02*
X442520D01*
X441535Y571259D02*
X442520D01*
X441535Y570904D02*
X442520D01*
X441535Y570550D02*
X442520D01*
X441535Y570196D02*
X442520D01*
X441535Y569841D02*
X442520D01*
X441535Y569487D02*
X442520D01*
X441535Y569133D02*
X442520D01*
X441535Y568778D02*
X442520D01*
X441535Y568424D02*
X442520D01*
X441535Y568070D02*
X442520D01*
X441535Y567715D02*
X442520D01*
X441535Y567361D02*
X442520D01*
X441535Y567007D02*
X442520D01*
X441535Y566652D02*
X442520D01*
X441535Y566298D02*
X442520D01*
X441535Y565944D02*
X442520D01*
X441535Y565589D02*
X442520D01*
X441535Y565235D02*
X442520D01*
X441535Y564881D02*
X442520D01*
X441535Y564526D02*
X442520D01*
X441535Y564172D02*
X442520D01*
X441535Y563818D02*
X442520D01*
X441535Y563463D02*
X442520D01*
X441535Y563109D02*
X442520D01*
X441535Y562755D02*
X442520D01*
X441535Y562400D02*
X442520D01*
X441535Y562046D02*
X442520D01*
X441535Y561692D02*
X442520D01*
X441535Y561337D02*
X442520D01*
X441535Y560983D02*
X442520D01*
X451575Y580825D02*
X452559D01*
X451575Y580471D02*
X452559D01*
X451575Y580117D02*
X452559D01*
X451575Y579762D02*
X452559D01*
X451575Y579408D02*
X452559D01*
X451575Y579054D02*
X452559D01*
X451575Y578699D02*
X452559D01*
X451575Y578345D02*
X452559D01*
X451575Y577991D02*
X452559D01*
X451575Y577636D02*
X452559D01*
X451575Y577282D02*
X452559D01*
X451575Y576928D02*
X452559D01*
X451575Y576573D02*
X452559D01*
X451575Y576219D02*
X452559D01*
X451575Y575865D02*
X452559D01*
X451575Y575510D02*
X452559D01*
X451575Y575156D02*
X452559D01*
X451575Y574802D02*
X452559D01*
X451575Y574448D02*
X452559D01*
X451575Y574093D02*
X452559D01*
X451575Y573739D02*
X452559D01*
X451575Y573385D02*
X452559D01*
X451575Y573030D02*
X452559D01*
X451575Y572676D02*
X452559D01*
X451575Y572322D02*
X452559D01*
X451575Y571967D02*
X452559D01*
X451575Y571613D02*
X452559D01*
X451575Y571259D02*
X452559D01*
X451575Y570904D02*
X452559D01*
X451575Y570550D02*
X452559D01*
X451575Y570196D02*
X452559D01*
X451575Y569841D02*
X452559D01*
X451575Y569487D02*
X452559D01*
X451575Y569133D02*
X452559D01*
X451575Y568778D02*
X452559D01*
X451575Y568424D02*
X452559D01*
X451575Y568070D02*
X452559D01*
X451575Y567715D02*
X452559D01*
X451575Y567361D02*
X452559D01*
X451575Y567007D02*
X452559D01*
X451575Y566652D02*
X452559D01*
X451575Y566298D02*
X452559D01*
X451575Y565944D02*
X452559D01*
X451575Y565589D02*
X452559D01*
X451575Y565235D02*
X452559D01*
X451575Y564881D02*
X452559D01*
X451575Y564526D02*
X452559D01*
X451575Y564172D02*
X452559D01*
X451575Y563818D02*
X452559D01*
X451575Y563463D02*
X452559D01*
X451575Y563109D02*
X452559D01*
X451575Y562755D02*
X452559D01*
X451575Y562400D02*
X452559D01*
X451575Y562046D02*
X452559D01*
X451575Y561692D02*
X452559D01*
X451575Y561337D02*
X452559D01*
X451575Y560983D02*
X452559D01*
X446654Y580825D02*
X447638D01*
X446654Y580471D02*
X447638D01*
X446654Y580117D02*
X447638D01*
X446654Y579762D02*
X447638D01*
X446654Y579408D02*
X447638D01*
X446654Y579054D02*
X447638D01*
X446654Y578699D02*
X447638D01*
X446654Y578345D02*
X447638D01*
X446654Y577991D02*
X447638D01*
X446654Y577636D02*
X447638D01*
X446654Y577282D02*
X447638D01*
X446654Y576928D02*
X447638D01*
X446654Y576573D02*
X447638D01*
X446654Y576219D02*
X447638D01*
X446654Y575865D02*
X447638D01*
X446654Y575510D02*
X447638D01*
X446654Y575156D02*
X447638D01*
X446654Y574802D02*
X447638D01*
X446654Y574448D02*
X447638D01*
X446654Y574093D02*
X447638D01*
X446654Y573739D02*
X447638D01*
X446654Y573385D02*
X447638D01*
X446654Y573030D02*
X447638D01*
X446654Y572676D02*
X447638D01*
X446654Y572322D02*
X447638D01*
X446654Y571967D02*
X447638D01*
X446654Y571613D02*
X447638D01*
X446654Y571259D02*
X447638D01*
X446654Y570904D02*
X447638D01*
X446654Y570550D02*
X447638D01*
X446654Y570196D02*
X447638D01*
X446654Y569841D02*
X447638D01*
X446654Y569487D02*
X447638D01*
X446654Y569133D02*
X447638D01*
X446654Y568778D02*
X447638D01*
X446654Y568424D02*
X447638D01*
X446654Y568070D02*
X447638D01*
X446654Y567715D02*
X447638D01*
X446654Y567361D02*
X447638D01*
X446654Y567007D02*
X447638D01*
X446654Y566652D02*
X447638D01*
X446654Y566298D02*
X447638D01*
X446654Y565944D02*
X447638D01*
X446654Y565589D02*
X447638D01*
X446654Y565235D02*
X447638D01*
X446654Y564881D02*
X447638D01*
X446654Y564526D02*
X447638D01*
X446654Y564172D02*
X447638D01*
X446654Y563818D02*
X447638D01*
X446654Y563463D02*
X447638D01*
X446654Y563109D02*
X447638D01*
X446654Y562755D02*
X447638D01*
X446654Y562400D02*
X447638D01*
X446654Y562046D02*
X447638D01*
X446654Y561692D02*
X447638D01*
X446654Y561337D02*
X447638D01*
X446654Y560983D02*
X447638D01*
X456575Y580825D02*
X457559D01*
X456575Y580471D02*
X457559D01*
X456575Y580117D02*
X457559D01*
X456575Y579762D02*
X457559D01*
X456575Y579408D02*
X457559D01*
X456575Y579054D02*
X457559D01*
X456575Y578699D02*
X457559D01*
X456575Y578345D02*
X457559D01*
X456575Y577991D02*
X457559D01*
X456575Y577636D02*
X457559D01*
X456575Y577282D02*
X457559D01*
X456575Y576928D02*
X457559D01*
X456575Y576573D02*
X457559D01*
X456575Y576219D02*
X457559D01*
X456575Y575865D02*
X457559D01*
X456575Y575510D02*
X457559D01*
X456575Y575156D02*
X457559D01*
X456575Y574802D02*
X457559D01*
X456575Y574448D02*
X457559D01*
X456575Y574093D02*
X457559D01*
X456575Y573739D02*
X457559D01*
X456575Y573385D02*
X457559D01*
X456575Y573030D02*
X457559D01*
X456575Y572676D02*
X457559D01*
X456575Y572322D02*
X457559D01*
X456575Y571967D02*
X457559D01*
X456575Y571613D02*
X457559D01*
X456575Y571259D02*
X457559D01*
X456575Y570904D02*
X457559D01*
X456575Y570550D02*
X457559D01*
X456575Y570196D02*
X457559D01*
X456575Y569841D02*
X457559D01*
X456575Y569487D02*
X457559D01*
X456575Y569133D02*
X457559D01*
X456575Y568778D02*
X457559D01*
X456575Y568424D02*
X457559D01*
X456575Y568070D02*
X457559D01*
X456575Y567715D02*
X457559D01*
X456575Y567361D02*
X457559D01*
X456575Y567007D02*
X457559D01*
X456575Y566652D02*
X457559D01*
X456575Y566298D02*
X457559D01*
X456575Y565944D02*
X457559D01*
X456575Y565589D02*
X457559D01*
X456575Y565235D02*
X457559D01*
X456575Y564881D02*
X457559D01*
X456575Y564526D02*
X457559D01*
X456575Y564172D02*
X457559D01*
X456575Y563818D02*
X457559D01*
X456575Y563463D02*
X457559D01*
X456575Y563109D02*
X457559D01*
X456575Y562755D02*
X457559D01*
X456575Y562400D02*
X457559D01*
X456575Y562046D02*
X457559D01*
X456575Y561692D02*
X457559D01*
X456575Y561337D02*
X457559D01*
X456575Y560983D02*
X457559D01*
X461575Y580825D02*
X462559D01*
X461575Y580471D02*
X462559D01*
X461575Y580117D02*
X462559D01*
X461575Y579762D02*
X462559D01*
X461575Y579408D02*
X462559D01*
X461575Y579054D02*
X462559D01*
X461575Y578699D02*
X462559D01*
X461575Y578345D02*
X462559D01*
X461575Y577991D02*
X462559D01*
X461575Y577636D02*
X462559D01*
X461575Y577282D02*
X462559D01*
X461575Y576928D02*
X462559D01*
X461575Y576573D02*
X462559D01*
X461575Y576219D02*
X462559D01*
X461575Y575865D02*
X462559D01*
X461575Y575510D02*
X462559D01*
X461575Y575156D02*
X462559D01*
X461575Y574802D02*
X462559D01*
X461575Y574448D02*
X462559D01*
X461575Y574093D02*
X462559D01*
X461575Y573739D02*
X462559D01*
X461575Y573385D02*
X462559D01*
X461575Y573030D02*
X462559D01*
X461575Y572676D02*
X462559D01*
X461575Y572322D02*
X462559D01*
X461575Y571967D02*
X462559D01*
X461575Y571613D02*
X462559D01*
X461575Y571259D02*
X462559D01*
X461575Y570904D02*
X462559D01*
X461575Y570550D02*
X462559D01*
X461575Y570196D02*
X462559D01*
X461575Y569841D02*
X462559D01*
X461575Y569487D02*
X462559D01*
X461575Y569133D02*
X462559D01*
X461575Y568778D02*
X462559D01*
X461575Y568424D02*
X462559D01*
X461575Y568070D02*
X462559D01*
X461575Y567715D02*
X462559D01*
X461575Y567361D02*
X462559D01*
X461575Y567007D02*
X462559D01*
X461575Y566652D02*
X462559D01*
X461575Y566298D02*
X462559D01*
X461575Y565944D02*
X462559D01*
X461575Y565589D02*
X462559D01*
X461575Y565235D02*
X462559D01*
X461575Y564881D02*
X462559D01*
X461575Y564526D02*
X462559D01*
X461575Y564172D02*
X462559D01*
X461575Y563818D02*
X462559D01*
X461575Y563463D02*
X462559D01*
X461575Y563109D02*
X462559D01*
X461575Y562755D02*
X462559D01*
X461575Y562400D02*
X462559D01*
X461575Y562046D02*
X462559D01*
X461575Y561692D02*
X462559D01*
X461575Y561337D02*
X462559D01*
X461575Y560983D02*
X462559D01*
X466575Y580825D02*
X467559D01*
X466575Y580471D02*
X467559D01*
X466575Y580117D02*
X467559D01*
X466575Y579762D02*
X467559D01*
X466575Y579408D02*
X467559D01*
X466575Y579054D02*
X467559D01*
X466575Y578699D02*
X467559D01*
X466575Y578345D02*
X467559D01*
X466575Y577991D02*
X467559D01*
X466575Y577636D02*
X467559D01*
X466575Y577282D02*
X467559D01*
X466575Y576928D02*
X467559D01*
X466575Y576573D02*
X467559D01*
X466575Y576219D02*
X467559D01*
X466575Y575865D02*
X467559D01*
X466575Y575510D02*
X467559D01*
X466575Y575156D02*
X467559D01*
X466575Y574802D02*
X467559D01*
X466575Y574448D02*
X467559D01*
X466575Y574093D02*
X467559D01*
X466575Y573739D02*
X467559D01*
X466575Y573385D02*
X467559D01*
X466575Y573030D02*
X467559D01*
X466575Y572676D02*
X467559D01*
X466575Y572322D02*
X467559D01*
X466575Y571967D02*
X467559D01*
X466575Y571613D02*
X467559D01*
X466575Y571259D02*
X467559D01*
X466575Y570904D02*
X467559D01*
X466575Y570550D02*
X467559D01*
X466575Y570196D02*
X467559D01*
X466575Y569841D02*
X467559D01*
X466575Y569487D02*
X467559D01*
X466575Y569133D02*
X467559D01*
X466575Y568778D02*
X467559D01*
X466575Y568424D02*
X467559D01*
X466575Y568070D02*
X467559D01*
X466575Y567715D02*
X467559D01*
X466575Y567361D02*
X467559D01*
X466575Y567007D02*
X467559D01*
X466575Y566652D02*
X467559D01*
X466575Y566298D02*
X467559D01*
X466575Y565944D02*
X467559D01*
X466575Y565589D02*
X467559D01*
X466575Y565235D02*
X467559D01*
X466575Y564881D02*
X467559D01*
X466575Y564526D02*
X467559D01*
X466575Y564172D02*
X467559D01*
X466575Y563818D02*
X467559D01*
X466575Y563463D02*
X467559D01*
X466575Y563109D02*
X467559D01*
X466575Y562755D02*
X467559D01*
X466575Y562400D02*
X467559D01*
X466575Y562046D02*
X467559D01*
X466575Y561692D02*
X467559D01*
X466575Y561337D02*
X467559D01*
X466575Y560983D02*
X467559D01*
X481575Y580825D02*
X482559D01*
X481575Y580471D02*
X482559D01*
X481575Y580117D02*
X482559D01*
X481575Y579762D02*
X482559D01*
X481575Y579408D02*
X482559D01*
X481575Y579054D02*
X482559D01*
X481575Y578699D02*
X482559D01*
X481575Y578345D02*
X482559D01*
X481575Y577991D02*
X482559D01*
X481575Y577636D02*
X482559D01*
X481575Y577282D02*
X482559D01*
X481575Y576928D02*
X482559D01*
X481575Y576573D02*
X482559D01*
X481575Y576219D02*
X482559D01*
X481575Y575865D02*
X482559D01*
X481575Y575510D02*
X482559D01*
X481575Y575156D02*
X482559D01*
X481575Y574802D02*
X482559D01*
X481575Y574448D02*
X482559D01*
X481575Y574093D02*
X482559D01*
X481575Y573739D02*
X482559D01*
X481575Y573385D02*
X482559D01*
X481575Y573030D02*
X482559D01*
X481575Y572676D02*
X482559D01*
X481575Y572322D02*
X482559D01*
X481575Y571967D02*
X482559D01*
X481575Y571613D02*
X482559D01*
X481575Y571259D02*
X482559D01*
X481575Y570904D02*
X482559D01*
X481575Y570550D02*
X482559D01*
X481575Y570196D02*
X482559D01*
X481575Y569841D02*
X482559D01*
X481575Y569487D02*
X482559D01*
X481575Y569133D02*
X482559D01*
X481575Y568778D02*
X482559D01*
X481575Y568424D02*
X482559D01*
X481575Y568070D02*
X482559D01*
X481575Y567715D02*
X482559D01*
X481575Y567361D02*
X482559D01*
X481575Y567007D02*
X482559D01*
X481575Y566652D02*
X482559D01*
X481575Y566298D02*
X482559D01*
X481575Y565944D02*
X482559D01*
X481575Y565589D02*
X482559D01*
X481575Y565235D02*
X482559D01*
X481575Y564881D02*
X482559D01*
X481575Y564526D02*
X482559D01*
X481575Y564172D02*
X482559D01*
X481575Y563818D02*
X482559D01*
X481575Y563463D02*
X482559D01*
X481575Y563109D02*
X482559D01*
X481575Y562755D02*
X482559D01*
X481575Y562400D02*
X482559D01*
X481575Y562046D02*
X482559D01*
X481575Y561692D02*
X482559D01*
X481575Y561337D02*
X482559D01*
X481575Y560983D02*
X482559D01*
X476575Y580825D02*
X477559D01*
X476575Y580471D02*
X477559D01*
X476575Y580117D02*
X477559D01*
X476575Y579762D02*
X477559D01*
X476575Y579408D02*
X477559D01*
X476575Y579054D02*
X477559D01*
X476575Y578699D02*
X477559D01*
X476575Y578345D02*
X477559D01*
X476575Y577991D02*
X477559D01*
X476575Y577636D02*
X477559D01*
X476575Y577282D02*
X477559D01*
X476575Y576928D02*
X477559D01*
X476575Y576573D02*
X477559D01*
X476575Y576219D02*
X477559D01*
X476575Y575865D02*
X477559D01*
X476575Y575510D02*
X477559D01*
X476575Y575156D02*
X477559D01*
X476575Y574802D02*
X477559D01*
X476575Y574448D02*
X477559D01*
X476575Y574093D02*
X477559D01*
X476575Y573739D02*
X477559D01*
X476575Y573385D02*
X477559D01*
X476575Y573030D02*
X477559D01*
X476575Y572676D02*
X477559D01*
X476575Y572322D02*
X477559D01*
X476575Y571967D02*
X477559D01*
X476575Y571613D02*
X477559D01*
X476575Y571259D02*
X477559D01*
X476575Y570904D02*
X477559D01*
X476575Y570550D02*
X477559D01*
X476575Y570196D02*
X477559D01*
X476575Y569841D02*
X477559D01*
X476575Y569487D02*
X477559D01*
X476575Y569133D02*
X477559D01*
X476575Y568778D02*
X477559D01*
X476575Y568424D02*
X477559D01*
X476575Y568070D02*
X477559D01*
X476575Y567715D02*
X477559D01*
X476575Y567361D02*
X477559D01*
X476575Y567007D02*
X477559D01*
X476575Y566652D02*
X477559D01*
X476575Y566298D02*
X477559D01*
X476575Y565944D02*
X477559D01*
X476575Y565589D02*
X477559D01*
X476575Y565235D02*
X477559D01*
X476575Y564881D02*
X477559D01*
X476575Y564526D02*
X477559D01*
X476575Y564172D02*
X477559D01*
X476575Y563818D02*
X477559D01*
X476575Y563463D02*
X477559D01*
X476575Y563109D02*
X477559D01*
X476575Y562755D02*
X477559D01*
X476575Y562400D02*
X477559D01*
X476575Y562046D02*
X477559D01*
X476575Y561692D02*
X477559D01*
X476575Y561337D02*
X477559D01*
X476575Y560983D02*
X477559D01*
X471575Y580825D02*
X472559D01*
X471575Y580471D02*
X472559D01*
X471575Y580117D02*
X472559D01*
X471575Y579762D02*
X472559D01*
X471575Y579408D02*
X472559D01*
X471575Y579054D02*
X472559D01*
X471575Y578699D02*
X472559D01*
X471575Y578345D02*
X472559D01*
X471575Y577991D02*
X472559D01*
X471575Y577636D02*
X472559D01*
X471575Y577282D02*
X472559D01*
X471575Y576928D02*
X472559D01*
X471575Y576573D02*
X472559D01*
X471575Y576219D02*
X472559D01*
X471575Y575865D02*
X472559D01*
X471575Y575510D02*
X472559D01*
X471575Y575156D02*
X472559D01*
X471575Y574802D02*
X472559D01*
X471575Y574448D02*
X472559D01*
X471575Y574093D02*
X472559D01*
X471575Y573739D02*
X472559D01*
X471575Y573385D02*
X472559D01*
X471575Y573030D02*
X472559D01*
X471575Y572676D02*
X472559D01*
X471575Y572322D02*
X472559D01*
X471575Y571967D02*
X472559D01*
X471575Y571613D02*
X472559D01*
X471575Y571259D02*
X472559D01*
X471575Y570904D02*
X472559D01*
X471575Y570550D02*
X472559D01*
X471575Y570196D02*
X472559D01*
X471575Y569841D02*
X472559D01*
X471575Y569487D02*
X472559D01*
X471575Y569133D02*
X472559D01*
X471575Y568778D02*
X472559D01*
X471575Y568424D02*
X472559D01*
X471575Y568070D02*
X472559D01*
X471575Y567715D02*
X472559D01*
X471575Y567361D02*
X472559D01*
X471575Y567007D02*
X472559D01*
X471575Y566652D02*
X472559D01*
X471575Y566298D02*
X472559D01*
X471575Y565944D02*
X472559D01*
X471575Y565589D02*
X472559D01*
X471575Y565235D02*
X472559D01*
X471575Y564881D02*
X472559D01*
X471575Y564526D02*
X472559D01*
X471575Y564172D02*
X472559D01*
X471575Y563818D02*
X472559D01*
X471575Y563463D02*
X472559D01*
X471575Y563109D02*
X472559D01*
X471575Y562755D02*
X472559D01*
X471575Y562400D02*
X472559D01*
X471575Y562046D02*
X472559D01*
X471575Y561692D02*
X472559D01*
X471575Y561337D02*
X472559D01*
X471575Y560983D02*
X472559D01*
X496575Y580825D02*
X497559D01*
X496575Y580471D02*
X497559D01*
X496575Y580117D02*
X497559D01*
X496575Y579762D02*
X497559D01*
X496575Y579408D02*
X497559D01*
X496575Y579054D02*
X497559D01*
X496575Y578699D02*
X497559D01*
X496575Y578345D02*
X497559D01*
X496575Y577991D02*
X497559D01*
X496575Y577636D02*
X497559D01*
X496575Y577282D02*
X497559D01*
X496575Y576928D02*
X497559D01*
X496575Y576573D02*
X497559D01*
X496575Y576219D02*
X497559D01*
X496575Y575865D02*
X497559D01*
X496575Y575510D02*
X497559D01*
X496575Y575156D02*
X497559D01*
X496575Y574802D02*
X497559D01*
X496575Y574448D02*
X497559D01*
X496575Y574093D02*
X497559D01*
X496575Y573739D02*
X497559D01*
X496575Y573385D02*
X497559D01*
X496575Y573030D02*
X497559D01*
X496575Y572676D02*
X497559D01*
X496575Y572322D02*
X497559D01*
X496575Y571967D02*
X497559D01*
X496575Y571613D02*
X497559D01*
X496575Y571259D02*
X497559D01*
X496575Y570904D02*
X497559D01*
X496575Y570550D02*
X497559D01*
X496575Y570196D02*
X497559D01*
X496575Y569841D02*
X497559D01*
X496575Y569487D02*
X497559D01*
X496575Y569133D02*
X497559D01*
X496575Y568778D02*
X497559D01*
X496575Y568424D02*
X497559D01*
X496575Y568070D02*
X497559D01*
X496575Y567715D02*
X497559D01*
X496575Y567361D02*
X497559D01*
X496575Y567007D02*
X497559D01*
X496575Y566652D02*
X497559D01*
X496575Y566298D02*
X497559D01*
X496575Y565944D02*
X497559D01*
X496575Y565589D02*
X497559D01*
X496575Y565235D02*
X497559D01*
X496575Y564881D02*
X497559D01*
X496575Y564526D02*
X497559D01*
X496575Y564172D02*
X497559D01*
X496575Y563818D02*
X497559D01*
X496575Y563463D02*
X497559D01*
X496575Y563109D02*
X497559D01*
X496575Y562755D02*
X497559D01*
X496575Y562400D02*
X497559D01*
X496575Y562046D02*
X497559D01*
X496575Y561692D02*
X497559D01*
X496575Y561337D02*
X497559D01*
X496575Y560983D02*
X497559D01*
X491575Y580825D02*
X492559D01*
X491575Y580471D02*
X492559D01*
X491575Y580117D02*
X492559D01*
X491575Y579762D02*
X492559D01*
X491575Y579408D02*
X492559D01*
X491575Y579054D02*
X492559D01*
X491575Y578699D02*
X492559D01*
X491575Y578345D02*
X492559D01*
X491575Y577991D02*
X492559D01*
X491575Y577636D02*
X492559D01*
X491575Y577282D02*
X492559D01*
X491575Y576928D02*
X492559D01*
X491575Y576573D02*
X492559D01*
X491575Y576219D02*
X492559D01*
X491575Y575865D02*
X492559D01*
X491575Y575510D02*
X492559D01*
X491575Y575156D02*
X492559D01*
X491575Y574802D02*
X492559D01*
X491575Y574448D02*
X492559D01*
X491575Y574093D02*
X492559D01*
X491575Y573739D02*
X492559D01*
X491575Y573385D02*
X492559D01*
X491575Y573030D02*
X492559D01*
X491575Y572676D02*
X492559D01*
X491575Y572322D02*
X492559D01*
X491575Y571967D02*
X492559D01*
X491575Y571613D02*
X492559D01*
X491575Y571259D02*
X492559D01*
X491575Y570904D02*
X492559D01*
X491575Y570550D02*
X492559D01*
X491575Y570196D02*
X492559D01*
X491575Y569841D02*
X492559D01*
X491575Y569487D02*
X492559D01*
X491575Y569133D02*
X492559D01*
X491575Y568778D02*
X492559D01*
X491575Y568424D02*
X492559D01*
X491575Y568070D02*
X492559D01*
X491575Y567715D02*
X492559D01*
X491575Y567361D02*
X492559D01*
X491575Y567007D02*
X492559D01*
X491575Y566652D02*
X492559D01*
X491575Y566298D02*
X492559D01*
X491575Y565944D02*
X492559D01*
X491575Y565589D02*
X492559D01*
X491575Y565235D02*
X492559D01*
X491575Y564881D02*
X492559D01*
X491575Y564526D02*
X492559D01*
X491575Y564172D02*
X492559D01*
X491575Y563818D02*
X492559D01*
X491575Y563463D02*
X492559D01*
X491575Y563109D02*
X492559D01*
X491575Y562755D02*
X492559D01*
X491575Y562400D02*
X492559D01*
X491575Y562046D02*
X492559D01*
X491575Y561692D02*
X492559D01*
X491575Y561337D02*
X492559D01*
X491575Y560983D02*
X492559D01*
X486575Y580825D02*
X487559D01*
X486575Y580471D02*
X487559D01*
X486575Y580117D02*
X487559D01*
X486575Y579762D02*
X487559D01*
X486575Y579408D02*
X487559D01*
X486575Y579054D02*
X487559D01*
X486575Y578699D02*
X487559D01*
X486575Y578345D02*
X487559D01*
X486575Y577991D02*
X487559D01*
X486575Y577636D02*
X487559D01*
X486575Y577282D02*
X487559D01*
X486575Y576928D02*
X487559D01*
X486575Y576573D02*
X487559D01*
X486575Y576219D02*
X487559D01*
X486575Y575865D02*
X487559D01*
X486575Y575510D02*
X487559D01*
X486575Y575156D02*
X487559D01*
X486575Y574802D02*
X487559D01*
X486575Y574448D02*
X487559D01*
X486575Y574093D02*
X487559D01*
X486575Y573739D02*
X487559D01*
X486575Y573385D02*
X487559D01*
X486575Y573030D02*
X487559D01*
X486575Y572676D02*
X487559D01*
X486575Y572322D02*
X487559D01*
X486575Y571967D02*
X487559D01*
X486575Y571613D02*
X487559D01*
X486575Y571259D02*
X487559D01*
X486575Y570904D02*
X487559D01*
X486575Y570550D02*
X487559D01*
X486575Y570196D02*
X487559D01*
X486575Y569841D02*
X487559D01*
X486575Y569487D02*
X487559D01*
X486575Y569133D02*
X487559D01*
X486575Y568778D02*
X487559D01*
X486575Y568424D02*
X487559D01*
X486575Y568070D02*
X487559D01*
X486575Y567715D02*
X487559D01*
X486575Y567361D02*
X487559D01*
X486575Y567007D02*
X487559D01*
X486575Y566652D02*
X487559D01*
X486575Y566298D02*
X487559D01*
X486575Y565944D02*
X487559D01*
X486575Y565589D02*
X487559D01*
X486575Y565235D02*
X487559D01*
X486575Y564881D02*
X487559D01*
X486575Y564526D02*
X487559D01*
X486575Y564172D02*
X487559D01*
X486575Y563818D02*
X487559D01*
X486575Y563463D02*
X487559D01*
X486575Y563109D02*
X487559D01*
X486575Y562755D02*
X487559D01*
X486575Y562400D02*
X487559D01*
X486575Y562046D02*
X487559D01*
X486575Y561692D02*
X487559D01*
X486575Y561337D02*
X487559D01*
X486575Y560983D02*
X487559D01*
X511575Y580825D02*
X512559D01*
X511575Y580471D02*
X512559D01*
X511575Y580117D02*
X512559D01*
X511575Y579762D02*
X512559D01*
X511575Y579408D02*
X512559D01*
X511575Y579054D02*
X512559D01*
X511575Y578699D02*
X512559D01*
X511575Y578345D02*
X512559D01*
X511575Y577991D02*
X512559D01*
X511575Y577636D02*
X512559D01*
X511575Y577282D02*
X512559D01*
X511575Y576928D02*
X512559D01*
X511575Y576573D02*
X512559D01*
X511575Y576219D02*
X512559D01*
X511575Y575865D02*
X512559D01*
X511575Y575510D02*
X512559D01*
X511575Y575156D02*
X512559D01*
X511575Y574802D02*
X512559D01*
X511575Y574448D02*
X512559D01*
X511575Y574093D02*
X512559D01*
X511575Y573739D02*
X512559D01*
X511575Y573385D02*
X512559D01*
X511575Y573030D02*
X512559D01*
X511575Y572676D02*
X512559D01*
X511575Y572322D02*
X512559D01*
X511575Y571967D02*
X512559D01*
X511575Y571613D02*
X512559D01*
X511575Y571259D02*
X512559D01*
X511575Y570904D02*
X512559D01*
X511575Y570550D02*
X512559D01*
X511575Y570196D02*
X512559D01*
X511575Y569841D02*
X512559D01*
X511575Y569487D02*
X512559D01*
X511575Y569133D02*
X512559D01*
X511575Y568778D02*
X512559D01*
X511575Y568424D02*
X512559D01*
X511575Y568070D02*
X512559D01*
X511575Y567715D02*
X512559D01*
X511575Y567361D02*
X512559D01*
X511575Y567007D02*
X512559D01*
X511575Y566652D02*
X512559D01*
X511575Y566298D02*
X512559D01*
X511575Y565944D02*
X512559D01*
X511575Y565589D02*
X512559D01*
X511575Y565235D02*
X512559D01*
X511575Y564881D02*
X512559D01*
X511575Y564526D02*
X512559D01*
X511575Y564172D02*
X512559D01*
X511575Y563818D02*
X512559D01*
X511575Y563463D02*
X512559D01*
X511575Y563109D02*
X512559D01*
X511575Y562755D02*
X512559D01*
X511575Y562400D02*
X512559D01*
X511575Y562046D02*
X512559D01*
X511575Y561692D02*
X512559D01*
X511575Y561337D02*
X512559D01*
X511575Y560983D02*
X512559D01*
X506575Y580825D02*
X507559D01*
X506575Y580471D02*
X507559D01*
X506575Y580117D02*
X507559D01*
X506575Y579762D02*
X507559D01*
X506575Y579408D02*
X507559D01*
X506575Y579054D02*
X507559D01*
X506575Y578699D02*
X507559D01*
X506575Y578345D02*
X507559D01*
X506575Y577991D02*
X507559D01*
X506575Y577636D02*
X507559D01*
X506575Y577282D02*
X507559D01*
X506575Y576928D02*
X507559D01*
X506575Y576573D02*
X507559D01*
X506575Y576219D02*
X507559D01*
X506575Y575865D02*
X507559D01*
X506575Y575510D02*
X507559D01*
X506575Y575156D02*
X507559D01*
X506575Y574802D02*
X507559D01*
X506575Y574448D02*
X507559D01*
X506575Y574093D02*
X507559D01*
X506575Y573739D02*
X507559D01*
X506575Y573385D02*
X507559D01*
X506575Y573030D02*
X507559D01*
X506575Y572676D02*
X507559D01*
X506575Y572322D02*
X507559D01*
X506575Y571967D02*
X507559D01*
X506575Y571613D02*
X507559D01*
X506575Y571259D02*
X507559D01*
X506575Y570904D02*
X507559D01*
X506575Y570550D02*
X507559D01*
X506575Y570196D02*
X507559D01*
X506575Y569841D02*
X507559D01*
X506575Y569487D02*
X507559D01*
X506575Y569133D02*
X507559D01*
X506575Y568778D02*
X507559D01*
X506575Y568424D02*
X507559D01*
X506575Y568070D02*
X507559D01*
X506575Y567715D02*
X507559D01*
X506575Y567361D02*
X507559D01*
X506575Y567007D02*
X507559D01*
X506575Y566652D02*
X507559D01*
X506575Y566298D02*
X507559D01*
X506575Y565944D02*
X507559D01*
X506575Y565589D02*
X507559D01*
X506575Y565235D02*
X507559D01*
X506575Y564881D02*
X507559D01*
X506575Y564526D02*
X507559D01*
X506575Y564172D02*
X507559D01*
X506575Y563818D02*
X507559D01*
X506575Y563463D02*
X507559D01*
X506575Y563109D02*
X507559D01*
X506575Y562755D02*
X507559D01*
X506575Y562400D02*
X507559D01*
X506575Y562046D02*
X507559D01*
X506575Y561692D02*
X507559D01*
X506575Y561337D02*
X507559D01*
X506575Y560983D02*
X507559D01*
X501575Y580825D02*
X502559D01*
X501575Y580471D02*
X502559D01*
X501575Y580117D02*
X502559D01*
X501575Y579762D02*
X502559D01*
X501575Y579408D02*
X502559D01*
X501575Y579054D02*
X502559D01*
X501575Y578699D02*
X502559D01*
X501575Y578345D02*
X502559D01*
X501575Y577991D02*
X502559D01*
X501575Y577636D02*
X502559D01*
X501575Y577282D02*
X502559D01*
X501575Y576928D02*
X502559D01*
X501575Y576573D02*
X502559D01*
X501575Y576219D02*
X502559D01*
X501575Y575865D02*
X502559D01*
X501575Y575510D02*
X502559D01*
X501575Y575156D02*
X502559D01*
X501575Y574802D02*
X502559D01*
X501575Y574448D02*
X502559D01*
X501575Y574093D02*
X502559D01*
X501575Y573739D02*
X502559D01*
X501575Y573385D02*
X502559D01*
X501575Y573030D02*
X502559D01*
X501575Y572676D02*
X502559D01*
X501575Y572322D02*
X502559D01*
X501575Y571967D02*
X502559D01*
X501575Y571613D02*
X502559D01*
X501575Y571259D02*
X502559D01*
X501575Y570904D02*
X502559D01*
X501575Y570550D02*
X502559D01*
X501575Y570196D02*
X502559D01*
X501575Y569841D02*
X502559D01*
X501575Y569487D02*
X502559D01*
X501575Y569133D02*
X502559D01*
X501575Y568778D02*
X502559D01*
X501575Y568424D02*
X502559D01*
X501575Y568070D02*
X502559D01*
X501575Y567715D02*
X502559D01*
X501575Y567361D02*
X502559D01*
X501575Y567007D02*
X502559D01*
X501575Y566652D02*
X502559D01*
X501575Y566298D02*
X502559D01*
X501575Y565944D02*
X502559D01*
X501575Y565589D02*
X502559D01*
X501575Y565235D02*
X502559D01*
X501575Y564881D02*
X502559D01*
X501575Y564526D02*
X502559D01*
X501575Y564172D02*
X502559D01*
X501575Y563818D02*
X502559D01*
X501575Y563463D02*
X502559D01*
X501575Y563109D02*
X502559D01*
X501575Y562755D02*
X502559D01*
X501575Y562400D02*
X502559D01*
X501575Y562046D02*
X502559D01*
X501575Y561692D02*
X502559D01*
X501575Y561337D02*
X502559D01*
X501575Y560983D02*
X502559D01*
X526575Y580825D02*
X527559D01*
X526575Y580471D02*
X527559D01*
X526575Y580117D02*
X527559D01*
X526575Y579762D02*
X527559D01*
X526575Y579408D02*
X527559D01*
X526575Y579054D02*
X527559D01*
X526575Y578699D02*
X527559D01*
X526575Y578345D02*
X527559D01*
X526575Y577991D02*
X527559D01*
X526575Y577636D02*
X527559D01*
X526575Y577282D02*
X527559D01*
X526575Y576928D02*
X527559D01*
X526575Y576573D02*
X527559D01*
X526575Y576219D02*
X527559D01*
X526575Y575865D02*
X527559D01*
X526575Y575510D02*
X527559D01*
X526575Y575156D02*
X527559D01*
X526575Y574802D02*
X527559D01*
X526575Y574448D02*
X527559D01*
X526575Y574093D02*
X527559D01*
X526575Y573739D02*
X527559D01*
X526575Y573385D02*
X527559D01*
X526575Y573030D02*
X527559D01*
X526575Y572676D02*
X527559D01*
X526575Y572322D02*
X527559D01*
X526575Y571967D02*
X527559D01*
X526575Y571613D02*
X527559D01*
X526575Y571259D02*
X527559D01*
X526575Y570904D02*
X527559D01*
X526575Y570550D02*
X527559D01*
X526575Y570196D02*
X527559D01*
X526575Y569841D02*
X527559D01*
X526575Y569487D02*
X527559D01*
X526575Y569133D02*
X527559D01*
X526575Y568778D02*
X527559D01*
X526575Y568424D02*
X527559D01*
X526575Y568070D02*
X527559D01*
X526575Y567715D02*
X527559D01*
X526575Y567361D02*
X527559D01*
X526575Y567007D02*
X527559D01*
X526575Y566652D02*
X527559D01*
X526575Y566298D02*
X527559D01*
X526575Y565944D02*
X527559D01*
X526575Y565589D02*
X527559D01*
X526575Y565235D02*
X527559D01*
X526575Y564881D02*
X527559D01*
X526575Y564526D02*
X527559D01*
X526575Y564172D02*
X527559D01*
X526575Y563818D02*
X527559D01*
X526575Y563463D02*
X527559D01*
X526575Y563109D02*
X527559D01*
X526575Y562755D02*
X527559D01*
X526575Y562400D02*
X527559D01*
X526575Y562046D02*
X527559D01*
X526575Y561692D02*
X527559D01*
X526575Y561337D02*
X527559D01*
X526575Y560983D02*
X527559D01*
X521575Y580825D02*
X522559D01*
X521575Y580471D02*
X522559D01*
X521575Y580117D02*
X522559D01*
X521575Y579762D02*
X522559D01*
X521575Y579408D02*
X522559D01*
X521575Y579054D02*
X522559D01*
X521575Y578699D02*
X522559D01*
X521575Y578345D02*
X522559D01*
X521575Y577991D02*
X522559D01*
X521575Y577636D02*
X522559D01*
X521575Y577282D02*
X522559D01*
X521575Y576928D02*
X522559D01*
X521575Y576573D02*
X522559D01*
X521575Y576219D02*
X522559D01*
X521575Y575865D02*
X522559D01*
X521575Y575510D02*
X522559D01*
X521575Y575156D02*
X522559D01*
X521575Y574802D02*
X522559D01*
X521575Y574448D02*
X522559D01*
X521575Y574093D02*
X522559D01*
X521575Y573739D02*
X522559D01*
X521575Y573385D02*
X522559D01*
X521575Y573030D02*
X522559D01*
X521575Y572676D02*
X522559D01*
X521575Y572322D02*
X522559D01*
X521575Y571967D02*
X522559D01*
X521575Y571613D02*
X522559D01*
X521575Y571259D02*
X522559D01*
X521575Y570904D02*
X522559D01*
X521575Y570550D02*
X522559D01*
X521575Y570196D02*
X522559D01*
X521575Y569841D02*
X522559D01*
X521575Y569487D02*
X522559D01*
X521575Y569133D02*
X522559D01*
X521575Y568778D02*
X522559D01*
X521575Y568424D02*
X522559D01*
X521575Y568070D02*
X522559D01*
X521575Y567715D02*
X522559D01*
X521575Y567361D02*
X522559D01*
X521575Y567007D02*
X522559D01*
X521575Y566652D02*
X522559D01*
X521575Y566298D02*
X522559D01*
X521575Y565944D02*
X522559D01*
X521575Y565589D02*
X522559D01*
X521575Y565235D02*
X522559D01*
X521575Y564881D02*
X522559D01*
X521575Y564526D02*
X522559D01*
X521575Y564172D02*
X522559D01*
X521575Y563818D02*
X522559D01*
X521575Y563463D02*
X522559D01*
X521575Y563109D02*
X522559D01*
X521575Y562755D02*
X522559D01*
X521575Y562400D02*
X522559D01*
X521575Y562046D02*
X522559D01*
X521575Y561692D02*
X522559D01*
X521575Y561337D02*
X522559D01*
X521575Y560983D02*
X522559D01*
X516575Y580825D02*
X517559D01*
X516575Y580471D02*
X517559D01*
X516575Y580117D02*
X517559D01*
X516575Y579762D02*
X517559D01*
X516575Y579408D02*
X517559D01*
X516575Y579054D02*
X517559D01*
X516575Y578699D02*
X517559D01*
X516575Y578345D02*
X517559D01*
X516575Y577991D02*
X517559D01*
X516575Y577636D02*
X517559D01*
X516575Y577282D02*
X517559D01*
X516575Y576928D02*
X517559D01*
X516575Y576573D02*
X517559D01*
X516575Y576219D02*
X517559D01*
X516575Y575865D02*
X517559D01*
X516575Y575510D02*
X517559D01*
X516575Y575156D02*
X517559D01*
X516575Y574802D02*
X517559D01*
X516575Y574448D02*
X517559D01*
X516575Y574093D02*
X517559D01*
X516575Y573739D02*
X517559D01*
X516575Y573385D02*
X517559D01*
X516575Y573030D02*
X517559D01*
X516575Y572676D02*
X517559D01*
X516575Y572322D02*
X517559D01*
X516575Y571967D02*
X517559D01*
X516575Y571613D02*
X517559D01*
X516575Y571259D02*
X517559D01*
X516575Y570904D02*
X517559D01*
X516575Y570550D02*
X517559D01*
X516575Y570196D02*
X517559D01*
X516575Y569841D02*
X517559D01*
X516575Y569487D02*
X517559D01*
X516575Y569133D02*
X517559D01*
X516575Y568778D02*
X517559D01*
X516575Y568424D02*
X517559D01*
X516575Y568070D02*
X517559D01*
X516575Y567715D02*
X517559D01*
X516575Y567361D02*
X517559D01*
X516575Y567007D02*
X517559D01*
X516575Y566652D02*
X517559D01*
X516575Y566298D02*
X517559D01*
X516575Y565944D02*
X517559D01*
X516575Y565589D02*
X517559D01*
X516575Y565235D02*
X517559D01*
X516575Y564881D02*
X517559D01*
X516575Y564526D02*
X517559D01*
X516575Y564172D02*
X517559D01*
X516575Y563818D02*
X517559D01*
X516575Y563463D02*
X517559D01*
X516575Y563109D02*
X517559D01*
X516575Y562755D02*
X517559D01*
X516575Y562400D02*
X517559D01*
X516575Y562046D02*
X517559D01*
X516575Y561692D02*
X517559D01*
X516575Y561337D02*
X517559D01*
X516575Y560983D02*
X517559D01*
X541575Y580825D02*
X542559D01*
X541575Y580471D02*
X542559D01*
X541575Y580117D02*
X542559D01*
X541575Y579762D02*
X542559D01*
X541575Y579408D02*
X542559D01*
X541575Y579054D02*
X542559D01*
X541575Y578699D02*
X542559D01*
X541575Y578345D02*
X542559D01*
X541575Y577991D02*
X542559D01*
X541575Y577636D02*
X542559D01*
X541575Y577282D02*
X542559D01*
X541575Y576928D02*
X542559D01*
X541575Y576573D02*
X542559D01*
X541575Y576219D02*
X542559D01*
X541575Y575865D02*
X542559D01*
X541575Y575510D02*
X542559D01*
X541575Y575156D02*
X542559D01*
X541575Y574802D02*
X542559D01*
X541575Y574448D02*
X542559D01*
X541575Y574093D02*
X542559D01*
X541575Y573739D02*
X542559D01*
X541575Y573385D02*
X542559D01*
X541575Y573030D02*
X542559D01*
X541575Y572676D02*
X542559D01*
X541575Y572322D02*
X542559D01*
X541575Y571967D02*
X542559D01*
X541575Y571613D02*
X542559D01*
X541575Y571259D02*
X542559D01*
X541575Y570904D02*
X542559D01*
X541575Y570550D02*
X542559D01*
X541575Y570196D02*
X542559D01*
X541575Y569841D02*
X542559D01*
X541575Y569487D02*
X542559D01*
X541575Y569133D02*
X542559D01*
X541575Y568778D02*
X542559D01*
X541575Y568424D02*
X542559D01*
X541575Y568070D02*
X542559D01*
X541575Y567715D02*
X542559D01*
X541575Y567361D02*
X542559D01*
X541575Y567007D02*
X542559D01*
X541575Y566652D02*
X542559D01*
X541575Y566298D02*
X542559D01*
X541575Y565944D02*
X542559D01*
X541575Y565589D02*
X542559D01*
X541575Y565235D02*
X542559D01*
X541575Y564881D02*
X542559D01*
X541575Y564526D02*
X542559D01*
X541575Y564172D02*
X542559D01*
X541575Y563818D02*
X542559D01*
X541575Y563463D02*
X542559D01*
X541575Y563109D02*
X542559D01*
X541575Y562755D02*
X542559D01*
X541575Y562400D02*
X542559D01*
X541575Y562046D02*
X542559D01*
X541575Y561692D02*
X542559D01*
X541575Y561337D02*
X542559D01*
X541575Y560983D02*
X542559D01*
X536575Y580825D02*
X537559D01*
X536575Y580471D02*
X537559D01*
X536575Y580117D02*
X537559D01*
X536575Y579762D02*
X537559D01*
X536575Y579408D02*
X537559D01*
X536575Y579054D02*
X537559D01*
X536575Y578699D02*
X537559D01*
X536575Y578345D02*
X537559D01*
X536575Y577991D02*
X537559D01*
X536575Y577636D02*
X537559D01*
X536575Y577282D02*
X537559D01*
X536575Y576928D02*
X537559D01*
X536575Y576573D02*
X537559D01*
X536575Y576219D02*
X537559D01*
X536575Y575865D02*
X537559D01*
X536575Y575510D02*
X537559D01*
X536575Y575156D02*
X537559D01*
X536575Y574802D02*
X537559D01*
X536575Y574448D02*
X537559D01*
X536575Y574093D02*
X537559D01*
X536575Y573739D02*
X537559D01*
X536575Y573385D02*
X537559D01*
X536575Y573030D02*
X537559D01*
X536575Y572676D02*
X537559D01*
X536575Y572322D02*
X537559D01*
X536575Y571967D02*
X537559D01*
X536575Y571613D02*
X537559D01*
X536575Y571259D02*
X537559D01*
X536575Y570904D02*
X537559D01*
X536575Y570550D02*
X537559D01*
X536575Y570196D02*
X537559D01*
X536575Y569841D02*
X537559D01*
X536575Y569487D02*
X537559D01*
X536575Y569133D02*
X537559D01*
X536575Y568778D02*
X537559D01*
X536575Y568424D02*
X537559D01*
X536575Y568070D02*
X537559D01*
X536575Y567715D02*
X537559D01*
X536575Y567361D02*
X537559D01*
X536575Y567007D02*
X537559D01*
X536575Y566652D02*
X537559D01*
X536575Y566298D02*
X537559D01*
X536575Y565944D02*
X537559D01*
X536575Y565589D02*
X537559D01*
X536575Y565235D02*
X537559D01*
X536575Y564881D02*
X537559D01*
X536575Y564526D02*
X537559D01*
X536575Y564172D02*
X537559D01*
X536575Y563818D02*
X537559D01*
X536575Y563463D02*
X537559D01*
X536575Y563109D02*
X537559D01*
X536575Y562755D02*
X537559D01*
X536575Y562400D02*
X537559D01*
X536575Y562046D02*
X537559D01*
X536575Y561692D02*
X537559D01*
X536575Y561337D02*
X537559D01*
X536575Y560983D02*
X537559D01*
X531575Y580825D02*
X532559D01*
X531575Y580471D02*
X532559D01*
X531575Y580117D02*
X532559D01*
X531575Y579762D02*
X532559D01*
X531575Y579408D02*
X532559D01*
X531575Y579054D02*
X532559D01*
X531575Y578699D02*
X532559D01*
X531575Y578345D02*
X532559D01*
X531575Y577991D02*
X532559D01*
X531575Y577636D02*
X532559D01*
X531575Y577282D02*
X532559D01*
X531575Y576928D02*
X532559D01*
X531575Y576573D02*
X532559D01*
X531575Y576219D02*
X532559D01*
X531575Y575865D02*
X532559D01*
X531575Y575510D02*
X532559D01*
X531575Y575156D02*
X532559D01*
X531575Y574802D02*
X532559D01*
X531575Y574448D02*
X532559D01*
X531575Y574093D02*
X532559D01*
X531575Y573739D02*
X532559D01*
X531575Y573385D02*
X532559D01*
X531575Y573030D02*
X532559D01*
X531575Y572676D02*
X532559D01*
X531575Y572322D02*
X532559D01*
X531575Y571967D02*
X532559D01*
X531575Y571613D02*
X532559D01*
X531575Y571259D02*
X532559D01*
X531575Y570904D02*
X532559D01*
X531575Y570550D02*
X532559D01*
X531575Y570196D02*
X532559D01*
X531575Y569841D02*
X532559D01*
X531575Y569487D02*
X532559D01*
X531575Y569133D02*
X532559D01*
X531575Y568778D02*
X532559D01*
X531575Y568424D02*
X532559D01*
X531575Y568070D02*
X532559D01*
X531575Y567715D02*
X532559D01*
X531575Y567361D02*
X532559D01*
X531575Y567007D02*
X532559D01*
X531575Y566652D02*
X532559D01*
X531575Y566298D02*
X532559D01*
X531575Y565944D02*
X532559D01*
X531575Y565589D02*
X532559D01*
X531575Y565235D02*
X532559D01*
X531575Y564881D02*
X532559D01*
X531575Y564526D02*
X532559D01*
X531575Y564172D02*
X532559D01*
X531575Y563818D02*
X532559D01*
X531575Y563463D02*
X532559D01*
X531575Y563109D02*
X532559D01*
X531575Y562755D02*
X532559D01*
X531575Y562400D02*
X532559D01*
X531575Y562046D02*
X532559D01*
X531575Y561692D02*
X532559D01*
X531575Y561337D02*
X532559D01*
X531575Y560983D02*
X532559D01*
X556575Y580825D02*
X557559D01*
X556575Y580471D02*
X557559D01*
X556575Y580117D02*
X557559D01*
X556575Y579762D02*
X557559D01*
X556575Y579408D02*
X557559D01*
X556575Y579054D02*
X557559D01*
X556575Y578699D02*
X557559D01*
X556575Y578345D02*
X557559D01*
X556575Y577991D02*
X557559D01*
X556575Y577636D02*
X557559D01*
X556575Y577282D02*
X557559D01*
X556575Y576928D02*
X557559D01*
X556575Y576573D02*
X557559D01*
X556575Y576219D02*
X557559D01*
X556575Y575865D02*
X557559D01*
X556575Y575510D02*
X557559D01*
X556575Y575156D02*
X557559D01*
X556575Y574802D02*
X557559D01*
X556575Y574448D02*
X557559D01*
X556575Y574093D02*
X557559D01*
X556575Y573739D02*
X557559D01*
X556575Y573385D02*
X557559D01*
X556575Y573030D02*
X557559D01*
X556575Y572676D02*
X557559D01*
X556575Y572322D02*
X557559D01*
X556575Y571967D02*
X557559D01*
X556575Y571613D02*
X557559D01*
X556575Y571259D02*
X557559D01*
X556575Y570904D02*
X557559D01*
X556575Y570550D02*
X557559D01*
X556575Y570196D02*
X557559D01*
X556575Y569841D02*
X557559D01*
X556575Y569487D02*
X557559D01*
X556575Y569133D02*
X557559D01*
X556575Y568778D02*
X557559D01*
X556575Y568424D02*
X557559D01*
X556575Y568070D02*
X557559D01*
X556575Y567715D02*
X557559D01*
X556575Y567361D02*
X557559D01*
X556575Y567007D02*
X557559D01*
X556575Y566652D02*
X557559D01*
X556575Y566298D02*
X557559D01*
X556575Y565944D02*
X557559D01*
X556575Y565589D02*
X557559D01*
X556575Y565235D02*
X557559D01*
X556575Y564881D02*
X557559D01*
X556575Y564526D02*
X557559D01*
X556575Y564172D02*
X557559D01*
X556575Y563818D02*
X557559D01*
X556575Y563463D02*
X557559D01*
X556575Y563109D02*
X557559D01*
X556575Y562755D02*
X557559D01*
X556575Y562400D02*
X557559D01*
X556575Y562046D02*
X557559D01*
X556575Y561692D02*
X557559D01*
X556575Y561337D02*
X557559D01*
X556575Y560983D02*
X557559D01*
X551575Y580825D02*
X552559D01*
X551575Y580471D02*
X552559D01*
X551575Y580117D02*
X552559D01*
X551575Y579762D02*
X552559D01*
X551575Y579408D02*
X552559D01*
X551575Y579054D02*
X552559D01*
X551575Y578699D02*
X552559D01*
X551575Y578345D02*
X552559D01*
X551575Y577991D02*
X552559D01*
X551575Y577636D02*
X552559D01*
X551575Y577282D02*
X552559D01*
X551575Y576928D02*
X552559D01*
X551575Y576573D02*
X552559D01*
X551575Y576219D02*
X552559D01*
X551575Y575865D02*
X552559D01*
X551575Y575510D02*
X552559D01*
X551575Y575156D02*
X552559D01*
X551575Y574802D02*
X552559D01*
X551575Y574448D02*
X552559D01*
X551575Y574093D02*
X552559D01*
X551575Y573739D02*
X552559D01*
X551575Y573385D02*
X552559D01*
X551575Y573030D02*
X552559D01*
X551575Y572676D02*
X552559D01*
X551575Y572322D02*
X552559D01*
X551575Y571967D02*
X552559D01*
X551575Y571613D02*
X552559D01*
X551575Y571259D02*
X552559D01*
X551575Y570904D02*
X552559D01*
X551575Y570550D02*
X552559D01*
X551575Y570196D02*
X552559D01*
X551575Y569841D02*
X552559D01*
X551575Y569487D02*
X552559D01*
X551575Y569133D02*
X552559D01*
X551575Y568778D02*
X552559D01*
X551575Y568424D02*
X552559D01*
X551575Y568070D02*
X552559D01*
X551575Y567715D02*
X552559D01*
X551575Y567361D02*
X552559D01*
X551575Y567007D02*
X552559D01*
X551575Y566652D02*
X552559D01*
X551575Y566298D02*
X552559D01*
X551575Y565944D02*
X552559D01*
X551575Y565589D02*
X552559D01*
X551575Y565235D02*
X552559D01*
X551575Y564881D02*
X552559D01*
X551575Y564526D02*
X552559D01*
X551575Y564172D02*
X552559D01*
X551575Y563818D02*
X552559D01*
X551575Y563463D02*
X552559D01*
X551575Y563109D02*
X552559D01*
X551575Y562755D02*
X552559D01*
X551575Y562400D02*
X552559D01*
X551575Y562046D02*
X552559D01*
X551575Y561692D02*
X552559D01*
X551575Y561337D02*
X552559D01*
X551575Y560983D02*
X552559D01*
X546575Y580825D02*
X547559D01*
X546575Y580471D02*
X547559D01*
X546575Y580117D02*
X547559D01*
X546575Y579762D02*
X547559D01*
X546575Y579408D02*
X547559D01*
X546575Y579054D02*
X547559D01*
X546575Y578699D02*
X547559D01*
X546575Y578345D02*
X547559D01*
X546575Y577991D02*
X547559D01*
X546575Y577636D02*
X547559D01*
X546575Y577282D02*
X547559D01*
X546575Y576928D02*
X547559D01*
X546575Y576573D02*
X547559D01*
X546575Y576219D02*
X547559D01*
X546575Y575865D02*
X547559D01*
X546575Y575510D02*
X547559D01*
X546575Y575156D02*
X547559D01*
X546575Y574802D02*
X547559D01*
X546575Y574448D02*
X547559D01*
X546575Y574093D02*
X547559D01*
X546575Y573739D02*
X547559D01*
X546575Y573385D02*
X547559D01*
X546575Y573030D02*
X547559D01*
X546575Y572676D02*
X547559D01*
X546575Y572322D02*
X547559D01*
X546575Y571967D02*
X547559D01*
X546575Y571613D02*
X547559D01*
X546575Y571259D02*
X547559D01*
X546575Y570904D02*
X547559D01*
X546575Y570550D02*
X547559D01*
X546575Y570196D02*
X547559D01*
X546575Y569841D02*
X547559D01*
X546575Y569487D02*
X547559D01*
X546575Y569133D02*
X547559D01*
X546575Y568778D02*
X547559D01*
X546575Y568424D02*
X547559D01*
X546575Y568070D02*
X547559D01*
X546575Y567715D02*
X547559D01*
X546575Y567361D02*
X547559D01*
X546575Y567007D02*
X547559D01*
X546575Y566652D02*
X547559D01*
X546575Y566298D02*
X547559D01*
X546575Y565944D02*
X547559D01*
X546575Y565589D02*
X547559D01*
X546575Y565235D02*
X547559D01*
X546575Y564881D02*
X547559D01*
X546575Y564526D02*
X547559D01*
X546575Y564172D02*
X547559D01*
X546575Y563818D02*
X547559D01*
X546575Y563463D02*
X547559D01*
X546575Y563109D02*
X547559D01*
X546575Y562755D02*
X547559D01*
X546575Y562400D02*
X547559D01*
X546575Y562046D02*
X547559D01*
X546575Y561692D02*
X547559D01*
X546575Y561337D02*
X547559D01*
X546575Y560983D02*
X547559D01*
X571575Y580825D02*
X572559D01*
X571575Y580471D02*
X572559D01*
X571575Y580117D02*
X572559D01*
X571575Y579762D02*
X572559D01*
X571575Y579408D02*
X572559D01*
X571575Y579054D02*
X572559D01*
X571575Y578699D02*
X572559D01*
X571575Y578345D02*
X572559D01*
X571575Y577991D02*
X572559D01*
X571575Y577636D02*
X572559D01*
X571575Y577282D02*
X572559D01*
X571575Y576928D02*
X572559D01*
X571575Y576573D02*
X572559D01*
X571575Y576219D02*
X572559D01*
X571575Y575865D02*
X572559D01*
X571575Y575510D02*
X572559D01*
X571575Y575156D02*
X572559D01*
X571575Y574802D02*
X572559D01*
X571575Y574448D02*
X572559D01*
X571575Y574093D02*
X572559D01*
X571575Y573739D02*
X572559D01*
X571575Y573385D02*
X572559D01*
X571575Y573030D02*
X572559D01*
X571575Y572676D02*
X572559D01*
X571575Y572322D02*
X572559D01*
X571575Y571967D02*
X572559D01*
X571575Y571613D02*
X572559D01*
X571575Y571259D02*
X572559D01*
X571575Y570904D02*
X572559D01*
X571575Y570550D02*
X572559D01*
X571575Y570196D02*
X572559D01*
X571575Y569841D02*
X572559D01*
X571575Y569487D02*
X572559D01*
X571575Y569133D02*
X572559D01*
X571575Y568778D02*
X572559D01*
X571575Y568424D02*
X572559D01*
X571575Y568070D02*
X572559D01*
X571575Y567715D02*
X572559D01*
X571575Y567361D02*
X572559D01*
X571575Y567007D02*
X572559D01*
X571575Y566652D02*
X572559D01*
X571575Y566298D02*
X572559D01*
X571575Y565944D02*
X572559D01*
X571575Y565589D02*
X572559D01*
X571575Y565235D02*
X572559D01*
X571575Y564881D02*
X572559D01*
X571575Y564526D02*
X572559D01*
X571575Y564172D02*
X572559D01*
X571575Y563818D02*
X572559D01*
X571575Y563463D02*
X572559D01*
X571575Y563109D02*
X572559D01*
X571575Y562755D02*
X572559D01*
X571575Y562400D02*
X572559D01*
X571575Y562046D02*
X572559D01*
X571575Y561692D02*
X572559D01*
X571575Y561337D02*
X572559D01*
X571575Y560983D02*
X572559D01*
X566575Y580825D02*
X567559D01*
X566575Y580471D02*
X567559D01*
X566575Y580117D02*
X567559D01*
X566575Y579762D02*
X567559D01*
X566575Y579408D02*
X567559D01*
X566575Y579054D02*
X567559D01*
X566575Y578699D02*
X567559D01*
X566575Y578345D02*
X567559D01*
X566575Y577991D02*
X567559D01*
X566575Y577636D02*
X567559D01*
X566575Y577282D02*
X567559D01*
X566575Y576928D02*
X567559D01*
X566575Y576573D02*
X567559D01*
X566575Y576219D02*
X567559D01*
X566575Y575865D02*
X567559D01*
X566575Y575510D02*
X567559D01*
X566575Y575156D02*
X567559D01*
X566575Y574802D02*
X567559D01*
X566575Y574448D02*
X567559D01*
X566575Y574093D02*
X567559D01*
X566575Y573739D02*
X567559D01*
X566575Y573385D02*
X567559D01*
X566575Y573030D02*
X567559D01*
X566575Y572676D02*
X567559D01*
X566575Y572322D02*
X567559D01*
X566575Y571967D02*
X567559D01*
X566575Y571613D02*
X567559D01*
X566575Y571259D02*
X567559D01*
X566575Y570904D02*
X567559D01*
X566575Y570550D02*
X567559D01*
X566575Y570196D02*
X567559D01*
X566575Y569841D02*
X567559D01*
X566575Y569487D02*
X567559D01*
X566575Y569133D02*
X567559D01*
X566575Y568778D02*
X567559D01*
X566575Y568424D02*
X567559D01*
X566575Y568070D02*
X567559D01*
X566575Y567715D02*
X567559D01*
X566575Y567361D02*
X567559D01*
X566575Y567007D02*
X567559D01*
X566575Y566652D02*
X567559D01*
X566575Y566298D02*
X567559D01*
X566575Y565944D02*
X567559D01*
X566575Y565589D02*
X567559D01*
X566575Y565235D02*
X567559D01*
X566575Y564881D02*
X567559D01*
X566575Y564526D02*
X567559D01*
X566575Y564172D02*
X567559D01*
X566575Y563818D02*
X567559D01*
X566575Y563463D02*
X567559D01*
X566575Y563109D02*
X567559D01*
X566575Y562755D02*
X567559D01*
X566575Y562400D02*
X567559D01*
X566575Y562046D02*
X567559D01*
X566575Y561692D02*
X567559D01*
X566575Y561337D02*
X567559D01*
X566575Y560983D02*
X567559D01*
X561575Y580825D02*
X562559D01*
X561575Y580471D02*
X562559D01*
X561575Y580117D02*
X562559D01*
X561575Y579762D02*
X562559D01*
X561575Y579408D02*
X562559D01*
X561575Y579054D02*
X562559D01*
X561575Y578699D02*
X562559D01*
X561575Y578345D02*
X562559D01*
X561575Y577991D02*
X562559D01*
X561575Y577636D02*
X562559D01*
X561575Y577282D02*
X562559D01*
X561575Y576928D02*
X562559D01*
X561575Y576573D02*
X562559D01*
X561575Y576219D02*
X562559D01*
X561575Y575865D02*
X562559D01*
X561575Y575510D02*
X562559D01*
X561575Y575156D02*
X562559D01*
X561575Y574802D02*
X562559D01*
X561575Y574448D02*
X562559D01*
X561575Y574093D02*
X562559D01*
X561575Y573739D02*
X562559D01*
X561575Y573385D02*
X562559D01*
X561575Y573030D02*
X562559D01*
X561575Y572676D02*
X562559D01*
X561575Y572322D02*
X562559D01*
X561575Y571967D02*
X562559D01*
X561575Y571613D02*
X562559D01*
X561575Y571259D02*
X562559D01*
X561575Y570904D02*
X562559D01*
X561575Y570550D02*
X562559D01*
X561575Y570196D02*
X562559D01*
X561575Y569841D02*
X562559D01*
X561575Y569487D02*
X562559D01*
X561575Y569133D02*
X562559D01*
X561575Y568778D02*
X562559D01*
X561575Y568424D02*
X562559D01*
X561575Y568070D02*
X562559D01*
X561575Y567715D02*
X562559D01*
X561575Y567361D02*
X562559D01*
X561575Y567007D02*
X562559D01*
X561575Y566652D02*
X562559D01*
X561575Y566298D02*
X562559D01*
X561575Y565944D02*
X562559D01*
X561575Y565589D02*
X562559D01*
X561575Y565235D02*
X562559D01*
X561575Y564881D02*
X562559D01*
X561575Y564526D02*
X562559D01*
X561575Y564172D02*
X562559D01*
X561575Y563818D02*
X562559D01*
X561575Y563463D02*
X562559D01*
X561575Y563109D02*
X562559D01*
X561575Y562755D02*
X562559D01*
X561575Y562400D02*
X562559D01*
X561575Y562046D02*
X562559D01*
X561575Y561692D02*
X562559D01*
X561575Y561337D02*
X562559D01*
X561575Y560983D02*
X562559D01*
X576575Y580825D02*
X577559D01*
X576575Y580471D02*
X577559D01*
X576575Y580117D02*
X577559D01*
X576575Y579762D02*
X577559D01*
X576575Y579408D02*
X577559D01*
X576575Y579054D02*
X577559D01*
X576575Y578699D02*
X577559D01*
X576575Y578345D02*
X577559D01*
X576575Y577991D02*
X577559D01*
X576575Y577636D02*
X577559D01*
X576575Y577282D02*
X577559D01*
X576575Y576928D02*
X577559D01*
X576575Y576573D02*
X577559D01*
X576575Y576219D02*
X577559D01*
X576575Y575865D02*
X577559D01*
X576575Y575510D02*
X577559D01*
X576575Y575156D02*
X577559D01*
X576575Y574802D02*
X577559D01*
X576575Y574448D02*
X577559D01*
X576575Y574093D02*
X577559D01*
X576575Y573739D02*
X577559D01*
X576575Y573385D02*
X577559D01*
X576575Y573030D02*
X577559D01*
X576575Y572676D02*
X577559D01*
X576575Y572322D02*
X577559D01*
X576575Y571967D02*
X577559D01*
X576575Y571613D02*
X577559D01*
X576575Y571259D02*
X577559D01*
X576575Y570904D02*
X577559D01*
X576575Y570550D02*
X577559D01*
X576575Y570196D02*
X577559D01*
X576575Y569841D02*
X577559D01*
X576575Y569487D02*
X577559D01*
X576575Y569133D02*
X577559D01*
X576575Y568778D02*
X577559D01*
X576575Y568424D02*
X577559D01*
X576575Y568070D02*
X577559D01*
X576575Y567715D02*
X577559D01*
X576575Y567361D02*
X577559D01*
X576575Y567007D02*
X577559D01*
X576575Y566652D02*
X577559D01*
X576575Y566298D02*
X577559D01*
X576575Y565944D02*
X577559D01*
X576575Y565589D02*
X577559D01*
X576575Y565235D02*
X577559D01*
X576575Y564881D02*
X577559D01*
X576575Y564526D02*
X577559D01*
X576575Y564172D02*
X577559D01*
X576575Y563818D02*
X577559D01*
X576575Y563463D02*
X577559D01*
X576575Y563109D02*
X577559D01*
X576575Y562755D02*
X577559D01*
X576575Y562400D02*
X577559D01*
X576575Y562046D02*
X577559D01*
X576575Y561692D02*
X577559D01*
X576575Y561337D02*
X577559D01*
X576575Y560983D02*
X577559D01*
X433465Y414743D02*
X581181D01*
X433465Y414388D02*
X581181D01*
X433465Y414034D02*
X581181D01*
X433465Y413680D02*
X581181D01*
X433465Y413325D02*
X581181D01*
X433465Y412971D02*
X581181D01*
X433465Y412617D02*
X581181D01*
X433465Y412262D02*
X581181D01*
X436614Y423325D02*
X437598D01*
X436614Y422971D02*
X437598D01*
X436614Y422617D02*
X437598D01*
X436614Y422262D02*
X437598D01*
X436614Y421908D02*
X437598D01*
X436614Y421554D02*
X437598D01*
X436614Y421199D02*
X437598D01*
X436614Y420845D02*
X437598D01*
X436614Y420491D02*
X437598D01*
X436614Y420136D02*
X437598D01*
X436614Y419782D02*
X437598D01*
X436614Y419428D02*
X437598D01*
X436614Y419073D02*
X437598D01*
X436614Y418719D02*
X437598D01*
X436614Y418365D02*
X437598D01*
X436614Y418010D02*
X437598D01*
X436614Y417656D02*
X437598D01*
X436614Y417302D02*
X437598D01*
X436614Y416948D02*
X437598D01*
X436614Y416593D02*
X437598D01*
X436614Y416239D02*
X437598D01*
X436614Y415885D02*
X437598D01*
X436614Y415530D02*
X437598D01*
X436614Y415176D02*
X437598D01*
X436614Y414822D02*
X437598D01*
X436614Y414467D02*
X437598D01*
X436614Y414113D02*
X437598D01*
X436614Y413759D02*
X437598D01*
X436614Y413404D02*
X437598D01*
X436614Y413050D02*
X437598D01*
X436614Y412696D02*
X437598D01*
X436614Y412341D02*
X437598D01*
X436614Y411987D02*
X437598D01*
X436614Y411633D02*
X437598D01*
X436614Y411278D02*
X437598D01*
X436614Y410924D02*
X437598D01*
X436614Y410570D02*
X437598D01*
X436614Y410215D02*
X437598D01*
X436614Y409861D02*
X437598D01*
X436614Y409507D02*
X437598D01*
X436614Y409152D02*
X437598D01*
X436614Y408798D02*
X437598D01*
X436614Y408444D02*
X437598D01*
X436614Y408089D02*
X437598D01*
X436614Y407735D02*
X437598D01*
X436614Y407381D02*
X437598D01*
X436614Y407026D02*
X437598D01*
X436614Y406672D02*
X437598D01*
X436614Y406318D02*
X437598D01*
X436614Y405963D02*
X437598D01*
X436614Y405609D02*
X437598D01*
X436614Y405255D02*
X437598D01*
X436614Y404900D02*
X437598D01*
X436614Y404546D02*
X437598D01*
X436614Y404192D02*
X437598D01*
X436614Y403837D02*
X437598D01*
X436614Y403483D02*
X437598D01*
X441535Y423325D02*
X442520D01*
X441535Y422971D02*
X442520D01*
X441535Y422617D02*
X442520D01*
X441535Y422262D02*
X442520D01*
X441535Y421908D02*
X442520D01*
X441535Y421554D02*
X442520D01*
X441535Y421199D02*
X442520D01*
X441535Y420845D02*
X442520D01*
X441535Y420491D02*
X442520D01*
X441535Y420136D02*
X442520D01*
X441535Y419782D02*
X442520D01*
X441535Y419428D02*
X442520D01*
X441535Y419073D02*
X442520D01*
X441535Y418719D02*
X442520D01*
X441535Y418365D02*
X442520D01*
X441535Y418010D02*
X442520D01*
X441535Y417656D02*
X442520D01*
X441535Y417302D02*
X442520D01*
X441535Y416948D02*
X442520D01*
X441535Y416593D02*
X442520D01*
X441535Y416239D02*
X442520D01*
X441535Y415885D02*
X442520D01*
X441535Y415530D02*
X442520D01*
X441535Y415176D02*
X442520D01*
X441535Y414822D02*
X442520D01*
X441535Y414467D02*
X442520D01*
X441535Y414113D02*
X442520D01*
X441535Y413759D02*
X442520D01*
X441535Y413404D02*
X442520D01*
X441535Y413050D02*
X442520D01*
X441535Y412696D02*
X442520D01*
X441535Y412341D02*
X442520D01*
X441535Y411987D02*
X442520D01*
X441535Y411633D02*
X442520D01*
X441535Y411278D02*
X442520D01*
X441535Y410924D02*
X442520D01*
X441535Y410570D02*
X442520D01*
X441535Y410215D02*
X442520D01*
X441535Y409861D02*
X442520D01*
X441535Y409507D02*
X442520D01*
X441535Y409152D02*
X442520D01*
X441535Y408798D02*
X442520D01*
X441535Y408444D02*
X442520D01*
X441535Y408089D02*
X442520D01*
X441535Y407735D02*
X442520D01*
X441535Y407381D02*
X442520D01*
X441535Y407026D02*
X442520D01*
X441535Y406672D02*
X442520D01*
X441535Y406318D02*
X442520D01*
X441535Y405963D02*
X442520D01*
X441535Y405609D02*
X442520D01*
X441535Y405255D02*
X442520D01*
X441535Y404900D02*
X442520D01*
X441535Y404546D02*
X442520D01*
X441535Y404192D02*
X442520D01*
X441535Y403837D02*
X442520D01*
X441535Y403483D02*
X442520D01*
X451575Y423325D02*
X452559D01*
X451575Y422971D02*
X452559D01*
X451575Y422617D02*
X452559D01*
X451575Y422262D02*
X452559D01*
X451575Y421908D02*
X452559D01*
X451575Y421554D02*
X452559D01*
X451575Y421199D02*
X452559D01*
X451575Y420845D02*
X452559D01*
X451575Y420491D02*
X452559D01*
X451575Y420136D02*
X452559D01*
X451575Y419782D02*
X452559D01*
X451575Y419428D02*
X452559D01*
X451575Y419073D02*
X452559D01*
X451575Y418719D02*
X452559D01*
X451575Y418365D02*
X452559D01*
X451575Y418010D02*
X452559D01*
X451575Y417656D02*
X452559D01*
X451575Y417302D02*
X452559D01*
X451575Y416948D02*
X452559D01*
X451575Y416593D02*
X452559D01*
X451575Y416239D02*
X452559D01*
X451575Y415885D02*
X452559D01*
X451575Y415530D02*
X452559D01*
X451575Y415176D02*
X452559D01*
X451575Y414822D02*
X452559D01*
X451575Y414467D02*
X452559D01*
X451575Y414113D02*
X452559D01*
X451575Y413759D02*
X452559D01*
X451575Y413404D02*
X452559D01*
X451575Y413050D02*
X452559D01*
X451575Y412696D02*
X452559D01*
X451575Y412341D02*
X452559D01*
X451575Y411987D02*
X452559D01*
X451575Y411633D02*
X452559D01*
X451575Y411278D02*
X452559D01*
X451575Y410924D02*
X452559D01*
X451575Y410570D02*
X452559D01*
X451575Y410215D02*
X452559D01*
X451575Y409861D02*
X452559D01*
X451575Y409507D02*
X452559D01*
X451575Y409152D02*
X452559D01*
X451575Y408798D02*
X452559D01*
X451575Y408444D02*
X452559D01*
X451575Y408089D02*
X452559D01*
X451575Y407735D02*
X452559D01*
X451575Y407381D02*
X452559D01*
X451575Y407026D02*
X452559D01*
X451575Y406672D02*
X452559D01*
X451575Y406318D02*
X452559D01*
X451575Y405963D02*
X452559D01*
X451575Y405609D02*
X452559D01*
X451575Y405255D02*
X452559D01*
X451575Y404900D02*
X452559D01*
X451575Y404546D02*
X452559D01*
X451575Y404192D02*
X452559D01*
X451575Y403837D02*
X452559D01*
X451575Y403483D02*
X452559D01*
X446654Y423325D02*
X447638D01*
X446654Y422971D02*
X447638D01*
X446654Y422617D02*
X447638D01*
X446654Y422262D02*
X447638D01*
X446654Y421908D02*
X447638D01*
X446654Y421554D02*
X447638D01*
X446654Y421199D02*
X447638D01*
X446654Y420845D02*
X447638D01*
X446654Y420491D02*
X447638D01*
X446654Y420136D02*
X447638D01*
X446654Y419782D02*
X447638D01*
X446654Y419428D02*
X447638D01*
X446654Y419073D02*
X447638D01*
X446654Y418719D02*
X447638D01*
X446654Y418365D02*
X447638D01*
X446654Y418010D02*
X447638D01*
X446654Y417656D02*
X447638D01*
X446654Y417302D02*
X447638D01*
X446654Y416948D02*
X447638D01*
X446654Y416593D02*
X447638D01*
X446654Y416239D02*
X447638D01*
X446654Y415885D02*
X447638D01*
X446654Y415530D02*
X447638D01*
X446654Y415176D02*
X447638D01*
X446654Y414822D02*
X447638D01*
X446654Y414467D02*
X447638D01*
X446654Y414113D02*
X447638D01*
X446654Y413759D02*
X447638D01*
X446654Y413404D02*
X447638D01*
X446654Y413050D02*
X447638D01*
X446654Y412696D02*
X447638D01*
X446654Y412341D02*
X447638D01*
X446654Y411987D02*
X447638D01*
X446654Y411633D02*
X447638D01*
X446654Y411278D02*
X447638D01*
X446654Y410924D02*
X447638D01*
X446654Y410570D02*
X447638D01*
X446654Y410215D02*
X447638D01*
X446654Y409861D02*
X447638D01*
X446654Y409507D02*
X447638D01*
X446654Y409152D02*
X447638D01*
X446654Y408798D02*
X447638D01*
X446654Y408444D02*
X447638D01*
X446654Y408089D02*
X447638D01*
X446654Y407735D02*
X447638D01*
X446654Y407381D02*
X447638D01*
X446654Y407026D02*
X447638D01*
X446654Y406672D02*
X447638D01*
X446654Y406318D02*
X447638D01*
X446654Y405963D02*
X447638D01*
X446654Y405609D02*
X447638D01*
X446654Y405255D02*
X447638D01*
X446654Y404900D02*
X447638D01*
X446654Y404546D02*
X447638D01*
X446654Y404192D02*
X447638D01*
X446654Y403837D02*
X447638D01*
X446654Y403483D02*
X447638D01*
X456575Y423325D02*
X457559D01*
X456575Y422971D02*
X457559D01*
X456575Y422617D02*
X457559D01*
X456575Y422262D02*
X457559D01*
X456575Y421908D02*
X457559D01*
X456575Y421554D02*
X457559D01*
X456575Y421199D02*
X457559D01*
X456575Y420845D02*
X457559D01*
X456575Y420491D02*
X457559D01*
X456575Y420136D02*
X457559D01*
X456575Y419782D02*
X457559D01*
X456575Y419428D02*
X457559D01*
X456575Y419073D02*
X457559D01*
X456575Y418719D02*
X457559D01*
X456575Y418365D02*
X457559D01*
X456575Y418010D02*
X457559D01*
X456575Y417656D02*
X457559D01*
X456575Y417302D02*
X457559D01*
X456575Y416948D02*
X457559D01*
X456575Y416593D02*
X457559D01*
X456575Y416239D02*
X457559D01*
X456575Y415885D02*
X457559D01*
X456575Y415530D02*
X457559D01*
X456575Y415176D02*
X457559D01*
X456575Y414822D02*
X457559D01*
X456575Y414467D02*
X457559D01*
X456575Y414113D02*
X457559D01*
X456575Y413759D02*
X457559D01*
X456575Y413404D02*
X457559D01*
X456575Y413050D02*
X457559D01*
X456575Y412696D02*
X457559D01*
X456575Y412341D02*
X457559D01*
X456575Y411987D02*
X457559D01*
X456575Y411633D02*
X457559D01*
X456575Y411278D02*
X457559D01*
X456575Y410924D02*
X457559D01*
X456575Y410570D02*
X457559D01*
X456575Y410215D02*
X457559D01*
X456575Y409861D02*
X457559D01*
X456575Y409507D02*
X457559D01*
X456575Y409152D02*
X457559D01*
X456575Y408798D02*
X457559D01*
X456575Y408444D02*
X457559D01*
X456575Y408089D02*
X457559D01*
X456575Y407735D02*
X457559D01*
X456575Y407381D02*
X457559D01*
X456575Y407026D02*
X457559D01*
X456575Y406672D02*
X457559D01*
X456575Y406318D02*
X457559D01*
X456575Y405963D02*
X457559D01*
X456575Y405609D02*
X457559D01*
X456575Y405255D02*
X457559D01*
X456575Y404900D02*
X457559D01*
X456575Y404546D02*
X457559D01*
X456575Y404192D02*
X457559D01*
X456575Y403837D02*
X457559D01*
X456575Y403483D02*
X457559D01*
X461575Y423325D02*
X462559D01*
X461575Y422971D02*
X462559D01*
X461575Y422617D02*
X462559D01*
X461575Y422262D02*
X462559D01*
X461575Y421908D02*
X462559D01*
X461575Y421554D02*
X462559D01*
X461575Y421199D02*
X462559D01*
X461575Y420845D02*
X462559D01*
X461575Y420491D02*
X462559D01*
X461575Y420136D02*
X462559D01*
X461575Y419782D02*
X462559D01*
X461575Y419428D02*
X462559D01*
X461575Y419073D02*
X462559D01*
X461575Y418719D02*
X462559D01*
X461575Y418365D02*
X462559D01*
X461575Y418010D02*
X462559D01*
X461575Y417656D02*
X462559D01*
X461575Y417302D02*
X462559D01*
X461575Y416948D02*
X462559D01*
X461575Y416593D02*
X462559D01*
X461575Y416239D02*
X462559D01*
X461575Y415885D02*
X462559D01*
X461575Y415530D02*
X462559D01*
X461575Y415176D02*
X462559D01*
X461575Y414822D02*
X462559D01*
X461575Y414467D02*
X462559D01*
X461575Y414113D02*
X462559D01*
X461575Y413759D02*
X462559D01*
X461575Y413404D02*
X462559D01*
X461575Y413050D02*
X462559D01*
X461575Y412696D02*
X462559D01*
X461575Y412341D02*
X462559D01*
X461575Y411987D02*
X462559D01*
X461575Y411633D02*
X462559D01*
X461575Y411278D02*
X462559D01*
X461575Y410924D02*
X462559D01*
X461575Y410570D02*
X462559D01*
X461575Y410215D02*
X462559D01*
X461575Y409861D02*
X462559D01*
X461575Y409507D02*
X462559D01*
X461575Y409152D02*
X462559D01*
X461575Y408798D02*
X462559D01*
X461575Y408444D02*
X462559D01*
X461575Y408089D02*
X462559D01*
X461575Y407735D02*
X462559D01*
X461575Y407381D02*
X462559D01*
X461575Y407026D02*
X462559D01*
X461575Y406672D02*
X462559D01*
X461575Y406318D02*
X462559D01*
X461575Y405963D02*
X462559D01*
X461575Y405609D02*
X462559D01*
X461575Y405255D02*
X462559D01*
X461575Y404900D02*
X462559D01*
X461575Y404546D02*
X462559D01*
X461575Y404192D02*
X462559D01*
X461575Y403837D02*
X462559D01*
X461575Y403483D02*
X462559D01*
X466575Y423325D02*
X467559D01*
X466575Y422971D02*
X467559D01*
X466575Y422617D02*
X467559D01*
X466575Y422262D02*
X467559D01*
X466575Y421908D02*
X467559D01*
X466575Y421554D02*
X467559D01*
X466575Y421199D02*
X467559D01*
X466575Y420845D02*
X467559D01*
X466575Y420491D02*
X467559D01*
X466575Y420136D02*
X467559D01*
X466575Y419782D02*
X467559D01*
X466575Y419428D02*
X467559D01*
X466575Y419073D02*
X467559D01*
X466575Y418719D02*
X467559D01*
X466575Y418365D02*
X467559D01*
X466575Y418010D02*
X467559D01*
X466575Y417656D02*
X467559D01*
X466575Y417302D02*
X467559D01*
X466575Y416948D02*
X467559D01*
X466575Y416593D02*
X467559D01*
X466575Y416239D02*
X467559D01*
X466575Y415885D02*
X467559D01*
X466575Y415530D02*
X467559D01*
X466575Y415176D02*
X467559D01*
X466575Y414822D02*
X467559D01*
X466575Y414467D02*
X467559D01*
X466575Y414113D02*
X467559D01*
X466575Y413759D02*
X467559D01*
X466575Y413404D02*
X467559D01*
X466575Y413050D02*
X467559D01*
X466575Y412696D02*
X467559D01*
X466575Y412341D02*
X467559D01*
X466575Y411987D02*
X467559D01*
X466575Y411633D02*
X467559D01*
X466575Y411278D02*
X467559D01*
X466575Y410924D02*
X467559D01*
X466575Y410570D02*
X467559D01*
X466575Y410215D02*
X467559D01*
X466575Y409861D02*
X467559D01*
X466575Y409507D02*
X467559D01*
X466575Y409152D02*
X467559D01*
X466575Y408798D02*
X467559D01*
X466575Y408444D02*
X467559D01*
X466575Y408089D02*
X467559D01*
X466575Y407735D02*
X467559D01*
X466575Y407381D02*
X467559D01*
X466575Y407026D02*
X467559D01*
X466575Y406672D02*
X467559D01*
X466575Y406318D02*
X467559D01*
X466575Y405963D02*
X467559D01*
X466575Y405609D02*
X467559D01*
X466575Y405255D02*
X467559D01*
X466575Y404900D02*
X467559D01*
X466575Y404546D02*
X467559D01*
X466575Y404192D02*
X467559D01*
X466575Y403837D02*
X467559D01*
X466575Y403483D02*
X467559D01*
X481575Y423325D02*
X482559D01*
X481575Y422971D02*
X482559D01*
X481575Y422617D02*
X482559D01*
X481575Y422262D02*
X482559D01*
X481575Y421908D02*
X482559D01*
X481575Y421554D02*
X482559D01*
X481575Y421199D02*
X482559D01*
X481575Y420845D02*
X482559D01*
X481575Y420491D02*
X482559D01*
X481575Y420136D02*
X482559D01*
X481575Y419782D02*
X482559D01*
X481575Y419428D02*
X482559D01*
X481575Y419073D02*
X482559D01*
X481575Y418719D02*
X482559D01*
X481575Y418365D02*
X482559D01*
X481575Y418010D02*
X482559D01*
X481575Y417656D02*
X482559D01*
X481575Y417302D02*
X482559D01*
X481575Y416948D02*
X482559D01*
X481575Y416593D02*
X482559D01*
X481575Y416239D02*
X482559D01*
X481575Y415885D02*
X482559D01*
X481575Y415530D02*
X482559D01*
X481575Y415176D02*
X482559D01*
X481575Y414822D02*
X482559D01*
X481575Y414467D02*
X482559D01*
X481575Y414113D02*
X482559D01*
X481575Y413759D02*
X482559D01*
X481575Y413404D02*
X482559D01*
X481575Y413050D02*
X482559D01*
X481575Y412696D02*
X482559D01*
X481575Y412341D02*
X482559D01*
X481575Y411987D02*
X482559D01*
X481575Y411633D02*
X482559D01*
X481575Y411278D02*
X482559D01*
X481575Y410924D02*
X482559D01*
X481575Y410570D02*
X482559D01*
X481575Y410215D02*
X482559D01*
X481575Y409861D02*
X482559D01*
X481575Y409507D02*
X482559D01*
X481575Y409152D02*
X482559D01*
X481575Y408798D02*
X482559D01*
X481575Y408444D02*
X482559D01*
X481575Y408089D02*
X482559D01*
X481575Y407735D02*
X482559D01*
X481575Y407381D02*
X482559D01*
X481575Y407026D02*
X482559D01*
X481575Y406672D02*
X482559D01*
X481575Y406318D02*
X482559D01*
X481575Y405963D02*
X482559D01*
X481575Y405609D02*
X482559D01*
X481575Y405255D02*
X482559D01*
X481575Y404900D02*
X482559D01*
X481575Y404546D02*
X482559D01*
X481575Y404192D02*
X482559D01*
X481575Y403837D02*
X482559D01*
X481575Y403483D02*
X482559D01*
X476575Y423325D02*
X477559D01*
X476575Y422971D02*
X477559D01*
X476575Y422617D02*
X477559D01*
X476575Y422262D02*
X477559D01*
X476575Y421908D02*
X477559D01*
X476575Y421554D02*
X477559D01*
X476575Y421199D02*
X477559D01*
X476575Y420845D02*
X477559D01*
X476575Y420491D02*
X477559D01*
X476575Y420136D02*
X477559D01*
X476575Y419782D02*
X477559D01*
X476575Y419428D02*
X477559D01*
X476575Y419073D02*
X477559D01*
X476575Y418719D02*
X477559D01*
X476575Y418365D02*
X477559D01*
X476575Y418010D02*
X477559D01*
X476575Y417656D02*
X477559D01*
X476575Y417302D02*
X477559D01*
X476575Y416948D02*
X477559D01*
X476575Y416593D02*
X477559D01*
X476575Y416239D02*
X477559D01*
X476575Y415885D02*
X477559D01*
X476575Y415530D02*
X477559D01*
X476575Y415176D02*
X477559D01*
X476575Y414822D02*
X477559D01*
X476575Y414467D02*
X477559D01*
X476575Y414113D02*
X477559D01*
X476575Y413759D02*
X477559D01*
X476575Y413404D02*
X477559D01*
X476575Y413050D02*
X477559D01*
X476575Y412696D02*
X477559D01*
X476575Y412341D02*
X477559D01*
X476575Y411987D02*
X477559D01*
X476575Y411633D02*
X477559D01*
X476575Y411278D02*
X477559D01*
X476575Y410924D02*
X477559D01*
X476575Y410570D02*
X477559D01*
X476575Y410215D02*
X477559D01*
X476575Y409861D02*
X477559D01*
X476575Y409507D02*
X477559D01*
X476575Y409152D02*
X477559D01*
X476575Y408798D02*
X477559D01*
X476575Y408444D02*
X477559D01*
X476575Y408089D02*
X477559D01*
X476575Y407735D02*
X477559D01*
X476575Y407381D02*
X477559D01*
X476575Y407026D02*
X477559D01*
X476575Y406672D02*
X477559D01*
X476575Y406318D02*
X477559D01*
X476575Y405963D02*
X477559D01*
X476575Y405609D02*
X477559D01*
X476575Y405255D02*
X477559D01*
X476575Y404900D02*
X477559D01*
X476575Y404546D02*
X477559D01*
X476575Y404192D02*
X477559D01*
X476575Y403837D02*
X477559D01*
X476575Y403483D02*
X477559D01*
X471575Y423325D02*
X472559D01*
X471575Y422971D02*
X472559D01*
X471575Y422617D02*
X472559D01*
X471575Y422262D02*
X472559D01*
X471575Y421908D02*
X472559D01*
X471575Y421554D02*
X472559D01*
X471575Y421199D02*
X472559D01*
X471575Y420845D02*
X472559D01*
X471575Y420491D02*
X472559D01*
X471575Y420136D02*
X472559D01*
X471575Y419782D02*
X472559D01*
X471575Y419428D02*
X472559D01*
X471575Y419073D02*
X472559D01*
X471575Y418719D02*
X472559D01*
X471575Y418365D02*
X472559D01*
X471575Y418010D02*
X472559D01*
X471575Y417656D02*
X472559D01*
X471575Y417302D02*
X472559D01*
X471575Y416948D02*
X472559D01*
X471575Y416593D02*
X472559D01*
X471575Y416239D02*
X472559D01*
X471575Y415885D02*
X472559D01*
X471575Y415530D02*
X472559D01*
X471575Y415176D02*
X472559D01*
X471575Y414822D02*
X472559D01*
X471575Y414467D02*
X472559D01*
X471575Y414113D02*
X472559D01*
X471575Y413759D02*
X472559D01*
X471575Y413404D02*
X472559D01*
X471575Y413050D02*
X472559D01*
X471575Y412696D02*
X472559D01*
X471575Y412341D02*
X472559D01*
X471575Y411987D02*
X472559D01*
X471575Y411633D02*
X472559D01*
X471575Y411278D02*
X472559D01*
X471575Y410924D02*
X472559D01*
X471575Y410570D02*
X472559D01*
X471575Y410215D02*
X472559D01*
X471575Y409861D02*
X472559D01*
X471575Y409507D02*
X472559D01*
X471575Y409152D02*
X472559D01*
X471575Y408798D02*
X472559D01*
X471575Y408444D02*
X472559D01*
X471575Y408089D02*
X472559D01*
X471575Y407735D02*
X472559D01*
X471575Y407381D02*
X472559D01*
X471575Y407026D02*
X472559D01*
X471575Y406672D02*
X472559D01*
X471575Y406318D02*
X472559D01*
X471575Y405963D02*
X472559D01*
X471575Y405609D02*
X472559D01*
X471575Y405255D02*
X472559D01*
X471575Y404900D02*
X472559D01*
X471575Y404546D02*
X472559D01*
X471575Y404192D02*
X472559D01*
X471575Y403837D02*
X472559D01*
X471575Y403483D02*
X472559D01*
X496575Y423325D02*
X497559D01*
X496575Y422971D02*
X497559D01*
X496575Y422617D02*
X497559D01*
X496575Y422262D02*
X497559D01*
X496575Y421908D02*
X497559D01*
X496575Y421554D02*
X497559D01*
X496575Y421199D02*
X497559D01*
X496575Y420845D02*
X497559D01*
X496575Y420491D02*
X497559D01*
X496575Y420136D02*
X497559D01*
X496575Y419782D02*
X497559D01*
X496575Y419428D02*
X497559D01*
X496575Y419073D02*
X497559D01*
X496575Y418719D02*
X497559D01*
X496575Y418365D02*
X497559D01*
X496575Y418010D02*
X497559D01*
X496575Y417656D02*
X497559D01*
X496575Y417302D02*
X497559D01*
X496575Y416948D02*
X497559D01*
X496575Y416593D02*
X497559D01*
X496575Y416239D02*
X497559D01*
X496575Y415885D02*
X497559D01*
X496575Y415530D02*
X497559D01*
X496575Y415176D02*
X497559D01*
X496575Y414822D02*
X497559D01*
X496575Y414467D02*
X497559D01*
X496575Y414113D02*
X497559D01*
X496575Y413759D02*
X497559D01*
X496575Y413404D02*
X497559D01*
X496575Y413050D02*
X497559D01*
X496575Y412696D02*
X497559D01*
X496575Y412341D02*
X497559D01*
X496575Y411987D02*
X497559D01*
X496575Y411633D02*
X497559D01*
X496575Y411278D02*
X497559D01*
X496575Y410924D02*
X497559D01*
X496575Y410570D02*
X497559D01*
X496575Y410215D02*
X497559D01*
X496575Y409861D02*
X497559D01*
X496575Y409507D02*
X497559D01*
X496575Y409152D02*
X497559D01*
X496575Y408798D02*
X497559D01*
X496575Y408444D02*
X497559D01*
X496575Y408089D02*
X497559D01*
X496575Y407735D02*
X497559D01*
X496575Y407381D02*
X497559D01*
X496575Y407026D02*
X497559D01*
X496575Y406672D02*
X497559D01*
X496575Y406318D02*
X497559D01*
X496575Y405963D02*
X497559D01*
X496575Y405609D02*
X497559D01*
X496575Y405255D02*
X497559D01*
X496575Y404900D02*
X497559D01*
X496575Y404546D02*
X497559D01*
X496575Y404192D02*
X497559D01*
X496575Y403837D02*
X497559D01*
X496575Y403483D02*
X497559D01*
X491575Y423325D02*
X492559D01*
X491575Y422971D02*
X492559D01*
X491575Y422617D02*
X492559D01*
X491575Y422262D02*
X492559D01*
X491575Y421908D02*
X492559D01*
X491575Y421554D02*
X492559D01*
X491575Y421199D02*
X492559D01*
X491575Y420845D02*
X492559D01*
X491575Y420491D02*
X492559D01*
X491575Y420136D02*
X492559D01*
X491575Y419782D02*
X492559D01*
X491575Y419428D02*
X492559D01*
X491575Y419073D02*
X492559D01*
X491575Y418719D02*
X492559D01*
X491575Y418365D02*
X492559D01*
X491575Y418010D02*
X492559D01*
X491575Y417656D02*
X492559D01*
X491575Y417302D02*
X492559D01*
X491575Y416948D02*
X492559D01*
X491575Y416593D02*
X492559D01*
X491575Y416239D02*
X492559D01*
X491575Y415885D02*
X492559D01*
X491575Y415530D02*
X492559D01*
X491575Y415176D02*
X492559D01*
X491575Y414822D02*
X492559D01*
X491575Y414467D02*
X492559D01*
X491575Y414113D02*
X492559D01*
X491575Y413759D02*
X492559D01*
X491575Y413404D02*
X492559D01*
X491575Y413050D02*
X492559D01*
X491575Y412696D02*
X492559D01*
X491575Y412341D02*
X492559D01*
X491575Y411987D02*
X492559D01*
X491575Y411633D02*
X492559D01*
X491575Y411278D02*
X492559D01*
X491575Y410924D02*
X492559D01*
X491575Y410570D02*
X492559D01*
X491575Y410215D02*
X492559D01*
X491575Y409861D02*
X492559D01*
X491575Y409507D02*
X492559D01*
X491575Y409152D02*
X492559D01*
X491575Y408798D02*
X492559D01*
X491575Y408444D02*
X492559D01*
X491575Y408089D02*
X492559D01*
X491575Y407735D02*
X492559D01*
X491575Y407381D02*
X492559D01*
X491575Y407026D02*
X492559D01*
X491575Y406672D02*
X492559D01*
X491575Y406318D02*
X492559D01*
X491575Y405963D02*
X492559D01*
X491575Y405609D02*
X492559D01*
X491575Y405255D02*
X492559D01*
X491575Y404900D02*
X492559D01*
X491575Y404546D02*
X492559D01*
X491575Y404192D02*
X492559D01*
X491575Y403837D02*
X492559D01*
X491575Y403483D02*
X492559D01*
X486575Y423325D02*
X487559D01*
X486575Y422971D02*
X487559D01*
X486575Y422617D02*
X487559D01*
X486575Y422262D02*
X487559D01*
X486575Y421908D02*
X487559D01*
X486575Y421554D02*
X487559D01*
X486575Y421199D02*
X487559D01*
X486575Y420845D02*
X487559D01*
X486575Y420491D02*
X487559D01*
X486575Y420136D02*
X487559D01*
X486575Y419782D02*
X487559D01*
X486575Y419428D02*
X487559D01*
X486575Y419073D02*
X487559D01*
X486575Y418719D02*
X487559D01*
X486575Y418365D02*
X487559D01*
X486575Y418010D02*
X487559D01*
X486575Y417656D02*
X487559D01*
X486575Y417302D02*
X487559D01*
X486575Y416948D02*
X487559D01*
X486575Y416593D02*
X487559D01*
X486575Y416239D02*
X487559D01*
X486575Y415885D02*
X487559D01*
X486575Y415530D02*
X487559D01*
X486575Y415176D02*
X487559D01*
X486575Y414822D02*
X487559D01*
X486575Y414467D02*
X487559D01*
X486575Y414113D02*
X487559D01*
X486575Y413759D02*
X487559D01*
X486575Y413404D02*
X487559D01*
X486575Y413050D02*
X487559D01*
X486575Y412696D02*
X487559D01*
X486575Y412341D02*
X487559D01*
X486575Y411987D02*
X487559D01*
X486575Y411633D02*
X487559D01*
X486575Y411278D02*
X487559D01*
X486575Y410924D02*
X487559D01*
X486575Y410570D02*
X487559D01*
X486575Y410215D02*
X487559D01*
X486575Y409861D02*
X487559D01*
X486575Y409507D02*
X487559D01*
X486575Y409152D02*
X487559D01*
X486575Y408798D02*
X487559D01*
X486575Y408444D02*
X487559D01*
X486575Y408089D02*
X487559D01*
X486575Y407735D02*
X487559D01*
X486575Y407381D02*
X487559D01*
X486575Y407026D02*
X487559D01*
X486575Y406672D02*
X487559D01*
X486575Y406318D02*
X487559D01*
X486575Y405963D02*
X487559D01*
X486575Y405609D02*
X487559D01*
X486575Y405255D02*
X487559D01*
X486575Y404900D02*
X487559D01*
X486575Y404546D02*
X487559D01*
X486575Y404192D02*
X487559D01*
X486575Y403837D02*
X487559D01*
X486575Y403483D02*
X487559D01*
X511575Y423325D02*
X512559D01*
X511575Y422971D02*
X512559D01*
X511575Y422617D02*
X512559D01*
X511575Y422262D02*
X512559D01*
X511575Y421908D02*
X512559D01*
X511575Y421554D02*
X512559D01*
X511575Y421199D02*
X512559D01*
X511575Y420845D02*
X512559D01*
X511575Y420491D02*
X512559D01*
X511575Y420136D02*
X512559D01*
X511575Y419782D02*
X512559D01*
X511575Y419428D02*
X512559D01*
X511575Y419073D02*
X512559D01*
X511575Y418719D02*
X512559D01*
X511575Y418365D02*
X512559D01*
X511575Y418010D02*
X512559D01*
X511575Y417656D02*
X512559D01*
X511575Y417302D02*
X512559D01*
X511575Y416948D02*
X512559D01*
X511575Y416593D02*
X512559D01*
X511575Y416239D02*
X512559D01*
X511575Y415885D02*
X512559D01*
X511575Y415530D02*
X512559D01*
X511575Y415176D02*
X512559D01*
X511575Y414822D02*
X512559D01*
X511575Y414467D02*
X512559D01*
X511575Y414113D02*
X512559D01*
X511575Y413759D02*
X512559D01*
X511575Y413404D02*
X512559D01*
X511575Y413050D02*
X512559D01*
X511575Y412696D02*
X512559D01*
X511575Y412341D02*
X512559D01*
X511575Y411987D02*
X512559D01*
X511575Y411633D02*
X512559D01*
X511575Y411278D02*
X512559D01*
X511575Y410924D02*
X512559D01*
X511575Y410570D02*
X512559D01*
X511575Y410215D02*
X512559D01*
X511575Y409861D02*
X512559D01*
X511575Y409507D02*
X512559D01*
X511575Y409152D02*
X512559D01*
X511575Y408798D02*
X512559D01*
X511575Y408444D02*
X512559D01*
X511575Y408089D02*
X512559D01*
X511575Y407735D02*
X512559D01*
X511575Y407381D02*
X512559D01*
X511575Y407026D02*
X512559D01*
X511575Y406672D02*
X512559D01*
X511575Y406318D02*
X512559D01*
X511575Y405963D02*
X512559D01*
X511575Y405609D02*
X512559D01*
X511575Y405255D02*
X512559D01*
X511575Y404900D02*
X512559D01*
X511575Y404546D02*
X512559D01*
X511575Y404192D02*
X512559D01*
X511575Y403837D02*
X512559D01*
X511575Y403483D02*
X512559D01*
X506575Y423325D02*
X507559D01*
X506575Y422971D02*
X507559D01*
X506575Y422617D02*
X507559D01*
X506575Y422262D02*
X507559D01*
X506575Y421908D02*
X507559D01*
X506575Y421554D02*
X507559D01*
X506575Y421199D02*
X507559D01*
X506575Y420845D02*
X507559D01*
X506575Y420491D02*
X507559D01*
X506575Y420136D02*
X507559D01*
X506575Y419782D02*
X507559D01*
X506575Y419428D02*
X507559D01*
X506575Y419073D02*
X507559D01*
X506575Y418719D02*
X507559D01*
X506575Y418365D02*
X507559D01*
X506575Y418010D02*
X507559D01*
X506575Y417656D02*
X507559D01*
X506575Y417302D02*
X507559D01*
X506575Y416948D02*
X507559D01*
X506575Y416593D02*
X507559D01*
X506575Y416239D02*
X507559D01*
X506575Y415885D02*
X507559D01*
X506575Y415530D02*
X507559D01*
X506575Y415176D02*
X507559D01*
X506575Y414822D02*
X507559D01*
X506575Y414467D02*
X507559D01*
X506575Y414113D02*
X507559D01*
X506575Y413759D02*
X507559D01*
X506575Y413404D02*
X507559D01*
X506575Y413050D02*
X507559D01*
X506575Y412696D02*
X507559D01*
X506575Y412341D02*
X507559D01*
X506575Y411987D02*
X507559D01*
X506575Y411633D02*
X507559D01*
X506575Y411278D02*
X507559D01*
X506575Y410924D02*
X507559D01*
X506575Y410570D02*
X507559D01*
X506575Y410215D02*
X507559D01*
X506575Y409861D02*
X507559D01*
X506575Y409507D02*
X507559D01*
X506575Y409152D02*
X507559D01*
X506575Y408798D02*
X507559D01*
X506575Y408444D02*
X507559D01*
X506575Y408089D02*
X507559D01*
X506575Y407735D02*
X507559D01*
X506575Y407381D02*
X507559D01*
X506575Y407026D02*
X507559D01*
X506575Y406672D02*
X507559D01*
X506575Y406318D02*
X507559D01*
X506575Y405963D02*
X507559D01*
X506575Y405609D02*
X507559D01*
X506575Y405255D02*
X507559D01*
X506575Y404900D02*
X507559D01*
X506575Y404546D02*
X507559D01*
X506575Y404192D02*
X507559D01*
X506575Y403837D02*
X507559D01*
X506575Y403483D02*
X507559D01*
X501575Y423325D02*
X502559D01*
X501575Y422971D02*
X502559D01*
X501575Y422617D02*
X502559D01*
X501575Y422262D02*
X502559D01*
X501575Y421908D02*
X502559D01*
X501575Y421554D02*
X502559D01*
X501575Y421199D02*
X502559D01*
X501575Y420845D02*
X502559D01*
X501575Y420491D02*
X502559D01*
X501575Y420136D02*
X502559D01*
X501575Y419782D02*
X502559D01*
X501575Y419428D02*
X502559D01*
X501575Y419073D02*
X502559D01*
X501575Y418719D02*
X502559D01*
X501575Y418365D02*
X502559D01*
X501575Y418010D02*
X502559D01*
X501575Y417656D02*
X502559D01*
X501575Y417302D02*
X502559D01*
X501575Y416948D02*
X502559D01*
X501575Y416593D02*
X502559D01*
X501575Y416239D02*
X502559D01*
X501575Y415885D02*
X502559D01*
X501575Y415530D02*
X502559D01*
X501575Y415176D02*
X502559D01*
X501575Y414822D02*
X502559D01*
X501575Y414467D02*
X502559D01*
X501575Y414113D02*
X502559D01*
X501575Y413759D02*
X502559D01*
X501575Y413404D02*
X502559D01*
X501575Y413050D02*
X502559D01*
X501575Y412696D02*
X502559D01*
X501575Y412341D02*
X502559D01*
X501575Y411987D02*
X502559D01*
X501575Y411633D02*
X502559D01*
X501575Y411278D02*
X502559D01*
X501575Y410924D02*
X502559D01*
X501575Y410570D02*
X502559D01*
X501575Y410215D02*
X502559D01*
X501575Y409861D02*
X502559D01*
X501575Y409507D02*
X502559D01*
X501575Y409152D02*
X502559D01*
X501575Y408798D02*
X502559D01*
X501575Y408444D02*
X502559D01*
X501575Y408089D02*
X502559D01*
X501575Y407735D02*
X502559D01*
X501575Y407381D02*
X502559D01*
X501575Y407026D02*
X502559D01*
X501575Y406672D02*
X502559D01*
X501575Y406318D02*
X502559D01*
X501575Y405963D02*
X502559D01*
X501575Y405609D02*
X502559D01*
X501575Y405255D02*
X502559D01*
X501575Y404900D02*
X502559D01*
X501575Y404546D02*
X502559D01*
X501575Y404192D02*
X502559D01*
X501575Y403837D02*
X502559D01*
X501575Y403483D02*
X502559D01*
X526575Y423325D02*
X527559D01*
X526575Y422971D02*
X527559D01*
X526575Y422617D02*
X527559D01*
X526575Y422262D02*
X527559D01*
X526575Y421908D02*
X527559D01*
X526575Y421554D02*
X527559D01*
X526575Y421199D02*
X527559D01*
X526575Y420845D02*
X527559D01*
X526575Y420491D02*
X527559D01*
X526575Y420136D02*
X527559D01*
X526575Y419782D02*
X527559D01*
X526575Y419428D02*
X527559D01*
X526575Y419073D02*
X527559D01*
X526575Y418719D02*
X527559D01*
X526575Y418365D02*
X527559D01*
X526575Y418010D02*
X527559D01*
X526575Y417656D02*
X527559D01*
X526575Y417302D02*
X527559D01*
X526575Y416948D02*
X527559D01*
X526575Y416593D02*
X527559D01*
X526575Y416239D02*
X527559D01*
X526575Y415885D02*
X527559D01*
X526575Y415530D02*
X527559D01*
X526575Y415176D02*
X527559D01*
X526575Y414822D02*
X527559D01*
X526575Y414467D02*
X527559D01*
X526575Y414113D02*
X527559D01*
X526575Y413759D02*
X527559D01*
X526575Y413404D02*
X527559D01*
X526575Y413050D02*
X527559D01*
X526575Y412696D02*
X527559D01*
X526575Y412341D02*
X527559D01*
X526575Y411987D02*
X527559D01*
X526575Y411633D02*
X527559D01*
X526575Y411278D02*
X527559D01*
X526575Y410924D02*
X527559D01*
X526575Y410570D02*
X527559D01*
X526575Y410215D02*
X527559D01*
X526575Y409861D02*
X527559D01*
X526575Y409507D02*
X527559D01*
X526575Y409152D02*
X527559D01*
X526575Y408798D02*
X527559D01*
X526575Y408444D02*
X527559D01*
X526575Y408089D02*
X527559D01*
X526575Y407735D02*
X527559D01*
X526575Y407381D02*
X527559D01*
X526575Y407026D02*
X527559D01*
X526575Y406672D02*
X527559D01*
X526575Y406318D02*
X527559D01*
X526575Y405963D02*
X527559D01*
X526575Y405609D02*
X527559D01*
X526575Y405255D02*
X527559D01*
X526575Y404900D02*
X527559D01*
X526575Y404546D02*
X527559D01*
X526575Y404192D02*
X527559D01*
X526575Y403837D02*
X527559D01*
X526575Y403483D02*
X527559D01*
X521575Y423325D02*
X522559D01*
X521575Y422971D02*
X522559D01*
X521575Y422617D02*
X522559D01*
X521575Y422262D02*
X522559D01*
X521575Y421908D02*
X522559D01*
X521575Y421554D02*
X522559D01*
X521575Y421199D02*
X522559D01*
X521575Y420845D02*
X522559D01*
X521575Y420491D02*
X522559D01*
X521575Y420136D02*
X522559D01*
X521575Y419782D02*
X522559D01*
X521575Y419428D02*
X522559D01*
X521575Y419073D02*
X522559D01*
X521575Y418719D02*
X522559D01*
X521575Y418365D02*
X522559D01*
X521575Y418010D02*
X522559D01*
X521575Y417656D02*
X522559D01*
X521575Y417302D02*
X522559D01*
X521575Y416948D02*
X522559D01*
X521575Y416593D02*
X522559D01*
X521575Y416239D02*
X522559D01*
X521575Y415885D02*
X522559D01*
X521575Y415530D02*
X522559D01*
X521575Y415176D02*
X522559D01*
X521575Y414822D02*
X522559D01*
X521575Y414467D02*
X522559D01*
X521575Y414113D02*
X522559D01*
X521575Y413759D02*
X522559D01*
X521575Y413404D02*
X522559D01*
X521575Y413050D02*
X522559D01*
X521575Y412696D02*
X522559D01*
X521575Y412341D02*
X522559D01*
X521575Y411987D02*
X522559D01*
X521575Y411633D02*
X522559D01*
X521575Y411278D02*
X522559D01*
X521575Y410924D02*
X522559D01*
X521575Y410570D02*
X522559D01*
X521575Y410215D02*
X522559D01*
X521575Y409861D02*
X522559D01*
X521575Y409507D02*
X522559D01*
X521575Y409152D02*
X522559D01*
X521575Y408798D02*
X522559D01*
X521575Y408444D02*
X522559D01*
X521575Y408089D02*
X522559D01*
X521575Y407735D02*
X522559D01*
X521575Y407381D02*
X522559D01*
X521575Y407026D02*
X522559D01*
X521575Y406672D02*
X522559D01*
X521575Y406318D02*
X522559D01*
X521575Y405963D02*
X522559D01*
X521575Y405609D02*
X522559D01*
X521575Y405255D02*
X522559D01*
X521575Y404900D02*
X522559D01*
X521575Y404546D02*
X522559D01*
X521575Y404192D02*
X522559D01*
X521575Y403837D02*
X522559D01*
X521575Y403483D02*
X522559D01*
X516575Y423325D02*
X517559D01*
X516575Y422971D02*
X517559D01*
X516575Y422617D02*
X517559D01*
X516575Y422262D02*
X517559D01*
X516575Y421908D02*
X517559D01*
X516575Y421554D02*
X517559D01*
X516575Y421199D02*
X517559D01*
X516575Y420845D02*
X517559D01*
X516575Y420491D02*
X517559D01*
X516575Y420136D02*
X517559D01*
X516575Y419782D02*
X517559D01*
X516575Y419428D02*
X517559D01*
X516575Y419073D02*
X517559D01*
X516575Y418719D02*
X517559D01*
X516575Y418365D02*
X517559D01*
X516575Y418010D02*
X517559D01*
X516575Y417656D02*
X517559D01*
X516575Y417302D02*
X517559D01*
X516575Y416948D02*
X517559D01*
X516575Y416593D02*
X517559D01*
X516575Y416239D02*
X517559D01*
X516575Y415885D02*
X517559D01*
X516575Y415530D02*
X517559D01*
X516575Y415176D02*
X517559D01*
X516575Y414822D02*
X517559D01*
X516575Y414467D02*
X517559D01*
X516575Y414113D02*
X517559D01*
X516575Y413759D02*
X517559D01*
X516575Y413404D02*
X517559D01*
X516575Y413050D02*
X517559D01*
X516575Y412696D02*
X517559D01*
X516575Y412341D02*
X517559D01*
X516575Y411987D02*
X517559D01*
X516575Y411633D02*
X517559D01*
X516575Y411278D02*
X517559D01*
X516575Y410924D02*
X517559D01*
X516575Y410570D02*
X517559D01*
X516575Y410215D02*
X517559D01*
X516575Y409861D02*
X517559D01*
X516575Y409507D02*
X517559D01*
X516575Y409152D02*
X517559D01*
X516575Y408798D02*
X517559D01*
X516575Y408444D02*
X517559D01*
X516575Y408089D02*
X517559D01*
X516575Y407735D02*
X517559D01*
X516575Y407381D02*
X517559D01*
X516575Y407026D02*
X517559D01*
X516575Y406672D02*
X517559D01*
X516575Y406318D02*
X517559D01*
X516575Y405963D02*
X517559D01*
X516575Y405609D02*
X517559D01*
X516575Y405255D02*
X517559D01*
X516575Y404900D02*
X517559D01*
X516575Y404546D02*
X517559D01*
X516575Y404192D02*
X517559D01*
X516575Y403837D02*
X517559D01*
X516575Y403483D02*
X517559D01*
X541575Y423325D02*
X542559D01*
X541575Y422971D02*
X542559D01*
X541575Y422617D02*
X542559D01*
X541575Y422262D02*
X542559D01*
X541575Y421908D02*
X542559D01*
X541575Y421554D02*
X542559D01*
X541575Y421199D02*
X542559D01*
X541575Y420845D02*
X542559D01*
X541575Y420491D02*
X542559D01*
X541575Y420136D02*
X542559D01*
X541575Y419782D02*
X542559D01*
X541575Y419428D02*
X542559D01*
X541575Y419073D02*
X542559D01*
X541575Y418719D02*
X542559D01*
X541575Y418365D02*
X542559D01*
X541575Y418010D02*
X542559D01*
X541575Y417656D02*
X542559D01*
X541575Y417302D02*
X542559D01*
X541575Y416948D02*
X542559D01*
X541575Y416593D02*
X542559D01*
X541575Y416239D02*
X542559D01*
X541575Y415885D02*
X542559D01*
X541575Y415530D02*
X542559D01*
X541575Y415176D02*
X542559D01*
X541575Y414822D02*
X542559D01*
X541575Y414467D02*
X542559D01*
X541575Y414113D02*
X542559D01*
X541575Y413759D02*
X542559D01*
X541575Y413404D02*
X542559D01*
X541575Y413050D02*
X542559D01*
X541575Y412696D02*
X542559D01*
X541575Y412341D02*
X542559D01*
X541575Y411987D02*
X542559D01*
X541575Y411633D02*
X542559D01*
X541575Y411278D02*
X542559D01*
X541575Y410924D02*
X542559D01*
X541575Y410570D02*
X542559D01*
X541575Y410215D02*
X542559D01*
X541575Y409861D02*
X542559D01*
X541575Y409507D02*
X542559D01*
X541575Y409152D02*
X542559D01*
X541575Y408798D02*
X542559D01*
X541575Y408444D02*
X542559D01*
X541575Y408089D02*
X542559D01*
X541575Y407735D02*
X542559D01*
X541575Y407381D02*
X542559D01*
X541575Y407026D02*
X542559D01*
X541575Y406672D02*
X542559D01*
X541575Y406318D02*
X542559D01*
X541575Y405963D02*
X542559D01*
X541575Y405609D02*
X542559D01*
X541575Y405255D02*
X542559D01*
X541575Y404900D02*
X542559D01*
X541575Y404546D02*
X542559D01*
X541575Y404192D02*
X542559D01*
X541575Y403837D02*
X542559D01*
X541575Y403483D02*
X542559D01*
X536575Y423325D02*
X537559D01*
X536575Y422971D02*
X537559D01*
X536575Y422617D02*
X537559D01*
X536575Y422262D02*
X537559D01*
X536575Y421908D02*
X537559D01*
X536575Y421554D02*
X537559D01*
X536575Y421199D02*
X537559D01*
X536575Y420845D02*
X537559D01*
X536575Y420491D02*
X537559D01*
X536575Y420136D02*
X537559D01*
X536575Y419782D02*
X537559D01*
X536575Y419428D02*
X537559D01*
X536575Y419073D02*
X537559D01*
X536575Y418719D02*
X537559D01*
X536575Y418365D02*
X537559D01*
X536575Y418010D02*
X537559D01*
X536575Y417656D02*
X537559D01*
X536575Y417302D02*
X537559D01*
X536575Y416948D02*
X537559D01*
X536575Y416593D02*
X537559D01*
X536575Y416239D02*
X537559D01*
X536575Y415885D02*
X537559D01*
X536575Y415530D02*
X537559D01*
X536575Y415176D02*
X537559D01*
X536575Y414822D02*
X537559D01*
X536575Y414467D02*
X537559D01*
X536575Y414113D02*
X537559D01*
X536575Y413759D02*
X537559D01*
X536575Y413404D02*
X537559D01*
X536575Y413050D02*
X537559D01*
X536575Y412696D02*
X537559D01*
X536575Y412341D02*
X537559D01*
X536575Y411987D02*
X537559D01*
X536575Y411633D02*
X537559D01*
X536575Y411278D02*
X537559D01*
X536575Y410924D02*
X537559D01*
X536575Y410570D02*
X537559D01*
X536575Y410215D02*
X537559D01*
X536575Y409861D02*
X537559D01*
X536575Y409507D02*
X537559D01*
X536575Y409152D02*
X537559D01*
X536575Y408798D02*
X537559D01*
X536575Y408444D02*
X537559D01*
X536575Y408089D02*
X537559D01*
X536575Y407735D02*
X537559D01*
X536575Y407381D02*
X537559D01*
X536575Y407026D02*
X537559D01*
X536575Y406672D02*
X537559D01*
X536575Y406318D02*
X537559D01*
X536575Y405963D02*
X537559D01*
X536575Y405609D02*
X537559D01*
X536575Y405255D02*
X537559D01*
X536575Y404900D02*
X537559D01*
X536575Y404546D02*
X537559D01*
X536575Y404192D02*
X537559D01*
X536575Y403837D02*
X537559D01*
X536575Y403483D02*
X537559D01*
X531575Y423325D02*
X532559D01*
X531575Y422971D02*
X532559D01*
X531575Y422617D02*
X532559D01*
X531575Y422262D02*
X532559D01*
X531575Y421908D02*
X532559D01*
X531575Y421554D02*
X532559D01*
X531575Y421199D02*
X532559D01*
X531575Y420845D02*
X532559D01*
X531575Y420491D02*
X532559D01*
X531575Y420136D02*
X532559D01*
X531575Y419782D02*
X532559D01*
X531575Y419428D02*
X532559D01*
X531575Y419073D02*
X532559D01*
X531575Y418719D02*
X532559D01*
X531575Y418365D02*
X532559D01*
X531575Y418010D02*
X532559D01*
X531575Y417656D02*
X532559D01*
X531575Y417302D02*
X532559D01*
X531575Y416948D02*
X532559D01*
X531575Y416593D02*
X532559D01*
X531575Y416239D02*
X532559D01*
X531575Y415885D02*
X532559D01*
X531575Y415530D02*
X532559D01*
X531575Y415176D02*
X532559D01*
X531575Y414822D02*
X532559D01*
X531575Y414467D02*
X532559D01*
X531575Y414113D02*
X532559D01*
X531575Y413759D02*
X532559D01*
X531575Y413404D02*
X532559D01*
X531575Y413050D02*
X532559D01*
X531575Y412696D02*
X532559D01*
X531575Y412341D02*
X532559D01*
X531575Y411987D02*
X532559D01*
X531575Y411633D02*
X532559D01*
X531575Y411278D02*
X532559D01*
X531575Y410924D02*
X532559D01*
X531575Y410570D02*
X532559D01*
X531575Y410215D02*
X532559D01*
X531575Y409861D02*
X532559D01*
X531575Y409507D02*
X532559D01*
X531575Y409152D02*
X532559D01*
X531575Y408798D02*
X532559D01*
X531575Y408444D02*
X532559D01*
X531575Y408089D02*
X532559D01*
X531575Y407735D02*
X532559D01*
X531575Y407381D02*
X532559D01*
X531575Y407026D02*
X532559D01*
X531575Y406672D02*
X532559D01*
X531575Y406318D02*
X532559D01*
X531575Y405963D02*
X532559D01*
X531575Y405609D02*
X532559D01*
X531575Y405255D02*
X532559D01*
X531575Y404900D02*
X532559D01*
X531575Y404546D02*
X532559D01*
X531575Y404192D02*
X532559D01*
X531575Y403837D02*
X532559D01*
X531575Y403483D02*
X532559D01*
X556575Y423325D02*
X557559D01*
X556575Y422971D02*
X557559D01*
X556575Y422617D02*
X557559D01*
X556575Y422262D02*
X557559D01*
X556575Y421908D02*
X557559D01*
X556575Y421554D02*
X557559D01*
X556575Y421199D02*
X557559D01*
X556575Y420845D02*
X557559D01*
X556575Y420491D02*
X557559D01*
X556575Y420136D02*
X557559D01*
X556575Y419782D02*
X557559D01*
X556575Y419428D02*
X557559D01*
X556575Y419073D02*
X557559D01*
X556575Y418719D02*
X557559D01*
X556575Y418365D02*
X557559D01*
X556575Y418010D02*
X557559D01*
X556575Y417656D02*
X557559D01*
X556575Y417302D02*
X557559D01*
X556575Y416948D02*
X557559D01*
X556575Y416593D02*
X557559D01*
X556575Y416239D02*
X557559D01*
X556575Y415885D02*
X557559D01*
X556575Y415530D02*
X557559D01*
X556575Y415176D02*
X557559D01*
X556575Y414822D02*
X557559D01*
X556575Y414467D02*
X557559D01*
X556575Y414113D02*
X557559D01*
X556575Y413759D02*
X557559D01*
X556575Y413404D02*
X557559D01*
X556575Y413050D02*
X557559D01*
X556575Y412696D02*
X557559D01*
X556575Y412341D02*
X557559D01*
X556575Y411987D02*
X557559D01*
X556575Y411633D02*
X557559D01*
X556575Y411278D02*
X557559D01*
X556575Y410924D02*
X557559D01*
X556575Y410570D02*
X557559D01*
X556575Y410215D02*
X557559D01*
X556575Y409861D02*
X557559D01*
X556575Y409507D02*
X557559D01*
X556575Y409152D02*
X557559D01*
X556575Y408798D02*
X557559D01*
X556575Y408444D02*
X557559D01*
X556575Y408089D02*
X557559D01*
X556575Y407735D02*
X557559D01*
X556575Y407381D02*
X557559D01*
X556575Y407026D02*
X557559D01*
X556575Y406672D02*
X557559D01*
X556575Y406318D02*
X557559D01*
X556575Y405963D02*
X557559D01*
X556575Y405609D02*
X557559D01*
X556575Y405255D02*
X557559D01*
X556575Y404900D02*
X557559D01*
X556575Y404546D02*
X557559D01*
X556575Y404192D02*
X557559D01*
X556575Y403837D02*
X557559D01*
X556575Y403483D02*
X557559D01*
X551575Y423325D02*
X552559D01*
X551575Y422971D02*
X552559D01*
X551575Y422617D02*
X552559D01*
X551575Y422262D02*
X552559D01*
X551575Y421908D02*
X552559D01*
X551575Y421554D02*
X552559D01*
X551575Y421199D02*
X552559D01*
X551575Y420845D02*
X552559D01*
X551575Y420491D02*
X552559D01*
X551575Y420136D02*
X552559D01*
X551575Y419782D02*
X552559D01*
X551575Y419428D02*
X552559D01*
X551575Y419073D02*
X552559D01*
X551575Y418719D02*
X552559D01*
X551575Y418365D02*
X552559D01*
X551575Y418010D02*
X552559D01*
X551575Y417656D02*
X552559D01*
X551575Y417302D02*
X552559D01*
X551575Y416948D02*
X552559D01*
X551575Y416593D02*
X552559D01*
X551575Y416239D02*
X552559D01*
X551575Y415885D02*
X552559D01*
X551575Y415530D02*
X552559D01*
X551575Y415176D02*
X552559D01*
X551575Y414822D02*
X552559D01*
X551575Y414467D02*
X552559D01*
X551575Y414113D02*
X552559D01*
X551575Y413759D02*
X552559D01*
X551575Y413404D02*
X552559D01*
X551575Y413050D02*
X552559D01*
X551575Y412696D02*
X552559D01*
X551575Y412341D02*
X552559D01*
X551575Y411987D02*
X552559D01*
X551575Y411633D02*
X552559D01*
X551575Y411278D02*
X552559D01*
X551575Y410924D02*
X552559D01*
X551575Y410570D02*
X552559D01*
X551575Y410215D02*
X552559D01*
X551575Y409861D02*
X552559D01*
X551575Y409507D02*
X552559D01*
X551575Y409152D02*
X552559D01*
X551575Y408798D02*
X552559D01*
X551575Y408444D02*
X552559D01*
X551575Y408089D02*
X552559D01*
X551575Y407735D02*
X552559D01*
X551575Y407381D02*
X552559D01*
X551575Y407026D02*
X552559D01*
X551575Y406672D02*
X552559D01*
X551575Y406318D02*
X552559D01*
X551575Y405963D02*
X552559D01*
X551575Y405609D02*
X552559D01*
X551575Y405255D02*
X552559D01*
X551575Y404900D02*
X552559D01*
X551575Y404546D02*
X552559D01*
X551575Y404192D02*
X552559D01*
X551575Y403837D02*
X552559D01*
X551575Y403483D02*
X552559D01*
X546575Y423325D02*
X547559D01*
X546575Y422971D02*
X547559D01*
X546575Y422617D02*
X547559D01*
X546575Y422262D02*
X547559D01*
X546575Y421908D02*
X547559D01*
X546575Y421554D02*
X547559D01*
X546575Y421199D02*
X547559D01*
X546575Y420845D02*
X547559D01*
X546575Y420491D02*
X547559D01*
X546575Y420136D02*
X547559D01*
X546575Y419782D02*
X547559D01*
X546575Y419428D02*
X547559D01*
X546575Y419073D02*
X547559D01*
X546575Y418719D02*
X547559D01*
X546575Y418365D02*
X547559D01*
X546575Y418010D02*
X547559D01*
X546575Y417656D02*
X547559D01*
X546575Y417302D02*
X547559D01*
X546575Y416948D02*
X547559D01*
X546575Y416593D02*
X547559D01*
X546575Y416239D02*
X547559D01*
X546575Y415885D02*
X547559D01*
X546575Y415530D02*
X547559D01*
X546575Y415176D02*
X547559D01*
X546575Y414822D02*
X547559D01*
X546575Y414467D02*
X547559D01*
X546575Y414113D02*
X547559D01*
X546575Y413759D02*
X547559D01*
X546575Y413404D02*
X547559D01*
X546575Y413050D02*
X547559D01*
X546575Y412696D02*
X547559D01*
X546575Y412341D02*
X547559D01*
X546575Y411987D02*
X547559D01*
X546575Y411633D02*
X547559D01*
X546575Y411278D02*
X547559D01*
X546575Y410924D02*
X547559D01*
X546575Y410570D02*
X547559D01*
X546575Y410215D02*
X547559D01*
X546575Y409861D02*
X547559D01*
X546575Y409507D02*
X547559D01*
X546575Y409152D02*
X547559D01*
X546575Y408798D02*
X547559D01*
X546575Y408444D02*
X547559D01*
X546575Y408089D02*
X547559D01*
X546575Y407735D02*
X547559D01*
X546575Y407381D02*
X547559D01*
X546575Y407026D02*
X547559D01*
X546575Y406672D02*
X547559D01*
X546575Y406318D02*
X547559D01*
X546575Y405963D02*
X547559D01*
X546575Y405609D02*
X547559D01*
X546575Y405255D02*
X547559D01*
X546575Y404900D02*
X547559D01*
X546575Y404546D02*
X547559D01*
X546575Y404192D02*
X547559D01*
X546575Y403837D02*
X547559D01*
X546575Y403483D02*
X547559D01*
X571575Y423325D02*
X572559D01*
X571575Y422971D02*
X572559D01*
X571575Y422617D02*
X572559D01*
X571575Y422262D02*
X572559D01*
X571575Y421908D02*
X572559D01*
X571575Y421554D02*
X572559D01*
X571575Y421199D02*
X572559D01*
X571575Y420845D02*
X572559D01*
X571575Y420491D02*
X572559D01*
X571575Y420136D02*
X572559D01*
X571575Y419782D02*
X572559D01*
X571575Y419428D02*
X572559D01*
X571575Y419073D02*
X572559D01*
X571575Y418719D02*
X572559D01*
X571575Y418365D02*
X572559D01*
X571575Y418010D02*
X572559D01*
X571575Y417656D02*
X572559D01*
X571575Y417302D02*
X572559D01*
X571575Y416948D02*
X572559D01*
X571575Y416593D02*
X572559D01*
X571575Y416239D02*
X572559D01*
X571575Y415885D02*
X572559D01*
X571575Y415530D02*
X572559D01*
X571575Y415176D02*
X572559D01*
X571575Y414822D02*
X572559D01*
X571575Y414467D02*
X572559D01*
X571575Y414113D02*
X572559D01*
X571575Y413759D02*
X572559D01*
X571575Y413404D02*
X572559D01*
X571575Y413050D02*
X572559D01*
X571575Y412696D02*
X572559D01*
X571575Y412341D02*
X572559D01*
X571575Y411987D02*
X572559D01*
X571575Y411633D02*
X572559D01*
X571575Y411278D02*
X572559D01*
X571575Y410924D02*
X572559D01*
X571575Y410570D02*
X572559D01*
X571575Y410215D02*
X572559D01*
X571575Y409861D02*
X572559D01*
X571575Y409507D02*
X572559D01*
X571575Y409152D02*
X572559D01*
X571575Y408798D02*
X572559D01*
X571575Y408444D02*
X572559D01*
X571575Y408089D02*
X572559D01*
X571575Y407735D02*
X572559D01*
X571575Y407381D02*
X572559D01*
X571575Y407026D02*
X572559D01*
X571575Y406672D02*
X572559D01*
X571575Y406318D02*
X572559D01*
X571575Y405963D02*
X572559D01*
X571575Y405609D02*
X572559D01*
X571575Y405255D02*
X572559D01*
X571575Y404900D02*
X572559D01*
X571575Y404546D02*
X572559D01*
X571575Y404192D02*
X572559D01*
X571575Y403837D02*
X572559D01*
X571575Y403483D02*
X572559D01*
X566575Y423325D02*
X567559D01*
X566575Y422971D02*
X567559D01*
X566575Y422617D02*
X567559D01*
X566575Y422262D02*
X567559D01*
X566575Y421908D02*
X567559D01*
X566575Y421554D02*
X567559D01*
X566575Y421199D02*
X567559D01*
X566575Y420845D02*
X567559D01*
X566575Y420491D02*
X567559D01*
X566575Y420136D02*
X567559D01*
X566575Y419782D02*
X567559D01*
X566575Y419428D02*
X567559D01*
X566575Y419073D02*
X567559D01*
X566575Y418719D02*
X567559D01*
X566575Y418365D02*
X567559D01*
X566575Y418010D02*
X567559D01*
X566575Y417656D02*
X567559D01*
X566575Y417302D02*
X567559D01*
X566575Y416948D02*
X567559D01*
X566575Y416593D02*
X567559D01*
X566575Y416239D02*
X567559D01*
X566575Y415885D02*
X567559D01*
X566575Y415530D02*
X567559D01*
X566575Y415176D02*
X567559D01*
X566575Y414822D02*
X567559D01*
X566575Y414467D02*
X567559D01*
X566575Y414113D02*
X567559D01*
X566575Y413759D02*
X567559D01*
X566575Y413404D02*
X567559D01*
X566575Y413050D02*
X567559D01*
X566575Y412696D02*
X567559D01*
X566575Y412341D02*
X567559D01*
X566575Y411987D02*
X567559D01*
X566575Y411633D02*
X567559D01*
X566575Y411278D02*
X567559D01*
X566575Y410924D02*
X567559D01*
X566575Y410570D02*
X567559D01*
X566575Y410215D02*
X567559D01*
X566575Y409861D02*
X567559D01*
X566575Y409507D02*
X567559D01*
X566575Y409152D02*
X567559D01*
X566575Y408798D02*
X567559D01*
X566575Y408444D02*
X567559D01*
X566575Y408089D02*
X567559D01*
X566575Y407735D02*
X567559D01*
X566575Y407381D02*
X567559D01*
X566575Y407026D02*
X567559D01*
X566575Y406672D02*
X567559D01*
X566575Y406318D02*
X567559D01*
X566575Y405963D02*
X567559D01*
X566575Y405609D02*
X567559D01*
X566575Y405255D02*
X567559D01*
X566575Y404900D02*
X567559D01*
X566575Y404546D02*
X567559D01*
X566575Y404192D02*
X567559D01*
X566575Y403837D02*
X567559D01*
X566575Y403483D02*
X567559D01*
X561575Y423325D02*
X562559D01*
X561575Y422971D02*
X562559D01*
X561575Y422617D02*
X562559D01*
X561575Y422262D02*
X562559D01*
X561575Y421908D02*
X562559D01*
X561575Y421554D02*
X562559D01*
X561575Y421199D02*
X562559D01*
X561575Y420845D02*
X562559D01*
X561575Y420491D02*
X562559D01*
X561575Y420136D02*
X562559D01*
X561575Y419782D02*
X562559D01*
X561575Y419428D02*
X562559D01*
X561575Y419073D02*
X562559D01*
X561575Y418719D02*
X562559D01*
X561575Y418365D02*
X562559D01*
X561575Y418010D02*
X562559D01*
X561575Y417656D02*
X562559D01*
X561575Y417302D02*
X562559D01*
X561575Y416948D02*
X562559D01*
X561575Y416593D02*
X562559D01*
X561575Y416239D02*
X562559D01*
X561575Y415885D02*
X562559D01*
X561575Y415530D02*
X562559D01*
X561575Y415176D02*
X562559D01*
X561575Y414822D02*
X562559D01*
X561575Y414467D02*
X562559D01*
X561575Y414113D02*
X562559D01*
X561575Y413759D02*
X562559D01*
X561575Y413404D02*
X562559D01*
X561575Y413050D02*
X562559D01*
X561575Y412696D02*
X562559D01*
X561575Y412341D02*
X562559D01*
X561575Y411987D02*
X562559D01*
X561575Y411633D02*
X562559D01*
X561575Y411278D02*
X562559D01*
X561575Y410924D02*
X562559D01*
X561575Y410570D02*
X562559D01*
X561575Y410215D02*
X562559D01*
X561575Y409861D02*
X562559D01*
X561575Y409507D02*
X562559D01*
X561575Y409152D02*
X562559D01*
X561575Y408798D02*
X562559D01*
X561575Y408444D02*
X562559D01*
X561575Y408089D02*
X562559D01*
X561575Y407735D02*
X562559D01*
X561575Y407381D02*
X562559D01*
X561575Y407026D02*
X562559D01*
X561575Y406672D02*
X562559D01*
X561575Y406318D02*
X562559D01*
X561575Y405963D02*
X562559D01*
X561575Y405609D02*
X562559D01*
X561575Y405255D02*
X562559D01*
X561575Y404900D02*
X562559D01*
X561575Y404546D02*
X562559D01*
X561575Y404192D02*
X562559D01*
X561575Y403837D02*
X562559D01*
X561575Y403483D02*
X562559D01*
X576575Y423325D02*
X577559D01*
X576575Y422971D02*
X577559D01*
X576575Y422617D02*
X577559D01*
X576575Y422262D02*
X577559D01*
X576575Y421908D02*
X577559D01*
X576575Y421554D02*
X577559D01*
X576575Y421199D02*
X577559D01*
X576575Y420845D02*
X577559D01*
X576575Y420491D02*
X577559D01*
X576575Y420136D02*
X577559D01*
X576575Y419782D02*
X577559D01*
X576575Y419428D02*
X577559D01*
X576575Y419073D02*
X577559D01*
X576575Y418719D02*
X577559D01*
X576575Y418365D02*
X577559D01*
X576575Y418010D02*
X577559D01*
X576575Y417656D02*
X577559D01*
X576575Y417302D02*
X577559D01*
X576575Y416948D02*
X577559D01*
X576575Y416593D02*
X577559D01*
X576575Y416239D02*
X577559D01*
X576575Y415885D02*
X577559D01*
X576575Y415530D02*
X577559D01*
X576575Y415176D02*
X577559D01*
X576575Y414822D02*
X577559D01*
X576575Y414467D02*
X577559D01*
X576575Y414113D02*
X577559D01*
X576575Y413759D02*
X577559D01*
X576575Y413404D02*
X577559D01*
X576575Y413050D02*
X577559D01*
X576575Y412696D02*
X577559D01*
X576575Y412341D02*
X577559D01*
X576575Y411987D02*
X577559D01*
X576575Y411633D02*
X577559D01*
X576575Y411278D02*
X577559D01*
X576575Y410924D02*
X577559D01*
X576575Y410570D02*
X577559D01*
X576575Y410215D02*
X577559D01*
X576575Y409861D02*
X577559D01*
X576575Y409507D02*
X577559D01*
X576575Y409152D02*
X577559D01*
X576575Y408798D02*
X577559D01*
X576575Y408444D02*
X577559D01*
X576575Y408089D02*
X577559D01*
X576575Y407735D02*
X577559D01*
X576575Y407381D02*
X577559D01*
X576575Y407026D02*
X577559D01*
X576575Y406672D02*
X577559D01*
X576575Y406318D02*
X577559D01*
X576575Y405963D02*
X577559D01*
X576575Y405609D02*
X577559D01*
X576575Y405255D02*
X577559D01*
X576575Y404900D02*
X577559D01*
X576575Y404546D02*
X577559D01*
X576575Y404192D02*
X577559D01*
X576575Y403837D02*
X577559D01*
X576575Y403483D02*
X577559D01*
X397638Y590551D02*
G03X393701Y586614I-0J-3937D01*
G01X397638Y590551D02*
X712598D01*
X716535Y586614D02*
G03X712598Y590551I-3937J0D01*
G01X716535Y586614D02*
Y397638D01*
X712598Y393701D02*
G03X716535Y397638I0J3937D01*
G01X712598Y393701D02*
X397638D01*
X393701Y397638D02*
G03X397638Y393701I3937J-0D01*
G01X393701Y397638D02*
Y586614D01*
X377630Y260488D02*
X771331D01*
Y221118*
X377630*
Y260488*
X613850D02*
Y221118D01*
X495740Y260488D02*
Y221118D01*
Y240803D02*
X771331D01*
X712276Y260488D02*
Y221118D01*
X397638Y787402D02*
G03X393701Y783465I-0J-3937D01*
G01X397638Y787402D02*
X712598D01*
X716535Y783465D02*
G03X712598Y787402I-3937J-0D01*
G01X716535Y783465D02*
Y594488D01*
X712598Y590551D02*
G03X716535Y594488I0J3937D01*
G01X712598Y590551D02*
X397638D01*
X393701Y594488D02*
G03X397638Y590551I3937J0D01*
G01X393701Y594488D02*
Y783465D01*
Y818898D02*
X716535D01*
Y787402*
X393701*
Y818898*
Y393701D02*
X716535D01*
Y362205*
X393701*
Y393701*
G54D51*
X523918Y494390D03*
X517618D03*
X474724Y485413D03*
X481024D03*
X474724Y491909D03*
X481024D03*
X493130Y498622D03*
X499430D03*
X493130Y493425D03*
X499430D03*
X474213Y448130D03*
X467913D03*
X418897Y571654D03*
X425197D03*
X418897Y578740D03*
X425197D03*
X632284Y470472D03*
X625984D03*
X418897Y414173D03*
X425197D03*
X418897Y421260D03*
X425197D03*
X621260Y488583D03*
X614960D03*
X621260Y478740D03*
X614960D03*
X634252Y483465D03*
X627952D03*
X597244Y463780D03*
X590944D03*
X523918Y500394D03*
X517618D03*
X526102Y472953D03*
X532402D03*
X532559Y486929D03*
X526259D03*
X625984Y440551D03*
X632284D03*
X625984Y446850D03*
X632284D03*
X625984Y457087D03*
X632284D03*
X625984Y463386D03*
X632284D03*
G54D86*
X409449Y803150D03*
X700787D03*
X409449Y377953D03*
X700787D03*
X425197Y803150D03*
X685039D03*
X425197Y377953D03*
X685039D03*
G54D102*
X704724Y434547D03*
X698740Y444547D03*
X704724Y474350D03*
X698740Y484350D03*
G54D118*
X685433Y436949D03*
Y481949D03*
G54D126*
X673425Y428445D03*
Y490453D03*
G54D135*
X496929Y515630D03*
Y509330D03*
X504134Y539961D03*
Y533661D03*
X469291Y462204D03*
Y468504D03*
X481496Y462204D03*
Y468504D03*
X478150Y518700D03*
Y525000D03*
X475394Y462204D03*
Y468504D03*
X512795Y455118D03*
Y461418D03*
X590551Y494489D03*
Y488189D03*
X598031D03*
Y494489D03*
X491299Y515630D03*
Y509330D03*
X513819Y524292D03*
Y517992D03*
X507756Y524292D03*
Y517992D03*
G54D138*
X688976Y555118D03*
G54D139*
X386076Y214179D02*
X383929Y206945D01*
X386076Y214179D02*
X388224Y206945D01*
X384734Y209356D02*
X387419D01*
X392519Y214179D02*
Y206945D01*
X390640Y214179D02*
X394398D01*
X400572Y213146D02*
X400035Y213835D01*
X399230Y214179*
X398156*
X397351Y213835*
X396814Y213146*
Y212457*
X397082Y211768*
X397351Y211423*
X397887Y211079*
X399498Y210390*
X400035Y210045*
X400303Y209701*
X400572Y209012*
Y207978*
X400035Y207289*
X399230Y206945*
X398156*
X397351Y207289*
X396814Y207978*
X406746Y214179D02*
X404061Y206945D01*
X402988Y214179D02*
X406746D01*
X412920D02*
X410235Y206945D01*
X409161Y214179D02*
X412920D01*
X416946D02*
X416141Y213835D01*
X415604Y212801*
X415335Y211079*
Y210045*
X415604Y208323*
X416141Y207289*
X416946Y206945*
X417483*
X418288Y207289*
X418825Y208323*
X419093Y210045*
Y211079*
X418825Y212801*
X418288Y213835*
X417483Y214179*
X416946*
X424194D02*
X421509Y209356D01*
X425536*
X424194Y214179D02*
Y206945D01*
X427952Y205567D02*
X433589D01*
X435199Y212801D02*
X435736Y213146D01*
X436541Y214179*
Y206945*
X438957Y205567D02*
X444594D01*
X446205Y214179D02*
Y206945D01*
Y214179D02*
X448621D01*
X449426Y213835*
X449695Y213490*
X449963Y212801*
Y211768*
X449695Y211079*
X449426Y210734*
X448621Y210390*
X446205*
X452379Y205567D02*
X458016D01*
X459627Y214179D02*
Y206945D01*
X462848*
X465264Y205567D02*
X470901D01*
X474390Y214179D02*
Y206945D01*
X472511Y214179D02*
X476269D01*
X478685D02*
Y206945D01*
X482980Y214179D02*
Y206945D01*
X481101Y214179D02*
X484859D01*
X487275D02*
Y206945D01*
Y214179D02*
X489691D01*
X490496Y213835*
X490765Y213490*
X491033Y212801*
Y212112*
X490765Y211423*
X490496Y211079*
X489691Y210734*
X487275*
X489154D02*
X491033Y206945D01*
X495596Y214179D02*
X493449Y206945D01*
X495596Y214179D02*
X497744Y206945D01*
X494254Y209356D02*
X496939D01*
X502039Y214179D02*
Y206945D01*
X500160Y214179D02*
X503918D01*
X507944D02*
X507407Y213835D01*
X506871Y213146*
X506602Y212457*
X506334Y211423*
Y209701*
X506602Y208667*
X506871Y207978*
X507407Y207289*
X507944Y206945*
X509018*
X509555Y207289*
X510092Y207978*
X510360Y208667*
X510629Y209701*
Y211423*
X510360Y212457*
X510092Y213146*
X509555Y213835*
X509018Y214179*
X507944*
X513044D02*
Y206945D01*
Y214179D02*
X515460D01*
X516266Y213835*
X516534Y213490*
X516802Y212801*
Y212112*
X516534Y211423*
X516266Y211079*
X515460Y210734*
X513044*
X514923D02*
X516802Y206945D01*
X519218Y205567D02*
X524855D01*
X526466Y214179D02*
Y206945D01*
Y214179D02*
X528613Y206945D01*
X530761Y214179D02*
X528613Y206945D01*
X530761Y214179D02*
Y206945D01*
X537203Y212457D02*
X536935Y213146D01*
X536398Y213835*
X535861Y214179*
X534787*
X534251Y213835*
X533714Y213146*
X533445Y212457*
X533177Y211423*
Y209701*
X533445Y208667*
X533714Y207978*
X534251Y207289*
X534787Y206945*
X535861*
X536398Y207289*
X536935Y207978*
X537203Y208667*
X539619Y214179D02*
Y209012D01*
X539888Y207978*
X540424Y207289*
X541230Y206945*
X541767*
X542572Y207289*
X543109Y207978*
X543377Y209012*
Y214179*
X545793Y205567D02*
X551430D01*
X553041Y214179D02*
Y206945D01*
Y214179D02*
X555188Y206945D01*
X557336Y214179D02*
X555188Y206945D01*
X557336Y214179D02*
Y206945D01*
X561362Y214179D02*
X560825Y213835D01*
X560288Y213146*
X560020Y212457*
X559752Y211423*
Y209701*
X560020Y208667*
X560288Y207978*
X560825Y207289*
X561362Y206945*
X562436*
X562973Y207289*
X563510Y207978*
X563778Y208667*
X564046Y209701*
Y211423*
X563778Y212457*
X563510Y213146*
X562973Y213835*
X562436Y214179*
X561362*
X566462D02*
Y206945D01*
Y214179D02*
X568341D01*
X569147Y213835*
X569683Y213146*
X569952Y212457*
X570220Y211423*
Y209701*
X569952Y208667*
X569683Y207978*
X569147Y207289*
X568341Y206945*
X566462*
X572636Y214179D02*
Y209012D01*
X572905Y207978*
X573442Y207289*
X574247Y206945*
X574784*
X575589Y207289*
X576126Y207978*
X576394Y209012*
Y214179*
X578810D02*
Y206945D01*
X582031*
X584447Y214179D02*
Y206945D01*
Y214179D02*
X587937D01*
X584447Y210734D02*
X586595D01*
X584447Y206945D02*
X587937D01*
X592232Y215557D02*
X591695Y214868D01*
X591158Y213835*
X590621Y212457*
X590353Y210734*
Y209356*
X590621Y207634*
X591158Y206256*
X591695Y205222*
X592232Y204533*
X594648Y214179D02*
X596795Y206945D01*
X598942Y214179D02*
X596795Y206945D01*
X602969Y214179D02*
X602164Y213835D01*
X601627Y212801*
X601358Y211079*
Y210045*
X601627Y208323*
X602164Y207289*
X602969Y206945*
X603506*
X604311Y207289*
X604848Y208323*
X605116Y210045*
Y211079*
X604848Y212801*
X604311Y213835*
X603506Y214179*
X602969*
X607801Y207634D02*
X607532Y207289D01*
X607801Y206945*
X608069Y207289*
X607801Y207634*
X610485Y212801D02*
X611022Y213146D01*
X611827Y214179*
Y206945*
X614243Y215557D02*
X614780Y214868D01*
X615317Y213835*
X615854Y212457*
X616122Y210734*
Y209356*
X615854Y207634*
X615317Y206256*
X614780Y205222*
X614243Y204533*
G54D143*
X434587Y420768D03*
Y406004D03*
X439587Y420768D03*
Y406004D03*
X444587Y420768D03*
Y406004D03*
X449587Y420768D03*
Y406004D03*
X454587Y420768D03*
Y406004D03*
X459587Y420768D03*
Y406004D03*
X464587Y420768D03*
Y406004D03*
X469587Y420768D03*
Y406004D03*
X474587Y420768D03*
Y406004D03*
X479587Y420768D03*
Y406004D03*
X484587Y420768D03*
Y406004D03*
X489587Y420768D03*
Y406004D03*
X494587Y420768D03*
Y406004D03*
X499587Y420768D03*
Y406004D03*
X504587Y420768D03*
Y406004D03*
X509587Y420768D03*
Y406004D03*
X514587Y420768D03*
Y406004D03*
X519587Y420768D03*
Y406004D03*
X524587Y420768D03*
Y406004D03*
X529587Y420768D03*
Y406004D03*
X534587Y420768D03*
Y406004D03*
X539587Y420768D03*
Y406004D03*
X544587Y420768D03*
Y406004D03*
X549587Y420768D03*
Y406004D03*
X554587Y420768D03*
Y406004D03*
X559587Y420768D03*
Y406004D03*
X564587Y420768D03*
Y406004D03*
X569587Y420768D03*
Y406004D03*
X574587Y420768D03*
Y406004D03*
X579587Y420768D03*
Y406004D03*
X434587Y578248D03*
Y563484D03*
X439587Y578248D03*
Y563484D03*
X444587Y578248D03*
Y563484D03*
X449587Y578248D03*
Y563484D03*
X454587Y578248D03*
Y563484D03*
X459587Y578248D03*
Y563484D03*
X464587Y578248D03*
Y563484D03*
X469587Y578248D03*
Y563484D03*
X474587Y578248D03*
Y563484D03*
X479587Y578248D03*
Y563484D03*
X484587Y578248D03*
Y563484D03*
X489587Y578248D03*
Y563484D03*
X494587Y578248D03*
Y563484D03*
X499587Y578248D03*
Y563484D03*
X504587Y578248D03*
Y563484D03*
X509587Y578248D03*
Y563484D03*
X514587Y578248D03*
Y563484D03*
X519587Y578248D03*
Y563484D03*
X524587Y578248D03*
Y563484D03*
X529587Y578248D03*
Y563484D03*
X534587Y578248D03*
Y563484D03*
X539587Y578248D03*
Y563484D03*
X544587Y578248D03*
Y563484D03*
X549587Y578248D03*
Y563484D03*
X554587Y578248D03*
Y563484D03*
X559587Y578248D03*
Y563484D03*
X564587Y578248D03*
Y563484D03*
X569587Y578248D03*
Y563484D03*
X574587Y578248D03*
Y563484D03*
X579587Y578248D03*
Y563484D03*
G74*
X0Y0D02*
M02*
