G04 #@! TF.GenerationSoftware,KiCad,Pcbnew,7.0.2*
G04 #@! TF.CreationDate,2023-05-22T10:25:24+09:00*
G04 #@! TF.ProjectId,ATIK_LED_Board_rev01_220517,4154494b-5f4c-4454-945f-426f6172645f,rev?*
G04 #@! TF.SameCoordinates,Original*
G04 #@! TF.FileFunction,Paste,Top*
G04 #@! TF.FilePolarity,Positive*
%FSLAX46Y46*%
G04 Gerber Fmt 4.6, Leading zero omitted, Abs format (unit mm)*
G04 Created by KiCad (PCBNEW 7.0.2) date 2023-05-22 10:25:24*
%MOMM*%
%LPD*%
G01*
G04 APERTURE LIST*
G04 Aperture macros list*
%AMRoundRect*
0 Rectangle with rounded corners*
0 $1 Rounding radius*
0 $2 $3 $4 $5 $6 $7 $8 $9 X,Y pos of 4 corners*
0 Add a 4 corners polygon primitive as box body*
4,1,4,$2,$3,$4,$5,$6,$7,$8,$9,$2,$3,0*
0 Add four circle primitives for the rounded corners*
1,1,$1+$1,$2,$3*
1,1,$1+$1,$4,$5*
1,1,$1+$1,$6,$7*
1,1,$1+$1,$8,$9*
0 Add four rect primitives between the rounded corners*
20,1,$1+$1,$2,$3,$4,$5,0*
20,1,$1+$1,$4,$5,$6,$7,0*
20,1,$1+$1,$6,$7,$8,$9,0*
20,1,$1+$1,$8,$9,$2,$3,0*%
G04 Aperture macros list end*
%ADD10RoundRect,0.167500X0.307500X-0.167500X0.307500X0.167500X-0.307500X0.167500X-0.307500X-0.167500X0*%
%ADD11RoundRect,0.218750X0.218750X0.256250X-0.218750X0.256250X-0.218750X-0.256250X0.218750X-0.256250X0*%
%ADD12R,1.550000X0.600000*%
%ADD13R,0.705000X0.705000*%
%ADD14RoundRect,0.218750X0.256250X-0.218750X0.256250X0.218750X-0.256250X0.218750X-0.256250X-0.218750X0*%
%ADD15RoundRect,0.167500X-0.307500X0.167500X-0.307500X-0.167500X0.307500X-0.167500X0.307500X0.167500X0*%
%ADD16RoundRect,0.250000X-0.375000X-0.625000X0.375000X-0.625000X0.375000X0.625000X-0.375000X0.625000X0*%
%ADD17RoundRect,0.167500X0.167500X0.307500X-0.167500X0.307500X-0.167500X-0.307500X0.167500X-0.307500X0*%
%ADD18RoundRect,0.167500X-0.167500X-0.307500X0.167500X-0.307500X0.167500X0.307500X-0.167500X0.307500X0*%
%ADD19RoundRect,0.218750X-0.218750X-0.256250X0.218750X-0.256250X0.218750X0.256250X-0.218750X0.256250X0*%
%ADD20R,0.300000X0.680000*%
%ADD21R,1.560000X1.450000*%
%ADD22RoundRect,0.218750X-0.256250X0.218750X-0.256250X-0.218750X0.256250X-0.218750X0.256250X0.218750X0*%
%ADD23R,0.680000X0.300000*%
%ADD24R,1.450000X1.560000*%
%ADD25RoundRect,0.058800X-0.691200X-0.186200X0.691200X-0.186200X0.691200X0.186200X-0.691200X0.186200X0*%
%ADD26RoundRect,0.058800X0.691200X0.186200X-0.691200X0.186200X-0.691200X-0.186200X0.691200X-0.186200X0*%
%ADD27RoundRect,0.250000X0.450000X-0.262500X0.450000X0.262500X-0.450000X0.262500X-0.450000X-0.262500X0*%
%ADD28RoundRect,0.200000X0.275000X-0.200000X0.275000X0.200000X-0.275000X0.200000X-0.275000X-0.200000X0*%
%ADD29RoundRect,0.059000X-0.236000X-0.626000X0.236000X-0.626000X0.236000X0.626000X-0.236000X0.626000X0*%
%ADD30RoundRect,0.200000X0.200000X0.275000X-0.200000X0.275000X-0.200000X-0.275000X0.200000X-0.275000X0*%
%ADD31RoundRect,0.250000X-0.450000X0.262500X-0.450000X-0.262500X0.450000X-0.262500X0.450000X0.262500X0*%
%ADD32RoundRect,0.225000X0.225000X0.250000X-0.225000X0.250000X-0.225000X-0.250000X0.225000X-0.250000X0*%
G04 APERTURE END LIST*
D10*
X123000000Y-117875000D03*
X123000000Y-116125000D03*
X121500000Y-117875000D03*
X121500000Y-116125000D03*
D11*
X114287500Y-125500000D03*
X112712500Y-125500000D03*
X114287500Y-124000000D03*
X112712500Y-124000000D03*
D12*
X113300000Y-118095000D03*
X113300000Y-119365000D03*
X113300000Y-120635000D03*
X113300000Y-121905000D03*
X118700000Y-121905000D03*
X118700000Y-120635000D03*
X118700000Y-119365000D03*
X118700000Y-118095000D03*
D13*
X115412500Y-119412500D03*
X115412500Y-120587500D03*
X116587500Y-119412500D03*
X116587500Y-120587500D03*
D14*
X102000000Y-120787500D03*
X102000000Y-119212500D03*
D15*
X121250000Y-119375000D03*
X121250000Y-121125000D03*
X122750000Y-119375000D03*
X122750000Y-121125000D03*
D10*
X107000000Y-126375000D03*
X107000000Y-124625000D03*
D16*
X111600000Y-108000000D03*
X114400000Y-108000000D03*
D15*
X113000000Y-110125000D03*
X113000000Y-111875000D03*
X111500000Y-110125000D03*
X111500000Y-111875000D03*
D17*
X103375000Y-111000000D03*
X101625000Y-111000000D03*
X103375000Y-112500000D03*
X101625000Y-112500000D03*
X103375000Y-114000000D03*
X101625000Y-114000000D03*
D16*
X129100000Y-106000000D03*
X131900000Y-106000000D03*
D17*
X128375000Y-110000000D03*
X126625000Y-110000000D03*
D16*
X128600000Y-121500000D03*
X131400000Y-121500000D03*
D18*
X127625000Y-124000000D03*
X129375000Y-124000000D03*
X127625000Y-125500000D03*
X129375000Y-125500000D03*
D15*
X125500000Y-112125000D03*
X125500000Y-113875000D03*
D19*
X126212500Y-117000000D03*
X127787500Y-117000000D03*
D20*
X129280000Y-112140000D03*
X128780000Y-112140000D03*
X128280000Y-112140000D03*
X127780000Y-112140000D03*
X127780000Y-114860000D03*
X128280000Y-114860000D03*
X128780000Y-114860000D03*
X129280000Y-114860000D03*
D21*
X128500000Y-113500000D03*
D15*
X116500000Y-108125000D03*
X116500000Y-109875000D03*
X129000000Y-102125000D03*
X129000000Y-103875000D03*
X114500000Y-110125000D03*
X114500000Y-111875000D03*
D18*
X129625000Y-108500000D03*
X131375000Y-108500000D03*
X127625000Y-127000000D03*
X129375000Y-127000000D03*
D19*
X126212500Y-119000000D03*
X127787500Y-119000000D03*
X129212500Y-119000000D03*
X130787500Y-119000000D03*
D18*
X129625000Y-110000000D03*
X131375000Y-110000000D03*
D22*
X105000000Y-104212500D03*
X105000000Y-105787500D03*
D11*
X103787500Y-109000000D03*
X102212500Y-109000000D03*
D23*
X108860000Y-110780000D03*
X108860000Y-110280000D03*
X108860000Y-109780000D03*
X108860000Y-109280000D03*
X106140000Y-109280000D03*
X106140000Y-109780000D03*
X106140000Y-110280000D03*
X106140000Y-110780000D03*
D24*
X107500000Y-110000000D03*
D19*
X102212500Y-107500000D03*
X103787500Y-107500000D03*
D16*
X105100000Y-114000000D03*
X107900000Y-114000000D03*
D17*
X108875000Y-107000000D03*
X107125000Y-107000000D03*
D25*
X111512500Y-131560000D03*
X111512500Y-132210000D03*
X111512500Y-132860000D03*
X111512500Y-133510000D03*
D26*
X115722500Y-133510000D03*
X115722500Y-132860000D03*
X115722500Y-132210000D03*
X115722500Y-131560000D03*
D27*
X119280000Y-135422500D03*
X119280000Y-133597500D03*
D28*
X121920000Y-131095000D03*
X121920000Y-129445000D03*
D29*
X125630000Y-134355000D03*
X126580000Y-134355000D03*
X127530000Y-134355000D03*
X127530000Y-132005000D03*
X125630000Y-132005000D03*
D30*
X127535000Y-129520000D03*
X125885000Y-129520000D03*
D31*
X106995000Y-133522500D03*
X106995000Y-135347500D03*
D32*
X116022500Y-129535000D03*
X114472500Y-129535000D03*
D31*
X119280000Y-129577500D03*
X119280000Y-131402500D03*
X106995000Y-129710000D03*
X106995000Y-131535000D03*
M02*
