G04 #@! TF.GenerationSoftware,KiCad,Pcbnew,7.0.2*
G04 #@! TF.CreationDate,2023-05-22T10:25:24+09:00*
G04 #@! TF.ProjectId,ATIK_LED_Board_rev01_220517,4154494b-5f4c-4454-945f-426f6172645f,rev?*
G04 #@! TF.SameCoordinates,Original*
G04 #@! TF.FileFunction,Legend,Top*
G04 #@! TF.FilePolarity,Positive*
%FSLAX46Y46*%
G04 Gerber Fmt 4.6, Leading zero omitted, Abs format (unit mm)*
G04 Created by KiCad (PCBNEW 7.0.2) date 2023-05-22 10:25:24*
%MOMM*%
%LPD*%
G01*
G04 APERTURE LIST*
%ADD10C,0.150000*%
%ADD11C,0.100000*%
%ADD12C,0.120000*%
%ADD13C,0.050000*%
%ADD14C,0.127000*%
%ADD15C,0.200000*%
G04 APERTURE END LIST*
D10*
X104912380Y-138033523D02*
X105293333Y-138033523D01*
X104836190Y-138262095D02*
X105102857Y-137462095D01*
X105102857Y-137462095D02*
X105369523Y-138262095D01*
X105521904Y-137462095D02*
X105979047Y-137462095D01*
X105750475Y-138262095D02*
X105750475Y-137462095D01*
X106245714Y-138262095D02*
X106245714Y-137462095D01*
X106626666Y-138262095D02*
X106626666Y-137462095D01*
X107083809Y-138262095D02*
X106740951Y-137804952D01*
X107083809Y-137462095D02*
X106626666Y-137919238D01*
X107236190Y-138338285D02*
X107845713Y-138338285D01*
X108417142Y-138262095D02*
X108036190Y-138262095D01*
X108036190Y-138262095D02*
X108036190Y-137462095D01*
X108683809Y-137843047D02*
X108950475Y-137843047D01*
X109064761Y-138262095D02*
X108683809Y-138262095D01*
X108683809Y-138262095D02*
X108683809Y-137462095D01*
X108683809Y-137462095D02*
X109064761Y-137462095D01*
X109407619Y-138262095D02*
X109407619Y-137462095D01*
X109407619Y-137462095D02*
X109598095Y-137462095D01*
X109598095Y-137462095D02*
X109712381Y-137500190D01*
X109712381Y-137500190D02*
X109788571Y-137576380D01*
X109788571Y-137576380D02*
X109826666Y-137652571D01*
X109826666Y-137652571D02*
X109864762Y-137804952D01*
X109864762Y-137804952D02*
X109864762Y-137919238D01*
X109864762Y-137919238D02*
X109826666Y-138071619D01*
X109826666Y-138071619D02*
X109788571Y-138147809D01*
X109788571Y-138147809D02*
X109712381Y-138224000D01*
X109712381Y-138224000D02*
X109598095Y-138262095D01*
X109598095Y-138262095D02*
X109407619Y-138262095D01*
X110017143Y-138338285D02*
X110626666Y-138338285D01*
X111083809Y-137843047D02*
X111198095Y-137881142D01*
X111198095Y-137881142D02*
X111236190Y-137919238D01*
X111236190Y-137919238D02*
X111274286Y-137995428D01*
X111274286Y-137995428D02*
X111274286Y-138109714D01*
X111274286Y-138109714D02*
X111236190Y-138185904D01*
X111236190Y-138185904D02*
X111198095Y-138224000D01*
X111198095Y-138224000D02*
X111121905Y-138262095D01*
X111121905Y-138262095D02*
X110817143Y-138262095D01*
X110817143Y-138262095D02*
X110817143Y-137462095D01*
X110817143Y-137462095D02*
X111083809Y-137462095D01*
X111083809Y-137462095D02*
X111160000Y-137500190D01*
X111160000Y-137500190D02*
X111198095Y-137538285D01*
X111198095Y-137538285D02*
X111236190Y-137614476D01*
X111236190Y-137614476D02*
X111236190Y-137690666D01*
X111236190Y-137690666D02*
X111198095Y-137766857D01*
X111198095Y-137766857D02*
X111160000Y-137804952D01*
X111160000Y-137804952D02*
X111083809Y-137843047D01*
X111083809Y-137843047D02*
X110817143Y-137843047D01*
X111769524Y-137462095D02*
X111921905Y-137462095D01*
X111921905Y-137462095D02*
X111998095Y-137500190D01*
X111998095Y-137500190D02*
X112074286Y-137576380D01*
X112074286Y-137576380D02*
X112112381Y-137728761D01*
X112112381Y-137728761D02*
X112112381Y-137995428D01*
X112112381Y-137995428D02*
X112074286Y-138147809D01*
X112074286Y-138147809D02*
X111998095Y-138224000D01*
X111998095Y-138224000D02*
X111921905Y-138262095D01*
X111921905Y-138262095D02*
X111769524Y-138262095D01*
X111769524Y-138262095D02*
X111693333Y-138224000D01*
X111693333Y-138224000D02*
X111617143Y-138147809D01*
X111617143Y-138147809D02*
X111579047Y-137995428D01*
X111579047Y-137995428D02*
X111579047Y-137728761D01*
X111579047Y-137728761D02*
X111617143Y-137576380D01*
X111617143Y-137576380D02*
X111693333Y-137500190D01*
X111693333Y-137500190D02*
X111769524Y-137462095D01*
X112417142Y-138033523D02*
X112798095Y-138033523D01*
X112340952Y-138262095D02*
X112607619Y-137462095D01*
X112607619Y-137462095D02*
X112874285Y-138262095D01*
X113598095Y-138262095D02*
X113331428Y-137881142D01*
X113140952Y-138262095D02*
X113140952Y-137462095D01*
X113140952Y-137462095D02*
X113445714Y-137462095D01*
X113445714Y-137462095D02*
X113521904Y-137500190D01*
X113521904Y-137500190D02*
X113559999Y-137538285D01*
X113559999Y-137538285D02*
X113598095Y-137614476D01*
X113598095Y-137614476D02*
X113598095Y-137728761D01*
X113598095Y-137728761D02*
X113559999Y-137804952D01*
X113559999Y-137804952D02*
X113521904Y-137843047D01*
X113521904Y-137843047D02*
X113445714Y-137881142D01*
X113445714Y-137881142D02*
X113140952Y-137881142D01*
X113940952Y-138262095D02*
X113940952Y-137462095D01*
X113940952Y-137462095D02*
X114131428Y-137462095D01*
X114131428Y-137462095D02*
X114245714Y-137500190D01*
X114245714Y-137500190D02*
X114321904Y-137576380D01*
X114321904Y-137576380D02*
X114359999Y-137652571D01*
X114359999Y-137652571D02*
X114398095Y-137804952D01*
X114398095Y-137804952D02*
X114398095Y-137919238D01*
X114398095Y-137919238D02*
X114359999Y-138071619D01*
X114359999Y-138071619D02*
X114321904Y-138147809D01*
X114321904Y-138147809D02*
X114245714Y-138224000D01*
X114245714Y-138224000D02*
X114131428Y-138262095D01*
X114131428Y-138262095D02*
X113940952Y-138262095D01*
X114550476Y-138338285D02*
X115159999Y-138338285D01*
X115807619Y-138262095D02*
X115540952Y-137881142D01*
X115350476Y-138262095D02*
X115350476Y-137462095D01*
X115350476Y-137462095D02*
X115655238Y-137462095D01*
X115655238Y-137462095D02*
X115731428Y-137500190D01*
X115731428Y-137500190D02*
X115769523Y-137538285D01*
X115769523Y-137538285D02*
X115807619Y-137614476D01*
X115807619Y-137614476D02*
X115807619Y-137728761D01*
X115807619Y-137728761D02*
X115769523Y-137804952D01*
X115769523Y-137804952D02*
X115731428Y-137843047D01*
X115731428Y-137843047D02*
X115655238Y-137881142D01*
X115655238Y-137881142D02*
X115350476Y-137881142D01*
X116455238Y-138224000D02*
X116379047Y-138262095D01*
X116379047Y-138262095D02*
X116226666Y-138262095D01*
X116226666Y-138262095D02*
X116150476Y-138224000D01*
X116150476Y-138224000D02*
X116112380Y-138147809D01*
X116112380Y-138147809D02*
X116112380Y-137843047D01*
X116112380Y-137843047D02*
X116150476Y-137766857D01*
X116150476Y-137766857D02*
X116226666Y-137728761D01*
X116226666Y-137728761D02*
X116379047Y-137728761D01*
X116379047Y-137728761D02*
X116455238Y-137766857D01*
X116455238Y-137766857D02*
X116493333Y-137843047D01*
X116493333Y-137843047D02*
X116493333Y-137919238D01*
X116493333Y-137919238D02*
X116112380Y-137995428D01*
X116759999Y-137728761D02*
X116950475Y-138262095D01*
X116950475Y-138262095D02*
X117140952Y-137728761D01*
X117598095Y-137462095D02*
X117674285Y-137462095D01*
X117674285Y-137462095D02*
X117750476Y-137500190D01*
X117750476Y-137500190D02*
X117788571Y-137538285D01*
X117788571Y-137538285D02*
X117826666Y-137614476D01*
X117826666Y-137614476D02*
X117864761Y-137766857D01*
X117864761Y-137766857D02*
X117864761Y-137957333D01*
X117864761Y-137957333D02*
X117826666Y-138109714D01*
X117826666Y-138109714D02*
X117788571Y-138185904D01*
X117788571Y-138185904D02*
X117750476Y-138224000D01*
X117750476Y-138224000D02*
X117674285Y-138262095D01*
X117674285Y-138262095D02*
X117598095Y-138262095D01*
X117598095Y-138262095D02*
X117521904Y-138224000D01*
X117521904Y-138224000D02*
X117483809Y-138185904D01*
X117483809Y-138185904D02*
X117445714Y-138109714D01*
X117445714Y-138109714D02*
X117407618Y-137957333D01*
X117407618Y-137957333D02*
X117407618Y-137766857D01*
X117407618Y-137766857D02*
X117445714Y-137614476D01*
X117445714Y-137614476D02*
X117483809Y-137538285D01*
X117483809Y-137538285D02*
X117521904Y-137500190D01*
X117521904Y-137500190D02*
X117598095Y-137462095D01*
X118207619Y-138185904D02*
X118245714Y-138224000D01*
X118245714Y-138224000D02*
X118207619Y-138262095D01*
X118207619Y-138262095D02*
X118169523Y-138224000D01*
X118169523Y-138224000D02*
X118207619Y-138185904D01*
X118207619Y-138185904D02*
X118207619Y-138262095D01*
X119007618Y-138262095D02*
X118550475Y-138262095D01*
X118779047Y-138262095D02*
X118779047Y-137462095D01*
X118779047Y-137462095D02*
X118702856Y-137576380D01*
X118702856Y-137576380D02*
X118626666Y-137652571D01*
X118626666Y-137652571D02*
X118550475Y-137690666D01*
X119160000Y-138338285D02*
X119769523Y-138338285D01*
X119921904Y-137538285D02*
X119960000Y-137500190D01*
X119960000Y-137500190D02*
X120036190Y-137462095D01*
X120036190Y-137462095D02*
X120226666Y-137462095D01*
X120226666Y-137462095D02*
X120302857Y-137500190D01*
X120302857Y-137500190D02*
X120340952Y-137538285D01*
X120340952Y-137538285D02*
X120379047Y-137614476D01*
X120379047Y-137614476D02*
X120379047Y-137690666D01*
X120379047Y-137690666D02*
X120340952Y-137804952D01*
X120340952Y-137804952D02*
X119883809Y-138262095D01*
X119883809Y-138262095D02*
X120379047Y-138262095D01*
X120645714Y-137462095D02*
X121140952Y-137462095D01*
X121140952Y-137462095D02*
X120874286Y-137766857D01*
X120874286Y-137766857D02*
X120988571Y-137766857D01*
X120988571Y-137766857D02*
X121064762Y-137804952D01*
X121064762Y-137804952D02*
X121102857Y-137843047D01*
X121102857Y-137843047D02*
X121140952Y-137919238D01*
X121140952Y-137919238D02*
X121140952Y-138109714D01*
X121140952Y-138109714D02*
X121102857Y-138185904D01*
X121102857Y-138185904D02*
X121064762Y-138224000D01*
X121064762Y-138224000D02*
X120988571Y-138262095D01*
X120988571Y-138262095D02*
X120760000Y-138262095D01*
X120760000Y-138262095D02*
X120683809Y-138224000D01*
X120683809Y-138224000D02*
X120645714Y-138185904D01*
X121636191Y-137462095D02*
X121712381Y-137462095D01*
X121712381Y-137462095D02*
X121788572Y-137500190D01*
X121788572Y-137500190D02*
X121826667Y-137538285D01*
X121826667Y-137538285D02*
X121864762Y-137614476D01*
X121864762Y-137614476D02*
X121902857Y-137766857D01*
X121902857Y-137766857D02*
X121902857Y-137957333D01*
X121902857Y-137957333D02*
X121864762Y-138109714D01*
X121864762Y-138109714D02*
X121826667Y-138185904D01*
X121826667Y-138185904D02*
X121788572Y-138224000D01*
X121788572Y-138224000D02*
X121712381Y-138262095D01*
X121712381Y-138262095D02*
X121636191Y-138262095D01*
X121636191Y-138262095D02*
X121560000Y-138224000D01*
X121560000Y-138224000D02*
X121521905Y-138185904D01*
X121521905Y-138185904D02*
X121483810Y-138109714D01*
X121483810Y-138109714D02*
X121445714Y-137957333D01*
X121445714Y-137957333D02*
X121445714Y-137766857D01*
X121445714Y-137766857D02*
X121483810Y-137614476D01*
X121483810Y-137614476D02*
X121521905Y-137538285D01*
X121521905Y-137538285D02*
X121560000Y-137500190D01*
X121560000Y-137500190D02*
X121636191Y-137462095D01*
X122626667Y-137462095D02*
X122245715Y-137462095D01*
X122245715Y-137462095D02*
X122207619Y-137843047D01*
X122207619Y-137843047D02*
X122245715Y-137804952D01*
X122245715Y-137804952D02*
X122321905Y-137766857D01*
X122321905Y-137766857D02*
X122512381Y-137766857D01*
X122512381Y-137766857D02*
X122588572Y-137804952D01*
X122588572Y-137804952D02*
X122626667Y-137843047D01*
X122626667Y-137843047D02*
X122664762Y-137919238D01*
X122664762Y-137919238D02*
X122664762Y-138109714D01*
X122664762Y-138109714D02*
X122626667Y-138185904D01*
X122626667Y-138185904D02*
X122588572Y-138224000D01*
X122588572Y-138224000D02*
X122512381Y-138262095D01*
X122512381Y-138262095D02*
X122321905Y-138262095D01*
X122321905Y-138262095D02*
X122245715Y-138224000D01*
X122245715Y-138224000D02*
X122207619Y-138185904D01*
X122969524Y-137538285D02*
X123007620Y-137500190D01*
X123007620Y-137500190D02*
X123083810Y-137462095D01*
X123083810Y-137462095D02*
X123274286Y-137462095D01*
X123274286Y-137462095D02*
X123350477Y-137500190D01*
X123350477Y-137500190D02*
X123388572Y-137538285D01*
X123388572Y-137538285D02*
X123426667Y-137614476D01*
X123426667Y-137614476D02*
X123426667Y-137690666D01*
X123426667Y-137690666D02*
X123388572Y-137804952D01*
X123388572Y-137804952D02*
X122931429Y-138262095D01*
X122931429Y-138262095D02*
X123426667Y-138262095D01*
X123731429Y-137538285D02*
X123769525Y-137500190D01*
X123769525Y-137500190D02*
X123845715Y-137462095D01*
X123845715Y-137462095D02*
X124036191Y-137462095D01*
X124036191Y-137462095D02*
X124112382Y-137500190D01*
X124112382Y-137500190D02*
X124150477Y-137538285D01*
X124150477Y-137538285D02*
X124188572Y-137614476D01*
X124188572Y-137614476D02*
X124188572Y-137690666D01*
X124188572Y-137690666D02*
X124150477Y-137804952D01*
X124150477Y-137804952D02*
X123693334Y-138262095D01*
X123693334Y-138262095D02*
X124188572Y-138262095D01*
D11*
X104559523Y-120141523D02*
X104940476Y-120141523D01*
X104483333Y-120370095D02*
X104750000Y-119570095D01*
X104750000Y-119570095D02*
X105016666Y-120370095D01*
X105809523Y-117641523D02*
X106190476Y-117641523D01*
X105733333Y-117870095D02*
X106000000Y-117070095D01*
X106000000Y-117070095D02*
X106266666Y-117870095D01*
X110290476Y-120370095D02*
X110290476Y-119570095D01*
X110747619Y-120370095D02*
X110404761Y-119912952D01*
X110747619Y-119570095D02*
X110290476Y-120027238D01*
X122916666Y-115183690D02*
X122892857Y-115207500D01*
X122892857Y-115207500D02*
X122821428Y-115231309D01*
X122821428Y-115231309D02*
X122773809Y-115231309D01*
X122773809Y-115231309D02*
X122702381Y-115207500D01*
X122702381Y-115207500D02*
X122654762Y-115159880D01*
X122654762Y-115159880D02*
X122630952Y-115112261D01*
X122630952Y-115112261D02*
X122607143Y-115017023D01*
X122607143Y-115017023D02*
X122607143Y-114945595D01*
X122607143Y-114945595D02*
X122630952Y-114850357D01*
X122630952Y-114850357D02*
X122654762Y-114802738D01*
X122654762Y-114802738D02*
X122702381Y-114755119D01*
X122702381Y-114755119D02*
X122773809Y-114731309D01*
X122773809Y-114731309D02*
X122821428Y-114731309D01*
X122821428Y-114731309D02*
X122892857Y-114755119D01*
X122892857Y-114755119D02*
X122916666Y-114778928D01*
X123345238Y-114897976D02*
X123345238Y-115231309D01*
X123226190Y-114707500D02*
X123107143Y-115064642D01*
X123107143Y-115064642D02*
X123416666Y-115064642D01*
X121416666Y-115183690D02*
X121392857Y-115207500D01*
X121392857Y-115207500D02*
X121321428Y-115231309D01*
X121321428Y-115231309D02*
X121273809Y-115231309D01*
X121273809Y-115231309D02*
X121202381Y-115207500D01*
X121202381Y-115207500D02*
X121154762Y-115159880D01*
X121154762Y-115159880D02*
X121130952Y-115112261D01*
X121130952Y-115112261D02*
X121107143Y-115017023D01*
X121107143Y-115017023D02*
X121107143Y-114945595D01*
X121107143Y-114945595D02*
X121130952Y-114850357D01*
X121130952Y-114850357D02*
X121154762Y-114802738D01*
X121154762Y-114802738D02*
X121202381Y-114755119D01*
X121202381Y-114755119D02*
X121273809Y-114731309D01*
X121273809Y-114731309D02*
X121321428Y-114731309D01*
X121321428Y-114731309D02*
X121392857Y-114755119D01*
X121392857Y-114755119D02*
X121416666Y-114778928D01*
X121869047Y-114731309D02*
X121630952Y-114731309D01*
X121630952Y-114731309D02*
X121607143Y-114969404D01*
X121607143Y-114969404D02*
X121630952Y-114945595D01*
X121630952Y-114945595D02*
X121678571Y-114921785D01*
X121678571Y-114921785D02*
X121797619Y-114921785D01*
X121797619Y-114921785D02*
X121845238Y-114945595D01*
X121845238Y-114945595D02*
X121869047Y-114969404D01*
X121869047Y-114969404D02*
X121892857Y-115017023D01*
X121892857Y-115017023D02*
X121892857Y-115136071D01*
X121892857Y-115136071D02*
X121869047Y-115183690D01*
X121869047Y-115183690D02*
X121845238Y-115207500D01*
X121845238Y-115207500D02*
X121797619Y-115231309D01*
X121797619Y-115231309D02*
X121678571Y-115231309D01*
X121678571Y-115231309D02*
X121630952Y-115207500D01*
X121630952Y-115207500D02*
X121607143Y-115183690D01*
X112666666Y-126981309D02*
X112500000Y-126743214D01*
X112380952Y-126981309D02*
X112380952Y-126481309D01*
X112380952Y-126481309D02*
X112571428Y-126481309D01*
X112571428Y-126481309D02*
X112619047Y-126505119D01*
X112619047Y-126505119D02*
X112642857Y-126528928D01*
X112642857Y-126528928D02*
X112666666Y-126576547D01*
X112666666Y-126576547D02*
X112666666Y-126647976D01*
X112666666Y-126647976D02*
X112642857Y-126695595D01*
X112642857Y-126695595D02*
X112619047Y-126719404D01*
X112619047Y-126719404D02*
X112571428Y-126743214D01*
X112571428Y-126743214D02*
X112380952Y-126743214D01*
X112857143Y-126528928D02*
X112880952Y-126505119D01*
X112880952Y-126505119D02*
X112928571Y-126481309D01*
X112928571Y-126481309D02*
X113047619Y-126481309D01*
X113047619Y-126481309D02*
X113095238Y-126505119D01*
X113095238Y-126505119D02*
X113119047Y-126528928D01*
X113119047Y-126528928D02*
X113142857Y-126576547D01*
X113142857Y-126576547D02*
X113142857Y-126624166D01*
X113142857Y-126624166D02*
X113119047Y-126695595D01*
X113119047Y-126695595D02*
X112833333Y-126981309D01*
X112833333Y-126981309D02*
X113142857Y-126981309D01*
X111166666Y-124231309D02*
X111000000Y-123993214D01*
X110880952Y-124231309D02*
X110880952Y-123731309D01*
X110880952Y-123731309D02*
X111071428Y-123731309D01*
X111071428Y-123731309D02*
X111119047Y-123755119D01*
X111119047Y-123755119D02*
X111142857Y-123778928D01*
X111142857Y-123778928D02*
X111166666Y-123826547D01*
X111166666Y-123826547D02*
X111166666Y-123897976D01*
X111166666Y-123897976D02*
X111142857Y-123945595D01*
X111142857Y-123945595D02*
X111119047Y-123969404D01*
X111119047Y-123969404D02*
X111071428Y-123993214D01*
X111071428Y-123993214D02*
X110880952Y-123993214D01*
X111333333Y-123731309D02*
X111642857Y-123731309D01*
X111642857Y-123731309D02*
X111476190Y-123921785D01*
X111476190Y-123921785D02*
X111547619Y-123921785D01*
X111547619Y-123921785D02*
X111595238Y-123945595D01*
X111595238Y-123945595D02*
X111619047Y-123969404D01*
X111619047Y-123969404D02*
X111642857Y-124017023D01*
X111642857Y-124017023D02*
X111642857Y-124136071D01*
X111642857Y-124136071D02*
X111619047Y-124183690D01*
X111619047Y-124183690D02*
X111595238Y-124207500D01*
X111595238Y-124207500D02*
X111547619Y-124231309D01*
X111547619Y-124231309D02*
X111404762Y-124231309D01*
X111404762Y-124231309D02*
X111357143Y-124207500D01*
X111357143Y-124207500D02*
X111333333Y-124183690D01*
X114619047Y-116481309D02*
X114619047Y-116886071D01*
X114619047Y-116886071D02*
X114642857Y-116933690D01*
X114642857Y-116933690D02*
X114666666Y-116957500D01*
X114666666Y-116957500D02*
X114714285Y-116981309D01*
X114714285Y-116981309D02*
X114809523Y-116981309D01*
X114809523Y-116981309D02*
X114857142Y-116957500D01*
X114857142Y-116957500D02*
X114880952Y-116933690D01*
X114880952Y-116933690D02*
X114904761Y-116886071D01*
X114904761Y-116886071D02*
X114904761Y-116481309D01*
X115404762Y-116981309D02*
X115119048Y-116981309D01*
X115261905Y-116981309D02*
X115261905Y-116481309D01*
X115261905Y-116481309D02*
X115214286Y-116552738D01*
X115214286Y-116552738D02*
X115166667Y-116600357D01*
X115166667Y-116600357D02*
X115119048Y-116624166D01*
X101231309Y-120083333D02*
X100993214Y-120249999D01*
X101231309Y-120369047D02*
X100731309Y-120369047D01*
X100731309Y-120369047D02*
X100731309Y-120178571D01*
X100731309Y-120178571D02*
X100755119Y-120130952D01*
X100755119Y-120130952D02*
X100778928Y-120107142D01*
X100778928Y-120107142D02*
X100826547Y-120083333D01*
X100826547Y-120083333D02*
X100897976Y-120083333D01*
X100897976Y-120083333D02*
X100945595Y-120107142D01*
X100945595Y-120107142D02*
X100969404Y-120130952D01*
X100969404Y-120130952D02*
X100993214Y-120178571D01*
X100993214Y-120178571D02*
X100993214Y-120369047D01*
X101231309Y-119607142D02*
X101231309Y-119892856D01*
X101231309Y-119749999D02*
X100731309Y-119749999D01*
X100731309Y-119749999D02*
X100802738Y-119797618D01*
X100802738Y-119797618D02*
X100850357Y-119845237D01*
X100850357Y-119845237D02*
X100874166Y-119892856D01*
X121146666Y-122563690D02*
X121122857Y-122587500D01*
X121122857Y-122587500D02*
X121051428Y-122611309D01*
X121051428Y-122611309D02*
X121003809Y-122611309D01*
X121003809Y-122611309D02*
X120932381Y-122587500D01*
X120932381Y-122587500D02*
X120884762Y-122539880D01*
X120884762Y-122539880D02*
X120860952Y-122492261D01*
X120860952Y-122492261D02*
X120837143Y-122397023D01*
X120837143Y-122397023D02*
X120837143Y-122325595D01*
X120837143Y-122325595D02*
X120860952Y-122230357D01*
X120860952Y-122230357D02*
X120884762Y-122182738D01*
X120884762Y-122182738D02*
X120932381Y-122135119D01*
X120932381Y-122135119D02*
X121003809Y-122111309D01*
X121003809Y-122111309D02*
X121051428Y-122111309D01*
X121051428Y-122111309D02*
X121122857Y-122135119D01*
X121122857Y-122135119D02*
X121146666Y-122158928D01*
X121337143Y-122158928D02*
X121360952Y-122135119D01*
X121360952Y-122135119D02*
X121408571Y-122111309D01*
X121408571Y-122111309D02*
X121527619Y-122111309D01*
X121527619Y-122111309D02*
X121575238Y-122135119D01*
X121575238Y-122135119D02*
X121599047Y-122158928D01*
X121599047Y-122158928D02*
X121622857Y-122206547D01*
X121622857Y-122206547D02*
X121622857Y-122254166D01*
X121622857Y-122254166D02*
X121599047Y-122325595D01*
X121599047Y-122325595D02*
X121313333Y-122611309D01*
X121313333Y-122611309D02*
X121622857Y-122611309D01*
X122686666Y-122543690D02*
X122662857Y-122567500D01*
X122662857Y-122567500D02*
X122591428Y-122591309D01*
X122591428Y-122591309D02*
X122543809Y-122591309D01*
X122543809Y-122591309D02*
X122472381Y-122567500D01*
X122472381Y-122567500D02*
X122424762Y-122519880D01*
X122424762Y-122519880D02*
X122400952Y-122472261D01*
X122400952Y-122472261D02*
X122377143Y-122377023D01*
X122377143Y-122377023D02*
X122377143Y-122305595D01*
X122377143Y-122305595D02*
X122400952Y-122210357D01*
X122400952Y-122210357D02*
X122424762Y-122162738D01*
X122424762Y-122162738D02*
X122472381Y-122115119D01*
X122472381Y-122115119D02*
X122543809Y-122091309D01*
X122543809Y-122091309D02*
X122591428Y-122091309D01*
X122591428Y-122091309D02*
X122662857Y-122115119D01*
X122662857Y-122115119D02*
X122686666Y-122138928D01*
X122853333Y-122091309D02*
X123162857Y-122091309D01*
X123162857Y-122091309D02*
X122996190Y-122281785D01*
X122996190Y-122281785D02*
X123067619Y-122281785D01*
X123067619Y-122281785D02*
X123115238Y-122305595D01*
X123115238Y-122305595D02*
X123139047Y-122329404D01*
X123139047Y-122329404D02*
X123162857Y-122377023D01*
X123162857Y-122377023D02*
X123162857Y-122496071D01*
X123162857Y-122496071D02*
X123139047Y-122543690D01*
X123139047Y-122543690D02*
X123115238Y-122567500D01*
X123115238Y-122567500D02*
X123067619Y-122591309D01*
X123067619Y-122591309D02*
X122924762Y-122591309D01*
X122924762Y-122591309D02*
X122877143Y-122567500D01*
X122877143Y-122567500D02*
X122853333Y-122543690D01*
X108306666Y-126813690D02*
X108282857Y-126837500D01*
X108282857Y-126837500D02*
X108211428Y-126861309D01*
X108211428Y-126861309D02*
X108163809Y-126861309D01*
X108163809Y-126861309D02*
X108092381Y-126837500D01*
X108092381Y-126837500D02*
X108044762Y-126789880D01*
X108044762Y-126789880D02*
X108020952Y-126742261D01*
X108020952Y-126742261D02*
X107997143Y-126647023D01*
X107997143Y-126647023D02*
X107997143Y-126575595D01*
X107997143Y-126575595D02*
X108020952Y-126480357D01*
X108020952Y-126480357D02*
X108044762Y-126432738D01*
X108044762Y-126432738D02*
X108092381Y-126385119D01*
X108092381Y-126385119D02*
X108163809Y-126361309D01*
X108163809Y-126361309D02*
X108211428Y-126361309D01*
X108211428Y-126361309D02*
X108282857Y-126385119D01*
X108282857Y-126385119D02*
X108306666Y-126408928D01*
X108782857Y-126861309D02*
X108497143Y-126861309D01*
X108640000Y-126861309D02*
X108640000Y-126361309D01*
X108640000Y-126361309D02*
X108592381Y-126432738D01*
X108592381Y-126432738D02*
X108544762Y-126480357D01*
X108544762Y-126480357D02*
X108497143Y-126504166D01*
X107583333Y-101481309D02*
X107583333Y-101838452D01*
X107583333Y-101838452D02*
X107559524Y-101909880D01*
X107559524Y-101909880D02*
X107511905Y-101957500D01*
X107511905Y-101957500D02*
X107440476Y-101981309D01*
X107440476Y-101981309D02*
X107392857Y-101981309D01*
X107773809Y-101481309D02*
X108083333Y-101481309D01*
X108083333Y-101481309D02*
X107916666Y-101671785D01*
X107916666Y-101671785D02*
X107988095Y-101671785D01*
X107988095Y-101671785D02*
X108035714Y-101695595D01*
X108035714Y-101695595D02*
X108059523Y-101719404D01*
X108059523Y-101719404D02*
X108083333Y-101767023D01*
X108083333Y-101767023D02*
X108083333Y-101886071D01*
X108083333Y-101886071D02*
X108059523Y-101933690D01*
X108059523Y-101933690D02*
X108035714Y-101957500D01*
X108035714Y-101957500D02*
X107988095Y-101981309D01*
X107988095Y-101981309D02*
X107845238Y-101981309D01*
X107845238Y-101981309D02*
X107797619Y-101957500D01*
X107797619Y-101957500D02*
X107773809Y-101933690D01*
X108030952Y-101038809D02*
X107745238Y-101038809D01*
X107888095Y-101038809D02*
X107888095Y-100538809D01*
X107888095Y-100538809D02*
X107840476Y-100610238D01*
X107840476Y-100610238D02*
X107792857Y-100657857D01*
X107792857Y-100657857D02*
X107745238Y-100681666D01*
X112916666Y-106683690D02*
X112892857Y-106707500D01*
X112892857Y-106707500D02*
X112821428Y-106731309D01*
X112821428Y-106731309D02*
X112773809Y-106731309D01*
X112773809Y-106731309D02*
X112702381Y-106707500D01*
X112702381Y-106707500D02*
X112654762Y-106659880D01*
X112654762Y-106659880D02*
X112630952Y-106612261D01*
X112630952Y-106612261D02*
X112607143Y-106517023D01*
X112607143Y-106517023D02*
X112607143Y-106445595D01*
X112607143Y-106445595D02*
X112630952Y-106350357D01*
X112630952Y-106350357D02*
X112654762Y-106302738D01*
X112654762Y-106302738D02*
X112702381Y-106255119D01*
X112702381Y-106255119D02*
X112773809Y-106231309D01*
X112773809Y-106231309D02*
X112821428Y-106231309D01*
X112821428Y-106231309D02*
X112892857Y-106255119D01*
X112892857Y-106255119D02*
X112916666Y-106278928D01*
X113202381Y-106445595D02*
X113154762Y-106421785D01*
X113154762Y-106421785D02*
X113130952Y-106397976D01*
X113130952Y-106397976D02*
X113107143Y-106350357D01*
X113107143Y-106350357D02*
X113107143Y-106326547D01*
X113107143Y-106326547D02*
X113130952Y-106278928D01*
X113130952Y-106278928D02*
X113154762Y-106255119D01*
X113154762Y-106255119D02*
X113202381Y-106231309D01*
X113202381Y-106231309D02*
X113297619Y-106231309D01*
X113297619Y-106231309D02*
X113345238Y-106255119D01*
X113345238Y-106255119D02*
X113369047Y-106278928D01*
X113369047Y-106278928D02*
X113392857Y-106326547D01*
X113392857Y-106326547D02*
X113392857Y-106350357D01*
X113392857Y-106350357D02*
X113369047Y-106397976D01*
X113369047Y-106397976D02*
X113345238Y-106421785D01*
X113345238Y-106421785D02*
X113297619Y-106445595D01*
X113297619Y-106445595D02*
X113202381Y-106445595D01*
X113202381Y-106445595D02*
X113154762Y-106469404D01*
X113154762Y-106469404D02*
X113130952Y-106493214D01*
X113130952Y-106493214D02*
X113107143Y-106540833D01*
X113107143Y-106540833D02*
X113107143Y-106636071D01*
X113107143Y-106636071D02*
X113130952Y-106683690D01*
X113130952Y-106683690D02*
X113154762Y-106707500D01*
X113154762Y-106707500D02*
X113202381Y-106731309D01*
X113202381Y-106731309D02*
X113297619Y-106731309D01*
X113297619Y-106731309D02*
X113345238Y-106707500D01*
X113345238Y-106707500D02*
X113369047Y-106683690D01*
X113369047Y-106683690D02*
X113392857Y-106636071D01*
X113392857Y-106636071D02*
X113392857Y-106540833D01*
X113392857Y-106540833D02*
X113369047Y-106493214D01*
X113369047Y-106493214D02*
X113345238Y-106469404D01*
X113345238Y-106469404D02*
X113297619Y-106445595D01*
X117183690Y-112321428D02*
X117207500Y-112345237D01*
X117207500Y-112345237D02*
X117231309Y-112416666D01*
X117231309Y-112416666D02*
X117231309Y-112464285D01*
X117231309Y-112464285D02*
X117207500Y-112535713D01*
X117207500Y-112535713D02*
X117159880Y-112583332D01*
X117159880Y-112583332D02*
X117112261Y-112607142D01*
X117112261Y-112607142D02*
X117017023Y-112630951D01*
X117017023Y-112630951D02*
X116945595Y-112630951D01*
X116945595Y-112630951D02*
X116850357Y-112607142D01*
X116850357Y-112607142D02*
X116802738Y-112583332D01*
X116802738Y-112583332D02*
X116755119Y-112535713D01*
X116755119Y-112535713D02*
X116731309Y-112464285D01*
X116731309Y-112464285D02*
X116731309Y-112416666D01*
X116731309Y-112416666D02*
X116755119Y-112345237D01*
X116755119Y-112345237D02*
X116778928Y-112321428D01*
X117231309Y-111845237D02*
X117231309Y-112130951D01*
X117231309Y-111988094D02*
X116731309Y-111988094D01*
X116731309Y-111988094D02*
X116802738Y-112035713D01*
X116802738Y-112035713D02*
X116850357Y-112083332D01*
X116850357Y-112083332D02*
X116874166Y-112130951D01*
X116731309Y-111535714D02*
X116731309Y-111488095D01*
X116731309Y-111488095D02*
X116755119Y-111440476D01*
X116755119Y-111440476D02*
X116778928Y-111416666D01*
X116778928Y-111416666D02*
X116826547Y-111392857D01*
X116826547Y-111392857D02*
X116921785Y-111369047D01*
X116921785Y-111369047D02*
X117040833Y-111369047D01*
X117040833Y-111369047D02*
X117136071Y-111392857D01*
X117136071Y-111392857D02*
X117183690Y-111416666D01*
X117183690Y-111416666D02*
X117207500Y-111440476D01*
X117207500Y-111440476D02*
X117231309Y-111488095D01*
X117231309Y-111488095D02*
X117231309Y-111535714D01*
X117231309Y-111535714D02*
X117207500Y-111583333D01*
X117207500Y-111583333D02*
X117183690Y-111607142D01*
X117183690Y-111607142D02*
X117136071Y-111630952D01*
X117136071Y-111630952D02*
X117040833Y-111654761D01*
X117040833Y-111654761D02*
X116921785Y-111654761D01*
X116921785Y-111654761D02*
X116826547Y-111630952D01*
X116826547Y-111630952D02*
X116778928Y-111607142D01*
X116778928Y-111607142D02*
X116755119Y-111583333D01*
X116755119Y-111583333D02*
X116731309Y-111535714D01*
X116183690Y-112321428D02*
X116207500Y-112345237D01*
X116207500Y-112345237D02*
X116231309Y-112416666D01*
X116231309Y-112416666D02*
X116231309Y-112464285D01*
X116231309Y-112464285D02*
X116207500Y-112535713D01*
X116207500Y-112535713D02*
X116159880Y-112583332D01*
X116159880Y-112583332D02*
X116112261Y-112607142D01*
X116112261Y-112607142D02*
X116017023Y-112630951D01*
X116017023Y-112630951D02*
X115945595Y-112630951D01*
X115945595Y-112630951D02*
X115850357Y-112607142D01*
X115850357Y-112607142D02*
X115802738Y-112583332D01*
X115802738Y-112583332D02*
X115755119Y-112535713D01*
X115755119Y-112535713D02*
X115731309Y-112464285D01*
X115731309Y-112464285D02*
X115731309Y-112416666D01*
X115731309Y-112416666D02*
X115755119Y-112345237D01*
X115755119Y-112345237D02*
X115778928Y-112321428D01*
X116231309Y-111845237D02*
X116231309Y-112130951D01*
X116231309Y-111988094D02*
X115731309Y-111988094D01*
X115731309Y-111988094D02*
X115802738Y-112035713D01*
X115802738Y-112035713D02*
X115850357Y-112083332D01*
X115850357Y-112083332D02*
X115874166Y-112130951D01*
X116231309Y-111369047D02*
X116231309Y-111654761D01*
X116231309Y-111511904D02*
X115731309Y-111511904D01*
X115731309Y-111511904D02*
X115802738Y-111559523D01*
X115802738Y-111559523D02*
X115850357Y-111607142D01*
X115850357Y-111607142D02*
X115874166Y-111654761D01*
X100933690Y-111571428D02*
X100957500Y-111595237D01*
X100957500Y-111595237D02*
X100981309Y-111666666D01*
X100981309Y-111666666D02*
X100981309Y-111714285D01*
X100981309Y-111714285D02*
X100957500Y-111785713D01*
X100957500Y-111785713D02*
X100909880Y-111833332D01*
X100909880Y-111833332D02*
X100862261Y-111857142D01*
X100862261Y-111857142D02*
X100767023Y-111880951D01*
X100767023Y-111880951D02*
X100695595Y-111880951D01*
X100695595Y-111880951D02*
X100600357Y-111857142D01*
X100600357Y-111857142D02*
X100552738Y-111833332D01*
X100552738Y-111833332D02*
X100505119Y-111785713D01*
X100505119Y-111785713D02*
X100481309Y-111714285D01*
X100481309Y-111714285D02*
X100481309Y-111666666D01*
X100481309Y-111666666D02*
X100505119Y-111595237D01*
X100505119Y-111595237D02*
X100528928Y-111571428D01*
X100981309Y-111095237D02*
X100981309Y-111380951D01*
X100981309Y-111238094D02*
X100481309Y-111238094D01*
X100481309Y-111238094D02*
X100552738Y-111285713D01*
X100552738Y-111285713D02*
X100600357Y-111333332D01*
X100600357Y-111333332D02*
X100624166Y-111380951D01*
X100481309Y-110928571D02*
X100481309Y-110619047D01*
X100481309Y-110619047D02*
X100671785Y-110785714D01*
X100671785Y-110785714D02*
X100671785Y-110714285D01*
X100671785Y-110714285D02*
X100695595Y-110666666D01*
X100695595Y-110666666D02*
X100719404Y-110642857D01*
X100719404Y-110642857D02*
X100767023Y-110619047D01*
X100767023Y-110619047D02*
X100886071Y-110619047D01*
X100886071Y-110619047D02*
X100933690Y-110642857D01*
X100933690Y-110642857D02*
X100957500Y-110666666D01*
X100957500Y-110666666D02*
X100981309Y-110714285D01*
X100981309Y-110714285D02*
X100981309Y-110857142D01*
X100981309Y-110857142D02*
X100957500Y-110904761D01*
X100957500Y-110904761D02*
X100933690Y-110928571D01*
X104678571Y-112433690D02*
X104654762Y-112457500D01*
X104654762Y-112457500D02*
X104583333Y-112481309D01*
X104583333Y-112481309D02*
X104535714Y-112481309D01*
X104535714Y-112481309D02*
X104464286Y-112457500D01*
X104464286Y-112457500D02*
X104416667Y-112409880D01*
X104416667Y-112409880D02*
X104392857Y-112362261D01*
X104392857Y-112362261D02*
X104369048Y-112267023D01*
X104369048Y-112267023D02*
X104369048Y-112195595D01*
X104369048Y-112195595D02*
X104392857Y-112100357D01*
X104392857Y-112100357D02*
X104416667Y-112052738D01*
X104416667Y-112052738D02*
X104464286Y-112005119D01*
X104464286Y-112005119D02*
X104535714Y-111981309D01*
X104535714Y-111981309D02*
X104583333Y-111981309D01*
X104583333Y-111981309D02*
X104654762Y-112005119D01*
X104654762Y-112005119D02*
X104678571Y-112028928D01*
X105154762Y-112481309D02*
X104869048Y-112481309D01*
X105011905Y-112481309D02*
X105011905Y-111981309D01*
X105011905Y-111981309D02*
X104964286Y-112052738D01*
X104964286Y-112052738D02*
X104916667Y-112100357D01*
X104916667Y-112100357D02*
X104869048Y-112124166D01*
X105583333Y-112147976D02*
X105583333Y-112481309D01*
X105464285Y-111957500D02*
X105345238Y-112314642D01*
X105345238Y-112314642D02*
X105654761Y-112314642D01*
X100933690Y-114071428D02*
X100957500Y-114095237D01*
X100957500Y-114095237D02*
X100981309Y-114166666D01*
X100981309Y-114166666D02*
X100981309Y-114214285D01*
X100981309Y-114214285D02*
X100957500Y-114285713D01*
X100957500Y-114285713D02*
X100909880Y-114333332D01*
X100909880Y-114333332D02*
X100862261Y-114357142D01*
X100862261Y-114357142D02*
X100767023Y-114380951D01*
X100767023Y-114380951D02*
X100695595Y-114380951D01*
X100695595Y-114380951D02*
X100600357Y-114357142D01*
X100600357Y-114357142D02*
X100552738Y-114333332D01*
X100552738Y-114333332D02*
X100505119Y-114285713D01*
X100505119Y-114285713D02*
X100481309Y-114214285D01*
X100481309Y-114214285D02*
X100481309Y-114166666D01*
X100481309Y-114166666D02*
X100505119Y-114095237D01*
X100505119Y-114095237D02*
X100528928Y-114071428D01*
X100981309Y-113595237D02*
X100981309Y-113880951D01*
X100981309Y-113738094D02*
X100481309Y-113738094D01*
X100481309Y-113738094D02*
X100552738Y-113785713D01*
X100552738Y-113785713D02*
X100600357Y-113833332D01*
X100600357Y-113833332D02*
X100624166Y-113880951D01*
X100481309Y-113142857D02*
X100481309Y-113380952D01*
X100481309Y-113380952D02*
X100719404Y-113404761D01*
X100719404Y-113404761D02*
X100695595Y-113380952D01*
X100695595Y-113380952D02*
X100671785Y-113333333D01*
X100671785Y-113333333D02*
X100671785Y-113214285D01*
X100671785Y-113214285D02*
X100695595Y-113166666D01*
X100695595Y-113166666D02*
X100719404Y-113142857D01*
X100719404Y-113142857D02*
X100767023Y-113119047D01*
X100767023Y-113119047D02*
X100886071Y-113119047D01*
X100886071Y-113119047D02*
X100933690Y-113142857D01*
X100933690Y-113142857D02*
X100957500Y-113166666D01*
X100957500Y-113166666D02*
X100981309Y-113214285D01*
X100981309Y-113214285D02*
X100981309Y-113333333D01*
X100981309Y-113333333D02*
X100957500Y-113380952D01*
X100957500Y-113380952D02*
X100933690Y-113404761D01*
X130428571Y-104533690D02*
X130404762Y-104557500D01*
X130404762Y-104557500D02*
X130333333Y-104581309D01*
X130333333Y-104581309D02*
X130285714Y-104581309D01*
X130285714Y-104581309D02*
X130214286Y-104557500D01*
X130214286Y-104557500D02*
X130166667Y-104509880D01*
X130166667Y-104509880D02*
X130142857Y-104462261D01*
X130142857Y-104462261D02*
X130119048Y-104367023D01*
X130119048Y-104367023D02*
X130119048Y-104295595D01*
X130119048Y-104295595D02*
X130142857Y-104200357D01*
X130142857Y-104200357D02*
X130166667Y-104152738D01*
X130166667Y-104152738D02*
X130214286Y-104105119D01*
X130214286Y-104105119D02*
X130285714Y-104081309D01*
X130285714Y-104081309D02*
X130333333Y-104081309D01*
X130333333Y-104081309D02*
X130404762Y-104105119D01*
X130404762Y-104105119D02*
X130428571Y-104128928D01*
X130904762Y-104581309D02*
X130619048Y-104581309D01*
X130761905Y-104581309D02*
X130761905Y-104081309D01*
X130761905Y-104081309D02*
X130714286Y-104152738D01*
X130714286Y-104152738D02*
X130666667Y-104200357D01*
X130666667Y-104200357D02*
X130619048Y-104224166D01*
X131071428Y-104081309D02*
X131404761Y-104081309D01*
X131404761Y-104081309D02*
X131190476Y-104581309D01*
X126338571Y-108843690D02*
X126314762Y-108867500D01*
X126314762Y-108867500D02*
X126243333Y-108891309D01*
X126243333Y-108891309D02*
X126195714Y-108891309D01*
X126195714Y-108891309D02*
X126124286Y-108867500D01*
X126124286Y-108867500D02*
X126076667Y-108819880D01*
X126076667Y-108819880D02*
X126052857Y-108772261D01*
X126052857Y-108772261D02*
X126029048Y-108677023D01*
X126029048Y-108677023D02*
X126029048Y-108605595D01*
X126029048Y-108605595D02*
X126052857Y-108510357D01*
X126052857Y-108510357D02*
X126076667Y-108462738D01*
X126076667Y-108462738D02*
X126124286Y-108415119D01*
X126124286Y-108415119D02*
X126195714Y-108391309D01*
X126195714Y-108391309D02*
X126243333Y-108391309D01*
X126243333Y-108391309D02*
X126314762Y-108415119D01*
X126314762Y-108415119D02*
X126338571Y-108438928D01*
X126529048Y-108438928D02*
X126552857Y-108415119D01*
X126552857Y-108415119D02*
X126600476Y-108391309D01*
X126600476Y-108391309D02*
X126719524Y-108391309D01*
X126719524Y-108391309D02*
X126767143Y-108415119D01*
X126767143Y-108415119D02*
X126790952Y-108438928D01*
X126790952Y-108438928D02*
X126814762Y-108486547D01*
X126814762Y-108486547D02*
X126814762Y-108534166D01*
X126814762Y-108534166D02*
X126790952Y-108605595D01*
X126790952Y-108605595D02*
X126505238Y-108891309D01*
X126505238Y-108891309D02*
X126814762Y-108891309D01*
X127124285Y-108391309D02*
X127171904Y-108391309D01*
X127171904Y-108391309D02*
X127219523Y-108415119D01*
X127219523Y-108415119D02*
X127243333Y-108438928D01*
X127243333Y-108438928D02*
X127267142Y-108486547D01*
X127267142Y-108486547D02*
X127290952Y-108581785D01*
X127290952Y-108581785D02*
X127290952Y-108700833D01*
X127290952Y-108700833D02*
X127267142Y-108796071D01*
X127267142Y-108796071D02*
X127243333Y-108843690D01*
X127243333Y-108843690D02*
X127219523Y-108867500D01*
X127219523Y-108867500D02*
X127171904Y-108891309D01*
X127171904Y-108891309D02*
X127124285Y-108891309D01*
X127124285Y-108891309D02*
X127076666Y-108867500D01*
X127076666Y-108867500D02*
X127052857Y-108843690D01*
X127052857Y-108843690D02*
X127029047Y-108796071D01*
X127029047Y-108796071D02*
X127005238Y-108700833D01*
X127005238Y-108700833D02*
X127005238Y-108581785D01*
X127005238Y-108581785D02*
X127029047Y-108486547D01*
X127029047Y-108486547D02*
X127052857Y-108438928D01*
X127052857Y-108438928D02*
X127076666Y-108415119D01*
X127076666Y-108415119D02*
X127124285Y-108391309D01*
X126428571Y-121683690D02*
X126404762Y-121707500D01*
X126404762Y-121707500D02*
X126333333Y-121731309D01*
X126333333Y-121731309D02*
X126285714Y-121731309D01*
X126285714Y-121731309D02*
X126214286Y-121707500D01*
X126214286Y-121707500D02*
X126166667Y-121659880D01*
X126166667Y-121659880D02*
X126142857Y-121612261D01*
X126142857Y-121612261D02*
X126119048Y-121517023D01*
X126119048Y-121517023D02*
X126119048Y-121445595D01*
X126119048Y-121445595D02*
X126142857Y-121350357D01*
X126142857Y-121350357D02*
X126166667Y-121302738D01*
X126166667Y-121302738D02*
X126214286Y-121255119D01*
X126214286Y-121255119D02*
X126285714Y-121231309D01*
X126285714Y-121231309D02*
X126333333Y-121231309D01*
X126333333Y-121231309D02*
X126404762Y-121255119D01*
X126404762Y-121255119D02*
X126428571Y-121278928D01*
X126619048Y-121278928D02*
X126642857Y-121255119D01*
X126642857Y-121255119D02*
X126690476Y-121231309D01*
X126690476Y-121231309D02*
X126809524Y-121231309D01*
X126809524Y-121231309D02*
X126857143Y-121255119D01*
X126857143Y-121255119D02*
X126880952Y-121278928D01*
X126880952Y-121278928D02*
X126904762Y-121326547D01*
X126904762Y-121326547D02*
X126904762Y-121374166D01*
X126904762Y-121374166D02*
X126880952Y-121445595D01*
X126880952Y-121445595D02*
X126595238Y-121731309D01*
X126595238Y-121731309D02*
X126904762Y-121731309D01*
X127380952Y-121731309D02*
X127095238Y-121731309D01*
X127238095Y-121731309D02*
X127238095Y-121231309D01*
X127238095Y-121231309D02*
X127190476Y-121302738D01*
X127190476Y-121302738D02*
X127142857Y-121350357D01*
X127142857Y-121350357D02*
X127095238Y-121374166D01*
X131928571Y-124183690D02*
X131904762Y-124207500D01*
X131904762Y-124207500D02*
X131833333Y-124231309D01*
X131833333Y-124231309D02*
X131785714Y-124231309D01*
X131785714Y-124231309D02*
X131714286Y-124207500D01*
X131714286Y-124207500D02*
X131666667Y-124159880D01*
X131666667Y-124159880D02*
X131642857Y-124112261D01*
X131642857Y-124112261D02*
X131619048Y-124017023D01*
X131619048Y-124017023D02*
X131619048Y-123945595D01*
X131619048Y-123945595D02*
X131642857Y-123850357D01*
X131642857Y-123850357D02*
X131666667Y-123802738D01*
X131666667Y-123802738D02*
X131714286Y-123755119D01*
X131714286Y-123755119D02*
X131785714Y-123731309D01*
X131785714Y-123731309D02*
X131833333Y-123731309D01*
X131833333Y-123731309D02*
X131904762Y-123755119D01*
X131904762Y-123755119D02*
X131928571Y-123778928D01*
X132119048Y-123778928D02*
X132142857Y-123755119D01*
X132142857Y-123755119D02*
X132190476Y-123731309D01*
X132190476Y-123731309D02*
X132309524Y-123731309D01*
X132309524Y-123731309D02*
X132357143Y-123755119D01*
X132357143Y-123755119D02*
X132380952Y-123778928D01*
X132380952Y-123778928D02*
X132404762Y-123826547D01*
X132404762Y-123826547D02*
X132404762Y-123874166D01*
X132404762Y-123874166D02*
X132380952Y-123945595D01*
X132380952Y-123945595D02*
X132095238Y-124231309D01*
X132095238Y-124231309D02*
X132404762Y-124231309D01*
X132595238Y-123778928D02*
X132619047Y-123755119D01*
X132619047Y-123755119D02*
X132666666Y-123731309D01*
X132666666Y-123731309D02*
X132785714Y-123731309D01*
X132785714Y-123731309D02*
X132833333Y-123755119D01*
X132833333Y-123755119D02*
X132857142Y-123778928D01*
X132857142Y-123778928D02*
X132880952Y-123826547D01*
X132880952Y-123826547D02*
X132880952Y-123874166D01*
X132880952Y-123874166D02*
X132857142Y-123945595D01*
X132857142Y-123945595D02*
X132571428Y-124231309D01*
X132571428Y-124231309D02*
X132880952Y-124231309D01*
X131928571Y-125683690D02*
X131904762Y-125707500D01*
X131904762Y-125707500D02*
X131833333Y-125731309D01*
X131833333Y-125731309D02*
X131785714Y-125731309D01*
X131785714Y-125731309D02*
X131714286Y-125707500D01*
X131714286Y-125707500D02*
X131666667Y-125659880D01*
X131666667Y-125659880D02*
X131642857Y-125612261D01*
X131642857Y-125612261D02*
X131619048Y-125517023D01*
X131619048Y-125517023D02*
X131619048Y-125445595D01*
X131619048Y-125445595D02*
X131642857Y-125350357D01*
X131642857Y-125350357D02*
X131666667Y-125302738D01*
X131666667Y-125302738D02*
X131714286Y-125255119D01*
X131714286Y-125255119D02*
X131785714Y-125231309D01*
X131785714Y-125231309D02*
X131833333Y-125231309D01*
X131833333Y-125231309D02*
X131904762Y-125255119D01*
X131904762Y-125255119D02*
X131928571Y-125278928D01*
X132119048Y-125278928D02*
X132142857Y-125255119D01*
X132142857Y-125255119D02*
X132190476Y-125231309D01*
X132190476Y-125231309D02*
X132309524Y-125231309D01*
X132309524Y-125231309D02*
X132357143Y-125255119D01*
X132357143Y-125255119D02*
X132380952Y-125278928D01*
X132380952Y-125278928D02*
X132404762Y-125326547D01*
X132404762Y-125326547D02*
X132404762Y-125374166D01*
X132404762Y-125374166D02*
X132380952Y-125445595D01*
X132380952Y-125445595D02*
X132095238Y-125731309D01*
X132095238Y-125731309D02*
X132404762Y-125731309D01*
X132571428Y-125231309D02*
X132880952Y-125231309D01*
X132880952Y-125231309D02*
X132714285Y-125421785D01*
X132714285Y-125421785D02*
X132785714Y-125421785D01*
X132785714Y-125421785D02*
X132833333Y-125445595D01*
X132833333Y-125445595D02*
X132857142Y-125469404D01*
X132857142Y-125469404D02*
X132880952Y-125517023D01*
X132880952Y-125517023D02*
X132880952Y-125636071D01*
X132880952Y-125636071D02*
X132857142Y-125683690D01*
X132857142Y-125683690D02*
X132833333Y-125707500D01*
X132833333Y-125707500D02*
X132785714Y-125731309D01*
X132785714Y-125731309D02*
X132642857Y-125731309D01*
X132642857Y-125731309D02*
X132595238Y-125707500D01*
X132595238Y-125707500D02*
X132571428Y-125683690D01*
X123528571Y-112023690D02*
X123504762Y-112047500D01*
X123504762Y-112047500D02*
X123433333Y-112071309D01*
X123433333Y-112071309D02*
X123385714Y-112071309D01*
X123385714Y-112071309D02*
X123314286Y-112047500D01*
X123314286Y-112047500D02*
X123266667Y-111999880D01*
X123266667Y-111999880D02*
X123242857Y-111952261D01*
X123242857Y-111952261D02*
X123219048Y-111857023D01*
X123219048Y-111857023D02*
X123219048Y-111785595D01*
X123219048Y-111785595D02*
X123242857Y-111690357D01*
X123242857Y-111690357D02*
X123266667Y-111642738D01*
X123266667Y-111642738D02*
X123314286Y-111595119D01*
X123314286Y-111595119D02*
X123385714Y-111571309D01*
X123385714Y-111571309D02*
X123433333Y-111571309D01*
X123433333Y-111571309D02*
X123504762Y-111595119D01*
X123504762Y-111595119D02*
X123528571Y-111618928D01*
X123719048Y-111618928D02*
X123742857Y-111595119D01*
X123742857Y-111595119D02*
X123790476Y-111571309D01*
X123790476Y-111571309D02*
X123909524Y-111571309D01*
X123909524Y-111571309D02*
X123957143Y-111595119D01*
X123957143Y-111595119D02*
X123980952Y-111618928D01*
X123980952Y-111618928D02*
X124004762Y-111666547D01*
X124004762Y-111666547D02*
X124004762Y-111714166D01*
X124004762Y-111714166D02*
X123980952Y-111785595D01*
X123980952Y-111785595D02*
X123695238Y-112071309D01*
X123695238Y-112071309D02*
X124004762Y-112071309D01*
X124457142Y-111571309D02*
X124219047Y-111571309D01*
X124219047Y-111571309D02*
X124195238Y-111809404D01*
X124195238Y-111809404D02*
X124219047Y-111785595D01*
X124219047Y-111785595D02*
X124266666Y-111761785D01*
X124266666Y-111761785D02*
X124385714Y-111761785D01*
X124385714Y-111761785D02*
X124433333Y-111785595D01*
X124433333Y-111785595D02*
X124457142Y-111809404D01*
X124457142Y-111809404D02*
X124480952Y-111857023D01*
X124480952Y-111857023D02*
X124480952Y-111976071D01*
X124480952Y-111976071D02*
X124457142Y-112023690D01*
X124457142Y-112023690D02*
X124433333Y-112047500D01*
X124433333Y-112047500D02*
X124385714Y-112071309D01*
X124385714Y-112071309D02*
X124266666Y-112071309D01*
X124266666Y-112071309D02*
X124219047Y-112047500D01*
X124219047Y-112047500D02*
X124195238Y-112023690D01*
X129428571Y-117231309D02*
X129261905Y-116993214D01*
X129142857Y-117231309D02*
X129142857Y-116731309D01*
X129142857Y-116731309D02*
X129333333Y-116731309D01*
X129333333Y-116731309D02*
X129380952Y-116755119D01*
X129380952Y-116755119D02*
X129404762Y-116778928D01*
X129404762Y-116778928D02*
X129428571Y-116826547D01*
X129428571Y-116826547D02*
X129428571Y-116897976D01*
X129428571Y-116897976D02*
X129404762Y-116945595D01*
X129404762Y-116945595D02*
X129380952Y-116969404D01*
X129380952Y-116969404D02*
X129333333Y-116993214D01*
X129333333Y-116993214D02*
X129142857Y-116993214D01*
X129904762Y-117231309D02*
X129619048Y-117231309D01*
X129761905Y-117231309D02*
X129761905Y-116731309D01*
X129761905Y-116731309D02*
X129714286Y-116802738D01*
X129714286Y-116802738D02*
X129666667Y-116850357D01*
X129666667Y-116850357D02*
X129619048Y-116874166D01*
X130214285Y-116731309D02*
X130261904Y-116731309D01*
X130261904Y-116731309D02*
X130309523Y-116755119D01*
X130309523Y-116755119D02*
X130333333Y-116778928D01*
X130333333Y-116778928D02*
X130357142Y-116826547D01*
X130357142Y-116826547D02*
X130380952Y-116921785D01*
X130380952Y-116921785D02*
X130380952Y-117040833D01*
X130380952Y-117040833D02*
X130357142Y-117136071D01*
X130357142Y-117136071D02*
X130333333Y-117183690D01*
X130333333Y-117183690D02*
X130309523Y-117207500D01*
X130309523Y-117207500D02*
X130261904Y-117231309D01*
X130261904Y-117231309D02*
X130214285Y-117231309D01*
X130214285Y-117231309D02*
X130166666Y-117207500D01*
X130166666Y-117207500D02*
X130142857Y-117183690D01*
X130142857Y-117183690D02*
X130119047Y-117136071D01*
X130119047Y-117136071D02*
X130095238Y-117040833D01*
X130095238Y-117040833D02*
X130095238Y-116921785D01*
X130095238Y-116921785D02*
X130119047Y-116826547D01*
X130119047Y-116826547D02*
X130142857Y-116778928D01*
X130142857Y-116778928D02*
X130166666Y-116755119D01*
X130166666Y-116755119D02*
X130214285Y-116731309D01*
X130161309Y-115340952D02*
X130566071Y-115340952D01*
X130566071Y-115340952D02*
X130613690Y-115317142D01*
X130613690Y-115317142D02*
X130637500Y-115293333D01*
X130637500Y-115293333D02*
X130661309Y-115245714D01*
X130661309Y-115245714D02*
X130661309Y-115150476D01*
X130661309Y-115150476D02*
X130637500Y-115102857D01*
X130637500Y-115102857D02*
X130613690Y-115079047D01*
X130613690Y-115079047D02*
X130566071Y-115055238D01*
X130566071Y-115055238D02*
X130161309Y-115055238D01*
X130327976Y-114602856D02*
X130661309Y-114602856D01*
X130137500Y-114721904D02*
X130494642Y-114840951D01*
X130494642Y-114840951D02*
X130494642Y-114531428D01*
X117916666Y-109183690D02*
X117892857Y-109207500D01*
X117892857Y-109207500D02*
X117821428Y-109231309D01*
X117821428Y-109231309D02*
X117773809Y-109231309D01*
X117773809Y-109231309D02*
X117702381Y-109207500D01*
X117702381Y-109207500D02*
X117654762Y-109159880D01*
X117654762Y-109159880D02*
X117630952Y-109112261D01*
X117630952Y-109112261D02*
X117607143Y-109017023D01*
X117607143Y-109017023D02*
X117607143Y-108945595D01*
X117607143Y-108945595D02*
X117630952Y-108850357D01*
X117630952Y-108850357D02*
X117654762Y-108802738D01*
X117654762Y-108802738D02*
X117702381Y-108755119D01*
X117702381Y-108755119D02*
X117773809Y-108731309D01*
X117773809Y-108731309D02*
X117821428Y-108731309D01*
X117821428Y-108731309D02*
X117892857Y-108755119D01*
X117892857Y-108755119D02*
X117916666Y-108778928D01*
X118345238Y-108731309D02*
X118250000Y-108731309D01*
X118250000Y-108731309D02*
X118202381Y-108755119D01*
X118202381Y-108755119D02*
X118178571Y-108778928D01*
X118178571Y-108778928D02*
X118130952Y-108850357D01*
X118130952Y-108850357D02*
X118107143Y-108945595D01*
X118107143Y-108945595D02*
X118107143Y-109136071D01*
X118107143Y-109136071D02*
X118130952Y-109183690D01*
X118130952Y-109183690D02*
X118154762Y-109207500D01*
X118154762Y-109207500D02*
X118202381Y-109231309D01*
X118202381Y-109231309D02*
X118297619Y-109231309D01*
X118297619Y-109231309D02*
X118345238Y-109207500D01*
X118345238Y-109207500D02*
X118369047Y-109183690D01*
X118369047Y-109183690D02*
X118392857Y-109136071D01*
X118392857Y-109136071D02*
X118392857Y-109017023D01*
X118392857Y-109017023D02*
X118369047Y-108969404D01*
X118369047Y-108969404D02*
X118345238Y-108945595D01*
X118345238Y-108945595D02*
X118297619Y-108921785D01*
X118297619Y-108921785D02*
X118202381Y-108921785D01*
X118202381Y-108921785D02*
X118154762Y-108945595D01*
X118154762Y-108945595D02*
X118130952Y-108969404D01*
X118130952Y-108969404D02*
X118107143Y-109017023D01*
X130416666Y-102163690D02*
X130392857Y-102187500D01*
X130392857Y-102187500D02*
X130321428Y-102211309D01*
X130321428Y-102211309D02*
X130273809Y-102211309D01*
X130273809Y-102211309D02*
X130202381Y-102187500D01*
X130202381Y-102187500D02*
X130154762Y-102139880D01*
X130154762Y-102139880D02*
X130130952Y-102092261D01*
X130130952Y-102092261D02*
X130107143Y-101997023D01*
X130107143Y-101997023D02*
X130107143Y-101925595D01*
X130107143Y-101925595D02*
X130130952Y-101830357D01*
X130130952Y-101830357D02*
X130154762Y-101782738D01*
X130154762Y-101782738D02*
X130202381Y-101735119D01*
X130202381Y-101735119D02*
X130273809Y-101711309D01*
X130273809Y-101711309D02*
X130321428Y-101711309D01*
X130321428Y-101711309D02*
X130392857Y-101735119D01*
X130392857Y-101735119D02*
X130416666Y-101758928D01*
X130583333Y-101711309D02*
X130916666Y-101711309D01*
X130916666Y-101711309D02*
X130702381Y-102211309D01*
X118183690Y-112083333D02*
X118207500Y-112107142D01*
X118207500Y-112107142D02*
X118231309Y-112178571D01*
X118231309Y-112178571D02*
X118231309Y-112226190D01*
X118231309Y-112226190D02*
X118207500Y-112297618D01*
X118207500Y-112297618D02*
X118159880Y-112345237D01*
X118159880Y-112345237D02*
X118112261Y-112369047D01*
X118112261Y-112369047D02*
X118017023Y-112392856D01*
X118017023Y-112392856D02*
X117945595Y-112392856D01*
X117945595Y-112392856D02*
X117850357Y-112369047D01*
X117850357Y-112369047D02*
X117802738Y-112345237D01*
X117802738Y-112345237D02*
X117755119Y-112297618D01*
X117755119Y-112297618D02*
X117731309Y-112226190D01*
X117731309Y-112226190D02*
X117731309Y-112178571D01*
X117731309Y-112178571D02*
X117755119Y-112107142D01*
X117755119Y-112107142D02*
X117778928Y-112083333D01*
X118231309Y-111845237D02*
X118231309Y-111749999D01*
X118231309Y-111749999D02*
X118207500Y-111702380D01*
X118207500Y-111702380D02*
X118183690Y-111678571D01*
X118183690Y-111678571D02*
X118112261Y-111630952D01*
X118112261Y-111630952D02*
X118017023Y-111607142D01*
X118017023Y-111607142D02*
X117826547Y-111607142D01*
X117826547Y-111607142D02*
X117778928Y-111630952D01*
X117778928Y-111630952D02*
X117755119Y-111654761D01*
X117755119Y-111654761D02*
X117731309Y-111702380D01*
X117731309Y-111702380D02*
X117731309Y-111797618D01*
X117731309Y-111797618D02*
X117755119Y-111845237D01*
X117755119Y-111845237D02*
X117778928Y-111869047D01*
X117778928Y-111869047D02*
X117826547Y-111892856D01*
X117826547Y-111892856D02*
X117945595Y-111892856D01*
X117945595Y-111892856D02*
X117993214Y-111869047D01*
X117993214Y-111869047D02*
X118017023Y-111845237D01*
X118017023Y-111845237D02*
X118040833Y-111797618D01*
X118040833Y-111797618D02*
X118040833Y-111702380D01*
X118040833Y-111702380D02*
X118017023Y-111654761D01*
X118017023Y-111654761D02*
X117993214Y-111630952D01*
X117993214Y-111630952D02*
X117945595Y-111607142D01*
X131678571Y-111433690D02*
X131654762Y-111457500D01*
X131654762Y-111457500D02*
X131583333Y-111481309D01*
X131583333Y-111481309D02*
X131535714Y-111481309D01*
X131535714Y-111481309D02*
X131464286Y-111457500D01*
X131464286Y-111457500D02*
X131416667Y-111409880D01*
X131416667Y-111409880D02*
X131392857Y-111362261D01*
X131392857Y-111362261D02*
X131369048Y-111267023D01*
X131369048Y-111267023D02*
X131369048Y-111195595D01*
X131369048Y-111195595D02*
X131392857Y-111100357D01*
X131392857Y-111100357D02*
X131416667Y-111052738D01*
X131416667Y-111052738D02*
X131464286Y-111005119D01*
X131464286Y-111005119D02*
X131535714Y-110981309D01*
X131535714Y-110981309D02*
X131583333Y-110981309D01*
X131583333Y-110981309D02*
X131654762Y-111005119D01*
X131654762Y-111005119D02*
X131678571Y-111028928D01*
X132154762Y-111481309D02*
X131869048Y-111481309D01*
X132011905Y-111481309D02*
X132011905Y-110981309D01*
X132011905Y-110981309D02*
X131964286Y-111052738D01*
X131964286Y-111052738D02*
X131916667Y-111100357D01*
X131916667Y-111100357D02*
X131869048Y-111124166D01*
X132440476Y-111195595D02*
X132392857Y-111171785D01*
X132392857Y-111171785D02*
X132369047Y-111147976D01*
X132369047Y-111147976D02*
X132345238Y-111100357D01*
X132345238Y-111100357D02*
X132345238Y-111076547D01*
X132345238Y-111076547D02*
X132369047Y-111028928D01*
X132369047Y-111028928D02*
X132392857Y-111005119D01*
X132392857Y-111005119D02*
X132440476Y-110981309D01*
X132440476Y-110981309D02*
X132535714Y-110981309D01*
X132535714Y-110981309D02*
X132583333Y-111005119D01*
X132583333Y-111005119D02*
X132607142Y-111028928D01*
X132607142Y-111028928D02*
X132630952Y-111076547D01*
X132630952Y-111076547D02*
X132630952Y-111100357D01*
X132630952Y-111100357D02*
X132607142Y-111147976D01*
X132607142Y-111147976D02*
X132583333Y-111171785D01*
X132583333Y-111171785D02*
X132535714Y-111195595D01*
X132535714Y-111195595D02*
X132440476Y-111195595D01*
X132440476Y-111195595D02*
X132392857Y-111219404D01*
X132392857Y-111219404D02*
X132369047Y-111243214D01*
X132369047Y-111243214D02*
X132345238Y-111290833D01*
X132345238Y-111290833D02*
X132345238Y-111386071D01*
X132345238Y-111386071D02*
X132369047Y-111433690D01*
X132369047Y-111433690D02*
X132392857Y-111457500D01*
X132392857Y-111457500D02*
X132440476Y-111481309D01*
X132440476Y-111481309D02*
X132535714Y-111481309D01*
X132535714Y-111481309D02*
X132583333Y-111457500D01*
X132583333Y-111457500D02*
X132607142Y-111433690D01*
X132607142Y-111433690D02*
X132630952Y-111386071D01*
X132630952Y-111386071D02*
X132630952Y-111290833D01*
X132630952Y-111290833D02*
X132607142Y-111243214D01*
X132607142Y-111243214D02*
X132583333Y-111219404D01*
X132583333Y-111219404D02*
X132535714Y-111195595D01*
X131928571Y-127183690D02*
X131904762Y-127207500D01*
X131904762Y-127207500D02*
X131833333Y-127231309D01*
X131833333Y-127231309D02*
X131785714Y-127231309D01*
X131785714Y-127231309D02*
X131714286Y-127207500D01*
X131714286Y-127207500D02*
X131666667Y-127159880D01*
X131666667Y-127159880D02*
X131642857Y-127112261D01*
X131642857Y-127112261D02*
X131619048Y-127017023D01*
X131619048Y-127017023D02*
X131619048Y-126945595D01*
X131619048Y-126945595D02*
X131642857Y-126850357D01*
X131642857Y-126850357D02*
X131666667Y-126802738D01*
X131666667Y-126802738D02*
X131714286Y-126755119D01*
X131714286Y-126755119D02*
X131785714Y-126731309D01*
X131785714Y-126731309D02*
X131833333Y-126731309D01*
X131833333Y-126731309D02*
X131904762Y-126755119D01*
X131904762Y-126755119D02*
X131928571Y-126778928D01*
X132119048Y-126778928D02*
X132142857Y-126755119D01*
X132142857Y-126755119D02*
X132190476Y-126731309D01*
X132190476Y-126731309D02*
X132309524Y-126731309D01*
X132309524Y-126731309D02*
X132357143Y-126755119D01*
X132357143Y-126755119D02*
X132380952Y-126778928D01*
X132380952Y-126778928D02*
X132404762Y-126826547D01*
X132404762Y-126826547D02*
X132404762Y-126874166D01*
X132404762Y-126874166D02*
X132380952Y-126945595D01*
X132380952Y-126945595D02*
X132095238Y-127231309D01*
X132095238Y-127231309D02*
X132404762Y-127231309D01*
X132833333Y-126897976D02*
X132833333Y-127231309D01*
X132714285Y-126707500D02*
X132595238Y-127064642D01*
X132595238Y-127064642D02*
X132904761Y-127064642D01*
X125161309Y-119321428D02*
X124923214Y-119488094D01*
X125161309Y-119607142D02*
X124661309Y-119607142D01*
X124661309Y-119607142D02*
X124661309Y-119416666D01*
X124661309Y-119416666D02*
X124685119Y-119369047D01*
X124685119Y-119369047D02*
X124708928Y-119345237D01*
X124708928Y-119345237D02*
X124756547Y-119321428D01*
X124756547Y-119321428D02*
X124827976Y-119321428D01*
X124827976Y-119321428D02*
X124875595Y-119345237D01*
X124875595Y-119345237D02*
X124899404Y-119369047D01*
X124899404Y-119369047D02*
X124923214Y-119416666D01*
X124923214Y-119416666D02*
X124923214Y-119607142D01*
X125161309Y-118845237D02*
X125161309Y-119130951D01*
X125161309Y-118988094D02*
X124661309Y-118988094D01*
X124661309Y-118988094D02*
X124732738Y-119035713D01*
X124732738Y-119035713D02*
X124780357Y-119083332D01*
X124780357Y-119083332D02*
X124804166Y-119130951D01*
X124708928Y-118654761D02*
X124685119Y-118630952D01*
X124685119Y-118630952D02*
X124661309Y-118583333D01*
X124661309Y-118583333D02*
X124661309Y-118464285D01*
X124661309Y-118464285D02*
X124685119Y-118416666D01*
X124685119Y-118416666D02*
X124708928Y-118392857D01*
X124708928Y-118392857D02*
X124756547Y-118369047D01*
X124756547Y-118369047D02*
X124804166Y-118369047D01*
X124804166Y-118369047D02*
X124875595Y-118392857D01*
X124875595Y-118392857D02*
X125161309Y-118678571D01*
X125161309Y-118678571D02*
X125161309Y-118369047D01*
X132341309Y-119301428D02*
X132103214Y-119468094D01*
X132341309Y-119587142D02*
X131841309Y-119587142D01*
X131841309Y-119587142D02*
X131841309Y-119396666D01*
X131841309Y-119396666D02*
X131865119Y-119349047D01*
X131865119Y-119349047D02*
X131888928Y-119325237D01*
X131888928Y-119325237D02*
X131936547Y-119301428D01*
X131936547Y-119301428D02*
X132007976Y-119301428D01*
X132007976Y-119301428D02*
X132055595Y-119325237D01*
X132055595Y-119325237D02*
X132079404Y-119349047D01*
X132079404Y-119349047D02*
X132103214Y-119396666D01*
X132103214Y-119396666D02*
X132103214Y-119587142D01*
X132341309Y-118825237D02*
X132341309Y-119110951D01*
X132341309Y-118968094D02*
X131841309Y-118968094D01*
X131841309Y-118968094D02*
X131912738Y-119015713D01*
X131912738Y-119015713D02*
X131960357Y-119063332D01*
X131960357Y-119063332D02*
X131984166Y-119110951D01*
X132341309Y-118349047D02*
X132341309Y-118634761D01*
X132341309Y-118491904D02*
X131841309Y-118491904D01*
X131841309Y-118491904D02*
X131912738Y-118539523D01*
X131912738Y-118539523D02*
X131960357Y-118587142D01*
X131960357Y-118587142D02*
X131984166Y-118634761D01*
X131678571Y-112433690D02*
X131654762Y-112457500D01*
X131654762Y-112457500D02*
X131583333Y-112481309D01*
X131583333Y-112481309D02*
X131535714Y-112481309D01*
X131535714Y-112481309D02*
X131464286Y-112457500D01*
X131464286Y-112457500D02*
X131416667Y-112409880D01*
X131416667Y-112409880D02*
X131392857Y-112362261D01*
X131392857Y-112362261D02*
X131369048Y-112267023D01*
X131369048Y-112267023D02*
X131369048Y-112195595D01*
X131369048Y-112195595D02*
X131392857Y-112100357D01*
X131392857Y-112100357D02*
X131416667Y-112052738D01*
X131416667Y-112052738D02*
X131464286Y-112005119D01*
X131464286Y-112005119D02*
X131535714Y-111981309D01*
X131535714Y-111981309D02*
X131583333Y-111981309D01*
X131583333Y-111981309D02*
X131654762Y-112005119D01*
X131654762Y-112005119D02*
X131678571Y-112028928D01*
X132154762Y-112481309D02*
X131869048Y-112481309D01*
X132011905Y-112481309D02*
X132011905Y-111981309D01*
X132011905Y-111981309D02*
X131964286Y-112052738D01*
X131964286Y-112052738D02*
X131916667Y-112100357D01*
X131916667Y-112100357D02*
X131869048Y-112124166D01*
X132392857Y-112481309D02*
X132488095Y-112481309D01*
X132488095Y-112481309D02*
X132535714Y-112457500D01*
X132535714Y-112457500D02*
X132559523Y-112433690D01*
X132559523Y-112433690D02*
X132607142Y-112362261D01*
X132607142Y-112362261D02*
X132630952Y-112267023D01*
X132630952Y-112267023D02*
X132630952Y-112076547D01*
X132630952Y-112076547D02*
X132607142Y-112028928D01*
X132607142Y-112028928D02*
X132583333Y-112005119D01*
X132583333Y-112005119D02*
X132535714Y-111981309D01*
X132535714Y-111981309D02*
X132440476Y-111981309D01*
X132440476Y-111981309D02*
X132392857Y-112005119D01*
X132392857Y-112005119D02*
X132369047Y-112028928D01*
X132369047Y-112028928D02*
X132345238Y-112076547D01*
X132345238Y-112076547D02*
X132345238Y-112195595D01*
X132345238Y-112195595D02*
X132369047Y-112243214D01*
X132369047Y-112243214D02*
X132392857Y-112267023D01*
X132392857Y-112267023D02*
X132440476Y-112290833D01*
X132440476Y-112290833D02*
X132535714Y-112290833D01*
X132535714Y-112290833D02*
X132583333Y-112267023D01*
X132583333Y-112267023D02*
X132607142Y-112243214D01*
X132607142Y-112243214D02*
X132630952Y-112195595D01*
X106416666Y-104231309D02*
X106250000Y-103993214D01*
X106130952Y-104231309D02*
X106130952Y-103731309D01*
X106130952Y-103731309D02*
X106321428Y-103731309D01*
X106321428Y-103731309D02*
X106369047Y-103755119D01*
X106369047Y-103755119D02*
X106392857Y-103778928D01*
X106392857Y-103778928D02*
X106416666Y-103826547D01*
X106416666Y-103826547D02*
X106416666Y-103897976D01*
X106416666Y-103897976D02*
X106392857Y-103945595D01*
X106392857Y-103945595D02*
X106369047Y-103969404D01*
X106369047Y-103969404D02*
X106321428Y-103993214D01*
X106321428Y-103993214D02*
X106130952Y-103993214D01*
X106583333Y-103731309D02*
X106916666Y-103731309D01*
X106916666Y-103731309D02*
X106702381Y-104231309D01*
X101231309Y-109083333D02*
X100993214Y-109249999D01*
X101231309Y-109369047D02*
X100731309Y-109369047D01*
X100731309Y-109369047D02*
X100731309Y-109178571D01*
X100731309Y-109178571D02*
X100755119Y-109130952D01*
X100755119Y-109130952D02*
X100778928Y-109107142D01*
X100778928Y-109107142D02*
X100826547Y-109083333D01*
X100826547Y-109083333D02*
X100897976Y-109083333D01*
X100897976Y-109083333D02*
X100945595Y-109107142D01*
X100945595Y-109107142D02*
X100969404Y-109130952D01*
X100969404Y-109130952D02*
X100993214Y-109178571D01*
X100993214Y-109178571D02*
X100993214Y-109369047D01*
X100945595Y-108797618D02*
X100921785Y-108845237D01*
X100921785Y-108845237D02*
X100897976Y-108869047D01*
X100897976Y-108869047D02*
X100850357Y-108892856D01*
X100850357Y-108892856D02*
X100826547Y-108892856D01*
X100826547Y-108892856D02*
X100778928Y-108869047D01*
X100778928Y-108869047D02*
X100755119Y-108845237D01*
X100755119Y-108845237D02*
X100731309Y-108797618D01*
X100731309Y-108797618D02*
X100731309Y-108702380D01*
X100731309Y-108702380D02*
X100755119Y-108654761D01*
X100755119Y-108654761D02*
X100778928Y-108630952D01*
X100778928Y-108630952D02*
X100826547Y-108607142D01*
X100826547Y-108607142D02*
X100850357Y-108607142D01*
X100850357Y-108607142D02*
X100897976Y-108630952D01*
X100897976Y-108630952D02*
X100921785Y-108654761D01*
X100921785Y-108654761D02*
X100945595Y-108702380D01*
X100945595Y-108702380D02*
X100945595Y-108797618D01*
X100945595Y-108797618D02*
X100969404Y-108845237D01*
X100969404Y-108845237D02*
X100993214Y-108869047D01*
X100993214Y-108869047D02*
X101040833Y-108892856D01*
X101040833Y-108892856D02*
X101136071Y-108892856D01*
X101136071Y-108892856D02*
X101183690Y-108869047D01*
X101183690Y-108869047D02*
X101207500Y-108845237D01*
X101207500Y-108845237D02*
X101231309Y-108797618D01*
X101231309Y-108797618D02*
X101231309Y-108702380D01*
X101231309Y-108702380D02*
X101207500Y-108654761D01*
X101207500Y-108654761D02*
X101183690Y-108630952D01*
X101183690Y-108630952D02*
X101136071Y-108607142D01*
X101136071Y-108607142D02*
X101040833Y-108607142D01*
X101040833Y-108607142D02*
X100993214Y-108630952D01*
X100993214Y-108630952D02*
X100969404Y-108654761D01*
X100969404Y-108654761D02*
X100945595Y-108702380D01*
X108369047Y-111731309D02*
X108369047Y-112136071D01*
X108369047Y-112136071D02*
X108392857Y-112183690D01*
X108392857Y-112183690D02*
X108416666Y-112207500D01*
X108416666Y-112207500D02*
X108464285Y-112231309D01*
X108464285Y-112231309D02*
X108559523Y-112231309D01*
X108559523Y-112231309D02*
X108607142Y-112207500D01*
X108607142Y-112207500D02*
X108630952Y-112183690D01*
X108630952Y-112183690D02*
X108654761Y-112136071D01*
X108654761Y-112136071D02*
X108654761Y-111731309D01*
X108845238Y-111731309D02*
X109154762Y-111731309D01*
X109154762Y-111731309D02*
X108988095Y-111921785D01*
X108988095Y-111921785D02*
X109059524Y-111921785D01*
X109059524Y-111921785D02*
X109107143Y-111945595D01*
X109107143Y-111945595D02*
X109130952Y-111969404D01*
X109130952Y-111969404D02*
X109154762Y-112017023D01*
X109154762Y-112017023D02*
X109154762Y-112136071D01*
X109154762Y-112136071D02*
X109130952Y-112183690D01*
X109130952Y-112183690D02*
X109107143Y-112207500D01*
X109107143Y-112207500D02*
X109059524Y-112231309D01*
X109059524Y-112231309D02*
X108916667Y-112231309D01*
X108916667Y-112231309D02*
X108869048Y-112207500D01*
X108869048Y-112207500D02*
X108845238Y-112183690D01*
X101231309Y-107583333D02*
X100993214Y-107749999D01*
X101231309Y-107869047D02*
X100731309Y-107869047D01*
X100731309Y-107869047D02*
X100731309Y-107678571D01*
X100731309Y-107678571D02*
X100755119Y-107630952D01*
X100755119Y-107630952D02*
X100778928Y-107607142D01*
X100778928Y-107607142D02*
X100826547Y-107583333D01*
X100826547Y-107583333D02*
X100897976Y-107583333D01*
X100897976Y-107583333D02*
X100945595Y-107607142D01*
X100945595Y-107607142D02*
X100969404Y-107630952D01*
X100969404Y-107630952D02*
X100993214Y-107678571D01*
X100993214Y-107678571D02*
X100993214Y-107869047D01*
X101231309Y-107345237D02*
X101231309Y-107249999D01*
X101231309Y-107249999D02*
X101207500Y-107202380D01*
X101207500Y-107202380D02*
X101183690Y-107178571D01*
X101183690Y-107178571D02*
X101112261Y-107130952D01*
X101112261Y-107130952D02*
X101017023Y-107107142D01*
X101017023Y-107107142D02*
X100826547Y-107107142D01*
X100826547Y-107107142D02*
X100778928Y-107130952D01*
X100778928Y-107130952D02*
X100755119Y-107154761D01*
X100755119Y-107154761D02*
X100731309Y-107202380D01*
X100731309Y-107202380D02*
X100731309Y-107297618D01*
X100731309Y-107297618D02*
X100755119Y-107345237D01*
X100755119Y-107345237D02*
X100778928Y-107369047D01*
X100778928Y-107369047D02*
X100826547Y-107392856D01*
X100826547Y-107392856D02*
X100945595Y-107392856D01*
X100945595Y-107392856D02*
X100993214Y-107369047D01*
X100993214Y-107369047D02*
X101017023Y-107345237D01*
X101017023Y-107345237D02*
X101040833Y-107297618D01*
X101040833Y-107297618D02*
X101040833Y-107202380D01*
X101040833Y-107202380D02*
X101017023Y-107154761D01*
X101017023Y-107154761D02*
X100993214Y-107130952D01*
X100993214Y-107130952D02*
X100945595Y-107107142D01*
X106178571Y-115683690D02*
X106154762Y-115707500D01*
X106154762Y-115707500D02*
X106083333Y-115731309D01*
X106083333Y-115731309D02*
X106035714Y-115731309D01*
X106035714Y-115731309D02*
X105964286Y-115707500D01*
X105964286Y-115707500D02*
X105916667Y-115659880D01*
X105916667Y-115659880D02*
X105892857Y-115612261D01*
X105892857Y-115612261D02*
X105869048Y-115517023D01*
X105869048Y-115517023D02*
X105869048Y-115445595D01*
X105869048Y-115445595D02*
X105892857Y-115350357D01*
X105892857Y-115350357D02*
X105916667Y-115302738D01*
X105916667Y-115302738D02*
X105964286Y-115255119D01*
X105964286Y-115255119D02*
X106035714Y-115231309D01*
X106035714Y-115231309D02*
X106083333Y-115231309D01*
X106083333Y-115231309D02*
X106154762Y-115255119D01*
X106154762Y-115255119D02*
X106178571Y-115278928D01*
X106654762Y-115731309D02*
X106369048Y-115731309D01*
X106511905Y-115731309D02*
X106511905Y-115231309D01*
X106511905Y-115231309D02*
X106464286Y-115302738D01*
X106464286Y-115302738D02*
X106416667Y-115350357D01*
X106416667Y-115350357D02*
X106369048Y-115374166D01*
X106845238Y-115278928D02*
X106869047Y-115255119D01*
X106869047Y-115255119D02*
X106916666Y-115231309D01*
X106916666Y-115231309D02*
X107035714Y-115231309D01*
X107035714Y-115231309D02*
X107083333Y-115255119D01*
X107083333Y-115255119D02*
X107107142Y-115278928D01*
X107107142Y-115278928D02*
X107130952Y-115326547D01*
X107130952Y-115326547D02*
X107130952Y-115374166D01*
X107130952Y-115374166D02*
X107107142Y-115445595D01*
X107107142Y-115445595D02*
X106821428Y-115731309D01*
X106821428Y-115731309D02*
X107130952Y-115731309D01*
X107178571Y-105933690D02*
X107154762Y-105957500D01*
X107154762Y-105957500D02*
X107083333Y-105981309D01*
X107083333Y-105981309D02*
X107035714Y-105981309D01*
X107035714Y-105981309D02*
X106964286Y-105957500D01*
X106964286Y-105957500D02*
X106916667Y-105909880D01*
X106916667Y-105909880D02*
X106892857Y-105862261D01*
X106892857Y-105862261D02*
X106869048Y-105767023D01*
X106869048Y-105767023D02*
X106869048Y-105695595D01*
X106869048Y-105695595D02*
X106892857Y-105600357D01*
X106892857Y-105600357D02*
X106916667Y-105552738D01*
X106916667Y-105552738D02*
X106964286Y-105505119D01*
X106964286Y-105505119D02*
X107035714Y-105481309D01*
X107035714Y-105481309D02*
X107083333Y-105481309D01*
X107083333Y-105481309D02*
X107154762Y-105505119D01*
X107154762Y-105505119D02*
X107178571Y-105528928D01*
X107654762Y-105981309D02*
X107369048Y-105981309D01*
X107511905Y-105981309D02*
X107511905Y-105481309D01*
X107511905Y-105481309D02*
X107464286Y-105552738D01*
X107464286Y-105552738D02*
X107416667Y-105600357D01*
X107416667Y-105600357D02*
X107369048Y-105624166D01*
X108083333Y-105481309D02*
X107988095Y-105481309D01*
X107988095Y-105481309D02*
X107940476Y-105505119D01*
X107940476Y-105505119D02*
X107916666Y-105528928D01*
X107916666Y-105528928D02*
X107869047Y-105600357D01*
X107869047Y-105600357D02*
X107845238Y-105695595D01*
X107845238Y-105695595D02*
X107845238Y-105886071D01*
X107845238Y-105886071D02*
X107869047Y-105933690D01*
X107869047Y-105933690D02*
X107892857Y-105957500D01*
X107892857Y-105957500D02*
X107940476Y-105981309D01*
X107940476Y-105981309D02*
X108035714Y-105981309D01*
X108035714Y-105981309D02*
X108083333Y-105957500D01*
X108083333Y-105957500D02*
X108107142Y-105933690D01*
X108107142Y-105933690D02*
X108130952Y-105886071D01*
X108130952Y-105886071D02*
X108130952Y-105767023D01*
X108130952Y-105767023D02*
X108107142Y-105719404D01*
X108107142Y-105719404D02*
X108083333Y-105695595D01*
X108083333Y-105695595D02*
X108035714Y-105671785D01*
X108035714Y-105671785D02*
X107940476Y-105671785D01*
X107940476Y-105671785D02*
X107892857Y-105695595D01*
X107892857Y-105695595D02*
X107869047Y-105719404D01*
X107869047Y-105719404D02*
X107845238Y-105767023D01*
X110579047Y-129931309D02*
X110579047Y-130336071D01*
X110579047Y-130336071D02*
X110602857Y-130383690D01*
X110602857Y-130383690D02*
X110626666Y-130407500D01*
X110626666Y-130407500D02*
X110674285Y-130431309D01*
X110674285Y-130431309D02*
X110769523Y-130431309D01*
X110769523Y-130431309D02*
X110817142Y-130407500D01*
X110817142Y-130407500D02*
X110840952Y-130383690D01*
X110840952Y-130383690D02*
X110864761Y-130336071D01*
X110864761Y-130336071D02*
X110864761Y-129931309D01*
X111340952Y-129931309D02*
X111102857Y-129931309D01*
X111102857Y-129931309D02*
X111079048Y-130169404D01*
X111079048Y-130169404D02*
X111102857Y-130145595D01*
X111102857Y-130145595D02*
X111150476Y-130121785D01*
X111150476Y-130121785D02*
X111269524Y-130121785D01*
X111269524Y-130121785D02*
X111317143Y-130145595D01*
X111317143Y-130145595D02*
X111340952Y-130169404D01*
X111340952Y-130169404D02*
X111364762Y-130217023D01*
X111364762Y-130217023D02*
X111364762Y-130336071D01*
X111364762Y-130336071D02*
X111340952Y-130383690D01*
X111340952Y-130383690D02*
X111317143Y-130407500D01*
X111317143Y-130407500D02*
X111269524Y-130431309D01*
X111269524Y-130431309D02*
X111150476Y-130431309D01*
X111150476Y-130431309D02*
X111102857Y-130407500D01*
X111102857Y-130407500D02*
X111079048Y-130383690D01*
X116968571Y-135721309D02*
X116801905Y-135483214D01*
X116682857Y-135721309D02*
X116682857Y-135221309D01*
X116682857Y-135221309D02*
X116873333Y-135221309D01*
X116873333Y-135221309D02*
X116920952Y-135245119D01*
X116920952Y-135245119D02*
X116944762Y-135268928D01*
X116944762Y-135268928D02*
X116968571Y-135316547D01*
X116968571Y-135316547D02*
X116968571Y-135387976D01*
X116968571Y-135387976D02*
X116944762Y-135435595D01*
X116944762Y-135435595D02*
X116920952Y-135459404D01*
X116920952Y-135459404D02*
X116873333Y-135483214D01*
X116873333Y-135483214D02*
X116682857Y-135483214D01*
X117444762Y-135721309D02*
X117159048Y-135721309D01*
X117301905Y-135721309D02*
X117301905Y-135221309D01*
X117301905Y-135221309D02*
X117254286Y-135292738D01*
X117254286Y-135292738D02*
X117206667Y-135340357D01*
X117206667Y-135340357D02*
X117159048Y-135364166D01*
X117611428Y-135221309D02*
X117920952Y-135221309D01*
X117920952Y-135221309D02*
X117754285Y-135411785D01*
X117754285Y-135411785D02*
X117825714Y-135411785D01*
X117825714Y-135411785D02*
X117873333Y-135435595D01*
X117873333Y-135435595D02*
X117897142Y-135459404D01*
X117897142Y-135459404D02*
X117920952Y-135507023D01*
X117920952Y-135507023D02*
X117920952Y-135626071D01*
X117920952Y-135626071D02*
X117897142Y-135673690D01*
X117897142Y-135673690D02*
X117873333Y-135697500D01*
X117873333Y-135697500D02*
X117825714Y-135721309D01*
X117825714Y-135721309D02*
X117682857Y-135721309D01*
X117682857Y-135721309D02*
X117635238Y-135697500D01*
X117635238Y-135697500D02*
X117611428Y-135673690D01*
X121628571Y-128376309D02*
X121461905Y-128138214D01*
X121342857Y-128376309D02*
X121342857Y-127876309D01*
X121342857Y-127876309D02*
X121533333Y-127876309D01*
X121533333Y-127876309D02*
X121580952Y-127900119D01*
X121580952Y-127900119D02*
X121604762Y-127923928D01*
X121604762Y-127923928D02*
X121628571Y-127971547D01*
X121628571Y-127971547D02*
X121628571Y-128042976D01*
X121628571Y-128042976D02*
X121604762Y-128090595D01*
X121604762Y-128090595D02*
X121580952Y-128114404D01*
X121580952Y-128114404D02*
X121533333Y-128138214D01*
X121533333Y-128138214D02*
X121342857Y-128138214D01*
X122104762Y-128376309D02*
X121819048Y-128376309D01*
X121961905Y-128376309D02*
X121961905Y-127876309D01*
X121961905Y-127876309D02*
X121914286Y-127947738D01*
X121914286Y-127947738D02*
X121866667Y-127995357D01*
X121866667Y-127995357D02*
X121819048Y-128019166D01*
X122271428Y-127876309D02*
X122604761Y-127876309D01*
X122604761Y-127876309D02*
X122390476Y-128376309D01*
X128519047Y-134591309D02*
X128519047Y-134996071D01*
X128519047Y-134996071D02*
X128542857Y-135043690D01*
X128542857Y-135043690D02*
X128566666Y-135067500D01*
X128566666Y-135067500D02*
X128614285Y-135091309D01*
X128614285Y-135091309D02*
X128709523Y-135091309D01*
X128709523Y-135091309D02*
X128757142Y-135067500D01*
X128757142Y-135067500D02*
X128780952Y-135043690D01*
X128780952Y-135043690D02*
X128804761Y-134996071D01*
X128804761Y-134996071D02*
X128804761Y-134591309D01*
X129019048Y-134638928D02*
X129042857Y-134615119D01*
X129042857Y-134615119D02*
X129090476Y-134591309D01*
X129090476Y-134591309D02*
X129209524Y-134591309D01*
X129209524Y-134591309D02*
X129257143Y-134615119D01*
X129257143Y-134615119D02*
X129280952Y-134638928D01*
X129280952Y-134638928D02*
X129304762Y-134686547D01*
X129304762Y-134686547D02*
X129304762Y-134734166D01*
X129304762Y-134734166D02*
X129280952Y-134805595D01*
X129280952Y-134805595D02*
X128995238Y-135091309D01*
X128995238Y-135091309D02*
X129304762Y-135091309D01*
X129111309Y-129831428D02*
X128873214Y-129998094D01*
X129111309Y-130117142D02*
X128611309Y-130117142D01*
X128611309Y-130117142D02*
X128611309Y-129926666D01*
X128611309Y-129926666D02*
X128635119Y-129879047D01*
X128635119Y-129879047D02*
X128658928Y-129855237D01*
X128658928Y-129855237D02*
X128706547Y-129831428D01*
X128706547Y-129831428D02*
X128777976Y-129831428D01*
X128777976Y-129831428D02*
X128825595Y-129855237D01*
X128825595Y-129855237D02*
X128849404Y-129879047D01*
X128849404Y-129879047D02*
X128873214Y-129926666D01*
X128873214Y-129926666D02*
X128873214Y-130117142D01*
X129111309Y-129355237D02*
X129111309Y-129640951D01*
X129111309Y-129498094D02*
X128611309Y-129498094D01*
X128611309Y-129498094D02*
X128682738Y-129545713D01*
X128682738Y-129545713D02*
X128730357Y-129593332D01*
X128730357Y-129593332D02*
X128754166Y-129640951D01*
X128825595Y-129069523D02*
X128801785Y-129117142D01*
X128801785Y-129117142D02*
X128777976Y-129140952D01*
X128777976Y-129140952D02*
X128730357Y-129164761D01*
X128730357Y-129164761D02*
X128706547Y-129164761D01*
X128706547Y-129164761D02*
X128658928Y-129140952D01*
X128658928Y-129140952D02*
X128635119Y-129117142D01*
X128635119Y-129117142D02*
X128611309Y-129069523D01*
X128611309Y-129069523D02*
X128611309Y-128974285D01*
X128611309Y-128974285D02*
X128635119Y-128926666D01*
X128635119Y-128926666D02*
X128658928Y-128902857D01*
X128658928Y-128902857D02*
X128706547Y-128879047D01*
X128706547Y-128879047D02*
X128730357Y-128879047D01*
X128730357Y-128879047D02*
X128777976Y-128902857D01*
X128777976Y-128902857D02*
X128801785Y-128926666D01*
X128801785Y-128926666D02*
X128825595Y-128974285D01*
X128825595Y-128974285D02*
X128825595Y-129069523D01*
X128825595Y-129069523D02*
X128849404Y-129117142D01*
X128849404Y-129117142D02*
X128873214Y-129140952D01*
X128873214Y-129140952D02*
X128920833Y-129164761D01*
X128920833Y-129164761D02*
X129016071Y-129164761D01*
X129016071Y-129164761D02*
X129063690Y-129140952D01*
X129063690Y-129140952D02*
X129087500Y-129117142D01*
X129087500Y-129117142D02*
X129111309Y-129069523D01*
X129111309Y-129069523D02*
X129111309Y-128974285D01*
X129111309Y-128974285D02*
X129087500Y-128926666D01*
X129087500Y-128926666D02*
X129063690Y-128902857D01*
X129063690Y-128902857D02*
X129016071Y-128879047D01*
X129016071Y-128879047D02*
X128920833Y-128879047D01*
X128920833Y-128879047D02*
X128873214Y-128902857D01*
X128873214Y-128902857D02*
X128849404Y-128926666D01*
X128849404Y-128926666D02*
X128825595Y-128974285D01*
X104658571Y-135541309D02*
X104491905Y-135303214D01*
X104372857Y-135541309D02*
X104372857Y-135041309D01*
X104372857Y-135041309D02*
X104563333Y-135041309D01*
X104563333Y-135041309D02*
X104610952Y-135065119D01*
X104610952Y-135065119D02*
X104634762Y-135088928D01*
X104634762Y-135088928D02*
X104658571Y-135136547D01*
X104658571Y-135136547D02*
X104658571Y-135207976D01*
X104658571Y-135207976D02*
X104634762Y-135255595D01*
X104634762Y-135255595D02*
X104610952Y-135279404D01*
X104610952Y-135279404D02*
X104563333Y-135303214D01*
X104563333Y-135303214D02*
X104372857Y-135303214D01*
X105134762Y-135541309D02*
X104849048Y-135541309D01*
X104991905Y-135541309D02*
X104991905Y-135041309D01*
X104991905Y-135041309D02*
X104944286Y-135112738D01*
X104944286Y-135112738D02*
X104896667Y-135160357D01*
X104896667Y-135160357D02*
X104849048Y-135184166D01*
X105563333Y-135041309D02*
X105468095Y-135041309D01*
X105468095Y-135041309D02*
X105420476Y-135065119D01*
X105420476Y-135065119D02*
X105396666Y-135088928D01*
X105396666Y-135088928D02*
X105349047Y-135160357D01*
X105349047Y-135160357D02*
X105325238Y-135255595D01*
X105325238Y-135255595D02*
X105325238Y-135446071D01*
X105325238Y-135446071D02*
X105349047Y-135493690D01*
X105349047Y-135493690D02*
X105372857Y-135517500D01*
X105372857Y-135517500D02*
X105420476Y-135541309D01*
X105420476Y-135541309D02*
X105515714Y-135541309D01*
X105515714Y-135541309D02*
X105563333Y-135517500D01*
X105563333Y-135517500D02*
X105587142Y-135493690D01*
X105587142Y-135493690D02*
X105610952Y-135446071D01*
X105610952Y-135446071D02*
X105610952Y-135327023D01*
X105610952Y-135327023D02*
X105587142Y-135279404D01*
X105587142Y-135279404D02*
X105563333Y-135255595D01*
X105563333Y-135255595D02*
X105515714Y-135231785D01*
X105515714Y-135231785D02*
X105420476Y-135231785D01*
X105420476Y-135231785D02*
X105372857Y-135255595D01*
X105372857Y-135255595D02*
X105349047Y-135279404D01*
X105349047Y-135279404D02*
X105325238Y-135327023D01*
X113986071Y-128373690D02*
X113962262Y-128397500D01*
X113962262Y-128397500D02*
X113890833Y-128421309D01*
X113890833Y-128421309D02*
X113843214Y-128421309D01*
X113843214Y-128421309D02*
X113771786Y-128397500D01*
X113771786Y-128397500D02*
X113724167Y-128349880D01*
X113724167Y-128349880D02*
X113700357Y-128302261D01*
X113700357Y-128302261D02*
X113676548Y-128207023D01*
X113676548Y-128207023D02*
X113676548Y-128135595D01*
X113676548Y-128135595D02*
X113700357Y-128040357D01*
X113700357Y-128040357D02*
X113724167Y-127992738D01*
X113724167Y-127992738D02*
X113771786Y-127945119D01*
X113771786Y-127945119D02*
X113843214Y-127921309D01*
X113843214Y-127921309D02*
X113890833Y-127921309D01*
X113890833Y-127921309D02*
X113962262Y-127945119D01*
X113962262Y-127945119D02*
X113986071Y-127968928D01*
X114176548Y-127968928D02*
X114200357Y-127945119D01*
X114200357Y-127945119D02*
X114247976Y-127921309D01*
X114247976Y-127921309D02*
X114367024Y-127921309D01*
X114367024Y-127921309D02*
X114414643Y-127945119D01*
X114414643Y-127945119D02*
X114438452Y-127968928D01*
X114438452Y-127968928D02*
X114462262Y-128016547D01*
X114462262Y-128016547D02*
X114462262Y-128064166D01*
X114462262Y-128064166D02*
X114438452Y-128135595D01*
X114438452Y-128135595D02*
X114152738Y-128421309D01*
X114152738Y-128421309D02*
X114462262Y-128421309D01*
X114890833Y-127921309D02*
X114795595Y-127921309D01*
X114795595Y-127921309D02*
X114747976Y-127945119D01*
X114747976Y-127945119D02*
X114724166Y-127968928D01*
X114724166Y-127968928D02*
X114676547Y-128040357D01*
X114676547Y-128040357D02*
X114652738Y-128135595D01*
X114652738Y-128135595D02*
X114652738Y-128326071D01*
X114652738Y-128326071D02*
X114676547Y-128373690D01*
X114676547Y-128373690D02*
X114700357Y-128397500D01*
X114700357Y-128397500D02*
X114747976Y-128421309D01*
X114747976Y-128421309D02*
X114843214Y-128421309D01*
X114843214Y-128421309D02*
X114890833Y-128397500D01*
X114890833Y-128397500D02*
X114914642Y-128373690D01*
X114914642Y-128373690D02*
X114938452Y-128326071D01*
X114938452Y-128326071D02*
X114938452Y-128207023D01*
X114938452Y-128207023D02*
X114914642Y-128159404D01*
X114914642Y-128159404D02*
X114890833Y-128135595D01*
X114890833Y-128135595D02*
X114843214Y-128111785D01*
X114843214Y-128111785D02*
X114747976Y-128111785D01*
X114747976Y-128111785D02*
X114700357Y-128135595D01*
X114700357Y-128135595D02*
X114676547Y-128159404D01*
X114676547Y-128159404D02*
X114652738Y-128207023D01*
X119008571Y-128351309D02*
X118841905Y-128113214D01*
X118722857Y-128351309D02*
X118722857Y-127851309D01*
X118722857Y-127851309D02*
X118913333Y-127851309D01*
X118913333Y-127851309D02*
X118960952Y-127875119D01*
X118960952Y-127875119D02*
X118984762Y-127898928D01*
X118984762Y-127898928D02*
X119008571Y-127946547D01*
X119008571Y-127946547D02*
X119008571Y-128017976D01*
X119008571Y-128017976D02*
X118984762Y-128065595D01*
X118984762Y-128065595D02*
X118960952Y-128089404D01*
X118960952Y-128089404D02*
X118913333Y-128113214D01*
X118913333Y-128113214D02*
X118722857Y-128113214D01*
X119484762Y-128351309D02*
X119199048Y-128351309D01*
X119341905Y-128351309D02*
X119341905Y-127851309D01*
X119341905Y-127851309D02*
X119294286Y-127922738D01*
X119294286Y-127922738D02*
X119246667Y-127970357D01*
X119246667Y-127970357D02*
X119199048Y-127994166D01*
X119937142Y-127851309D02*
X119699047Y-127851309D01*
X119699047Y-127851309D02*
X119675238Y-128089404D01*
X119675238Y-128089404D02*
X119699047Y-128065595D01*
X119699047Y-128065595D02*
X119746666Y-128041785D01*
X119746666Y-128041785D02*
X119865714Y-128041785D01*
X119865714Y-128041785D02*
X119913333Y-128065595D01*
X119913333Y-128065595D02*
X119937142Y-128089404D01*
X119937142Y-128089404D02*
X119960952Y-128137023D01*
X119960952Y-128137023D02*
X119960952Y-128256071D01*
X119960952Y-128256071D02*
X119937142Y-128303690D01*
X119937142Y-128303690D02*
X119913333Y-128327500D01*
X119913333Y-128327500D02*
X119865714Y-128351309D01*
X119865714Y-128351309D02*
X119746666Y-128351309D01*
X119746666Y-128351309D02*
X119699047Y-128327500D01*
X119699047Y-128327500D02*
X119675238Y-128303690D01*
X106651071Y-128566309D02*
X106484405Y-128328214D01*
X106365357Y-128566309D02*
X106365357Y-128066309D01*
X106365357Y-128066309D02*
X106555833Y-128066309D01*
X106555833Y-128066309D02*
X106603452Y-128090119D01*
X106603452Y-128090119D02*
X106627262Y-128113928D01*
X106627262Y-128113928D02*
X106651071Y-128161547D01*
X106651071Y-128161547D02*
X106651071Y-128232976D01*
X106651071Y-128232976D02*
X106627262Y-128280595D01*
X106627262Y-128280595D02*
X106603452Y-128304404D01*
X106603452Y-128304404D02*
X106555833Y-128328214D01*
X106555833Y-128328214D02*
X106365357Y-128328214D01*
X107127262Y-128566309D02*
X106841548Y-128566309D01*
X106984405Y-128566309D02*
X106984405Y-128066309D01*
X106984405Y-128066309D02*
X106936786Y-128137738D01*
X106936786Y-128137738D02*
X106889167Y-128185357D01*
X106889167Y-128185357D02*
X106841548Y-128209166D01*
X107555833Y-128232976D02*
X107555833Y-128566309D01*
X107436785Y-128042500D02*
X107317738Y-128399642D01*
X107317738Y-128399642D02*
X107627261Y-128399642D01*
D12*
X122490000Y-117162779D02*
X122490000Y-116837221D01*
X123510000Y-117162779D02*
X123510000Y-116837221D01*
X120990000Y-117162779D02*
X120990000Y-116837221D01*
X122010000Y-117162779D02*
X122010000Y-116837221D01*
X113662779Y-126010000D02*
X113337221Y-126010000D01*
X113662779Y-124990000D02*
X113337221Y-124990000D01*
X113662779Y-124510000D02*
X113337221Y-124510000D01*
X113662779Y-123490000D02*
X113337221Y-123490000D01*
D10*
X112000000Y-117475000D02*
X112000000Y-118500000D01*
X113925000Y-117425000D02*
X113925000Y-117475000D01*
X113925000Y-117425000D02*
X118075000Y-117425000D01*
X113925000Y-117475000D02*
X112000000Y-117475000D01*
X113925000Y-122575000D02*
X113925000Y-122430000D01*
X113925000Y-122575000D02*
X118075000Y-122575000D01*
X118075000Y-117425000D02*
X118075000Y-117570000D01*
X118075000Y-122575000D02*
X118075000Y-122430000D01*
D11*
X112100000Y-118100000D02*
G75*
G03*
X112100000Y-118100000I-200000J0D01*
G01*
D12*
X101490000Y-120162779D02*
X101490000Y-119837221D01*
X102510000Y-120162779D02*
X102510000Y-119837221D01*
X121760000Y-120087221D02*
X121760000Y-120412779D01*
X120740000Y-120087221D02*
X120740000Y-120412779D01*
X123260000Y-120087221D02*
X123260000Y-120412779D01*
X122240000Y-120087221D02*
X122240000Y-120412779D01*
X106490000Y-125662779D02*
X106490000Y-125337221D01*
X107510000Y-125662779D02*
X107510000Y-125337221D01*
D13*
X108750000Y-100200000D02*
X126150000Y-100200000D01*
X108750000Y-103600000D02*
X126150000Y-103600000D01*
X108750000Y-105900000D02*
X108750000Y-100200000D01*
X108750000Y-105900000D02*
X126150000Y-105900000D01*
X111250000Y-105400000D02*
X110750000Y-105900000D01*
X111250000Y-105400000D02*
X111750000Y-105900000D01*
X126150000Y-105900000D02*
X126150000Y-100200000D01*
D12*
X112397936Y-107090000D02*
X113602064Y-107090000D01*
X112397936Y-108910000D02*
X113602064Y-108910000D01*
X113510000Y-110837221D02*
X113510000Y-111162779D01*
X112490000Y-110837221D02*
X112490000Y-111162779D01*
X112010000Y-110837221D02*
X112010000Y-111162779D01*
X110990000Y-110837221D02*
X110990000Y-111162779D01*
X102662779Y-111510000D02*
X102337221Y-111510000D01*
X102662779Y-110490000D02*
X102337221Y-110490000D01*
X102662779Y-113010000D02*
X102337221Y-113010000D01*
X102662779Y-111990000D02*
X102337221Y-111990000D01*
X102662779Y-114510000D02*
X102337221Y-114510000D01*
X102662779Y-113490000D02*
X102337221Y-113490000D01*
X129897936Y-105090000D02*
X131102064Y-105090000D01*
X129897936Y-106910000D02*
X131102064Y-106910000D01*
X127662779Y-110510000D02*
X127337221Y-110510000D01*
X127662779Y-109490000D02*
X127337221Y-109490000D01*
X129397936Y-120590000D02*
X130602064Y-120590000D01*
X129397936Y-122410000D02*
X130602064Y-122410000D01*
X128337221Y-123490000D02*
X128662779Y-123490000D01*
X128337221Y-124510000D02*
X128662779Y-124510000D01*
X128337221Y-124990000D02*
X128662779Y-124990000D01*
X128337221Y-126010000D02*
X128662779Y-126010000D01*
X126010000Y-112837221D02*
X126010000Y-113162779D01*
X124990000Y-112837221D02*
X124990000Y-113162779D01*
X126837221Y-116490000D02*
X127162779Y-116490000D01*
X126837221Y-117510000D02*
X127162779Y-117510000D01*
D11*
X129750000Y-111500000D02*
X127250000Y-111500000D01*
X127250000Y-111500000D02*
X127250000Y-115500000D01*
X129750000Y-115500000D02*
X129750000Y-111500000D01*
X127250000Y-115500000D02*
X129750000Y-115500000D01*
X129500000Y-111000000D02*
G75*
G03*
X129500000Y-111000000I-200000J0D01*
G01*
D12*
X117010000Y-108837221D02*
X117010000Y-109162779D01*
X115990000Y-108837221D02*
X115990000Y-109162779D01*
X129510000Y-102837221D02*
X129510000Y-103162779D01*
X128490000Y-102837221D02*
X128490000Y-103162779D01*
X115010000Y-110837221D02*
X115010000Y-111162779D01*
X113990000Y-110837221D02*
X113990000Y-111162779D01*
X130337221Y-107990000D02*
X130662779Y-107990000D01*
X130337221Y-109010000D02*
X130662779Y-109010000D01*
X128337221Y-126490000D02*
X128662779Y-126490000D01*
X128337221Y-127510000D02*
X128662779Y-127510000D01*
X126837221Y-118490000D02*
X127162779Y-118490000D01*
X126837221Y-119510000D02*
X127162779Y-119510000D01*
X129837221Y-118490000D02*
X130162779Y-118490000D01*
X129837221Y-119510000D02*
X130162779Y-119510000D01*
X130337221Y-109490000D02*
X130662779Y-109490000D01*
X130337221Y-110510000D02*
X130662779Y-110510000D01*
X105510000Y-104837221D02*
X105510000Y-105162779D01*
X104490000Y-104837221D02*
X104490000Y-105162779D01*
X103162779Y-109510000D02*
X102837221Y-109510000D01*
X103162779Y-108490000D02*
X102837221Y-108490000D01*
D11*
X109500000Y-111250000D02*
X109500000Y-108750000D01*
X109500000Y-108750000D02*
X105500000Y-108750000D01*
X105500000Y-111250000D02*
X109500000Y-111250000D01*
X105500000Y-108750000D02*
X105500000Y-111250000D01*
X110200000Y-110800000D02*
G75*
G03*
X110200000Y-110800000I-200000J0D01*
G01*
D12*
X102837221Y-106990000D02*
X103162779Y-106990000D01*
X102837221Y-108010000D02*
X103162779Y-108010000D01*
X105897936Y-113090000D02*
X107102064Y-113090000D01*
X105897936Y-114910000D02*
X107102064Y-114910000D01*
X108162779Y-107510000D02*
X107837221Y-107510000D01*
X108162779Y-106490000D02*
X107837221Y-106490000D01*
D14*
X112117500Y-131001000D02*
X115117500Y-131001000D01*
X115117500Y-134069000D02*
X112117500Y-134069000D01*
D15*
X110317500Y-131235000D02*
G75*
G03*
X110317500Y-131235000I-100000J0D01*
G01*
D12*
X118545000Y-134737064D02*
X118545000Y-134282936D01*
X120015000Y-134737064D02*
X120015000Y-134282936D01*
X121397500Y-130507258D02*
X121397500Y-130032742D01*
X122442500Y-130507258D02*
X122442500Y-130032742D01*
D14*
X125030000Y-134030000D02*
X125130000Y-134030000D01*
X128130000Y-134030000D02*
X128030000Y-134030000D01*
X125030000Y-132330000D02*
X125030000Y-134030000D01*
X125030000Y-132330000D02*
X125130000Y-132330000D01*
X128130000Y-132330000D02*
X128130000Y-134030000D01*
X128130000Y-132330000D02*
X128030000Y-132330000D01*
D15*
X125691812Y-135349000D02*
G75*
G03*
X125691812Y-135349000I-61812J0D01*
G01*
D12*
X126947258Y-130042500D02*
X126472742Y-130042500D01*
X126947258Y-128997500D02*
X126472742Y-128997500D01*
X107730000Y-134207936D02*
X107730000Y-134662064D01*
X106260000Y-134207936D02*
X106260000Y-134662064D01*
X115388080Y-130045000D02*
X115106920Y-130045000D01*
X115388080Y-129025000D02*
X115106920Y-129025000D01*
X120015000Y-130262936D02*
X120015000Y-130717064D01*
X118545000Y-130262936D02*
X118545000Y-130717064D01*
X107730000Y-130395436D02*
X107730000Y-130849564D01*
X106260000Y-130395436D02*
X106260000Y-130849564D01*
M02*
