G04 #@! TF.GenerationSoftware,KiCad,Pcbnew,7.0.2*
G04 #@! TF.CreationDate,2023-05-22T10:25:24+09:00*
G04 #@! TF.ProjectId,ATIK_LED_Board_rev01_220517,4154494b-5f4c-4454-945f-426f6172645f,rev?*
G04 #@! TF.SameCoordinates,Original*
G04 #@! TF.FileFunction,Soldermask,Bot*
G04 #@! TF.FilePolarity,Negative*
%FSLAX46Y46*%
G04 Gerber Fmt 4.6, Leading zero omitted, Abs format (unit mm)*
G04 Created by KiCad (PCBNEW 7.0.2) date 2023-05-22 10:25:24*
%MOMM*%
%LPD*%
G01*
G04 APERTURE LIST*
G04 APERTURE END LIST*
G36*
X102045023Y-121704073D02*
G01*
X102083657Y-121704073D01*
X102127240Y-121713336D01*
X102178239Y-121719083D01*
X102215321Y-121732058D01*
X102247306Y-121738857D01*
X102293401Y-121759379D01*
X102347541Y-121778324D01*
X102375719Y-121796029D01*
X102400157Y-121806910D01*
X102445720Y-121840014D01*
X102499415Y-121873753D01*
X102518700Y-121893038D01*
X102535512Y-121905253D01*
X102577076Y-121951414D01*
X102626247Y-122000585D01*
X102637555Y-122018582D01*
X102647467Y-122029590D01*
X102681376Y-122088322D01*
X102721676Y-122152459D01*
X102726707Y-122166838D01*
X102731120Y-122174481D01*
X102753718Y-122244030D01*
X102780917Y-122321761D01*
X102781948Y-122330913D01*
X102782823Y-122333606D01*
X102790751Y-122409044D01*
X102801000Y-122500000D01*
X102790749Y-122590975D01*
X102782823Y-122666393D01*
X102781948Y-122669084D01*
X102780917Y-122678239D01*
X102753713Y-122755982D01*
X102731120Y-122825518D01*
X102726708Y-122833159D01*
X102721676Y-122847541D01*
X102681369Y-122911688D01*
X102647467Y-122970409D01*
X102637557Y-122981414D01*
X102626247Y-122999415D01*
X102577067Y-123048594D01*
X102535512Y-123094746D01*
X102518704Y-123106957D01*
X102499415Y-123126247D01*
X102445710Y-123159992D01*
X102400157Y-123193089D01*
X102375725Y-123203966D01*
X102347541Y-123221676D01*
X102293391Y-123240623D01*
X102247306Y-123261142D01*
X102215327Y-123267939D01*
X102178239Y-123280917D01*
X102127237Y-123286663D01*
X102083657Y-123295927D01*
X102045023Y-123295927D01*
X102000000Y-123301000D01*
X101954977Y-123295927D01*
X101916343Y-123295927D01*
X101872761Y-123286663D01*
X101821761Y-123280917D01*
X101784674Y-123267939D01*
X101752693Y-123261142D01*
X101706603Y-123240622D01*
X101652459Y-123221676D01*
X101624277Y-123203968D01*
X101599842Y-123193089D01*
X101554282Y-123159987D01*
X101500585Y-123126247D01*
X101481298Y-123106960D01*
X101464487Y-123094746D01*
X101422922Y-123048584D01*
X101373753Y-122999415D01*
X101362444Y-122981418D01*
X101352532Y-122970409D01*
X101318618Y-122911668D01*
X101278324Y-122847541D01*
X101273293Y-122833163D01*
X101268879Y-122825518D01*
X101246272Y-122755942D01*
X101219083Y-122678239D01*
X101218052Y-122669089D01*
X101217176Y-122666393D01*
X101209235Y-122590843D01*
X101199000Y-122500000D01*
X101209233Y-122409176D01*
X101217176Y-122333606D01*
X101218052Y-122330909D01*
X101219083Y-122321761D01*
X101246267Y-122244070D01*
X101268879Y-122174481D01*
X101273293Y-122166834D01*
X101278324Y-122152459D01*
X101318611Y-122088342D01*
X101352532Y-122029590D01*
X101362446Y-122018578D01*
X101373753Y-122000585D01*
X101422913Y-121951424D01*
X101464487Y-121905253D01*
X101481301Y-121893036D01*
X101500585Y-121873753D01*
X101554278Y-121840015D01*
X101599846Y-121806908D01*
X101624284Y-121796027D01*
X101652459Y-121778324D01*
X101706587Y-121759383D01*
X101752689Y-121738858D01*
X101784679Y-121732058D01*
X101821761Y-121719083D01*
X101872759Y-121713336D01*
X101916343Y-121704073D01*
X101954977Y-121704073D01*
X102000000Y-121699000D01*
X102045023Y-121704073D01*
G37*
G36*
X107037439Y-121993929D02*
G01*
X107066305Y-121993929D01*
X107099403Y-122002086D01*
X107142609Y-122007775D01*
X107172182Y-122020024D01*
X107195063Y-122025664D01*
X107229752Y-122043870D01*
X107275500Y-122062820D01*
X107296374Y-122078837D01*
X107312483Y-122087292D01*
X107345420Y-122116471D01*
X107389616Y-122150384D01*
X107402174Y-122166751D01*
X107411740Y-122175225D01*
X107439166Y-122214960D01*
X107477180Y-122264500D01*
X107482910Y-122278334D01*
X107487073Y-122284365D01*
X107505132Y-122331984D01*
X107532225Y-122397391D01*
X107533440Y-122406625D01*
X107534097Y-122408356D01*
X107539179Y-122450216D01*
X107551000Y-122540000D01*
X107539177Y-122629799D01*
X107534097Y-122671643D01*
X107533440Y-122673372D01*
X107532225Y-122682609D01*
X107505128Y-122748026D01*
X107487073Y-122795634D01*
X107482911Y-122801663D01*
X107477180Y-122815500D01*
X107439160Y-122865048D01*
X107411740Y-122904774D01*
X107402177Y-122913245D01*
X107389616Y-122929616D01*
X107345411Y-122963534D01*
X107312483Y-122992707D01*
X107296378Y-123001159D01*
X107275500Y-123017180D01*
X107229743Y-123036132D01*
X107195063Y-123054335D01*
X107172187Y-123059973D01*
X107142609Y-123072225D01*
X107099401Y-123077913D01*
X107066305Y-123086071D01*
X107037439Y-123086071D01*
X107000000Y-123091000D01*
X106962561Y-123086071D01*
X106933695Y-123086071D01*
X106900597Y-123077913D01*
X106857391Y-123072225D01*
X106827814Y-123059973D01*
X106804936Y-123054335D01*
X106770251Y-123036130D01*
X106724500Y-123017180D01*
X106703623Y-123001161D01*
X106687516Y-122992707D01*
X106654580Y-122963529D01*
X106610384Y-122929616D01*
X106597824Y-122913248D01*
X106588259Y-122904774D01*
X106560830Y-122865035D01*
X106522820Y-122815500D01*
X106517090Y-122801666D01*
X106512926Y-122795634D01*
X106494859Y-122747998D01*
X106467775Y-122682609D01*
X106466559Y-122673376D01*
X106465902Y-122671643D01*
X106460809Y-122629697D01*
X106449000Y-122540000D01*
X106460807Y-122450310D01*
X106465902Y-122408356D01*
X106466559Y-122406621D01*
X106467775Y-122397391D01*
X106494855Y-122332012D01*
X106512926Y-122284365D01*
X106517091Y-122278330D01*
X106522820Y-122264500D01*
X106560823Y-122214973D01*
X106588259Y-122175225D01*
X106597827Y-122166748D01*
X106610384Y-122150384D01*
X106654572Y-122116477D01*
X106687516Y-122087292D01*
X106703627Y-122078835D01*
X106724500Y-122062820D01*
X106770242Y-122043872D01*
X106804936Y-122025664D01*
X106827818Y-122020024D01*
X106857391Y-122007775D01*
X106900595Y-122002086D01*
X106933695Y-121993929D01*
X106962561Y-121993929D01*
X107000000Y-121989000D01*
X107037439Y-121993929D01*
G37*
G36*
X105787439Y-119453929D02*
G01*
X105816305Y-119453929D01*
X105849403Y-119462086D01*
X105892609Y-119467775D01*
X105922182Y-119480024D01*
X105945063Y-119485664D01*
X105979752Y-119503870D01*
X106025500Y-119522820D01*
X106046374Y-119538837D01*
X106062483Y-119547292D01*
X106095420Y-119576471D01*
X106139616Y-119610384D01*
X106152174Y-119626751D01*
X106161740Y-119635225D01*
X106189166Y-119674960D01*
X106227180Y-119724500D01*
X106232910Y-119738334D01*
X106237073Y-119744365D01*
X106255132Y-119791984D01*
X106282225Y-119857391D01*
X106283440Y-119866625D01*
X106284097Y-119868356D01*
X106289179Y-119910212D01*
X106301000Y-120000000D01*
X106289178Y-120089795D01*
X106284097Y-120131643D01*
X106283440Y-120133372D01*
X106282225Y-120142609D01*
X106255128Y-120208026D01*
X106237073Y-120255634D01*
X106232911Y-120261663D01*
X106227180Y-120275500D01*
X106189160Y-120325048D01*
X106161740Y-120364774D01*
X106152177Y-120373245D01*
X106139616Y-120389616D01*
X106095411Y-120423534D01*
X106062483Y-120452707D01*
X106046378Y-120461159D01*
X106025500Y-120477180D01*
X105979743Y-120496132D01*
X105945063Y-120514335D01*
X105922187Y-120519973D01*
X105892609Y-120532225D01*
X105849401Y-120537913D01*
X105816305Y-120546071D01*
X105787439Y-120546071D01*
X105750000Y-120551000D01*
X105712561Y-120546071D01*
X105683695Y-120546071D01*
X105650597Y-120537913D01*
X105607391Y-120532225D01*
X105577814Y-120519973D01*
X105554936Y-120514335D01*
X105520251Y-120496130D01*
X105474500Y-120477180D01*
X105453623Y-120461161D01*
X105437516Y-120452707D01*
X105404580Y-120423529D01*
X105360384Y-120389616D01*
X105347824Y-120373248D01*
X105338259Y-120364774D01*
X105310830Y-120325035D01*
X105272820Y-120275500D01*
X105267090Y-120261666D01*
X105262926Y-120255634D01*
X105244859Y-120207998D01*
X105217775Y-120142609D01*
X105216559Y-120133376D01*
X105215902Y-120131643D01*
X105210809Y-120089697D01*
X105199000Y-120000000D01*
X105210807Y-119910310D01*
X105215902Y-119868356D01*
X105216559Y-119866621D01*
X105217775Y-119857391D01*
X105244855Y-119792012D01*
X105262926Y-119744365D01*
X105267091Y-119738330D01*
X105272820Y-119724500D01*
X105310823Y-119674973D01*
X105338259Y-119635225D01*
X105347827Y-119626748D01*
X105360384Y-119610384D01*
X105404572Y-119576477D01*
X105437516Y-119547292D01*
X105453627Y-119538835D01*
X105474500Y-119522820D01*
X105520242Y-119503872D01*
X105554936Y-119485664D01*
X105577818Y-119480024D01*
X105607391Y-119467775D01*
X105650595Y-119462086D01*
X105683695Y-119453929D01*
X105712561Y-119453929D01*
X105750000Y-119449000D01*
X105787439Y-119453929D01*
G37*
G36*
X109577439Y-119453929D02*
G01*
X109606305Y-119453929D01*
X109639403Y-119462086D01*
X109682609Y-119467775D01*
X109712182Y-119480024D01*
X109735063Y-119485664D01*
X109769752Y-119503870D01*
X109815500Y-119522820D01*
X109836374Y-119538837D01*
X109852483Y-119547292D01*
X109885420Y-119576471D01*
X109929616Y-119610384D01*
X109942174Y-119626751D01*
X109951740Y-119635225D01*
X109979166Y-119674960D01*
X110017180Y-119724500D01*
X110022910Y-119738334D01*
X110027073Y-119744365D01*
X110045132Y-119791984D01*
X110072225Y-119857391D01*
X110073440Y-119866625D01*
X110074097Y-119868356D01*
X110079179Y-119910212D01*
X110091000Y-120000000D01*
X110079178Y-120089795D01*
X110074097Y-120131643D01*
X110073440Y-120133372D01*
X110072225Y-120142609D01*
X110045128Y-120208026D01*
X110027073Y-120255634D01*
X110022911Y-120261663D01*
X110017180Y-120275500D01*
X109979160Y-120325048D01*
X109951740Y-120364774D01*
X109942177Y-120373245D01*
X109929616Y-120389616D01*
X109885411Y-120423534D01*
X109852483Y-120452707D01*
X109836378Y-120461159D01*
X109815500Y-120477180D01*
X109769743Y-120496132D01*
X109735063Y-120514335D01*
X109712187Y-120519973D01*
X109682609Y-120532225D01*
X109639401Y-120537913D01*
X109606305Y-120546071D01*
X109577439Y-120546071D01*
X109540000Y-120551000D01*
X109502561Y-120546071D01*
X109473695Y-120546071D01*
X109440597Y-120537913D01*
X109397391Y-120532225D01*
X109367814Y-120519973D01*
X109344936Y-120514335D01*
X109310251Y-120496130D01*
X109264500Y-120477180D01*
X109243623Y-120461161D01*
X109227516Y-120452707D01*
X109194580Y-120423529D01*
X109150384Y-120389616D01*
X109137824Y-120373248D01*
X109128259Y-120364774D01*
X109100832Y-120325039D01*
X109062820Y-120275500D01*
X109057089Y-120261664D01*
X109052926Y-120255633D01*
X109034864Y-120208008D01*
X109007775Y-120142609D01*
X109006559Y-120133375D01*
X108981280Y-120066720D01*
X108808720Y-120066720D01*
X108783440Y-120133374D01*
X108782225Y-120142609D01*
X108755127Y-120208029D01*
X108737073Y-120255633D01*
X108732912Y-120261660D01*
X108727180Y-120275500D01*
X108689157Y-120325052D01*
X108661740Y-120364774D01*
X108652177Y-120373245D01*
X108639616Y-120389616D01*
X108595411Y-120423534D01*
X108562483Y-120452707D01*
X108546378Y-120461159D01*
X108525500Y-120477180D01*
X108479743Y-120496132D01*
X108445063Y-120514335D01*
X108422187Y-120519973D01*
X108392609Y-120532225D01*
X108349401Y-120537913D01*
X108316305Y-120546071D01*
X108287439Y-120546071D01*
X108250000Y-120551000D01*
X108212561Y-120546071D01*
X108183695Y-120546071D01*
X108150597Y-120537913D01*
X108107391Y-120532225D01*
X108077814Y-120519973D01*
X108054936Y-120514335D01*
X108020251Y-120496130D01*
X107974500Y-120477180D01*
X107953623Y-120461161D01*
X107937516Y-120452707D01*
X107904580Y-120423529D01*
X107860384Y-120389616D01*
X107847824Y-120373248D01*
X107838259Y-120364774D01*
X107810830Y-120325035D01*
X107772820Y-120275500D01*
X107767090Y-120261666D01*
X107762926Y-120255634D01*
X107744859Y-120207998D01*
X107717775Y-120142609D01*
X107716559Y-120133376D01*
X107715902Y-120131643D01*
X107710809Y-120089697D01*
X107699000Y-120000000D01*
X107710807Y-119910310D01*
X107715902Y-119868356D01*
X107716559Y-119866621D01*
X107717775Y-119857391D01*
X107744855Y-119792012D01*
X107762926Y-119744365D01*
X107767091Y-119738330D01*
X107772820Y-119724500D01*
X107810823Y-119674973D01*
X107838259Y-119635225D01*
X107847827Y-119626748D01*
X107860384Y-119610384D01*
X107904572Y-119576477D01*
X107937516Y-119547292D01*
X107953627Y-119538835D01*
X107974500Y-119522820D01*
X108020242Y-119503872D01*
X108054936Y-119485664D01*
X108077818Y-119480024D01*
X108107391Y-119467775D01*
X108150595Y-119462086D01*
X108183695Y-119453929D01*
X108212561Y-119453929D01*
X108250000Y-119449000D01*
X108287439Y-119453929D01*
X108316305Y-119453929D01*
X108349403Y-119462086D01*
X108392609Y-119467775D01*
X108422182Y-119480024D01*
X108445063Y-119485664D01*
X108479752Y-119503870D01*
X108525500Y-119522820D01*
X108546374Y-119538837D01*
X108562483Y-119547292D01*
X108595420Y-119576471D01*
X108639616Y-119610384D01*
X108652174Y-119626751D01*
X108661740Y-119635225D01*
X108689166Y-119674960D01*
X108727180Y-119724500D01*
X108732910Y-119738334D01*
X108737073Y-119744365D01*
X108755134Y-119791989D01*
X108782225Y-119857391D01*
X108783440Y-119866623D01*
X108808720Y-119933279D01*
X108981280Y-119933279D01*
X109006559Y-119866622D01*
X109007775Y-119857391D01*
X109034856Y-119792010D01*
X109052926Y-119744365D01*
X109057091Y-119738330D01*
X109062820Y-119724500D01*
X109100823Y-119674973D01*
X109128259Y-119635225D01*
X109137827Y-119626748D01*
X109150384Y-119610384D01*
X109194572Y-119576477D01*
X109227516Y-119547292D01*
X109243627Y-119538835D01*
X109264500Y-119522820D01*
X109310242Y-119503872D01*
X109344936Y-119485664D01*
X109367818Y-119480024D01*
X109397391Y-119467775D01*
X109440595Y-119462086D01*
X109473695Y-119453929D01*
X109502561Y-119453929D01*
X109540000Y-119449000D01*
X109577439Y-119453929D01*
G37*
G36*
X102045023Y-116704073D02*
G01*
X102083657Y-116704073D01*
X102127240Y-116713336D01*
X102178239Y-116719083D01*
X102215321Y-116732058D01*
X102247306Y-116738857D01*
X102293401Y-116759379D01*
X102347541Y-116778324D01*
X102375719Y-116796029D01*
X102400157Y-116806910D01*
X102445720Y-116840014D01*
X102499415Y-116873753D01*
X102518700Y-116893038D01*
X102535512Y-116905253D01*
X102577076Y-116951414D01*
X102626247Y-117000585D01*
X102637555Y-117018582D01*
X102647467Y-117029590D01*
X102681376Y-117088322D01*
X102721676Y-117152459D01*
X102726707Y-117166838D01*
X102731120Y-117174481D01*
X102753718Y-117244030D01*
X102780917Y-117321761D01*
X102781948Y-117330913D01*
X102782823Y-117333606D01*
X102790750Y-117409038D01*
X102801000Y-117500000D01*
X102790750Y-117590969D01*
X102782823Y-117666393D01*
X102781948Y-117669084D01*
X102780917Y-117678239D01*
X102753713Y-117755982D01*
X102731120Y-117825518D01*
X102726708Y-117833159D01*
X102721676Y-117847541D01*
X102681369Y-117911688D01*
X102647467Y-117970409D01*
X102637557Y-117981414D01*
X102626247Y-117999415D01*
X102577067Y-118048594D01*
X102535512Y-118094746D01*
X102518704Y-118106957D01*
X102499415Y-118126247D01*
X102445710Y-118159992D01*
X102400157Y-118193089D01*
X102375725Y-118203966D01*
X102347541Y-118221676D01*
X102293391Y-118240623D01*
X102247306Y-118261142D01*
X102215327Y-118267939D01*
X102178239Y-118280917D01*
X102127237Y-118286663D01*
X102083657Y-118295927D01*
X102045023Y-118295927D01*
X102000000Y-118301000D01*
X101954977Y-118295927D01*
X101916343Y-118295927D01*
X101872761Y-118286663D01*
X101821761Y-118280917D01*
X101784674Y-118267939D01*
X101752693Y-118261142D01*
X101706603Y-118240622D01*
X101652459Y-118221676D01*
X101624277Y-118203968D01*
X101599842Y-118193089D01*
X101554282Y-118159987D01*
X101500585Y-118126247D01*
X101481298Y-118106960D01*
X101464487Y-118094746D01*
X101422922Y-118048584D01*
X101373753Y-117999415D01*
X101362444Y-117981418D01*
X101352532Y-117970409D01*
X101318618Y-117911668D01*
X101278324Y-117847541D01*
X101273293Y-117833163D01*
X101268879Y-117825518D01*
X101246272Y-117755942D01*
X101219083Y-117678239D01*
X101218052Y-117669089D01*
X101217176Y-117666393D01*
X101209235Y-117590837D01*
X101199000Y-117500000D01*
X101209234Y-117409170D01*
X101217176Y-117333606D01*
X101218052Y-117330909D01*
X101219083Y-117321761D01*
X101246267Y-117244070D01*
X101268879Y-117174481D01*
X101273293Y-117166834D01*
X101278324Y-117152459D01*
X101318611Y-117088342D01*
X101352532Y-117029590D01*
X101362446Y-117018578D01*
X101373753Y-117000585D01*
X101422913Y-116951424D01*
X101464487Y-116905253D01*
X101481301Y-116893036D01*
X101500585Y-116873753D01*
X101554278Y-116840015D01*
X101599846Y-116806908D01*
X101624284Y-116796027D01*
X101652459Y-116778324D01*
X101706587Y-116759383D01*
X101752689Y-116738858D01*
X101784679Y-116732058D01*
X101821761Y-116719083D01*
X101872759Y-116713336D01*
X101916343Y-116704073D01*
X101954977Y-116704073D01*
X102000000Y-116699000D01*
X102045023Y-116704073D01*
G37*
G36*
X107037439Y-116913929D02*
G01*
X107066305Y-116913929D01*
X107099403Y-116922086D01*
X107142609Y-116927775D01*
X107172182Y-116940024D01*
X107195063Y-116945664D01*
X107229752Y-116963870D01*
X107275500Y-116982820D01*
X107296374Y-116998837D01*
X107312483Y-117007292D01*
X107345420Y-117036471D01*
X107389616Y-117070384D01*
X107402174Y-117086751D01*
X107411740Y-117095225D01*
X107439166Y-117134960D01*
X107477180Y-117184500D01*
X107482910Y-117198334D01*
X107487073Y-117204365D01*
X107505132Y-117251984D01*
X107532225Y-117317391D01*
X107533440Y-117326625D01*
X107534097Y-117328356D01*
X107539179Y-117370212D01*
X107551000Y-117460000D01*
X107539178Y-117549795D01*
X107534097Y-117591643D01*
X107533440Y-117593372D01*
X107532225Y-117602609D01*
X107505128Y-117668026D01*
X107487073Y-117715634D01*
X107482911Y-117721663D01*
X107477180Y-117735500D01*
X107439160Y-117785048D01*
X107411740Y-117824774D01*
X107402177Y-117833245D01*
X107389616Y-117849616D01*
X107345411Y-117883534D01*
X107312483Y-117912707D01*
X107296378Y-117921159D01*
X107275500Y-117937180D01*
X107229743Y-117956132D01*
X107195063Y-117974335D01*
X107172187Y-117979973D01*
X107142609Y-117992225D01*
X107099401Y-117997913D01*
X107066305Y-118006071D01*
X107037439Y-118006071D01*
X107000000Y-118011000D01*
X106962561Y-118006071D01*
X106933695Y-118006071D01*
X106900597Y-117997913D01*
X106857391Y-117992225D01*
X106827814Y-117979973D01*
X106804936Y-117974335D01*
X106770251Y-117956130D01*
X106724500Y-117937180D01*
X106703623Y-117921161D01*
X106687516Y-117912707D01*
X106654580Y-117883529D01*
X106610384Y-117849616D01*
X106597824Y-117833248D01*
X106588259Y-117824774D01*
X106560830Y-117785035D01*
X106522820Y-117735500D01*
X106517090Y-117721666D01*
X106512926Y-117715634D01*
X106494859Y-117667998D01*
X106467775Y-117602609D01*
X106466559Y-117593376D01*
X106465902Y-117591643D01*
X106460809Y-117549701D01*
X106449000Y-117460000D01*
X106460807Y-117370314D01*
X106465902Y-117328356D01*
X106466559Y-117326621D01*
X106467775Y-117317391D01*
X106494855Y-117252012D01*
X106512926Y-117204365D01*
X106517091Y-117198330D01*
X106522820Y-117184500D01*
X106560823Y-117134973D01*
X106588259Y-117095225D01*
X106597827Y-117086748D01*
X106610384Y-117070384D01*
X106654572Y-117036477D01*
X106687516Y-117007292D01*
X106703627Y-116998835D01*
X106724500Y-116982820D01*
X106770242Y-116963872D01*
X106804936Y-116945664D01*
X106827818Y-116940024D01*
X106857391Y-116927775D01*
X106900595Y-116922086D01*
X106933695Y-116913929D01*
X106962561Y-116913929D01*
X107000000Y-116909000D01*
X107037439Y-116913929D01*
G37*
G36*
X111325958Y-103904111D02*
G01*
X111334496Y-103904111D01*
X111387979Y-103917293D01*
X111466410Y-103933964D01*
X111479799Y-103939925D01*
X111498578Y-103944554D01*
X111545465Y-103969162D01*
X111600155Y-103993512D01*
X111621737Y-104009192D01*
X111648213Y-104023088D01*
X111681720Y-104052773D01*
X111718599Y-104079567D01*
X111744757Y-104108618D01*
X111774706Y-104135151D01*
X111794606Y-104163982D01*
X111816563Y-104188367D01*
X111842769Y-104233758D01*
X111870705Y-104274229D01*
X111879451Y-104297292D01*
X111889766Y-104315157D01*
X111910934Y-104380306D01*
X111930630Y-104432240D01*
X111932313Y-104446103D01*
X111935008Y-104454397D01*
X111945875Y-104557793D01*
X111951000Y-104600000D01*
X111945873Y-104642217D01*
X111935008Y-104745602D01*
X111932313Y-104753894D01*
X111930630Y-104767760D01*
X111910932Y-104819699D01*
X111889766Y-104884842D01*
X111879452Y-104902705D01*
X111870705Y-104925771D01*
X111842766Y-104966247D01*
X111816563Y-105011632D01*
X111794609Y-105036013D01*
X111774706Y-105064849D01*
X111744753Y-105091384D01*
X111718599Y-105120432D01*
X111681726Y-105147221D01*
X111648213Y-105176912D01*
X111621732Y-105190809D01*
X111600155Y-105206487D01*
X111545478Y-105230831D01*
X111498578Y-105255446D01*
X111479794Y-105260075D01*
X111466410Y-105266035D01*
X111387992Y-105282703D01*
X111334496Y-105295889D01*
X111325958Y-105295889D01*
X111323201Y-105296475D01*
X111176799Y-105296475D01*
X111174042Y-105295889D01*
X111165504Y-105295889D01*
X111112009Y-105282703D01*
X111033589Y-105266035D01*
X111020203Y-105260075D01*
X111001422Y-105255446D01*
X110954527Y-105230834D01*
X110899844Y-105206487D01*
X110878263Y-105190808D01*
X110851787Y-105176912D01*
X110818277Y-105147225D01*
X110781400Y-105120432D01*
X110755241Y-105091380D01*
X110725294Y-105064849D01*
X110705393Y-105036018D01*
X110683436Y-105011632D01*
X110657227Y-104966238D01*
X110629295Y-104925771D01*
X110620549Y-104902710D01*
X110610233Y-104884842D01*
X110589060Y-104819681D01*
X110569370Y-104767760D01*
X110567686Y-104753899D01*
X110564991Y-104745602D01*
X110554118Y-104642156D01*
X110549000Y-104600000D01*
X110554117Y-104557854D01*
X110564991Y-104454397D01*
X110567687Y-104446099D01*
X110569370Y-104432240D01*
X110589058Y-104380324D01*
X110610233Y-104315157D01*
X110620550Y-104297287D01*
X110629295Y-104274229D01*
X110657224Y-104233766D01*
X110683436Y-104188367D01*
X110705396Y-104163977D01*
X110725294Y-104135151D01*
X110755238Y-104108622D01*
X110781402Y-104079565D01*
X110818287Y-104052766D01*
X110851787Y-104023088D01*
X110878256Y-104009195D01*
X110899842Y-103993513D01*
X110954539Y-103969159D01*
X111001422Y-103944554D01*
X111020198Y-103939925D01*
X111033589Y-103933964D01*
X111112023Y-103917292D01*
X111165504Y-103904111D01*
X111174042Y-103904111D01*
X111176799Y-103903525D01*
X111323201Y-103903525D01*
X111325958Y-103904111D01*
G37*
G36*
X113825958Y-103904111D02*
G01*
X113834496Y-103904111D01*
X113887979Y-103917293D01*
X113966410Y-103933964D01*
X113979799Y-103939925D01*
X113998578Y-103944554D01*
X114045465Y-103969162D01*
X114100155Y-103993512D01*
X114121737Y-104009192D01*
X114148213Y-104023088D01*
X114181720Y-104052773D01*
X114218599Y-104079567D01*
X114244757Y-104108618D01*
X114274706Y-104135151D01*
X114294606Y-104163982D01*
X114316563Y-104188367D01*
X114342769Y-104233758D01*
X114370705Y-104274229D01*
X114379451Y-104297292D01*
X114389766Y-104315157D01*
X114410934Y-104380306D01*
X114430630Y-104432240D01*
X114432313Y-104446103D01*
X114435008Y-104454397D01*
X114445875Y-104557793D01*
X114451000Y-104600000D01*
X114445873Y-104642217D01*
X114435008Y-104745602D01*
X114432313Y-104753894D01*
X114430630Y-104767760D01*
X114410932Y-104819699D01*
X114389766Y-104884842D01*
X114379452Y-104902705D01*
X114370705Y-104925771D01*
X114342766Y-104966247D01*
X114316563Y-105011632D01*
X114294609Y-105036013D01*
X114274706Y-105064849D01*
X114244753Y-105091384D01*
X114218599Y-105120432D01*
X114181726Y-105147221D01*
X114148213Y-105176912D01*
X114121732Y-105190809D01*
X114100155Y-105206487D01*
X114045478Y-105230831D01*
X113998578Y-105255446D01*
X113979794Y-105260075D01*
X113966410Y-105266035D01*
X113887992Y-105282703D01*
X113834496Y-105295889D01*
X113825958Y-105295889D01*
X113823201Y-105296475D01*
X113676799Y-105296475D01*
X113674042Y-105295889D01*
X113665504Y-105295889D01*
X113612009Y-105282703D01*
X113533589Y-105266035D01*
X113520203Y-105260075D01*
X113501422Y-105255446D01*
X113454527Y-105230834D01*
X113399844Y-105206487D01*
X113378263Y-105190808D01*
X113351787Y-105176912D01*
X113318277Y-105147225D01*
X113281400Y-105120432D01*
X113255241Y-105091380D01*
X113225294Y-105064849D01*
X113205393Y-105036018D01*
X113183436Y-105011632D01*
X113157227Y-104966238D01*
X113129295Y-104925771D01*
X113120549Y-104902710D01*
X113110233Y-104884842D01*
X113089060Y-104819681D01*
X113069370Y-104767760D01*
X113067686Y-104753899D01*
X113064991Y-104745602D01*
X113054118Y-104642156D01*
X113049000Y-104600000D01*
X113054117Y-104557854D01*
X113064991Y-104454397D01*
X113067687Y-104446099D01*
X113069370Y-104432240D01*
X113089058Y-104380324D01*
X113110233Y-104315157D01*
X113120550Y-104297287D01*
X113129295Y-104274229D01*
X113157224Y-104233766D01*
X113183436Y-104188367D01*
X113205396Y-104163977D01*
X113225294Y-104135151D01*
X113255238Y-104108622D01*
X113281402Y-104079565D01*
X113318287Y-104052766D01*
X113351787Y-104023088D01*
X113378256Y-104009195D01*
X113399842Y-103993513D01*
X113454539Y-103969159D01*
X113501422Y-103944554D01*
X113520198Y-103939925D01*
X113533589Y-103933964D01*
X113612023Y-103917292D01*
X113665504Y-103904111D01*
X113674042Y-103904111D01*
X113676799Y-103903525D01*
X113823201Y-103903525D01*
X113825958Y-103904111D01*
G37*
G36*
X116325958Y-103904111D02*
G01*
X116334496Y-103904111D01*
X116387979Y-103917293D01*
X116466410Y-103933964D01*
X116479799Y-103939925D01*
X116498578Y-103944554D01*
X116545465Y-103969162D01*
X116600155Y-103993512D01*
X116621737Y-104009192D01*
X116648213Y-104023088D01*
X116681720Y-104052773D01*
X116718599Y-104079567D01*
X116744757Y-104108618D01*
X116774706Y-104135151D01*
X116794606Y-104163982D01*
X116816563Y-104188367D01*
X116842769Y-104233758D01*
X116870705Y-104274229D01*
X116879451Y-104297292D01*
X116889766Y-104315157D01*
X116910934Y-104380306D01*
X116930630Y-104432240D01*
X116932313Y-104446103D01*
X116935008Y-104454397D01*
X116945875Y-104557793D01*
X116951000Y-104600000D01*
X116945873Y-104642217D01*
X116935008Y-104745602D01*
X116932313Y-104753894D01*
X116930630Y-104767760D01*
X116910932Y-104819699D01*
X116889766Y-104884842D01*
X116879452Y-104902705D01*
X116870705Y-104925771D01*
X116842766Y-104966247D01*
X116816563Y-105011632D01*
X116794609Y-105036013D01*
X116774706Y-105064849D01*
X116744753Y-105091384D01*
X116718599Y-105120432D01*
X116681726Y-105147221D01*
X116648213Y-105176912D01*
X116621732Y-105190809D01*
X116600155Y-105206487D01*
X116545478Y-105230831D01*
X116498578Y-105255446D01*
X116479794Y-105260075D01*
X116466410Y-105266035D01*
X116387992Y-105282703D01*
X116334496Y-105295889D01*
X116325958Y-105295889D01*
X116323201Y-105296475D01*
X116176799Y-105296475D01*
X116174042Y-105295889D01*
X116165504Y-105295889D01*
X116112009Y-105282703D01*
X116033589Y-105266035D01*
X116020203Y-105260075D01*
X116001422Y-105255446D01*
X115954527Y-105230834D01*
X115899844Y-105206487D01*
X115878263Y-105190808D01*
X115851787Y-105176912D01*
X115818277Y-105147225D01*
X115781400Y-105120432D01*
X115755241Y-105091380D01*
X115725294Y-105064849D01*
X115705393Y-105036018D01*
X115683436Y-105011632D01*
X115657227Y-104966238D01*
X115629295Y-104925771D01*
X115620549Y-104902710D01*
X115610233Y-104884842D01*
X115589060Y-104819681D01*
X115569370Y-104767760D01*
X115567686Y-104753899D01*
X115564991Y-104745602D01*
X115554118Y-104642156D01*
X115549000Y-104600000D01*
X115554117Y-104557854D01*
X115564991Y-104454397D01*
X115567687Y-104446099D01*
X115569370Y-104432240D01*
X115589058Y-104380324D01*
X115610233Y-104315157D01*
X115620550Y-104297287D01*
X115629295Y-104274229D01*
X115657224Y-104233766D01*
X115683436Y-104188367D01*
X115705396Y-104163977D01*
X115725294Y-104135151D01*
X115755238Y-104108622D01*
X115781402Y-104079565D01*
X115818287Y-104052766D01*
X115851787Y-104023088D01*
X115878256Y-104009195D01*
X115899842Y-103993513D01*
X115954539Y-103969159D01*
X116001422Y-103944554D01*
X116020198Y-103939925D01*
X116033589Y-103933964D01*
X116112023Y-103917292D01*
X116165504Y-103904111D01*
X116174042Y-103904111D01*
X116176799Y-103903525D01*
X116323201Y-103903525D01*
X116325958Y-103904111D01*
G37*
G36*
X118825958Y-103904111D02*
G01*
X118834496Y-103904111D01*
X118887979Y-103917293D01*
X118966410Y-103933964D01*
X118979799Y-103939925D01*
X118998578Y-103944554D01*
X119045465Y-103969162D01*
X119100155Y-103993512D01*
X119121737Y-104009192D01*
X119148213Y-104023088D01*
X119181720Y-104052773D01*
X119218599Y-104079567D01*
X119244757Y-104108618D01*
X119274706Y-104135151D01*
X119294606Y-104163982D01*
X119316563Y-104188367D01*
X119342769Y-104233758D01*
X119370705Y-104274229D01*
X119379451Y-104297292D01*
X119389766Y-104315157D01*
X119410934Y-104380306D01*
X119430630Y-104432240D01*
X119432313Y-104446103D01*
X119435008Y-104454397D01*
X119445874Y-104557788D01*
X119451000Y-104600000D01*
X119445874Y-104642213D01*
X119435008Y-104745602D01*
X119432313Y-104753894D01*
X119430630Y-104767760D01*
X119410932Y-104819699D01*
X119389766Y-104884842D01*
X119379452Y-104902705D01*
X119370705Y-104925771D01*
X119342766Y-104966247D01*
X119316563Y-105011632D01*
X119294609Y-105036013D01*
X119274706Y-105064849D01*
X119244753Y-105091384D01*
X119218599Y-105120432D01*
X119181726Y-105147221D01*
X119148213Y-105176912D01*
X119121732Y-105190809D01*
X119100155Y-105206487D01*
X119045478Y-105230831D01*
X118998578Y-105255446D01*
X118979794Y-105260075D01*
X118966410Y-105266035D01*
X118887992Y-105282703D01*
X118834496Y-105295889D01*
X118825958Y-105295889D01*
X118823201Y-105296475D01*
X118676799Y-105296475D01*
X118674042Y-105295889D01*
X118665504Y-105295889D01*
X118612009Y-105282703D01*
X118533589Y-105266035D01*
X118520203Y-105260075D01*
X118501422Y-105255446D01*
X118454527Y-105230834D01*
X118399844Y-105206487D01*
X118378263Y-105190808D01*
X118351787Y-105176912D01*
X118318277Y-105147225D01*
X118281400Y-105120432D01*
X118255241Y-105091380D01*
X118225294Y-105064849D01*
X118205393Y-105036018D01*
X118183436Y-105011632D01*
X118157227Y-104966238D01*
X118129295Y-104925771D01*
X118120549Y-104902710D01*
X118110233Y-104884842D01*
X118089060Y-104819681D01*
X118069370Y-104767760D01*
X118067686Y-104753899D01*
X118064991Y-104745602D01*
X118054118Y-104642151D01*
X118049000Y-104600000D01*
X118054118Y-104557849D01*
X118064991Y-104454397D01*
X118067687Y-104446099D01*
X118069370Y-104432240D01*
X118089058Y-104380324D01*
X118110233Y-104315157D01*
X118120550Y-104297287D01*
X118129295Y-104274229D01*
X118157224Y-104233766D01*
X118183436Y-104188367D01*
X118205396Y-104163977D01*
X118225294Y-104135151D01*
X118255238Y-104108622D01*
X118281402Y-104079565D01*
X118318287Y-104052766D01*
X118351787Y-104023088D01*
X118378256Y-104009195D01*
X118399842Y-103993513D01*
X118454539Y-103969159D01*
X118501422Y-103944554D01*
X118520198Y-103939925D01*
X118533589Y-103933964D01*
X118612023Y-103917292D01*
X118665504Y-103904111D01*
X118674042Y-103904111D01*
X118676799Y-103903525D01*
X118823201Y-103903525D01*
X118825958Y-103904111D01*
G37*
G36*
X121325958Y-103904111D02*
G01*
X121334496Y-103904111D01*
X121387979Y-103917293D01*
X121466410Y-103933964D01*
X121479799Y-103939925D01*
X121498578Y-103944554D01*
X121545465Y-103969162D01*
X121600155Y-103993512D01*
X121621737Y-104009192D01*
X121648213Y-104023088D01*
X121681720Y-104052773D01*
X121718599Y-104079567D01*
X121744757Y-104108618D01*
X121774706Y-104135151D01*
X121794606Y-104163982D01*
X121816563Y-104188367D01*
X121842769Y-104233758D01*
X121870705Y-104274229D01*
X121879451Y-104297292D01*
X121889766Y-104315157D01*
X121910934Y-104380306D01*
X121930630Y-104432240D01*
X121932313Y-104446103D01*
X121935008Y-104454397D01*
X121945874Y-104557788D01*
X121951000Y-104600000D01*
X121945874Y-104642213D01*
X121935008Y-104745602D01*
X121932313Y-104753894D01*
X121930630Y-104767760D01*
X121910932Y-104819699D01*
X121889766Y-104884842D01*
X121879452Y-104902705D01*
X121870705Y-104925771D01*
X121842766Y-104966247D01*
X121816563Y-105011632D01*
X121794609Y-105036013D01*
X121774706Y-105064849D01*
X121744753Y-105091384D01*
X121718599Y-105120432D01*
X121681726Y-105147221D01*
X121648213Y-105176912D01*
X121621732Y-105190809D01*
X121600155Y-105206487D01*
X121545478Y-105230831D01*
X121498578Y-105255446D01*
X121479794Y-105260075D01*
X121466410Y-105266035D01*
X121387992Y-105282703D01*
X121334496Y-105295889D01*
X121325958Y-105295889D01*
X121323201Y-105296475D01*
X121176799Y-105296475D01*
X121174042Y-105295889D01*
X121165504Y-105295889D01*
X121112009Y-105282703D01*
X121033589Y-105266035D01*
X121020203Y-105260075D01*
X121001422Y-105255446D01*
X120954527Y-105230834D01*
X120899844Y-105206487D01*
X120878263Y-105190808D01*
X120851787Y-105176912D01*
X120818277Y-105147225D01*
X120781400Y-105120432D01*
X120755241Y-105091380D01*
X120725294Y-105064849D01*
X120705393Y-105036018D01*
X120683436Y-105011632D01*
X120657227Y-104966238D01*
X120629295Y-104925771D01*
X120620549Y-104902710D01*
X120610233Y-104884842D01*
X120589060Y-104819681D01*
X120569370Y-104767760D01*
X120567686Y-104753899D01*
X120564991Y-104745602D01*
X120554118Y-104642151D01*
X120549000Y-104600000D01*
X120554118Y-104557849D01*
X120564991Y-104454397D01*
X120567687Y-104446099D01*
X120569370Y-104432240D01*
X120589058Y-104380324D01*
X120610233Y-104315157D01*
X120620550Y-104297287D01*
X120629295Y-104274229D01*
X120657224Y-104233766D01*
X120683436Y-104188367D01*
X120705396Y-104163977D01*
X120725294Y-104135151D01*
X120755238Y-104108622D01*
X120781402Y-104079565D01*
X120818287Y-104052766D01*
X120851787Y-104023088D01*
X120878256Y-104009195D01*
X120899842Y-103993513D01*
X120954539Y-103969159D01*
X121001422Y-103944554D01*
X121020198Y-103939925D01*
X121033589Y-103933964D01*
X121112023Y-103917292D01*
X121165504Y-103904111D01*
X121174042Y-103904111D01*
X121176799Y-103903525D01*
X121323201Y-103903525D01*
X121325958Y-103904111D01*
G37*
G36*
X123825958Y-103904111D02*
G01*
X123834496Y-103904111D01*
X123887979Y-103917293D01*
X123966410Y-103933964D01*
X123979799Y-103939925D01*
X123998578Y-103944554D01*
X124045465Y-103969162D01*
X124100155Y-103993512D01*
X124121737Y-104009192D01*
X124148213Y-104023088D01*
X124181720Y-104052773D01*
X124218599Y-104079567D01*
X124244757Y-104108618D01*
X124274706Y-104135151D01*
X124294606Y-104163982D01*
X124316563Y-104188367D01*
X124342769Y-104233758D01*
X124370705Y-104274229D01*
X124379451Y-104297292D01*
X124389766Y-104315157D01*
X124410934Y-104380306D01*
X124430630Y-104432240D01*
X124432313Y-104446103D01*
X124435008Y-104454397D01*
X124445875Y-104557793D01*
X124451000Y-104600000D01*
X124445873Y-104642217D01*
X124435008Y-104745602D01*
X124432313Y-104753894D01*
X124430630Y-104767760D01*
X124410932Y-104819699D01*
X124389766Y-104884842D01*
X124379452Y-104902705D01*
X124370705Y-104925771D01*
X124342766Y-104966247D01*
X124316563Y-105011632D01*
X124294609Y-105036013D01*
X124274706Y-105064849D01*
X124244753Y-105091384D01*
X124218599Y-105120432D01*
X124181726Y-105147221D01*
X124148213Y-105176912D01*
X124121732Y-105190809D01*
X124100155Y-105206487D01*
X124045478Y-105230831D01*
X123998578Y-105255446D01*
X123979794Y-105260075D01*
X123966410Y-105266035D01*
X123887992Y-105282703D01*
X123834496Y-105295889D01*
X123825958Y-105295889D01*
X123823201Y-105296475D01*
X123676799Y-105296475D01*
X123674042Y-105295889D01*
X123665504Y-105295889D01*
X123612009Y-105282703D01*
X123533589Y-105266035D01*
X123520203Y-105260075D01*
X123501422Y-105255446D01*
X123454527Y-105230834D01*
X123399844Y-105206487D01*
X123378263Y-105190808D01*
X123351787Y-105176912D01*
X123318277Y-105147225D01*
X123281400Y-105120432D01*
X123255241Y-105091380D01*
X123225294Y-105064849D01*
X123205393Y-105036018D01*
X123183436Y-105011632D01*
X123157227Y-104966238D01*
X123129295Y-104925771D01*
X123120549Y-104902710D01*
X123110233Y-104884842D01*
X123089060Y-104819681D01*
X123069370Y-104767760D01*
X123067686Y-104753899D01*
X123064991Y-104745602D01*
X123054118Y-104642156D01*
X123049000Y-104600000D01*
X123054117Y-104557854D01*
X123064991Y-104454397D01*
X123067687Y-104446099D01*
X123069370Y-104432240D01*
X123089058Y-104380324D01*
X123110233Y-104315157D01*
X123120550Y-104297287D01*
X123129295Y-104274229D01*
X123157224Y-104233766D01*
X123183436Y-104188367D01*
X123205396Y-104163977D01*
X123225294Y-104135151D01*
X123255238Y-104108622D01*
X123281402Y-104079565D01*
X123318287Y-104052766D01*
X123351787Y-104023088D01*
X123378256Y-104009195D01*
X123399842Y-103993513D01*
X123454539Y-103969159D01*
X123501422Y-103944554D01*
X123520198Y-103939925D01*
X123533589Y-103933964D01*
X123612023Y-103917292D01*
X123665504Y-103904111D01*
X123674042Y-103904111D01*
X123676799Y-103903525D01*
X123823201Y-103903525D01*
X123825958Y-103904111D01*
G37*
M02*
