G04 #@! TF.GenerationSoftware,KiCad,Pcbnew,7.0.2*
G04 #@! TF.CreationDate,2023-05-22T10:25:24+09:00*
G04 #@! TF.ProjectId,ATIK_LED_Board_rev01_220517,4154494b-5f4c-4454-945f-426f6172645f,rev?*
G04 #@! TF.SameCoordinates,Original*
G04 #@! TF.FileFunction,Soldermask,Top*
G04 #@! TF.FilePolarity,Negative*
%FSLAX46Y46*%
G04 Gerber Fmt 4.6, Leading zero omitted, Abs format (unit mm)*
G04 Created by KiCad (PCBNEW 7.0.2) date 2023-05-22 10:25:24*
%MOMM*%
%LPD*%
G01*
G04 APERTURE LIST*
G04 APERTURE END LIST*
G36*
X107513914Y-134791995D02*
G01*
X107529726Y-134798976D01*
X107537531Y-134800213D01*
X107570039Y-134816776D01*
X107615106Y-134836676D01*
X107693324Y-134914894D01*
X107713226Y-134959967D01*
X107729786Y-134992468D01*
X107731021Y-135000270D01*
X107738005Y-135016086D01*
X107746000Y-135085000D01*
X107746000Y-135610000D01*
X107738005Y-135678914D01*
X107731021Y-135694729D01*
X107729786Y-135702531D01*
X107713229Y-135735024D01*
X107693324Y-135780106D01*
X107615106Y-135858324D01*
X107570024Y-135878229D01*
X107537531Y-135894786D01*
X107529729Y-135896021D01*
X107513914Y-135903005D01*
X107445000Y-135911000D01*
X106545000Y-135911000D01*
X106476086Y-135903005D01*
X106460270Y-135896021D01*
X106452468Y-135894786D01*
X106419967Y-135878226D01*
X106374894Y-135858324D01*
X106296676Y-135780106D01*
X106276776Y-135735039D01*
X106260213Y-135702531D01*
X106258976Y-135694726D01*
X106251995Y-135678914D01*
X106244000Y-135610000D01*
X106244000Y-135085000D01*
X106251995Y-135016086D01*
X106258976Y-135000274D01*
X106260213Y-134992468D01*
X106276780Y-134959953D01*
X106296676Y-134914894D01*
X106374894Y-134836676D01*
X106419953Y-134816780D01*
X106452468Y-134800213D01*
X106460274Y-134798976D01*
X106476086Y-134791995D01*
X106545000Y-134784000D01*
X107445000Y-134784000D01*
X107513914Y-134791995D01*
G37*
G36*
X119798914Y-134866995D02*
G01*
X119814726Y-134873976D01*
X119822531Y-134875213D01*
X119855039Y-134891776D01*
X119900106Y-134911676D01*
X119978324Y-134989894D01*
X119998226Y-135034967D01*
X120014786Y-135067468D01*
X120016021Y-135075270D01*
X120023005Y-135091086D01*
X120031000Y-135160000D01*
X120031000Y-135685000D01*
X120023005Y-135753914D01*
X120016021Y-135769729D01*
X120014786Y-135777531D01*
X119998229Y-135810024D01*
X119978324Y-135855106D01*
X119900106Y-135933324D01*
X119855024Y-135953229D01*
X119822531Y-135969786D01*
X119814729Y-135971021D01*
X119798914Y-135978005D01*
X119730000Y-135986000D01*
X118830000Y-135986000D01*
X118761086Y-135978005D01*
X118745270Y-135971021D01*
X118737468Y-135969786D01*
X118704967Y-135953226D01*
X118659894Y-135933324D01*
X118581676Y-135855106D01*
X118561776Y-135810039D01*
X118545213Y-135777531D01*
X118543976Y-135769726D01*
X118536995Y-135753914D01*
X118529000Y-135685000D01*
X118529000Y-135160000D01*
X118536995Y-135091086D01*
X118543976Y-135075274D01*
X118545213Y-135067468D01*
X118561780Y-135034953D01*
X118581676Y-134989894D01*
X118659894Y-134911676D01*
X118704953Y-134891780D01*
X118737468Y-134875213D01*
X118745274Y-134873976D01*
X118761086Y-134866995D01*
X118830000Y-134859000D01*
X119730000Y-134859000D01*
X119798914Y-134866995D01*
G37*
G36*
X107513914Y-130979495D02*
G01*
X107529726Y-130986476D01*
X107537531Y-130987713D01*
X107570039Y-131004276D01*
X107615106Y-131024176D01*
X107693324Y-131102394D01*
X107713226Y-131147467D01*
X107729786Y-131179968D01*
X107731021Y-131187770D01*
X107738005Y-131203586D01*
X107746000Y-131272500D01*
X107746000Y-131797500D01*
X107738005Y-131866414D01*
X107731021Y-131882229D01*
X107729786Y-131890031D01*
X107713229Y-131922524D01*
X107693324Y-131967606D01*
X107615106Y-132045824D01*
X107570024Y-132065729D01*
X107537531Y-132082286D01*
X107529729Y-132083521D01*
X107513914Y-132090505D01*
X107445000Y-132098500D01*
X106545000Y-132098500D01*
X106476086Y-132090505D01*
X106460270Y-132083521D01*
X106452468Y-132082286D01*
X106419967Y-132065726D01*
X106374894Y-132045824D01*
X106296676Y-131967606D01*
X106276776Y-131922539D01*
X106260213Y-131890031D01*
X106258976Y-131882226D01*
X106251995Y-131866414D01*
X106244000Y-131797500D01*
X106244000Y-131272500D01*
X106251995Y-131203586D01*
X106258976Y-131187774D01*
X106260213Y-131179968D01*
X106276780Y-131147453D01*
X106296676Y-131102394D01*
X106374894Y-131024176D01*
X106419953Y-131004280D01*
X106452468Y-130987713D01*
X106460274Y-130986476D01*
X106476086Y-130979495D01*
X106545000Y-130971500D01*
X107445000Y-130971500D01*
X107513914Y-130979495D01*
G37*
G36*
X112245719Y-131272358D02*
G01*
X112281340Y-131296160D01*
X112305142Y-131331781D01*
X112313500Y-131373800D01*
X112313500Y-131746200D01*
X112305142Y-131788219D01*
X112281340Y-131823840D01*
X112276119Y-131827328D01*
X112262922Y-131847079D01*
X112262922Y-131922916D01*
X112276124Y-131942674D01*
X112281340Y-131946160D01*
X112305142Y-131981781D01*
X112313500Y-132023800D01*
X112313500Y-132396200D01*
X112305142Y-132438219D01*
X112281340Y-132473840D01*
X112276119Y-132477328D01*
X112262922Y-132497079D01*
X112262922Y-132572916D01*
X112276124Y-132592674D01*
X112281340Y-132596160D01*
X112305142Y-132631781D01*
X112313500Y-132673800D01*
X112313500Y-133046200D01*
X112305142Y-133088219D01*
X112281340Y-133123840D01*
X112276121Y-133127327D01*
X112262922Y-133147082D01*
X112262922Y-133222918D01*
X112276121Y-133242673D01*
X112281340Y-133246160D01*
X112305142Y-133281781D01*
X112313500Y-133323800D01*
X112313500Y-133696200D01*
X112305142Y-133738219D01*
X112281340Y-133773840D01*
X112245719Y-133797642D01*
X112203700Y-133806000D01*
X110821300Y-133806000D01*
X110779281Y-133797642D01*
X110743660Y-133773840D01*
X110719858Y-133738219D01*
X110711500Y-133696200D01*
X110711500Y-133323800D01*
X110719858Y-133281781D01*
X110743660Y-133246160D01*
X110748873Y-133242676D01*
X110762077Y-133222915D01*
X110762077Y-133147080D01*
X110748878Y-133127326D01*
X110743660Y-133123840D01*
X110719858Y-133088219D01*
X110711500Y-133046200D01*
X110711500Y-132673800D01*
X110719858Y-132631781D01*
X110743660Y-132596160D01*
X110748875Y-132592675D01*
X110762077Y-132572917D01*
X110762077Y-132497083D01*
X110748875Y-132477324D01*
X110743660Y-132473840D01*
X110719858Y-132438219D01*
X110711500Y-132396200D01*
X110711500Y-132023800D01*
X110719858Y-131981781D01*
X110743660Y-131946160D01*
X110748875Y-131942675D01*
X110762077Y-131922917D01*
X110762077Y-131847083D01*
X110748875Y-131827324D01*
X110743660Y-131823840D01*
X110719858Y-131788219D01*
X110711500Y-131746200D01*
X110711500Y-131373800D01*
X110719858Y-131331781D01*
X110743660Y-131296160D01*
X110779281Y-131272358D01*
X110821300Y-131264000D01*
X112203700Y-131264000D01*
X112245719Y-131272358D01*
G37*
G36*
X116455719Y-131272358D02*
G01*
X116491340Y-131296160D01*
X116515142Y-131331781D01*
X116523500Y-131373800D01*
X116523500Y-131746200D01*
X116515142Y-131788219D01*
X116491340Y-131823840D01*
X116486121Y-131827327D01*
X116472922Y-131847082D01*
X116472922Y-131922918D01*
X116486121Y-131942673D01*
X116491340Y-131946160D01*
X116515142Y-131981781D01*
X116523500Y-132023800D01*
X116523500Y-132396200D01*
X116515142Y-132438219D01*
X116491340Y-132473840D01*
X116486119Y-132477328D01*
X116472922Y-132497079D01*
X116472922Y-132572916D01*
X116486124Y-132592674D01*
X116491340Y-132596160D01*
X116515142Y-132631781D01*
X116523500Y-132673800D01*
X116523500Y-133046200D01*
X116515142Y-133088219D01*
X116491340Y-133123840D01*
X116486119Y-133127328D01*
X116472922Y-133147079D01*
X116472922Y-133222916D01*
X116486124Y-133242674D01*
X116491340Y-133246160D01*
X116515142Y-133281781D01*
X116523500Y-133323800D01*
X116523500Y-133696200D01*
X116515142Y-133738219D01*
X116491340Y-133773840D01*
X116455719Y-133797642D01*
X116413700Y-133806000D01*
X115031300Y-133806000D01*
X114989281Y-133797642D01*
X114953660Y-133773840D01*
X114929858Y-133738219D01*
X114921500Y-133696200D01*
X114921500Y-133323800D01*
X114929858Y-133281781D01*
X114953660Y-133246160D01*
X114958875Y-133242675D01*
X114972077Y-133222917D01*
X114972077Y-133147083D01*
X114958875Y-133127324D01*
X114953660Y-133123840D01*
X114929858Y-133088219D01*
X114921500Y-133046200D01*
X114921500Y-132673800D01*
X114929858Y-132631781D01*
X114953660Y-132596160D01*
X114958873Y-132592676D01*
X114972077Y-132572915D01*
X114972077Y-132497080D01*
X114958878Y-132477326D01*
X114953660Y-132473840D01*
X114929858Y-132438219D01*
X114921500Y-132396200D01*
X114921500Y-132023800D01*
X114929858Y-131981781D01*
X114953660Y-131946160D01*
X114958873Y-131942676D01*
X114972077Y-131922915D01*
X114972077Y-131847080D01*
X114958878Y-131827326D01*
X114953660Y-131823840D01*
X114929858Y-131788219D01*
X114921500Y-131746200D01*
X114921500Y-131373800D01*
X114929858Y-131331781D01*
X114953660Y-131296160D01*
X114989281Y-131272358D01*
X115031300Y-131264000D01*
X116413700Y-131264000D01*
X116455719Y-131272358D01*
G37*
G36*
X119798914Y-133041995D02*
G01*
X119814726Y-133048976D01*
X119822531Y-133050213D01*
X119855039Y-133066776D01*
X119900106Y-133086676D01*
X119978324Y-133164894D01*
X119998226Y-133209967D01*
X120014786Y-133242468D01*
X120016021Y-133250270D01*
X120023005Y-133266086D01*
X120031000Y-133335000D01*
X120031000Y-133860000D01*
X120023005Y-133928914D01*
X120016021Y-133944729D01*
X120014786Y-133952531D01*
X119998229Y-133985024D01*
X119978324Y-134030106D01*
X119900106Y-134108324D01*
X119855024Y-134128229D01*
X119822531Y-134144786D01*
X119814729Y-134146021D01*
X119798914Y-134153005D01*
X119730000Y-134161000D01*
X118830000Y-134161000D01*
X118761086Y-134153005D01*
X118745270Y-134146021D01*
X118737468Y-134144786D01*
X118704967Y-134128226D01*
X118659894Y-134108324D01*
X118581676Y-134030106D01*
X118561776Y-133985039D01*
X118545213Y-133952531D01*
X118543976Y-133944726D01*
X118536995Y-133928914D01*
X118529000Y-133860000D01*
X118529000Y-133335000D01*
X118536995Y-133266086D01*
X118543976Y-133250274D01*
X118545213Y-133242468D01*
X118561780Y-133209953D01*
X118581676Y-133164894D01*
X118659894Y-133086676D01*
X118704953Y-133066780D01*
X118737468Y-133050213D01*
X118745274Y-133048976D01*
X118761086Y-133041995D01*
X118830000Y-133034000D01*
X119730000Y-133034000D01*
X119798914Y-133041995D01*
G37*
G36*
X125908095Y-133627373D02*
G01*
X125943782Y-133651218D01*
X125967627Y-133686905D01*
X125976000Y-133729000D01*
X125976000Y-134981000D01*
X125967627Y-135023095D01*
X125943782Y-135058782D01*
X125908095Y-135082627D01*
X125866000Y-135091000D01*
X125394000Y-135091000D01*
X125351905Y-135082627D01*
X125316218Y-135058782D01*
X125292373Y-135023095D01*
X125284000Y-134981000D01*
X125284000Y-133729000D01*
X125292373Y-133686905D01*
X125316218Y-133651218D01*
X125351905Y-133627373D01*
X125394000Y-133619000D01*
X125866000Y-133619000D01*
X125908095Y-133627373D01*
G37*
G36*
X126858095Y-133627373D02*
G01*
X126893782Y-133651218D01*
X126917627Y-133686905D01*
X126926000Y-133729000D01*
X126926000Y-134981000D01*
X126917627Y-135023095D01*
X126893782Y-135058782D01*
X126858095Y-135082627D01*
X126816000Y-135091000D01*
X126344000Y-135091000D01*
X126301905Y-135082627D01*
X126266218Y-135058782D01*
X126242373Y-135023095D01*
X126234000Y-134981000D01*
X126234000Y-133729000D01*
X126242373Y-133686905D01*
X126266218Y-133651218D01*
X126301905Y-133627373D01*
X126344000Y-133619000D01*
X126816000Y-133619000D01*
X126858095Y-133627373D01*
G37*
G36*
X127808095Y-133627373D02*
G01*
X127843782Y-133651218D01*
X127867627Y-133686905D01*
X127876000Y-133729000D01*
X127876000Y-134981000D01*
X127867627Y-135023095D01*
X127843782Y-135058782D01*
X127808095Y-135082627D01*
X127766000Y-135091000D01*
X127294000Y-135091000D01*
X127251905Y-135082627D01*
X127216218Y-135058782D01*
X127192373Y-135023095D01*
X127184000Y-134981000D01*
X127184000Y-133729000D01*
X127192373Y-133686905D01*
X127216218Y-133651218D01*
X127251905Y-133627373D01*
X127294000Y-133619000D01*
X127766000Y-133619000D01*
X127808095Y-133627373D01*
G37*
G36*
X107513914Y-132966995D02*
G01*
X107529726Y-132973976D01*
X107537531Y-132975213D01*
X107570039Y-132991776D01*
X107615106Y-133011676D01*
X107693324Y-133089894D01*
X107713226Y-133134967D01*
X107729786Y-133167468D01*
X107731021Y-133175270D01*
X107738005Y-133191086D01*
X107746000Y-133260000D01*
X107746000Y-133785000D01*
X107738005Y-133853914D01*
X107731021Y-133869729D01*
X107729786Y-133877531D01*
X107713229Y-133910024D01*
X107693324Y-133955106D01*
X107615106Y-134033324D01*
X107570024Y-134053229D01*
X107537531Y-134069786D01*
X107529729Y-134071021D01*
X107513914Y-134078005D01*
X107445000Y-134086000D01*
X106545000Y-134086000D01*
X106476086Y-134078005D01*
X106460270Y-134071021D01*
X106452468Y-134069786D01*
X106419967Y-134053226D01*
X106374894Y-134033324D01*
X106296676Y-133955106D01*
X106276776Y-133910039D01*
X106260213Y-133877531D01*
X106258976Y-133869726D01*
X106251995Y-133853914D01*
X106244000Y-133785000D01*
X106244000Y-133260000D01*
X106251995Y-133191086D01*
X106258976Y-133175274D01*
X106260213Y-133167468D01*
X106276780Y-133134953D01*
X106296676Y-133089894D01*
X106374894Y-133011676D01*
X106419953Y-132991780D01*
X106452468Y-132975213D01*
X106460274Y-132973976D01*
X106476086Y-132966995D01*
X106545000Y-132959000D01*
X107445000Y-132959000D01*
X107513914Y-132966995D01*
G37*
G36*
X122219793Y-130648931D02*
G01*
X122264933Y-130655508D01*
X122273217Y-130659558D01*
X122291054Y-130663106D01*
X122319897Y-130682378D01*
X122339844Y-130692130D01*
X122350622Y-130702908D01*
X122372484Y-130717516D01*
X122387091Y-130739377D01*
X122397869Y-130750155D01*
X122407619Y-130770099D01*
X122426894Y-130798946D01*
X122430442Y-130816783D01*
X122434491Y-130825066D01*
X122441065Y-130870190D01*
X122446000Y-130895000D01*
X122446000Y-131295000D01*
X122441064Y-131319812D01*
X122434491Y-131364933D01*
X122430442Y-131373214D01*
X122426894Y-131391054D01*
X122407617Y-131419903D01*
X122397869Y-131439844D01*
X122387093Y-131450619D01*
X122372484Y-131472484D01*
X122350619Y-131487093D01*
X122339844Y-131497869D01*
X122319903Y-131507617D01*
X122291054Y-131526894D01*
X122273214Y-131530442D01*
X122264933Y-131534491D01*
X122219812Y-131541064D01*
X122195000Y-131546000D01*
X121645000Y-131546000D01*
X121620190Y-131541065D01*
X121575066Y-131534491D01*
X121566783Y-131530442D01*
X121548946Y-131526894D01*
X121520099Y-131507619D01*
X121500155Y-131497869D01*
X121489377Y-131487091D01*
X121467516Y-131472484D01*
X121452908Y-131450622D01*
X121442130Y-131439844D01*
X121432378Y-131419897D01*
X121413106Y-131391054D01*
X121409558Y-131373217D01*
X121405508Y-131364933D01*
X121398931Y-131319793D01*
X121394000Y-131295000D01*
X121394000Y-130895000D01*
X121398931Y-130870209D01*
X121405508Y-130825066D01*
X121409558Y-130816780D01*
X121413106Y-130798946D01*
X121432376Y-130770105D01*
X121442130Y-130750155D01*
X121452910Y-130739374D01*
X121467516Y-130717516D01*
X121489374Y-130702910D01*
X121500155Y-130692130D01*
X121520105Y-130682376D01*
X121548946Y-130663106D01*
X121566780Y-130659558D01*
X121575066Y-130655508D01*
X121620209Y-130648931D01*
X121645000Y-130644000D01*
X122195000Y-130644000D01*
X122219793Y-130648931D01*
G37*
G36*
X125908095Y-131277373D02*
G01*
X125943782Y-131301218D01*
X125967627Y-131336905D01*
X125976000Y-131379000D01*
X125976000Y-132631000D01*
X125967627Y-132673095D01*
X125943782Y-132708782D01*
X125908095Y-132732627D01*
X125866000Y-132741000D01*
X125394000Y-132741000D01*
X125351905Y-132732627D01*
X125316218Y-132708782D01*
X125292373Y-132673095D01*
X125284000Y-132631000D01*
X125284000Y-131379000D01*
X125292373Y-131336905D01*
X125316218Y-131301218D01*
X125351905Y-131277373D01*
X125394000Y-131269000D01*
X125866000Y-131269000D01*
X125908095Y-131277373D01*
G37*
G36*
X127808095Y-131277373D02*
G01*
X127843782Y-131301218D01*
X127867627Y-131336905D01*
X127876000Y-131379000D01*
X127876000Y-132631000D01*
X127867627Y-132673095D01*
X127843782Y-132708782D01*
X127808095Y-132732627D01*
X127766000Y-132741000D01*
X127294000Y-132741000D01*
X127251905Y-132732627D01*
X127216218Y-132708782D01*
X127192373Y-132673095D01*
X127184000Y-132631000D01*
X127184000Y-131379000D01*
X127192373Y-131336905D01*
X127216218Y-131301218D01*
X127251905Y-131277373D01*
X127294000Y-131269000D01*
X127766000Y-131269000D01*
X127808095Y-131277373D01*
G37*
G36*
X119798914Y-130846995D02*
G01*
X119814726Y-130853976D01*
X119822531Y-130855213D01*
X119855039Y-130871776D01*
X119900106Y-130891676D01*
X119978324Y-130969894D01*
X119998226Y-131014967D01*
X120014786Y-131047468D01*
X120016021Y-131055270D01*
X120023005Y-131071086D01*
X120031000Y-131140000D01*
X120031000Y-131665000D01*
X120023005Y-131733914D01*
X120016021Y-131749729D01*
X120014786Y-131757531D01*
X119998229Y-131790024D01*
X119978324Y-131835106D01*
X119900106Y-131913324D01*
X119855024Y-131933229D01*
X119822531Y-131949786D01*
X119814729Y-131951021D01*
X119798914Y-131958005D01*
X119730000Y-131966000D01*
X118830000Y-131966000D01*
X118761086Y-131958005D01*
X118745270Y-131951021D01*
X118737468Y-131949786D01*
X118704967Y-131933226D01*
X118659894Y-131913324D01*
X118581676Y-131835106D01*
X118561776Y-131790039D01*
X118545213Y-131757531D01*
X118543976Y-131749726D01*
X118536995Y-131733914D01*
X118529000Y-131665000D01*
X118529000Y-131140000D01*
X118536995Y-131071086D01*
X118543976Y-131055274D01*
X118545213Y-131047468D01*
X118561780Y-131014953D01*
X118581676Y-130969894D01*
X118659894Y-130891676D01*
X118704953Y-130871780D01*
X118737468Y-130855213D01*
X118745274Y-130853976D01*
X118761086Y-130846995D01*
X118830000Y-130839000D01*
X119730000Y-130839000D01*
X119798914Y-130846995D01*
G37*
G36*
X107513914Y-129154495D02*
G01*
X107529726Y-129161476D01*
X107537531Y-129162713D01*
X107570039Y-129179276D01*
X107615106Y-129199176D01*
X107693324Y-129277394D01*
X107713226Y-129322467D01*
X107729786Y-129354968D01*
X107731021Y-129362770D01*
X107738005Y-129378586D01*
X107746000Y-129447500D01*
X107746000Y-129972500D01*
X107738005Y-130041414D01*
X107731021Y-130057229D01*
X107729786Y-130065031D01*
X107713229Y-130097524D01*
X107693324Y-130142606D01*
X107615106Y-130220824D01*
X107570024Y-130240729D01*
X107537531Y-130257286D01*
X107529729Y-130258521D01*
X107513914Y-130265505D01*
X107445000Y-130273500D01*
X106545000Y-130273500D01*
X106476086Y-130265505D01*
X106460270Y-130258521D01*
X106452468Y-130257286D01*
X106419967Y-130240726D01*
X106374894Y-130220824D01*
X106296676Y-130142606D01*
X106276776Y-130097539D01*
X106260213Y-130065031D01*
X106258976Y-130057226D01*
X106251995Y-130041414D01*
X106244000Y-129972500D01*
X106244000Y-129447500D01*
X106251995Y-129378586D01*
X106258976Y-129362774D01*
X106260213Y-129354968D01*
X106276780Y-129322453D01*
X106296676Y-129277394D01*
X106374894Y-129199176D01*
X106419953Y-129179280D01*
X106452468Y-129162713D01*
X106460274Y-129161476D01*
X106476086Y-129154495D01*
X106545000Y-129146500D01*
X107445000Y-129146500D01*
X107513914Y-129154495D01*
G37*
G36*
X114735933Y-129016644D02*
G01*
X114782306Y-129023989D01*
X114788357Y-129027072D01*
X114803121Y-129030009D01*
X114832025Y-129049323D01*
X114858811Y-129062971D01*
X114871618Y-129075778D01*
X114892661Y-129089839D01*
X114906721Y-129110881D01*
X114919528Y-129123688D01*
X114933174Y-129150471D01*
X114952491Y-129179379D01*
X114955427Y-129194144D01*
X114958510Y-129200193D01*
X114965851Y-129246545D01*
X114973500Y-129285000D01*
X114973500Y-129785000D01*
X114965850Y-129823458D01*
X114958510Y-129869806D01*
X114955428Y-129875854D01*
X114952491Y-129890621D01*
X114933172Y-129919532D01*
X114919528Y-129946311D01*
X114906723Y-129959115D01*
X114892661Y-129980161D01*
X114871615Y-129994223D01*
X114858811Y-130007028D01*
X114832032Y-130020672D01*
X114803121Y-130039991D01*
X114788354Y-130042928D01*
X114782306Y-130046010D01*
X114735958Y-130053350D01*
X114697500Y-130061000D01*
X114247500Y-130061000D01*
X114209045Y-130053351D01*
X114162693Y-130046010D01*
X114156644Y-130042927D01*
X114141879Y-130039991D01*
X114112971Y-130020674D01*
X114086188Y-130007028D01*
X114073381Y-129994221D01*
X114052339Y-129980161D01*
X114038278Y-129959118D01*
X114025471Y-129946311D01*
X114011823Y-129919525D01*
X113992509Y-129890621D01*
X113989572Y-129875857D01*
X113986489Y-129869806D01*
X113979144Y-129823433D01*
X113971500Y-129785000D01*
X113971500Y-129285000D01*
X113979144Y-129246570D01*
X113986489Y-129200193D01*
X113989572Y-129194141D01*
X113992509Y-129179379D01*
X114011820Y-129150477D01*
X114025471Y-129123688D01*
X114038280Y-129110878D01*
X114052339Y-129089839D01*
X114073378Y-129075780D01*
X114086188Y-129062971D01*
X114112977Y-129049320D01*
X114141879Y-129030009D01*
X114156641Y-129027072D01*
X114162693Y-129023989D01*
X114209070Y-129016644D01*
X114247500Y-129009000D01*
X114697500Y-129009000D01*
X114735933Y-129016644D01*
G37*
G36*
X116285933Y-129016644D02*
G01*
X116332306Y-129023989D01*
X116338357Y-129027072D01*
X116353121Y-129030009D01*
X116382025Y-129049323D01*
X116408811Y-129062971D01*
X116421618Y-129075778D01*
X116442661Y-129089839D01*
X116456721Y-129110881D01*
X116469528Y-129123688D01*
X116483174Y-129150471D01*
X116502491Y-129179379D01*
X116505427Y-129194144D01*
X116508510Y-129200193D01*
X116515851Y-129246545D01*
X116523500Y-129285000D01*
X116523500Y-129785000D01*
X116515850Y-129823458D01*
X116508510Y-129869806D01*
X116505428Y-129875854D01*
X116502491Y-129890621D01*
X116483172Y-129919532D01*
X116469528Y-129946311D01*
X116456723Y-129959115D01*
X116442661Y-129980161D01*
X116421615Y-129994223D01*
X116408811Y-130007028D01*
X116382032Y-130020672D01*
X116353121Y-130039991D01*
X116338354Y-130042928D01*
X116332306Y-130046010D01*
X116285958Y-130053350D01*
X116247500Y-130061000D01*
X115797500Y-130061000D01*
X115759045Y-130053351D01*
X115712693Y-130046010D01*
X115706644Y-130042927D01*
X115691879Y-130039991D01*
X115662971Y-130020674D01*
X115636188Y-130007028D01*
X115623381Y-129994221D01*
X115602339Y-129980161D01*
X115588278Y-129959118D01*
X115575471Y-129946311D01*
X115561823Y-129919525D01*
X115542509Y-129890621D01*
X115539572Y-129875857D01*
X115536489Y-129869806D01*
X115529144Y-129823433D01*
X115521500Y-129785000D01*
X115521500Y-129285000D01*
X115529144Y-129246570D01*
X115536489Y-129200193D01*
X115539572Y-129194141D01*
X115542509Y-129179379D01*
X115561820Y-129150477D01*
X115575471Y-129123688D01*
X115588280Y-129110878D01*
X115602339Y-129089839D01*
X115623378Y-129075780D01*
X115636188Y-129062971D01*
X115662977Y-129049320D01*
X115691879Y-129030009D01*
X115706641Y-129027072D01*
X115712693Y-129023989D01*
X115759070Y-129016644D01*
X115797500Y-129009000D01*
X116247500Y-129009000D01*
X116285933Y-129016644D01*
G37*
G36*
X119798914Y-129021995D02*
G01*
X119814726Y-129028976D01*
X119822531Y-129030213D01*
X119855039Y-129046776D01*
X119900106Y-129066676D01*
X119978324Y-129144894D01*
X119998226Y-129189967D01*
X120014786Y-129222468D01*
X120016021Y-129230270D01*
X120023005Y-129246086D01*
X120031000Y-129315000D01*
X120031000Y-129840000D01*
X120023005Y-129908914D01*
X120016021Y-129924729D01*
X120014786Y-129932531D01*
X119998229Y-129965024D01*
X119978324Y-130010106D01*
X119900106Y-130088324D01*
X119855024Y-130108229D01*
X119822531Y-130124786D01*
X119814729Y-130126021D01*
X119798914Y-130133005D01*
X119730000Y-130141000D01*
X118830000Y-130141000D01*
X118761086Y-130133005D01*
X118745270Y-130126021D01*
X118737468Y-130124786D01*
X118704967Y-130108226D01*
X118659894Y-130088324D01*
X118581676Y-130010106D01*
X118561776Y-129965039D01*
X118545213Y-129932531D01*
X118543976Y-129924726D01*
X118536995Y-129908914D01*
X118529000Y-129840000D01*
X118529000Y-129315000D01*
X118536995Y-129246086D01*
X118543976Y-129230274D01*
X118545213Y-129222468D01*
X118561780Y-129189953D01*
X118581676Y-129144894D01*
X118659894Y-129066676D01*
X118704953Y-129046780D01*
X118737468Y-129030213D01*
X118745274Y-129028976D01*
X118761086Y-129021995D01*
X118830000Y-129014000D01*
X119730000Y-129014000D01*
X119798914Y-129021995D01*
G37*
G36*
X122219793Y-128998931D02*
G01*
X122264933Y-129005508D01*
X122273217Y-129009558D01*
X122291054Y-129013106D01*
X122319897Y-129032378D01*
X122339844Y-129042130D01*
X122350622Y-129052908D01*
X122372484Y-129067516D01*
X122387091Y-129089377D01*
X122397869Y-129100155D01*
X122407619Y-129120099D01*
X122426894Y-129148946D01*
X122430442Y-129166783D01*
X122434491Y-129175066D01*
X122441065Y-129220190D01*
X122446000Y-129245000D01*
X122446000Y-129645000D01*
X122441064Y-129669812D01*
X122434491Y-129714933D01*
X122430442Y-129723214D01*
X122426894Y-129741054D01*
X122407617Y-129769903D01*
X122397869Y-129789844D01*
X122387093Y-129800619D01*
X122372484Y-129822484D01*
X122350619Y-129837093D01*
X122339844Y-129847869D01*
X122319903Y-129857617D01*
X122291054Y-129876894D01*
X122273214Y-129880442D01*
X122264933Y-129884491D01*
X122219812Y-129891064D01*
X122195000Y-129896000D01*
X121645000Y-129896000D01*
X121620190Y-129891065D01*
X121575066Y-129884491D01*
X121566783Y-129880442D01*
X121548946Y-129876894D01*
X121520099Y-129857619D01*
X121500155Y-129847869D01*
X121489377Y-129837091D01*
X121467516Y-129822484D01*
X121452908Y-129800622D01*
X121442130Y-129789844D01*
X121432378Y-129769897D01*
X121413106Y-129741054D01*
X121409558Y-129723217D01*
X121405508Y-129714933D01*
X121398931Y-129669793D01*
X121394000Y-129645000D01*
X121394000Y-129245000D01*
X121398931Y-129220209D01*
X121405508Y-129175066D01*
X121409558Y-129166780D01*
X121413106Y-129148946D01*
X121432376Y-129120105D01*
X121442130Y-129100155D01*
X121452910Y-129089374D01*
X121467516Y-129067516D01*
X121489374Y-129052910D01*
X121500155Y-129042130D01*
X121520105Y-129032376D01*
X121548946Y-129013106D01*
X121566780Y-129009558D01*
X121575066Y-129005508D01*
X121620209Y-128998931D01*
X121645000Y-128994000D01*
X122195000Y-128994000D01*
X122219793Y-128998931D01*
G37*
G36*
X126109793Y-128998931D02*
G01*
X126154933Y-129005508D01*
X126163217Y-129009558D01*
X126181054Y-129013106D01*
X126209897Y-129032378D01*
X126229844Y-129042130D01*
X126240622Y-129052908D01*
X126262484Y-129067516D01*
X126277091Y-129089377D01*
X126287869Y-129100155D01*
X126297619Y-129120099D01*
X126316894Y-129148946D01*
X126320442Y-129166783D01*
X126324491Y-129175066D01*
X126331065Y-129220190D01*
X126336000Y-129245000D01*
X126336000Y-129795000D01*
X126331064Y-129819812D01*
X126324491Y-129864933D01*
X126320442Y-129873214D01*
X126316894Y-129891054D01*
X126297617Y-129919903D01*
X126287869Y-129939844D01*
X126277093Y-129950619D01*
X126262484Y-129972484D01*
X126240619Y-129987093D01*
X126229844Y-129997869D01*
X126209903Y-130007617D01*
X126181054Y-130026894D01*
X126163214Y-130030442D01*
X126154933Y-130034491D01*
X126109812Y-130041064D01*
X126085000Y-130046000D01*
X125685000Y-130046000D01*
X125660190Y-130041065D01*
X125615066Y-130034491D01*
X125606783Y-130030442D01*
X125588946Y-130026894D01*
X125560099Y-130007619D01*
X125540155Y-129997869D01*
X125529377Y-129987091D01*
X125507516Y-129972484D01*
X125492908Y-129950622D01*
X125482130Y-129939844D01*
X125472378Y-129919897D01*
X125453106Y-129891054D01*
X125449558Y-129873217D01*
X125445508Y-129864933D01*
X125438931Y-129819793D01*
X125434000Y-129795000D01*
X125434000Y-129245000D01*
X125438931Y-129220209D01*
X125445508Y-129175066D01*
X125449558Y-129166780D01*
X125453106Y-129148946D01*
X125472376Y-129120105D01*
X125482130Y-129100155D01*
X125492910Y-129089374D01*
X125507516Y-129067516D01*
X125529374Y-129052910D01*
X125540155Y-129042130D01*
X125560105Y-129032376D01*
X125588946Y-129013106D01*
X125606780Y-129009558D01*
X125615066Y-129005508D01*
X125660209Y-128998931D01*
X125685000Y-128994000D01*
X126085000Y-128994000D01*
X126109793Y-128998931D01*
G37*
G36*
X127759793Y-128998931D02*
G01*
X127804933Y-129005508D01*
X127813217Y-129009558D01*
X127831054Y-129013106D01*
X127859897Y-129032378D01*
X127879844Y-129042130D01*
X127890622Y-129052908D01*
X127912484Y-129067516D01*
X127927091Y-129089377D01*
X127937869Y-129100155D01*
X127947619Y-129120099D01*
X127966894Y-129148946D01*
X127970442Y-129166783D01*
X127974491Y-129175066D01*
X127981065Y-129220190D01*
X127986000Y-129245000D01*
X127986000Y-129795000D01*
X127981064Y-129819812D01*
X127974491Y-129864933D01*
X127970442Y-129873214D01*
X127966894Y-129891054D01*
X127947617Y-129919903D01*
X127937869Y-129939844D01*
X127927093Y-129950619D01*
X127912484Y-129972484D01*
X127890619Y-129987093D01*
X127879844Y-129997869D01*
X127859903Y-130007617D01*
X127831054Y-130026894D01*
X127813214Y-130030442D01*
X127804933Y-130034491D01*
X127759812Y-130041064D01*
X127735000Y-130046000D01*
X127335000Y-130046000D01*
X127310190Y-130041065D01*
X127265066Y-130034491D01*
X127256783Y-130030442D01*
X127238946Y-130026894D01*
X127210099Y-130007619D01*
X127190155Y-129997869D01*
X127179377Y-129987091D01*
X127157516Y-129972484D01*
X127142908Y-129950622D01*
X127132130Y-129939844D01*
X127122378Y-129919897D01*
X127103106Y-129891054D01*
X127099558Y-129873217D01*
X127095508Y-129864933D01*
X127088931Y-129819793D01*
X127084000Y-129795000D01*
X127084000Y-129245000D01*
X127088931Y-129220209D01*
X127095508Y-129175066D01*
X127099558Y-129166780D01*
X127103106Y-129148946D01*
X127122376Y-129120105D01*
X127132130Y-129100155D01*
X127142910Y-129089374D01*
X127157516Y-129067516D01*
X127179374Y-129052910D01*
X127190155Y-129042130D01*
X127210105Y-129032376D01*
X127238946Y-129013106D01*
X127256780Y-129009558D01*
X127265066Y-129005508D01*
X127310209Y-128998931D01*
X127335000Y-128994000D01*
X127735000Y-128994000D01*
X127759793Y-128998931D01*
G37*
G36*
X107323539Y-125992190D02*
G01*
X107361016Y-125997124D01*
X107370443Y-126001519D01*
X107391116Y-126005632D01*
X107418499Y-126023929D01*
X107431718Y-126030093D01*
X107439759Y-126038134D01*
X107462003Y-126052997D01*
X107476865Y-126075240D01*
X107484906Y-126083281D01*
X107491068Y-126096497D01*
X107509368Y-126123884D01*
X107513480Y-126144558D01*
X107517875Y-126153983D01*
X107522807Y-126191449D01*
X107526000Y-126207500D01*
X107526000Y-126542500D01*
X107522806Y-126558553D01*
X107517875Y-126596016D01*
X107513480Y-126605439D01*
X107509368Y-126626116D01*
X107491067Y-126653504D01*
X107484906Y-126666718D01*
X107476867Y-126674756D01*
X107462003Y-126697003D01*
X107439756Y-126711867D01*
X107431718Y-126719906D01*
X107418504Y-126726067D01*
X107391116Y-126744368D01*
X107370439Y-126748480D01*
X107361016Y-126752875D01*
X107323552Y-126757806D01*
X107307500Y-126761000D01*
X106692500Y-126761000D01*
X106676448Y-126757807D01*
X106638983Y-126752875D01*
X106629558Y-126748480D01*
X106608884Y-126744368D01*
X106581497Y-126726068D01*
X106568281Y-126719906D01*
X106560240Y-126711865D01*
X106537997Y-126697003D01*
X106523134Y-126674759D01*
X106515093Y-126666718D01*
X106508929Y-126653499D01*
X106490632Y-126626116D01*
X106486519Y-126605443D01*
X106482124Y-126596016D01*
X106477190Y-126558537D01*
X106474000Y-126542500D01*
X106474000Y-126207500D01*
X106477189Y-126191462D01*
X106482124Y-126153983D01*
X106486520Y-126144555D01*
X106490632Y-126123884D01*
X106508927Y-126096502D01*
X106515093Y-126083281D01*
X106523136Y-126075237D01*
X106537997Y-126052997D01*
X106560237Y-126038136D01*
X106568281Y-126030093D01*
X106581502Y-126023927D01*
X106608884Y-126005632D01*
X106629555Y-126001520D01*
X106638983Y-125997124D01*
X106676464Y-125992189D01*
X106692500Y-125989000D01*
X107307500Y-125989000D01*
X107323539Y-125992190D01*
G37*
G36*
X127808539Y-126477190D02*
G01*
X127846016Y-126482124D01*
X127855443Y-126486519D01*
X127876116Y-126490632D01*
X127903499Y-126508929D01*
X127916718Y-126515093D01*
X127924759Y-126523134D01*
X127947003Y-126537997D01*
X127961865Y-126560240D01*
X127969906Y-126568281D01*
X127976068Y-126581497D01*
X127994368Y-126608884D01*
X127998480Y-126629558D01*
X128002875Y-126638983D01*
X128007807Y-126676449D01*
X128011000Y-126692500D01*
X128011000Y-127307500D01*
X128007806Y-127323553D01*
X128002875Y-127361016D01*
X127998480Y-127370439D01*
X127994368Y-127391116D01*
X127976067Y-127418504D01*
X127969906Y-127431718D01*
X127961867Y-127439756D01*
X127947003Y-127462003D01*
X127924756Y-127476867D01*
X127916718Y-127484906D01*
X127903504Y-127491067D01*
X127876116Y-127509368D01*
X127855439Y-127513480D01*
X127846016Y-127517875D01*
X127808552Y-127522806D01*
X127792500Y-127526000D01*
X127457500Y-127526000D01*
X127441448Y-127522807D01*
X127403983Y-127517875D01*
X127394558Y-127513480D01*
X127373884Y-127509368D01*
X127346497Y-127491068D01*
X127333281Y-127484906D01*
X127325240Y-127476865D01*
X127302997Y-127462003D01*
X127288134Y-127439759D01*
X127280093Y-127431718D01*
X127273929Y-127418499D01*
X127255632Y-127391116D01*
X127251519Y-127370443D01*
X127247124Y-127361016D01*
X127242190Y-127323537D01*
X127239000Y-127307500D01*
X127239000Y-126692500D01*
X127242189Y-126676462D01*
X127247124Y-126638983D01*
X127251520Y-126629555D01*
X127255632Y-126608884D01*
X127273927Y-126581502D01*
X127280093Y-126568281D01*
X127288136Y-126560237D01*
X127302997Y-126537997D01*
X127325237Y-126523136D01*
X127333281Y-126515093D01*
X127346502Y-126508927D01*
X127373884Y-126490632D01*
X127394555Y-126486520D01*
X127403983Y-126482124D01*
X127441464Y-126477189D01*
X127457500Y-126474000D01*
X127792500Y-126474000D01*
X127808539Y-126477190D01*
G37*
G36*
X129558539Y-126477190D02*
G01*
X129596016Y-126482124D01*
X129605443Y-126486519D01*
X129626116Y-126490632D01*
X129653499Y-126508929D01*
X129666718Y-126515093D01*
X129674759Y-126523134D01*
X129697003Y-126537997D01*
X129711865Y-126560240D01*
X129719906Y-126568281D01*
X129726068Y-126581497D01*
X129744368Y-126608884D01*
X129748480Y-126629558D01*
X129752875Y-126638983D01*
X129757807Y-126676449D01*
X129761000Y-126692500D01*
X129761000Y-127307500D01*
X129757806Y-127323553D01*
X129752875Y-127361016D01*
X129748480Y-127370439D01*
X129744368Y-127391116D01*
X129726067Y-127418504D01*
X129719906Y-127431718D01*
X129711867Y-127439756D01*
X129697003Y-127462003D01*
X129674756Y-127476867D01*
X129666718Y-127484906D01*
X129653504Y-127491067D01*
X129626116Y-127509368D01*
X129605439Y-127513480D01*
X129596016Y-127517875D01*
X129558552Y-127522806D01*
X129542500Y-127526000D01*
X129207500Y-127526000D01*
X129191448Y-127522807D01*
X129153983Y-127517875D01*
X129144558Y-127513480D01*
X129123884Y-127509368D01*
X129096497Y-127491068D01*
X129083281Y-127484906D01*
X129075240Y-127476865D01*
X129052997Y-127462003D01*
X129038134Y-127439759D01*
X129030093Y-127431718D01*
X129023929Y-127418499D01*
X129005632Y-127391116D01*
X129001519Y-127370443D01*
X128997124Y-127361016D01*
X128992190Y-127323537D01*
X128989000Y-127307500D01*
X128989000Y-126692500D01*
X128992189Y-126676462D01*
X128997124Y-126638983D01*
X129001520Y-126629555D01*
X129005632Y-126608884D01*
X129023927Y-126581502D01*
X129030093Y-126568281D01*
X129038136Y-126560237D01*
X129052997Y-126537997D01*
X129075237Y-126523136D01*
X129083281Y-126515093D01*
X129096502Y-126508927D01*
X129123884Y-126490632D01*
X129144555Y-126486520D01*
X129153983Y-126482124D01*
X129191464Y-126477189D01*
X129207500Y-126474000D01*
X129542500Y-126474000D01*
X129558539Y-126477190D01*
G37*
G36*
X107323539Y-124242190D02*
G01*
X107361016Y-124247124D01*
X107370443Y-124251519D01*
X107391116Y-124255632D01*
X107418499Y-124273929D01*
X107431718Y-124280093D01*
X107439759Y-124288134D01*
X107462003Y-124302997D01*
X107476865Y-124325240D01*
X107484906Y-124333281D01*
X107491068Y-124346497D01*
X107509368Y-124373884D01*
X107513480Y-124394558D01*
X107517875Y-124403983D01*
X107522807Y-124441449D01*
X107526000Y-124457500D01*
X107526000Y-124792500D01*
X107522806Y-124808553D01*
X107517875Y-124846016D01*
X107513480Y-124855439D01*
X107509368Y-124876116D01*
X107491067Y-124903504D01*
X107484906Y-124916718D01*
X107476867Y-124924756D01*
X107462003Y-124947003D01*
X107439756Y-124961867D01*
X107431718Y-124969906D01*
X107418504Y-124976067D01*
X107391116Y-124994368D01*
X107370439Y-124998480D01*
X107361016Y-125002875D01*
X107323552Y-125007806D01*
X107307500Y-125011000D01*
X106692500Y-125011000D01*
X106676448Y-125007807D01*
X106638983Y-125002875D01*
X106629558Y-124998480D01*
X106608884Y-124994368D01*
X106581497Y-124976068D01*
X106568281Y-124969906D01*
X106560240Y-124961865D01*
X106537997Y-124947003D01*
X106523134Y-124924759D01*
X106515093Y-124916718D01*
X106508929Y-124903499D01*
X106490632Y-124876116D01*
X106486519Y-124855443D01*
X106482124Y-124846016D01*
X106477190Y-124808537D01*
X106474000Y-124792500D01*
X106474000Y-124457500D01*
X106477189Y-124441462D01*
X106482124Y-124403983D01*
X106486520Y-124394555D01*
X106490632Y-124373884D01*
X106508927Y-124346502D01*
X106515093Y-124333281D01*
X106523136Y-124325237D01*
X106537997Y-124302997D01*
X106560237Y-124288136D01*
X106568281Y-124280093D01*
X106581502Y-124273927D01*
X106608884Y-124255632D01*
X106629555Y-124251520D01*
X106638983Y-124247124D01*
X106676464Y-124242189D01*
X106692500Y-124239000D01*
X107307500Y-124239000D01*
X107323539Y-124242190D01*
G37*
G36*
X112969694Y-124981646D02*
G01*
X113014126Y-124988684D01*
X113019923Y-124991637D01*
X113034479Y-124994533D01*
X113062973Y-125013572D01*
X113088887Y-125026776D01*
X113101278Y-125039167D01*
X113121992Y-125053008D01*
X113135832Y-125073721D01*
X113148223Y-125086112D01*
X113161425Y-125112023D01*
X113180467Y-125140521D01*
X113183362Y-125155078D01*
X113186315Y-125160873D01*
X113193349Y-125205284D01*
X113201000Y-125243750D01*
X113201000Y-125756250D01*
X113193348Y-125794718D01*
X113186315Y-125839126D01*
X113183362Y-125844919D01*
X113180467Y-125859479D01*
X113161423Y-125887979D01*
X113148223Y-125913887D01*
X113135834Y-125926275D01*
X113121992Y-125946992D01*
X113101275Y-125960834D01*
X113088887Y-125973223D01*
X113062979Y-125986423D01*
X113034479Y-126005467D01*
X113019919Y-126008362D01*
X113014126Y-126011315D01*
X112969718Y-126018348D01*
X112931250Y-126026000D01*
X112493750Y-126026000D01*
X112455284Y-126018349D01*
X112410873Y-126011315D01*
X112405078Y-126008362D01*
X112390521Y-126005467D01*
X112362023Y-125986425D01*
X112336112Y-125973223D01*
X112323721Y-125960832D01*
X112303008Y-125946992D01*
X112289167Y-125926278D01*
X112276776Y-125913887D01*
X112263572Y-125887973D01*
X112244533Y-125859479D01*
X112241637Y-125844923D01*
X112238684Y-125839126D01*
X112231646Y-125794694D01*
X112224000Y-125756250D01*
X112224000Y-125243750D01*
X112231646Y-125205309D01*
X112238684Y-125160873D01*
X112241638Y-125155075D01*
X112244533Y-125140521D01*
X112263570Y-125112029D01*
X112276776Y-125086112D01*
X112289169Y-125073718D01*
X112303008Y-125053008D01*
X112323718Y-125039169D01*
X112336112Y-125026776D01*
X112362029Y-125013570D01*
X112390521Y-124994533D01*
X112405075Y-124991638D01*
X112410873Y-124988684D01*
X112455309Y-124981646D01*
X112493750Y-124974000D01*
X112931250Y-124974000D01*
X112969694Y-124981646D01*
G37*
G36*
X114544694Y-124981646D02*
G01*
X114589126Y-124988684D01*
X114594923Y-124991637D01*
X114609479Y-124994533D01*
X114637973Y-125013572D01*
X114663887Y-125026776D01*
X114676278Y-125039167D01*
X114696992Y-125053008D01*
X114710832Y-125073721D01*
X114723223Y-125086112D01*
X114736425Y-125112023D01*
X114755467Y-125140521D01*
X114758362Y-125155078D01*
X114761315Y-125160873D01*
X114768349Y-125205284D01*
X114776000Y-125243750D01*
X114776000Y-125756250D01*
X114768348Y-125794718D01*
X114761315Y-125839126D01*
X114758362Y-125844919D01*
X114755467Y-125859479D01*
X114736423Y-125887979D01*
X114723223Y-125913887D01*
X114710834Y-125926275D01*
X114696992Y-125946992D01*
X114676275Y-125960834D01*
X114663887Y-125973223D01*
X114637979Y-125986423D01*
X114609479Y-126005467D01*
X114594919Y-126008362D01*
X114589126Y-126011315D01*
X114544718Y-126018348D01*
X114506250Y-126026000D01*
X114068750Y-126026000D01*
X114030284Y-126018349D01*
X113985873Y-126011315D01*
X113980078Y-126008362D01*
X113965521Y-126005467D01*
X113937023Y-125986425D01*
X113911112Y-125973223D01*
X113898721Y-125960832D01*
X113878008Y-125946992D01*
X113864167Y-125926278D01*
X113851776Y-125913887D01*
X113838572Y-125887973D01*
X113819533Y-125859479D01*
X113816637Y-125844923D01*
X113813684Y-125839126D01*
X113806646Y-125794694D01*
X113799000Y-125756250D01*
X113799000Y-125243750D01*
X113806646Y-125205309D01*
X113813684Y-125160873D01*
X113816638Y-125155075D01*
X113819533Y-125140521D01*
X113838570Y-125112029D01*
X113851776Y-125086112D01*
X113864169Y-125073718D01*
X113878008Y-125053008D01*
X113898718Y-125039169D01*
X113911112Y-125026776D01*
X113937029Y-125013570D01*
X113965521Y-124994533D01*
X113980075Y-124991638D01*
X113985873Y-124988684D01*
X114030309Y-124981646D01*
X114068750Y-124974000D01*
X114506250Y-124974000D01*
X114544694Y-124981646D01*
G37*
G36*
X127808539Y-124977190D02*
G01*
X127846016Y-124982124D01*
X127855443Y-124986519D01*
X127876116Y-124990632D01*
X127903499Y-125008929D01*
X127916718Y-125015093D01*
X127924759Y-125023134D01*
X127947003Y-125037997D01*
X127961865Y-125060240D01*
X127969906Y-125068281D01*
X127976068Y-125081497D01*
X127994368Y-125108884D01*
X127998480Y-125129558D01*
X128002875Y-125138983D01*
X128007807Y-125176449D01*
X128011000Y-125192500D01*
X128011000Y-125807500D01*
X128007806Y-125823553D01*
X128002875Y-125861016D01*
X127998480Y-125870439D01*
X127994368Y-125891116D01*
X127976067Y-125918504D01*
X127969906Y-125931718D01*
X127961867Y-125939756D01*
X127947003Y-125962003D01*
X127924756Y-125976867D01*
X127916718Y-125984906D01*
X127903504Y-125991067D01*
X127876116Y-126009368D01*
X127855439Y-126013480D01*
X127846016Y-126017875D01*
X127808552Y-126022806D01*
X127792500Y-126026000D01*
X127457500Y-126026000D01*
X127441448Y-126022807D01*
X127403983Y-126017875D01*
X127394558Y-126013480D01*
X127373884Y-126009368D01*
X127346497Y-125991068D01*
X127333281Y-125984906D01*
X127325240Y-125976865D01*
X127302997Y-125962003D01*
X127288134Y-125939759D01*
X127280093Y-125931718D01*
X127273929Y-125918499D01*
X127255632Y-125891116D01*
X127251519Y-125870443D01*
X127247124Y-125861016D01*
X127242190Y-125823537D01*
X127239000Y-125807500D01*
X127239000Y-125192500D01*
X127242189Y-125176462D01*
X127247124Y-125138983D01*
X127251520Y-125129555D01*
X127255632Y-125108884D01*
X127273927Y-125081502D01*
X127280093Y-125068281D01*
X127288136Y-125060237D01*
X127302997Y-125037997D01*
X127325237Y-125023136D01*
X127333281Y-125015093D01*
X127346502Y-125008927D01*
X127373884Y-124990632D01*
X127394555Y-124986520D01*
X127403983Y-124982124D01*
X127441464Y-124977189D01*
X127457500Y-124974000D01*
X127792500Y-124974000D01*
X127808539Y-124977190D01*
G37*
G36*
X129558539Y-124977190D02*
G01*
X129596016Y-124982124D01*
X129605443Y-124986519D01*
X129626116Y-124990632D01*
X129653499Y-125008929D01*
X129666718Y-125015093D01*
X129674759Y-125023134D01*
X129697003Y-125037997D01*
X129711865Y-125060240D01*
X129719906Y-125068281D01*
X129726068Y-125081497D01*
X129744368Y-125108884D01*
X129748480Y-125129558D01*
X129752875Y-125138983D01*
X129757807Y-125176449D01*
X129761000Y-125192500D01*
X129761000Y-125807500D01*
X129757806Y-125823553D01*
X129752875Y-125861016D01*
X129748480Y-125870439D01*
X129744368Y-125891116D01*
X129726067Y-125918504D01*
X129719906Y-125931718D01*
X129711867Y-125939756D01*
X129697003Y-125962003D01*
X129674756Y-125976867D01*
X129666718Y-125984906D01*
X129653504Y-125991067D01*
X129626116Y-126009368D01*
X129605439Y-126013480D01*
X129596016Y-126017875D01*
X129558552Y-126022806D01*
X129542500Y-126026000D01*
X129207500Y-126026000D01*
X129191448Y-126022807D01*
X129153983Y-126017875D01*
X129144558Y-126013480D01*
X129123884Y-126009368D01*
X129096497Y-125991068D01*
X129083281Y-125984906D01*
X129075240Y-125976865D01*
X129052997Y-125962003D01*
X129038134Y-125939759D01*
X129030093Y-125931718D01*
X129023929Y-125918499D01*
X129005632Y-125891116D01*
X129001519Y-125870443D01*
X128997124Y-125861016D01*
X128992190Y-125823537D01*
X128989000Y-125807500D01*
X128989000Y-125192500D01*
X128992189Y-125176462D01*
X128997124Y-125138983D01*
X129001520Y-125129555D01*
X129005632Y-125108884D01*
X129023927Y-125081502D01*
X129030093Y-125068281D01*
X129038136Y-125060237D01*
X129052997Y-125037997D01*
X129075237Y-125023136D01*
X129083281Y-125015093D01*
X129096502Y-125008927D01*
X129123884Y-124990632D01*
X129144555Y-124986520D01*
X129153983Y-124982124D01*
X129191464Y-124977189D01*
X129207500Y-124974000D01*
X129542500Y-124974000D01*
X129558539Y-124977190D01*
G37*
G36*
X112969694Y-123481646D02*
G01*
X113014126Y-123488684D01*
X113019923Y-123491637D01*
X113034479Y-123494533D01*
X113062973Y-123513572D01*
X113088887Y-123526776D01*
X113101278Y-123539167D01*
X113121992Y-123553008D01*
X113135832Y-123573721D01*
X113148223Y-123586112D01*
X113161425Y-123612023D01*
X113180467Y-123640521D01*
X113183362Y-123655078D01*
X113186315Y-123660873D01*
X113193349Y-123705284D01*
X113201000Y-123743750D01*
X113201000Y-124256250D01*
X113193348Y-124294718D01*
X113186315Y-124339126D01*
X113183362Y-124344919D01*
X113180467Y-124359479D01*
X113161423Y-124387979D01*
X113148223Y-124413887D01*
X113135834Y-124426275D01*
X113121992Y-124446992D01*
X113101275Y-124460834D01*
X113088887Y-124473223D01*
X113062979Y-124486423D01*
X113034479Y-124505467D01*
X113019919Y-124508362D01*
X113014126Y-124511315D01*
X112969718Y-124518348D01*
X112931250Y-124526000D01*
X112493750Y-124526000D01*
X112455284Y-124518349D01*
X112410873Y-124511315D01*
X112405078Y-124508362D01*
X112390521Y-124505467D01*
X112362023Y-124486425D01*
X112336112Y-124473223D01*
X112323721Y-124460832D01*
X112303008Y-124446992D01*
X112289167Y-124426278D01*
X112276776Y-124413887D01*
X112263572Y-124387973D01*
X112244533Y-124359479D01*
X112241637Y-124344923D01*
X112238684Y-124339126D01*
X112231646Y-124294694D01*
X112224000Y-124256250D01*
X112224000Y-123743750D01*
X112231646Y-123705309D01*
X112238684Y-123660873D01*
X112241638Y-123655075D01*
X112244533Y-123640521D01*
X112263570Y-123612029D01*
X112276776Y-123586112D01*
X112289169Y-123573718D01*
X112303008Y-123553008D01*
X112323718Y-123539169D01*
X112336112Y-123526776D01*
X112362029Y-123513570D01*
X112390521Y-123494533D01*
X112405075Y-123491638D01*
X112410873Y-123488684D01*
X112455309Y-123481646D01*
X112493750Y-123474000D01*
X112931250Y-123474000D01*
X112969694Y-123481646D01*
G37*
G36*
X114544694Y-123481646D02*
G01*
X114589126Y-123488684D01*
X114594923Y-123491637D01*
X114609479Y-123494533D01*
X114637973Y-123513572D01*
X114663887Y-123526776D01*
X114676278Y-123539167D01*
X114696992Y-123553008D01*
X114710832Y-123573721D01*
X114723223Y-123586112D01*
X114736425Y-123612023D01*
X114755467Y-123640521D01*
X114758362Y-123655078D01*
X114761315Y-123660873D01*
X114768349Y-123705284D01*
X114776000Y-123743750D01*
X114776000Y-124256250D01*
X114768348Y-124294718D01*
X114761315Y-124339126D01*
X114758362Y-124344919D01*
X114755467Y-124359479D01*
X114736423Y-124387979D01*
X114723223Y-124413887D01*
X114710834Y-124426275D01*
X114696992Y-124446992D01*
X114676275Y-124460834D01*
X114663887Y-124473223D01*
X114637979Y-124486423D01*
X114609479Y-124505467D01*
X114594919Y-124508362D01*
X114589126Y-124511315D01*
X114544718Y-124518348D01*
X114506250Y-124526000D01*
X114068750Y-124526000D01*
X114030284Y-124518349D01*
X113985873Y-124511315D01*
X113980078Y-124508362D01*
X113965521Y-124505467D01*
X113937023Y-124486425D01*
X113911112Y-124473223D01*
X113898721Y-124460832D01*
X113878008Y-124446992D01*
X113864167Y-124426278D01*
X113851776Y-124413887D01*
X113838572Y-124387973D01*
X113819533Y-124359479D01*
X113816637Y-124344923D01*
X113813684Y-124339126D01*
X113806646Y-124294694D01*
X113799000Y-124256250D01*
X113799000Y-123743750D01*
X113806646Y-123705309D01*
X113813684Y-123660873D01*
X113816638Y-123655075D01*
X113819533Y-123640521D01*
X113838570Y-123612029D01*
X113851776Y-123586112D01*
X113864169Y-123573718D01*
X113878008Y-123553008D01*
X113898718Y-123539169D01*
X113911112Y-123526776D01*
X113937029Y-123513570D01*
X113965521Y-123494533D01*
X113980075Y-123491638D01*
X113985873Y-123488684D01*
X114030309Y-123481646D01*
X114068750Y-123474000D01*
X114506250Y-123474000D01*
X114544694Y-123481646D01*
G37*
G36*
X127808539Y-123477190D02*
G01*
X127846016Y-123482124D01*
X127855443Y-123486519D01*
X127876116Y-123490632D01*
X127903499Y-123508929D01*
X127916718Y-123515093D01*
X127924759Y-123523134D01*
X127947003Y-123537997D01*
X127961865Y-123560240D01*
X127969906Y-123568281D01*
X127976068Y-123581497D01*
X127994368Y-123608884D01*
X127998480Y-123629558D01*
X128002875Y-123638983D01*
X128007807Y-123676449D01*
X128011000Y-123692500D01*
X128011000Y-124307500D01*
X128007806Y-124323553D01*
X128002875Y-124361016D01*
X127998480Y-124370439D01*
X127994368Y-124391116D01*
X127976067Y-124418504D01*
X127969906Y-124431718D01*
X127961867Y-124439756D01*
X127947003Y-124462003D01*
X127924756Y-124476867D01*
X127916718Y-124484906D01*
X127903504Y-124491067D01*
X127876116Y-124509368D01*
X127855439Y-124513480D01*
X127846016Y-124517875D01*
X127808552Y-124522806D01*
X127792500Y-124526000D01*
X127457500Y-124526000D01*
X127441448Y-124522807D01*
X127403983Y-124517875D01*
X127394558Y-124513480D01*
X127373884Y-124509368D01*
X127346497Y-124491068D01*
X127333281Y-124484906D01*
X127325240Y-124476865D01*
X127302997Y-124462003D01*
X127288134Y-124439759D01*
X127280093Y-124431718D01*
X127273929Y-124418499D01*
X127255632Y-124391116D01*
X127251519Y-124370443D01*
X127247124Y-124361016D01*
X127242190Y-124323537D01*
X127239000Y-124307500D01*
X127239000Y-123692500D01*
X127242189Y-123676462D01*
X127247124Y-123638983D01*
X127251520Y-123629555D01*
X127255632Y-123608884D01*
X127273927Y-123581502D01*
X127280093Y-123568281D01*
X127288136Y-123560237D01*
X127302997Y-123537997D01*
X127325237Y-123523136D01*
X127333281Y-123515093D01*
X127346502Y-123508927D01*
X127373884Y-123490632D01*
X127394555Y-123486520D01*
X127403983Y-123482124D01*
X127441464Y-123477189D01*
X127457500Y-123474000D01*
X127792500Y-123474000D01*
X127808539Y-123477190D01*
G37*
G36*
X129558539Y-123477190D02*
G01*
X129596016Y-123482124D01*
X129605443Y-123486519D01*
X129626116Y-123490632D01*
X129653499Y-123508929D01*
X129666718Y-123515093D01*
X129674759Y-123523134D01*
X129697003Y-123537997D01*
X129711865Y-123560240D01*
X129719906Y-123568281D01*
X129726068Y-123581497D01*
X129744368Y-123608884D01*
X129748480Y-123629558D01*
X129752875Y-123638983D01*
X129757807Y-123676449D01*
X129761000Y-123692500D01*
X129761000Y-124307500D01*
X129757806Y-124323553D01*
X129752875Y-124361016D01*
X129748480Y-124370439D01*
X129744368Y-124391116D01*
X129726067Y-124418504D01*
X129719906Y-124431718D01*
X129711867Y-124439756D01*
X129697003Y-124462003D01*
X129674756Y-124476867D01*
X129666718Y-124484906D01*
X129653504Y-124491067D01*
X129626116Y-124509368D01*
X129605439Y-124513480D01*
X129596016Y-124517875D01*
X129558552Y-124522806D01*
X129542500Y-124526000D01*
X129207500Y-124526000D01*
X129191448Y-124522807D01*
X129153983Y-124517875D01*
X129144558Y-124513480D01*
X129123884Y-124509368D01*
X129096497Y-124491068D01*
X129083281Y-124484906D01*
X129075240Y-124476865D01*
X129052997Y-124462003D01*
X129038134Y-124439759D01*
X129030093Y-124431718D01*
X129023929Y-124418499D01*
X129005632Y-124391116D01*
X129001519Y-124370443D01*
X128997124Y-124361016D01*
X128992190Y-124323537D01*
X128989000Y-124307500D01*
X128989000Y-123692500D01*
X128992189Y-123676462D01*
X128997124Y-123638983D01*
X129001520Y-123629555D01*
X129005632Y-123608884D01*
X129023927Y-123581502D01*
X129030093Y-123568281D01*
X129038136Y-123560237D01*
X129052997Y-123537997D01*
X129075237Y-123523136D01*
X129083281Y-123515093D01*
X129096502Y-123508927D01*
X129123884Y-123490632D01*
X129144555Y-123486520D01*
X129153983Y-123482124D01*
X129191464Y-123477189D01*
X129207500Y-123474000D01*
X129542500Y-123474000D01*
X129558539Y-123477190D01*
G37*
G36*
X102045023Y-121704073D02*
G01*
X102083657Y-121704073D01*
X102127240Y-121713336D01*
X102178239Y-121719083D01*
X102215321Y-121732058D01*
X102247306Y-121738857D01*
X102293401Y-121759379D01*
X102347541Y-121778324D01*
X102375719Y-121796029D01*
X102400157Y-121806910D01*
X102445720Y-121840014D01*
X102499415Y-121873753D01*
X102518700Y-121893038D01*
X102535512Y-121905253D01*
X102577076Y-121951414D01*
X102626247Y-122000585D01*
X102637555Y-122018582D01*
X102647467Y-122029590D01*
X102681376Y-122088322D01*
X102721676Y-122152459D01*
X102726707Y-122166838D01*
X102731120Y-122174481D01*
X102753718Y-122244030D01*
X102780917Y-122321761D01*
X102781948Y-122330913D01*
X102782823Y-122333606D01*
X102790751Y-122409044D01*
X102801000Y-122500000D01*
X102790749Y-122590975D01*
X102782823Y-122666393D01*
X102781948Y-122669084D01*
X102780917Y-122678239D01*
X102753713Y-122755982D01*
X102731120Y-122825518D01*
X102726708Y-122833159D01*
X102721676Y-122847541D01*
X102681369Y-122911688D01*
X102647467Y-122970409D01*
X102637557Y-122981414D01*
X102626247Y-122999415D01*
X102577067Y-123048594D01*
X102535512Y-123094746D01*
X102518704Y-123106957D01*
X102499415Y-123126247D01*
X102445710Y-123159992D01*
X102400157Y-123193089D01*
X102375725Y-123203966D01*
X102347541Y-123221676D01*
X102293391Y-123240623D01*
X102247306Y-123261142D01*
X102215327Y-123267939D01*
X102178239Y-123280917D01*
X102127237Y-123286663D01*
X102083657Y-123295927D01*
X102045023Y-123295927D01*
X102000000Y-123301000D01*
X101954977Y-123295927D01*
X101916343Y-123295927D01*
X101872761Y-123286663D01*
X101821761Y-123280917D01*
X101784674Y-123267939D01*
X101752693Y-123261142D01*
X101706603Y-123240622D01*
X101652459Y-123221676D01*
X101624277Y-123203968D01*
X101599842Y-123193089D01*
X101554282Y-123159987D01*
X101500585Y-123126247D01*
X101481298Y-123106960D01*
X101464487Y-123094746D01*
X101422922Y-123048584D01*
X101373753Y-122999415D01*
X101362444Y-122981418D01*
X101352532Y-122970409D01*
X101318618Y-122911668D01*
X101278324Y-122847541D01*
X101273293Y-122833163D01*
X101268879Y-122825518D01*
X101246272Y-122755942D01*
X101219083Y-122678239D01*
X101218052Y-122669089D01*
X101217176Y-122666393D01*
X101209235Y-122590843D01*
X101199000Y-122500000D01*
X101209233Y-122409176D01*
X101217176Y-122333606D01*
X101218052Y-122330909D01*
X101219083Y-122321761D01*
X101246267Y-122244070D01*
X101268879Y-122174481D01*
X101273293Y-122166834D01*
X101278324Y-122152459D01*
X101318611Y-122088342D01*
X101352532Y-122029590D01*
X101362446Y-122018578D01*
X101373753Y-122000585D01*
X101422913Y-121951424D01*
X101464487Y-121905253D01*
X101481301Y-121893036D01*
X101500585Y-121873753D01*
X101554278Y-121840015D01*
X101599846Y-121806908D01*
X101624284Y-121796027D01*
X101652459Y-121778324D01*
X101706587Y-121759383D01*
X101752689Y-121738858D01*
X101784679Y-121732058D01*
X101821761Y-121719083D01*
X101872759Y-121713336D01*
X101916343Y-121704073D01*
X101954977Y-121704073D01*
X102000000Y-121699000D01*
X102045023Y-121704073D01*
G37*
G36*
X107037439Y-121993929D02*
G01*
X107066305Y-121993929D01*
X107099403Y-122002086D01*
X107142609Y-122007775D01*
X107172182Y-122020024D01*
X107195063Y-122025664D01*
X107229752Y-122043870D01*
X107275500Y-122062820D01*
X107296374Y-122078837D01*
X107312483Y-122087292D01*
X107345420Y-122116471D01*
X107389616Y-122150384D01*
X107402174Y-122166751D01*
X107411740Y-122175225D01*
X107439166Y-122214960D01*
X107477180Y-122264500D01*
X107482910Y-122278334D01*
X107487073Y-122284365D01*
X107505132Y-122331984D01*
X107532225Y-122397391D01*
X107533440Y-122406625D01*
X107534097Y-122408356D01*
X107539179Y-122450216D01*
X107551000Y-122540000D01*
X107539177Y-122629799D01*
X107534097Y-122671643D01*
X107533440Y-122673372D01*
X107532225Y-122682609D01*
X107505128Y-122748026D01*
X107487073Y-122795634D01*
X107482911Y-122801663D01*
X107477180Y-122815500D01*
X107439160Y-122865048D01*
X107411740Y-122904774D01*
X107402177Y-122913245D01*
X107389616Y-122929616D01*
X107345411Y-122963534D01*
X107312483Y-122992707D01*
X107296378Y-123001159D01*
X107275500Y-123017180D01*
X107229743Y-123036132D01*
X107195063Y-123054335D01*
X107172187Y-123059973D01*
X107142609Y-123072225D01*
X107099401Y-123077913D01*
X107066305Y-123086071D01*
X107037439Y-123086071D01*
X107000000Y-123091000D01*
X106962561Y-123086071D01*
X106933695Y-123086071D01*
X106900597Y-123077913D01*
X106857391Y-123072225D01*
X106827814Y-123059973D01*
X106804936Y-123054335D01*
X106770251Y-123036130D01*
X106724500Y-123017180D01*
X106703623Y-123001161D01*
X106687516Y-122992707D01*
X106654580Y-122963529D01*
X106610384Y-122929616D01*
X106597824Y-122913248D01*
X106588259Y-122904774D01*
X106560830Y-122865035D01*
X106522820Y-122815500D01*
X106517090Y-122801666D01*
X106512926Y-122795634D01*
X106494859Y-122747998D01*
X106467775Y-122682609D01*
X106466559Y-122673376D01*
X106465902Y-122671643D01*
X106460809Y-122629697D01*
X106449000Y-122540000D01*
X106460807Y-122450310D01*
X106465902Y-122408356D01*
X106466559Y-122406621D01*
X106467775Y-122397391D01*
X106494855Y-122332012D01*
X106512926Y-122284365D01*
X106517091Y-122278330D01*
X106522820Y-122264500D01*
X106560823Y-122214973D01*
X106588259Y-122175225D01*
X106597827Y-122166748D01*
X106610384Y-122150384D01*
X106654572Y-122116477D01*
X106687516Y-122087292D01*
X106703627Y-122078835D01*
X106724500Y-122062820D01*
X106770242Y-122043872D01*
X106804936Y-122025664D01*
X106827818Y-122020024D01*
X106857391Y-122007775D01*
X106900595Y-122002086D01*
X106933695Y-121993929D01*
X106962561Y-121993929D01*
X107000000Y-121989000D01*
X107037439Y-121993929D01*
G37*
G36*
X102294694Y-118731646D02*
G01*
X102339126Y-118738684D01*
X102344923Y-118741637D01*
X102359479Y-118744533D01*
X102387973Y-118763572D01*
X102413887Y-118776776D01*
X102426278Y-118789167D01*
X102446992Y-118803008D01*
X102460832Y-118823721D01*
X102473223Y-118836112D01*
X102486425Y-118862023D01*
X102505467Y-118890521D01*
X102508362Y-118905078D01*
X102511315Y-118910873D01*
X102518349Y-118955284D01*
X102526000Y-118993750D01*
X102526000Y-119431250D01*
X102518348Y-119469718D01*
X102511315Y-119514126D01*
X102508362Y-119519919D01*
X102505467Y-119534479D01*
X102486423Y-119562979D01*
X102473223Y-119588887D01*
X102460834Y-119601275D01*
X102446992Y-119621992D01*
X102426275Y-119635834D01*
X102413887Y-119648223D01*
X102387979Y-119661423D01*
X102359479Y-119680467D01*
X102344919Y-119683362D01*
X102339126Y-119686315D01*
X102294718Y-119693348D01*
X102256250Y-119701000D01*
X101743750Y-119701000D01*
X101705284Y-119693349D01*
X101660873Y-119686315D01*
X101655078Y-119683362D01*
X101640521Y-119680467D01*
X101612023Y-119661425D01*
X101586112Y-119648223D01*
X101573721Y-119635832D01*
X101553008Y-119621992D01*
X101539167Y-119601278D01*
X101526776Y-119588887D01*
X101513572Y-119562973D01*
X101494533Y-119534479D01*
X101491637Y-119519923D01*
X101488684Y-119514126D01*
X101481646Y-119469694D01*
X101474000Y-119431250D01*
X101474000Y-118993750D01*
X101481646Y-118955309D01*
X101488684Y-118910873D01*
X101491638Y-118905075D01*
X101494533Y-118890521D01*
X101513570Y-118862029D01*
X101526776Y-118836112D01*
X101539169Y-118823718D01*
X101553008Y-118803008D01*
X101573718Y-118789169D01*
X101586112Y-118776776D01*
X101612029Y-118763570D01*
X101640521Y-118744533D01*
X101655075Y-118741638D01*
X101660873Y-118738684D01*
X101705309Y-118731646D01*
X101743750Y-118724000D01*
X102256250Y-118724000D01*
X102294694Y-118731646D01*
G37*
G36*
X117194517Y-118777882D02*
G01*
X117211062Y-118788938D01*
X117222118Y-118805483D01*
X117226000Y-118825000D01*
X117226000Y-120000000D01*
X117226000Y-121175000D01*
X117222118Y-121194517D01*
X117211062Y-121211062D01*
X117194517Y-121222118D01*
X117175000Y-121226000D01*
X116000000Y-121226000D01*
X114825000Y-121226000D01*
X114805483Y-121222118D01*
X114788938Y-121211062D01*
X114777882Y-121194517D01*
X114774000Y-121175000D01*
X114774000Y-120000000D01*
X114774000Y-118837310D01*
X114774000Y-118825000D01*
X114777882Y-118805483D01*
X114788938Y-118788938D01*
X114805483Y-118777882D01*
X114825000Y-118774000D01*
X116000000Y-118774000D01*
X117162690Y-118774000D01*
X117175000Y-118774000D01*
X117194517Y-118777882D01*
G37*
G36*
X119494517Y-120287882D02*
G01*
X119511062Y-120298938D01*
X119522118Y-120315483D01*
X119526000Y-120335000D01*
X119526000Y-120935000D01*
X119522118Y-120954517D01*
X119511062Y-120971062D01*
X119494517Y-120982118D01*
X119475000Y-120986000D01*
X117925000Y-120986000D01*
X117905483Y-120982118D01*
X117888938Y-120971062D01*
X117877882Y-120954517D01*
X117874000Y-120935000D01*
X117874000Y-120335000D01*
X117877882Y-120315483D01*
X117888938Y-120298938D01*
X117905483Y-120287882D01*
X117925000Y-120284000D01*
X119475000Y-120284000D01*
X119494517Y-120287882D01*
G37*
G36*
X129043914Y-120581995D02*
G01*
X129059726Y-120588976D01*
X129067531Y-120590213D01*
X129100039Y-120606776D01*
X129145106Y-120626676D01*
X129223324Y-120704894D01*
X129243226Y-120749967D01*
X129259786Y-120782468D01*
X129261021Y-120790270D01*
X129268005Y-120806086D01*
X129276000Y-120875000D01*
X129276000Y-122125000D01*
X129268005Y-122193914D01*
X129261021Y-122209729D01*
X129259786Y-122217531D01*
X129243229Y-122250024D01*
X129223324Y-122295106D01*
X129145106Y-122373324D01*
X129100024Y-122393229D01*
X129067531Y-122409786D01*
X129059729Y-122411021D01*
X129043914Y-122418005D01*
X128975000Y-122426000D01*
X128225000Y-122426000D01*
X128156086Y-122418005D01*
X128140270Y-122411021D01*
X128132468Y-122409786D01*
X128099967Y-122393226D01*
X128054894Y-122373324D01*
X127976676Y-122295106D01*
X127956776Y-122250039D01*
X127940213Y-122217531D01*
X127938976Y-122209726D01*
X127931995Y-122193914D01*
X127924000Y-122125000D01*
X127924000Y-120875000D01*
X127931995Y-120806086D01*
X127938976Y-120790274D01*
X127940213Y-120782468D01*
X127956780Y-120749953D01*
X127976676Y-120704894D01*
X128054894Y-120626676D01*
X128099953Y-120606780D01*
X128132468Y-120590213D01*
X128140274Y-120588976D01*
X128156086Y-120581995D01*
X128225000Y-120574000D01*
X128975000Y-120574000D01*
X129043914Y-120581995D01*
G37*
G36*
X131843914Y-120581995D02*
G01*
X131859726Y-120588976D01*
X131867531Y-120590213D01*
X131900039Y-120606776D01*
X131945106Y-120626676D01*
X132023324Y-120704894D01*
X132043226Y-120749967D01*
X132059786Y-120782468D01*
X132061021Y-120790270D01*
X132068005Y-120806086D01*
X132076000Y-120875000D01*
X132076000Y-122125000D01*
X132068005Y-122193914D01*
X132061021Y-122209729D01*
X132059786Y-122217531D01*
X132043229Y-122250024D01*
X132023324Y-122295106D01*
X131945106Y-122373324D01*
X131900024Y-122393229D01*
X131867531Y-122409786D01*
X131859729Y-122411021D01*
X131843914Y-122418005D01*
X131775000Y-122426000D01*
X131025000Y-122426000D01*
X130956086Y-122418005D01*
X130940270Y-122411021D01*
X130932468Y-122409786D01*
X130899967Y-122393226D01*
X130854894Y-122373324D01*
X130776676Y-122295106D01*
X130756776Y-122250039D01*
X130740213Y-122217531D01*
X130738976Y-122209726D01*
X130731995Y-122193914D01*
X130724000Y-122125000D01*
X130724000Y-120875000D01*
X130731995Y-120806086D01*
X130738976Y-120790274D01*
X130740213Y-120782468D01*
X130756780Y-120749953D01*
X130776676Y-120704894D01*
X130854894Y-120626676D01*
X130899953Y-120606780D01*
X130932468Y-120590213D01*
X130940274Y-120588976D01*
X130956086Y-120581995D01*
X131025000Y-120574000D01*
X131775000Y-120574000D01*
X131843914Y-120581995D01*
G37*
G36*
X114094517Y-121557882D02*
G01*
X114111062Y-121568938D01*
X114122118Y-121585483D01*
X114126000Y-121605000D01*
X114126000Y-122205000D01*
X114122118Y-122224517D01*
X114111062Y-122241062D01*
X114094517Y-122252118D01*
X114075000Y-122256000D01*
X112525000Y-122256000D01*
X112505483Y-122252118D01*
X112488938Y-122241062D01*
X112477882Y-122224517D01*
X112474000Y-122205000D01*
X112474000Y-121605000D01*
X112477882Y-121585483D01*
X112488938Y-121568938D01*
X112505483Y-121557882D01*
X112525000Y-121554000D01*
X114075000Y-121554000D01*
X114094517Y-121557882D01*
G37*
G36*
X119494517Y-121557882D02*
G01*
X119511062Y-121568938D01*
X119522118Y-121585483D01*
X119526000Y-121605000D01*
X119526000Y-122205000D01*
X119522118Y-122224517D01*
X119511062Y-122241062D01*
X119494517Y-122252118D01*
X119475000Y-122256000D01*
X117925000Y-122256000D01*
X117905483Y-122252118D01*
X117888938Y-122241062D01*
X117877882Y-122224517D01*
X117874000Y-122205000D01*
X117874000Y-121605000D01*
X117877882Y-121585483D01*
X117888938Y-121568938D01*
X117905483Y-121557882D01*
X117925000Y-121554000D01*
X119475000Y-121554000D01*
X119494517Y-121557882D01*
G37*
G36*
X121573539Y-120742190D02*
G01*
X121611016Y-120747124D01*
X121620443Y-120751519D01*
X121641116Y-120755632D01*
X121668499Y-120773929D01*
X121681718Y-120780093D01*
X121689759Y-120788134D01*
X121712003Y-120802997D01*
X121726865Y-120825240D01*
X121734906Y-120833281D01*
X121741068Y-120846497D01*
X121759368Y-120873884D01*
X121763480Y-120894558D01*
X121767875Y-120903983D01*
X121772807Y-120941449D01*
X121776000Y-120957500D01*
X121776000Y-121292500D01*
X121772806Y-121308553D01*
X121767875Y-121346016D01*
X121763480Y-121355439D01*
X121759368Y-121376116D01*
X121741067Y-121403504D01*
X121734906Y-121416718D01*
X121726867Y-121424756D01*
X121712003Y-121447003D01*
X121689756Y-121461867D01*
X121681718Y-121469906D01*
X121668504Y-121476067D01*
X121641116Y-121494368D01*
X121620439Y-121498480D01*
X121611016Y-121502875D01*
X121573552Y-121507806D01*
X121557500Y-121511000D01*
X120942500Y-121511000D01*
X120926448Y-121507807D01*
X120888983Y-121502875D01*
X120879558Y-121498480D01*
X120858884Y-121494368D01*
X120831497Y-121476068D01*
X120818281Y-121469906D01*
X120810240Y-121461865D01*
X120787997Y-121447003D01*
X120773134Y-121424759D01*
X120765093Y-121416718D01*
X120758929Y-121403499D01*
X120740632Y-121376116D01*
X120736519Y-121355443D01*
X120732124Y-121346016D01*
X120727190Y-121308537D01*
X120724000Y-121292500D01*
X120724000Y-120957500D01*
X120727189Y-120941462D01*
X120732124Y-120903983D01*
X120736520Y-120894555D01*
X120740632Y-120873884D01*
X120758927Y-120846502D01*
X120765093Y-120833281D01*
X120773136Y-120825237D01*
X120787997Y-120802997D01*
X120810237Y-120788136D01*
X120818281Y-120780093D01*
X120831502Y-120773927D01*
X120858884Y-120755632D01*
X120879555Y-120751520D01*
X120888983Y-120747124D01*
X120926464Y-120742189D01*
X120942500Y-120739000D01*
X121557500Y-120739000D01*
X121573539Y-120742190D01*
G37*
G36*
X123073539Y-120742190D02*
G01*
X123111016Y-120747124D01*
X123120443Y-120751519D01*
X123141116Y-120755632D01*
X123168499Y-120773929D01*
X123181718Y-120780093D01*
X123189759Y-120788134D01*
X123212003Y-120802997D01*
X123226865Y-120825240D01*
X123234906Y-120833281D01*
X123241068Y-120846497D01*
X123259368Y-120873884D01*
X123263480Y-120894558D01*
X123267875Y-120903983D01*
X123272807Y-120941449D01*
X123276000Y-120957500D01*
X123276000Y-121292500D01*
X123272806Y-121308553D01*
X123267875Y-121346016D01*
X123263480Y-121355439D01*
X123259368Y-121376116D01*
X123241067Y-121403504D01*
X123234906Y-121416718D01*
X123226867Y-121424756D01*
X123212003Y-121447003D01*
X123189756Y-121461867D01*
X123181718Y-121469906D01*
X123168504Y-121476067D01*
X123141116Y-121494368D01*
X123120439Y-121498480D01*
X123111016Y-121502875D01*
X123073552Y-121507806D01*
X123057500Y-121511000D01*
X122442500Y-121511000D01*
X122426448Y-121507807D01*
X122388983Y-121502875D01*
X122379558Y-121498480D01*
X122358884Y-121494368D01*
X122331497Y-121476068D01*
X122318281Y-121469906D01*
X122310240Y-121461865D01*
X122287997Y-121447003D01*
X122273134Y-121424759D01*
X122265093Y-121416718D01*
X122258929Y-121403499D01*
X122240632Y-121376116D01*
X122236519Y-121355443D01*
X122232124Y-121346016D01*
X122227190Y-121308537D01*
X122224000Y-121292500D01*
X122224000Y-120957500D01*
X122227189Y-120941462D01*
X122232124Y-120903983D01*
X122236520Y-120894555D01*
X122240632Y-120873884D01*
X122258927Y-120846502D01*
X122265093Y-120833281D01*
X122273136Y-120825237D01*
X122287997Y-120802997D01*
X122310237Y-120788136D01*
X122318281Y-120780093D01*
X122331502Y-120773927D01*
X122358884Y-120755632D01*
X122379555Y-120751520D01*
X122388983Y-120747124D01*
X122426464Y-120742189D01*
X122442500Y-120739000D01*
X123057500Y-120739000D01*
X123073539Y-120742190D01*
G37*
G36*
X102294694Y-120306646D02*
G01*
X102339126Y-120313684D01*
X102344923Y-120316637D01*
X102359479Y-120319533D01*
X102387973Y-120338572D01*
X102413887Y-120351776D01*
X102426278Y-120364167D01*
X102446992Y-120378008D01*
X102460832Y-120398721D01*
X102473223Y-120411112D01*
X102486425Y-120437023D01*
X102505467Y-120465521D01*
X102508362Y-120480078D01*
X102511315Y-120485873D01*
X102518349Y-120530284D01*
X102526000Y-120568750D01*
X102526000Y-121006250D01*
X102518348Y-121044718D01*
X102511315Y-121089126D01*
X102508362Y-121094919D01*
X102505467Y-121109479D01*
X102486423Y-121137979D01*
X102473223Y-121163887D01*
X102460834Y-121176275D01*
X102446992Y-121196992D01*
X102426275Y-121210834D01*
X102413887Y-121223223D01*
X102387979Y-121236423D01*
X102359479Y-121255467D01*
X102344919Y-121258362D01*
X102339126Y-121261315D01*
X102294718Y-121268348D01*
X102256250Y-121276000D01*
X101743750Y-121276000D01*
X101705284Y-121268349D01*
X101660873Y-121261315D01*
X101655078Y-121258362D01*
X101640521Y-121255467D01*
X101612023Y-121236425D01*
X101586112Y-121223223D01*
X101573721Y-121210832D01*
X101553008Y-121196992D01*
X101539167Y-121176278D01*
X101526776Y-121163887D01*
X101513572Y-121137973D01*
X101494533Y-121109479D01*
X101491637Y-121094923D01*
X101488684Y-121089126D01*
X101481646Y-121044694D01*
X101474000Y-121006250D01*
X101474000Y-120568750D01*
X101481646Y-120530309D01*
X101488684Y-120485873D01*
X101491638Y-120480075D01*
X101494533Y-120465521D01*
X101513570Y-120437029D01*
X101526776Y-120411112D01*
X101539169Y-120398718D01*
X101553008Y-120378008D01*
X101573718Y-120364169D01*
X101586112Y-120351776D01*
X101612029Y-120338570D01*
X101640521Y-120319533D01*
X101655075Y-120316638D01*
X101660873Y-120313684D01*
X101705309Y-120306646D01*
X101743750Y-120299000D01*
X102256250Y-120299000D01*
X102294694Y-120306646D01*
G37*
G36*
X109577439Y-119453929D02*
G01*
X109606305Y-119453929D01*
X109639403Y-119462086D01*
X109682609Y-119467775D01*
X109712182Y-119480024D01*
X109735063Y-119485664D01*
X109769752Y-119503870D01*
X109815500Y-119522820D01*
X109836374Y-119538837D01*
X109852483Y-119547292D01*
X109885420Y-119576471D01*
X109929616Y-119610384D01*
X109942174Y-119626751D01*
X109951740Y-119635225D01*
X109979166Y-119674960D01*
X110017180Y-119724500D01*
X110022910Y-119738334D01*
X110027073Y-119744365D01*
X110045132Y-119791984D01*
X110072225Y-119857391D01*
X110073440Y-119866625D01*
X110074097Y-119868356D01*
X110079179Y-119910212D01*
X110091000Y-120000000D01*
X110079178Y-120089795D01*
X110074097Y-120131643D01*
X110073440Y-120133372D01*
X110072225Y-120142609D01*
X110045128Y-120208026D01*
X110027073Y-120255634D01*
X110022911Y-120261663D01*
X110017180Y-120275500D01*
X109979160Y-120325048D01*
X109951740Y-120364774D01*
X109942177Y-120373245D01*
X109929616Y-120389616D01*
X109885411Y-120423534D01*
X109852483Y-120452707D01*
X109836378Y-120461159D01*
X109815500Y-120477180D01*
X109769743Y-120496132D01*
X109735063Y-120514335D01*
X109712187Y-120519973D01*
X109682609Y-120532225D01*
X109639401Y-120537913D01*
X109606305Y-120546071D01*
X109577439Y-120546071D01*
X109540000Y-120551000D01*
X109502561Y-120546071D01*
X109473695Y-120546071D01*
X109440597Y-120537913D01*
X109397391Y-120532225D01*
X109367814Y-120519973D01*
X109344936Y-120514335D01*
X109310251Y-120496130D01*
X109264500Y-120477180D01*
X109243623Y-120461161D01*
X109227516Y-120452707D01*
X109194580Y-120423529D01*
X109150384Y-120389616D01*
X109137824Y-120373248D01*
X109128259Y-120364774D01*
X109100832Y-120325039D01*
X109062820Y-120275500D01*
X109057089Y-120261664D01*
X109052926Y-120255633D01*
X109034864Y-120208008D01*
X109007775Y-120142609D01*
X109006559Y-120133375D01*
X108981280Y-120066720D01*
X108808720Y-120066720D01*
X108783440Y-120133374D01*
X108782225Y-120142609D01*
X108755127Y-120208029D01*
X108737073Y-120255633D01*
X108732912Y-120261660D01*
X108727180Y-120275500D01*
X108689157Y-120325052D01*
X108661740Y-120364774D01*
X108652177Y-120373245D01*
X108639616Y-120389616D01*
X108595411Y-120423534D01*
X108562483Y-120452707D01*
X108546378Y-120461159D01*
X108525500Y-120477180D01*
X108479743Y-120496132D01*
X108445063Y-120514335D01*
X108422187Y-120519973D01*
X108392609Y-120532225D01*
X108349401Y-120537913D01*
X108316305Y-120546071D01*
X108287439Y-120546071D01*
X108250000Y-120551000D01*
X108212561Y-120546071D01*
X108183695Y-120546071D01*
X108150597Y-120537913D01*
X108107391Y-120532225D01*
X108077814Y-120519973D01*
X108054936Y-120514335D01*
X108020251Y-120496130D01*
X107974500Y-120477180D01*
X107953623Y-120461161D01*
X107937516Y-120452707D01*
X107904580Y-120423529D01*
X107860384Y-120389616D01*
X107847824Y-120373248D01*
X107838259Y-120364774D01*
X107810830Y-120325035D01*
X107772820Y-120275500D01*
X107767090Y-120261666D01*
X107762926Y-120255634D01*
X107744859Y-120207998D01*
X107717775Y-120142609D01*
X107716559Y-120133376D01*
X107715902Y-120131643D01*
X107710809Y-120089697D01*
X107699000Y-120000000D01*
X107710807Y-119910310D01*
X107715902Y-119868356D01*
X107716559Y-119866621D01*
X107717775Y-119857391D01*
X107744855Y-119792012D01*
X107762926Y-119744365D01*
X107767091Y-119738330D01*
X107772820Y-119724500D01*
X107810823Y-119674973D01*
X107838259Y-119635225D01*
X107847827Y-119626748D01*
X107860384Y-119610384D01*
X107904572Y-119576477D01*
X107937516Y-119547292D01*
X107953627Y-119538835D01*
X107974500Y-119522820D01*
X108020242Y-119503872D01*
X108054936Y-119485664D01*
X108077818Y-119480024D01*
X108107391Y-119467775D01*
X108150595Y-119462086D01*
X108183695Y-119453929D01*
X108212561Y-119453929D01*
X108250000Y-119449000D01*
X108287439Y-119453929D01*
X108316305Y-119453929D01*
X108349403Y-119462086D01*
X108392609Y-119467775D01*
X108422182Y-119480024D01*
X108445063Y-119485664D01*
X108479752Y-119503870D01*
X108525500Y-119522820D01*
X108546374Y-119538837D01*
X108562483Y-119547292D01*
X108595420Y-119576471D01*
X108639616Y-119610384D01*
X108652174Y-119626751D01*
X108661740Y-119635225D01*
X108689166Y-119674960D01*
X108727180Y-119724500D01*
X108732910Y-119738334D01*
X108737073Y-119744365D01*
X108755134Y-119791989D01*
X108782225Y-119857391D01*
X108783440Y-119866623D01*
X108808720Y-119933279D01*
X108981280Y-119933279D01*
X109006559Y-119866622D01*
X109007775Y-119857391D01*
X109034856Y-119792010D01*
X109052926Y-119744365D01*
X109057091Y-119738330D01*
X109062820Y-119724500D01*
X109100823Y-119674973D01*
X109128259Y-119635225D01*
X109137827Y-119626748D01*
X109150384Y-119610384D01*
X109194572Y-119576477D01*
X109227516Y-119547292D01*
X109243627Y-119538835D01*
X109264500Y-119522820D01*
X109310242Y-119503872D01*
X109344936Y-119485664D01*
X109367818Y-119480024D01*
X109397391Y-119467775D01*
X109440595Y-119462086D01*
X109473695Y-119453929D01*
X109502561Y-119453929D01*
X109540000Y-119449000D01*
X109577439Y-119453929D01*
G37*
G36*
X114094517Y-120287882D02*
G01*
X114111062Y-120298938D01*
X114122118Y-120315483D01*
X114126000Y-120335000D01*
X114126000Y-120935000D01*
X114122118Y-120954517D01*
X114111062Y-120971062D01*
X114094517Y-120982118D01*
X114075000Y-120986000D01*
X112525000Y-120986000D01*
X112505483Y-120982118D01*
X112488938Y-120971062D01*
X112477882Y-120954517D01*
X112474000Y-120935000D01*
X112474000Y-120335000D01*
X112477882Y-120315483D01*
X112488938Y-120298938D01*
X112505483Y-120287882D01*
X112525000Y-120284000D01*
X114075000Y-120284000D01*
X114094517Y-120287882D01*
G37*
G36*
X105787439Y-119453929D02*
G01*
X105816305Y-119453929D01*
X105849403Y-119462086D01*
X105892609Y-119467775D01*
X105922182Y-119480024D01*
X105945063Y-119485664D01*
X105979752Y-119503870D01*
X106025500Y-119522820D01*
X106046374Y-119538837D01*
X106062483Y-119547292D01*
X106095420Y-119576471D01*
X106139616Y-119610384D01*
X106152174Y-119626751D01*
X106161740Y-119635225D01*
X106189166Y-119674960D01*
X106227180Y-119724500D01*
X106232910Y-119738334D01*
X106237073Y-119744365D01*
X106255132Y-119791984D01*
X106282225Y-119857391D01*
X106283440Y-119866625D01*
X106284097Y-119868356D01*
X106289179Y-119910212D01*
X106301000Y-120000000D01*
X106289178Y-120089795D01*
X106284097Y-120131643D01*
X106283440Y-120133372D01*
X106282225Y-120142609D01*
X106255128Y-120208026D01*
X106237073Y-120255634D01*
X106232911Y-120261663D01*
X106227180Y-120275500D01*
X106189160Y-120325048D01*
X106161740Y-120364774D01*
X106152177Y-120373245D01*
X106139616Y-120389616D01*
X106095411Y-120423534D01*
X106062483Y-120452707D01*
X106046378Y-120461159D01*
X106025500Y-120477180D01*
X105979743Y-120496132D01*
X105945063Y-120514335D01*
X105922187Y-120519973D01*
X105892609Y-120532225D01*
X105849401Y-120537913D01*
X105816305Y-120546071D01*
X105787439Y-120546071D01*
X105750000Y-120551000D01*
X105712561Y-120546071D01*
X105683695Y-120546071D01*
X105650597Y-120537913D01*
X105607391Y-120532225D01*
X105577814Y-120519973D01*
X105554936Y-120514335D01*
X105520251Y-120496130D01*
X105474500Y-120477180D01*
X105453623Y-120461161D01*
X105437516Y-120452707D01*
X105404580Y-120423529D01*
X105360384Y-120389616D01*
X105347824Y-120373248D01*
X105338259Y-120364774D01*
X105310830Y-120325035D01*
X105272820Y-120275500D01*
X105267090Y-120261666D01*
X105262926Y-120255634D01*
X105244859Y-120207998D01*
X105217775Y-120142609D01*
X105216559Y-120133376D01*
X105215902Y-120131643D01*
X105210809Y-120089697D01*
X105199000Y-120000000D01*
X105210807Y-119910310D01*
X105215902Y-119868356D01*
X105216559Y-119866621D01*
X105217775Y-119857391D01*
X105244855Y-119792012D01*
X105262926Y-119744365D01*
X105267091Y-119738330D01*
X105272820Y-119724500D01*
X105310823Y-119674973D01*
X105338259Y-119635225D01*
X105347827Y-119626748D01*
X105360384Y-119610384D01*
X105404572Y-119576477D01*
X105437516Y-119547292D01*
X105453627Y-119538835D01*
X105474500Y-119522820D01*
X105520242Y-119503872D01*
X105554936Y-119485664D01*
X105577818Y-119480024D01*
X105607391Y-119467775D01*
X105650595Y-119462086D01*
X105683695Y-119453929D01*
X105712561Y-119453929D01*
X105750000Y-119449000D01*
X105787439Y-119453929D01*
G37*
G36*
X121573539Y-118992190D02*
G01*
X121611016Y-118997124D01*
X121620443Y-119001519D01*
X121641116Y-119005632D01*
X121668499Y-119023929D01*
X121681718Y-119030093D01*
X121689759Y-119038134D01*
X121712003Y-119052997D01*
X121726865Y-119075240D01*
X121734906Y-119083281D01*
X121741068Y-119096497D01*
X121759368Y-119123884D01*
X121763480Y-119144558D01*
X121767875Y-119153983D01*
X121772807Y-119191449D01*
X121776000Y-119207500D01*
X121776000Y-119542500D01*
X121772806Y-119558553D01*
X121767875Y-119596016D01*
X121763480Y-119605439D01*
X121759368Y-119626116D01*
X121741067Y-119653504D01*
X121734906Y-119666718D01*
X121726867Y-119674756D01*
X121712003Y-119697003D01*
X121689756Y-119711867D01*
X121681718Y-119719906D01*
X121668504Y-119726067D01*
X121641116Y-119744368D01*
X121620439Y-119748480D01*
X121611016Y-119752875D01*
X121573552Y-119757806D01*
X121557500Y-119761000D01*
X120942500Y-119761000D01*
X120926448Y-119757807D01*
X120888983Y-119752875D01*
X120879558Y-119748480D01*
X120858884Y-119744368D01*
X120831497Y-119726068D01*
X120818281Y-119719906D01*
X120810240Y-119711865D01*
X120787997Y-119697003D01*
X120773134Y-119674759D01*
X120765093Y-119666718D01*
X120758929Y-119653499D01*
X120740632Y-119626116D01*
X120736519Y-119605443D01*
X120732124Y-119596016D01*
X120727190Y-119558537D01*
X120724000Y-119542500D01*
X120724000Y-119207500D01*
X120727189Y-119191462D01*
X120732124Y-119153983D01*
X120736520Y-119144555D01*
X120740632Y-119123884D01*
X120758927Y-119096502D01*
X120765093Y-119083281D01*
X120773136Y-119075237D01*
X120787997Y-119052997D01*
X120810237Y-119038136D01*
X120818281Y-119030093D01*
X120831502Y-119023927D01*
X120858884Y-119005632D01*
X120879555Y-119001520D01*
X120888983Y-118997124D01*
X120926464Y-118992189D01*
X120942500Y-118989000D01*
X121557500Y-118989000D01*
X121573539Y-118992190D01*
G37*
G36*
X123073539Y-118992190D02*
G01*
X123111016Y-118997124D01*
X123120443Y-119001519D01*
X123141116Y-119005632D01*
X123168499Y-119023929D01*
X123181718Y-119030093D01*
X123189759Y-119038134D01*
X123212003Y-119052997D01*
X123226865Y-119075240D01*
X123234906Y-119083281D01*
X123241068Y-119096497D01*
X123259368Y-119123884D01*
X123263480Y-119144558D01*
X123267875Y-119153983D01*
X123272807Y-119191449D01*
X123276000Y-119207500D01*
X123276000Y-119542500D01*
X123272806Y-119558553D01*
X123267875Y-119596016D01*
X123263480Y-119605439D01*
X123259368Y-119626116D01*
X123241067Y-119653504D01*
X123234906Y-119666718D01*
X123226867Y-119674756D01*
X123212003Y-119697003D01*
X123189756Y-119711867D01*
X123181718Y-119719906D01*
X123168504Y-119726067D01*
X123141116Y-119744368D01*
X123120439Y-119748480D01*
X123111016Y-119752875D01*
X123073552Y-119757806D01*
X123057500Y-119761000D01*
X122442500Y-119761000D01*
X122426448Y-119757807D01*
X122388983Y-119752875D01*
X122379558Y-119748480D01*
X122358884Y-119744368D01*
X122331497Y-119726068D01*
X122318281Y-119719906D01*
X122310240Y-119711865D01*
X122287997Y-119697003D01*
X122273134Y-119674759D01*
X122265093Y-119666718D01*
X122258929Y-119653499D01*
X122240632Y-119626116D01*
X122236519Y-119605443D01*
X122232124Y-119596016D01*
X122227190Y-119558537D01*
X122224000Y-119542500D01*
X122224000Y-119207500D01*
X122227189Y-119191462D01*
X122232124Y-119153983D01*
X122236520Y-119144555D01*
X122240632Y-119123884D01*
X122258927Y-119096502D01*
X122265093Y-119083281D01*
X122273136Y-119075237D01*
X122287997Y-119052997D01*
X122310237Y-119038136D01*
X122318281Y-119030093D01*
X122331502Y-119023927D01*
X122358884Y-119005632D01*
X122379555Y-119001520D01*
X122388983Y-118997124D01*
X122426464Y-118992189D01*
X122442500Y-118989000D01*
X123057500Y-118989000D01*
X123073539Y-118992190D01*
G37*
G36*
X114094517Y-119017882D02*
G01*
X114111062Y-119028938D01*
X114122118Y-119045483D01*
X114126000Y-119065000D01*
X114126000Y-119665000D01*
X114122118Y-119684517D01*
X114111062Y-119701062D01*
X114094517Y-119712118D01*
X114075000Y-119716000D01*
X112525000Y-119716000D01*
X112505483Y-119712118D01*
X112488938Y-119701062D01*
X112477882Y-119684517D01*
X112474000Y-119665000D01*
X112474000Y-119065000D01*
X112477882Y-119045483D01*
X112488938Y-119028938D01*
X112505483Y-119017882D01*
X112525000Y-119014000D01*
X114075000Y-119014000D01*
X114094517Y-119017882D01*
G37*
G36*
X119494517Y-119017882D02*
G01*
X119511062Y-119028938D01*
X119522118Y-119045483D01*
X119526000Y-119065000D01*
X119526000Y-119665000D01*
X119522118Y-119684517D01*
X119511062Y-119701062D01*
X119494517Y-119712118D01*
X119475000Y-119716000D01*
X117925000Y-119716000D01*
X117905483Y-119712118D01*
X117888938Y-119701062D01*
X117877882Y-119684517D01*
X117874000Y-119665000D01*
X117874000Y-119065000D01*
X117877882Y-119045483D01*
X117888938Y-119028938D01*
X117905483Y-119017882D01*
X117925000Y-119014000D01*
X119475000Y-119014000D01*
X119494517Y-119017882D01*
G37*
G36*
X126469694Y-118481646D02*
G01*
X126514126Y-118488684D01*
X126519923Y-118491637D01*
X126534479Y-118494533D01*
X126562973Y-118513572D01*
X126588887Y-118526776D01*
X126601278Y-118539167D01*
X126621992Y-118553008D01*
X126635832Y-118573721D01*
X126648223Y-118586112D01*
X126661425Y-118612023D01*
X126680467Y-118640521D01*
X126683362Y-118655078D01*
X126686315Y-118660873D01*
X126693349Y-118705284D01*
X126701000Y-118743750D01*
X126701000Y-119256250D01*
X126693348Y-119294718D01*
X126686315Y-119339126D01*
X126683362Y-119344919D01*
X126680467Y-119359479D01*
X126661423Y-119387979D01*
X126648223Y-119413887D01*
X126635834Y-119426275D01*
X126621992Y-119446992D01*
X126601275Y-119460834D01*
X126588887Y-119473223D01*
X126562979Y-119486423D01*
X126534479Y-119505467D01*
X126519919Y-119508362D01*
X126514126Y-119511315D01*
X126469718Y-119518348D01*
X126431250Y-119526000D01*
X125993750Y-119526000D01*
X125955284Y-119518349D01*
X125910873Y-119511315D01*
X125905078Y-119508362D01*
X125890521Y-119505467D01*
X125862023Y-119486425D01*
X125836112Y-119473223D01*
X125823721Y-119460832D01*
X125803008Y-119446992D01*
X125789167Y-119426278D01*
X125776776Y-119413887D01*
X125763572Y-119387973D01*
X125744533Y-119359479D01*
X125741637Y-119344923D01*
X125738684Y-119339126D01*
X125731646Y-119294694D01*
X125724000Y-119256250D01*
X125724000Y-118743750D01*
X125731646Y-118705309D01*
X125738684Y-118660873D01*
X125741638Y-118655075D01*
X125744533Y-118640521D01*
X125763570Y-118612029D01*
X125776776Y-118586112D01*
X125789169Y-118573718D01*
X125803008Y-118553008D01*
X125823718Y-118539169D01*
X125836112Y-118526776D01*
X125862029Y-118513570D01*
X125890521Y-118494533D01*
X125905075Y-118491638D01*
X125910873Y-118488684D01*
X125955309Y-118481646D01*
X125993750Y-118474000D01*
X126431250Y-118474000D01*
X126469694Y-118481646D01*
G37*
G36*
X128044694Y-118481646D02*
G01*
X128089126Y-118488684D01*
X128094923Y-118491637D01*
X128109479Y-118494533D01*
X128137973Y-118513572D01*
X128163887Y-118526776D01*
X128176278Y-118539167D01*
X128196992Y-118553008D01*
X128210832Y-118573721D01*
X128223223Y-118586112D01*
X128236425Y-118612023D01*
X128255467Y-118640521D01*
X128258362Y-118655078D01*
X128261315Y-118660873D01*
X128268349Y-118705284D01*
X128276000Y-118743750D01*
X128276000Y-119256250D01*
X128268348Y-119294718D01*
X128261315Y-119339126D01*
X128258362Y-119344919D01*
X128255467Y-119359479D01*
X128236423Y-119387979D01*
X128223223Y-119413887D01*
X128210834Y-119426275D01*
X128196992Y-119446992D01*
X128176275Y-119460834D01*
X128163887Y-119473223D01*
X128137979Y-119486423D01*
X128109479Y-119505467D01*
X128094919Y-119508362D01*
X128089126Y-119511315D01*
X128044718Y-119518348D01*
X128006250Y-119526000D01*
X127568750Y-119526000D01*
X127530284Y-119518349D01*
X127485873Y-119511315D01*
X127480078Y-119508362D01*
X127465521Y-119505467D01*
X127437023Y-119486425D01*
X127411112Y-119473223D01*
X127398721Y-119460832D01*
X127378008Y-119446992D01*
X127364167Y-119426278D01*
X127351776Y-119413887D01*
X127338572Y-119387973D01*
X127319533Y-119359479D01*
X127316637Y-119344923D01*
X127313684Y-119339126D01*
X127306646Y-119294694D01*
X127299000Y-119256250D01*
X127299000Y-118743750D01*
X127306646Y-118705309D01*
X127313684Y-118660873D01*
X127316638Y-118655075D01*
X127319533Y-118640521D01*
X127338570Y-118612029D01*
X127351776Y-118586112D01*
X127364169Y-118573718D01*
X127378008Y-118553008D01*
X127398718Y-118539169D01*
X127411112Y-118526776D01*
X127437029Y-118513570D01*
X127465521Y-118494533D01*
X127480075Y-118491638D01*
X127485873Y-118488684D01*
X127530309Y-118481646D01*
X127568750Y-118474000D01*
X128006250Y-118474000D01*
X128044694Y-118481646D01*
G37*
G36*
X129469694Y-118481646D02*
G01*
X129514126Y-118488684D01*
X129519923Y-118491637D01*
X129534479Y-118494533D01*
X129562973Y-118513572D01*
X129588887Y-118526776D01*
X129601278Y-118539167D01*
X129621992Y-118553008D01*
X129635832Y-118573721D01*
X129648223Y-118586112D01*
X129661425Y-118612023D01*
X129680467Y-118640521D01*
X129683362Y-118655078D01*
X129686315Y-118660873D01*
X129693349Y-118705284D01*
X129701000Y-118743750D01*
X129701000Y-119256250D01*
X129693348Y-119294718D01*
X129686315Y-119339126D01*
X129683362Y-119344919D01*
X129680467Y-119359479D01*
X129661423Y-119387979D01*
X129648223Y-119413887D01*
X129635834Y-119426275D01*
X129621992Y-119446992D01*
X129601275Y-119460834D01*
X129588887Y-119473223D01*
X129562979Y-119486423D01*
X129534479Y-119505467D01*
X129519919Y-119508362D01*
X129514126Y-119511315D01*
X129469718Y-119518348D01*
X129431250Y-119526000D01*
X128993750Y-119526000D01*
X128955284Y-119518349D01*
X128910873Y-119511315D01*
X128905078Y-119508362D01*
X128890521Y-119505467D01*
X128862023Y-119486425D01*
X128836112Y-119473223D01*
X128823721Y-119460832D01*
X128803008Y-119446992D01*
X128789167Y-119426278D01*
X128776776Y-119413887D01*
X128763572Y-119387973D01*
X128744533Y-119359479D01*
X128741637Y-119344923D01*
X128738684Y-119339126D01*
X128731646Y-119294694D01*
X128724000Y-119256250D01*
X128724000Y-118743750D01*
X128731646Y-118705309D01*
X128738684Y-118660873D01*
X128741638Y-118655075D01*
X128744533Y-118640521D01*
X128763570Y-118612029D01*
X128776776Y-118586112D01*
X128789169Y-118573718D01*
X128803008Y-118553008D01*
X128823718Y-118539169D01*
X128836112Y-118526776D01*
X128862029Y-118513570D01*
X128890521Y-118494533D01*
X128905075Y-118491638D01*
X128910873Y-118488684D01*
X128955309Y-118481646D01*
X128993750Y-118474000D01*
X129431250Y-118474000D01*
X129469694Y-118481646D01*
G37*
G36*
X131044694Y-118481646D02*
G01*
X131089126Y-118488684D01*
X131094923Y-118491637D01*
X131109479Y-118494533D01*
X131137973Y-118513572D01*
X131163887Y-118526776D01*
X131176278Y-118539167D01*
X131196992Y-118553008D01*
X131210832Y-118573721D01*
X131223223Y-118586112D01*
X131236425Y-118612023D01*
X131255467Y-118640521D01*
X131258362Y-118655078D01*
X131261315Y-118660873D01*
X131268349Y-118705284D01*
X131276000Y-118743750D01*
X131276000Y-119256250D01*
X131268348Y-119294718D01*
X131261315Y-119339126D01*
X131258362Y-119344919D01*
X131255467Y-119359479D01*
X131236423Y-119387979D01*
X131223223Y-119413887D01*
X131210834Y-119426275D01*
X131196992Y-119446992D01*
X131176275Y-119460834D01*
X131163887Y-119473223D01*
X131137979Y-119486423D01*
X131109479Y-119505467D01*
X131094919Y-119508362D01*
X131089126Y-119511315D01*
X131044718Y-119518348D01*
X131006250Y-119526000D01*
X130568750Y-119526000D01*
X130530284Y-119518349D01*
X130485873Y-119511315D01*
X130480078Y-119508362D01*
X130465521Y-119505467D01*
X130437023Y-119486425D01*
X130411112Y-119473223D01*
X130398721Y-119460832D01*
X130378008Y-119446992D01*
X130364167Y-119426278D01*
X130351776Y-119413887D01*
X130338572Y-119387973D01*
X130319533Y-119359479D01*
X130316637Y-119344923D01*
X130313684Y-119339126D01*
X130306646Y-119294694D01*
X130299000Y-119256250D01*
X130299000Y-118743750D01*
X130306646Y-118705309D01*
X130313684Y-118660873D01*
X130316638Y-118655075D01*
X130319533Y-118640521D01*
X130338570Y-118612029D01*
X130351776Y-118586112D01*
X130364169Y-118573718D01*
X130378008Y-118553008D01*
X130398718Y-118539169D01*
X130411112Y-118526776D01*
X130437029Y-118513570D01*
X130465521Y-118494533D01*
X130480075Y-118491638D01*
X130485873Y-118488684D01*
X130530309Y-118481646D01*
X130568750Y-118474000D01*
X131006250Y-118474000D01*
X131044694Y-118481646D01*
G37*
G36*
X102045023Y-116704073D02*
G01*
X102083657Y-116704073D01*
X102127240Y-116713336D01*
X102178239Y-116719083D01*
X102215321Y-116732058D01*
X102247306Y-116738857D01*
X102293401Y-116759379D01*
X102347541Y-116778324D01*
X102375719Y-116796029D01*
X102400157Y-116806910D01*
X102445720Y-116840014D01*
X102499415Y-116873753D01*
X102518700Y-116893038D01*
X102535512Y-116905253D01*
X102577076Y-116951414D01*
X102626247Y-117000585D01*
X102637555Y-117018582D01*
X102647467Y-117029590D01*
X102681376Y-117088322D01*
X102721676Y-117152459D01*
X102726707Y-117166838D01*
X102731120Y-117174481D01*
X102753718Y-117244030D01*
X102780917Y-117321761D01*
X102781948Y-117330913D01*
X102782823Y-117333606D01*
X102790750Y-117409038D01*
X102801000Y-117500000D01*
X102790750Y-117590969D01*
X102782823Y-117666393D01*
X102781948Y-117669084D01*
X102780917Y-117678239D01*
X102753713Y-117755982D01*
X102731120Y-117825518D01*
X102726708Y-117833159D01*
X102721676Y-117847541D01*
X102681369Y-117911688D01*
X102647467Y-117970409D01*
X102637557Y-117981414D01*
X102626247Y-117999415D01*
X102577067Y-118048594D01*
X102535512Y-118094746D01*
X102518704Y-118106957D01*
X102499415Y-118126247D01*
X102445710Y-118159992D01*
X102400157Y-118193089D01*
X102375725Y-118203966D01*
X102347541Y-118221676D01*
X102293391Y-118240623D01*
X102247306Y-118261142D01*
X102215327Y-118267939D01*
X102178239Y-118280917D01*
X102127237Y-118286663D01*
X102083657Y-118295927D01*
X102045023Y-118295927D01*
X102000000Y-118301000D01*
X101954977Y-118295927D01*
X101916343Y-118295927D01*
X101872761Y-118286663D01*
X101821761Y-118280917D01*
X101784674Y-118267939D01*
X101752693Y-118261142D01*
X101706603Y-118240622D01*
X101652459Y-118221676D01*
X101624277Y-118203968D01*
X101599842Y-118193089D01*
X101554282Y-118159987D01*
X101500585Y-118126247D01*
X101481298Y-118106960D01*
X101464487Y-118094746D01*
X101422922Y-118048584D01*
X101373753Y-117999415D01*
X101362444Y-117981418D01*
X101352532Y-117970409D01*
X101318618Y-117911668D01*
X101278324Y-117847541D01*
X101273293Y-117833163D01*
X101268879Y-117825518D01*
X101246272Y-117755942D01*
X101219083Y-117678239D01*
X101218052Y-117669089D01*
X101217176Y-117666393D01*
X101209235Y-117590837D01*
X101199000Y-117500000D01*
X101209234Y-117409170D01*
X101217176Y-117333606D01*
X101218052Y-117330909D01*
X101219083Y-117321761D01*
X101246267Y-117244070D01*
X101268879Y-117174481D01*
X101273293Y-117166834D01*
X101278324Y-117152459D01*
X101318611Y-117088342D01*
X101352532Y-117029590D01*
X101362446Y-117018578D01*
X101373753Y-117000585D01*
X101422913Y-116951424D01*
X101464487Y-116905253D01*
X101481301Y-116893036D01*
X101500585Y-116873753D01*
X101554278Y-116840015D01*
X101599846Y-116806908D01*
X101624284Y-116796027D01*
X101652459Y-116778324D01*
X101706587Y-116759383D01*
X101752689Y-116738858D01*
X101784679Y-116732058D01*
X101821761Y-116719083D01*
X101872759Y-116713336D01*
X101916343Y-116704073D01*
X101954977Y-116704073D01*
X102000000Y-116699000D01*
X102045023Y-116704073D01*
G37*
G36*
X107037439Y-116913929D02*
G01*
X107066305Y-116913929D01*
X107099403Y-116922086D01*
X107142609Y-116927775D01*
X107172182Y-116940024D01*
X107195063Y-116945664D01*
X107229752Y-116963870D01*
X107275500Y-116982820D01*
X107296374Y-116998837D01*
X107312483Y-117007292D01*
X107345420Y-117036471D01*
X107389616Y-117070384D01*
X107402174Y-117086751D01*
X107411740Y-117095225D01*
X107439166Y-117134960D01*
X107477180Y-117184500D01*
X107482910Y-117198334D01*
X107487073Y-117204365D01*
X107505132Y-117251984D01*
X107532225Y-117317391D01*
X107533440Y-117326625D01*
X107534097Y-117328356D01*
X107539179Y-117370212D01*
X107551000Y-117460000D01*
X107539178Y-117549795D01*
X107534097Y-117591643D01*
X107533440Y-117593372D01*
X107532225Y-117602609D01*
X107505128Y-117668026D01*
X107487073Y-117715634D01*
X107482911Y-117721663D01*
X107477180Y-117735500D01*
X107439160Y-117785048D01*
X107411740Y-117824774D01*
X107402177Y-117833245D01*
X107389616Y-117849616D01*
X107345411Y-117883534D01*
X107312483Y-117912707D01*
X107296378Y-117921159D01*
X107275500Y-117937180D01*
X107229743Y-117956132D01*
X107195063Y-117974335D01*
X107172187Y-117979973D01*
X107142609Y-117992225D01*
X107099401Y-117997913D01*
X107066305Y-118006071D01*
X107037439Y-118006071D01*
X107000000Y-118011000D01*
X106962561Y-118006071D01*
X106933695Y-118006071D01*
X106900597Y-117997913D01*
X106857391Y-117992225D01*
X106827814Y-117979973D01*
X106804936Y-117974335D01*
X106770251Y-117956130D01*
X106724500Y-117937180D01*
X106703623Y-117921161D01*
X106687516Y-117912707D01*
X106654580Y-117883529D01*
X106610384Y-117849616D01*
X106597824Y-117833248D01*
X106588259Y-117824774D01*
X106560830Y-117785035D01*
X106522820Y-117735500D01*
X106517090Y-117721666D01*
X106512926Y-117715634D01*
X106494859Y-117667998D01*
X106467775Y-117602609D01*
X106466559Y-117593376D01*
X106465902Y-117591643D01*
X106460809Y-117549701D01*
X106449000Y-117460000D01*
X106460807Y-117370314D01*
X106465902Y-117328356D01*
X106466559Y-117326621D01*
X106467775Y-117317391D01*
X106494855Y-117252012D01*
X106512926Y-117204365D01*
X106517091Y-117198330D01*
X106522820Y-117184500D01*
X106560823Y-117134973D01*
X106588259Y-117095225D01*
X106597827Y-117086748D01*
X106610384Y-117070384D01*
X106654572Y-117036477D01*
X106687516Y-117007292D01*
X106703627Y-116998835D01*
X106724500Y-116982820D01*
X106770242Y-116963872D01*
X106804936Y-116945664D01*
X106827818Y-116940024D01*
X106857391Y-116927775D01*
X106900595Y-116922086D01*
X106933695Y-116913929D01*
X106962561Y-116913929D01*
X107000000Y-116909000D01*
X107037439Y-116913929D01*
G37*
G36*
X114094517Y-117747882D02*
G01*
X114111062Y-117758938D01*
X114122118Y-117775483D01*
X114126000Y-117795000D01*
X114126000Y-118395000D01*
X114122118Y-118414517D01*
X114111062Y-118431062D01*
X114094517Y-118442118D01*
X114075000Y-118446000D01*
X112525000Y-118446000D01*
X112505483Y-118442118D01*
X112488938Y-118431062D01*
X112477882Y-118414517D01*
X112474000Y-118395000D01*
X112474000Y-117795000D01*
X112477882Y-117775483D01*
X112488938Y-117758938D01*
X112505483Y-117747882D01*
X112525000Y-117744000D01*
X114075000Y-117744000D01*
X114094517Y-117747882D01*
G37*
G36*
X119494517Y-117747882D02*
G01*
X119511062Y-117758938D01*
X119522118Y-117775483D01*
X119526000Y-117795000D01*
X119526000Y-118395000D01*
X119522118Y-118414517D01*
X119511062Y-118431062D01*
X119494517Y-118442118D01*
X119475000Y-118446000D01*
X117925000Y-118446000D01*
X117905483Y-118442118D01*
X117888938Y-118431062D01*
X117877882Y-118414517D01*
X117874000Y-118395000D01*
X117874000Y-117795000D01*
X117877882Y-117775483D01*
X117888938Y-117758938D01*
X117905483Y-117747882D01*
X117925000Y-117744000D01*
X119475000Y-117744000D01*
X119494517Y-117747882D01*
G37*
G36*
X121823539Y-117492190D02*
G01*
X121861016Y-117497124D01*
X121870443Y-117501519D01*
X121891116Y-117505632D01*
X121918499Y-117523929D01*
X121931718Y-117530093D01*
X121939759Y-117538134D01*
X121962003Y-117552997D01*
X121976865Y-117575240D01*
X121984906Y-117583281D01*
X121991068Y-117596497D01*
X122009368Y-117623884D01*
X122013480Y-117644558D01*
X122017875Y-117653983D01*
X122022807Y-117691449D01*
X122026000Y-117707500D01*
X122026000Y-118042500D01*
X122022806Y-118058553D01*
X122017875Y-118096016D01*
X122013480Y-118105439D01*
X122009368Y-118126116D01*
X121991067Y-118153504D01*
X121984906Y-118166718D01*
X121976867Y-118174756D01*
X121962003Y-118197003D01*
X121939756Y-118211867D01*
X121931718Y-118219906D01*
X121918504Y-118226067D01*
X121891116Y-118244368D01*
X121870439Y-118248480D01*
X121861016Y-118252875D01*
X121823552Y-118257806D01*
X121807500Y-118261000D01*
X121192500Y-118261000D01*
X121176448Y-118257807D01*
X121138983Y-118252875D01*
X121129558Y-118248480D01*
X121108884Y-118244368D01*
X121081497Y-118226068D01*
X121068281Y-118219906D01*
X121060240Y-118211865D01*
X121037997Y-118197003D01*
X121023134Y-118174759D01*
X121015093Y-118166718D01*
X121008929Y-118153499D01*
X120990632Y-118126116D01*
X120986519Y-118105443D01*
X120982124Y-118096016D01*
X120977190Y-118058537D01*
X120974000Y-118042500D01*
X120974000Y-117707500D01*
X120977189Y-117691462D01*
X120982124Y-117653983D01*
X120986520Y-117644555D01*
X120990632Y-117623884D01*
X121008927Y-117596502D01*
X121015093Y-117583281D01*
X121023136Y-117575237D01*
X121037997Y-117552997D01*
X121060237Y-117538136D01*
X121068281Y-117530093D01*
X121081502Y-117523927D01*
X121108884Y-117505632D01*
X121129555Y-117501520D01*
X121138983Y-117497124D01*
X121176464Y-117492189D01*
X121192500Y-117489000D01*
X121807500Y-117489000D01*
X121823539Y-117492190D01*
G37*
G36*
X123323539Y-117492190D02*
G01*
X123361016Y-117497124D01*
X123370443Y-117501519D01*
X123391116Y-117505632D01*
X123418499Y-117523929D01*
X123431718Y-117530093D01*
X123439759Y-117538134D01*
X123462003Y-117552997D01*
X123476865Y-117575240D01*
X123484906Y-117583281D01*
X123491068Y-117596497D01*
X123509368Y-117623884D01*
X123513480Y-117644558D01*
X123517875Y-117653983D01*
X123522807Y-117691449D01*
X123526000Y-117707500D01*
X123526000Y-118042500D01*
X123522806Y-118058553D01*
X123517875Y-118096016D01*
X123513480Y-118105439D01*
X123509368Y-118126116D01*
X123491067Y-118153504D01*
X123484906Y-118166718D01*
X123476867Y-118174756D01*
X123462003Y-118197003D01*
X123439756Y-118211867D01*
X123431718Y-118219906D01*
X123418504Y-118226067D01*
X123391116Y-118244368D01*
X123370439Y-118248480D01*
X123361016Y-118252875D01*
X123323552Y-118257806D01*
X123307500Y-118261000D01*
X122692500Y-118261000D01*
X122676448Y-118257807D01*
X122638983Y-118252875D01*
X122629558Y-118248480D01*
X122608884Y-118244368D01*
X122581497Y-118226068D01*
X122568281Y-118219906D01*
X122560240Y-118211865D01*
X122537997Y-118197003D01*
X122523134Y-118174759D01*
X122515093Y-118166718D01*
X122508929Y-118153499D01*
X122490632Y-118126116D01*
X122486519Y-118105443D01*
X122482124Y-118096016D01*
X122477190Y-118058537D01*
X122474000Y-118042500D01*
X122474000Y-117707500D01*
X122477189Y-117691462D01*
X122482124Y-117653983D01*
X122486520Y-117644555D01*
X122490632Y-117623884D01*
X122508927Y-117596502D01*
X122515093Y-117583281D01*
X122523136Y-117575237D01*
X122537997Y-117552997D01*
X122560237Y-117538136D01*
X122568281Y-117530093D01*
X122581502Y-117523927D01*
X122608884Y-117505632D01*
X122629555Y-117501520D01*
X122638983Y-117497124D01*
X122676464Y-117492189D01*
X122692500Y-117489000D01*
X123307500Y-117489000D01*
X123323539Y-117492190D01*
G37*
G36*
X121823539Y-115742190D02*
G01*
X121861016Y-115747124D01*
X121870443Y-115751519D01*
X121891116Y-115755632D01*
X121918499Y-115773929D01*
X121931718Y-115780093D01*
X121939759Y-115788134D01*
X121962003Y-115802997D01*
X121976865Y-115825240D01*
X121984906Y-115833281D01*
X121991068Y-115846497D01*
X122009368Y-115873884D01*
X122013480Y-115894558D01*
X122017875Y-115903983D01*
X122022807Y-115941449D01*
X122026000Y-115957500D01*
X122026000Y-116292500D01*
X122022806Y-116308553D01*
X122017875Y-116346016D01*
X122013480Y-116355439D01*
X122009368Y-116376116D01*
X121991067Y-116403504D01*
X121984906Y-116416718D01*
X121976867Y-116424756D01*
X121962003Y-116447003D01*
X121939756Y-116461867D01*
X121931718Y-116469906D01*
X121918504Y-116476067D01*
X121891116Y-116494368D01*
X121870439Y-116498480D01*
X121861016Y-116502875D01*
X121823552Y-116507806D01*
X121807500Y-116511000D01*
X121192500Y-116511000D01*
X121176448Y-116507807D01*
X121138983Y-116502875D01*
X121129558Y-116498480D01*
X121108884Y-116494368D01*
X121081497Y-116476068D01*
X121068281Y-116469906D01*
X121060240Y-116461865D01*
X121037997Y-116447003D01*
X121023134Y-116424759D01*
X121015093Y-116416718D01*
X121008929Y-116403499D01*
X120990632Y-116376116D01*
X120986519Y-116355443D01*
X120982124Y-116346016D01*
X120977190Y-116308537D01*
X120974000Y-116292500D01*
X120974000Y-115957500D01*
X120977189Y-115941462D01*
X120982124Y-115903983D01*
X120986520Y-115894555D01*
X120990632Y-115873884D01*
X121008927Y-115846502D01*
X121015093Y-115833281D01*
X121023136Y-115825237D01*
X121037997Y-115802997D01*
X121060237Y-115788136D01*
X121068281Y-115780093D01*
X121081502Y-115773927D01*
X121108884Y-115755632D01*
X121129555Y-115751520D01*
X121138983Y-115747124D01*
X121176464Y-115742189D01*
X121192500Y-115739000D01*
X121807500Y-115739000D01*
X121823539Y-115742190D01*
G37*
G36*
X123323539Y-115742190D02*
G01*
X123361016Y-115747124D01*
X123370443Y-115751519D01*
X123391116Y-115755632D01*
X123418499Y-115773929D01*
X123431718Y-115780093D01*
X123439759Y-115788134D01*
X123462003Y-115802997D01*
X123476865Y-115825240D01*
X123484906Y-115833281D01*
X123491068Y-115846497D01*
X123509368Y-115873884D01*
X123513480Y-115894558D01*
X123517875Y-115903983D01*
X123522807Y-115941449D01*
X123526000Y-115957500D01*
X123526000Y-116292500D01*
X123522806Y-116308553D01*
X123517875Y-116346016D01*
X123513480Y-116355439D01*
X123509368Y-116376116D01*
X123491067Y-116403504D01*
X123484906Y-116416718D01*
X123476867Y-116424756D01*
X123462003Y-116447003D01*
X123439756Y-116461867D01*
X123431718Y-116469906D01*
X123418504Y-116476067D01*
X123391116Y-116494368D01*
X123370439Y-116498480D01*
X123361016Y-116502875D01*
X123323552Y-116507806D01*
X123307500Y-116511000D01*
X122692500Y-116511000D01*
X122676448Y-116507807D01*
X122638983Y-116502875D01*
X122629558Y-116498480D01*
X122608884Y-116494368D01*
X122581497Y-116476068D01*
X122568281Y-116469906D01*
X122560240Y-116461865D01*
X122537997Y-116447003D01*
X122523134Y-116424759D01*
X122515093Y-116416718D01*
X122508929Y-116403499D01*
X122490632Y-116376116D01*
X122486519Y-116355443D01*
X122482124Y-116346016D01*
X122477190Y-116308537D01*
X122474000Y-116292500D01*
X122474000Y-115957500D01*
X122477189Y-115941462D01*
X122482124Y-115903983D01*
X122486520Y-115894555D01*
X122490632Y-115873884D01*
X122508927Y-115846502D01*
X122515093Y-115833281D01*
X122523136Y-115825237D01*
X122537997Y-115802997D01*
X122560237Y-115788136D01*
X122568281Y-115780093D01*
X122581502Y-115773927D01*
X122608884Y-115755632D01*
X122629555Y-115751520D01*
X122638983Y-115747124D01*
X122676464Y-115742189D01*
X122692500Y-115739000D01*
X123307500Y-115739000D01*
X123323539Y-115742190D01*
G37*
G36*
X126469694Y-116481646D02*
G01*
X126514126Y-116488684D01*
X126519923Y-116491637D01*
X126534479Y-116494533D01*
X126562973Y-116513572D01*
X126588887Y-116526776D01*
X126601278Y-116539167D01*
X126621992Y-116553008D01*
X126635832Y-116573721D01*
X126648223Y-116586112D01*
X126661425Y-116612023D01*
X126680467Y-116640521D01*
X126683362Y-116655078D01*
X126686315Y-116660873D01*
X126693349Y-116705284D01*
X126701000Y-116743750D01*
X126701000Y-117256250D01*
X126693348Y-117294718D01*
X126686315Y-117339126D01*
X126683362Y-117344919D01*
X126680467Y-117359479D01*
X126661423Y-117387979D01*
X126648223Y-117413887D01*
X126635834Y-117426275D01*
X126621992Y-117446992D01*
X126601275Y-117460834D01*
X126588887Y-117473223D01*
X126562979Y-117486423D01*
X126534479Y-117505467D01*
X126519919Y-117508362D01*
X126514126Y-117511315D01*
X126469718Y-117518348D01*
X126431250Y-117526000D01*
X125993750Y-117526000D01*
X125955284Y-117518349D01*
X125910873Y-117511315D01*
X125905078Y-117508362D01*
X125890521Y-117505467D01*
X125862023Y-117486425D01*
X125836112Y-117473223D01*
X125823721Y-117460832D01*
X125803008Y-117446992D01*
X125789167Y-117426278D01*
X125776776Y-117413887D01*
X125763572Y-117387973D01*
X125744533Y-117359479D01*
X125741637Y-117344923D01*
X125738684Y-117339126D01*
X125731646Y-117294694D01*
X125724000Y-117256250D01*
X125724000Y-116743750D01*
X125731646Y-116705309D01*
X125738684Y-116660873D01*
X125741638Y-116655075D01*
X125744533Y-116640521D01*
X125763570Y-116612029D01*
X125776776Y-116586112D01*
X125789169Y-116573718D01*
X125803008Y-116553008D01*
X125823718Y-116539169D01*
X125836112Y-116526776D01*
X125862029Y-116513570D01*
X125890521Y-116494533D01*
X125905075Y-116491638D01*
X125910873Y-116488684D01*
X125955309Y-116481646D01*
X125993750Y-116474000D01*
X126431250Y-116474000D01*
X126469694Y-116481646D01*
G37*
G36*
X128044694Y-116481646D02*
G01*
X128089126Y-116488684D01*
X128094923Y-116491637D01*
X128109479Y-116494533D01*
X128137973Y-116513572D01*
X128163887Y-116526776D01*
X128176278Y-116539167D01*
X128196992Y-116553008D01*
X128210832Y-116573721D01*
X128223223Y-116586112D01*
X128236425Y-116612023D01*
X128255467Y-116640521D01*
X128258362Y-116655078D01*
X128261315Y-116660873D01*
X128268349Y-116705284D01*
X128276000Y-116743750D01*
X128276000Y-117256250D01*
X128268348Y-117294718D01*
X128261315Y-117339126D01*
X128258362Y-117344919D01*
X128255467Y-117359479D01*
X128236423Y-117387979D01*
X128223223Y-117413887D01*
X128210834Y-117426275D01*
X128196992Y-117446992D01*
X128176275Y-117460834D01*
X128163887Y-117473223D01*
X128137979Y-117486423D01*
X128109479Y-117505467D01*
X128094919Y-117508362D01*
X128089126Y-117511315D01*
X128044718Y-117518348D01*
X128006250Y-117526000D01*
X127568750Y-117526000D01*
X127530284Y-117518349D01*
X127485873Y-117511315D01*
X127480078Y-117508362D01*
X127465521Y-117505467D01*
X127437023Y-117486425D01*
X127411112Y-117473223D01*
X127398721Y-117460832D01*
X127378008Y-117446992D01*
X127364167Y-117426278D01*
X127351776Y-117413887D01*
X127338572Y-117387973D01*
X127319533Y-117359479D01*
X127316637Y-117344923D01*
X127313684Y-117339126D01*
X127306646Y-117294694D01*
X127299000Y-117256250D01*
X127299000Y-116743750D01*
X127306646Y-116705309D01*
X127313684Y-116660873D01*
X127316638Y-116655075D01*
X127319533Y-116640521D01*
X127338570Y-116612029D01*
X127351776Y-116586112D01*
X127364169Y-116573718D01*
X127378008Y-116553008D01*
X127398718Y-116539169D01*
X127411112Y-116526776D01*
X127437029Y-116513570D01*
X127465521Y-116494533D01*
X127480075Y-116491638D01*
X127485873Y-116488684D01*
X127530309Y-116481646D01*
X127568750Y-116474000D01*
X128006250Y-116474000D01*
X128044694Y-116481646D01*
G37*
G36*
X101808539Y-110477190D02*
G01*
X101846016Y-110482124D01*
X101855443Y-110486519D01*
X101876116Y-110490632D01*
X101903499Y-110508929D01*
X101916718Y-110515093D01*
X101924759Y-110523134D01*
X101947003Y-110537997D01*
X101961865Y-110560240D01*
X101969906Y-110568281D01*
X101976068Y-110581497D01*
X101994368Y-110608884D01*
X101998480Y-110629558D01*
X102002875Y-110638983D01*
X102007807Y-110676449D01*
X102011000Y-110692500D01*
X102011000Y-111307500D01*
X102007806Y-111323553D01*
X102002875Y-111361016D01*
X101998480Y-111370439D01*
X101994368Y-111391116D01*
X101976067Y-111418504D01*
X101969906Y-111431718D01*
X101961867Y-111439756D01*
X101947003Y-111462003D01*
X101924756Y-111476867D01*
X101916718Y-111484906D01*
X101903504Y-111491067D01*
X101876116Y-111509368D01*
X101855439Y-111513480D01*
X101846016Y-111517875D01*
X101808552Y-111522806D01*
X101792500Y-111526000D01*
X101457500Y-111526000D01*
X101441448Y-111522807D01*
X101403983Y-111517875D01*
X101394558Y-111513480D01*
X101373884Y-111509368D01*
X101346497Y-111491068D01*
X101333281Y-111484906D01*
X101325240Y-111476865D01*
X101302997Y-111462003D01*
X101288134Y-111439759D01*
X101280093Y-111431718D01*
X101273929Y-111418499D01*
X101255632Y-111391116D01*
X101251519Y-111370443D01*
X101247124Y-111361016D01*
X101242190Y-111323537D01*
X101239000Y-111307500D01*
X101239000Y-110692500D01*
X101242189Y-110676462D01*
X101247124Y-110638983D01*
X101251520Y-110629555D01*
X101255632Y-110608884D01*
X101273927Y-110581502D01*
X101280093Y-110568281D01*
X101288136Y-110560237D01*
X101302997Y-110537997D01*
X101325237Y-110523136D01*
X101333281Y-110515093D01*
X101346502Y-110508927D01*
X101373884Y-110490632D01*
X101394555Y-110486520D01*
X101403983Y-110482124D01*
X101441464Y-110477189D01*
X101457500Y-110474000D01*
X101792500Y-110474000D01*
X101808539Y-110477190D01*
G37*
G36*
X103558539Y-110477190D02*
G01*
X103596016Y-110482124D01*
X103605443Y-110486519D01*
X103626116Y-110490632D01*
X103653499Y-110508929D01*
X103666718Y-110515093D01*
X103674759Y-110523134D01*
X103697003Y-110537997D01*
X103711865Y-110560240D01*
X103719906Y-110568281D01*
X103726068Y-110581497D01*
X103744368Y-110608884D01*
X103748480Y-110629558D01*
X103752875Y-110638983D01*
X103757807Y-110676449D01*
X103761000Y-110692500D01*
X103761000Y-111307500D01*
X103757806Y-111323553D01*
X103752875Y-111361016D01*
X103748480Y-111370439D01*
X103744368Y-111391116D01*
X103726067Y-111418504D01*
X103719906Y-111431718D01*
X103711867Y-111439756D01*
X103697003Y-111462003D01*
X103674756Y-111476867D01*
X103666718Y-111484906D01*
X103653504Y-111491067D01*
X103626116Y-111509368D01*
X103605439Y-111513480D01*
X103596016Y-111517875D01*
X103558552Y-111522806D01*
X103542500Y-111526000D01*
X103207500Y-111526000D01*
X103191448Y-111522807D01*
X103153983Y-111517875D01*
X103144558Y-111513480D01*
X103123884Y-111509368D01*
X103096497Y-111491068D01*
X103083281Y-111484906D01*
X103075240Y-111476865D01*
X103052997Y-111462003D01*
X103038134Y-111439759D01*
X103030093Y-111431718D01*
X103023929Y-111418499D01*
X103005632Y-111391116D01*
X103001519Y-111370443D01*
X102997124Y-111361016D01*
X102992190Y-111323537D01*
X102989000Y-111307500D01*
X102989000Y-110692500D01*
X102992189Y-110676462D01*
X102997124Y-110638983D01*
X103001520Y-110629555D01*
X103005632Y-110608884D01*
X103023927Y-110581502D01*
X103030093Y-110568281D01*
X103038136Y-110560237D01*
X103052997Y-110537997D01*
X103075237Y-110523136D01*
X103083281Y-110515093D01*
X103096502Y-110508927D01*
X103123884Y-110490632D01*
X103144555Y-110486520D01*
X103153983Y-110482124D01*
X103191464Y-110477189D01*
X103207500Y-110474000D01*
X103542500Y-110474000D01*
X103558539Y-110477190D01*
G37*
G36*
X111823539Y-111492190D02*
G01*
X111861016Y-111497124D01*
X111870443Y-111501519D01*
X111891116Y-111505632D01*
X111918499Y-111523929D01*
X111931718Y-111530093D01*
X111939759Y-111538134D01*
X111962003Y-111552997D01*
X111976865Y-111575240D01*
X111984906Y-111583281D01*
X111991068Y-111596497D01*
X112009368Y-111623884D01*
X112013480Y-111644558D01*
X112017875Y-111653983D01*
X112022807Y-111691449D01*
X112026000Y-111707500D01*
X112026000Y-112042500D01*
X112022806Y-112058553D01*
X112017875Y-112096016D01*
X112013480Y-112105439D01*
X112009368Y-112126116D01*
X111991067Y-112153504D01*
X111984906Y-112166718D01*
X111976867Y-112174756D01*
X111962003Y-112197003D01*
X111939756Y-112211867D01*
X111931718Y-112219906D01*
X111918504Y-112226067D01*
X111891116Y-112244368D01*
X111870439Y-112248480D01*
X111861016Y-112252875D01*
X111823552Y-112257806D01*
X111807500Y-112261000D01*
X111192500Y-112261000D01*
X111176448Y-112257807D01*
X111138983Y-112252875D01*
X111129558Y-112248480D01*
X111108884Y-112244368D01*
X111081497Y-112226068D01*
X111068281Y-112219906D01*
X111060240Y-112211865D01*
X111037997Y-112197003D01*
X111023134Y-112174759D01*
X111015093Y-112166718D01*
X111008929Y-112153499D01*
X110990632Y-112126116D01*
X110986519Y-112105443D01*
X110982124Y-112096016D01*
X110977190Y-112058537D01*
X110974000Y-112042500D01*
X110974000Y-111707500D01*
X110977189Y-111691462D01*
X110982124Y-111653983D01*
X110986520Y-111644555D01*
X110990632Y-111623884D01*
X111008927Y-111596502D01*
X111015093Y-111583281D01*
X111023136Y-111575237D01*
X111037997Y-111552997D01*
X111060237Y-111538136D01*
X111068281Y-111530093D01*
X111081502Y-111523927D01*
X111108884Y-111505632D01*
X111129555Y-111501520D01*
X111138983Y-111497124D01*
X111176464Y-111492189D01*
X111192500Y-111489000D01*
X111807500Y-111489000D01*
X111823539Y-111492190D01*
G37*
G36*
X113323539Y-111492190D02*
G01*
X113361016Y-111497124D01*
X113370443Y-111501519D01*
X113391116Y-111505632D01*
X113418499Y-111523929D01*
X113431718Y-111530093D01*
X113439759Y-111538134D01*
X113462003Y-111552997D01*
X113476865Y-111575240D01*
X113484906Y-111583281D01*
X113491068Y-111596497D01*
X113509368Y-111623884D01*
X113513480Y-111644558D01*
X113517875Y-111653983D01*
X113522807Y-111691449D01*
X113526000Y-111707500D01*
X113526000Y-112042500D01*
X113522806Y-112058553D01*
X113517875Y-112096016D01*
X113513480Y-112105439D01*
X113509368Y-112126116D01*
X113491067Y-112153504D01*
X113484906Y-112166718D01*
X113476867Y-112174756D01*
X113462003Y-112197003D01*
X113439756Y-112211867D01*
X113431718Y-112219906D01*
X113418504Y-112226067D01*
X113391116Y-112244368D01*
X113370439Y-112248480D01*
X113361016Y-112252875D01*
X113323552Y-112257806D01*
X113307500Y-112261000D01*
X112692500Y-112261000D01*
X112676448Y-112257807D01*
X112638983Y-112252875D01*
X112629558Y-112248480D01*
X112608884Y-112244368D01*
X112581497Y-112226068D01*
X112568281Y-112219906D01*
X112560240Y-112211865D01*
X112537997Y-112197003D01*
X112523134Y-112174759D01*
X112515093Y-112166718D01*
X112508929Y-112153499D01*
X112490632Y-112126116D01*
X112486519Y-112105443D01*
X112482124Y-112096016D01*
X112477190Y-112058537D01*
X112474000Y-112042500D01*
X112474000Y-111707500D01*
X112477189Y-111691462D01*
X112482124Y-111653983D01*
X112486520Y-111644555D01*
X112490632Y-111623884D01*
X112508927Y-111596502D01*
X112515093Y-111583281D01*
X112523136Y-111575237D01*
X112537997Y-111552997D01*
X112560237Y-111538136D01*
X112568281Y-111530093D01*
X112581502Y-111523927D01*
X112608884Y-111505632D01*
X112629555Y-111501520D01*
X112638983Y-111497124D01*
X112676464Y-111492189D01*
X112692500Y-111489000D01*
X113307500Y-111489000D01*
X113323539Y-111492190D01*
G37*
G36*
X114823539Y-111492190D02*
G01*
X114861016Y-111497124D01*
X114870443Y-111501519D01*
X114891116Y-111505632D01*
X114918499Y-111523929D01*
X114931718Y-111530093D01*
X114939759Y-111538134D01*
X114962003Y-111552997D01*
X114976865Y-111575240D01*
X114984906Y-111583281D01*
X114991068Y-111596497D01*
X115009368Y-111623884D01*
X115013480Y-111644558D01*
X115017875Y-111653983D01*
X115022807Y-111691449D01*
X115026000Y-111707500D01*
X115026000Y-112042500D01*
X115022806Y-112058553D01*
X115017875Y-112096016D01*
X115013480Y-112105439D01*
X115009368Y-112126116D01*
X114991067Y-112153504D01*
X114984906Y-112166718D01*
X114976867Y-112174756D01*
X114962003Y-112197003D01*
X114939756Y-112211867D01*
X114931718Y-112219906D01*
X114918504Y-112226067D01*
X114891116Y-112244368D01*
X114870439Y-112248480D01*
X114861016Y-112252875D01*
X114823552Y-112257806D01*
X114807500Y-112261000D01*
X114192500Y-112261000D01*
X114176448Y-112257807D01*
X114138983Y-112252875D01*
X114129558Y-112248480D01*
X114108884Y-112244368D01*
X114081497Y-112226068D01*
X114068281Y-112219906D01*
X114060240Y-112211865D01*
X114037997Y-112197003D01*
X114023134Y-112174759D01*
X114015093Y-112166718D01*
X114008929Y-112153499D01*
X113990632Y-112126116D01*
X113986519Y-112105443D01*
X113982124Y-112096016D01*
X113977190Y-112058537D01*
X113974000Y-112042500D01*
X113974000Y-111707500D01*
X113977189Y-111691462D01*
X113982124Y-111653983D01*
X113986520Y-111644555D01*
X113990632Y-111623884D01*
X114008927Y-111596502D01*
X114015093Y-111583281D01*
X114023136Y-111575237D01*
X114037997Y-111552997D01*
X114060237Y-111538136D01*
X114068281Y-111530093D01*
X114081502Y-111523927D01*
X114108884Y-111505632D01*
X114129555Y-111501520D01*
X114138983Y-111497124D01*
X114176464Y-111492189D01*
X114192500Y-111489000D01*
X114807500Y-111489000D01*
X114823539Y-111492190D01*
G37*
G36*
X125823539Y-111742190D02*
G01*
X125861016Y-111747124D01*
X125870443Y-111751519D01*
X125891116Y-111755632D01*
X125918499Y-111773929D01*
X125931718Y-111780093D01*
X125939759Y-111788134D01*
X125962003Y-111802997D01*
X125976865Y-111825240D01*
X125984906Y-111833281D01*
X125991068Y-111846497D01*
X126009368Y-111873884D01*
X126013480Y-111894558D01*
X126017875Y-111903983D01*
X126022807Y-111941449D01*
X126026000Y-111957500D01*
X126026000Y-112292500D01*
X126022806Y-112308553D01*
X126017875Y-112346016D01*
X126013480Y-112355439D01*
X126009368Y-112376116D01*
X125991067Y-112403504D01*
X125984906Y-112416718D01*
X125976867Y-112424756D01*
X125962003Y-112447003D01*
X125939756Y-112461867D01*
X125931718Y-112469906D01*
X125918504Y-112476067D01*
X125891116Y-112494368D01*
X125870439Y-112498480D01*
X125861016Y-112502875D01*
X125823552Y-112507806D01*
X125807500Y-112511000D01*
X125192500Y-112511000D01*
X125176448Y-112507807D01*
X125138983Y-112502875D01*
X125129558Y-112498480D01*
X125108884Y-112494368D01*
X125081497Y-112476068D01*
X125068281Y-112469906D01*
X125060240Y-112461865D01*
X125037997Y-112447003D01*
X125023134Y-112424759D01*
X125015093Y-112416718D01*
X125008929Y-112403499D01*
X124990632Y-112376116D01*
X124986519Y-112355443D01*
X124982124Y-112346016D01*
X124977190Y-112308537D01*
X124974000Y-112292500D01*
X124974000Y-111957500D01*
X124977189Y-111941462D01*
X124982124Y-111903983D01*
X124986520Y-111894555D01*
X124990632Y-111873884D01*
X125008927Y-111846502D01*
X125015093Y-111833281D01*
X125023136Y-111825237D01*
X125037997Y-111802997D01*
X125060237Y-111788136D01*
X125068281Y-111780093D01*
X125081502Y-111773927D01*
X125108884Y-111755632D01*
X125129555Y-111751520D01*
X125138983Y-111747124D01*
X125176464Y-111742189D01*
X125192500Y-111739000D01*
X125807500Y-111739000D01*
X125823539Y-111742190D01*
G37*
G36*
X127949517Y-111752882D02*
G01*
X127966062Y-111763938D01*
X127969547Y-111769153D01*
X127992083Y-111784211D01*
X128067917Y-111784211D01*
X128090453Y-111769152D01*
X128093938Y-111763938D01*
X128110483Y-111752882D01*
X128130000Y-111749000D01*
X128430000Y-111749000D01*
X128449517Y-111752882D01*
X128466062Y-111763938D01*
X128469547Y-111769153D01*
X128492083Y-111784211D01*
X128567917Y-111784211D01*
X128590453Y-111769152D01*
X128593938Y-111763938D01*
X128610483Y-111752882D01*
X128630000Y-111749000D01*
X128930000Y-111749000D01*
X128949517Y-111752882D01*
X128966062Y-111763938D01*
X128969547Y-111769153D01*
X128992083Y-111784211D01*
X129067917Y-111784211D01*
X129090453Y-111769152D01*
X129093938Y-111763938D01*
X129110483Y-111752882D01*
X129130000Y-111749000D01*
X129430000Y-111749000D01*
X129449517Y-111752882D01*
X129466062Y-111763938D01*
X129477118Y-111780483D01*
X129481000Y-111800000D01*
X129481000Y-112480000D01*
X129477118Y-112499517D01*
X129466062Y-112516062D01*
X129449517Y-112527118D01*
X129430000Y-112531000D01*
X129333167Y-112531000D01*
X129262533Y-112663150D01*
X129310844Y-112735451D01*
X129316062Y-112738938D01*
X129327118Y-112755483D01*
X129331000Y-112775000D01*
X129331000Y-114225000D01*
X129327118Y-114244517D01*
X129316062Y-114261062D01*
X129310841Y-114264550D01*
X129262533Y-114336848D01*
X129333168Y-114469000D01*
X129430000Y-114469000D01*
X129449517Y-114472882D01*
X129466062Y-114483938D01*
X129477118Y-114500483D01*
X129481000Y-114520000D01*
X129481000Y-115200000D01*
X129477118Y-115219517D01*
X129466062Y-115236062D01*
X129449517Y-115247118D01*
X129430000Y-115251000D01*
X129130000Y-115251000D01*
X129110483Y-115247118D01*
X129093938Y-115236062D01*
X129090451Y-115230844D01*
X129067918Y-115215788D01*
X128992082Y-115215788D01*
X128969548Y-115230844D01*
X128966062Y-115236062D01*
X128949517Y-115247118D01*
X128930000Y-115251000D01*
X128630000Y-115251000D01*
X128610483Y-115247118D01*
X128593938Y-115236062D01*
X128590451Y-115230844D01*
X128567918Y-115215788D01*
X128492082Y-115215788D01*
X128469548Y-115230844D01*
X128466062Y-115236062D01*
X128449517Y-115247118D01*
X128430000Y-115251000D01*
X128130000Y-115251000D01*
X128110483Y-115247118D01*
X128093938Y-115236062D01*
X128090451Y-115230844D01*
X128067918Y-115215788D01*
X127992082Y-115215788D01*
X127969548Y-115230844D01*
X127966062Y-115236062D01*
X127949517Y-115247118D01*
X127930000Y-115251000D01*
X127630000Y-115251000D01*
X127610483Y-115247118D01*
X127593938Y-115236062D01*
X127582882Y-115219517D01*
X127579000Y-115200000D01*
X127579000Y-114520000D01*
X127582882Y-114500483D01*
X127593938Y-114483938D01*
X127610483Y-114472882D01*
X127630000Y-114469000D01*
X127642304Y-114469000D01*
X127703487Y-114456830D01*
X127736053Y-114292962D01*
X127706681Y-114273350D01*
X127700483Y-114272118D01*
X127683938Y-114261062D01*
X127672882Y-114244517D01*
X127669000Y-114225000D01*
X127669000Y-112775000D01*
X127672882Y-112755483D01*
X127683938Y-112738938D01*
X127700483Y-112727882D01*
X127706589Y-112726667D01*
X127736067Y-112706955D01*
X127703453Y-112543161D01*
X127642315Y-112531000D01*
X127630000Y-112531000D01*
X127610483Y-112527118D01*
X127593938Y-112516062D01*
X127582882Y-112499517D01*
X127579000Y-112480000D01*
X127579000Y-111800000D01*
X127582882Y-111780483D01*
X127593938Y-111763938D01*
X127610483Y-111752882D01*
X127630000Y-111749000D01*
X127930000Y-111749000D01*
X127949517Y-111752882D01*
G37*
G36*
X105543914Y-113081995D02*
G01*
X105559726Y-113088976D01*
X105567531Y-113090213D01*
X105600039Y-113106776D01*
X105645106Y-113126676D01*
X105723324Y-113204894D01*
X105743226Y-113249967D01*
X105759786Y-113282468D01*
X105761021Y-113290270D01*
X105768005Y-113306086D01*
X105776000Y-113375000D01*
X105776000Y-114625000D01*
X105768005Y-114693914D01*
X105761021Y-114709729D01*
X105759786Y-114717531D01*
X105743229Y-114750024D01*
X105723324Y-114795106D01*
X105645106Y-114873324D01*
X105600024Y-114893229D01*
X105567531Y-114909786D01*
X105559729Y-114911021D01*
X105543914Y-114918005D01*
X105475000Y-114926000D01*
X104725000Y-114926000D01*
X104656086Y-114918005D01*
X104640270Y-114911021D01*
X104632468Y-114909786D01*
X104599967Y-114893226D01*
X104554894Y-114873324D01*
X104476676Y-114795106D01*
X104456776Y-114750039D01*
X104440213Y-114717531D01*
X104438976Y-114709726D01*
X104431995Y-114693914D01*
X104424000Y-114625000D01*
X104424000Y-113375000D01*
X104431995Y-113306086D01*
X104438976Y-113290274D01*
X104440213Y-113282468D01*
X104456780Y-113249953D01*
X104476676Y-113204894D01*
X104554894Y-113126676D01*
X104599953Y-113106780D01*
X104632468Y-113090213D01*
X104640274Y-113088976D01*
X104656086Y-113081995D01*
X104725000Y-113074000D01*
X105475000Y-113074000D01*
X105543914Y-113081995D01*
G37*
G36*
X108343914Y-113081995D02*
G01*
X108359726Y-113088976D01*
X108367531Y-113090213D01*
X108400039Y-113106776D01*
X108445106Y-113126676D01*
X108523324Y-113204894D01*
X108543226Y-113249967D01*
X108559786Y-113282468D01*
X108561021Y-113290270D01*
X108568005Y-113306086D01*
X108576000Y-113375000D01*
X108576000Y-114625000D01*
X108568005Y-114693914D01*
X108561021Y-114709729D01*
X108559786Y-114717531D01*
X108543229Y-114750024D01*
X108523324Y-114795106D01*
X108445106Y-114873324D01*
X108400024Y-114893229D01*
X108367531Y-114909786D01*
X108359729Y-114911021D01*
X108343914Y-114918005D01*
X108275000Y-114926000D01*
X107525000Y-114926000D01*
X107456086Y-114918005D01*
X107440270Y-114911021D01*
X107432468Y-114909786D01*
X107399967Y-114893226D01*
X107354894Y-114873324D01*
X107276676Y-114795106D01*
X107256776Y-114750039D01*
X107240213Y-114717531D01*
X107238976Y-114709726D01*
X107231995Y-114693914D01*
X107224000Y-114625000D01*
X107224000Y-113375000D01*
X107231995Y-113306086D01*
X107238976Y-113290274D01*
X107240213Y-113282468D01*
X107256780Y-113249953D01*
X107276676Y-113204894D01*
X107354894Y-113126676D01*
X107399953Y-113106780D01*
X107432468Y-113090213D01*
X107440274Y-113088976D01*
X107456086Y-113081995D01*
X107525000Y-113074000D01*
X108275000Y-113074000D01*
X108343914Y-113081995D01*
G37*
G36*
X101808539Y-113477190D02*
G01*
X101846016Y-113482124D01*
X101855443Y-113486519D01*
X101876116Y-113490632D01*
X101903499Y-113508929D01*
X101916718Y-113515093D01*
X101924759Y-113523134D01*
X101947003Y-113537997D01*
X101961865Y-113560240D01*
X101969906Y-113568281D01*
X101976068Y-113581497D01*
X101994368Y-113608884D01*
X101998480Y-113629558D01*
X102002875Y-113638983D01*
X102007807Y-113676449D01*
X102011000Y-113692500D01*
X102011000Y-114307500D01*
X102007806Y-114323553D01*
X102002875Y-114361016D01*
X101998480Y-114370439D01*
X101994368Y-114391116D01*
X101976067Y-114418504D01*
X101969906Y-114431718D01*
X101961867Y-114439756D01*
X101947003Y-114462003D01*
X101924756Y-114476867D01*
X101916718Y-114484906D01*
X101903504Y-114491067D01*
X101876116Y-114509368D01*
X101855439Y-114513480D01*
X101846016Y-114517875D01*
X101808552Y-114522806D01*
X101792500Y-114526000D01*
X101457500Y-114526000D01*
X101441448Y-114522807D01*
X101403983Y-114517875D01*
X101394558Y-114513480D01*
X101373884Y-114509368D01*
X101346497Y-114491068D01*
X101333281Y-114484906D01*
X101325240Y-114476865D01*
X101302997Y-114462003D01*
X101288134Y-114439759D01*
X101280093Y-114431718D01*
X101273929Y-114418499D01*
X101255632Y-114391116D01*
X101251519Y-114370443D01*
X101247124Y-114361016D01*
X101242190Y-114323537D01*
X101239000Y-114307500D01*
X101239000Y-113692500D01*
X101242189Y-113676462D01*
X101247124Y-113638983D01*
X101251520Y-113629555D01*
X101255632Y-113608884D01*
X101273927Y-113581502D01*
X101280093Y-113568281D01*
X101288136Y-113560237D01*
X101302997Y-113537997D01*
X101325237Y-113523136D01*
X101333281Y-113515093D01*
X101346502Y-113508927D01*
X101373884Y-113490632D01*
X101394555Y-113486520D01*
X101403983Y-113482124D01*
X101441464Y-113477189D01*
X101457500Y-113474000D01*
X101792500Y-113474000D01*
X101808539Y-113477190D01*
G37*
G36*
X103558539Y-113477190D02*
G01*
X103596016Y-113482124D01*
X103605443Y-113486519D01*
X103626116Y-113490632D01*
X103653499Y-113508929D01*
X103666718Y-113515093D01*
X103674759Y-113523134D01*
X103697003Y-113537997D01*
X103711865Y-113560240D01*
X103719906Y-113568281D01*
X103726068Y-113581497D01*
X103744368Y-113608884D01*
X103748480Y-113629558D01*
X103752875Y-113638983D01*
X103757807Y-113676449D01*
X103761000Y-113692500D01*
X103761000Y-114307500D01*
X103757806Y-114323553D01*
X103752875Y-114361016D01*
X103748480Y-114370439D01*
X103744368Y-114391116D01*
X103726067Y-114418504D01*
X103719906Y-114431718D01*
X103711867Y-114439756D01*
X103697003Y-114462003D01*
X103674756Y-114476867D01*
X103666718Y-114484906D01*
X103653504Y-114491067D01*
X103626116Y-114509368D01*
X103605439Y-114513480D01*
X103596016Y-114517875D01*
X103558552Y-114522806D01*
X103542500Y-114526000D01*
X103207500Y-114526000D01*
X103191448Y-114522807D01*
X103153983Y-114517875D01*
X103144558Y-114513480D01*
X103123884Y-114509368D01*
X103096497Y-114491068D01*
X103083281Y-114484906D01*
X103075240Y-114476865D01*
X103052997Y-114462003D01*
X103038134Y-114439759D01*
X103030093Y-114431718D01*
X103023929Y-114418499D01*
X103005632Y-114391116D01*
X103001519Y-114370443D01*
X102997124Y-114361016D01*
X102992190Y-114323537D01*
X102989000Y-114307500D01*
X102989000Y-113692500D01*
X102992189Y-113676462D01*
X102997124Y-113638983D01*
X103001520Y-113629555D01*
X103005632Y-113608884D01*
X103023927Y-113581502D01*
X103030093Y-113568281D01*
X103038136Y-113560237D01*
X103052997Y-113537997D01*
X103075237Y-113523136D01*
X103083281Y-113515093D01*
X103096502Y-113508927D01*
X103123884Y-113490632D01*
X103144555Y-113486520D01*
X103153983Y-113482124D01*
X103191464Y-113477189D01*
X103207500Y-113474000D01*
X103542500Y-113474000D01*
X103558539Y-113477190D01*
G37*
G36*
X125823539Y-113492190D02*
G01*
X125861016Y-113497124D01*
X125870443Y-113501519D01*
X125891116Y-113505632D01*
X125918499Y-113523929D01*
X125931718Y-113530093D01*
X125939759Y-113538134D01*
X125962003Y-113552997D01*
X125976865Y-113575240D01*
X125984906Y-113583281D01*
X125991068Y-113596497D01*
X126009368Y-113623884D01*
X126013480Y-113644558D01*
X126017875Y-113653983D01*
X126022807Y-113691449D01*
X126026000Y-113707500D01*
X126026000Y-114042500D01*
X126022806Y-114058553D01*
X126017875Y-114096016D01*
X126013480Y-114105439D01*
X126009368Y-114126116D01*
X125991067Y-114153504D01*
X125984906Y-114166718D01*
X125976867Y-114174756D01*
X125962003Y-114197003D01*
X125939756Y-114211867D01*
X125931718Y-114219906D01*
X125918504Y-114226067D01*
X125891116Y-114244368D01*
X125870439Y-114248480D01*
X125861016Y-114252875D01*
X125823552Y-114257806D01*
X125807500Y-114261000D01*
X125192500Y-114261000D01*
X125176448Y-114257807D01*
X125138983Y-114252875D01*
X125129558Y-114248480D01*
X125108884Y-114244368D01*
X125081497Y-114226068D01*
X125068281Y-114219906D01*
X125060240Y-114211865D01*
X125037997Y-114197003D01*
X125023134Y-114174759D01*
X125015093Y-114166718D01*
X125008929Y-114153499D01*
X124990632Y-114126116D01*
X124986519Y-114105443D01*
X124982124Y-114096016D01*
X124977190Y-114058537D01*
X124974000Y-114042500D01*
X124974000Y-113707500D01*
X124977189Y-113691462D01*
X124982124Y-113653983D01*
X124986520Y-113644555D01*
X124990632Y-113623884D01*
X125008927Y-113596502D01*
X125015093Y-113583281D01*
X125023136Y-113575237D01*
X125037997Y-113552997D01*
X125060237Y-113538136D01*
X125068281Y-113530093D01*
X125081502Y-113523927D01*
X125108884Y-113505632D01*
X125129555Y-113501520D01*
X125138983Y-113497124D01*
X125176464Y-113492189D01*
X125192500Y-113489000D01*
X125807500Y-113489000D01*
X125823539Y-113492190D01*
G37*
G36*
X101808539Y-111977190D02*
G01*
X101846016Y-111982124D01*
X101855443Y-111986519D01*
X101876116Y-111990632D01*
X101903499Y-112008929D01*
X101916718Y-112015093D01*
X101924759Y-112023134D01*
X101947003Y-112037997D01*
X101961865Y-112060240D01*
X101969906Y-112068281D01*
X101976068Y-112081497D01*
X101994368Y-112108884D01*
X101998480Y-112129558D01*
X102002875Y-112138983D01*
X102007807Y-112176449D01*
X102011000Y-112192500D01*
X102011000Y-112807500D01*
X102007806Y-112823553D01*
X102002875Y-112861016D01*
X101998480Y-112870439D01*
X101994368Y-112891116D01*
X101976067Y-112918504D01*
X101969906Y-112931718D01*
X101961867Y-112939756D01*
X101947003Y-112962003D01*
X101924756Y-112976867D01*
X101916718Y-112984906D01*
X101903504Y-112991067D01*
X101876116Y-113009368D01*
X101855439Y-113013480D01*
X101846016Y-113017875D01*
X101808552Y-113022806D01*
X101792500Y-113026000D01*
X101457500Y-113026000D01*
X101441448Y-113022807D01*
X101403983Y-113017875D01*
X101394558Y-113013480D01*
X101373884Y-113009368D01*
X101346497Y-112991068D01*
X101333281Y-112984906D01*
X101325240Y-112976865D01*
X101302997Y-112962003D01*
X101288134Y-112939759D01*
X101280093Y-112931718D01*
X101273929Y-112918499D01*
X101255632Y-112891116D01*
X101251519Y-112870443D01*
X101247124Y-112861016D01*
X101242190Y-112823537D01*
X101239000Y-112807500D01*
X101239000Y-112192500D01*
X101242189Y-112176462D01*
X101247124Y-112138983D01*
X101251520Y-112129555D01*
X101255632Y-112108884D01*
X101273927Y-112081502D01*
X101280093Y-112068281D01*
X101288136Y-112060237D01*
X101302997Y-112037997D01*
X101325237Y-112023136D01*
X101333281Y-112015093D01*
X101346502Y-112008927D01*
X101373884Y-111990632D01*
X101394555Y-111986520D01*
X101403983Y-111982124D01*
X101441464Y-111977189D01*
X101457500Y-111974000D01*
X101792500Y-111974000D01*
X101808539Y-111977190D01*
G37*
G36*
X103558539Y-111977190D02*
G01*
X103596016Y-111982124D01*
X103605443Y-111986519D01*
X103626116Y-111990632D01*
X103653499Y-112008929D01*
X103666718Y-112015093D01*
X103674759Y-112023134D01*
X103697003Y-112037997D01*
X103711865Y-112060240D01*
X103719906Y-112068281D01*
X103726068Y-112081497D01*
X103744368Y-112108884D01*
X103748480Y-112129558D01*
X103752875Y-112138983D01*
X103757807Y-112176449D01*
X103761000Y-112192500D01*
X103761000Y-112807500D01*
X103757806Y-112823553D01*
X103752875Y-112861016D01*
X103748480Y-112870439D01*
X103744368Y-112891116D01*
X103726067Y-112918504D01*
X103719906Y-112931718D01*
X103711867Y-112939756D01*
X103697003Y-112962003D01*
X103674756Y-112976867D01*
X103666718Y-112984906D01*
X103653504Y-112991067D01*
X103626116Y-113009368D01*
X103605439Y-113013480D01*
X103596016Y-113017875D01*
X103558552Y-113022806D01*
X103542500Y-113026000D01*
X103207500Y-113026000D01*
X103191448Y-113022807D01*
X103153983Y-113017875D01*
X103144558Y-113013480D01*
X103123884Y-113009368D01*
X103096497Y-112991068D01*
X103083281Y-112984906D01*
X103075240Y-112976865D01*
X103052997Y-112962003D01*
X103038134Y-112939759D01*
X103030093Y-112931718D01*
X103023929Y-112918499D01*
X103005632Y-112891116D01*
X103001519Y-112870443D01*
X102997124Y-112861016D01*
X102992190Y-112823537D01*
X102989000Y-112807500D01*
X102989000Y-112192500D01*
X102992189Y-112176462D01*
X102997124Y-112138983D01*
X103001520Y-112129555D01*
X103005632Y-112108884D01*
X103023927Y-112081502D01*
X103030093Y-112068281D01*
X103038136Y-112060237D01*
X103052997Y-112037997D01*
X103075237Y-112023136D01*
X103083281Y-112015093D01*
X103096502Y-112008927D01*
X103123884Y-111990632D01*
X103144555Y-111986520D01*
X103153983Y-111982124D01*
X103191464Y-111977189D01*
X103207500Y-111974000D01*
X103542500Y-111974000D01*
X103558539Y-111977190D01*
G37*
G36*
X102469694Y-108481646D02*
G01*
X102514126Y-108488684D01*
X102519923Y-108491637D01*
X102534479Y-108494533D01*
X102562973Y-108513572D01*
X102588887Y-108526776D01*
X102601278Y-108539167D01*
X102621992Y-108553008D01*
X102635832Y-108573721D01*
X102648223Y-108586112D01*
X102661425Y-108612023D01*
X102680467Y-108640521D01*
X102683362Y-108655078D01*
X102686315Y-108660873D01*
X102693349Y-108705284D01*
X102701000Y-108743750D01*
X102701000Y-109256250D01*
X102693348Y-109294718D01*
X102686315Y-109339126D01*
X102683362Y-109344919D01*
X102680467Y-109359479D01*
X102661423Y-109387979D01*
X102648223Y-109413887D01*
X102635834Y-109426275D01*
X102621992Y-109446992D01*
X102601275Y-109460834D01*
X102588887Y-109473223D01*
X102562979Y-109486423D01*
X102534479Y-109505467D01*
X102519919Y-109508362D01*
X102514126Y-109511315D01*
X102469718Y-109518348D01*
X102431250Y-109526000D01*
X101993750Y-109526000D01*
X101955284Y-109518349D01*
X101910873Y-109511315D01*
X101905078Y-109508362D01*
X101890521Y-109505467D01*
X101862023Y-109486425D01*
X101836112Y-109473223D01*
X101823721Y-109460832D01*
X101803008Y-109446992D01*
X101789167Y-109426278D01*
X101776776Y-109413887D01*
X101763572Y-109387973D01*
X101744533Y-109359479D01*
X101741637Y-109344923D01*
X101738684Y-109339126D01*
X101731646Y-109294694D01*
X101724000Y-109256250D01*
X101724000Y-108743750D01*
X101731646Y-108705309D01*
X101738684Y-108660873D01*
X101741638Y-108655075D01*
X101744533Y-108640521D01*
X101763570Y-108612029D01*
X101776776Y-108586112D01*
X101789169Y-108573718D01*
X101803008Y-108553008D01*
X101823718Y-108539169D01*
X101836112Y-108526776D01*
X101862029Y-108513570D01*
X101890521Y-108494533D01*
X101905075Y-108491638D01*
X101910873Y-108488684D01*
X101955309Y-108481646D01*
X101993750Y-108474000D01*
X102431250Y-108474000D01*
X102469694Y-108481646D01*
G37*
G36*
X104044694Y-108481646D02*
G01*
X104089126Y-108488684D01*
X104094923Y-108491637D01*
X104109479Y-108494533D01*
X104137973Y-108513572D01*
X104163887Y-108526776D01*
X104176278Y-108539167D01*
X104196992Y-108553008D01*
X104210832Y-108573721D01*
X104223223Y-108586112D01*
X104236425Y-108612023D01*
X104255467Y-108640521D01*
X104258362Y-108655078D01*
X104261315Y-108660873D01*
X104268349Y-108705284D01*
X104276000Y-108743750D01*
X104276000Y-109256250D01*
X104268348Y-109294718D01*
X104261315Y-109339126D01*
X104258362Y-109344919D01*
X104255467Y-109359479D01*
X104236423Y-109387979D01*
X104223223Y-109413887D01*
X104210834Y-109426275D01*
X104196992Y-109446992D01*
X104176275Y-109460834D01*
X104163887Y-109473223D01*
X104137979Y-109486423D01*
X104109479Y-109505467D01*
X104094919Y-109508362D01*
X104089126Y-109511315D01*
X104044718Y-109518348D01*
X104006250Y-109526000D01*
X103568750Y-109526000D01*
X103530284Y-109518349D01*
X103485873Y-109511315D01*
X103480078Y-109508362D01*
X103465521Y-109505467D01*
X103437023Y-109486425D01*
X103411112Y-109473223D01*
X103398721Y-109460832D01*
X103378008Y-109446992D01*
X103364167Y-109426278D01*
X103351776Y-109413887D01*
X103338572Y-109387973D01*
X103319533Y-109359479D01*
X103316637Y-109344923D01*
X103313684Y-109339126D01*
X103306646Y-109294694D01*
X103299000Y-109256250D01*
X103299000Y-108743750D01*
X103306646Y-108705309D01*
X103313684Y-108660873D01*
X103316638Y-108655075D01*
X103319533Y-108640521D01*
X103338570Y-108612029D01*
X103351776Y-108586112D01*
X103364169Y-108573718D01*
X103378008Y-108553008D01*
X103398718Y-108539169D01*
X103411112Y-108526776D01*
X103437029Y-108513570D01*
X103465521Y-108494533D01*
X103480075Y-108491638D01*
X103485873Y-108488684D01*
X103530309Y-108481646D01*
X103568750Y-108474000D01*
X104006250Y-108474000D01*
X104044694Y-108481646D01*
G37*
G36*
X106499517Y-109082882D02*
G01*
X106516062Y-109093938D01*
X106527118Y-109110483D01*
X106531000Y-109130000D01*
X106531000Y-109142319D01*
X106543162Y-109203467D01*
X106706988Y-109236063D01*
X106726660Y-109206626D01*
X106727882Y-109200483D01*
X106738938Y-109183938D01*
X106755483Y-109172882D01*
X106775000Y-109169000D01*
X108225000Y-109169000D01*
X108244517Y-109172882D01*
X108261062Y-109183938D01*
X108272118Y-109200483D01*
X108273343Y-109206645D01*
X108292994Y-109236058D01*
X108456832Y-109203474D01*
X108469000Y-109142303D01*
X108469000Y-109130000D01*
X108472882Y-109110483D01*
X108483938Y-109093938D01*
X108500483Y-109082882D01*
X108520000Y-109079000D01*
X109200000Y-109079000D01*
X109219517Y-109082882D01*
X109236062Y-109093938D01*
X109247118Y-109110483D01*
X109251000Y-109130000D01*
X109251000Y-109430000D01*
X109247118Y-109449517D01*
X109236062Y-109466062D01*
X109230844Y-109469548D01*
X109215788Y-109492082D01*
X109215788Y-109567918D01*
X109230845Y-109590451D01*
X109236062Y-109593938D01*
X109247118Y-109610483D01*
X109251000Y-109630000D01*
X109251000Y-109930000D01*
X109247118Y-109949517D01*
X109236062Y-109966062D01*
X109230844Y-109969548D01*
X109215788Y-109992082D01*
X109215788Y-110067918D01*
X109230845Y-110090451D01*
X109236062Y-110093938D01*
X109247118Y-110110483D01*
X109251000Y-110130000D01*
X109251000Y-110430000D01*
X109247118Y-110449517D01*
X109236062Y-110466062D01*
X109230844Y-110469548D01*
X109215788Y-110492082D01*
X109215788Y-110567918D01*
X109230845Y-110590451D01*
X109236062Y-110593938D01*
X109247118Y-110610483D01*
X109251000Y-110630000D01*
X109251000Y-110930000D01*
X109247118Y-110949517D01*
X109236062Y-110966062D01*
X109219517Y-110977118D01*
X109200000Y-110981000D01*
X108520000Y-110981000D01*
X108500483Y-110977118D01*
X108483938Y-110966062D01*
X108472882Y-110949517D01*
X108469000Y-110930000D01*
X108469000Y-110917683D01*
X108468997Y-110833164D01*
X108336847Y-110762534D01*
X108264550Y-110810841D01*
X108261062Y-110816062D01*
X108244517Y-110827118D01*
X108225000Y-110831000D01*
X106775000Y-110831000D01*
X106755483Y-110827118D01*
X106738938Y-110816062D01*
X106735451Y-110810843D01*
X106663148Y-110762532D01*
X106531000Y-110833169D01*
X106531000Y-110930000D01*
X106527118Y-110949517D01*
X106516062Y-110966062D01*
X106499517Y-110977118D01*
X106480000Y-110981000D01*
X105800000Y-110981000D01*
X105780483Y-110977118D01*
X105763938Y-110966062D01*
X105752882Y-110949517D01*
X105749000Y-110930000D01*
X105749000Y-110630000D01*
X105752882Y-110610483D01*
X105763938Y-110593938D01*
X105769152Y-110590453D01*
X105784211Y-110567917D01*
X105784211Y-110492083D01*
X105769153Y-110469546D01*
X105763938Y-110466062D01*
X105752882Y-110449517D01*
X105749000Y-110430000D01*
X105749000Y-110130000D01*
X105752882Y-110110483D01*
X105763938Y-110093938D01*
X105769152Y-110090453D01*
X105784211Y-110067917D01*
X105784211Y-109992083D01*
X105769153Y-109969546D01*
X105763938Y-109966062D01*
X105752882Y-109949517D01*
X105749000Y-109930000D01*
X105749000Y-109630000D01*
X105752882Y-109610483D01*
X105763938Y-109593938D01*
X105769152Y-109590453D01*
X105784211Y-109567917D01*
X105784211Y-109492083D01*
X105769153Y-109469546D01*
X105763938Y-109466062D01*
X105752882Y-109449517D01*
X105749000Y-109430000D01*
X105749000Y-109130000D01*
X105752882Y-109110483D01*
X105763938Y-109093938D01*
X105780483Y-109082882D01*
X105800000Y-109079000D01*
X106480000Y-109079000D01*
X106499517Y-109082882D01*
G37*
G36*
X126808539Y-109477190D02*
G01*
X126846016Y-109482124D01*
X126855443Y-109486519D01*
X126876116Y-109490632D01*
X126903499Y-109508929D01*
X126916718Y-109515093D01*
X126924759Y-109523134D01*
X126947003Y-109537997D01*
X126961865Y-109560240D01*
X126969906Y-109568281D01*
X126976068Y-109581497D01*
X126994368Y-109608884D01*
X126998480Y-109629558D01*
X127002875Y-109638983D01*
X127007807Y-109676449D01*
X127011000Y-109692500D01*
X127011000Y-110307500D01*
X127007806Y-110323553D01*
X127002875Y-110361016D01*
X126998480Y-110370439D01*
X126994368Y-110391116D01*
X126976067Y-110418504D01*
X126969906Y-110431718D01*
X126961867Y-110439756D01*
X126947003Y-110462003D01*
X126924756Y-110476867D01*
X126916718Y-110484906D01*
X126903504Y-110491067D01*
X126876116Y-110509368D01*
X126855439Y-110513480D01*
X126846016Y-110517875D01*
X126808552Y-110522806D01*
X126792500Y-110526000D01*
X126457500Y-110526000D01*
X126441448Y-110522807D01*
X126403983Y-110517875D01*
X126394558Y-110513480D01*
X126373884Y-110509368D01*
X126346497Y-110491068D01*
X126333281Y-110484906D01*
X126325240Y-110476865D01*
X126302997Y-110462003D01*
X126288134Y-110439759D01*
X126280093Y-110431718D01*
X126273929Y-110418499D01*
X126255632Y-110391116D01*
X126251519Y-110370443D01*
X126247124Y-110361016D01*
X126242190Y-110323537D01*
X126239000Y-110307500D01*
X126239000Y-109692500D01*
X126242189Y-109676462D01*
X126247124Y-109638983D01*
X126251520Y-109629555D01*
X126255632Y-109608884D01*
X126273927Y-109581502D01*
X126280093Y-109568281D01*
X126288136Y-109560237D01*
X126302997Y-109537997D01*
X126325237Y-109523136D01*
X126333281Y-109515093D01*
X126346502Y-109508927D01*
X126373884Y-109490632D01*
X126394555Y-109486520D01*
X126403983Y-109482124D01*
X126441464Y-109477189D01*
X126457500Y-109474000D01*
X126792500Y-109474000D01*
X126808539Y-109477190D01*
G37*
G36*
X128558539Y-109477190D02*
G01*
X128596016Y-109482124D01*
X128605443Y-109486519D01*
X128626116Y-109490632D01*
X128653499Y-109508929D01*
X128666718Y-109515093D01*
X128674759Y-109523134D01*
X128697003Y-109537997D01*
X128711865Y-109560240D01*
X128719906Y-109568281D01*
X128726068Y-109581497D01*
X128744368Y-109608884D01*
X128748480Y-109629558D01*
X128752875Y-109638983D01*
X128757807Y-109676449D01*
X128761000Y-109692500D01*
X128761000Y-110307500D01*
X128757806Y-110323553D01*
X128752875Y-110361016D01*
X128748480Y-110370439D01*
X128744368Y-110391116D01*
X128726067Y-110418504D01*
X128719906Y-110431718D01*
X128711867Y-110439756D01*
X128697003Y-110462003D01*
X128674756Y-110476867D01*
X128666718Y-110484906D01*
X128653504Y-110491067D01*
X128626116Y-110509368D01*
X128605439Y-110513480D01*
X128596016Y-110517875D01*
X128558552Y-110522806D01*
X128542500Y-110526000D01*
X128207500Y-110526000D01*
X128191448Y-110522807D01*
X128153983Y-110517875D01*
X128144558Y-110513480D01*
X128123884Y-110509368D01*
X128096497Y-110491068D01*
X128083281Y-110484906D01*
X128075240Y-110476865D01*
X128052997Y-110462003D01*
X128038134Y-110439759D01*
X128030093Y-110431718D01*
X128023929Y-110418499D01*
X128005632Y-110391116D01*
X128001519Y-110370443D01*
X127997124Y-110361016D01*
X127992190Y-110323537D01*
X127989000Y-110307500D01*
X127989000Y-109692500D01*
X127992189Y-109676462D01*
X127997124Y-109638983D01*
X128001520Y-109629555D01*
X128005632Y-109608884D01*
X128023927Y-109581502D01*
X128030093Y-109568281D01*
X128038136Y-109560237D01*
X128052997Y-109537997D01*
X128075237Y-109523136D01*
X128083281Y-109515093D01*
X128096502Y-109508927D01*
X128123884Y-109490632D01*
X128144555Y-109486520D01*
X128153983Y-109482124D01*
X128191464Y-109477189D01*
X128207500Y-109474000D01*
X128542500Y-109474000D01*
X128558539Y-109477190D01*
G37*
G36*
X129808539Y-109477190D02*
G01*
X129846016Y-109482124D01*
X129855443Y-109486519D01*
X129876116Y-109490632D01*
X129903499Y-109508929D01*
X129916718Y-109515093D01*
X129924759Y-109523134D01*
X129947003Y-109537997D01*
X129961865Y-109560240D01*
X129969906Y-109568281D01*
X129976068Y-109581497D01*
X129994368Y-109608884D01*
X129998480Y-109629558D01*
X130002875Y-109638983D01*
X130007807Y-109676449D01*
X130011000Y-109692500D01*
X130011000Y-110307500D01*
X130007806Y-110323553D01*
X130002875Y-110361016D01*
X129998480Y-110370439D01*
X129994368Y-110391116D01*
X129976067Y-110418504D01*
X129969906Y-110431718D01*
X129961867Y-110439756D01*
X129947003Y-110462003D01*
X129924756Y-110476867D01*
X129916718Y-110484906D01*
X129903504Y-110491067D01*
X129876116Y-110509368D01*
X129855439Y-110513480D01*
X129846016Y-110517875D01*
X129808552Y-110522806D01*
X129792500Y-110526000D01*
X129457500Y-110526000D01*
X129441448Y-110522807D01*
X129403983Y-110517875D01*
X129394558Y-110513480D01*
X129373884Y-110509368D01*
X129346497Y-110491068D01*
X129333281Y-110484906D01*
X129325240Y-110476865D01*
X129302997Y-110462003D01*
X129288134Y-110439759D01*
X129280093Y-110431718D01*
X129273929Y-110418499D01*
X129255632Y-110391116D01*
X129251519Y-110370443D01*
X129247124Y-110361016D01*
X129242190Y-110323537D01*
X129239000Y-110307500D01*
X129239000Y-109692500D01*
X129242189Y-109676462D01*
X129247124Y-109638983D01*
X129251520Y-109629555D01*
X129255632Y-109608884D01*
X129273927Y-109581502D01*
X129280093Y-109568281D01*
X129288136Y-109560237D01*
X129302997Y-109537997D01*
X129325237Y-109523136D01*
X129333281Y-109515093D01*
X129346502Y-109508927D01*
X129373884Y-109490632D01*
X129394555Y-109486520D01*
X129403983Y-109482124D01*
X129441464Y-109477189D01*
X129457500Y-109474000D01*
X129792500Y-109474000D01*
X129808539Y-109477190D01*
G37*
G36*
X131558539Y-109477190D02*
G01*
X131596016Y-109482124D01*
X131605443Y-109486519D01*
X131626116Y-109490632D01*
X131653499Y-109508929D01*
X131666718Y-109515093D01*
X131674759Y-109523134D01*
X131697003Y-109537997D01*
X131711865Y-109560240D01*
X131719906Y-109568281D01*
X131726068Y-109581497D01*
X131744368Y-109608884D01*
X131748480Y-109629558D01*
X131752875Y-109638983D01*
X131757807Y-109676449D01*
X131761000Y-109692500D01*
X131761000Y-110307500D01*
X131757806Y-110323553D01*
X131752875Y-110361016D01*
X131748480Y-110370439D01*
X131744368Y-110391116D01*
X131726067Y-110418504D01*
X131719906Y-110431718D01*
X131711867Y-110439756D01*
X131697003Y-110462003D01*
X131674756Y-110476867D01*
X131666718Y-110484906D01*
X131653504Y-110491067D01*
X131626116Y-110509368D01*
X131605439Y-110513480D01*
X131596016Y-110517875D01*
X131558552Y-110522806D01*
X131542500Y-110526000D01*
X131207500Y-110526000D01*
X131191448Y-110522807D01*
X131153983Y-110517875D01*
X131144558Y-110513480D01*
X131123884Y-110509368D01*
X131096497Y-110491068D01*
X131083281Y-110484906D01*
X131075240Y-110476865D01*
X131052997Y-110462003D01*
X131038134Y-110439759D01*
X131030093Y-110431718D01*
X131023929Y-110418499D01*
X131005632Y-110391116D01*
X131001519Y-110370443D01*
X130997124Y-110361016D01*
X130992190Y-110323537D01*
X130989000Y-110307500D01*
X130989000Y-109692500D01*
X130992189Y-109676462D01*
X130997124Y-109638983D01*
X131001520Y-109629555D01*
X131005632Y-109608884D01*
X131023927Y-109581502D01*
X131030093Y-109568281D01*
X131038136Y-109560237D01*
X131052997Y-109537997D01*
X131075237Y-109523136D01*
X131083281Y-109515093D01*
X131096502Y-109508927D01*
X131123884Y-109490632D01*
X131144555Y-109486520D01*
X131153983Y-109482124D01*
X131191464Y-109477189D01*
X131207500Y-109474000D01*
X131542500Y-109474000D01*
X131558539Y-109477190D01*
G37*
G36*
X111823539Y-109742190D02*
G01*
X111861016Y-109747124D01*
X111870443Y-109751519D01*
X111891116Y-109755632D01*
X111918499Y-109773929D01*
X111931718Y-109780093D01*
X111939759Y-109788134D01*
X111962003Y-109802997D01*
X111976865Y-109825240D01*
X111984906Y-109833281D01*
X111991068Y-109846497D01*
X112009368Y-109873884D01*
X112013480Y-109894558D01*
X112017875Y-109903983D01*
X112022807Y-109941449D01*
X112026000Y-109957500D01*
X112026000Y-110292500D01*
X112022806Y-110308553D01*
X112017875Y-110346016D01*
X112013480Y-110355439D01*
X112009368Y-110376116D01*
X111991067Y-110403504D01*
X111984906Y-110416718D01*
X111976867Y-110424756D01*
X111962003Y-110447003D01*
X111939756Y-110461867D01*
X111931718Y-110469906D01*
X111918504Y-110476067D01*
X111891116Y-110494368D01*
X111870439Y-110498480D01*
X111861016Y-110502875D01*
X111823552Y-110507806D01*
X111807500Y-110511000D01*
X111192500Y-110511000D01*
X111176448Y-110507807D01*
X111138983Y-110502875D01*
X111129558Y-110498480D01*
X111108884Y-110494368D01*
X111081497Y-110476068D01*
X111068281Y-110469906D01*
X111060240Y-110461865D01*
X111037997Y-110447003D01*
X111023134Y-110424759D01*
X111015093Y-110416718D01*
X111008929Y-110403499D01*
X110990632Y-110376116D01*
X110986519Y-110355443D01*
X110982124Y-110346016D01*
X110977190Y-110308537D01*
X110974000Y-110292500D01*
X110974000Y-109957500D01*
X110977189Y-109941462D01*
X110982124Y-109903983D01*
X110986520Y-109894555D01*
X110990632Y-109873884D01*
X111008927Y-109846502D01*
X111015093Y-109833281D01*
X111023136Y-109825237D01*
X111037997Y-109802997D01*
X111060237Y-109788136D01*
X111068281Y-109780093D01*
X111081502Y-109773927D01*
X111108884Y-109755632D01*
X111129555Y-109751520D01*
X111138983Y-109747124D01*
X111176464Y-109742189D01*
X111192500Y-109739000D01*
X111807500Y-109739000D01*
X111823539Y-109742190D01*
G37*
G36*
X113323539Y-109742190D02*
G01*
X113361016Y-109747124D01*
X113370443Y-109751519D01*
X113391116Y-109755632D01*
X113418499Y-109773929D01*
X113431718Y-109780093D01*
X113439759Y-109788134D01*
X113462003Y-109802997D01*
X113476865Y-109825240D01*
X113484906Y-109833281D01*
X113491068Y-109846497D01*
X113509368Y-109873884D01*
X113513480Y-109894558D01*
X113517875Y-109903983D01*
X113522807Y-109941449D01*
X113526000Y-109957500D01*
X113526000Y-110292500D01*
X113522806Y-110308553D01*
X113517875Y-110346016D01*
X113513480Y-110355439D01*
X113509368Y-110376116D01*
X113491067Y-110403504D01*
X113484906Y-110416718D01*
X113476867Y-110424756D01*
X113462003Y-110447003D01*
X113439756Y-110461867D01*
X113431718Y-110469906D01*
X113418504Y-110476067D01*
X113391116Y-110494368D01*
X113370439Y-110498480D01*
X113361016Y-110502875D01*
X113323552Y-110507806D01*
X113307500Y-110511000D01*
X112692500Y-110511000D01*
X112676448Y-110507807D01*
X112638983Y-110502875D01*
X112629558Y-110498480D01*
X112608884Y-110494368D01*
X112581497Y-110476068D01*
X112568281Y-110469906D01*
X112560240Y-110461865D01*
X112537997Y-110447003D01*
X112523134Y-110424759D01*
X112515093Y-110416718D01*
X112508929Y-110403499D01*
X112490632Y-110376116D01*
X112486519Y-110355443D01*
X112482124Y-110346016D01*
X112477190Y-110308537D01*
X112474000Y-110292500D01*
X112474000Y-109957500D01*
X112477189Y-109941462D01*
X112482124Y-109903983D01*
X112486520Y-109894555D01*
X112490632Y-109873884D01*
X112508927Y-109846502D01*
X112515093Y-109833281D01*
X112523136Y-109825237D01*
X112537997Y-109802997D01*
X112560237Y-109788136D01*
X112568281Y-109780093D01*
X112581502Y-109773927D01*
X112608884Y-109755632D01*
X112629555Y-109751520D01*
X112638983Y-109747124D01*
X112676464Y-109742189D01*
X112692500Y-109739000D01*
X113307500Y-109739000D01*
X113323539Y-109742190D01*
G37*
G36*
X114823539Y-109742190D02*
G01*
X114861016Y-109747124D01*
X114870443Y-109751519D01*
X114891116Y-109755632D01*
X114918499Y-109773929D01*
X114931718Y-109780093D01*
X114939759Y-109788134D01*
X114962003Y-109802997D01*
X114976865Y-109825240D01*
X114984906Y-109833281D01*
X114991068Y-109846497D01*
X115009368Y-109873884D01*
X115013480Y-109894558D01*
X115017875Y-109903983D01*
X115022807Y-109941449D01*
X115026000Y-109957500D01*
X115026000Y-110292500D01*
X115022806Y-110308553D01*
X115017875Y-110346016D01*
X115013480Y-110355439D01*
X115009368Y-110376116D01*
X114991067Y-110403504D01*
X114984906Y-110416718D01*
X114976867Y-110424756D01*
X114962003Y-110447003D01*
X114939756Y-110461867D01*
X114931718Y-110469906D01*
X114918504Y-110476067D01*
X114891116Y-110494368D01*
X114870439Y-110498480D01*
X114861016Y-110502875D01*
X114823552Y-110507806D01*
X114807500Y-110511000D01*
X114192500Y-110511000D01*
X114176448Y-110507807D01*
X114138983Y-110502875D01*
X114129558Y-110498480D01*
X114108884Y-110494368D01*
X114081497Y-110476068D01*
X114068281Y-110469906D01*
X114060240Y-110461865D01*
X114037997Y-110447003D01*
X114023134Y-110424759D01*
X114015093Y-110416718D01*
X114008929Y-110403499D01*
X113990632Y-110376116D01*
X113986519Y-110355443D01*
X113982124Y-110346016D01*
X113977190Y-110308537D01*
X113974000Y-110292500D01*
X113974000Y-109957500D01*
X113977189Y-109941462D01*
X113982124Y-109903983D01*
X113986520Y-109894555D01*
X113990632Y-109873884D01*
X114008927Y-109846502D01*
X114015093Y-109833281D01*
X114023136Y-109825237D01*
X114037997Y-109802997D01*
X114060237Y-109788136D01*
X114068281Y-109780093D01*
X114081502Y-109773927D01*
X114108884Y-109755632D01*
X114129555Y-109751520D01*
X114138983Y-109747124D01*
X114176464Y-109742189D01*
X114192500Y-109739000D01*
X114807500Y-109739000D01*
X114823539Y-109742190D01*
G37*
G36*
X116823539Y-109492190D02*
G01*
X116861016Y-109497124D01*
X116870443Y-109501519D01*
X116891116Y-109505632D01*
X116918499Y-109523929D01*
X116931718Y-109530093D01*
X116939759Y-109538134D01*
X116962003Y-109552997D01*
X116976865Y-109575240D01*
X116984906Y-109583281D01*
X116991068Y-109596497D01*
X117009368Y-109623884D01*
X117013480Y-109644558D01*
X117017875Y-109653983D01*
X117022807Y-109691449D01*
X117026000Y-109707500D01*
X117026000Y-110042500D01*
X117022806Y-110058553D01*
X117017875Y-110096016D01*
X117013480Y-110105439D01*
X117009368Y-110126116D01*
X116991067Y-110153504D01*
X116984906Y-110166718D01*
X116976867Y-110174756D01*
X116962003Y-110197003D01*
X116939756Y-110211867D01*
X116931718Y-110219906D01*
X116918504Y-110226067D01*
X116891116Y-110244368D01*
X116870439Y-110248480D01*
X116861016Y-110252875D01*
X116823552Y-110257806D01*
X116807500Y-110261000D01*
X116192500Y-110261000D01*
X116176448Y-110257807D01*
X116138983Y-110252875D01*
X116129558Y-110248480D01*
X116108884Y-110244368D01*
X116081497Y-110226068D01*
X116068281Y-110219906D01*
X116060240Y-110211865D01*
X116037997Y-110197003D01*
X116023134Y-110174759D01*
X116015093Y-110166718D01*
X116008929Y-110153499D01*
X115990632Y-110126116D01*
X115986519Y-110105443D01*
X115982124Y-110096016D01*
X115977190Y-110058537D01*
X115974000Y-110042500D01*
X115974000Y-109707500D01*
X115977189Y-109691462D01*
X115982124Y-109653983D01*
X115986520Y-109644555D01*
X115990632Y-109623884D01*
X116008927Y-109596502D01*
X116015093Y-109583281D01*
X116023136Y-109575237D01*
X116037997Y-109552997D01*
X116060237Y-109538136D01*
X116068281Y-109530093D01*
X116081502Y-109523927D01*
X116108884Y-109505632D01*
X116129555Y-109501520D01*
X116138983Y-109497124D01*
X116176464Y-109492189D01*
X116192500Y-109489000D01*
X116807500Y-109489000D01*
X116823539Y-109492190D01*
G37*
G36*
X107308539Y-106477190D02*
G01*
X107346016Y-106482124D01*
X107355443Y-106486519D01*
X107376116Y-106490632D01*
X107403499Y-106508929D01*
X107416718Y-106515093D01*
X107424759Y-106523134D01*
X107447003Y-106537997D01*
X107461865Y-106560240D01*
X107469906Y-106568281D01*
X107476068Y-106581497D01*
X107494368Y-106608884D01*
X107498480Y-106629558D01*
X107502875Y-106638983D01*
X107507807Y-106676449D01*
X107511000Y-106692500D01*
X107511000Y-107307500D01*
X107507806Y-107323553D01*
X107502875Y-107361016D01*
X107498480Y-107370439D01*
X107494368Y-107391116D01*
X107476067Y-107418504D01*
X107469906Y-107431718D01*
X107461867Y-107439756D01*
X107447003Y-107462003D01*
X107424756Y-107476867D01*
X107416718Y-107484906D01*
X107403504Y-107491067D01*
X107376116Y-107509368D01*
X107355439Y-107513480D01*
X107346016Y-107517875D01*
X107308552Y-107522806D01*
X107292500Y-107526000D01*
X106957500Y-107526000D01*
X106941448Y-107522807D01*
X106903983Y-107517875D01*
X106894558Y-107513480D01*
X106873884Y-107509368D01*
X106846497Y-107491068D01*
X106833281Y-107484906D01*
X106825240Y-107476865D01*
X106802997Y-107462003D01*
X106788134Y-107439759D01*
X106780093Y-107431718D01*
X106773929Y-107418499D01*
X106755632Y-107391116D01*
X106751519Y-107370443D01*
X106747124Y-107361016D01*
X106742190Y-107323537D01*
X106739000Y-107307500D01*
X106739000Y-106692500D01*
X106742189Y-106676462D01*
X106747124Y-106638983D01*
X106751520Y-106629555D01*
X106755632Y-106608884D01*
X106773927Y-106581502D01*
X106780093Y-106568281D01*
X106788136Y-106560237D01*
X106802997Y-106537997D01*
X106825237Y-106523136D01*
X106833281Y-106515093D01*
X106846502Y-106508927D01*
X106873884Y-106490632D01*
X106894555Y-106486520D01*
X106903983Y-106482124D01*
X106941464Y-106477189D01*
X106957500Y-106474000D01*
X107292500Y-106474000D01*
X107308539Y-106477190D01*
G37*
G36*
X109058539Y-106477190D02*
G01*
X109096016Y-106482124D01*
X109105443Y-106486519D01*
X109126116Y-106490632D01*
X109153499Y-106508929D01*
X109166718Y-106515093D01*
X109174759Y-106523134D01*
X109197003Y-106537997D01*
X109211865Y-106560240D01*
X109219906Y-106568281D01*
X109226068Y-106581497D01*
X109244368Y-106608884D01*
X109248480Y-106629558D01*
X109252875Y-106638983D01*
X109257807Y-106676449D01*
X109261000Y-106692500D01*
X109261000Y-107307500D01*
X109257806Y-107323553D01*
X109252875Y-107361016D01*
X109248480Y-107370439D01*
X109244368Y-107391116D01*
X109226067Y-107418504D01*
X109219906Y-107431718D01*
X109211867Y-107439756D01*
X109197003Y-107462003D01*
X109174756Y-107476867D01*
X109166718Y-107484906D01*
X109153504Y-107491067D01*
X109126116Y-107509368D01*
X109105439Y-107513480D01*
X109096016Y-107517875D01*
X109058552Y-107522806D01*
X109042500Y-107526000D01*
X108707500Y-107526000D01*
X108691448Y-107522807D01*
X108653983Y-107517875D01*
X108644558Y-107513480D01*
X108623884Y-107509368D01*
X108596497Y-107491068D01*
X108583281Y-107484906D01*
X108575240Y-107476865D01*
X108552997Y-107462003D01*
X108538134Y-107439759D01*
X108530093Y-107431718D01*
X108523929Y-107418499D01*
X108505632Y-107391116D01*
X108501519Y-107370443D01*
X108497124Y-107361016D01*
X108492190Y-107323537D01*
X108489000Y-107307500D01*
X108489000Y-106692500D01*
X108492189Y-106676462D01*
X108497124Y-106638983D01*
X108501520Y-106629555D01*
X108505632Y-106608884D01*
X108523927Y-106581502D01*
X108530093Y-106568281D01*
X108538136Y-106560237D01*
X108552997Y-106537997D01*
X108575237Y-106523136D01*
X108583281Y-106515093D01*
X108596502Y-106508927D01*
X108623884Y-106490632D01*
X108644555Y-106486520D01*
X108653983Y-106482124D01*
X108691464Y-106477189D01*
X108707500Y-106474000D01*
X109042500Y-106474000D01*
X109058539Y-106477190D01*
G37*
G36*
X112043914Y-107081995D02*
G01*
X112059726Y-107088976D01*
X112067531Y-107090213D01*
X112100039Y-107106776D01*
X112145106Y-107126676D01*
X112223324Y-107204894D01*
X112243226Y-107249967D01*
X112259786Y-107282468D01*
X112261021Y-107290270D01*
X112268005Y-107306086D01*
X112276000Y-107375000D01*
X112276000Y-108625000D01*
X112268005Y-108693914D01*
X112261021Y-108709729D01*
X112259786Y-108717531D01*
X112243229Y-108750024D01*
X112223324Y-108795106D01*
X112145106Y-108873324D01*
X112100024Y-108893229D01*
X112067531Y-108909786D01*
X112059729Y-108911021D01*
X112043914Y-108918005D01*
X111975000Y-108926000D01*
X111225000Y-108926000D01*
X111156086Y-108918005D01*
X111140270Y-108911021D01*
X111132468Y-108909786D01*
X111099967Y-108893226D01*
X111054894Y-108873324D01*
X110976676Y-108795106D01*
X110956776Y-108750039D01*
X110940213Y-108717531D01*
X110938976Y-108709726D01*
X110931995Y-108693914D01*
X110924000Y-108625000D01*
X110924000Y-107375000D01*
X110931995Y-107306086D01*
X110938976Y-107290274D01*
X110940213Y-107282468D01*
X110956780Y-107249953D01*
X110976676Y-107204894D01*
X111054894Y-107126676D01*
X111099953Y-107106780D01*
X111132468Y-107090213D01*
X111140274Y-107088976D01*
X111156086Y-107081995D01*
X111225000Y-107074000D01*
X111975000Y-107074000D01*
X112043914Y-107081995D01*
G37*
G36*
X114843914Y-107081995D02*
G01*
X114859726Y-107088976D01*
X114867531Y-107090213D01*
X114900039Y-107106776D01*
X114945106Y-107126676D01*
X115023324Y-107204894D01*
X115043226Y-107249967D01*
X115059786Y-107282468D01*
X115061021Y-107290270D01*
X115068005Y-107306086D01*
X115076000Y-107375000D01*
X115076000Y-108625000D01*
X115068005Y-108693914D01*
X115061021Y-108709729D01*
X115059786Y-108717531D01*
X115043229Y-108750024D01*
X115023324Y-108795106D01*
X114945106Y-108873324D01*
X114900024Y-108893229D01*
X114867531Y-108909786D01*
X114859729Y-108911021D01*
X114843914Y-108918005D01*
X114775000Y-108926000D01*
X114025000Y-108926000D01*
X113956086Y-108918005D01*
X113940270Y-108911021D01*
X113932468Y-108909786D01*
X113899967Y-108893226D01*
X113854894Y-108873324D01*
X113776676Y-108795106D01*
X113756776Y-108750039D01*
X113740213Y-108717531D01*
X113738976Y-108709726D01*
X113731995Y-108693914D01*
X113724000Y-108625000D01*
X113724000Y-107375000D01*
X113731995Y-107306086D01*
X113738976Y-107290274D01*
X113740213Y-107282468D01*
X113756780Y-107249953D01*
X113776676Y-107204894D01*
X113854894Y-107126676D01*
X113899953Y-107106780D01*
X113932468Y-107090213D01*
X113940274Y-107088976D01*
X113956086Y-107081995D01*
X114025000Y-107074000D01*
X114775000Y-107074000D01*
X114843914Y-107081995D01*
G37*
G36*
X116823539Y-107742190D02*
G01*
X116861016Y-107747124D01*
X116870443Y-107751519D01*
X116891116Y-107755632D01*
X116918499Y-107773929D01*
X116931718Y-107780093D01*
X116939759Y-107788134D01*
X116962003Y-107802997D01*
X116976865Y-107825240D01*
X116984906Y-107833281D01*
X116991068Y-107846497D01*
X117009368Y-107873884D01*
X117013480Y-107894558D01*
X117017875Y-107903983D01*
X117022807Y-107941449D01*
X117026000Y-107957500D01*
X117026000Y-108292500D01*
X117022806Y-108308553D01*
X117017875Y-108346016D01*
X117013480Y-108355439D01*
X117009368Y-108376116D01*
X116991067Y-108403504D01*
X116984906Y-108416718D01*
X116976867Y-108424756D01*
X116962003Y-108447003D01*
X116939756Y-108461867D01*
X116931718Y-108469906D01*
X116918504Y-108476067D01*
X116891116Y-108494368D01*
X116870439Y-108498480D01*
X116861016Y-108502875D01*
X116823552Y-108507806D01*
X116807500Y-108511000D01*
X116192500Y-108511000D01*
X116176448Y-108507807D01*
X116138983Y-108502875D01*
X116129558Y-108498480D01*
X116108884Y-108494368D01*
X116081497Y-108476068D01*
X116068281Y-108469906D01*
X116060240Y-108461865D01*
X116037997Y-108447003D01*
X116023134Y-108424759D01*
X116015093Y-108416718D01*
X116008929Y-108403499D01*
X115990632Y-108376116D01*
X115986519Y-108355443D01*
X115982124Y-108346016D01*
X115977190Y-108308537D01*
X115974000Y-108292500D01*
X115974000Y-107957500D01*
X115977189Y-107941462D01*
X115982124Y-107903983D01*
X115986520Y-107894555D01*
X115990632Y-107873884D01*
X116008927Y-107846502D01*
X116015093Y-107833281D01*
X116023136Y-107825237D01*
X116037997Y-107802997D01*
X116060237Y-107788136D01*
X116068281Y-107780093D01*
X116081502Y-107773927D01*
X116108884Y-107755632D01*
X116129555Y-107751520D01*
X116138983Y-107747124D01*
X116176464Y-107742189D01*
X116192500Y-107739000D01*
X116807500Y-107739000D01*
X116823539Y-107742190D01*
G37*
G36*
X129808539Y-107977190D02*
G01*
X129846016Y-107982124D01*
X129855443Y-107986519D01*
X129876116Y-107990632D01*
X129903499Y-108008929D01*
X129916718Y-108015093D01*
X129924759Y-108023134D01*
X129947003Y-108037997D01*
X129961865Y-108060240D01*
X129969906Y-108068281D01*
X129976068Y-108081497D01*
X129994368Y-108108884D01*
X129998480Y-108129558D01*
X130002875Y-108138983D01*
X130007807Y-108176449D01*
X130011000Y-108192500D01*
X130011000Y-108807500D01*
X130007806Y-108823553D01*
X130002875Y-108861016D01*
X129998480Y-108870439D01*
X129994368Y-108891116D01*
X129976067Y-108918504D01*
X129969906Y-108931718D01*
X129961867Y-108939756D01*
X129947003Y-108962003D01*
X129924756Y-108976867D01*
X129916718Y-108984906D01*
X129903504Y-108991067D01*
X129876116Y-109009368D01*
X129855439Y-109013480D01*
X129846016Y-109017875D01*
X129808552Y-109022806D01*
X129792500Y-109026000D01*
X129457500Y-109026000D01*
X129441448Y-109022807D01*
X129403983Y-109017875D01*
X129394558Y-109013480D01*
X129373884Y-109009368D01*
X129346497Y-108991068D01*
X129333281Y-108984906D01*
X129325240Y-108976865D01*
X129302997Y-108962003D01*
X129288134Y-108939759D01*
X129280093Y-108931718D01*
X129273929Y-108918499D01*
X129255632Y-108891116D01*
X129251519Y-108870443D01*
X129247124Y-108861016D01*
X129242190Y-108823537D01*
X129239000Y-108807500D01*
X129239000Y-108192500D01*
X129242189Y-108176462D01*
X129247124Y-108138983D01*
X129251520Y-108129555D01*
X129255632Y-108108884D01*
X129273927Y-108081502D01*
X129280093Y-108068281D01*
X129288136Y-108060237D01*
X129302997Y-108037997D01*
X129325237Y-108023136D01*
X129333281Y-108015093D01*
X129346502Y-108008927D01*
X129373884Y-107990632D01*
X129394555Y-107986520D01*
X129403983Y-107982124D01*
X129441464Y-107977189D01*
X129457500Y-107974000D01*
X129792500Y-107974000D01*
X129808539Y-107977190D01*
G37*
G36*
X131558539Y-107977190D02*
G01*
X131596016Y-107982124D01*
X131605443Y-107986519D01*
X131626116Y-107990632D01*
X131653499Y-108008929D01*
X131666718Y-108015093D01*
X131674759Y-108023134D01*
X131697003Y-108037997D01*
X131711865Y-108060240D01*
X131719906Y-108068281D01*
X131726068Y-108081497D01*
X131744368Y-108108884D01*
X131748480Y-108129558D01*
X131752875Y-108138983D01*
X131757807Y-108176449D01*
X131761000Y-108192500D01*
X131761000Y-108807500D01*
X131757806Y-108823553D01*
X131752875Y-108861016D01*
X131748480Y-108870439D01*
X131744368Y-108891116D01*
X131726067Y-108918504D01*
X131719906Y-108931718D01*
X131711867Y-108939756D01*
X131697003Y-108962003D01*
X131674756Y-108976867D01*
X131666718Y-108984906D01*
X131653504Y-108991067D01*
X131626116Y-109009368D01*
X131605439Y-109013480D01*
X131596016Y-109017875D01*
X131558552Y-109022806D01*
X131542500Y-109026000D01*
X131207500Y-109026000D01*
X131191448Y-109022807D01*
X131153983Y-109017875D01*
X131144558Y-109013480D01*
X131123884Y-109009368D01*
X131096497Y-108991068D01*
X131083281Y-108984906D01*
X131075240Y-108976865D01*
X131052997Y-108962003D01*
X131038134Y-108939759D01*
X131030093Y-108931718D01*
X131023929Y-108918499D01*
X131005632Y-108891116D01*
X131001519Y-108870443D01*
X130997124Y-108861016D01*
X130992190Y-108823537D01*
X130989000Y-108807500D01*
X130989000Y-108192500D01*
X130992189Y-108176462D01*
X130997124Y-108138983D01*
X131001520Y-108129555D01*
X131005632Y-108108884D01*
X131023927Y-108081502D01*
X131030093Y-108068281D01*
X131038136Y-108060237D01*
X131052997Y-108037997D01*
X131075237Y-108023136D01*
X131083281Y-108015093D01*
X131096502Y-108008927D01*
X131123884Y-107990632D01*
X131144555Y-107986520D01*
X131153983Y-107982124D01*
X131191464Y-107977189D01*
X131207500Y-107974000D01*
X131542500Y-107974000D01*
X131558539Y-107977190D01*
G37*
G36*
X102469694Y-106981646D02*
G01*
X102514126Y-106988684D01*
X102519923Y-106991637D01*
X102534479Y-106994533D01*
X102562973Y-107013572D01*
X102588887Y-107026776D01*
X102601278Y-107039167D01*
X102621992Y-107053008D01*
X102635832Y-107073721D01*
X102648223Y-107086112D01*
X102661425Y-107112023D01*
X102680467Y-107140521D01*
X102683362Y-107155078D01*
X102686315Y-107160873D01*
X102693349Y-107205284D01*
X102701000Y-107243750D01*
X102701000Y-107756250D01*
X102693348Y-107794718D01*
X102686315Y-107839126D01*
X102683362Y-107844919D01*
X102680467Y-107859479D01*
X102661423Y-107887979D01*
X102648223Y-107913887D01*
X102635834Y-107926275D01*
X102621992Y-107946992D01*
X102601275Y-107960834D01*
X102588887Y-107973223D01*
X102562979Y-107986423D01*
X102534479Y-108005467D01*
X102519919Y-108008362D01*
X102514126Y-108011315D01*
X102469718Y-108018348D01*
X102431250Y-108026000D01*
X101993750Y-108026000D01*
X101955284Y-108018349D01*
X101910873Y-108011315D01*
X101905078Y-108008362D01*
X101890521Y-108005467D01*
X101862023Y-107986425D01*
X101836112Y-107973223D01*
X101823721Y-107960832D01*
X101803008Y-107946992D01*
X101789167Y-107926278D01*
X101776776Y-107913887D01*
X101763572Y-107887973D01*
X101744533Y-107859479D01*
X101741637Y-107844923D01*
X101738684Y-107839126D01*
X101731646Y-107794694D01*
X101724000Y-107756250D01*
X101724000Y-107243750D01*
X101731646Y-107205309D01*
X101738684Y-107160873D01*
X101741638Y-107155075D01*
X101744533Y-107140521D01*
X101763570Y-107112029D01*
X101776776Y-107086112D01*
X101789169Y-107073718D01*
X101803008Y-107053008D01*
X101823718Y-107039169D01*
X101836112Y-107026776D01*
X101862029Y-107013570D01*
X101890521Y-106994533D01*
X101905075Y-106991638D01*
X101910873Y-106988684D01*
X101955309Y-106981646D01*
X101993750Y-106974000D01*
X102431250Y-106974000D01*
X102469694Y-106981646D01*
G37*
G36*
X104044694Y-106981646D02*
G01*
X104089126Y-106988684D01*
X104094923Y-106991637D01*
X104109479Y-106994533D01*
X104137973Y-107013572D01*
X104163887Y-107026776D01*
X104176278Y-107039167D01*
X104196992Y-107053008D01*
X104210832Y-107073721D01*
X104223223Y-107086112D01*
X104236425Y-107112023D01*
X104255467Y-107140521D01*
X104258362Y-107155078D01*
X104261315Y-107160873D01*
X104268349Y-107205284D01*
X104276000Y-107243750D01*
X104276000Y-107756250D01*
X104268348Y-107794718D01*
X104261315Y-107839126D01*
X104258362Y-107844919D01*
X104255467Y-107859479D01*
X104236423Y-107887979D01*
X104223223Y-107913887D01*
X104210834Y-107926275D01*
X104196992Y-107946992D01*
X104176275Y-107960834D01*
X104163887Y-107973223D01*
X104137979Y-107986423D01*
X104109479Y-108005467D01*
X104094919Y-108008362D01*
X104089126Y-108011315D01*
X104044718Y-108018348D01*
X104006250Y-108026000D01*
X103568750Y-108026000D01*
X103530284Y-108018349D01*
X103485873Y-108011315D01*
X103480078Y-108008362D01*
X103465521Y-108005467D01*
X103437023Y-107986425D01*
X103411112Y-107973223D01*
X103398721Y-107960832D01*
X103378008Y-107946992D01*
X103364167Y-107926278D01*
X103351776Y-107913887D01*
X103338572Y-107887973D01*
X103319533Y-107859479D01*
X103316637Y-107844923D01*
X103313684Y-107839126D01*
X103306646Y-107794694D01*
X103299000Y-107756250D01*
X103299000Y-107243750D01*
X103306646Y-107205309D01*
X103313684Y-107160873D01*
X103316638Y-107155075D01*
X103319533Y-107140521D01*
X103338570Y-107112029D01*
X103351776Y-107086112D01*
X103364169Y-107073718D01*
X103378008Y-107053008D01*
X103398718Y-107039169D01*
X103411112Y-107026776D01*
X103437029Y-107013570D01*
X103465521Y-106994533D01*
X103480075Y-106991638D01*
X103485873Y-106988684D01*
X103530309Y-106981646D01*
X103568750Y-106974000D01*
X104006250Y-106974000D01*
X104044694Y-106981646D01*
G37*
G36*
X105294694Y-103731646D02*
G01*
X105339126Y-103738684D01*
X105344923Y-103741637D01*
X105359479Y-103744533D01*
X105387973Y-103763572D01*
X105413887Y-103776776D01*
X105426278Y-103789167D01*
X105446992Y-103803008D01*
X105460832Y-103823721D01*
X105473223Y-103836112D01*
X105486425Y-103862023D01*
X105505467Y-103890521D01*
X105508362Y-103905078D01*
X105511315Y-103910873D01*
X105518349Y-103955284D01*
X105526000Y-103993750D01*
X105526000Y-104431250D01*
X105518348Y-104469718D01*
X105511315Y-104514126D01*
X105508362Y-104519919D01*
X105505467Y-104534479D01*
X105486423Y-104562979D01*
X105473223Y-104588887D01*
X105460834Y-104601275D01*
X105446992Y-104621992D01*
X105426275Y-104635834D01*
X105413887Y-104648223D01*
X105387979Y-104661423D01*
X105359479Y-104680467D01*
X105344919Y-104683362D01*
X105339126Y-104686315D01*
X105294718Y-104693348D01*
X105256250Y-104701000D01*
X104743750Y-104701000D01*
X104705284Y-104693349D01*
X104660873Y-104686315D01*
X104655078Y-104683362D01*
X104640521Y-104680467D01*
X104612023Y-104661425D01*
X104586112Y-104648223D01*
X104573721Y-104635832D01*
X104553008Y-104621992D01*
X104539167Y-104601278D01*
X104526776Y-104588887D01*
X104513572Y-104562973D01*
X104494533Y-104534479D01*
X104491637Y-104519923D01*
X104488684Y-104514126D01*
X104481646Y-104469694D01*
X104474000Y-104431250D01*
X104474000Y-103993750D01*
X104481646Y-103955309D01*
X104488684Y-103910873D01*
X104491638Y-103905075D01*
X104494533Y-103890521D01*
X104513570Y-103862029D01*
X104526776Y-103836112D01*
X104539169Y-103823718D01*
X104553008Y-103803008D01*
X104573718Y-103789169D01*
X104586112Y-103776776D01*
X104612029Y-103763570D01*
X104640521Y-103744533D01*
X104655075Y-103741638D01*
X104660873Y-103738684D01*
X104705309Y-103731646D01*
X104743750Y-103724000D01*
X105256250Y-103724000D01*
X105294694Y-103731646D01*
G37*
G36*
X111325958Y-103904111D02*
G01*
X111334496Y-103904111D01*
X111387979Y-103917293D01*
X111466410Y-103933964D01*
X111479799Y-103939925D01*
X111498578Y-103944554D01*
X111545465Y-103969162D01*
X111600155Y-103993512D01*
X111621737Y-104009192D01*
X111648213Y-104023088D01*
X111681720Y-104052773D01*
X111718599Y-104079567D01*
X111744757Y-104108618D01*
X111774706Y-104135151D01*
X111794606Y-104163982D01*
X111816563Y-104188367D01*
X111842769Y-104233758D01*
X111870705Y-104274229D01*
X111879451Y-104297292D01*
X111889766Y-104315157D01*
X111910934Y-104380306D01*
X111930630Y-104432240D01*
X111932313Y-104446103D01*
X111935008Y-104454397D01*
X111945875Y-104557793D01*
X111951000Y-104600000D01*
X111945873Y-104642217D01*
X111935008Y-104745602D01*
X111932313Y-104753894D01*
X111930630Y-104767760D01*
X111910932Y-104819699D01*
X111889766Y-104884842D01*
X111879452Y-104902705D01*
X111870705Y-104925771D01*
X111842766Y-104966247D01*
X111816563Y-105011632D01*
X111794609Y-105036013D01*
X111774706Y-105064849D01*
X111744753Y-105091384D01*
X111718599Y-105120432D01*
X111681726Y-105147221D01*
X111648213Y-105176912D01*
X111621732Y-105190809D01*
X111600155Y-105206487D01*
X111545478Y-105230831D01*
X111498578Y-105255446D01*
X111479794Y-105260075D01*
X111466410Y-105266035D01*
X111387992Y-105282703D01*
X111334496Y-105295889D01*
X111325958Y-105295889D01*
X111323201Y-105296475D01*
X111176799Y-105296475D01*
X111174042Y-105295889D01*
X111165504Y-105295889D01*
X111112009Y-105282703D01*
X111033589Y-105266035D01*
X111020203Y-105260075D01*
X111001422Y-105255446D01*
X110954527Y-105230834D01*
X110899844Y-105206487D01*
X110878263Y-105190808D01*
X110851787Y-105176912D01*
X110818277Y-105147225D01*
X110781400Y-105120432D01*
X110755241Y-105091380D01*
X110725294Y-105064849D01*
X110705393Y-105036018D01*
X110683436Y-105011632D01*
X110657227Y-104966238D01*
X110629295Y-104925771D01*
X110620549Y-104902710D01*
X110610233Y-104884842D01*
X110589060Y-104819681D01*
X110569370Y-104767760D01*
X110567686Y-104753899D01*
X110564991Y-104745602D01*
X110554118Y-104642156D01*
X110549000Y-104600000D01*
X110554117Y-104557854D01*
X110564991Y-104454397D01*
X110567687Y-104446099D01*
X110569370Y-104432240D01*
X110589058Y-104380324D01*
X110610233Y-104315157D01*
X110620550Y-104297287D01*
X110629295Y-104274229D01*
X110657224Y-104233766D01*
X110683436Y-104188367D01*
X110705396Y-104163977D01*
X110725294Y-104135151D01*
X110755238Y-104108622D01*
X110781402Y-104079565D01*
X110818287Y-104052766D01*
X110851787Y-104023088D01*
X110878256Y-104009195D01*
X110899842Y-103993513D01*
X110954539Y-103969159D01*
X111001422Y-103944554D01*
X111020198Y-103939925D01*
X111033589Y-103933964D01*
X111112023Y-103917292D01*
X111165504Y-103904111D01*
X111174042Y-103904111D01*
X111176799Y-103903525D01*
X111323201Y-103903525D01*
X111325958Y-103904111D01*
G37*
G36*
X113825958Y-103904111D02*
G01*
X113834496Y-103904111D01*
X113887979Y-103917293D01*
X113966410Y-103933964D01*
X113979799Y-103939925D01*
X113998578Y-103944554D01*
X114045465Y-103969162D01*
X114100155Y-103993512D01*
X114121737Y-104009192D01*
X114148213Y-104023088D01*
X114181720Y-104052773D01*
X114218599Y-104079567D01*
X114244757Y-104108618D01*
X114274706Y-104135151D01*
X114294606Y-104163982D01*
X114316563Y-104188367D01*
X114342769Y-104233758D01*
X114370705Y-104274229D01*
X114379451Y-104297292D01*
X114389766Y-104315157D01*
X114410934Y-104380306D01*
X114430630Y-104432240D01*
X114432313Y-104446103D01*
X114435008Y-104454397D01*
X114445875Y-104557793D01*
X114451000Y-104600000D01*
X114445873Y-104642217D01*
X114435008Y-104745602D01*
X114432313Y-104753894D01*
X114430630Y-104767760D01*
X114410932Y-104819699D01*
X114389766Y-104884842D01*
X114379452Y-104902705D01*
X114370705Y-104925771D01*
X114342766Y-104966247D01*
X114316563Y-105011632D01*
X114294609Y-105036013D01*
X114274706Y-105064849D01*
X114244753Y-105091384D01*
X114218599Y-105120432D01*
X114181726Y-105147221D01*
X114148213Y-105176912D01*
X114121732Y-105190809D01*
X114100155Y-105206487D01*
X114045478Y-105230831D01*
X113998578Y-105255446D01*
X113979794Y-105260075D01*
X113966410Y-105266035D01*
X113887992Y-105282703D01*
X113834496Y-105295889D01*
X113825958Y-105295889D01*
X113823201Y-105296475D01*
X113676799Y-105296475D01*
X113674042Y-105295889D01*
X113665504Y-105295889D01*
X113612009Y-105282703D01*
X113533589Y-105266035D01*
X113520203Y-105260075D01*
X113501422Y-105255446D01*
X113454527Y-105230834D01*
X113399844Y-105206487D01*
X113378263Y-105190808D01*
X113351787Y-105176912D01*
X113318277Y-105147225D01*
X113281400Y-105120432D01*
X113255241Y-105091380D01*
X113225294Y-105064849D01*
X113205393Y-105036018D01*
X113183436Y-105011632D01*
X113157227Y-104966238D01*
X113129295Y-104925771D01*
X113120549Y-104902710D01*
X113110233Y-104884842D01*
X113089060Y-104819681D01*
X113069370Y-104767760D01*
X113067686Y-104753899D01*
X113064991Y-104745602D01*
X113054118Y-104642156D01*
X113049000Y-104600000D01*
X113054117Y-104557854D01*
X113064991Y-104454397D01*
X113067687Y-104446099D01*
X113069370Y-104432240D01*
X113089058Y-104380324D01*
X113110233Y-104315157D01*
X113120550Y-104297287D01*
X113129295Y-104274229D01*
X113157224Y-104233766D01*
X113183436Y-104188367D01*
X113205396Y-104163977D01*
X113225294Y-104135151D01*
X113255238Y-104108622D01*
X113281402Y-104079565D01*
X113318287Y-104052766D01*
X113351787Y-104023088D01*
X113378256Y-104009195D01*
X113399842Y-103993513D01*
X113454539Y-103969159D01*
X113501422Y-103944554D01*
X113520198Y-103939925D01*
X113533589Y-103933964D01*
X113612023Y-103917292D01*
X113665504Y-103904111D01*
X113674042Y-103904111D01*
X113676799Y-103903525D01*
X113823201Y-103903525D01*
X113825958Y-103904111D01*
G37*
G36*
X116325958Y-103904111D02*
G01*
X116334496Y-103904111D01*
X116387979Y-103917293D01*
X116466410Y-103933964D01*
X116479799Y-103939925D01*
X116498578Y-103944554D01*
X116545465Y-103969162D01*
X116600155Y-103993512D01*
X116621737Y-104009192D01*
X116648213Y-104023088D01*
X116681720Y-104052773D01*
X116718599Y-104079567D01*
X116744757Y-104108618D01*
X116774706Y-104135151D01*
X116794606Y-104163982D01*
X116816563Y-104188367D01*
X116842769Y-104233758D01*
X116870705Y-104274229D01*
X116879451Y-104297292D01*
X116889766Y-104315157D01*
X116910934Y-104380306D01*
X116930630Y-104432240D01*
X116932313Y-104446103D01*
X116935008Y-104454397D01*
X116945875Y-104557793D01*
X116951000Y-104600000D01*
X116945873Y-104642217D01*
X116935008Y-104745602D01*
X116932313Y-104753894D01*
X116930630Y-104767760D01*
X116910932Y-104819699D01*
X116889766Y-104884842D01*
X116879452Y-104902705D01*
X116870705Y-104925771D01*
X116842766Y-104966247D01*
X116816563Y-105011632D01*
X116794609Y-105036013D01*
X116774706Y-105064849D01*
X116744753Y-105091384D01*
X116718599Y-105120432D01*
X116681726Y-105147221D01*
X116648213Y-105176912D01*
X116621732Y-105190809D01*
X116600155Y-105206487D01*
X116545478Y-105230831D01*
X116498578Y-105255446D01*
X116479794Y-105260075D01*
X116466410Y-105266035D01*
X116387992Y-105282703D01*
X116334496Y-105295889D01*
X116325958Y-105295889D01*
X116323201Y-105296475D01*
X116176799Y-105296475D01*
X116174042Y-105295889D01*
X116165504Y-105295889D01*
X116112009Y-105282703D01*
X116033589Y-105266035D01*
X116020203Y-105260075D01*
X116001422Y-105255446D01*
X115954527Y-105230834D01*
X115899844Y-105206487D01*
X115878263Y-105190808D01*
X115851787Y-105176912D01*
X115818277Y-105147225D01*
X115781400Y-105120432D01*
X115755241Y-105091380D01*
X115725294Y-105064849D01*
X115705393Y-105036018D01*
X115683436Y-105011632D01*
X115657227Y-104966238D01*
X115629295Y-104925771D01*
X115620549Y-104902710D01*
X115610233Y-104884842D01*
X115589060Y-104819681D01*
X115569370Y-104767760D01*
X115567686Y-104753899D01*
X115564991Y-104745602D01*
X115554118Y-104642156D01*
X115549000Y-104600000D01*
X115554117Y-104557854D01*
X115564991Y-104454397D01*
X115567687Y-104446099D01*
X115569370Y-104432240D01*
X115589058Y-104380324D01*
X115610233Y-104315157D01*
X115620550Y-104297287D01*
X115629295Y-104274229D01*
X115657224Y-104233766D01*
X115683436Y-104188367D01*
X115705396Y-104163977D01*
X115725294Y-104135151D01*
X115755238Y-104108622D01*
X115781402Y-104079565D01*
X115818287Y-104052766D01*
X115851787Y-104023088D01*
X115878256Y-104009195D01*
X115899842Y-103993513D01*
X115954539Y-103969159D01*
X116001422Y-103944554D01*
X116020198Y-103939925D01*
X116033589Y-103933964D01*
X116112023Y-103917292D01*
X116165504Y-103904111D01*
X116174042Y-103904111D01*
X116176799Y-103903525D01*
X116323201Y-103903525D01*
X116325958Y-103904111D01*
G37*
G36*
X118825958Y-103904111D02*
G01*
X118834496Y-103904111D01*
X118887979Y-103917293D01*
X118966410Y-103933964D01*
X118979799Y-103939925D01*
X118998578Y-103944554D01*
X119045465Y-103969162D01*
X119100155Y-103993512D01*
X119121737Y-104009192D01*
X119148213Y-104023088D01*
X119181720Y-104052773D01*
X119218599Y-104079567D01*
X119244757Y-104108618D01*
X119274706Y-104135151D01*
X119294606Y-104163982D01*
X119316563Y-104188367D01*
X119342769Y-104233758D01*
X119370705Y-104274229D01*
X119379451Y-104297292D01*
X119389766Y-104315157D01*
X119410934Y-104380306D01*
X119430630Y-104432240D01*
X119432313Y-104446103D01*
X119435008Y-104454397D01*
X119445874Y-104557788D01*
X119451000Y-104600000D01*
X119445874Y-104642213D01*
X119435008Y-104745602D01*
X119432313Y-104753894D01*
X119430630Y-104767760D01*
X119410932Y-104819699D01*
X119389766Y-104884842D01*
X119379452Y-104902705D01*
X119370705Y-104925771D01*
X119342766Y-104966247D01*
X119316563Y-105011632D01*
X119294609Y-105036013D01*
X119274706Y-105064849D01*
X119244753Y-105091384D01*
X119218599Y-105120432D01*
X119181726Y-105147221D01*
X119148213Y-105176912D01*
X119121732Y-105190809D01*
X119100155Y-105206487D01*
X119045478Y-105230831D01*
X118998578Y-105255446D01*
X118979794Y-105260075D01*
X118966410Y-105266035D01*
X118887992Y-105282703D01*
X118834496Y-105295889D01*
X118825958Y-105295889D01*
X118823201Y-105296475D01*
X118676799Y-105296475D01*
X118674042Y-105295889D01*
X118665504Y-105295889D01*
X118612009Y-105282703D01*
X118533589Y-105266035D01*
X118520203Y-105260075D01*
X118501422Y-105255446D01*
X118454527Y-105230834D01*
X118399844Y-105206487D01*
X118378263Y-105190808D01*
X118351787Y-105176912D01*
X118318277Y-105147225D01*
X118281400Y-105120432D01*
X118255241Y-105091380D01*
X118225294Y-105064849D01*
X118205393Y-105036018D01*
X118183436Y-105011632D01*
X118157227Y-104966238D01*
X118129295Y-104925771D01*
X118120549Y-104902710D01*
X118110233Y-104884842D01*
X118089060Y-104819681D01*
X118069370Y-104767760D01*
X118067686Y-104753899D01*
X118064991Y-104745602D01*
X118054118Y-104642151D01*
X118049000Y-104600000D01*
X118054118Y-104557849D01*
X118064991Y-104454397D01*
X118067687Y-104446099D01*
X118069370Y-104432240D01*
X118089058Y-104380324D01*
X118110233Y-104315157D01*
X118120550Y-104297287D01*
X118129295Y-104274229D01*
X118157224Y-104233766D01*
X118183436Y-104188367D01*
X118205396Y-104163977D01*
X118225294Y-104135151D01*
X118255238Y-104108622D01*
X118281402Y-104079565D01*
X118318287Y-104052766D01*
X118351787Y-104023088D01*
X118378256Y-104009195D01*
X118399842Y-103993513D01*
X118454539Y-103969159D01*
X118501422Y-103944554D01*
X118520198Y-103939925D01*
X118533589Y-103933964D01*
X118612023Y-103917292D01*
X118665504Y-103904111D01*
X118674042Y-103904111D01*
X118676799Y-103903525D01*
X118823201Y-103903525D01*
X118825958Y-103904111D01*
G37*
G36*
X121325958Y-103904111D02*
G01*
X121334496Y-103904111D01*
X121387979Y-103917293D01*
X121466410Y-103933964D01*
X121479799Y-103939925D01*
X121498578Y-103944554D01*
X121545465Y-103969162D01*
X121600155Y-103993512D01*
X121621737Y-104009192D01*
X121648213Y-104023088D01*
X121681720Y-104052773D01*
X121718599Y-104079567D01*
X121744757Y-104108618D01*
X121774706Y-104135151D01*
X121794606Y-104163982D01*
X121816563Y-104188367D01*
X121842769Y-104233758D01*
X121870705Y-104274229D01*
X121879451Y-104297292D01*
X121889766Y-104315157D01*
X121910934Y-104380306D01*
X121930630Y-104432240D01*
X121932313Y-104446103D01*
X121935008Y-104454397D01*
X121945874Y-104557788D01*
X121951000Y-104600000D01*
X121945874Y-104642213D01*
X121935008Y-104745602D01*
X121932313Y-104753894D01*
X121930630Y-104767760D01*
X121910932Y-104819699D01*
X121889766Y-104884842D01*
X121879452Y-104902705D01*
X121870705Y-104925771D01*
X121842766Y-104966247D01*
X121816563Y-105011632D01*
X121794609Y-105036013D01*
X121774706Y-105064849D01*
X121744753Y-105091384D01*
X121718599Y-105120432D01*
X121681726Y-105147221D01*
X121648213Y-105176912D01*
X121621732Y-105190809D01*
X121600155Y-105206487D01*
X121545478Y-105230831D01*
X121498578Y-105255446D01*
X121479794Y-105260075D01*
X121466410Y-105266035D01*
X121387992Y-105282703D01*
X121334496Y-105295889D01*
X121325958Y-105295889D01*
X121323201Y-105296475D01*
X121176799Y-105296475D01*
X121174042Y-105295889D01*
X121165504Y-105295889D01*
X121112009Y-105282703D01*
X121033589Y-105266035D01*
X121020203Y-105260075D01*
X121001422Y-105255446D01*
X120954527Y-105230834D01*
X120899844Y-105206487D01*
X120878263Y-105190808D01*
X120851787Y-105176912D01*
X120818277Y-105147225D01*
X120781400Y-105120432D01*
X120755241Y-105091380D01*
X120725294Y-105064849D01*
X120705393Y-105036018D01*
X120683436Y-105011632D01*
X120657227Y-104966238D01*
X120629295Y-104925771D01*
X120620549Y-104902710D01*
X120610233Y-104884842D01*
X120589060Y-104819681D01*
X120569370Y-104767760D01*
X120567686Y-104753899D01*
X120564991Y-104745602D01*
X120554118Y-104642151D01*
X120549000Y-104600000D01*
X120554118Y-104557849D01*
X120564991Y-104454397D01*
X120567687Y-104446099D01*
X120569370Y-104432240D01*
X120589058Y-104380324D01*
X120610233Y-104315157D01*
X120620550Y-104297287D01*
X120629295Y-104274229D01*
X120657224Y-104233766D01*
X120683436Y-104188367D01*
X120705396Y-104163977D01*
X120725294Y-104135151D01*
X120755238Y-104108622D01*
X120781402Y-104079565D01*
X120818287Y-104052766D01*
X120851787Y-104023088D01*
X120878256Y-104009195D01*
X120899842Y-103993513D01*
X120954539Y-103969159D01*
X121001422Y-103944554D01*
X121020198Y-103939925D01*
X121033589Y-103933964D01*
X121112023Y-103917292D01*
X121165504Y-103904111D01*
X121174042Y-103904111D01*
X121176799Y-103903525D01*
X121323201Y-103903525D01*
X121325958Y-103904111D01*
G37*
G36*
X123825958Y-103904111D02*
G01*
X123834496Y-103904111D01*
X123887979Y-103917293D01*
X123966410Y-103933964D01*
X123979799Y-103939925D01*
X123998578Y-103944554D01*
X124045465Y-103969162D01*
X124100155Y-103993512D01*
X124121737Y-104009192D01*
X124148213Y-104023088D01*
X124181720Y-104052773D01*
X124218599Y-104079567D01*
X124244757Y-104108618D01*
X124274706Y-104135151D01*
X124294606Y-104163982D01*
X124316563Y-104188367D01*
X124342769Y-104233758D01*
X124370705Y-104274229D01*
X124379451Y-104297292D01*
X124389766Y-104315157D01*
X124410934Y-104380306D01*
X124430630Y-104432240D01*
X124432313Y-104446103D01*
X124435008Y-104454397D01*
X124445875Y-104557793D01*
X124451000Y-104600000D01*
X124445873Y-104642217D01*
X124435008Y-104745602D01*
X124432313Y-104753894D01*
X124430630Y-104767760D01*
X124410932Y-104819699D01*
X124389766Y-104884842D01*
X124379452Y-104902705D01*
X124370705Y-104925771D01*
X124342766Y-104966247D01*
X124316563Y-105011632D01*
X124294609Y-105036013D01*
X124274706Y-105064849D01*
X124244753Y-105091384D01*
X124218599Y-105120432D01*
X124181726Y-105147221D01*
X124148213Y-105176912D01*
X124121732Y-105190809D01*
X124100155Y-105206487D01*
X124045478Y-105230831D01*
X123998578Y-105255446D01*
X123979794Y-105260075D01*
X123966410Y-105266035D01*
X123887992Y-105282703D01*
X123834496Y-105295889D01*
X123825958Y-105295889D01*
X123823201Y-105296475D01*
X123676799Y-105296475D01*
X123674042Y-105295889D01*
X123665504Y-105295889D01*
X123612009Y-105282703D01*
X123533589Y-105266035D01*
X123520203Y-105260075D01*
X123501422Y-105255446D01*
X123454527Y-105230834D01*
X123399844Y-105206487D01*
X123378263Y-105190808D01*
X123351787Y-105176912D01*
X123318277Y-105147225D01*
X123281400Y-105120432D01*
X123255241Y-105091380D01*
X123225294Y-105064849D01*
X123205393Y-105036018D01*
X123183436Y-105011632D01*
X123157227Y-104966238D01*
X123129295Y-104925771D01*
X123120549Y-104902710D01*
X123110233Y-104884842D01*
X123089060Y-104819681D01*
X123069370Y-104767760D01*
X123067686Y-104753899D01*
X123064991Y-104745602D01*
X123054118Y-104642156D01*
X123049000Y-104600000D01*
X123054117Y-104557854D01*
X123064991Y-104454397D01*
X123067687Y-104446099D01*
X123069370Y-104432240D01*
X123089058Y-104380324D01*
X123110233Y-104315157D01*
X123120550Y-104297287D01*
X123129295Y-104274229D01*
X123157224Y-104233766D01*
X123183436Y-104188367D01*
X123205396Y-104163977D01*
X123225294Y-104135151D01*
X123255238Y-104108622D01*
X123281402Y-104079565D01*
X123318287Y-104052766D01*
X123351787Y-104023088D01*
X123378256Y-104009195D01*
X123399842Y-103993513D01*
X123454539Y-103969159D01*
X123501422Y-103944554D01*
X123520198Y-103939925D01*
X123533589Y-103933964D01*
X123612023Y-103917292D01*
X123665504Y-103904111D01*
X123674042Y-103904111D01*
X123676799Y-103903525D01*
X123823201Y-103903525D01*
X123825958Y-103904111D01*
G37*
G36*
X129543914Y-105081995D02*
G01*
X129559726Y-105088976D01*
X129567531Y-105090213D01*
X129600039Y-105106776D01*
X129645106Y-105126676D01*
X129723324Y-105204894D01*
X129743226Y-105249967D01*
X129759786Y-105282468D01*
X129761021Y-105290270D01*
X129768005Y-105306086D01*
X129776000Y-105375000D01*
X129776000Y-106625000D01*
X129768005Y-106693914D01*
X129761021Y-106709729D01*
X129759786Y-106717531D01*
X129743229Y-106750024D01*
X129723324Y-106795106D01*
X129645106Y-106873324D01*
X129600024Y-106893229D01*
X129567531Y-106909786D01*
X129559729Y-106911021D01*
X129543914Y-106918005D01*
X129475000Y-106926000D01*
X128725000Y-106926000D01*
X128656086Y-106918005D01*
X128640270Y-106911021D01*
X128632468Y-106909786D01*
X128599967Y-106893226D01*
X128554894Y-106873324D01*
X128476676Y-106795106D01*
X128456776Y-106750039D01*
X128440213Y-106717531D01*
X128438976Y-106709726D01*
X128431995Y-106693914D01*
X128424000Y-106625000D01*
X128424000Y-105375000D01*
X128431995Y-105306086D01*
X128438976Y-105290274D01*
X128440213Y-105282468D01*
X128456780Y-105249953D01*
X128476676Y-105204894D01*
X128554894Y-105126676D01*
X128599953Y-105106780D01*
X128632468Y-105090213D01*
X128640274Y-105088976D01*
X128656086Y-105081995D01*
X128725000Y-105074000D01*
X129475000Y-105074000D01*
X129543914Y-105081995D01*
G37*
G36*
X132343914Y-105081995D02*
G01*
X132359726Y-105088976D01*
X132367531Y-105090213D01*
X132400039Y-105106776D01*
X132445106Y-105126676D01*
X132523324Y-105204894D01*
X132543226Y-105249967D01*
X132559786Y-105282468D01*
X132561021Y-105290270D01*
X132568005Y-105306086D01*
X132576000Y-105375000D01*
X132576000Y-106625000D01*
X132568005Y-106693914D01*
X132561021Y-106709729D01*
X132559786Y-106717531D01*
X132543229Y-106750024D01*
X132523324Y-106795106D01*
X132445106Y-106873324D01*
X132400024Y-106893229D01*
X132367531Y-106909786D01*
X132359729Y-106911021D01*
X132343914Y-106918005D01*
X132275000Y-106926000D01*
X131525000Y-106926000D01*
X131456086Y-106918005D01*
X131440270Y-106911021D01*
X131432468Y-106909786D01*
X131399967Y-106893226D01*
X131354894Y-106873324D01*
X131276676Y-106795106D01*
X131256776Y-106750039D01*
X131240213Y-106717531D01*
X131238976Y-106709726D01*
X131231995Y-106693914D01*
X131224000Y-106625000D01*
X131224000Y-105375000D01*
X131231995Y-105306086D01*
X131238976Y-105290274D01*
X131240213Y-105282468D01*
X131256780Y-105249953D01*
X131276676Y-105204894D01*
X131354894Y-105126676D01*
X131399953Y-105106780D01*
X131432468Y-105090213D01*
X131440274Y-105088976D01*
X131456086Y-105081995D01*
X131525000Y-105074000D01*
X132275000Y-105074000D01*
X132343914Y-105081995D01*
G37*
G36*
X105294694Y-105306646D02*
G01*
X105339126Y-105313684D01*
X105344923Y-105316637D01*
X105359479Y-105319533D01*
X105387973Y-105338572D01*
X105413887Y-105351776D01*
X105426278Y-105364167D01*
X105446992Y-105378008D01*
X105460832Y-105398721D01*
X105473223Y-105411112D01*
X105486425Y-105437023D01*
X105505467Y-105465521D01*
X105508362Y-105480078D01*
X105511315Y-105485873D01*
X105518349Y-105530284D01*
X105526000Y-105568750D01*
X105526000Y-106006250D01*
X105518348Y-106044718D01*
X105511315Y-106089126D01*
X105508362Y-106094919D01*
X105505467Y-106109479D01*
X105486423Y-106137979D01*
X105473223Y-106163887D01*
X105460834Y-106176275D01*
X105446992Y-106196992D01*
X105426275Y-106210834D01*
X105413887Y-106223223D01*
X105387979Y-106236423D01*
X105359479Y-106255467D01*
X105344919Y-106258362D01*
X105339126Y-106261315D01*
X105294718Y-106268348D01*
X105256250Y-106276000D01*
X104743750Y-106276000D01*
X104705284Y-106268349D01*
X104660873Y-106261315D01*
X104655078Y-106258362D01*
X104640521Y-106255467D01*
X104612023Y-106236425D01*
X104586112Y-106223223D01*
X104573721Y-106210832D01*
X104553008Y-106196992D01*
X104539167Y-106176278D01*
X104526776Y-106163887D01*
X104513572Y-106137973D01*
X104494533Y-106109479D01*
X104491637Y-106094923D01*
X104488684Y-106089126D01*
X104481646Y-106044694D01*
X104474000Y-106006250D01*
X104474000Y-105568750D01*
X104481646Y-105530309D01*
X104488684Y-105485873D01*
X104491638Y-105480075D01*
X104494533Y-105465521D01*
X104513570Y-105437029D01*
X104526776Y-105411112D01*
X104539169Y-105398718D01*
X104553008Y-105378008D01*
X104573718Y-105364169D01*
X104586112Y-105351776D01*
X104612029Y-105338570D01*
X104640521Y-105319533D01*
X104655075Y-105316638D01*
X104660873Y-105313684D01*
X104705309Y-105306646D01*
X104743750Y-105299000D01*
X105256250Y-105299000D01*
X105294694Y-105306646D01*
G37*
G36*
X129323539Y-103492190D02*
G01*
X129361016Y-103497124D01*
X129370443Y-103501519D01*
X129391116Y-103505632D01*
X129418499Y-103523929D01*
X129431718Y-103530093D01*
X129439759Y-103538134D01*
X129462003Y-103552997D01*
X129476865Y-103575240D01*
X129484906Y-103583281D01*
X129491068Y-103596497D01*
X129509368Y-103623884D01*
X129513480Y-103644558D01*
X129517875Y-103653983D01*
X129522807Y-103691449D01*
X129526000Y-103707500D01*
X129526000Y-104042500D01*
X129522806Y-104058553D01*
X129517875Y-104096016D01*
X129513480Y-104105439D01*
X129509368Y-104126116D01*
X129491067Y-104153504D01*
X129484906Y-104166718D01*
X129476867Y-104174756D01*
X129462003Y-104197003D01*
X129439756Y-104211867D01*
X129431718Y-104219906D01*
X129418504Y-104226067D01*
X129391116Y-104244368D01*
X129370439Y-104248480D01*
X129361016Y-104252875D01*
X129323552Y-104257806D01*
X129307500Y-104261000D01*
X128692500Y-104261000D01*
X128676448Y-104257807D01*
X128638983Y-104252875D01*
X128629558Y-104248480D01*
X128608884Y-104244368D01*
X128581497Y-104226068D01*
X128568281Y-104219906D01*
X128560240Y-104211865D01*
X128537997Y-104197003D01*
X128523134Y-104174759D01*
X128515093Y-104166718D01*
X128508929Y-104153499D01*
X128490632Y-104126116D01*
X128486519Y-104105443D01*
X128482124Y-104096016D01*
X128477190Y-104058537D01*
X128474000Y-104042500D01*
X128474000Y-103707500D01*
X128477189Y-103691462D01*
X128482124Y-103653983D01*
X128486520Y-103644555D01*
X128490632Y-103623884D01*
X128508927Y-103596502D01*
X128515093Y-103583281D01*
X128523136Y-103575237D01*
X128537997Y-103552997D01*
X128560237Y-103538136D01*
X128568281Y-103530093D01*
X128581502Y-103523927D01*
X128608884Y-103505632D01*
X128629555Y-103501520D01*
X128638983Y-103497124D01*
X128676464Y-103492189D01*
X128692500Y-103489000D01*
X129307500Y-103489000D01*
X129323539Y-103492190D01*
G37*
G36*
X129323539Y-101742190D02*
G01*
X129361016Y-101747124D01*
X129370443Y-101751519D01*
X129391116Y-101755632D01*
X129418499Y-101773929D01*
X129431718Y-101780093D01*
X129439759Y-101788134D01*
X129462003Y-101802997D01*
X129476865Y-101825240D01*
X129484906Y-101833281D01*
X129491068Y-101846497D01*
X129509368Y-101873884D01*
X129513480Y-101894558D01*
X129517875Y-101903983D01*
X129522807Y-101941449D01*
X129526000Y-101957500D01*
X129526000Y-102292500D01*
X129522806Y-102308553D01*
X129517875Y-102346016D01*
X129513480Y-102355439D01*
X129509368Y-102376116D01*
X129491067Y-102403504D01*
X129484906Y-102416718D01*
X129476867Y-102424756D01*
X129462003Y-102447003D01*
X129439756Y-102461867D01*
X129431718Y-102469906D01*
X129418504Y-102476067D01*
X129391116Y-102494368D01*
X129370439Y-102498480D01*
X129361016Y-102502875D01*
X129323552Y-102507806D01*
X129307500Y-102511000D01*
X128692500Y-102511000D01*
X128676448Y-102507807D01*
X128638983Y-102502875D01*
X128629558Y-102498480D01*
X128608884Y-102494368D01*
X128581497Y-102476068D01*
X128568281Y-102469906D01*
X128560240Y-102461865D01*
X128537997Y-102447003D01*
X128523134Y-102424759D01*
X128515093Y-102416718D01*
X128508929Y-102403499D01*
X128490632Y-102376116D01*
X128486519Y-102355443D01*
X128482124Y-102346016D01*
X128477190Y-102308537D01*
X128474000Y-102292500D01*
X128474000Y-101957500D01*
X128477189Y-101941462D01*
X128482124Y-101903983D01*
X128486520Y-101894555D01*
X128490632Y-101873884D01*
X128508927Y-101846502D01*
X128515093Y-101833281D01*
X128523136Y-101825237D01*
X128537997Y-101802997D01*
X128560237Y-101788136D01*
X128568281Y-101780093D01*
X128581502Y-101773927D01*
X128608884Y-101755632D01*
X128629555Y-101751520D01*
X128638983Y-101747124D01*
X128676464Y-101742189D01*
X128692500Y-101739000D01*
X129307500Y-101739000D01*
X129323539Y-101742190D01*
G37*
M02*
